<svg width="9" height="8" viewBox="0 0 9 8" fill="none" xmlns="http://www.w3.org/2000/svg">
<g id="smallFog">
<rect id="Rectangle 56" x="1" y="1" width="7" height="6.26316" fill="white"/>
<g id="Group 49">
<path id="Vector 233" d="M5.3272 1.82426C4.50487 1.70884 3.90845 1.50996 3.51581 2.32796C3.46656 2.43057 3.51846 3.06618 3.37439 3.00215C3.0378 2.85255 2.86191 2.74101 2.47935 2.89172C1.92733 3.10918 1.56106 3.42943 1.56106 4.03667C1.56106 4.60388 1.94861 4.65567 2.37086 4.76123C2.51872 4.7982 2.95488 4.67087 2.82806 4.75542C2.71043 4.83384 2.58907 5.00086 2.55684 5.13901C2.32059 6.15148 3.62585 6.68936 4.37017 6.18322C4.61073 6.01964 4.59635 5.78252 4.78669 6.07861C4.97222 6.36721 5.56798 6.4903 5.86578 6.34983C6.40798 6.09407 6.60319 5.78891 6.73951 5.24362C6.77075 5.11865 6.7033 4.98373 6.6407 4.87941C6.58416 4.78517 6.86789 4.88576 6.96811 4.84066C7.90561 4.41879 7.39389 2.52481 6.33848 3.05252C6.25104 3.09624 6.31165 3.15821 6.35592 3.02539C6.41058 2.8614 6.34919 2.70697 6.28424 2.5585C6.20427 2.37571 5.89474 2.10656 5.69529 2.0703C5.38612 2.01408 5.14328 1.97837 4.85643 2.20785C4.74265 2.29888 4.90874 2.19395 4.90874 1.99862C4.90874 1.77635 4.67657 1.68477 4.48253 1.68477C3.87266 1.68477 3.33951 2.15024 3.33951 2.78323C3.33951 2.94756 3.38408 2.57205 3.40151 2.50619C3.49227 2.16331 3.69845 1.8556 4.07182 1.76226C4.46316 1.66443 4.71295 1.83619 5.06373 1.96374C5.1662 2.00101 5.44765 2.35872 5.4047 2.27759C5.21005 1.90992 4.2811 1.97358 3.91877 2.08386C3.74645 2.13631 4.02051 2.05314 4.07182 1.99862C4.13904 1.9272 3.56662 2.21121 3.7696 2.15748C4.01741 2.09188 4.81828 1.6804 4.13382 1.99862C3.76635 2.16945 3.21934 2.45551 3.88196 2.06836C3.9628 2.02113 4.60078 1.71623 4.24618 1.80488C4.05116 1.85364 3.99351 1.81563 4.20743 1.75451C4.37143 1.70766 3.94153 1.97271 3.78897 2.04899C3.4478 2.21957 3.31694 2.33986 3.71535 2.11098C3.74003 2.09681 3.96467 1.97157 3.87421 2.03542C3.82394 2.07091 3.64994 2.1226 3.71148 2.1226C3.93404 2.1226 4.52453 1.79514 4.35273 1.93662C4.24932 2.02178 3.34392 2.43541 3.74441 2.32796C4.04941 2.24613 4.90646 1.83868 4.62977 1.99087C4.49514 2.06491 3.66477 2.46087 4.21131 2.30471C4.41276 2.24716 4.61945 2.14337 4.82544 2.10904C5.00932 2.0784 4.48319 2.2573 4.31592 2.33958C4.14167 2.4253 3.81931 2.50855 3.69986 2.6728C3.69816 2.67513 4.08992 2.54518 4.14931 2.51394C4.26962 2.45068 5.21512 2.00457 4.6472 2.21753C4.29006 2.35146 3.94095 2.51926 3.59912 2.6883C3.39185 2.79079 3.3456 2.82788 3.59524 2.6728C3.81493 2.53633 4.71125 2.10399 3.95171 2.34733C3.7285 2.41885 3.41007 2.49932 3.7851 2.35508C3.82309 2.34047 3.41937 2.46647 3.30852 2.55269C3.276 2.57798 4.02461 2.26956 4.21518 2.17685C4.64046 1.96996 3.65542 2.46998 3.56231 2.52557C3.31672 2.67219 3.08489 2.84761 2.82419 2.96727C2.70757 3.02081 2.6911 3.03627 2.82419 2.99052C3.10521 2.89392 3.88511 2.46147 3.63786 2.62631C3.4388 2.75901 2.78332 2.88056 3.0063 2.96727C3.10981 3.00753 3.76455 2.75551 3.74635 2.76967C3.44904 3.00091 2.38397 3.35952 2.75832 3.31793C3.05627 3.28482 3.7781 3.00295 3.97883 2.77354C4.39102 2.30247 2.878 3.4608 2.25462 3.51747C1.98058 3.54239 3.16512 2.99816 2.89006 2.99052C2.70926 2.9855 2.48449 3.0792 2.33211 3.16682C2.28979 3.19115 1.94365 3.34151 2.12288 3.25787C2.2976 3.17634 2.89143 2.85229 2.87843 2.85878C2.73338 2.93131 1.73804 3.43738 2.21006 3.21525C2.42449 3.11434 3.10916 2.82803 2.50066 3.08158C2.43175 3.11029 1.99187 3.25107 1.97564 3.31599C1.93326 3.48552 2.30829 3.20573 2.46578 3.13001C2.87929 2.93121 3.0978 2.77526 2.54134 3.08351C2.33043 3.20035 1.14715 3.79228 1.99502 3.42061C2.38161 3.25114 2.74985 3.04141 3.13803 2.87622C3.2918 2.81079 3.39946 2.73692 3.16903 2.85104C2.80926 3.02921 2.46036 3.22993 2.10932 3.42448C2.09987 3.42972 1.64083 3.70333 1.65405 3.71508C1.81608 3.8591 3.1776 3.03472 3.34533 2.9479C3.55154 2.84116 4.13527 2.47761 3.97108 2.64181C3.76029 2.85259 3.34829 3.00003 3.09154 3.14357C2.60319 3.41658 2.11923 3.69499 1.6463 3.99405C1.17785 4.29028 2.04067 3.85469 2.1345 3.8042C3.03463 3.31982 3.90172 2.71615 4.85062 2.32796C5.61582 2.01492 3.39773 3.11783 2.68276 3.53297C2.24574 3.78673 1.84807 4.09153 1.42545 4.36602C1.1246 4.56141 1.73113 4.26355 1.78191 4.23815C2.84449 3.70686 3.8788 3.11566 4.93005 2.56238C5.76177 2.12463 3.26056 3.43371 2.47741 3.95337C2.31156 4.06341 1.81461 4.38767 1.99695 4.3079C2.36876 4.14523 2.72311 3.93298 3.07604 3.73445C3.73142 3.3658 4.38385 2.98331 5.05792 2.64955C5.25927 2.54985 5.88476 2.33487 5.66042 2.34733C5.3193 2.36628 4.94051 2.65146 4.65495 2.80648C4.02536 3.14826 3.4246 3.52613 2.81256 3.89719C2.42583 4.13166 2.02369 4.34224 1.64436 4.58881C1.42301 4.73269 2.1544 4.43786 2.38635 4.31177C3.37508 3.77433 4.40756 3.26999 5.36789 2.68443C5.59366 2.54676 5.38781 2.62121 5.26908 2.67668C4.73366 2.92683 4.21428 3.22064 3.70373 3.51747C3.22733 3.79445 2.75726 4.08116 2.28561 4.36602C2.23558 4.39624 2.147 4.451 2.29336 4.38539C2.60138 4.24732 2.88786 4.06627 3.18259 3.903C4.06256 3.41554 6.78126 2.11444 5.84447 2.48101C4.71664 2.92233 3.68694 3.66399 2.66533 4.29627C2.326 4.50629 1.92693 4.73779 2.56265 4.46095C3.30341 4.13836 3.98422 3.71516 4.69951 3.34311C5.07529 3.14766 5.47924 2.89107 5.88515 2.76192C6.46286 2.5781 4.81798 3.33752 4.28686 3.62984C3.76801 3.91541 3.26763 4.23092 2.7467 4.51325C2.39448 4.70415 2.88015 4.53599 2.9753 4.49582C3.99816 4.06394 5.08502 3.47759 6.02851 2.88591C6.94139 2.31343 4.118 3.88334 3.17291 4.40089C3.00577 4.49241 2.5402 4.74016 3.01986 4.56169C3.65357 4.32589 4.20768 3.91324 4.80025 3.59497C5.12753 3.41919 5.69363 3.26341 5.95877 2.99827C6.21444 2.7426 5.30643 3.31132 4.99011 3.48648C4.34386 3.84432 2.40918 4.90773 3.09735 4.63918C4.19296 4.21163 5.24311 3.55607 6.29005 3.01764C6.37356 2.9747 6.79344 2.80292 6.47409 2.95565C5.82832 3.2645 5.20999 3.62251 4.5949 3.98824C3.9099 4.39553 3.21374 4.79054 2.54134 5.21844C2.38676 5.31681 2.08876 5.48075 2.45029 5.31143C3.61753 4.76474 4.72043 4.09291 5.85803 3.49035C5.91445 3.46046 6.68729 3.05788 6.36754 3.17844C5.80958 3.38882 5.30051 3.72094 4.78863 4.02118C4.0883 4.43194 3.39687 4.85176 2.70989 5.28431C2.62673 5.33667 2.14516 5.64103 2.52197 5.46254C3.76569 4.8734 4.91498 4.10053 6.15637 3.50585C6.18836 3.49053 6.5665 3.31349 6.48959 3.33149C6.07112 3.42943 5.66845 3.71073 5.30396 3.92237C4.68266 4.28312 4.06133 4.65321 3.47125 5.06345C3.42797 5.09355 2.92326 5.45535 3.03536 5.41798C3.54615 5.24772 4.03475 4.9284 4.49997 4.6663C5.19089 4.27705 5.89226 3.89757 6.57484 3.49423C7.49514 2.95041 4.72361 4.56444 3.81609 5.12932C3.62705 5.24699 3.05515 5.53624 3.27752 5.52453C3.74578 5.49989 4.40234 4.96983 4.78669 4.74961C5.3957 4.40066 6.00306 4.03948 6.59421 3.66083C6.74079 3.56695 7.0756 3.33815 6.7027 3.54653C5.60918 4.15762 4.55314 4.82613 3.4945 5.49354C2.80015 5.93128 4.94981 4.73326 5.6643 4.32921C6.08837 4.08939 6.49241 3.81246 6.92549 3.58915C7.29558 3.39832 7.06279 3.49969 6.83831 3.63759C5.6177 4.38739 4.37729 5.10088 3.11866 5.78413C2.86702 5.92074 3.11131 5.82942 3.22328 5.77638C3.76874 5.51801 4.27077 5.1609 4.78282 4.84454C5.23385 4.56587 5.70434 4.31277 6.14475 4.0173C6.31211 3.90502 5.70695 4.23024 5.66042 4.25753C4.88657 4.71142 2.549 6.03229 3.37051 5.67177C4.5629 5.14849 5.75775 4.431 6.83056 3.69571C7.66667 3.12264 5.09543 4.74463 4.24231 5.29206C3.7813 5.58787 3.20259 5.87328 2.82613 6.28396C2.69834 6.42337 3.3709 6.07435 3.39763 6.05923C4.51256 5.42906 5.59411 4.72916 6.68139 4.05217C6.99891 3.85447 6.51026 4.12023 6.45472 4.15291C5.8085 4.53323 5.1957 4.96547 4.57359 5.38311C4.17495 5.65072 3.75554 5.90047 3.38601 6.20841C3.16634 6.39147 3.63752 6.11531 3.67661 6.0941C4.32072 5.74476 6.24607 4.68539 5.59068 5.01308C4.80282 5.40701 4.01196 5.93185 3.29689 6.4467C2.80597 6.80016 4.36442 5.87732 4.89906 5.59428C5.08349 5.49663 4.92769 5.53584 4.82737 5.59428C4.56373 5.74786 4.31474 5.92882 4.05826 6.0941C3.41025 6.51171 4.47929 5.98924 4.64333 5.90619C4.9752 5.73815 5.32853 5.56481 4.80413 5.8345C4.76214 5.8561 4.49386 6.00898 4.55809 5.9643C4.8453 5.76451 5.12495 5.55652 5.4047 5.3463C5.81112 5.04088 6.19611 4.7082 6.60002 4.39895C6.64419 4.36513 7.00528 4.06024 6.7337 4.17616C6.02073 4.48047 4.0025 5.63616 4.71501 5.3308C5.35472 5.05664 5.94105 4.66111 6.56902 4.36021C6.88966 4.20657 6.42326 4.51697 6.37335 4.54813C5.94083 4.81816 5.5007 5.07654 5.07535 5.35792C5.02738 5.38966 4.58449 5.62647 4.83512 5.54778C5.21125 5.42969 5.56088 5.22818 5.90452 5.03827C6.05608 4.95451 6.33236 4.84872 6.45472 4.72636C6.65369 4.52739 5.95864 4.99303 5.72048 5.14288C5.44446 5.31655 4.37997 5.98121 5.30396 5.52453C5.71725 5.32026 6.1213 5.09877 6.5109 4.85228C6.79273 4.67399 6.38112 4.93322 6.32298 4.97046C6.01198 5.1697 5.69523 5.35944 5.37757 5.54778C5.34037 5.56984 4.9457 5.82611 5.16253 5.72408C5.54949 5.54198 6.65677 4.89185 6.29005 5.11189C5.90778 5.34125 4.74987 5.98881 5.17222 5.84613C5.6877 5.67198 7.04707 4.76162 6.62908 5.10995C6.17243 5.49049 5.57778 5.73009 5.07148 6.03598C4.64923 6.29109 5.95001 5.5868 6.38498 5.35405C7.08582 4.97904 5.85466 5.64512 5.70692 5.73376C5.53444 5.83725 5.36448 5.94481 5.19159 6.04761C5.09614 6.10436 4.81513 6.17654 4.91262 6.22972C5.03084 6.2942 5.63056 5.84877 5.74373 5.78607C5.82185 5.74279 6.4697 5.40002 6.53609 5.46641C6.58983 5.52015 6.39721 5.52824 6.3288 5.56134C6.14776 5.64894 5.97284 5.74415 5.80185 5.85C5.63722 5.95192 5.12345 6.14371 5.31558 6.16772C5.44732 6.18419 5.76298 5.95805 5.87353 5.90037C6.07935 5.79299 6.28241 5.68986 6.50122 5.61171C6.64682 5.55971 6.22821 5.75708 6.09438 5.8345C5.90064 5.94658 5.14644 6.38535 5.78441 6.09798C6.27082 5.87888 6.5117 5.772 5.8774 6.13673C5.84936 6.15285 5.45718 6.38546 5.45894 6.38664C5.49639 6.41161 5.83087 6.1986 5.86578 6.18322C6.56558 5.87484 5.97469 6.11289 5.66236 6.30334C5.11403 6.63768 5.81294 6.16773 5.94714 6.03017C6.39139 5.57482 5.9316 5.57421 5.50156 5.6524C5.45073 5.66164 4.84235 5.73711 4.84869 5.70858C4.88259 5.556 5.43137 5.28872 5.54031 5.21069C5.9065 4.94839 6.28804 4.6991 6.63296 4.40864C6.70182 4.35065 6.92246 4.18511 6.71238 4.19747C6.48009 4.21114 5.63898 4.51828 6.13119 4.04055C6.31748 3.85974 6.58059 3.67073 6.65427 3.41286C6.66523 3.3745 6.88541 3.26829 6.84219 3.25593C6.74271 3.22751 6.57864 3.32571 6.79182 3.21913C6.84708 3.1915 7.06988 3.09059 6.89062 3.18619C6.79554 3.2369 6.49033 3.32374 6.59808 3.32374C6.77772 3.32374 7.26427 3.05448 7.09791 3.12226C7.01768 3.15495 6.49496 3.40502 6.79956 3.35086C7.02497 3.31079 7.18819 3.2342 6.9003 3.40898C6.57882 3.60417 7.04288 3.39836 7.20253 3.43029C7.22184 3.43416 6.58203 3.75374 7.01461 3.62209C7.30643 3.53327 6.73368 3.84528 6.67558 3.87781C6.47235 3.99162 6.99412 3.74496 7.06304 3.7422C7.07906 3.74156 6.41345 4.0883 6.82669 3.88169C7.10118 3.74444 7.57461 3.50749 7.02429 3.82744C6.48311 4.14208 6.96345 3.89342 7.25677 3.76932C7.54583 3.64703 6.65341 4.00072 6.43147 4.22266C6.28348 4.37065 7.1995 3.88983 7.00492 3.96693C6.91263 4.0035 6.16056 4.44282 6.47797 4.33502C6.58479 4.29874 7.08615 3.95714 6.79956 4.18004C6.62412 4.31649 6.45346 4.50236 6.77244 4.29821C7.23285 4.00355 6.76787 4.34294 6.54578 4.45707C6.36624 4.54933 6.15884 4.63477 6.01301 4.7806C5.8778 4.91582 6.34803 4.59567 6.52059 4.51325C6.81118 4.37447 7.38689 4.02789 6.74338 4.38539C6.52399 4.50728 6.11323 4.74397 6.60583 4.521C6.75695 4.4526 7.33418 4.13713 6.91193 4.43964C6.51055 4.72719 7.31267 4.26528 7.43113 4.26528C7.67618 4.26528 6.58211 4.66845 6.82669 4.68374C7.10309 4.70101 6.90226 4.76664 6.69301 4.90265C6.5715 4.98163 7.02368 4.69348 7.11535 4.65274C7.18569 4.62148 6.98181 4.72938 6.9158 4.76898C6.81662 4.82849 6.60081 5.05442 6.61358 4.93946C6.62597 4.82801 7.1092 4.61785 7.09791 4.62174C6.99899 4.65585 6.48005 4.96497 6.76082 4.78448C6.93571 4.67205 7.39146 4.44032 6.9313 4.5985C6.42815 4.77145 7.21275 4.43815 7.35751 4.35633C7.51184 4.2691 7.33488 4.32222 7.26452 4.35052C7.00667 4.45425 6.74805 4.5933 6.51478 4.74379C6.25194 4.91337 7.11927 4.50731 7.32651 4.27303C7.35446 4.24143 6.99358 4.34686 6.94099 4.37377C6.83545 4.42776 6.72868 4.47846 6.62133 4.52875C6.53554 4.56894 6.3656 4.74747 6.3656 4.65274C6.3656 4.57541 7.03626 4.26528 6.98555 4.26528C6.66348 4.26528 7.11216 4.16562 7.23352 4.03667C7.28253 3.98461 7.09522 4.07383 7.02817 4.09867C6.92636 4.13638 7.09045 4.07652 7.12116 4.05605C7.37893 3.8842 7.19916 3.98339 7.02236 4.05411C6.88983 4.10712 7.55466 3.88415 7.44275 3.97274C7.38605 4.01763 6.78528 4.31606 7.02623 4.29821C7.18283 4.28661 7.63235 4.05117 7.57062 4.0638C7.41143 4.09636 6.75323 4.51519 7.14053 4.23041C7.25907 4.14325 7.53926 3.8853 7.2219 4.00568C6.80474 4.16391 7.32907 3.89838 7.42532 3.78289C7.50178 3.69113 7.19661 3.85681 7.0921 3.91462C7.06261 3.93094 6.78422 4.12207 6.74532 4.08317C6.73485 4.0727 7.05508 3.8539 7.08241 3.83132C7.10387 3.8136 7.28246 3.65829 7.19478 3.68021C6.85435 3.76531 5.97412 4.3313 6.22224 4.08317C6.47998 3.82543 7.40759 3.25412 7.07079 3.39348C6.41262 3.66583 5.86099 4.26701 5.2284 4.61206C4.79786 4.84689 6.09745 4.15719 6.53609 3.93787C7.48316 3.46434 4.70041 4.99396 3.79091 5.53616C3.7574 5.55613 3.18696 5.88079 3.51 5.75314C3.87936 5.60718 4.24048 5.44776 4.59102 5.26106C4.77401 5.1636 4.98384 5.08377 5.15672 4.96852C5.34968 4.83988 4.73955 5.17176 4.53678 5.28431C4.16049 5.49317 3.78862 5.69654 3.43057 5.93525C3.31439 6.0127 3.12373 6.14126 3.38601 6.01274C3.51512 5.94947 4.50996 5.41532 4.15319 5.50129C3.74067 5.60069 2.58962 6.16158 2.97917 5.99336C3.19579 5.89982 3.80871 5.50547 3.79866 5.50904C3.65126 5.56134 2.7727 5.9794 3.3182 5.71245C3.43514 5.65523 3.9682 5.30064 3.56812 5.49354C3.48562 5.53331 2.84898 5.79122 3.1884 5.64465C3.56542 5.48185 3.32541 5.56243 3.09348 5.64271C2.70572 5.77693 3.29017 5.56277 3.40926 5.50322C3.55375 5.43098 2.88956 5.73828 2.75638 5.81319C2.60797 5.89668 3.07097 5.68205 3.22328 5.6059C3.24935 5.59286 3.61461 5.4366 3.61461 5.40055C3.61461 5.3064 3.44555 5.48357 3.36276 5.52841C3.19923 5.61699 2.82646 5.95876 2.86293 5.77638C2.88217 5.68023 3.59202 5.31017 3.04892 5.54778C2.9448 5.59333 2.77906 5.75701 2.6692 5.75701C2.48978 5.75701 2.97937 5.57653 3.13416 5.48579C3.68752 5.1614 2.83207 5.53492 2.66145 5.63302C1.82297 6.11515 3.79792 4.99446 3.03729 5.34824C2.92941 5.39842 2.35038 5.61777 2.76219 5.48772C3.1232 5.37372 2.93724 5.47678 2.68276 5.53616C2.37006 5.60912 2.68711 5.54251 2.82031 5.49354C2.8624 5.47806 3.0924 5.38917 2.93268 5.47223C2.84051 5.52015 2.56936 5.65041 2.67308 5.64465C2.73854 5.64101 3.36037 5.37175 3.15741 5.48772C2.92276 5.62181 2.54416 5.83906 3.02954 5.62334C3.58701 5.37557 3.01053 5.65953 2.78932 5.75701C2.59135 5.84425 3.57376 5.40066 3.39376 5.52066C3.2887 5.5907 2.79707 5.81901 2.79707 5.81901C2.95822 5.81427 3.29766 5.60023 2.9753 5.81513C2.48901 6.13932 3.00534 5.85096 3.22909 5.73376C3.84286 5.41226 3.05516 5.83091 2.85325 5.93718C2.37726 6.1877 2.86908 5.97728 3.06829 5.86938C3.63169 5.5642 3.17075 5.87205 2.89393 5.93137C2.57846 5.99897 3.98762 5.3463 3.66498 5.3463C3.53603 5.3463 2.80282 5.79139 3.17872 5.59621C3.97128 5.18469 4.69441 4.59221 5.43763 4.09673C5.7301 3.90175 4.80811 4.41037 4.50191 4.583C4.21192 4.74648 3.83871 4.86513 3.57974 5.07701C2.99937 5.55187 4.91584 4.39265 5.55581 4.0018C5.64999 3.94428 6.07365 3.70026 5.72629 3.87394C5.19209 4.14104 4.67191 4.4344 4.15319 4.73023C4.08973 4.76642 3.65549 5.06353 3.66886 5.05958C4.15998 4.91447 4.6445 4.60076 5.10247 4.37764C5.42083 4.22255 5.74278 4.07493 6.05951 3.91656C6.36066 3.76598 5.46687 4.23644 5.17415 4.40283C4.78266 4.62536 4.38567 4.84188 4.0137 5.09639C3.72298 5.2953 3.64155 5.3847 4.03307 5.21069C4.78345 4.87719 7.01313 3.83927 6.29974 4.2459C5.79505 4.53358 5.31095 4.85515 4.80606 5.14288C4.63233 5.24189 4.40263 5.33603 4.26168 5.48579C4.09752 5.66021 4.72004 5.33981 4.93393 5.232C5.31102 5.04192 5.80995 4.85991 6.14475 4.60237C6.72739 4.15418 4.85979 5.32092 4.18806 5.61946C3.5782 5.89051 5.35552 4.97152 5.9239 4.62174C5.97351 4.59121 6.3881 4.31909 6.09438 4.39314C5.60655 4.51612 5.13757 4.77639 4.68401 4.98983C4.65496 5.00351 4.23522 5.20253 4.41666 5.04408C4.89421 4.62707 5.45864 4.28737 5.96845 3.91075C6.17103 3.7611 6.39001 3.61705 6.56902 3.43804C6.58458 3.42249 5.88466 3.62546 5.75729 3.68021C5.35076 3.85495 4.91567 4.01048 4.53678 4.24203C4.34322 4.36032 4.93181 4.01876 5.12572 3.90106C5.52472 3.65888 5.93155 3.44796 6.34042 3.22494C6.73512 3.00964 6.03188 3.30072 5.96264 3.33149C5.33051 3.61244 3.47462 4.51665 4.13769 4.31952C4.57507 4.18949 5.77938 3.52275 5.36207 3.70733C4.95512 3.88733 4.58492 4.13541 4.18419 4.32727C3.96176 4.43376 3.33369 4.80193 3.50806 4.62756C3.66493 4.47069 4.3421 4.32452 4.13382 4.40089C3.78117 4.53019 3.45158 4.71754 3.13803 4.92203C2.80543 5.13895 3.19684 4.88554 3.32014 4.81935C3.61695 4.66003 3.92946 4.52635 4.22293 4.36214C4.47306 4.22219 3.76256 4.4968 3.70179 4.52294C3.59006 4.57101 2.69561 5.055 3.22909 4.81548C3.34331 4.76419 4.37923 4.19722 3.84515 4.43189C3.42962 4.61447 3.04177 4.85332 2.63046 5.04408C2.49868 5.10519 2.93147 4.90387 2.98886 4.87747C3.08082 4.83517 4.29054 4.09569 4.28493 4.09092C4.10615 3.93896 3.35711 4.39588 3.18647 4.47257C2.93462 4.58576 2.22824 4.99731 2.42898 4.80773C2.75858 4.49643 4.06769 4.12511 3.61461 4.14129C3.37807 4.14974 3.08783 4.32938 2.86875 4.40476C2.7415 4.44855 2.32456 4.70047 2.18487 4.66824C1.98678 4.62252 2.50572 4.41749 2.67695 4.3079C2.85309 4.19517 3.40665 4.04695 3.20971 3.97662C2.96068 3.88767 2.45316 4.15563 2.22362 4.23428C1.77217 4.38897 2.54837 3.933 2.63239 3.87975C2.96084 3.67162 3.30348 3.49379 3.64174 3.30437C3.94059 3.13701 3.01465 3.58589 2.72539 3.76932C2.50372 3.90989 2.34112 4.04714 2.70407 3.88556C3.12551 3.69796 3.54233 3.48044 3.95171 3.26756C4.22166 3.12718 4.49174 2.98068 4.75376 2.82585C4.99584 2.6828 4.26424 3.10309 4.0137 3.23075C3.13627 3.67785 4.50809 2.99986 4.73438 2.88591C4.87885 2.81316 5.28659 2.5623 5.17222 2.67668C4.96368 2.88522 4.67819 3.0564 4.4341 3.21913C4.37315 3.25976 3.69521 3.67403 3.9982 3.5446C4.44935 3.35187 4.88211 3.08393 5.31364 2.85104C5.32834 2.8431 5.64907 2.6651 5.51706 2.75998C5.10009 3.05968 4.61947 3.27506 4.17644 3.53297C3.87141 3.71055 3.57361 3.8984 3.29108 4.11029C3.03632 4.30136 3.85055 3.80591 4.12994 3.65308C4.55312 3.4216 4.99057 3.22739 5.40663 2.98084C5.47585 2.93982 6.09677 2.57226 5.73017 2.75417C5.08851 3.07255 3.18892 4.0699 3.85097 3.79645C4.48376 3.53507 5.07042 3.15746 5.70498 2.90141C6.01193 2.77755 5.61467 2.93775 5.53643 2.98277C5.33406 3.09923 5.15157 3.24486 4.93586 3.3373C4.5736 3.49256 5.70771 3.10464 6.01883 2.86266C6.32595 2.62379 4.73748 3.66298 4.9533 3.33924C4.97193 3.31129 5.83955 2.77585 5.68367 2.81616C5.42408 2.8833 5.1801 3.05354 5.55581 2.80067C5.99311 2.50633 5.36065 2.90475 5.21484 2.98277C5.16003 3.0121 4.70357 3.23318 4.81575 3.15132C5.06658 2.96829 5.34702 2.81457 5.60618 2.64181C6.32892 2.15997 5.44857 2.61045 5.1451 2.75998C4.34563 3.15392 5.09086 2.79685 5.42601 2.59337C5.5511 2.51743 5.93212 2.31843 5.78828 2.3454C5.50192 2.39909 5.19258 2.67705 4.92812 2.80067C4.83469 2.84433 4.35208 3.09717 4.4031 3.06995C4.74625 2.88694 5.07553 2.6771 5.41244 2.48295C5.48996 2.43828 5.89044 2.1944 5.56743 2.37058C5.25458 2.54123 4.94853 2.73273 4.64333 2.9169C4.20344 3.18236 5.12296 2.57619 5.27296 2.50619C5.634 2.3377 5.10798 2.57305 5.02111 2.61856C4.77653 2.74667 4.54126 2.88591 4.30236 3.02346C4.04731 3.1703 4.51374 2.8651 4.54453 2.84716C4.87809 2.65275 5.21275 2.44149 5.56743 2.28728C5.98567 2.10543 4.72813 2.65036 4.3353 2.88203C4.15567 2.98797 4.69039 2.66305 4.87193 2.56044C5.05096 2.45925 5.62548 2.28967 5.42019 2.27759C5.15532 2.26201 4.43186 2.66101 4.67045 2.54494C4.9391 2.41425 5.22232 2.31835 5.48994 2.18847C5.6088 2.13079 5.06438 2.34337 4.98623 2.38027C4.8097 2.46363 4.48568 2.5648 4.35854 2.71736C4.16565 2.94883 4.88832 2.43002 5.15672 2.29309C5.68818 2.02193 5.32903 2.15321 5.02111 2.30277C4.73245 2.44298 4.41929 2.58177 4.14544 2.7503C3.98404 2.84962 4.47355 2.56054 4.63752 2.46551C4.83872 2.3489 5.48499 2.11496 5.25358 2.1381C5.12397 2.15106 4.18869 2.66127 4.62977 2.4287C4.91389 2.27889 5.22057 2.17136 5.50931 2.02961C5.70383 1.93412 5.94219 1.81774 5.59843 2.01024C5.49757 2.06672 4.78375 2.36324 4.99398 2.33958C5.18593 2.31799 5.33139 2.22066 5.50931 2.16135C5.58005 2.13777 5.2748 2.29312 5.2284 2.30859C4.81353 2.44688 5.30667 2.30153 5.44732 2.25047C5.61191 2.19071 6.09776 1.99168 5.93165 2.04705C5.73519 2.11253 5.54841 2.24757 5.36207 2.33958C5.17445 2.43224 5.26873 2.38216 5.39307 2.33183C5.53614 2.27393 5.95841 2.08746 5.82509 2.16523C5.69848 2.23908 4.70244 2.66522 5.29427 2.45001C5.49281 2.37781 5.68106 2.28277 5.86965 2.18847C6.07409 2.08625 5.4656 2.40248 5.26715 2.51588C5.0779 2.62402 4.52902 2.97794 4.70339 2.84716C4.94197 2.66823 5.26459 2.57358 5.52868 2.43839C6.07462 2.15892 5.97593 2.26155 5.50544 2.4287C5.20609 2.53505 6.11017 2.21817 6.106 2.18072C6.10566 2.17762 5.62293 2.4086 5.58099 2.4287C5.47141 2.48121 5.15971 2.67109 5.26521 2.61081C5.49176 2.48135 5.73516 2.37251 5.97427 2.2679C6.11518 2.20625 6.28527 2.13839 6.02464 2.25047C4.12034 3.06931 7.00538 1.49299 5.18965 2.75611C5.00307 2.8859 5.59626 2.55287 5.79991 2.45195C5.93295 2.38602 6.35808 2.26218 6.21062 2.27953C6.05888 2.29738 4.86776 2.9719 5.50544 2.67668C5.76079 2.55846 6.01676 2.43844 6.28036 2.33958C6.44585 2.27753 5.91682 2.50825 5.86965 2.53332C5.71565 2.61516 5.4856 2.71976 5.36014 2.84522C5.18629 3.01907 5.80593 2.63774 6.02851 2.53332C6.969 2.0921 6.00294 2.55166 5.66042 2.74642C4.95565 3.14718 5.9446 2.6667 6.16219 2.56431C6.41766 2.44409 5.17599 3.11407 5.42794 2.98665C5.68675 2.85576 5.93229 2.70841 6.20093 2.59725C6.43429 2.50068 5.75864 2.84164 5.54418 2.97502C4.65174 3.53008 5.75252 2.86195 6.05951 2.73092C6.35785 2.60358 5.82936 2.86176 5.7786 2.88784C5.58914 2.9852 5.02674 3.28817 5.21871 3.19588C5.44071 3.08915 6.53593 2.53163 5.75729 2.92659C5.50558 3.05427 4.75552 3.44688 5.00948 3.32374C5.29891 3.18341 5.58556 3.03958 5.87353 2.89559C6.46603 2.59934 5.30316 3.15049 5.1451 3.23269C4.8293 3.3969 6.4083 2.57661 6.08663 2.72898C5.94568 2.79575 5.7478 2.96727 5.5868 2.96727C5.37931 2.96727 5.95384 2.77337 6.13313 2.66893C6.34902 2.54317 6.3848 2.49091 6.66395 2.37058C7.05959 2.20005 5.929 2.82089 5.55193 3.02927C5.41866 3.10292 5.83091 2.90672 5.96652 2.83747C6.03286 2.8036 6.50698 2.53014 6.22612 2.6728C6.08001 2.74701 5.93776 2.8276 5.79797 2.91303C5.74493 2.94544 5.58208 2.99411 5.64105 3.01377C5.75112 3.05046 6.10498 2.78539 6.18931 2.73673C6.53872 2.53515 6.22953 2.72451 6.06726 2.82004C5.97949 2.8717 5.62884 3.07859 5.63717 3.07383C5.82161 2.96844 6.77013 2.54294 6.12925 2.90916C5.79048 3.10274 5.4444 3.31212 5.08116 3.45742C4.74625 3.59138 5.75194 3.18972 6.07501 3.02927C6.89091 2.62406 5.88369 3.05068 5.62168 3.21331C5.2734 3.42948 6.0243 3.02257 6.10213 2.9789C6.14064 2.95729 6.52856 2.78977 6.38692 2.8181C6.05104 2.88528 6.39472 2.81412 6.45278 2.69799C6.50711 2.58933 6.22849 2.79175 6.11375 2.83166C5.97288 2.88066 6.37168 2.68139 6.50509 2.61468C6.64438 2.54504 6.18968 2.75891 6.50509 2.58369C6.57276 2.54609 6.74279 2.47815 6.57484 2.57787C6.44599 2.65438 6.05268 2.86934 6.19125 2.81229C6.38206 2.73372 6.54978 2.61043 6.73951 2.53138C6.94171 2.44713 6.37404 2.77296 6.19125 2.89366C5.99386 3.02398 5.77005 3.12577 5.58099 3.26756C5.44166 3.37206 5.89624 3.11929 6.05176 3.04089C6.94669 2.58979 6.01755 3.11427 5.67398 3.27918C5.31073 3.45354 7.09611 2.52206 6.73176 2.69411C6.42484 2.83905 6.14571 3.03654 5.84253 3.18813C5.67509 3.27185 6.1671 2.99996 6.33848 2.92465C7.26821 2.51614 5.78321 3.19898 6.22418 2.93628C6.3712 2.84869 6.54007 2.76691 6.66976 2.65343C6.80651 2.53378 6.3344 2.79533 6.16025 2.84716C5.8 2.95438 6.88023 2.37156 6.4121 2.46745C6.3781 2.47441 6.12608 2.5385 6.14475 2.52169C6.2377 2.43804 6.58395 2.28378 6.47991 2.35315C6.32771 2.45461 6.12459 2.52402 5.95877 2.60693C5.78013 2.69625 6.36609 2.38372 6.46828 2.35121C6.6846 2.28238 6.06507 2.5609 5.85609 2.64955C5.79468 2.67561 6.14846 2.48587 6.22612 2.4442C6.26563 2.423 6.63103 2.27162 6.4431 2.33765C6.32644 2.37863 5.92035 2.55027 5.93552 2.54106C6.1624 2.40332 6.45316 2.35867 6.66201 2.19622C6.91096 2.0026 6.089 2.46087 5.81153 2.61081C5.5265 2.76483 5.37167 2.83447 5.75535 2.62243C5.98918 2.49321 6.22582 2.38189 6.47409 2.28534C6.87424 2.12973 4.92244 3.01774 5.29621 2.80648C5.60095 2.63423 5.90915 2.46116 6.22612 2.31246C6.46622 2.19982 6.04861 2.35352 5.99364 2.3822C5.86735 2.44809 5.71831 2.50268 5.94327 2.3977C6.09823 2.32539 6.57781 2.14235 6.41985 2.20785C6.22629 2.2881 6.00266 2.43658 5.79991 2.47713C5.60306 2.5165 6.17305 2.32887 6.35786 2.25047C6.6379 2.13166 6.32508 2.24185 6.22999 2.28534C6.00535 2.38808 5.34826 2.72817 5.55774 2.59725C5.80193 2.44463 6.08229 2.36306 6.33848 2.23497C6.53449 2.13697 5.87954 2.39811 5.79991 2.43645C5.52202 2.57025 5.32196 2.66057 5.71467 2.45195C5.91033 2.348 6.53018 2.11343 6.31523 2.16716C6.06088 2.23075 4.87835 2.78682 5.69529 2.36283C6.49041 1.95017 5.64448 2.38528 5.35433 2.53332C5.12021 2.65276 6.30091 2.07596 6.06338 2.18847C5.8143 2.30646 5.55853 2.41052 5.31558 2.54106C5.13021 2.64066 5.64061 2.35635 5.69336 2.33183C5.75177 2.30469 6.34534 2.04459 6.07888 2.1536C5.92986 2.21457 5.40267 2.44186 5.4415 2.42095C5.63827 2.315 5.83339 2.22661 6.04014 2.14391C6.30815 2.03671 5.51225 2.37807 5.25358 2.50619C4.92628 2.66832 5.51421 2.33944 5.58487 2.2989C5.65788 2.25701 6.10295 2.03889 6.01301 2.08386C5.71538 2.23267 4.46202 2.93389 5.38145 2.33571C5.46525 2.28119 5.90601 2.01211 5.86965 2.0238C5.54181 2.12918 5.23179 2.31476 4.92037 2.4597C4.61782 2.6005 4.62671 2.55075 4.88937 2.41708C5.09892 2.31043 5.74401 2.02495 5.52675 2.11485C5.34645 2.18946 4.08951 2.79427 4.8235 2.3822C5.05569 2.25185 5.78063 1.91569 5.53643 2.02186C5.27836 2.13407 5.02898 2.25726 4.76344 2.35315C4.54247 2.43294 5.19648 2.16945 5.4047 2.06061C5.75169 1.87922 5.33226 2.10143 5.21678 2.15748C4.997 2.26413 4.76657 2.35061 4.5484 2.4597C4.32918 2.56931 4.99949 2.26709 5.21871 2.15748C5.35328 2.09019 5.72412 1.91524 5.36014 2.0238C5.13959 2.08958 4.56105 2.44091 4.71501 2.26984C4.85178 2.11787 5.20624 2.09369 5.3892 1.98505C5.55278 1.88793 4.96696 2.16209 4.88549 2.19622C4.85288 2.20988 4.36251 2.45781 4.59683 2.33765C4.90131 2.1815 5.20166 2.02004 5.50156 1.85525C5.66403 1.76598 4.70968 2.23858 4.76538 2.21366C5.07152 2.0767 5.3687 1.9265 5.67205 1.78551C5.76172 1.74383 5.29727 1.97677 5.22259 2.01411C5.06719 2.09181 4.606 2.20338 4.76732 2.2679C4.88626 2.31548 5.36833 2.05218 5.49381 1.99862C5.76741 1.88183 5.24417 2.16416 5.18578 2.19622C4.9075 2.349 5.49251 2.0565 5.55968 2.02574C6.33928 1.66867 5.28407 2.23923 5.05792 2.35702C4.86822 2.45582 5.67373 2.09472 5.79991 2.03736C6.142 1.88187 5.63266 2.13538 5.58293 2.15941C5.36464 2.26488 4.71002 2.57108 4.94361 2.50619C5.22445 2.42818 5.49018 2.29163 5.76504 2.19428C6.29604 2.00622 4.89194 2.54107 5.56549 2.2524C5.68566 2.2009 6.072 1.99413 6.06532 1.99668C5.81119 2.09385 5.58406 2.25192 5.31945 2.32409C5.1407 2.37284 5.65935 2.17604 5.83284 2.11098C6.02731 2.03806 5.53947 2.24271 5.51319 2.25434C4.86116 2.54302 6.0921 2.10802 6.06338 2.02186C6.04813 1.97611 5.97649 2.06376 5.93358 2.0858C5.83052 2.13872 5.72045 2.17396 5.61586 2.22334C5.40566 2.32261 5.93929 2.11411 5.99364 2.09161C6.18127 2.0139 5.5316 2.30039 6.19125 2.00055C6.70474 1.76714 5.63208 2.28002 6.00139 2.13229C6.06942 2.10508 6.52863 1.91541 6.4121 1.98699C6.12177 2.16534 5.79637 2.27886 5.50737 2.45776C5.2504 2.61684 6.63932 2.04348 6.3443 2.10904C6.13541 2.15546 5.16775 2.60945 5.9239 2.32796C5.99626 2.30102 6.54748 2.09507 6.19125 2.21947C5.84064 2.34191 5.51242 2.51051 5.16834 2.64568C4.8205 2.78233 5.73625 2.27345 5.27877 2.58175C5.10195 2.70091 4.7795 2.80018 4.64139 2.95953C4.51635 3.10381 5.00181 2.83214 5.17609 2.75417C5.34753 2.67748 4.76427 3.0187 4.70726 3.04864C4.43978 3.18914 3.78091 3.4096 3.63399 3.70346C3.48869 3.99406 4.25854 3.5193 4.55809 3.39348C4.80654 3.28914 5.21899 3.10131 4.74213 3.35861C4.55363 3.46033 4.36708 3.56567 4.18031 3.67052C4.02608 3.75711 3.54623 3.93981 3.7231 3.93981C3.84139 3.93981 3.92471 3.81603 4.02533 3.75383C4.3525 3.55155 4.68044 3.34987 5.01336 3.15713C5.56331 2.83874 4.717 3.22533 4.57165 3.29081C4.24341 3.43866 3.31743 3.95414 3.57199 3.69958C3.66983 3.60175 4.80198 2.81877 4.73438 2.80454C4.61612 2.77964 4.36545 2.88843 4.26943 2.82779C4.24673 2.81345 4.74864 2.48359 4.80219 2.45582C4.92672 2.39125 5.16815 2.33332 5.24971 2.20785C5.2703 2.17617 5.23787 2.12141 5.27877 2.10323C5.29837 2.09452 5.54719 1.98425 5.48219 1.96568C5.06624 1.84684 4.62936 1.49912 4.17644 1.64215C3.6909 1.79548 3.07153 2.27829 2.9753 2.80067C2.84817 3.49082 3.38637 2.48491 3.37439 2.80841C3.36965 2.93623 3.1596 3.0055 3.13222 2.85491C3.10066 2.68135 3.20156 2.52301 3.26783 2.37058C3.44481 1.96355 4.03092 1.66923 4.45735 1.75451C4.59462 1.78197 5.13237 2.23945 5.21484 2.16523C5.38779 2.00957 5.65247 1.80871 5.9084 1.86688C6.37351 1.97259 6.58258 2.27837 6.58258 2.72511C6.58258 2.81453 6.45945 3.04056 6.53221 2.98859C6.61918 2.92647 6.7407 2.75743 6.75501 2.6573C6.82521 2.16585 6.74906 1.91448 6.25324 1.73514C5.84312 1.5868 5.51607 1.78165 5.17028 1.99862C4.69949 2.29402 5.01173 2.07994 5.26327 1.94631C5.84244 1.63863 6.51884 1.70255 6.70657 2.40933C6.72244 2.46907 6.77478 2.94015 6.65233 2.94015C6.52824 2.94015 6.46226 2.64399 6.41598 2.55656C6.17019 2.09231 5.86624 2.2465 5.45119 2.17104C5.19699 2.12482 5.36723 1.86345 5.13541 1.75645C4.59497 1.50702 4.15746 1.6253 3.68048 1.97149C3.39437 2.17916 3.22443 2.42129 3.27752 2.79292C3.29014 2.88123 3.33951 3.11727 3.33951 2.90528C3.33951 2.71334 3.273 2.33104 3.39182 2.15941C3.70231 1.71093 4.36425 1.45728 4.83125 1.81651C5.03206 1.97098 5.32333 2.64912 5.32333 2.39577C5.32333 2.2255 5.12248 2.03336 5.04435 1.89013C4.67096 1.20557 3.68136 1.57246 3.36083 2.1381C3.18648 2.44577 3.37868 2.768 3.30464 3.06414C3.2977 3.09192 2.99932 2.72625 2.98305 2.66118C2.82535 2.03038 3.69257 1.53891 4.22293 1.67702C4.42137 1.7287 4.70811 1.99474 4.88743 1.99474C4.93352 1.99474 4.5439 1.52051 4.41473 1.47941C3.51351 1.19266 2.94037 2.18563 3.25234 2.93434C3.31831 3.09268 3.15969 2.60274 3.13803 2.43257C3.09618 2.10376 3.40261 1.7834 3.68823 1.69252C3.94337 1.61134 4.45297 1.70375 4.62008 1.9405C4.64025 1.96907 4.3335 1.79633 4.26168 1.77389C3.96343 1.68069 3.84151 1.74012 3.60686 1.925C3.38308 2.10132 3.26977 2.34329 3.26977 2.62631C3.26977 2.87032 3.28445 2.72568 3.48288 2.61856C4.93654 1.83384 3.17386 3.04165 3.27752 3.08351C3.63147 3.22646 4.52534 2.61696 4.8545 2.48876C5.0217 2.42363 5.08486 2.41627 4.90099 2.55269C4.56682 2.80062 4.20825 3.01228 3.83934 3.20363C3.27825 3.49466 3.6864 3.2923 4.00208 3.14163C4.35052 2.97533 5.35504 2.40087 5.00173 2.55656C4.33083 2.85221 3.69824 3.22849 3.01792 3.50585C2.60923 3.67247 3.8086 3.11238 4.19193 2.89366C4.42736 2.75933 5.26381 2.27419 4.48253 2.70767C4.2322 2.84657 2.7129 3.56506 3.81028 3.22494C3.99567 3.16748 5.52783 2.58931 4.91262 3.16876C4.86633 3.21235 3.99013 3.86363 4.42635 3.7732C4.68369 3.71985 4.93615 3.62301 5.18772 3.54847C5.31947 3.50943 5.65208 3.34709 5.59262 3.47098C5.40287 3.86629 4.70534 3.93319 4.43604 4.2614C4.19675 4.55303 5.78658 3.624 5.49575 3.86425C5.16919 4.13402 4.61434 4.323 4.37017 4.67986C4.29408 4.79107 4.63211 4.61507 4.75957 4.57137C5.04452 4.47368 5.33327 4.36223 5.62749 4.29434C5.96665 4.21607 5.08522 4.73403 4.78863 4.91622C4.52408 5.07873 5.32862 4.6095 5.6023 4.46288C5.8005 4.3567 5.35902 4.46784 5.29233 4.47451" stroke="black" stroke-width="2" stroke-linecap="round" stroke-linejoin="round"/>
<path id="Vector 234" d="M2.25847 2.173C2.06898 2.27169 1.63865 2.57637 1.64628 2.36286C1.64965 2.2684 1.77467 2.20605 1.84776 2.18075C1.93655 2.15001 2.32628 2.08247 2.26622 2.29699C2.11127 2.85039 1.58313 2.18065 2.18679 2.10519C2.40282 2.07819 1.80585 2.30154 2.02212 2.23499C2.33318 2.13928 2.04787 2.88744 1.89038 2.54884C1.67046 2.076 2.29323 2.1956 2.21973 2.39773C2.11689 2.68054 1.52372 1.93665 2.11511 1.93665C2.43112 1.93665 2.19113 2.72156 1.89813 2.4481C1.67266 2.23766 2.27914 1.91274 2.20229 2.29699C2.09798 2.81852 1.62898 2.48125 1.90975 2.14588C2.20677 1.79111 2.42153 2.7117 1.995 2.54109C1.45695 2.32587 2.39628 1.94132 2.20423 2.38029C2.04513 2.74394 1.61166 2.18372 2.04924 2.14394C2.4982 2.10312 2.0585 2.71133 1.94463 2.59146C1.60459 2.23353 2.26581 2.01777 2.25847 2.35511C2.24508 2.9712 1.76159 2.28886 2.07636 2.27761C2.18087 2.27388 2.28322 2.31098 2.15579 2.36673C2.04109 2.41692 2.20542 2.24471 2.25847 2.10325" stroke="black" stroke-width="2" stroke-linecap="round" stroke-linejoin="round"/>
</g>
</g>
</svg>
