<svg width="749" height="54" viewBox="0 0 749 54" fill="none" xmlns="http://www.w3.org/2000/svg">
<g id="speechBubble">
<g id="Vector 98">
<path d="M13.7327 5.23704C11.0433 8.31852 4.85755 15.7911 1.63022 21.0296C-1.12492 25.5017 5.72412 33.6606 11.1338 38.7481L33.9035 45.2963H65.3699L116.2 53L100.87 45.2963L116.2 41.0593H158.156C169.182 41.0593 197.852 42.9081 211.406 41.0593C228.35 38.7481 265.464 41.0593 288.862 41.0593C312.26 41.0593 350.181 45.2963 364.704 45.2963H454.263C465.558 45.2963 511.548 46.837 540.594 45.2963C563.83 44.0637 603.526 46.0667 622.89 45.2963H682.596C695.505 45.2963 697.926 45.2963 718.096 43.7556C738.267 42.2148 730.199 41.0593 738.267 38.7481C744.722 36.8993 748.487 29.2469 747.949 24.1111L738.267 9.85926C738.267 9.85926 738.267 5.23704 714.869 5.23704H694.698H577.708L74.2451 1H33.9035L13.7327 5.23704Z" fill="white"/>
<path d="M13.7327 41.0593C12.9457 40.4018 12.0609 39.6201 11.1338 38.7481M11.1338 38.7481C5.72412 33.6606 -1.12492 25.5017 1.63022 21.0296C4.85755 15.7911 11.0433 8.31852 13.7327 5.23704L33.9035 1H74.2451L577.708 5.23704H694.698C694.698 5.23704 691.471 5.23704 714.869 5.23704C738.267 5.23704 738.267 9.85926 738.267 9.85926L747.949 24.1111C748.487 29.2469 744.722 36.8993 738.267 38.7481C730.199 41.0593 738.267 42.2148 718.096 43.7556C697.926 45.2963 695.505 45.2963 682.596 45.2963C672.268 45.2963 638.489 45.2963 622.89 45.2963C603.526 46.0667 563.83 44.0637 540.594 45.2963C511.548 46.837 465.558 45.2963 454.263 45.2963C433.285 45.2963 379.227 45.2963 364.704 45.2963C350.181 45.2963 312.26 41.0593 288.862 41.0593C265.464 41.0593 228.35 38.7481 211.406 41.0593C197.852 42.9081 169.182 41.0593 158.156 41.0593H116.2L100.87 45.2963L116.2 53L65.3699 45.2963H33.9035L11.1338 38.7481Z" stroke="black" stroke-width="2" stroke-linecap="round" stroke-linejoin="round"/>
</g>
<path id="How much is tons of CO2 indicate? Click one panel from following options to compare the amount:" d="M24.0934 27.096C24.5414 27.096 24.9094 26.728 24.9094 26.312V22.712L30.7334 21.896V26.312C30.7334 26.728 31.0854 27.096 31.5334 27.096C31.9494 27.096 32.3334 26.728 32.3334 26.312V16.984C32.3334 16.536 31.9494 16.2 31.5334 16.2C31.0854 16.2 30.7334 16.536 30.7334 16.984V20.328L24.9094 21.144V16.984C24.9094 16.536 24.5414 16.2 24.0934 16.2C23.6454 16.2 23.3094 16.536 23.3094 16.984V26.312C23.3094 26.728 23.6454 27.096 24.0934 27.096ZM37.4353 27.096C39.4673 27.096 41.1953 25.144 41.1953 22.808C41.1953 20.84 39.7553 19.112 37.8833 19.112C35.8513 19.112 34.1393 21.08 34.1393 23.384C34.1393 25.432 35.5633 27.096 37.4353 27.096ZM37.4353 25.656C36.5713 25.656 35.7073 24.856 35.7073 23.368C35.7073 21.88 36.6833 20.552 37.8193 20.552C38.8273 20.552 39.6273 21.656 39.6273 22.888C39.6273 24.36 38.5873 25.656 37.4353 25.656ZM44.1489 27.096C44.4689 27.096 44.7569 26.904 44.8849 26.536L46.4209 22.312L47.4929 26.504C47.6049 26.92 47.8769 27.096 48.2449 27.096C48.6289 27.096 48.8689 26.856 48.9809 26.52L51.0289 20.136C51.0449 20.088 51.0769 19.992 51.0769 19.832C51.0769 19.416 50.7089 19.112 50.3089 19.112C49.9729 19.112 49.6529 19.384 49.5569 19.704L48.2929 23.864L47.3009 19.656C47.2049 19.272 46.9169 19.096 46.5329 19.096C46.1969 19.096 45.8769 19.32 45.7649 19.656L44.3249 23.784L43.5089 19.736C43.4289 19.368 43.1729 19.096 42.7569 19.096C42.3409 19.096 42.0049 19.432 42.0049 19.768C42.0049 19.912 42.0209 19.992 42.0529 20.152L43.3809 26.472C43.4609 26.856 43.7169 27.096 44.1489 27.096ZM59.3099 27.096C59.7259 27.096 60.0779 26.76 60.0779 26.344L60.0619 23.992C60.0619 23.208 60.2539 22.6 60.6219 21.976C61.0379 21.32 61.7419 20.584 62.4939 20.584C63.0539 20.584 63.2779 21.048 63.2779 22.056V26.344C63.2779 26.76 63.6459 27.096 64.0459 27.096C64.4779 27.096 64.8139 26.76 64.8139 26.344V23.368C64.8139 21.752 65.8699 20.584 66.7979 20.584C67.4059 20.584 67.6619 21.08 67.6619 22.056V26.344C67.6619 26.76 68.0139 27.096 68.4299 27.096C68.8299 27.096 69.1979 26.76 69.1979 26.344V22.152C69.1979 20.056 68.3339 19.112 67.0539 19.112C65.9819 19.112 65.1659 19.736 64.5579 20.648C64.2699 19.592 63.5499 19.112 62.7179 19.112C61.6299 19.112 60.7339 19.752 60.0779 21V19.88C60.0779 19.48 59.7419 19.112 59.3099 19.112C58.9099 19.112 58.5419 19.48 58.5419 19.88V26.344C58.5419 26.76 58.9099 27.096 59.3099 27.096ZM73.4683 27.144C74.4283 27.144 75.1963 26.6 75.7403 26.216V26.392C75.7403 26.824 76.1403 27.096 76.5563 27.096C76.9723 27.096 77.3243 26.728 77.3243 26.328V19.832C77.3243 19.4 76.9563 19.096 76.5563 19.096C76.1883 19.096 75.8043 19.4 75.8043 19.832L75.7723 24.392C75.7723 24.584 75.7403 24.728 75.6763 24.792C75.4043 25.096 74.4923 25.704 73.6283 25.704C73.0523 25.704 72.5723 25.272 72.5723 22.904C72.5723 21.288 72.7643 20.12 72.7643 19.848C72.7643 19.336 72.3963 19.096 71.9963 19.096C71.5323 19.096 71.3243 19.4 71.2443 19.912C71.1323 20.632 71.0683 21.752 71.0683 22.552C71.0683 26.344 71.8523 27.144 73.4683 27.144ZM82.5335 27.096C83.8775 27.096 84.9815 26.344 85.5415 25.592C85.6695 25.432 85.7175 25.256 85.7175 25.048C85.7175 24.68 85.3815 24.344 84.9655 24.344C84.6615 24.344 84.4215 24.552 84.2775 24.744C83.9095 25.24 83.4135 25.64 82.5015 25.64C81.5255 25.64 80.5495 24.888 80.5495 23.56C80.5495 22.04 81.6535 20.568 82.6775 20.568C83.3175 20.568 83.6215 20.872 83.9095 21.192C84.1175 21.448 84.2455 21.512 84.5175 21.512C84.9335 21.512 85.2855 21.192 85.2855 20.776C85.2855 20.584 85.2215 20.408 85.0455 20.216C84.4375 19.496 83.8455 19.112 82.6615 19.112C80.7575 19.112 79.0455 21.4 79.0455 23.592C79.0455 25.544 80.5655 27.096 82.5335 27.096ZM87.8411 27.112C88.2571 27.112 88.6091 26.824 88.6091 26.312V23.928C88.6091 23.496 88.6571 23.112 88.8011 22.792C88.9771 22.408 90.0171 20.6 91.0571 20.6C91.4251 20.6 91.9211 21.016 91.9211 24.488C91.9211 25.496 91.8891 25.928 91.8891 26.344C91.8891 26.76 92.1771 27.096 92.6411 27.096C93.0571 27.096 93.3771 26.776 93.3931 26.376C93.4411 25.928 93.4411 25.352 93.4411 24.376C93.4411 20.84 92.8811 19.08 91.1531 19.08C90.2091 19.08 89.2811 19.72 88.6091 20.568V17.128C88.6091 16.712 88.3211 16.344 87.8731 16.344C87.4251 16.344 87.0731 16.712 87.0731 17.128V26.344C87.0731 26.744 87.4411 27.112 87.8411 27.112ZM102.093 18.44C102.525 18.44 102.845 18.12 102.861 17.688L102.877 17.08C102.893 16.696 102.525 16.312 102.125 16.312C101.725 16.312 101.373 16.648 101.357 17.064L101.341 17.656C101.325 18.072 101.693 18.44 102.093 18.44ZM102.013 27.096C102.429 27.096 102.797 26.744 102.797 26.312L102.877 19.944C102.877 19.512 102.541 19.16 102.093 19.16C101.677 19.16 101.309 19.512 101.309 19.944L101.229 26.312C101.229 26.744 101.581 27.096 102.013 27.096ZM107.424 27.096C109.184 27.096 110.288 25.848 110.288 24.648C110.288 23.432 109.648 22.888 107.92 22.344C106.768 21.976 106.304 21.736 106.304 21.224C106.304 20.792 106.688 20.456 107.712 20.456C108.528 20.456 108.848 20.728 108.848 21.096C108.848 21.224 108.768 21.336 108.768 21.48C108.768 21.784 109.056 22.136 109.52 22.136C110.032 22.136 110.32 21.768 110.32 21.112C110.32 19.912 109.376 19.112 107.68 19.112C105.824 19.112 104.832 20.056 104.832 21.256C104.832 22.456 105.568 23.128 107.296 23.656C108.496 24.024 108.784 24.248 108.784 24.728C108.784 25.192 108.336 25.72 107.456 25.72C106.656 25.72 106.112 25.304 105.888 24.648C105.792 24.344 105.536 24.12 105.168 24.12C104.752 24.12 104.416 24.456 104.416 24.872C104.416 25.448 105.392 27.096 107.424 27.096ZM130.418 27.112C130.834 27.112 131.186 26.776 131.186 26.36V20.648H132.546C132.978 20.648 133.314 20.28 133.314 19.88C133.314 19.432 132.978 19.096 132.546 19.096H131.186V17.384C131.186 16.984 130.882 16.6 130.418 16.6C129.986 16.6 129.65 16.984 129.65 17.384V19.096H128.418C128.002 19.096 127.618 19.4 127.618 19.88C127.618 20.28 127.954 20.648 128.386 20.648H129.65V26.36C129.65 26.776 130.018 27.112 130.418 27.112ZM136.67 27.096C138.702 27.096 140.43 25.144 140.43 22.808C140.43 20.84 138.99 19.112 137.118 19.112C135.086 19.112 133.374 21.08 133.374 23.384C133.374 25.432 134.798 27.096 136.67 27.096ZM136.67 25.656C135.806 25.656 134.942 24.856 134.942 23.368C134.942 21.88 135.918 20.552 137.054 20.552C138.062 20.552 138.862 21.656 138.862 22.888C138.862 24.36 137.822 25.656 136.67 25.656ZM142.919 27.096C143.399 27.096 143.671 26.744 143.671 26.296V24.952C143.671 23.768 143.847 23.032 144.327 22.168C144.871 21.176 145.543 20.6 146.183 20.6C146.919 20.6 147.239 21.144 147.239 23.688V26.344C147.239 26.728 147.591 27.096 148.007 27.096C148.439 27.096 148.743 26.728 148.743 26.328C148.743 25.416 148.759 24.872 148.759 23.528C148.759 20.184 148.071 19.112 146.327 19.112C145.239 19.112 144.295 19.8 143.687 21.08V19.864C143.687 19.432 143.351 19.096 142.951 19.096C142.535 19.096 142.151 19.432 142.151 19.864V26.36C142.151 26.744 142.503 27.096 142.919 27.096ZM153.143 27.096C154.903 27.096 156.007 25.848 156.007 24.648C156.007 23.432 155.367 22.888 153.639 22.344C152.487 21.976 152.023 21.736 152.023 21.224C152.023 20.792 152.407 20.456 153.431 20.456C154.247 20.456 154.567 20.728 154.567 21.096C154.567 21.224 154.487 21.336 154.487 21.48C154.487 21.784 154.775 22.136 155.239 22.136C155.751 22.136 156.039 21.768 156.039 21.112C156.039 19.912 155.095 19.112 153.399 19.112C151.543 19.112 150.551 20.056 150.551 21.256C150.551 22.456 151.287 23.128 153.015 23.656C154.215 24.024 154.503 24.248 154.503 24.728C154.503 25.192 154.055 25.72 153.175 25.72C152.375 25.72 151.831 25.304 151.607 24.648C151.511 24.344 151.255 24.12 150.887 24.12C150.471 24.12 150.135 24.456 150.135 24.872C150.135 25.448 151.111 27.096 153.143 27.096ZM166.123 27.096C168.155 27.096 169.883 25.144 169.883 22.808C169.883 20.84 168.443 19.112 166.571 19.112C164.539 19.112 162.827 21.08 162.827 23.384C162.827 25.432 164.251 27.096 166.123 27.096ZM166.123 25.656C165.259 25.656 164.395 24.856 164.395 23.368C164.395 21.88 165.371 20.552 166.507 20.552C167.515 20.552 168.315 21.656 168.315 22.888C168.315 24.36 167.275 25.656 166.123 25.656ZM172.582 27.096C172.982 27.096 173.35 26.744 173.35 26.36V20.568H174.998C175.398 20.568 175.718 20.216 175.718 19.832C175.718 19.432 175.318 19.096 174.998 19.096L173.366 19.08C173.462 17.976 173.942 17.816 175.27 17.816C175.75 17.816 176.022 17.464 176.022 17.064C176.022 16.472 175.622 16.328 175.094 16.328C172.902 16.328 171.926 17.016 171.83 19.08H171.062C170.694 19.08 170.342 19.432 170.342 19.832C170.342 20.216 170.694 20.568 171.078 20.568H171.814V26.36C171.814 26.744 172.182 27.096 172.582 27.096ZM186.562 27.096C188.114 27.096 189.522 26.44 190.402 25.192C190.514 25.032 190.546 24.872 190.546 24.712C190.546 24.2 190.162 23.912 189.746 23.912C189.506 23.912 189.314 23.976 189.122 24.232C188.61 24.904 187.826 25.56 186.562 25.56C184.898 25.56 183.49 24.36 183.49 22.28C183.49 19.96 185.122 17.736 186.77 17.736C187.634 17.736 188.13 18.008 188.466 18.36V18.472C188.466 18.808 188.786 19.112 189.218 19.112C189.666 19.112 190.018 18.744 190.018 18.312V17.288C190.018 16.888 189.714 16.552 189.282 16.552C189.058 16.552 188.898 16.648 188.802 16.744C188.322 16.456 187.602 16.184 186.882 16.184C184.434 16.184 181.89 19.08 181.89 22.28C181.89 25.32 184.018 27.096 186.562 27.096ZM195.643 27.096C198.219 27.096 200.427 24.568 200.427 21.24C200.427 18.328 198.667 16.184 196.267 16.184C193.723 16.184 191.499 18.712 191.499 22.04C191.499 24.92 193.227 27.096 195.643 27.096ZM195.643 25.576C194.331 25.576 193.099 24.376 193.099 22.04C193.099 19.496 194.491 17.704 196.171 17.704C197.483 17.704 198.827 18.968 198.827 21.304C198.827 23.848 197.371 25.576 195.643 25.576ZM201.863 27H207.623C208.023 27 208.391 26.664 208.391 26.248C208.391 25.816 208.023 25.48 207.623 25.48H203.447C203.671 24.088 204.679 23.384 205.671 22.744C206.903 21.96 208.263 21.048 208.263 19.256C208.263 17.704 206.983 16.44 205.159 16.44C203.847 16.44 202.871 17.144 202.311 17.688C201.911 18.072 201.799 18.264 201.799 18.52C201.799 18.904 202.103 19.304 202.567 19.304C202.935 19.304 203.079 19.128 203.239 18.952C203.351 18.824 204.119 17.976 205.159 17.976C206.039 17.976 206.727 18.504 206.727 19.256C206.727 20.232 205.879 20.76 204.711 21.528C203.351 22.392 201.863 23.48 201.863 26.248V27ZM216.718 18.44C217.15 18.44 217.47 18.12 217.486 17.688L217.502 17.08C217.518 16.696 217.15 16.312 216.75 16.312C216.35 16.312 215.998 16.648 215.982 17.064L215.966 17.656C215.95 18.072 216.318 18.44 216.718 18.44ZM216.638 27.096C217.054 27.096 217.422 26.744 217.422 26.312L217.502 19.944C217.502 19.512 217.166 19.16 216.718 19.16C216.302 19.16 215.934 19.512 215.934 19.944L215.854 26.312C215.854 26.744 216.206 27.096 216.638 27.096ZM220.513 27.096C220.993 27.096 221.265 26.744 221.265 26.296V24.952C221.265 23.768 221.441 23.032 221.921 22.168C222.465 21.176 223.137 20.6 223.777 20.6C224.513 20.6 224.833 21.144 224.833 23.688V26.344C224.833 26.728 225.185 27.096 225.601 27.096C226.033 27.096 226.337 26.728 226.337 26.328C226.337 25.416 226.353 24.872 226.353 23.528C226.353 20.184 225.665 19.112 223.921 19.112C222.833 19.112 221.889 19.8 221.281 21.08V19.864C221.281 19.432 220.945 19.096 220.545 19.096C220.129 19.096 219.745 19.432 219.745 19.864V26.36C219.745 26.744 220.097 27.096 220.513 27.096ZM230.785 27.08C231.665 27.08 232.449 26.616 232.929 26.168V26.456C232.929 26.856 233.281 27.096 233.665 27.096C234.097 27.096 234.433 26.776 234.449 26.36L234.673 17.048C234.689 16.552 234.305 16.232 233.921 16.232C233.489 16.232 233.137 16.584 233.121 17.016L233.041 19.496C232.641 19.336 232.016 19.128 231.329 19.128C229.329 19.128 227.921 20.664 227.921 23.464C227.921 25.816 229.185 27.08 230.785 27.08ZM230.913 25.64C230.065 25.64 229.457 25.016 229.457 23.416C229.457 21.56 230.129 20.568 231.424 20.568C232.016 20.568 232.673 20.824 233.025 21.064L232.961 24.216C232.945 24.76 232.081 25.64 230.913 25.64ZM237.656 18.44C238.088 18.44 238.408 18.12 238.424 17.688L238.44 17.08C238.456 16.696 238.088 16.312 237.688 16.312C237.288 16.312 236.936 16.648 236.92 17.064L236.904 17.656C236.888 18.072 237.256 18.44 237.656 18.44ZM237.576 27.096C237.992 27.096 238.36 26.744 238.36 26.312L238.44 19.944C238.44 19.512 238.104 19.16 237.656 19.16C237.24 19.16 236.872 19.512 236.872 19.944L236.792 26.312C236.792 26.744 237.144 27.096 237.576 27.096ZM243.659 27.096C245.003 27.096 246.107 26.344 246.667 25.592C246.795 25.432 246.843 25.256 246.843 25.048C246.843 24.68 246.507 24.344 246.091 24.344C245.787 24.344 245.547 24.552 245.403 24.744C245.035 25.24 244.539 25.64 243.627 25.64C242.651 25.64 241.674 24.888 241.674 23.56C241.674 22.04 242.779 20.568 243.803 20.568C244.443 20.568 244.747 20.872 245.035 21.192C245.243 21.448 245.371 21.512 245.643 21.512C246.059 21.512 246.411 21.192 246.411 20.776C246.411 20.584 246.347 20.408 246.171 20.216C245.563 19.496 244.971 19.112 243.786 19.112C241.883 19.112 240.171 21.4 240.171 23.592C240.171 25.544 241.691 27.096 243.659 27.096ZM253.318 27.256C253.766 27.256 254.086 26.872 254.086 26.456V19.8C253.67 19.608 252.678 19.112 251.526 19.112C249.158 19.112 247.686 21.432 247.686 23.64C247.686 25.704 249.014 27.096 250.774 27.096C251.414 27.096 252.102 26.92 252.598 26.392V26.616C252.598 27 252.886 27.256 253.318 27.256ZM250.886 25.608C249.862 25.608 249.238 24.936 249.238 23.608C249.238 22.04 250.15 20.584 251.558 20.584C251.894 20.584 252.294 20.664 252.566 20.776L252.518 24.952C252.182 25.256 251.558 25.608 250.886 25.608ZM257.715 27.112C258.131 27.112 258.483 26.776 258.483 26.36V20.648H259.843C260.275 20.648 260.611 20.28 260.611 19.88C260.611 19.432 260.275 19.096 259.843 19.096H258.483V17.384C258.483 16.984 258.179 16.6 257.715 16.6C257.283 16.6 256.947 16.984 256.947 17.384V19.096H255.715C255.299 19.096 254.915 19.4 254.915 19.88C254.915 20.28 255.251 20.648 255.683 20.648H256.947V26.36C256.947 26.776 257.315 27.112 257.715 27.112ZM264.639 27.096C265.631 27.096 266.735 26.568 267.311 25.912C267.439 25.768 267.503 25.624 267.503 25.432C267.503 25.016 267.183 24.712 266.751 24.712C266.543 24.712 266.367 24.824 266.223 24.968C265.871 25.336 265.343 25.656 264.639 25.656C263.727 25.656 262.879 25.288 262.575 24.616L266.863 22.152C267.199 21.96 267.359 21.672 267.359 21.416C267.359 20.664 266.399 19.112 264.286 19.112C262.095 19.112 260.671 21.08 260.671 23.08C260.671 25.592 262.383 27.096 264.639 27.096ZM262.127 23.288C262.127 23.064 262.127 22.952 262.159 22.712C262.287 21.528 263.151 20.552 264.399 20.552C265.023 20.552 265.519 20.776 265.775 21.224L262.127 23.288ZM270.578 24.552C270.85 24.552 271.25 24.248 271.666 23.88C271.682 23.864 272.466 23.16 273.122 22.552C273.682 22.04 274.866 21.16 274.866 19.4C274.866 17.384 273.426 16.04 271.298 16.04C270.066 16.04 269.09 16.744 268.642 17.24C268.482 17.416 268.242 17.72 268.242 17.976C268.242 18.44 268.61 18.744 269.01 18.744C269.202 18.744 269.394 18.68 269.522 18.536C269.922 18.088 270.466 17.544 271.298 17.544C272.834 17.544 273.378 18.504 273.378 19.4C273.378 20.056 272.738 20.856 271.986 21.592C271.154 22.408 270.482 22.888 270.098 23.224C269.922 23.368 269.826 23.592 269.826 23.8C269.826 24.216 270.162 24.552 270.578 24.552ZM270.082 27.096C270.578 27.096 271.026 26.632 271.026 26.056C271.026 25.56 270.674 25.16 270.194 25.16C269.714 25.16 269.25 25.656 269.25 26.184C269.25 26.696 269.586 27.096 270.082 27.096ZM286.921 27.096C288.473 27.096 289.881 26.44 290.761 25.192C290.873 25.032 290.905 24.872 290.905 24.712C290.905 24.2 290.521 23.912 290.105 23.912C289.865 23.912 289.673 23.976 289.481 24.232C288.969 24.904 288.185 25.56 286.921 25.56C285.257 25.56 283.849 24.36 283.849 22.28C283.849 19.96 285.481 17.736 287.129 17.736C287.993 17.736 288.489 18.008 288.825 18.36V18.472C288.825 18.808 289.145 19.112 289.577 19.112C290.025 19.112 290.377 18.744 290.377 18.312V17.288C290.377 16.888 290.073 16.552 289.641 16.552C289.417 16.552 289.257 16.648 289.161 16.744C288.681 16.456 287.961 16.184 287.241 16.184C284.793 16.184 282.249 19.08 282.249 22.28C282.249 25.32 284.377 27.096 286.921 27.096ZM293.107 27.096C293.475 27.096 293.875 26.776 293.875 26.376V17.096C293.875 16.68 293.507 16.344 293.107 16.344C292.659 16.344 292.339 16.68 292.339 17.096V26.376C292.339 26.776 292.707 27.096 293.107 27.096ZM296.984 18.44C297.416 18.44 297.736 18.12 297.752 17.688L297.768 17.08C297.784 16.696 297.416 16.312 297.016 16.312C296.616 16.312 296.264 16.648 296.248 17.064L296.232 17.656C296.216 18.072 296.584 18.44 296.984 18.44ZM296.904 27.096C297.32 27.096 297.688 26.744 297.688 26.312L297.768 19.944C297.768 19.512 297.432 19.16 296.984 19.16C296.568 19.16 296.2 19.512 296.2 19.944L296.12 26.312C296.12 26.744 296.472 27.096 296.904 27.096ZM302.987 27.096C304.331 27.096 305.435 26.344 305.995 25.592C306.123 25.432 306.171 25.256 306.171 25.048C306.171 24.68 305.835 24.344 305.419 24.344C305.115 24.344 304.875 24.552 304.731 24.744C304.363 25.24 303.867 25.64 302.955 25.64C301.979 25.64 301.003 24.888 301.003 23.56C301.003 22.04 302.107 20.568 303.131 20.568C303.771 20.568 304.075 20.872 304.363 21.192C304.571 21.448 304.699 21.512 304.971 21.512C305.387 21.512 305.739 21.192 305.739 20.776C305.739 20.584 305.675 20.408 305.499 20.216C304.891 19.496 304.299 19.112 303.115 19.112C301.211 19.112 299.499 21.4 299.499 23.592C299.499 25.544 301.019 27.096 302.987 27.096ZM308.326 27.096C308.774 27.096 309.11 26.728 309.11 26.328V24.008C309.334 23.864 309.686 23.64 310.038 23.368C310.55 24.024 311.686 25.464 312.662 26.776C312.806 26.952 313.03 27.048 313.27 27.048C313.734 27.048 314.038 26.68 314.038 26.248C314.038 26.024 313.926 25.864 313.83 25.752L311.19 22.44C311.846 21.832 312.806 20.824 313.398 20.04C313.478 19.944 313.558 19.784 313.558 19.576C313.558 19.16 313.238 18.84 312.806 18.84C312.518 18.84 312.326 18.984 312.182 19.16C311.334 20.184 309.974 21.56 309.094 22.312L309.078 17.128C309.078 16.712 308.758 16.344 308.31 16.344C307.894 16.344 307.526 16.68 307.526 17.096L307.558 26.328C307.558 26.728 307.942 27.096 308.326 27.096ZM323.81 27.096C325.842 27.096 327.57 25.144 327.57 22.808C327.57 20.84 326.13 19.112 324.258 19.112C322.226 19.112 320.514 21.08 320.514 23.384C320.514 25.432 321.938 27.096 323.81 27.096ZM323.81 25.656C322.946 25.656 322.082 24.856 322.082 23.368C322.082 21.88 323.058 20.552 324.194 20.552C325.202 20.552 326.002 21.656 326.002 22.888C326.002 24.36 324.962 25.656 323.81 25.656ZM330.06 27.096C330.54 27.096 330.812 26.744 330.812 26.296V24.952C330.812 23.768 330.988 23.032 331.468 22.168C332.012 21.176 332.684 20.6 333.324 20.6C334.06 20.6 334.38 21.144 334.38 23.688V26.344C334.38 26.728 334.732 27.096 335.148 27.096C335.58 27.096 335.884 26.728 335.884 26.328C335.884 25.416 335.9 24.872 335.9 23.528C335.9 20.184 335.212 19.112 333.468 19.112C332.38 19.112 331.436 19.8 330.828 21.08V19.864C330.828 19.432 330.492 19.096 330.092 19.096C329.676 19.096 329.292 19.432 329.292 19.864V26.36C329.292 26.744 329.644 27.096 330.06 27.096ZM341.435 27.096C342.427 27.096 343.531 26.568 344.107 25.912C344.235 25.768 344.299 25.624 344.299 25.432C344.299 25.016 343.979 24.712 343.547 24.712C343.339 24.712 343.163 24.824 343.019 24.968C342.667 25.336 342.139 25.656 341.435 25.656C340.523 25.656 339.675 25.288 339.371 24.616L343.659 22.152C343.995 21.96 344.155 21.672 344.155 21.416C344.155 20.664 343.195 19.112 341.083 19.112C338.891 19.112 337.467 21.08 337.467 23.08C337.467 25.592 339.179 27.096 341.435 27.096ZM338.923 23.288C338.923 23.064 338.923 22.952 338.955 22.712C339.083 21.528 339.947 20.552 341.195 20.552C341.819 20.552 342.315 20.776 342.571 21.224L338.923 23.288ZM352.31 29.928C352.71 29.928 353.078 29.56 353.078 29.16V26.552C353.574 26.84 354.038 26.984 354.598 26.984C357.446 26.984 358.15 24.536 358.15 22.728C358.15 20.296 356.71 19.096 355.462 19.096C354.422 19.096 353.622 19.384 353.062 20.024V19.848C353.062 19.368 352.646 19.096 352.326 19.096C351.878 19.096 351.542 19.432 351.542 19.88V29.16C351.542 29.56 351.894 29.928 352.31 29.928ZM354.694 25.512C354.086 25.512 353.446 25.272 353.078 25.128V21.576C353.366 21.208 354.086 20.536 355.334 20.536C356.07 20.536 356.694 21.304 356.694 22.728C356.694 24.632 355.894 25.512 354.694 25.512ZM365.006 27.256C365.454 27.256 365.774 26.872 365.774 26.456V19.8C365.358 19.608 364.366 19.112 363.214 19.112C360.846 19.112 359.374 21.432 359.374 23.64C359.374 25.704 360.702 27.096 362.462 27.096C363.102 27.096 363.79 26.92 364.286 26.392V26.616C364.286 27 364.574 27.256 365.006 27.256ZM362.574 25.608C361.55 25.608 360.926 24.936 360.926 23.608C360.926 22.04 361.838 20.584 363.246 20.584C363.582 20.584 363.982 20.664 364.254 20.776L364.206 24.952C363.87 25.256 363.246 25.608 362.574 25.608ZM368.779 27.096C369.259 27.096 369.531 26.744 369.531 26.296V24.952C369.531 23.768 369.707 23.032 370.187 22.168C370.731 21.176 371.403 20.6 372.043 20.6C372.779 20.6 373.099 21.144 373.099 23.688V26.344C373.099 26.728 373.451 27.096 373.867 27.096C374.299 27.096 374.603 26.728 374.603 26.328C374.603 25.416 374.619 24.872 374.619 23.528C374.619 20.184 373.931 19.112 372.187 19.112C371.099 19.112 370.155 19.8 369.547 21.08V19.864C369.547 19.432 369.211 19.096 368.811 19.096C368.395 19.096 368.011 19.432 368.011 19.864V26.36C368.011 26.744 368.363 27.096 368.779 27.096ZM380.154 27.096C381.146 27.096 382.25 26.568 382.826 25.912C382.954 25.768 383.018 25.624 383.018 25.432C383.018 25.016 382.698 24.712 382.266 24.712C382.058 24.712 381.882 24.824 381.738 24.968C381.386 25.336 380.858 25.656 380.154 25.656C379.242 25.656 378.394 25.288 378.09 24.616L382.378 22.152C382.714 21.96 382.874 21.672 382.874 21.416C382.874 20.664 381.914 19.112 379.802 19.112C377.61 19.112 376.186 21.08 376.186 23.08C376.186 25.592 377.898 27.096 380.154 27.096ZM377.642 23.288C377.642 23.064 377.642 22.952 377.674 22.712C377.802 21.528 378.666 20.552 379.914 20.552C380.538 20.552 381.034 20.776 381.29 21.224L377.642 23.288ZM385.326 27.096C385.694 27.096 386.094 26.776 386.094 26.376V17.096C386.094 16.68 385.726 16.344 385.326 16.344C384.878 16.344 384.558 16.68 384.558 17.096V26.376C384.558 26.776 384.926 27.096 385.326 27.096ZM395.098 27.096C395.498 27.096 395.866 26.744 395.866 26.36V20.568H397.514C397.914 20.568 398.234 20.216 398.234 19.832C398.234 19.432 397.834 19.096 397.514 19.096L395.882 19.08C395.978 17.976 396.458 17.816 397.786 17.816C398.266 17.816 398.538 17.464 398.538 17.064C398.538 16.472 398.138 16.328 397.61 16.328C395.418 16.328 394.442 17.016 394.346 19.08H393.578C393.21 19.08 392.858 19.432 392.858 19.832C392.858 20.216 393.21 20.568 393.594 20.568H394.33V26.36C394.33 26.744 394.698 27.096 395.098 27.096ZM399.967 27.096C400.351 27.096 400.735 26.744 400.735 26.36L400.751 23.32C400.751 22.664 400.815 22.104 401.295 21.496C401.567 21.128 402.143 20.6 402.575 20.6C402.847 20.6 402.927 20.696 402.927 20.856V21.064C402.927 21.432 403.119 21.832 403.679 21.832C404.111 21.832 404.431 21.496 404.431 21.08V20.6C404.431 19.912 404.095 19.08 402.895 19.08C401.951 19.08 401.247 19.544 400.751 20.36V19.88C400.751 19.448 400.399 19.112 399.967 19.112C399.551 19.112 399.183 19.448 399.183 19.88V26.36C399.183 26.744 399.567 27.096 399.967 27.096ZM408.201 27.096C410.233 27.096 411.961 25.144 411.961 22.808C411.961 20.84 410.521 19.112 408.649 19.112C406.617 19.112 404.905 21.08 404.905 23.384C404.905 25.432 406.329 27.096 408.201 27.096ZM408.201 25.656C407.337 25.656 406.473 24.856 406.473 23.368C406.473 21.88 407.449 20.552 408.585 20.552C409.593 20.552 410.393 21.656 410.393 22.888C410.393 24.36 409.353 25.656 408.201 25.656ZM414.451 27.096C414.867 27.096 415.219 26.76 415.219 26.344L415.203 23.992C415.203 23.208 415.395 22.6 415.763 21.976C416.179 21.32 416.883 20.584 417.635 20.584C418.195 20.584 418.419 21.048 418.419 22.056V26.344C418.419 26.76 418.787 27.096 419.187 27.096C419.619 27.096 419.955 26.76 419.955 26.344V23.368C419.955 21.752 421.01 20.584 421.939 20.584C422.547 20.584 422.803 21.08 422.803 22.056V26.344C422.803 26.76 423.155 27.096 423.571 27.096C423.971 27.096 424.339 26.76 424.339 26.344V22.152C424.339 20.056 423.475 19.112 422.195 19.112C421.123 19.112 420.307 19.736 419.699 20.648C419.411 19.592 418.691 19.112 417.859 19.112C416.771 19.112 415.875 19.752 415.219 21V19.88C415.219 19.48 414.883 19.112 414.451 19.112C414.051 19.112 413.683 19.48 413.683 19.88V26.344C413.683 26.76 414.051 27.096 414.451 27.096ZM433.176 27.096C433.576 27.096 433.944 26.744 433.944 26.36V20.568H435.592C435.992 20.568 436.312 20.216 436.312 19.832C436.312 19.432 435.912 19.096 435.592 19.096L433.96 19.08C434.056 17.976 434.536 17.816 435.864 17.816C436.344 17.816 436.616 17.464 436.616 17.064C436.616 16.472 436.216 16.328 435.688 16.328C433.496 16.328 432.52 17.016 432.424 19.08H431.656C431.288 19.08 430.936 19.432 430.936 19.832C430.936 20.216 431.288 20.568 431.672 20.568H432.408V26.36C432.408 26.744 432.776 27.096 433.176 27.096ZM439.732 27.096C441.764 27.096 443.492 25.144 443.492 22.808C443.492 20.84 442.052 19.112 440.18 19.112C438.148 19.112 436.436 21.08 436.436 23.384C436.436 25.432 437.86 27.096 439.732 27.096ZM439.732 25.656C438.868 25.656 438.004 24.856 438.004 23.368C438.004 21.88 438.98 20.552 440.116 20.552C441.124 20.552 441.924 21.656 441.924 22.888C441.924 24.36 440.884 25.656 439.732 25.656ZM445.982 27.096C446.35 27.096 446.75 26.776 446.75 26.376V17.096C446.75 16.68 446.382 16.344 445.982 16.344C445.534 16.344 445.214 16.68 445.214 17.096V26.376C445.214 26.776 445.582 27.096 445.982 27.096ZM449.763 27.096C450.131 27.096 450.531 26.776 450.531 26.376V17.096C450.531 16.68 450.163 16.344 449.763 16.344C449.315 16.344 448.995 16.68 448.995 17.096V26.376C448.995 26.776 449.363 27.096 449.763 27.096ZM455.56 27.096C457.592 27.096 459.32 25.144 459.32 22.808C459.32 20.84 457.88 19.112 456.008 19.112C453.976 19.112 452.264 21.08 452.264 23.384C452.264 25.432 453.688 27.096 455.56 27.096ZM455.56 25.656C454.696 25.656 453.832 24.856 453.832 23.368C453.832 21.88 454.808 20.552 455.944 20.552C456.952 20.552 457.752 21.656 457.752 22.888C457.752 24.36 456.712 25.656 455.56 25.656ZM462.274 27.096C462.594 27.096 462.882 26.904 463.01 26.536L464.546 22.312L465.618 26.504C465.73 26.92 466.002 27.096 466.37 27.096C466.754 27.096 466.994 26.856 467.106 26.52L469.154 20.136C469.17 20.088 469.202 19.992 469.202 19.832C469.202 19.416 468.834 19.112 468.434 19.112C468.098 19.112 467.778 19.384 467.682 19.704L466.418 23.864L465.426 19.656C465.33 19.272 465.042 19.096 464.658 19.096C464.322 19.096 464.002 19.32 463.89 19.656L462.45 23.784L461.634 19.736C461.554 19.368 461.298 19.096 460.882 19.096C460.466 19.096 460.13 19.432 460.13 19.768C460.13 19.912 460.146 19.992 460.178 20.152L461.506 26.472C461.586 26.856 461.842 27.096 462.274 27.096ZM471.828 18.44C472.26 18.44 472.58 18.12 472.596 17.688L472.612 17.08C472.628 16.696 472.26 16.312 471.86 16.312C471.46 16.312 471.108 16.648 471.092 17.064L471.076 17.656C471.06 18.072 471.428 18.44 471.828 18.44ZM471.748 27.096C472.164 27.096 472.532 26.744 472.532 26.312L472.612 19.944C472.612 19.512 472.276 19.16 471.828 19.16C471.412 19.16 471.044 19.512 471.044 19.944L470.964 26.312C470.964 26.744 471.316 27.096 471.748 27.096ZM475.622 27.096C476.102 27.096 476.374 26.744 476.374 26.296V24.952C476.374 23.768 476.55 23.032 477.03 22.168C477.574 21.176 478.246 20.6 478.886 20.6C479.622 20.6 479.942 21.144 479.942 23.688V26.344C479.942 26.728 480.294 27.096 480.71 27.096C481.142 27.096 481.446 26.728 481.446 26.328C481.446 25.416 481.462 24.872 481.462 23.528C481.462 20.184 480.774 19.112 479.03 19.112C477.942 19.112 476.998 19.8 476.39 21.08V19.864C476.39 19.432 476.054 19.096 475.654 19.096C475.238 19.096 474.854 19.432 474.854 19.864V26.36C474.854 26.744 475.206 27.096 475.622 27.096ZM486.278 29.784C488.166 29.784 489.574 28.76 489.622 26.472L489.782 19.72C489.798 19.128 489.43 18.936 489.03 18.936C488.614 18.936 488.374 19.096 488.294 19.384C487.926 19.24 487.462 19.096 486.966 19.096C484.806 19.096 483.158 21.112 483.158 23.4C483.158 25.672 484.726 26.952 486.39 26.952C487.046 26.952 487.686 26.712 488.07 26.216L488.038 26.6C487.958 27.592 487.446 28.248 486.262 28.248C485.382 28.248 484.95 28.04 484.566 28.04C484.166 28.04 483.798 28.376 483.798 28.808C483.798 29.176 484.054 29.48 484.39 29.56C484.87 29.672 485.558 29.784 486.278 29.784ZM486.294 25.448C485.382 25.448 484.614 24.632 484.614 23.288C484.614 21.768 485.702 20.632 487.03 20.632C487.414 20.632 487.878 20.76 488.166 20.92V22.856C488.166 24.68 487.43 25.448 486.294 25.448ZM500.795 27.096C502.827 27.096 504.555 25.144 504.555 22.808C504.555 20.84 503.115 19.112 501.243 19.112C499.211 19.112 497.499 21.08 497.499 23.384C497.499 25.432 498.923 27.096 500.795 27.096ZM500.795 25.656C499.931 25.656 499.067 24.856 499.067 23.368C499.067 21.88 500.043 20.552 501.179 20.552C502.187 20.552 502.987 21.656 502.987 22.888C502.987 24.36 501.947 25.656 500.795 25.656ZM507.044 29.928C507.444 29.928 507.812 29.56 507.812 29.16V26.552C508.308 26.84 508.772 26.984 509.332 26.984C512.18 26.984 512.884 24.536 512.884 22.728C512.884 20.296 511.444 19.096 510.196 19.096C509.156 19.096 508.356 19.384 507.796 20.024V19.848C507.796 19.368 507.38 19.096 507.06 19.096C506.612 19.096 506.276 19.432 506.276 19.88V29.16C506.276 29.56 506.628 29.928 507.044 29.928ZM509.428 25.512C508.82 25.512 508.18 25.272 507.812 25.128V21.576C508.1 21.208 508.82 20.536 510.068 20.536C510.804 20.536 511.428 21.304 511.428 22.728C511.428 24.632 510.628 25.512 509.428 25.512ZM515.95 27.112C516.366 27.112 516.718 26.776 516.718 26.36V20.648H518.078C518.51 20.648 518.846 20.28 518.846 19.88C518.846 19.432 518.51 19.096 518.078 19.096H516.718V17.384C516.718 16.984 516.414 16.6 515.95 16.6C515.518 16.6 515.182 16.984 515.182 17.384V19.096H513.95C513.534 19.096 513.149 19.4 513.149 19.88C513.149 20.28 513.486 20.648 513.918 20.648H515.182V26.36C515.182 26.776 515.549 27.112 515.95 27.112ZM520.672 18.44C521.104 18.44 521.424 18.12 521.44 17.688L521.456 17.08C521.472 16.696 521.104 16.312 520.704 16.312C520.304 16.312 519.952 16.648 519.936 17.064L519.92 17.656C519.904 18.072 520.272 18.44 520.672 18.44ZM520.592 27.096C521.008 27.096 521.376 26.744 521.376 26.312L521.456 19.944C521.456 19.512 521.12 19.16 520.672 19.16C520.256 19.16 519.888 19.512 519.888 19.944L519.808 26.312C519.808 26.744 520.16 27.096 520.592 27.096ZM526.482 27.096C528.514 27.096 530.242 25.144 530.242 22.808C530.242 20.84 528.802 19.112 526.93 19.112C524.898 19.112 523.186 21.08 523.186 23.384C523.186 25.432 524.61 27.096 526.482 27.096ZM526.482 25.656C525.618 25.656 524.754 24.856 524.754 23.368C524.754 21.88 525.73 20.552 526.866 20.552C527.874 20.552 528.674 21.656 528.674 22.888C528.674 24.36 527.634 25.656 526.482 25.656ZM532.732 27.096C533.212 27.096 533.484 26.744 533.484 26.296V24.952C533.484 23.768 533.66 23.032 534.14 22.168C534.684 21.176 535.356 20.6 535.996 20.6C536.732 20.6 537.052 21.144 537.052 23.688V26.344C537.052 26.728 537.404 27.096 537.82 27.096C538.252 27.096 538.556 26.728 538.556 26.328C538.556 25.416 538.572 24.872 538.572 23.528C538.572 20.184 537.884 19.112 536.14 19.112C535.052 19.112 534.108 19.8 533.5 21.08V19.864C533.5 19.432 533.164 19.096 532.764 19.096C532.348 19.096 531.964 19.432 531.964 19.864V26.36C531.964 26.744 532.316 27.096 532.732 27.096ZM542.955 27.096C544.715 27.096 545.819 25.848 545.819 24.648C545.819 23.432 545.179 22.888 543.451 22.344C542.299 21.976 541.835 21.736 541.835 21.224C541.835 20.792 542.219 20.456 543.243 20.456C544.059 20.456 544.379 20.728 544.379 21.096C544.379 21.224 544.299 21.336 544.299 21.48C544.299 21.784 544.587 22.136 545.051 22.136C545.563 22.136 545.851 21.768 545.851 21.112C545.851 19.912 544.907 19.112 543.211 19.112C541.355 19.112 540.363 20.056 540.363 21.256C540.363 22.456 541.099 23.128 542.827 23.656C544.027 24.024 544.315 24.248 544.315 24.728C544.315 25.192 543.867 25.72 542.987 25.72C542.187 25.72 541.643 25.304 541.419 24.648C541.323 24.344 541.067 24.12 540.699 24.12C540.283 24.12 539.947 24.456 539.947 24.872C539.947 25.448 540.923 27.096 542.955 27.096ZM554.543 27.112C554.959 27.112 555.311 26.776 555.311 26.36V20.648H556.671C557.103 20.648 557.439 20.28 557.439 19.88C557.439 19.432 557.103 19.096 556.671 19.096H555.311V17.384C555.311 16.984 555.007 16.6 554.543 16.6C554.111 16.6 553.775 16.984 553.775 17.384V19.096H552.543C552.127 19.096 551.743 19.4 551.743 19.88C551.743 20.28 552.079 20.648 552.511 20.648H553.775V26.36C553.775 26.776 554.143 27.112 554.543 27.112ZM560.795 27.096C562.827 27.096 564.555 25.144 564.555 22.808C564.555 20.84 563.115 19.112 561.243 19.112C559.211 19.112 557.499 21.08 557.499 23.384C557.499 25.432 558.923 27.096 560.795 27.096ZM560.795 25.656C559.931 25.656 559.067 24.856 559.067 23.368C559.067 21.88 560.043 20.552 561.179 20.552C562.187 20.552 562.987 21.656 562.987 22.888C562.987 24.36 561.947 25.656 560.795 25.656ZM574.955 27.096C576.299 27.096 577.403 26.344 577.963 25.592C578.091 25.432 578.139 25.256 578.139 25.048C578.139 24.68 577.803 24.344 577.387 24.344C577.083 24.344 576.843 24.552 576.699 24.744C576.331 25.24 575.835 25.64 574.923 25.64C573.947 25.64 572.971 24.888 572.971 23.56C572.971 22.04 574.075 20.568 575.099 20.568C575.739 20.568 576.043 20.872 576.331 21.192C576.539 21.448 576.667 21.512 576.939 21.512C577.355 21.512 577.707 21.192 577.707 20.776C577.707 20.584 577.643 20.408 577.467 20.216C576.859 19.496 576.267 19.112 575.083 19.112C573.179 19.112 571.467 21.4 571.467 23.592C571.467 25.544 572.987 27.096 574.955 27.096ZM582.279 27.096C584.311 27.096 586.039 25.144 586.039 22.808C586.039 20.84 584.599 19.112 582.727 19.112C580.695 19.112 578.983 21.08 578.983 23.384C578.983 25.432 580.407 27.096 582.279 27.096ZM582.279 25.656C581.415 25.656 580.551 24.856 580.551 23.368C580.551 21.88 581.527 20.552 582.663 20.552C583.671 20.552 584.471 21.656 584.471 22.888C584.471 24.36 583.431 25.656 582.279 25.656ZM588.529 27.096C588.945 27.096 589.297 26.76 589.297 26.344L589.281 23.992C589.281 23.208 589.473 22.6 589.841 21.976C590.257 21.32 590.961 20.584 591.713 20.584C592.273 20.584 592.497 21.048 592.497 22.056V26.344C592.497 26.76 592.865 27.096 593.265 27.096C593.697 27.096 594.033 26.76 594.033 26.344V23.368C594.033 21.752 595.089 20.584 596.017 20.584C596.625 20.584 596.881 21.08 596.881 22.056V26.344C596.881 26.76 597.233 27.096 597.649 27.096C598.049 27.096 598.417 26.76 598.417 26.344V22.152C598.417 20.056 597.553 19.112 596.273 19.112C595.201 19.112 594.385 19.736 593.777 20.648C593.489 19.592 592.769 19.112 591.937 19.112C590.849 19.112 589.953 19.752 589.297 21V19.88C589.297 19.48 588.961 19.112 588.529 19.112C588.129 19.112 587.761 19.48 587.761 19.88V26.344C587.761 26.76 588.129 27.096 588.529 27.096ZM601.263 29.928C601.663 29.928 602.031 29.56 602.031 29.16V26.552C602.527 26.84 602.991 26.984 603.551 26.984C606.399 26.984 607.103 24.536 607.103 22.728C607.103 20.296 605.663 19.096 604.415 19.096C603.375 19.096 602.575 19.384 602.015 20.024V19.848C602.015 19.368 601.599 19.096 601.279 19.096C600.831 19.096 600.495 19.432 600.495 19.88V29.16C600.495 29.56 600.847 29.928 601.263 29.928ZM603.647 25.512C603.039 25.512 602.399 25.272 602.031 25.128V21.576C602.319 21.208 603.039 20.536 604.287 20.536C605.023 20.536 605.647 21.304 605.647 22.728C605.647 24.632 604.847 25.512 603.647 25.512ZM613.959 27.256C614.407 27.256 614.727 26.872 614.727 26.456V19.8C614.311 19.608 613.319 19.112 612.167 19.112C609.799 19.112 608.327 21.432 608.327 23.64C608.327 25.704 609.655 27.096 611.415 27.096C612.055 27.096 612.743 26.92 613.239 26.392V26.616C613.239 27 613.527 27.256 613.959 27.256ZM611.527 25.608C610.503 25.608 609.879 24.936 609.879 23.608C609.879 22.04 610.791 20.584 612.199 20.584C612.535 20.584 612.935 20.664 613.207 20.776L613.159 24.952C612.823 25.256 612.199 25.608 611.527 25.608ZM617.748 27.096C618.132 27.096 618.516 26.744 618.516 26.36L618.532 23.32C618.532 22.664 618.596 22.104 619.076 21.496C619.348 21.128 619.924 20.6 620.356 20.6C620.628 20.6 620.708 20.696 620.708 20.856V21.064C620.708 21.432 620.9 21.832 621.46 21.832C621.892 21.832 622.212 21.496 622.212 21.08V20.6C622.212 19.912 621.876 19.08 620.676 19.08C619.732 19.08 619.028 19.544 618.532 20.36V19.88C618.532 19.448 618.18 19.112 617.748 19.112C617.332 19.112 616.964 19.448 616.964 19.88V26.36C616.964 26.744 617.348 27.096 617.748 27.096ZM626.389 27.096C627.381 27.096 628.485 26.568 629.061 25.912C629.189 25.768 629.253 25.624 629.253 25.432C629.253 25.016 628.933 24.712 628.501 24.712C628.293 24.712 628.117 24.824 627.973 24.968C627.621 25.336 627.093 25.656 626.389 25.656C625.477 25.656 624.629 25.288 624.325 24.616L628.613 22.152C628.949 21.96 629.109 21.672 629.109 21.416C629.109 20.664 628.149 19.112 626.036 19.112C623.845 19.112 622.421 21.08 622.421 23.08C622.421 25.592 624.133 27.096 626.389 27.096ZM623.877 23.288C623.877 23.064 623.877 22.952 623.909 22.712C624.037 21.528 624.901 20.552 626.149 20.552C626.773 20.552 627.269 20.776 627.525 21.224L623.877 23.288ZM637.887 27.112C638.303 27.112 638.655 26.776 638.655 26.36V20.648H640.015C640.447 20.648 640.783 20.28 640.783 19.88C640.783 19.432 640.447 19.096 640.015 19.096H638.655V17.384C638.655 16.984 638.351 16.6 637.887 16.6C637.455 16.6 637.119 16.984 637.119 17.384V19.096H635.887C635.471 19.096 635.087 19.4 635.087 19.88C635.087 20.28 635.423 20.648 635.855 20.648H637.119V26.36C637.119 26.776 637.487 27.112 637.887 27.112ZM642.513 27.112C642.929 27.112 643.281 26.824 643.281 26.312V23.928C643.281 23.496 643.329 23.112 643.473 22.792C643.649 22.408 644.689 20.6 645.729 20.6C646.097 20.6 646.593 21.016 646.593 24.488C646.593 25.496 646.561 25.928 646.561 26.344C646.561 26.76 646.849 27.096 647.313 27.096C647.729 27.096 648.049 26.776 648.065 26.376C648.113 25.928 648.113 25.352 648.113 24.376C648.113 20.84 647.553 19.08 645.825 19.08C644.881 19.08 643.953 19.72 643.281 20.568V17.128C643.281 16.712 642.993 16.344 642.545 16.344C642.097 16.344 641.745 16.712 641.745 17.128V26.344C641.745 26.744 642.113 27.112 642.513 27.112ZM653.654 27.096C654.646 27.096 655.75 26.568 656.326 25.912C656.454 25.768 656.518 25.624 656.518 25.432C656.518 25.016 656.198 24.712 655.766 24.712C655.558 24.712 655.382 24.824 655.238 24.968C654.886 25.336 654.358 25.656 653.654 25.656C652.742 25.656 651.894 25.288 651.59 24.616L655.878 22.152C656.214 21.96 656.374 21.672 656.374 21.416C656.374 20.664 655.414 19.112 653.302 19.112C651.11 19.112 649.686 21.08 649.686 23.08C649.686 25.592 651.398 27.096 653.654 27.096ZM651.142 23.288C651.142 23.064 651.142 22.952 651.174 22.712C651.302 21.528 652.166 20.552 653.414 20.552C654.038 20.552 654.534 20.776 654.79 21.224L651.142 23.288ZM668.881 27.256C669.329 27.256 669.649 26.872 669.649 26.456V19.8C669.233 19.608 668.241 19.112 667.089 19.112C664.721 19.112 663.249 21.432 663.249 23.64C663.249 25.704 664.577 27.096 666.337 27.096C666.977 27.096 667.665 26.92 668.161 26.392V26.616C668.161 27 668.449 27.256 668.881 27.256ZM666.449 25.608C665.425 25.608 664.801 24.936 664.801 23.608C664.801 22.04 665.713 20.584 667.121 20.584C667.457 20.584 667.857 20.664 668.129 20.776L668.081 24.952C667.745 25.256 667.121 25.608 666.449 25.608ZM672.654 27.096C673.07 27.096 673.422 26.76 673.422 26.344L673.406 23.992C673.406 23.208 673.598 22.6 673.966 21.976C674.382 21.32 675.086 20.584 675.838 20.584C676.398 20.584 676.622 21.048 676.622 22.056V26.344C676.622 26.76 676.99 27.096 677.39 27.096C677.822 27.096 678.158 26.76 678.158 26.344V23.368C678.158 21.752 679.214 20.584 680.142 20.584C680.75 20.584 681.006 21.08 681.006 22.056V26.344C681.006 26.76 681.358 27.096 681.774 27.096C682.174 27.096 682.542 26.76 682.542 26.344V22.152C682.542 20.056 681.678 19.112 680.398 19.112C679.326 19.112 678.51 19.736 677.902 20.648C677.614 19.592 676.894 19.112 676.062 19.112C674.974 19.112 674.078 19.752 673.422 21V19.88C673.422 19.48 673.086 19.112 672.654 19.112C672.254 19.112 671.886 19.48 671.886 19.88V26.344C671.886 26.76 672.254 27.096 672.654 27.096ZM687.404 27.096C689.436 27.096 691.164 25.144 691.164 22.808C691.164 20.84 689.724 19.112 687.852 19.112C685.82 19.112 684.108 21.08 684.108 23.384C684.108 25.432 685.532 27.096 687.404 27.096ZM687.404 25.656C686.54 25.656 685.676 24.856 685.676 23.368C685.676 21.88 686.652 20.552 687.788 20.552C688.796 20.552 689.596 21.656 689.596 22.888C689.596 24.36 688.556 25.656 687.404 25.656ZM695.078 27.144C696.038 27.144 696.806 26.6 697.35 26.216V26.392C697.35 26.824 697.75 27.096 698.166 27.096C698.582 27.096 698.934 26.728 698.934 26.328V19.832C698.934 19.4 698.566 19.096 698.166 19.096C697.798 19.096 697.414 19.4 697.414 19.832L697.382 24.392C697.382 24.584 697.35 24.728 697.286 24.792C697.014 25.096 696.102 25.704 695.238 25.704C694.662 25.704 694.182 25.272 694.182 22.904C694.182 21.288 694.374 20.12 694.374 19.848C694.374 19.336 694.006 19.096 693.606 19.096C693.142 19.096 692.934 19.4 692.854 19.912C692.742 20.632 692.678 21.752 692.678 22.552C692.678 26.344 693.462 27.144 695.078 27.144ZM701.935 27.096C702.415 27.096 702.687 26.744 702.687 26.296V24.952C702.687 23.768 702.863 23.032 703.343 22.168C703.887 21.176 704.559 20.6 705.199 20.6C705.935 20.6 706.255 21.144 706.255 23.688V26.344C706.255 26.728 706.607 27.096 707.023 27.096C707.455 27.096 707.759 26.728 707.759 26.328C707.759 25.416 707.775 24.872 707.775 23.528C707.775 20.184 707.087 19.112 705.343 19.112C704.255 19.112 703.311 19.8 702.703 21.08V19.864C702.703 19.432 702.367 19.096 701.967 19.096C701.551 19.096 701.167 19.432 701.167 19.864V26.36C701.167 26.744 701.519 27.096 701.935 27.096ZM711.246 27.112C711.662 27.112 712.014 26.776 712.014 26.36V20.648H713.374C713.806 20.648 714.142 20.28 714.142 19.88C714.142 19.432 713.806 19.096 713.374 19.096H712.014V17.384C712.014 16.984 711.71 16.6 711.246 16.6C710.814 16.6 710.478 16.984 710.478 17.384V19.096H709.246C708.83 19.096 708.446 19.4 708.446 19.88C708.446 20.28 708.782 20.648 709.214 20.648H710.478V26.36C710.478 26.776 710.846 27.112 711.246 27.112ZM715.712 21.896C716.208 21.896 716.656 21.432 716.656 20.84C716.656 20.344 716.288 19.96 715.824 19.96C715.328 19.96 714.88 20.456 714.88 20.984C714.88 21.48 715.216 21.896 715.712 21.896ZM715.28 27.096C715.776 27.096 716.224 26.632 716.224 26.056C716.224 25.56 715.872 25.16 715.408 25.16C714.912 25.16 714.464 25.656 714.464 26.184C714.464 26.696 714.784 27.096 715.28 27.096Z" fill="black"/>
</g>
</svg>
