<svg width="39" height="39" viewBox="0 0 39 39" fill="none" xmlns="http://www.w3.org/2000/svg">
<rect x="1" y="5" width="33.5294" height="30" fill="white"/>
<path d="M21.7268 8.94858C17.7879 8.39576 14.931 7.44314 13.0503 11.3613C12.8144 11.8528 13.063 14.8973 12.3729 14.5906C10.7607 13.874 9.9182 13.3398 8.08576 14.0616C5.44166 15.1033 3.68724 16.6372 3.68724 19.5459C3.68724 22.2627 5.54359 22.5108 7.5661 23.0164C8.27436 23.1935 10.3635 22.5836 9.75609 22.9886C9.19261 23.3642 8.61134 24.1643 8.45694 24.826C7.32536 29.6756 13.5774 32.252 17.1426 29.8277C18.2949 29.0441 18.226 27.9084 19.1377 29.3266C20.0264 30.709 22.8801 31.2985 24.3065 30.6257C26.9036 29.4007 27.8386 27.9389 28.4916 25.3271C28.6412 24.7284 28.3181 24.0822 28.0183 23.5825C27.7475 23.1311 29.1065 23.6129 29.5866 23.3969C34.0771 21.3762 31.626 12.3042 26.5707 14.8318C26.1519 15.0413 26.4422 15.3381 26.6542 14.7019C26.916 13.9164 26.622 13.1767 26.3109 12.4655C25.9278 11.59 24.4452 10.3008 23.4899 10.1271C22.0089 9.85783 20.8458 9.68676 19.4718 10.7859C18.9268 11.222 19.7224 10.7194 19.7224 9.78375C19.7224 8.71913 18.6103 8.28045 17.6809 8.28045C14.7596 8.28045 12.2059 10.51 12.2059 13.542C12.2059 14.3291 12.4193 12.5305 12.5028 12.215C12.9376 10.5726 13.9252 9.09874 15.7136 8.65164C17.588 8.18302 18.7845 9.00574 20.4647 9.61671C20.9556 9.79521 22.3037 11.5086 22.0979 11.12C21.1656 9.35892 16.716 9.66384 14.9805 10.192C14.1551 10.4433 15.4678 10.0449 15.7136 9.78375C16.0356 9.44165 13.2937 10.802 14.266 10.5447C15.453 10.2305 19.2891 8.25951 16.0105 9.78375C14.2504 10.602 11.6303 11.9722 14.8042 10.1178C15.1914 9.89158 18.2473 8.43116 16.5487 8.85579C15.6146 9.08932 15.3385 8.90728 16.3632 8.61452C17.1487 8.39008 15.0895 9.65965 14.3588 10.025C12.7246 10.8421 12.0978 11.4183 14.0061 10.322C14.1243 10.2541 15.2003 9.65422 14.7671 9.96006C14.5263 10.13 13.6928 10.3776 13.9876 10.3776C15.0536 10.3776 17.882 8.80911 17.0591 9.4868C16.5638 9.89471 12.227 11.876 14.1453 11.3613C15.6063 10.9693 19.7115 9.01769 18.3861 9.74663C17.7412 10.1013 13.7639 11.9979 16.3817 11.2499C17.3466 10.9742 18.3367 10.4771 19.3233 10.3127C20.2041 10.1659 17.684 11.0228 16.8828 11.417C16.0482 11.8275 14.5041 12.2263 13.9319 13.013C13.9238 13.0242 15.8003 12.4017 16.0848 12.2521C16.661 11.9491 21.1899 9.81224 18.4696 10.8323C16.7589 11.4738 15.0867 12.2776 13.4494 13.0873C12.4566 13.5782 12.235 13.7559 13.4308 13.013C14.4831 12.3593 18.7764 10.2885 15.1382 11.4541C14.0691 11.7966 12.5439 12.1821 14.3402 11.4912C14.5222 11.4212 12.5884 12.0247 12.0574 12.4377C11.9017 12.5588 15.4874 11.0816 16.4003 10.6375C18.4373 9.64647 13.7191 12.0415 13.2731 12.3078C12.0967 13.0101 10.9862 13.8504 9.73753 14.4235C9.17892 14.68 9.10005 14.754 9.73753 14.5349C11.0836 14.0722 14.8193 12.0008 13.635 12.7903C12.6815 13.426 9.54177 14.0082 10.6098 14.4235C11.1056 14.6164 14.2418 13.4092 14.1546 13.477C12.7305 14.5847 7.62893 16.3024 9.42202 16.1031C10.8492 15.9446 14.3067 14.5944 15.2682 13.4956C17.2425 11.2392 9.99527 16.7875 7.00933 17.0589C5.69671 17.1783 11.3706 14.5715 10.053 14.5349C9.18705 14.5108 8.11038 14.9597 7.38051 15.3793C7.17782 15.4959 5.51983 16.2161 6.37832 15.8155C7.21519 15.4249 10.0596 13.8728 9.99736 13.9039C9.30257 14.2513 4.53495 16.6753 6.7959 15.6113C7.823 15.128 11.1025 13.7566 8.18784 14.971C7.85779 15.1086 5.75081 15.7829 5.67307 16.0939C5.47006 16.9059 7.26643 15.5657 8.0208 15.203C10.0015 14.2508 11.0481 13.5038 8.38271 14.9803C7.37248 15.5399 1.70464 18.3752 5.76586 16.595C7.61761 15.7832 9.38144 14.7786 11.2408 13.9874C11.9773 13.674 12.493 13.3202 11.3893 13.8668C9.666 14.7202 7.99482 15.6816 6.31336 16.6135C6.26809 16.6386 4.06934 17.9492 4.13266 18.0055C4.90876 18.6953 11.4304 14.7466 12.2337 14.3307C13.2215 13.8194 16.0175 12.0781 15.231 12.8646C14.2214 13.8742 12.2479 14.5804 11.0181 15.268C8.67896 16.5757 6.36084 17.9093 4.09554 19.3417C1.8517 20.7606 5.98454 18.6742 6.43399 18.4323C10.7455 16.1122 14.8988 13.2207 19.444 11.3613C23.1092 9.86186 12.4847 15.1447 9.06012 17.1332C6.96681 18.3487 5.062 19.8086 3.03766 21.1234C1.59664 22.0593 4.50187 20.6326 4.74511 20.511C9.83478 17.9661 14.789 15.1343 19.8244 12.4841C23.8083 10.3873 11.8277 16.6577 8.07648 19.1469C7.2821 19.674 4.90172 21.2271 5.77514 20.845C7.55605 20.0659 9.25335 19.0492 10.9439 18.0983C14.0831 16.3325 17.2082 14.5004 20.4369 12.9017C21.4014 12.4241 24.3974 11.3944 23.3228 11.4541C21.6889 11.5448 19.8745 12.9108 18.5067 13.6533C15.491 15.2904 12.6135 17.1004 9.68185 18.8777C7.82941 20.0008 5.90322 21.0095 4.08626 22.1906C3.02598 22.8797 6.52929 21.4675 7.64034 20.8636C12.3763 18.2893 17.3218 15.8735 21.9216 13.0687C23.0031 12.4093 22.017 12.7659 21.4484 13.0316C18.8838 14.2298 16.3959 15.6372 13.9505 17.0589C11.6686 18.3856 9.41693 19.759 7.1578 21.1234C6.91813 21.2682 6.49387 21.5305 7.19492 21.2162C8.67028 20.5548 10.0425 19.6876 11.4543 18.9056C15.6692 16.5707 28.6916 10.3385 24.2044 12.0944C18.8022 14.2083 13.87 17.7608 8.9766 20.7893C7.35123 21.7953 5.43973 22.9042 8.48478 21.5781C12.033 20.0329 15.294 18.0058 18.7202 16.2238C20.5201 15.2876 22.455 14.0585 24.3993 13.4399C27.1664 12.5594 19.2876 16.197 16.7436 17.5972C14.2583 18.965 11.8616 20.4763 9.36634 21.8287C7.67927 22.743 10.0056 21.9376 10.4613 21.7451C15.3608 19.6765 20.5667 16.8679 25.086 14.0338C29.4586 11.2917 15.9348 18.8114 11.4079 21.2904C10.6073 21.7288 8.37725 22.9155 10.6748 22.0606C13.7102 20.9312 16.3643 18.9546 19.2027 17.4301C20.7703 16.5882 23.4819 15.842 24.7519 14.572C25.9766 13.3474 21.6273 16.0715 20.1121 16.9105C17.0166 18.6245 7.74968 23.7182 11.0459 22.4318C16.2938 20.3839 21.324 17.2438 26.3387 14.6648C26.7387 14.4591 28.7499 13.6363 27.2203 14.3679C24.127 15.8472 21.1653 17.5621 18.2191 19.3139C14.938 21.2648 11.6035 23.1568 8.38271 25.2064C7.64226 25.6776 6.2149 26.4629 7.94657 25.6518C13.5376 23.0333 18.8204 19.8152 24.2694 16.929C24.5396 16.7859 28.2414 14.8575 26.7099 15.435C24.0373 16.4427 21.5989 18.0335 19.147 19.4716C15.7925 21.4392 12.4806 23.4501 9.19003 25.5219C8.79171 25.7727 6.48502 27.2306 8.28991 26.3757C14.2473 23.5537 19.7523 19.8517 25.6984 17.0033C25.8516 16.9299 27.6629 16.0819 27.2945 16.1681C25.2901 16.6372 23.3613 17.9846 21.6154 18.9984C18.6395 20.7263 15.6633 22.499 12.8369 24.4641C12.6296 24.6082 10.2121 26.3412 10.749 26.1622C13.1956 25.3467 15.536 23.8172 17.7644 22.5617C21.0738 20.6973 24.4333 18.8796 27.7028 16.9476C32.111 14.3428 18.8356 22.0738 14.4887 24.7796C13.5832 25.3432 10.8438 26.7287 11.909 26.6726C14.1519 26.5545 17.2968 24.0156 19.1377 22.9608C22.0548 21.2893 24.964 19.5593 27.7956 17.7456C28.4977 17.2959 30.1014 16.2 28.3153 17.1981C23.0774 20.1252 18.0191 23.3273 12.9483 26.5241C9.62238 28.6209 19.9191 22.8825 23.3414 20.9471C25.3727 19.7984 27.308 18.4719 29.3824 17.4023C31.1551 16.4882 30.0401 16.9738 28.9648 17.6343C23.1182 21.2258 17.1767 24.6433 11.148 27.9161C9.94268 28.5704 11.1128 28.133 11.6491 27.8789C14.2619 26.6413 16.6665 24.9308 19.1192 23.4155C21.2796 22.0807 23.5332 20.8683 25.6427 19.4531C26.4444 18.9153 23.5457 20.473 23.3228 20.6037C19.6162 22.7779 8.41938 29.1047 12.3544 27.3778C18.0658 24.8714 23.7891 21.4347 28.9277 17.9127C32.9326 15.1677 20.6166 22.9369 16.5302 25.559C14.322 26.976 11.55 28.343 9.74681 30.3102C9.13472 30.9779 12.3562 29.3062 12.4843 29.2338C17.8247 26.2153 23.0052 22.8628 28.2132 19.6201C29.7341 18.6731 27.3935 19.9461 27.1275 20.1026C24.0321 21.9243 21.0969 23.9947 18.117 25.9952C16.2076 27.277 14.1986 28.4733 12.4286 29.9483C11.3764 30.8251 13.6333 29.5024 13.8205 29.4008C16.9058 27.7275 26.128 22.6532 22.9888 24.2228C19.215 26.1097 15.4269 28.6236 12.0017 31.0897C9.65025 32.7828 17.1151 28.3624 19.676 27.0067C20.5594 26.539 19.8131 26.7268 19.3326 27.0067C18.0698 27.7423 16.8771 28.6091 15.6486 29.4008C12.5447 31.4011 17.6653 28.8985 18.4511 28.5007C20.0407 27.6958 21.7331 26.8655 19.2213 28.1573C19.0202 28.2608 17.7351 28.9931 18.0428 28.7791C19.4185 27.8221 20.758 26.8258 22.0979 25.8189C24.0447 24.3559 25.8887 22.7624 27.8234 21.2812C28.035 21.1192 29.7646 19.6587 28.4637 20.214C25.0487 21.6716 15.3815 27.2073 18.7944 25.7446C21.8586 24.4314 24.667 22.5369 27.675 21.0956C29.2108 20.3597 26.9768 21.8465 26.7377 21.9957C24.666 23.2891 22.5578 24.5267 20.5204 25.8746C20.2906 26.0266 18.1692 27.1609 19.3697 26.784C21.1714 26.2183 22.846 25.2531 24.4921 24.3434C25.218 23.9422 26.5414 23.4355 27.1275 22.8494C28.0805 21.8964 24.7513 24.1267 23.6105 24.8445C22.2884 25.6764 17.1896 28.8601 21.6154 26.6726C23.595 25.6942 25.5304 24.6332 27.3966 23.4526C28.7465 22.5986 26.7749 23.8402 26.4965 24.0186C25.0068 24.973 23.4896 25.8818 21.968 26.784C21.7898 26.8896 19.8994 28.1171 20.938 27.6284C22.7915 26.7562 28.0953 23.6421 26.3387 24.696C24.5077 25.7947 18.9614 28.8965 20.9844 28.213C23.4535 27.3789 29.9648 23.0183 27.9626 24.6868C25.7753 26.5095 22.927 27.6572 20.5018 29.1224C18.4793 30.3443 24.7099 26.9708 26.7934 25.856C30.1504 24.0597 24.2532 27.2502 23.5456 27.6748C22.7194 28.1705 21.9053 28.6857 21.0772 29.1781C20.62 29.4499 19.274 29.7957 19.7409 30.0504C20.3072 30.3593 23.1798 28.2257 23.7219 27.9253C24.0961 27.718 27.1992 26.0762 27.5172 26.3942C27.7746 26.6516 26.852 26.6904 26.5243 26.8489C25.6572 27.2685 24.8193 27.7245 24.0003 28.2316C23.2117 28.7197 20.7508 29.6384 21.6711 29.7534C22.3021 29.8323 23.8141 28.7491 24.3436 28.4728C25.3295 27.9585 26.3021 27.4645 27.3502 27.0902C28.0476 26.8411 26.0425 27.7865 25.4015 28.1573C24.4735 28.6942 20.8609 30.7959 23.9167 29.4194C26.2466 28.3699 27.4004 27.858 24.3622 29.6049C24.2278 29.6822 22.3493 30.7964 22.3578 30.802C22.5372 30.9216 24.1393 29.9013 24.3065 29.8277C27.6585 28.3505 24.8282 29.4908 23.3321 30.403C20.7057 32.0045 24.0534 29.7535 24.6962 29.0946C26.8241 26.9135 24.6218 26.9105 22.5619 27.285C22.3184 27.3293 19.4043 27.6908 19.4347 27.5542C19.5971 26.8233 22.2257 25.5431 22.7475 25.1693C24.5015 23.9129 26.3291 22.7188 27.9812 21.3276C28.311 21.0498 29.3679 20.2569 28.3617 20.3161C27.249 20.3815 23.2202 21.8527 25.5778 19.5644C26.4701 18.6984 27.7304 17.7931 28.0833 16.5578C28.1358 16.3741 29.1904 15.8654 28.9834 15.8062C28.5069 15.6701 27.721 16.1404 28.7421 15.6299C29.0068 15.4975 30.074 15.0142 29.2154 15.4721C28.76 15.715 27.298 16.131 27.8142 16.131C28.6746 16.131 31.0051 14.8413 30.2083 15.1659C29.824 15.3225 27.3202 16.5203 28.7792 16.2609C29.8589 16.069 30.6407 15.7021 29.2618 16.5393C27.7219 17.4742 29.9447 16.4884 30.7094 16.6414C30.8019 16.6599 27.7373 18.1907 29.8093 17.56C31.2071 17.1346 28.4637 18.6291 28.1853 18.7849C27.2119 19.3301 29.7111 18.1486 30.0413 18.1354C30.118 18.1323 26.9298 19.7932 28.9092 18.8035C30.224 18.1461 32.4916 17.0111 29.8557 18.5437C27.2635 20.0508 29.5642 18.8597 30.9692 18.2653C32.3538 17.6795 28.0792 19.3736 27.0161 20.4367C26.3072 21.1456 30.6949 18.8425 29.7629 19.2118C29.3208 19.387 25.7185 21.4913 27.2388 20.9749C27.7505 20.8012 30.1519 19.1649 28.7792 20.2326C27.9389 20.8862 27.1215 21.7765 28.6493 20.7986C30.8546 19.3872 28.6275 21.0129 27.5636 21.5595C26.7037 22.0015 25.7102 22.4107 25.0117 23.1092C24.364 23.7569 26.6165 22.2234 27.443 21.8287C28.8349 21.1639 31.5925 19.5038 28.5101 21.2162C27.4593 21.8 25.4918 22.9338 27.8513 21.8658C28.5751 21.5381 31.34 20.0271 29.3175 21.476C27.3949 22.8534 31.237 20.6409 31.8044 20.6409C32.9782 20.6409 27.7377 22.572 28.9092 22.6453C30.2331 22.728 29.2712 23.0424 28.2689 23.6938C27.6869 24.0722 29.8528 22.6919 30.2918 22.4968C30.6287 22.347 29.6522 22.8639 29.336 23.0536C28.8609 23.3386 27.8272 24.4208 27.8884 23.8702C27.9477 23.3363 30.2624 22.3297 30.2083 22.3483C29.7345 22.5117 27.2488 23.9924 28.5937 23.1278C29.4313 22.5893 31.6144 21.4793 29.4103 22.237C27.0002 23.0654 30.7584 21.4689 31.4518 21.077C32.191 20.6592 31.3433 20.9136 31.0063 21.0492C29.7713 21.546 28.5325 22.2121 27.4151 22.9329C26.1562 23.7452 30.3106 21.8002 31.3033 20.678C31.4372 20.5266 29.7086 21.0316 29.4567 21.1605C28.9511 21.4192 28.4397 21.662 27.9255 21.9029C27.5146 22.0954 26.7006 22.9505 26.7006 22.4968C26.7006 22.1264 29.913 20.6409 29.6701 20.6409C28.1274 20.6409 30.2766 20.1635 30.8579 19.5459C31.0926 19.2965 30.1954 19.7239 29.8742 19.8428C29.3866 20.0234 30.1725 19.7367 30.3197 19.6387C31.5543 18.8155 30.6933 19.2906 29.8464 19.6294C29.2116 19.8833 32.3961 18.8153 31.8601 19.2396C31.5885 19.4547 28.7108 20.8841 29.865 20.7986C30.6151 20.7431 32.7682 19.6153 32.4725 19.6758C31.71 19.8317 28.5573 21.8379 30.4124 20.4738C30.9802 20.0563 32.3223 18.8208 30.8022 19.3974C28.804 20.1553 31.3155 18.8835 31.7765 18.3302C32.1428 17.8907 30.6811 18.6843 30.1805 18.9613C30.0392 19.0394 28.7058 19.9549 28.5194 19.7686C28.4692 19.7184 30.0031 18.6704 30.1341 18.5622C30.2368 18.4773 31.0923 17.7334 30.6723 17.8384C29.0417 18.2461 24.8254 20.9571 26.0139 19.7686C27.2485 18.5341 31.6916 15.7975 30.0784 16.4651C26.9258 17.7696 24.2836 20.6492 21.2535 22.3019C19.1913 23.4268 25.4162 20.1231 27.5172 19.0726C32.0536 16.8044 18.7245 24.1312 14.368 26.7283C14.2075 26.824 11.4752 28.379 13.0225 27.7676C14.7917 27.0685 16.5214 26.3049 18.2005 25.4106C19.077 24.9437 20.0821 24.5614 20.9102 24.0094C21.8344 23.3932 18.9119 24.9828 17.9407 25.5219C16.1383 26.5224 14.3571 27.4965 12.642 28.6399C12.0856 29.0109 11.1723 29.6266 12.4286 29.0111C13.047 28.708 17.8122 26.1495 16.1033 26.5612C14.1274 27.0374 8.61396 29.724 10.4799 28.9183C11.5175 28.4702 14.4533 26.5813 14.4052 26.5984C13.6991 26.8489 9.49088 28.8514 12.1038 27.5727C12.6639 27.2986 15.2173 25.6002 13.3009 26.5241C12.9057 26.7146 9.85628 27.95 11.4821 27.2479C13.288 26.4681 12.1383 26.8541 11.0274 27.2387C9.17007 27.8816 11.9695 26.8557 12.54 26.5705C13.2321 26.2245 10.0507 27.6964 9.41274 28.0553C8.70186 28.4551 10.9196 27.4271 11.6491 27.0623C11.774 26.9999 13.5236 26.2514 13.5236 26.0787C13.5236 25.6277 12.7138 26.4764 12.3173 26.6912C11.5339 27.1155 9.74841 28.7525 9.92312 27.8789C10.0152 27.4184 13.4154 25.6458 10.814 26.784C10.3153 27.0021 9.52138 27.7861 8.99516 27.7861C8.13572 27.7861 10.4808 26.9216 11.2223 26.487C13.8728 24.9332 9.77528 26.7223 8.95804 27.1923C4.94176 29.5016 14.4016 24.1336 10.7583 25.8282C10.2415 26.0685 7.46803 27.1192 9.44058 26.4963C11.1698 25.9502 10.279 26.4439 9.06012 26.7283C7.56231 27.0778 9.08093 26.7587 9.71897 26.5241C9.92056 26.45 11.0222 26.0242 10.2572 26.422C9.81572 26.6516 8.5169 27.2755 9.01372 27.2479C9.32727 27.2305 12.3058 25.9408 11.3336 26.4963C10.2097 27.1385 8.3962 28.1792 10.7212 27.1459C13.3914 25.9591 10.6301 27.3192 9.57049 27.7861C8.62225 28.204 13.3279 26.0792 12.4657 26.654C11.9625 26.9895 9.60414 28.0832 9.60761 28.0831C10.3795 28.0604 12.0054 27.0352 10.4613 28.0645C8.13206 29.6174 10.6052 28.2362 11.677 27.6748C14.6169 26.1348 10.8439 28.1401 9.87672 28.6492C7.59679 29.8491 9.95256 28.8412 10.9068 28.3244C13.6054 26.8626 11.3975 28.3372 10.0716 28.6213C8.56051 28.9451 15.3103 25.8189 13.7649 25.8189C13.1472 25.8189 9.63518 27.9508 11.4357 27.0159C15.232 25.0448 18.6957 22.2069 22.2557 19.8335C23.6566 18.8996 19.2403 21.3358 17.7737 22.1627C16.3847 22.9458 14.597 23.5141 13.3566 24.529C10.5766 26.8035 19.7564 21.251 22.8217 19.3788C23.2729 19.1033 25.3022 17.9345 23.6384 18.7664C21.0796 20.0458 18.5879 21.451 16.1033 22.868C15.7994 23.0413 13.7194 24.4644 13.7834 24.4455C16.1359 23.7505 18.4567 22.2478 20.6503 21.1791C22.1752 20.4362 23.7173 19.7291 25.2344 18.9705C26.6769 18.2493 22.3958 20.5027 20.9937 21.2997C19.1184 22.3656 17.2169 23.4027 15.4352 24.6218C14.0427 25.5746 13.6526 26.0028 15.528 25.1693C19.1222 23.5719 29.8022 18.6003 26.3851 20.5481C23.9677 21.926 21.6489 23.4663 19.2305 24.8445C18.3984 25.3188 17.2981 25.7697 16.623 26.487C15.8367 27.3225 18.8185 25.7878 19.843 25.2714C21.6493 24.3609 24.0391 23.4891 25.6427 22.2555C28.4336 20.1087 19.4879 25.6973 16.2704 27.1273C13.3492 28.4256 21.8624 24.0237 24.5849 22.3483C24.8225 22.2021 26.8084 20.8986 25.4015 21.2533C23.0648 21.8424 20.8184 23.0891 18.6459 24.1114C18.5068 24.1769 16.4962 25.1302 17.3653 24.3713C19.6527 22.3738 22.3563 20.7467 24.7983 18.9427C25.7686 18.2259 26.8175 17.5359 27.675 16.6785C27.7495 16.604 24.3969 17.5762 23.7868 17.8384C21.8396 18.6754 19.7555 19.4204 17.9407 20.5295C17.0135 21.0961 19.8328 19.4601 20.7617 18.8963C22.6729 17.7363 24.6215 16.726 26.58 15.6577C28.4706 14.6265 25.1021 16.0207 24.7705 16.1681C21.7426 17.5138 12.8531 21.8449 16.0291 20.9007C18.1241 20.2778 23.8926 17.0842 21.8938 17.9683C19.9445 18.8305 18.1713 20.0188 16.2518 20.9378C15.1864 21.4479 12.178 23.2114 13.0132 22.3761C13.7646 21.6248 17.0082 20.9246 16.0105 21.2904C14.3214 21.9098 12.7427 22.8072 11.2408 23.7866C9.64766 24.8257 11.5225 23.6118 12.1131 23.2948C13.5348 22.5317 15.0317 21.8914 16.4374 21.1048C17.6355 20.4345 14.2322 21.7498 13.9412 21.8751C13.406 22.1053 9.12163 24.4236 11.677 23.2763C12.2241 23.0306 17.186 20.3149 14.6279 21.4389C12.6375 22.3135 10.7797 23.4576 8.80957 24.3713C8.17838 24.664 10.2514 23.6997 10.5263 23.5732C10.9668 23.3706 16.7612 19.8285 16.7343 19.8057C15.878 19.0778 12.2902 21.2664 11.4728 21.6338C10.2665 22.1759 6.88299 24.1472 7.84449 23.2391C9.42327 21.7481 15.6938 19.9695 13.5236 20.047C12.3906 20.0874 11.0003 20.9479 9.95096 21.309C9.34145 21.5187 7.34434 22.7254 6.67526 22.571C5.7264 22.3521 8.21207 21.3699 9.03228 20.845C9.87596 20.3051 12.5275 19.5951 11.5842 19.2582C10.3913 18.8322 7.96032 20.1157 6.86085 20.4924C4.69845 21.2334 8.41637 19.0493 8.81885 18.7942C10.3921 17.7973 12.0333 16.9455 13.6535 16.0382C15.085 15.2366 10.6498 17.3867 9.26427 18.2653C8.2025 18.9386 7.42365 19.596 9.16219 18.8221C11.1808 17.9234 13.1773 16.8815 15.1382 15.8619C16.4313 15.1895 17.725 14.4877 18.98 13.7461C20.1396 13.0609 16.6353 15.0741 15.4352 15.6856C11.2323 17.8271 17.8033 14.5796 18.8872 14.0338C19.5792 13.6853 21.5322 12.4837 20.9844 13.0316C19.9855 14.0305 18.6181 14.8504 17.4489 15.6299C17.1569 15.8245 13.9096 17.8088 15.361 17.1889C17.5219 16.2657 19.5948 14.9823 21.6618 13.8668C21.7322 13.8288 23.2685 12.9762 22.6362 13.4306C20.6389 14.8661 18.3368 15.8978 16.2147 17.1332C14.7536 17.9838 13.3272 18.8835 11.9739 19.8985C10.7536 20.8137 14.6537 18.4405 15.992 17.7085C18.019 16.5997 20.1143 15.6695 22.1072 14.4885C22.4388 14.292 25.4129 12.5315 23.6569 13.4028C20.5835 14.9278 11.4846 19.705 14.6557 18.3952C17.6868 17.1432 20.4968 15.3345 23.5363 14.108C25.0065 13.5148 23.1037 14.2821 22.7289 14.4978C21.7596 15.0556 20.8855 15.7531 19.8523 16.1959C18.117 16.9396 23.5494 15.0815 25.0396 13.9224C26.5107 12.7783 18.902 17.7559 19.9358 16.2052C20.025 16.0714 24.1808 13.5066 23.4342 13.6997C22.1908 14.0213 21.0222 14.8368 22.8217 13.6255C24.9164 12.2156 21.887 14.1241 21.1885 14.4978C20.926 14.6383 18.7396 15.6972 19.2769 15.3051C20.4784 14.4284 21.8217 13.6921 23.063 12.8646C26.5249 10.5566 22.3081 12.7144 20.8545 13.4306C17.0251 15.3176 20.5947 13.6072 22.2 12.6326C22.7992 12.2688 24.6242 11.3156 23.9353 11.4448C22.5636 11.702 21.0819 13.0334 19.8152 13.6255C19.3676 13.8347 17.056 15.0457 17.3004 14.9154C18.9441 14.0387 20.5213 13.0336 22.1351 12.1036C22.5063 11.8897 24.4246 10.7215 22.8774 11.5654C21.3789 12.3828 19.9129 13.3001 18.4511 14.1823C16.344 15.4538 20.7485 12.5503 21.4669 12.215C23.1963 11.408 20.6767 12.5352 20.2606 12.7532C19.0891 13.3669 17.9622 14.0338 16.8179 14.6926C15.5962 15.396 17.8303 13.9342 17.9778 13.8482C19.5756 12.917 21.1785 11.9051 22.8774 11.1664C24.8807 10.2954 18.8572 12.9056 16.9756 14.0152C16.1152 14.5227 18.6765 12.9663 19.5461 12.4748C20.4036 11.9902 23.1555 11.1778 22.1722 11.12C20.9035 11.0454 17.4381 12.9566 18.581 12.4006C19.8678 11.7746 21.2244 11.3152 22.5062 10.6931C23.0756 10.4168 20.4678 11.4351 20.0935 11.6118C19.2479 12.0111 17.6959 12.4957 17.087 13.2265C16.163 14.3352 19.6246 11.8502 20.9102 11.1942C23.4558 9.89544 21.7355 10.5243 20.2606 11.2406C18.8779 11.9122 17.3779 12.577 16.0662 13.3842C15.2931 13.86 17.6378 12.4753 18.4232 12.0201C19.387 11.4616 22.4825 10.341 21.3741 10.4519C20.7533 10.514 16.2734 12.9578 18.3861 11.8438C19.747 11.1262 21.216 10.6112 22.599 9.93222C23.5308 9.47482 24.6725 8.91734 23.0259 9.83942C22.5428 10.1099 19.1237 11.5302 20.1307 11.417C21.0501 11.3135 21.7468 10.8473 22.599 10.5632C22.9379 10.4503 21.4758 11.1944 21.2535 11.2685C19.2663 11.9309 21.6284 11.2347 22.3021 10.9901C23.0905 10.7039 25.4177 9.75051 24.622 10.0157C23.681 10.3294 22.7863 10.9762 21.8938 11.417C20.9951 11.8608 21.4467 11.6209 22.0423 11.3798C22.7276 11.1025 24.7502 10.2093 24.1116 10.5818C23.5051 10.9356 18.7342 12.9767 21.569 11.9459C22.52 11.6001 23.4217 11.1448 24.325 10.6931C25.3043 10.2035 22.3897 11.7182 21.4391 12.2614C20.5326 12.7794 17.9035 14.4746 18.7387 13.8482C19.8815 12.9911 21.4268 12.5378 22.6918 11.8902C25.3068 10.5516 24.8341 11.0432 22.5805 11.8438C21.1466 12.3532 25.4771 10.8354 25.4572 10.656C25.4555 10.6412 23.1433 11.7475 22.9424 11.8438C22.4175 12.0953 20.9245 13.0049 21.4298 12.7161C22.515 12.096 23.6808 11.5747 24.8261 11.0736C25.5011 10.7783 26.3158 10.4533 25.0674 10.9901C15.946 14.9123 29.7651 7.36184 21.0679 13.4121C20.1742 14.0338 23.0155 12.4386 23.991 11.9552C24.6282 11.6394 26.6646 11.0462 25.9582 11.1293C25.2314 11.2148 19.5261 14.4457 22.5805 13.0316C23.8036 12.4654 25.0297 11.8904 26.2923 11.417C27.085 11.1197 24.551 12.2248 24.325 12.3449C23.5874 12.7369 22.4855 13.238 21.8845 13.8389C21.0518 14.6716 24.0198 12.8451 25.086 12.3449C29.5908 10.2315 24.9635 12.4328 23.3228 13.3657C19.947 15.2853 24.684 12.9838 25.7263 12.4934C26.95 11.9175 21.0024 15.1267 22.2093 14.5163C23.4489 13.8894 24.6251 13.1836 25.9118 12.6511C27.0296 12.1886 23.7933 13.8218 22.7661 14.4607C18.4913 17.1193 23.764 13.9191 25.2344 13.2914C26.6635 12.6815 24.1321 13.9181 23.8889 14.0431C22.9814 14.5094 20.2876 15.9606 21.2071 15.5185C22.2705 15.0073 27.5165 12.3368 23.7868 14.2287C22.5812 14.8402 18.9884 16.7208 20.2049 16.131C21.5912 15.4588 22.9643 14.7699 24.3436 14.0802C27.1817 12.6612 21.6116 15.3011 20.8545 15.6948C19.3419 16.4814 26.9051 12.5523 25.3644 13.2822C24.6892 13.602 23.7414 14.4235 22.9702 14.4235C21.9763 14.4235 24.7283 13.4948 25.5871 12.9945C26.6212 12.3921 26.7925 12.1418 28.1297 11.5654C30.0247 10.7486 24.6093 13.7224 22.8032 14.7205C22.1648 15.0733 24.1395 14.1335 24.789 13.8018C25.1068 13.6395 27.3778 12.3297 26.0325 13.013C25.3327 13.3685 24.6513 13.7545 23.9817 14.1637C23.7276 14.319 22.9476 14.5521 23.23 14.6463C23.7573 14.822 25.4522 13.5523 25.8562 13.3193C27.5298 12.3537 26.0488 13.2607 25.2716 13.7183C24.8512 13.9658 23.1716 14.9567 23.2115 14.9339C24.0949 14.4291 28.6383 12.391 25.5685 14.1452C23.9458 15.0724 22.2881 16.0753 20.5482 16.7713C18.944 17.413 23.7612 15.489 25.3087 14.7205C29.2168 12.7796 24.3923 14.8231 23.1373 15.602C21.4691 16.6375 25.0658 14.6884 25.4386 14.4792C25.623 14.3757 27.4811 13.5733 26.8027 13.709C25.1939 14.0308 26.8401 13.6899 27.1182 13.1337C27.3784 12.6132 26.0438 13.5828 25.4943 13.774C24.8195 14.0087 26.7297 13.0542 27.3687 12.7347C28.0359 12.4011 25.858 13.4255 27.3687 12.5862C27.6929 12.4061 28.5073 12.0807 27.7028 12.5583C27.0856 12.9248 25.2018 13.9545 25.8655 13.6812C26.7794 13.3048 27.5828 12.7143 28.4916 12.3356C29.4601 11.9321 26.741 13.4928 25.8655 14.0709C24.92 14.6952 23.848 15.1827 22.9424 15.8619C22.275 16.3624 24.4524 15.1517 25.1973 14.7762C29.4839 12.6154 25.0335 15.1276 23.3878 15.9176C21.6478 16.7527 30.1997 12.291 28.4545 13.1151C26.9844 13.8093 25.6473 14.7553 24.1951 15.4814C23.3931 15.8824 25.7498 14.5801 26.5707 14.2194C31.024 12.2626 23.911 15.5334 26.0232 14.2751C26.7274 13.8555 27.5363 13.4638 28.1575 12.9202C28.8125 12.3471 26.5511 13.5999 25.717 13.8482C23.9914 14.3618 29.1656 11.5701 26.9233 12.0294C26.7605 12.0628 25.5533 12.3697 25.6427 12.2892C26.088 11.8885 27.7465 11.1497 27.2481 11.4819C26.5191 11.9679 25.5462 12.3004 24.7519 12.6975C23.8962 13.1254 26.7029 11.6284 27.1924 11.4726C28.2286 11.1429 25.2611 12.477 24.2601 12.9017C23.9659 13.0265 25.6605 12.1177 26.0325 11.9181C26.2218 11.8165 27.972 11.0914 27.0718 11.4077C26.513 11.604 24.5679 12.4261 24.6405 12.382C25.7273 11.7222 27.12 11.5084 28.1204 10.7303C29.3128 9.80281 25.3757 11.9979 24.0467 12.7161C22.6813 13.4539 21.9397 13.7874 23.7775 12.7718C24.8976 12.1528 26.0311 11.6196 27.2203 11.1571C29.1369 10.4118 19.788 14.6653 21.5783 13.6533C23.038 12.8283 24.5142 11.9993 26.0325 11.287C27.1826 10.7475 25.1822 11.4837 24.9189 11.6211C24.314 11.9367 23.6001 12.1982 24.6777 11.6953C25.4199 11.349 27.7171 10.4722 26.9604 10.7859C26.0333 11.1704 24.9621 11.8816 23.991 12.0758C23.0481 12.2644 25.7783 11.3656 26.6635 10.9901C28.0049 10.421 26.5065 10.9488 26.051 11.1571C24.975 11.6493 21.8276 13.2783 22.831 12.6511C24.0007 11.9201 25.3436 11.5294 26.5707 10.9159C27.5096 10.4464 24.3724 11.6973 23.991 11.8809C22.6599 12.5218 21.7017 12.9545 23.5827 11.9552C24.5199 11.4573 27.4889 10.3337 26.4593 10.5911C25.241 10.8957 19.5768 13.5592 23.4899 11.5283C27.2984 9.55172 23.2465 11.6358 21.8567 12.3449C20.7353 12.917 26.3907 10.1542 25.253 10.6931C24.0599 11.2583 22.8348 11.7568 21.6711 12.382C20.7832 12.8591 23.2279 11.4973 23.4806 11.3798C23.7604 11.2498 26.6036 10.004 25.3272 10.5261C24.6134 10.8181 22.0882 11.9069 22.2743 11.8067C23.2167 11.2992 24.1514 10.8758 25.1416 10.4797C26.4254 9.96621 22.6131 11.6013 21.3741 12.215C19.8064 12.9915 22.6225 11.4163 22.9609 11.2221C23.3107 11.0214 25.4425 9.97665 25.0117 10.192C23.5861 10.9049 17.5826 14.2636 21.9866 11.3984C22.388 11.1372 24.4992 9.8484 24.325 9.90438C22.7547 10.4091 21.2697 11.298 19.778 11.9923C18.3289 12.6667 18.3715 12.4284 19.6296 11.7881C20.6333 11.2773 23.7232 9.90989 22.6826 10.3405C21.8189 10.6979 15.7983 13.5949 19.3141 11.6211C20.4262 10.9967 23.8986 9.38655 22.7289 9.8951C21.4928 10.4326 20.2983 11.0226 19.0264 11.4819C17.9679 11.8641 21.1006 10.602 22.0979 10.0807C23.76 9.21187 21.751 10.2762 21.1978 10.5447C20.1451 11.0555 19.0414 11.4698 17.9964 11.9923C16.9463 12.5173 20.157 11.0697 21.2071 10.5447C21.8517 10.2224 23.628 9.38441 21.8845 9.90438C20.8281 10.2195 18.0569 11.9023 18.7944 11.0829C19.4495 10.355 21.1473 10.2391 22.0237 9.71879C22.8072 9.25357 20.0012 10.5668 19.611 10.7303C19.4548 10.7957 17.106 11.9832 18.2283 11.4077C19.6868 10.6598 21.1254 9.88636 22.5619 9.09706C23.3401 8.66946 18.7689 10.9331 19.0357 10.8138C20.502 10.1578 21.9255 9.43833 23.3785 8.76299C23.8081 8.56334 21.5834 9.67912 21.2257 9.85798C20.4813 10.2302 18.2723 10.7645 19.045 11.0736C19.6147 11.3015 21.9237 10.0403 22.5248 9.78375C23.8353 9.22437 21.329 10.5767 21.0493 10.7303C19.7164 11.4621 22.5186 10.061 22.8403 9.91366C26.5745 8.20334 21.5201 10.9363 20.4369 11.5005C19.5283 11.9737 23.3866 10.2441 23.991 9.96934C25.6296 9.22453 23.1899 10.4389 22.9517 10.554C21.9061 11.0591 18.7705 12.5258 19.8894 12.215C21.2346 11.8413 22.5074 11.1873 23.8239 10.721C26.3674 9.82017 19.6419 12.3821 22.8681 10.9994C23.4437 10.7527 25.2943 9.76224 25.2623 9.77447C24.045 10.2399 22.9571 10.9971 21.6896 11.3427C20.8334 11.5762 23.3177 10.6336 24.1487 10.322C25.0802 9.97266 22.7435 10.9529 22.6176 11.0087C19.4945 12.3914 25.3906 10.3078 25.253 9.8951C25.1799 9.67594 24.8368 10.0958 24.6313 10.2013C24.1376 10.4548 23.6104 10.6236 23.1094 10.8602C22.1025 11.3356 24.6586 10.337 24.9189 10.2292C25.8176 9.85697 22.7058 11.2292 25.8655 9.79303C28.3251 8.67502 23.1871 11.1316 24.9561 10.424C25.2819 10.2937 27.4815 9.38521 26.9233 9.72807C25.5327 10.5823 23.974 11.1261 22.5898 11.983C21.3589 12.745 28.0117 9.99865 26.5985 10.3127C25.598 10.535 20.963 12.7096 24.5849 11.3613C24.9315 11.2323 27.5718 10.2458 25.8655 10.8416C24.1861 11.4281 22.6139 12.2357 20.9658 12.8831C19.2997 13.5377 23.6861 11.1002 21.4948 12.5769C20.6478 13.1477 19.1033 13.6232 18.4418 14.3864C17.8428 15.0775 20.1682 13.7762 21.0029 13.4028C21.8241 13.0354 19.0303 14.6699 18.7573 14.8133C17.4761 15.4862 14.3202 16.5423 13.6164 17.9498C12.9204 19.3417 16.6079 17.0677 18.0428 16.4651C19.2328 15.9652 21.2084 15.0656 18.9243 16.298C18.0214 16.7852 17.1278 17.2898 16.2332 17.792C15.4945 18.2068 13.1961 19.0819 14.0433 19.0819C14.6098 19.0819 15.009 18.489 15.4909 18.1911C17.058 17.2222 18.6288 16.2562 20.2235 15.3329C22.8577 13.8079 18.8039 15.6596 18.1077 15.9732C16.5355 16.6814 12.1001 19.1505 13.3194 17.9312C13.7881 17.4626 19.211 13.7122 18.8872 13.6441C18.3207 13.5248 17.12 14.0459 16.6601 13.7554C16.5514 13.6868 18.9555 12.1067 19.212 11.9737C19.8085 11.6644 20.9649 11.387 21.3556 10.7859C21.4542 10.6342 21.2989 10.3719 21.4948 10.2848C21.5886 10.2431 22.7805 9.71495 22.4691 9.62599C20.4768 9.05675 18.3842 7.3912 16.2147 8.0763C13.889 8.81072 10.9223 11.1234 10.4613 13.6255C9.85238 16.9313 12.4303 12.1131 12.3729 13.6626C12.3503 14.2748 11.3441 14.6066 11.213 13.8853C11.0618 13.054 11.5451 12.2955 11.8626 11.5654C12.7102 9.61577 15.5177 8.20601 17.5602 8.61452C18.2178 8.74603 20.7935 10.9373 21.1885 10.5818C22.0169 9.83623 23.2847 8.87413 24.5106 9.15274C26.7385 9.65906 27.7399 11.1238 27.7399 13.2636C27.7399 13.6919 27.1501 14.7746 27.4987 14.5256C27.9152 14.2281 28.4973 13.4184 28.5658 12.9388C28.9021 10.5848 28.5373 9.38074 26.1624 8.52172C24.1979 7.81117 22.6314 8.74448 20.9751 9.78375C18.72 11.1987 20.2157 10.1733 21.4205 9.5332C24.1947 8.05943 27.4346 8.36562 28.3338 11.751C28.4098 12.0372 28.6605 14.2936 28.074 14.2936C27.4796 14.2936 27.1636 12.875 26.9419 12.4563C25.7646 10.2325 24.3087 10.9711 22.3206 10.6096C21.1031 10.3883 21.9185 9.1363 20.8081 8.6238C18.2194 7.42905 16.1238 7.99558 13.8391 9.65383C12.4686 10.6485 11.6547 11.8083 11.909 13.5884C11.9694 14.0114 12.2059 15.142 12.2059 14.1266C12.2059 13.2072 11.8873 11.376 12.4564 10.554C13.9437 8.40577 17.1143 7.19077 19.3512 8.91147C20.3131 9.65137 21.7082 12.8996 21.7082 11.6861C21.7082 10.8705 20.7462 9.95016 20.3719 9.26409C18.5834 5.98513 13.8433 7.74248 12.308 10.4519C11.4729 11.9256 12.3935 13.469 12.0389 14.8875C12.0056 15.0206 10.5764 13.269 10.4985 12.9574C9.74309 9.9359 13.897 7.58178 16.4374 8.24334C17.3879 8.49086 18.7613 9.76519 19.6203 9.76519C19.841 9.76519 17.9748 7.49368 17.3561 7.29682C13.0393 5.9233 10.294 10.6795 11.7883 14.2658C12.1043 15.0242 11.3446 12.6775 11.2408 11.8624C11.0404 10.2874 12.5081 8.75288 13.8762 8.31757C15.0983 7.92872 17.5392 8.37138 18.3397 9.50536C18.4363 9.64222 16.967 8.81483 16.623 8.70732C15.1944 8.26089 14.6104 8.54559 13.4865 9.43112C12.4145 10.2757 11.8718 11.4347 11.8718 12.7903C11.8718 13.9591 11.9421 13.2663 12.8926 12.7532C19.8555 8.99447 11.4124 14.7798 11.909 14.9803C13.6043 15.665 17.8859 12.7455 19.4625 12.1315C20.2634 11.8196 20.566 11.7843 19.6852 12.4377C18.0846 13.6253 16.367 14.6391 14.6 15.5557C11.9124 16.9497 13.8674 15.9804 15.3795 15.2587C17.0485 14.4621 21.8601 11.7105 20.1678 12.4563C16.9542 13.8724 13.9241 15.6747 10.6655 17.0033C8.7079 17.8014 14.4528 15.1186 16.2889 14.0709C17.4166 13.4275 21.4231 11.1037 17.6809 13.1801C16.4818 13.8454 9.20448 17.2869 14.4608 15.6577C15.3488 15.3825 22.6878 12.6131 19.7409 15.3886C19.5192 15.5974 15.3223 18.717 17.4117 18.2839C18.6444 18.0283 19.8536 17.5645 21.0586 17.2074C21.6897 17.0204 23.2829 16.2428 22.9981 16.8362C22.0892 18.7297 18.7481 19.0502 17.4581 20.6223C16.312 22.0192 23.9271 17.5692 22.5341 18.72C20.9699 20.0122 18.3122 20.9174 17.1426 22.6267C16.7782 23.1594 18.3973 22.3164 19.0078 22.107C20.3727 21.6391 21.7558 21.1053 23.1651 20.7801C24.7897 20.4052 20.5677 22.8861 19.147 23.7588C17.8798 24.5372 21.7335 22.2897 23.0445 21.5874C23.9938 21.0788 21.8792 21.6111 21.5597 21.6431" stroke="black" stroke-width="2" stroke-linecap="round" stroke-linejoin="round"/>
<path d="M7.02789 10.6189C6.12024 11.0917 4.05902 12.551 4.09554 11.5283C4.1117 11.0759 4.71054 10.7772 5.06062 10.656C5.48594 10.5088 7.35271 10.1853 7.06501 11.2128C6.3228 13.8636 3.79305 10.6556 6.68455 10.2941C7.71932 10.1648 4.85987 11.2346 5.89578 10.9159C7.38575 10.4574 6.01913 14.041 5.26477 12.4192C4.21135 10.1543 7.19436 10.7272 6.8423 11.6954C6.3497 13.05 3.50849 9.48682 6.3412 9.48682C7.85487 9.48682 6.70531 13.2465 5.30189 11.9366C4.2219 10.9286 7.12689 9.3723 6.75878 11.2128C6.25916 13.7109 4.01266 12.0954 5.35757 10.489C6.78025 8.7897 7.80891 13.1993 5.76587 12.382C3.18867 11.3512 7.68796 9.50922 6.76806 11.6118C6.00601 13.3537 3.92973 10.6703 6.0257 10.4797C8.17617 10.2842 6.07005 13.1975 5.5246 12.6233C3.89587 10.9089 7.06302 9.87538 7.02789 11.4912C6.96374 14.4423 4.64789 11.1739 6.15561 11.12C6.65617 11.1021 7.14643 11.2799 6.53607 11.5469C5.98663 11.7873 6.7738 10.9624 7.02789 10.2849" stroke="black" stroke-width="2" stroke-linecap="round" stroke-linejoin="round"/>
<path d="M14.0019 23.3824H16.1799C16.4769 23.3824 16.8289 23.0964 16.8289 22.7334C16.8289 22.5134 16.6859 22.3264 16.3779 22.3264H15.9049L17.1919 16.5734C17.2469 16.3314 17.0599 16.1554 16.7739 16.1554C16.6199 16.1554 16.4549 16.2434 16.3229 16.3534L14.7829 17.7174C14.6839 17.8054 14.5519 17.9924 14.5519 18.1684C14.5519 18.4104 14.7279 18.5974 14.9809 18.5974C15.1129 18.5974 15.2669 18.5534 15.3989 18.4434L15.8499 18.0584L14.8819 22.3264H14.2219C13.8919 22.3264 13.5729 22.6344 13.5729 22.9754C13.5729 23.2064 13.7379 23.3824 14.0019 23.3824ZM19.0222 23.4594C19.2972 23.4594 19.5942 23.2394 19.6602 22.9424L20.4962 18.9714H21.4312C21.7392 18.9714 22.0802 18.7074 22.0802 18.3664C22.0802 18.1244 21.9152 17.9704 21.6622 17.9704H20.7272L20.9802 16.7714C21.0352 16.5074 20.8922 16.2324 20.5622 16.2324C20.2762 16.2324 19.9792 16.4964 19.9242 16.7714L19.6712 17.9704H18.7692C18.4282 17.9704 18.0872 18.2344 18.0872 18.5534C18.0872 18.7844 18.2522 18.9714 18.5162 18.9714H19.4402L18.6042 22.9424C18.5492 23.2174 18.7472 23.4594 19.0222 23.4594Z" fill="white"/>
<path fill-rule="evenodd" clip-rule="evenodd" d="M35.8469 2.70255C36.4235 3.29738 36.4088 4.24701 35.8139 4.82361C34.3147 6.27696 32.8092 7.7176 31.3068 9.15538C25.3095 14.8945 19.36 20.5879 14.0413 26.8612C12.2606 28.9614 10.3985 30.9982 8.56595 33.0026C8.32313 33.2682 8.08083 33.5332 7.83931 33.7977C7.68172 33.9703 7.22692 34.3738 6.77625 34.7719C6.47185 35.0408 6.11602 35.3532 5.74594 35.6781C5.51106 35.8844 5.27044 36.0956 5.0336 36.304C4.41824 36.8453 3.82555 37.3696 3.39387 37.7624C3.17565 37.9609 3.01231 38.1134 2.91094 38.2131C2.90834 38.2157 2.90584 38.2181 2.90343 38.2205C2.85587 38.2871 2.80222 38.3506 2.74248 38.4103C2.15669 38.9961 1.20694 38.9961 0.621156 38.4103C0.000804722 37.79 0.208566 37.0352 0.240521 36.9249C0.299112 36.7228 0.387297 36.58 0.415384 36.5351C0.485626 36.4226 0.55898 36.3374 0.586676 36.3054C0.657468 36.2238 0.739338 36.1411 0.80714 36.0744C0.95211 35.9318 1.15117 35.747 1.37499 35.5433C1.82741 35.1317 2.4374 34.5923 3.05205 34.0515C3.29442 33.8383 3.53714 33.6252 3.77252 33.4186C4.13923 33.0966 4.4881 32.7903 4.79005 32.5236C5.03728 32.3052 5.24708 32.1185 5.40424 31.9763C5.51692 31.8743 5.57972 31.8153 5.60796 31.7888C5.62592 31.772 5.6299 31.7683 5.62385 31.7749C5.86692 31.5087 6.10988 31.2429 6.35259 30.9774C8.18922 28.9685 10.0113 26.9755 11.753 24.9211C17.1831 18.5165 23.2764 12.6863 29.2852 6.93693C30.7744 5.51201 32.2584 4.09206 33.7259 2.66955C34.3207 2.09295 35.2703 2.10772 35.8469 2.70255ZM2.74248 36.289C3.01893 36.5655 3.12992 36.8685 3.1655 37.1282C3.11989 36.8211 2.97887 36.5254 2.74248 36.289Z" fill="black"/>
<path fill-rule="evenodd" clip-rule="evenodd" d="M4.07638 1.13002C4.81041 0.745983 5.71679 1.02972 6.10082 1.76375C7.31648 4.08735 9.03366 5.96483 11.0011 7.80461C11.6736 8.43348 12.3999 9.0781 13.1452 9.73961C14.4997 10.9419 15.9172 12.2001 17.1891 13.5209C21.8506 18.3616 26.2426 23.4526 30.6019 28.5057L30.8702 28.8166C31.022 28.9927 31.1742 29.1699 31.3268 29.3475C32.8404 31.1099 34.3922 32.9166 36.0386 34.0564C36.4208 34.321 36.7695 34.7174 37.0224 35.0353C37.0859 35.1031 37.1439 35.1777 37.1954 35.259C37.4549 35.6034 37.686 35.9511 37.84 36.1988C37.9158 36.3207 38.0015 36.4639 38.0594 36.5807L38.0598 36.5814C38.0715 36.605 38.1108 36.6841 38.1453 36.7838L38.1464 36.787C38.1577 36.8192 38.2162 36.9858 38.2276 37.203C38.2323 37.2933 38.2472 37.6313 38.048 37.9985C37.9331 38.2103 37.745 38.4334 37.4643 38.5913C37.1875 38.747 36.9111 38.7884 36.6953 38.7837C36.3176 38.7753 36.0526 38.6261 35.9793 38.584C35.8726 38.5227 35.7962 38.4612 35.7587 38.4296C35.6813 38.3645 35.6266 38.3051 35.6053 38.2816C35.5559 38.2271 35.517 38.1768 35.4976 38.1512C35.3682 37.9812 35.1184 37.6006 34.7237 36.9653C34.6256 36.8393 34.534 36.7304 34.4541 36.6446C34.3821 36.5673 34.3411 36.5322 34.3311 36.5236C34.3279 36.5209 34.3279 36.5209 34.3309 36.523C32.344 35.1475 30.5313 33.0312 29.0698 31.3251C28.9084 31.1366 28.7513 30.9532 28.5987 30.7763L28.3531 30.4917C23.9776 25.4199 19.632 20.3827 15.0282 15.6018C13.8224 14.3496 12.5816 13.2505 11.2989 12.1141C10.5321 11.4348 9.7503 10.7423 8.95205 9.99583C6.89115 8.06865 4.88907 5.91917 3.44264 3.15446C3.05861 2.42042 3.34234 1.51405 4.07638 1.13002Z" fill="black"/>
</svg>
