<svg width="53" height="81" viewBox="0 0 53 81" fill="none" xmlns="http://www.w3.org/2000/svg">
<g id="treeIcon">
<path id="Vector 244" d="M21.8434 2.99199C18.8491 9.73103 14.2096 15.5614 10.1615 21.8734C10.1189 21.9399 13.6053 21.6595 14.2031 21.5949C19.2134 21.0536 24.1044 20.5594 29.1514 20.3049C31.6582 20.1784 34.3607 20.7267 36.8286 20.3782C38.3101 20.169 37.6612 19.6044 36.884 18.8682C34.4237 16.5381 32.7698 13.8902 30.5725 11.4505C28.6512 9.31739 26.5394 7.40413 24.7408 5.19092C23.7107 3.9235 22.8627 2.47436 21.9264 1.15223C21.4272 0.447302 23.0442 2.41361 23.126 2.51556C25.2917 5.21409 26.4502 8.31946 28.5332 11.0474C30.8984 14.1449 33.7695 16.953 36.275 19.9384C37.0618 20.8758 37.6715 21.9212 38.4434 22.841C40.9382 25.8136 33.6868 16.7763 31.2922 13.7521C28.6328 10.3933 26.2872 6.9056 23.7073 3.51974C23.3653 3.07094 22.8828 2.21714 22.8399 1.67264C22.7948 1.09952 22.7543 2.82118 22.6369 3.3878C21.7019 7.90143 18.1559 12.5632 15.4765 16.5374C13.7315 19.1256 7.78159 26.5365 10.0508 24.219C11.8071 22.4253 11.829 22.6271 14.9505 22.4525C20.5643 22.1384 26.2774 21.8695 31.9012 21.7342C33.6307 21.6925 35.0528 21.5591 36.7087 21.8514C36.8641 21.8789 38.6554 22.1884 37.8436 21.6609C35.4141 20.0819 29.8187 21.7648 27.2137 22.0493C25.2087 22.2683 23.2898 22.5185 21.262 22.5185C19.9626 22.5185 18.3039 22.2043 17.0544 22.4525C16.2831 22.6057 18.503 22.6578 19.0198 22.4525C20.7826 21.7523 18.1438 22.619 18.0971 22.4891C18.0349 22.3163 17.7832 22.8785 17.9863 22.753C18.3084 22.554 18.0362 22.6188 18.3554 22.753C18.7375 22.9137 19.248 22.8746 19.0567 22.753C18.1228 22.1595 14.0994 29.2141 13.7879 29.7822C11.7108 33.5709 10.0959 37.7135 7.65168 41.3193C7.08503 42.1552 6.95145 42.0966 7.91004 41.8543C10.8286 41.1167 14.9681 41.1389 17.9863 41.1214C25.0166 41.0806 32.3502 40.5146 39.3569 41.1507C40.3437 41.2403 42.1843 41.5371 43.1032 41.1507C43.5526 40.9617 42.1427 39.7003 41.9406 39.5088C39.136 36.8526 37.4132 33.5017 34.8355 30.6985C32.7315 28.4103 31.786 26.0591 30.6094 23.442C30.4932 23.1836 29.6126 20.9643 30.7755 21.8881C32.472 23.2357 33.4903 25.4899 34.6417 27.1362C36.036 29.1298 37.8849 31.0248 39.4584 32.9414C40.9146 34.7149 42.202 36.6025 43.6845 38.3434C44.3262 39.0968 44.9636 39.8287 45.4285 40.6596C45.7495 41.2332 39.7087 40.1675 38.914 40.0659C30.0707 38.9348 20.9587 39.9339 12.0439 39.9339C10.4387 39.9339 8.72206 40.0659 7.19031 40.0659C6.16676 40.0659 3.32473 40.9894 4.34828 40.9894C6.17276 40.9894 8.61775 38.4552 9.55251 37.4858C12.336 34.5992 14.239 30.9195 16.4361 27.7299C17.6752 25.9312 19.3189 23.9054 20.2563 21.9907C21.4934 19.4637 16.3362 26.432 14.4892 28.7121C11.2506 32.7099 7.85054 36.8474 5.16951 41.1067C4.80772 41.6815 6.02405 41.0906 6.65512 40.9235C8.65833 40.393 11.2074 40.5889 13.2988 40.3957C16.8856 40.0644 20.5089 39.9956 24.0948 39.6701C29.6722 39.1637 35.5234 39.2743 41.1101 39.2743C41.5334 39.2743 42.6581 39.4226 42.974 39.1716C43.8435 38.481 40.7407 38.7917 40.4273 38.8125C35.7549 39.1218 31.1249 39.9087 26.4571 40.3151C23.8531 40.5418 20.9991 41.1914 18.3647 40.9821C17.3951 40.9051 16.3685 40.7413 15.7718 40.1318C15.3815 39.7333 14.2041 40.7356 13.834 41.0187C11.4972 42.8062 9.74826 45.0987 8.1315 47.337C5.96902 50.3308 3.13172 52.8466 1.21097 55.8981C1.13543 56.0182 0.267208 57.0662 0.712696 57.0269C1.67077 56.9424 2.5848 56.8217 3.61009 56.8217C6.79774 56.8217 10.0228 56.539 13.2066 56.3966C18.5346 56.1581 23.7041 56.2093 29.0315 56.3013C34.3055 56.3923 39.4043 57.3494 44.6719 57.3494C46.4004 57.3494 50.0798 57.9292 51.6478 57.2175C52.1133 57.0062 38.8028 45.4395 37.696 44.2145C36.6226 43.0266 34.1975 39.0694 35.1308 40.3297C36.8868 42.701 39.075 45.1448 41.3685 47.2197C43.4789 49.129 45.0161 51.3708 46.9234 53.362C47.2951 53.7502 48.6485 54.6259 48.0491 54.5201C47.7709 54.471 47.2765 53.7628 47.1264 53.6186C45.811 52.3551 44.5557 51.0693 43.3431 49.7411C40.3643 46.4782 37.4892 42.9871 35.3984 39.2963C35.0137 38.6173 35.9699 39.064 36.2934 39.2743C37.8896 40.3117 38.7278 41.5469 39.8829 42.8878C41.952 45.29 45.1442 46.967 47.5047 49.1621C48.9647 50.5198 50.3791 51.8592 51.657 53.3254C51.9116 53.6176 52.5283 54.6631 52.3952 55.0332C52.34 55.1867 50.8483 54.6945 50.6604 54.6448C49.4584 54.3265 48.0145 54.2247 46.7573 54.1903C42.5771 54.0758 38.3517 54.9465 34.1711 55.1065C28.492 55.3239 23.0016 56.3893 17.3773 56.8217C13.3228 57.1334 9.05959 56.4616 5.06801 56.851C3.27349 57.0261 4.1594 56.622 5.10492 55.6049C7.91328 52.584 11.552 50.1059 14.443 47.1318C15.7252 45.8127 17.0366 44.3118 17.8202 42.7486C18.2809 41.8297 19.2758 40.4781 19.1582 39.4502C19.1027 38.9654 14.6299 42.2999 14.3692 42.5287C11.2663 45.2517 8.31323 48.0489 5.42788 50.9139C5.11276 51.2268 3.1078 52.7285 4.4221 52.9149C6.09539 53.1523 7.50015 51.7132 8.40832 50.8553C11.21 48.2088 13.3587 45.0582 15.4303 42.0302C15.5094 41.9147 16.9379 39.7005 15.9286 40.2931C13.8508 41.5131 12.4385 44.7726 11.2873 46.5454C9.52967 49.2517 7.84455 52.0911 5.51093 54.5201C4.19352 55.8914 7.61832 51.5022 8.75896 50.0343C9.39704 49.2132 16.9075 39.9703 16.6576 39.8313C15.5749 39.2293 6.43916 52.1476 5.6032 53.5673C5.273 54.128 6.1019 52.6748 4.90192 53.6552C4.03895 54.3603 3.18401 55.7019 2.61353 56.5578C2.48321 56.7534 4.29058 56.5587 4.4221 56.5578C6.85179 56.5409 9.22405 56.3583 11.6379 56.1327C21.8676 55.1767 31.9427 55.8726 42.162 55.495C44.6884 55.4017 47.1602 55.2385 49.7008 55.2385C50.423 55.2385 53.2168 54.8427 50.9557 54.8427C44.8864 54.8427 38.5415 55.2813 32.4918 55.7076C29.8711 55.8922 27.3455 56.0301 24.7131 56.0301C24.3325 56.0301 21.9853 55.7902 21.7142 56.0594C21.4158 56.3556 24.8593 56.966 25.2944 56.9536C25.8541 56.9377 24.2984 55.9633 24.0395 55.6343C23.7854 55.3114 23.1734 56.901 23.1352 57.0562C22.5804 59.3088 23.1721 61.7249 23.1721 64.0048C23.1721 65.6668 23.006 67.3082 23.006 68.9671C23.006 70.2977 23.4025 71.7025 23.1629 73.0351C22.8223 74.9289 23.3382 76.5882 23.3382 78.4738C23.3382 79.717 23.1565 78.6378 24.1687 78.4591C25.8959 78.1542 27.5163 78.1127 29.216 77.6748C29.7761 77.5305 32.2991 77.6635 32.4641 77.0738C32.7384 76.0933 32.6251 74.7946 32.6394 73.7974C32.683 70.7499 33.3038 67.7506 33.3038 64.6938C33.3038 61.8725 32.8055 59.0878 32.8055 56.2646C32.8055 56.0302 33.0397 54.6916 32.8055 54.5055C32.5901 54.3344 32.4136 54.8957 32.1411 55.0039C31.2358 55.3635 30.7406 55.2096 31.0615 56.0594C32.4467 59.7271 31.3106 64.2402 31.3106 67.9996C31.3106 70.4282 30.7733 73.014 31.1538 75.4319C31.294 76.323 30.973 79.5158 32.1411 79.2507" stroke="black" stroke-linecap="round" stroke-linejoin="round"/>
<path id="Vector 245" d="M22.5077 3.91557C22.2381 4.10357 18.9 6.49913 19.5457 6.06319C20.4694 5.4395 21.1567 4.60759 22.0094 3.93023C22.8619 3.25305 21.3908 5.68367 21.5849 5.46948C23.4087 3.45733 21.8574 5.28358 20.7545 6.20978C19.1567 7.55149 22.3397 4.60107 23.0705 4.25274C23.891 3.86168 21.9302 5.49719 21.1789 5.9679C20.6838 6.27808 19.8049 7.01976 20.7176 6.26109C21.3171 5.76268 23.9609 3.57841 23.4212 3.64437C22.6525 3.73831 22.0731 3.567 21.3819 4.07683C20.8049 4.50244 21.3253 4.09505 21.548 3.85693C21.8139 3.57266 22.4907 2.66832 22.1755 2.91873C22.0451 3.0223 21.6957 3.55058 21.6957 3.70301C21.6957 3.94605 22.4001 3.60345 22.2124 3.82029C21.6756 4.44052 20.4223 5.07951 20.4223 5.90926C20.4223 6.55095 22.5924 5.1092 22.8029 4.97106C23.2258 4.69361 23.9006 4.14314 23.0798 4.79514C21.9628 5.68243 20.5059 6.54926 19.5918 7.56579C18.96 8.26838 21.3533 6.53439 22.0832 5.89461C23.0211 5.07251 22.8457 5.15385 22.0648 5.92392C21.5468 6.43467 19.3347 7.77614 19.2596 8.37206C19.2028 8.82389 20.1949 7.84399 20.6068 7.52914C21.3249 6.98023 21.9703 6.38012 22.6738 5.82131C22.8723 5.6636 24.4476 4.42431 23.6149 5.21294C22.1722 6.5794 20.2011 7.56269 18.8167 8.96577C17.8244 9.97147 19.5228 8.62567 19.8317 8.41604C21.2226 7.47207 22.3894 6.36489 23.9287 5.55744C24.7893 5.10598 24.4771 5.51121 24.021 5.90926C22.5621 7.18233 20.7917 8.2345 19.3704 9.53016C18.331 10.4776 20.7556 8.85716 20.939 8.71656C21.8731 8.0006 23.6226 5.96322 24.9714 5.78466C26.1734 5.62552 23.3416 7.22589 22.4708 7.90296C20.4689 9.45932 18.2064 10.7789 16.1777 12.3008C13.8141 14.074 20.5779 8.32493 23.4858 7.16998C26.0071 6.16857 19.8803 10.7559 17.4234 11.8537C15.2088 12.8432 24.7288 6.24119 22.9321 7.66841C21.2276 9.02237 19.3077 10.2083 17.571 11.5385C16.0483 12.7049 16.1006 12.8348 17.7371 11.7437C20.4575 9.93014 28.6361 4.53014 26.1248 6.52496C24.4442 7.85992 22.2837 9.03306 20.4776 10.2778C19.4411 10.9922 17.2407 11.829 16.5745 12.7992C15.774 13.9649 19.3789 11.3454 20.6806 10.5123C22.1195 9.59167 23.8257 8.73237 25.1282 7.69772C26.325 6.74705 22.2514 9.12466 20.9206 9.95529C19.7314 10.6975 18.5283 11.4257 17.3403 12.1689C16.6841 12.5794 14.7076 13.5983 15.541 13.5542C16.2357 13.5174 17.1363 12.746 17.6356 12.4327C19.0174 11.5658 20.4088 10.7096 21.7787 9.83068C22.0665 9.64606 25.5203 7.60092 24.224 8.87781C22.5242 10.552 20.2558 11.8035 18.2262 13.2024C17.9344 13.4035 15.4203 15.193 16.9343 14.1186C18.9102 12.7165 20.7452 11.2163 22.8029 9.88199C23.811 9.22831 24.9538 8.93507 25.9126 8.34274C26.0546 8.25499 26.4677 8.36352 26.4201 8.40138C25.7948 8.89808 24.3465 9.24097 23.578 9.61812C21.0248 10.8712 18.8013 12.5409 16.6206 14.1626C15.9665 14.649 13.293 16.0348 13.1142 16.8159C13.015 17.2493 14.0386 16.3292 14.4983 16.083C16.4825 15.02 18.1524 13.6294 20.1639 12.572C21.9838 11.6153 24.3466 10.8072 25.9587 9.61812C26.379 9.30809 28.1594 8.07705 26.4754 8.74588C22.2271 10.4332 18.201 13.2901 14.6459 15.7751C11.9059 17.6905 20.2086 11.9953 23.2643 10.4097C23.6355 10.2171 25.5916 9.37323 25.442 9.47885C23.5391 10.8225 21.3381 12.0209 19.3058 13.239C17.9905 14.0273 16.6658 14.8102 15.2919 15.5332C15.0378 15.6669 13.7129 16.1275 13.6125 16.4201C13.5914 16.4816 16.8411 15.0947 17.0451 14.9835C19.4779 13.6564 21.869 12.207 24.5008 11.128C24.6032 11.086 26.2871 10.6119 26.2171 10.7029C25.6483 11.4422 23.7203 12.0948 22.8399 12.5647C21.6475 13.2011 18.0994 15.1228 19.1766 14.3678C21.677 12.6153 24.8958 11.3742 27.0291 9.32493C29.2064 7.23342 24.1038 10.8071 23.7072 11.0841C22.393 12.002 21.1535 13.1368 19.6472 13.8547C19.2294 14.0538 21.6389 12.7277 22.1017 12.4987C23.5959 11.7593 25.1826 11.1422 26.66 10.3804C27.2568 10.0727 28.0211 9.81784 26.9737 10.3658C24.6373 11.588 22.3728 12.8587 20.0993 14.1552C17.9595 15.3756 18.3287 15.3521 20.4407 14.3971C22.3314 13.5422 24.0778 12.4902 25.9587 11.6265C26.3413 11.4508 26.871 11.172 27.3244 11.172C29.502 11.172 24.3771 12.7565 24.1317 12.8725C21.2328 14.2434 18.3598 15.6498 15.4672 17.0285C14.2971 17.5862 14.2774 17.621 15.1996 16.9699C16.8335 15.8162 22.2877 13.0317 20.2377 13.6348C17.3268 14.4912 10.7157 19.8902 12.7359 18.018C13.6277 17.1915 14.7693 16.4271 15.7625 15.6725C16.539 15.0824 14.2352 16.5312 13.9631 16.7866C12.8843 17.7994 13.0462 18.0418 14.5906 17.3583C17.326 16.1477 19.9264 14.7508 22.6553 13.5322C24.6401 12.6459 26.9093 12.1628 28.8745 11.3113C30.5246 10.5964 25.5991 12.78 24.021 13.5908C20.482 15.409 9.86441 20.8246 13.6125 19.2934C14.8784 18.7762 16.0285 17.8674 17.2665 17.2704C20.1096 15.8992 22.9839 14.6111 25.9587 13.4296C27.0392 13.0004 29.0102 12.7578 29.8526 11.993C31.4982 10.499 25.3059 13.6838 23.2459 14.8076C19.662 16.7626 16.1211 18.7516 12.4683 20.5981C11.8874 20.8917 13.5282 19.0812 13.8708 18.8536C17.633 16.3542 22.4989 14.9089 26.7892 13.0778C28.1768 12.4855 29.581 11.8954 30.8769 11.1794C31.6811 10.7349 31.2771 10.7696 30.5908 11.0694C25.6082 13.2463 20.8024 15.8221 15.9286 18.1573C14.4407 18.8702 13.0922 19.3645 11.8777 20.2756C11.2327 20.7595 10.8009 21.5533 10.0507 21.9174C6.53266 23.6252 17.1492 18.5843 20.6991 16.9186C23.4773 15.6149 26.7953 14.5681 29.1145 12.7259C30.0497 11.9831 30.4857 11.8411 28.6992 12.5867C23.1244 14.9134 18.256 18.8105 13.4095 21.9907C13.2547 22.0923 12.3621 22.5971 12.8927 22.1153C13.9867 21.1222 15.5532 20.4475 16.9436 19.7552C20.7366 17.8664 24.6355 16.2016 28.2379 14.0819C31.484 12.1719 26.1411 14.0434 25.2021 14.5437C21.1867 16.6832 9.82554 23.8439 13.4741 21.3237C17.3998 18.6121 21.889 16.4592 26.254 14.2359C27.2816 13.7125 30.3047 12.0849 29.3728 12.7113C27.3295 14.0847 24.7116 15.1049 22.5077 16.3175C20.407 17.4733 18.4666 18.7213 16.4822 19.9824C15.5089 20.6009 18.6732 19.0364 19.7395 18.5238C22.1307 17.3741 24.5449 16.0927 26.7707 14.7489C28.2061 13.8824 28.8056 13.5496 26.9737 14.661C23.8101 16.5804 20.4311 18.2475 17.165 20.0484C16.839 20.2281 14.0554 21.3021 14.0554 21.6536C14.0554 21.7356 17.4467 20.2183 17.7094 20.0777C20.8424 18.4011 23.7887 16.5406 27.0475 15.0128C28.034 14.5504 29.2955 14.2074 30.1479 13.6055C31.2676 12.8149 27.6493 14.9191 26.4201 15.5992C22.5803 17.7237 18.6867 20.027 15.3657 22.6651C14.0281 23.7276 18.3823 20.8513 19.9055 19.9604C22.4551 18.4693 25.0615 17.0419 27.5458 15.4819C28.7879 14.702 29.2312 14.5262 27.7857 15.5845C24.8297 17.7489 21.8569 19.9026 18.7983 21.9761C16.8259 23.3132 18.6159 22.313 19.5918 21.6976C22.3526 19.9565 25.0367 18.144 27.7304 16.3395C28.1567 16.0539 32.7084 13.4213 30.637 14.7123C27.8716 16.4359 25.2695 18.2941 22.5446 20.0557C20.9843 21.0644 18.2897 22.9621 21.142 20.5394C23.0199 18.9445 24.9971 17.4826 27.0752 16.0536C27.3853 15.8404 29.5709 13.941 29.2806 14.0306C26.2935 14.9534 23.3362 16.9948 20.8191 18.4944C20.7167 18.5555 18.0035 20.1866 18.1708 20.3196C18.4413 20.5344 20.2767 19.5464 20.4592 19.4546C23.0548 18.1497 25.466 16.6179 27.9518 15.1887C30.7074 13.6044 26.9992 16.6578 26.4201 17.1384C25.955 17.5244 19.9928 21.9648 20.1086 22.0567C20.3164 22.2218 26.5985 17.6296 27.0106 17.3583C27.3101 17.1612 31.3376 14.3579 31.6981 14.5584C31.7068 14.5632 27.0888 18.0924 26.6969 18.3992C25.2071 19.5652 23.2814 21.0032 25.848 18.8389C27.1048 17.7792 31.3201 14.9698 30.0372 16.0097C28.0132 17.6502 25.9443 19.249 23.7903 20.7813C20.9221 22.8216 23.0628 21.154 24.4915 20.019C26.4304 18.4789 28.3778 16.7508 30.8123 15.6872C32.0828 15.1321 28.6358 17.211 27.6012 18.018C26.016 19.2544 23.6213 21.1282 21.5296 21.7928C20.8689 22.0028 22.4825 20.9524 22.9875 20.5541C24.377 19.4581 25.7991 18.3864 27.269 17.3583C28.6729 16.3764 28.658 16.2928 27.0291 17.0212C25.5819 17.6682 24.2883 18.5549 23.0336 19.4107C22.452 19.8074 18.9641 22.472 21.4096 20.686C23.2442 19.3463 25.6384 17.7476 26.8814 16.0097C28.422 13.8559 22.1559 19.249 19.9425 20.9939C19.2719 21.5225 18.2783 22.2882 19.3242 21.1625C20.3905 20.0149 22.0212 18.8736 22.7199 17.5416C23.2624 16.5074 20.745 19.1456 19.8502 20.0117C18.3073 21.505 19.7442 21.0771 20.8836 20.1876C21.9419 19.3615 24.2784 16.5025 25.8295 16.3762C26.4775 16.3234 26.2404 17.0681 27.1213 16.8746C28.2667 16.6229 29.5328 15.604 30.3602 14.9468C30.7524 14.6353 31.1805 14.3267 30.4617 14.6756C29.0722 15.3502 26.8421 16.1578 29.2436 14.6317C29.5189 14.4568 29.7377 14.2825 29.5758 14.6683C29.4056 15.0739 30.6542 14.1965 30.7292 14.1552C30.9731 14.0211 32.1021 13.8785 31.2921 13.95C30.0246 14.0619 25.842 16.1026 28.7454 14.9982C29.2794 14.795 30.6873 14.0296 30.3694 14.4264C29.1858 15.9039 27.2355 17.0384 25.7372 18.3039C25.3724 18.612 21.8581 22.0092 22.5815 21.9028C24.9083 21.5605 27.4503 19.0522 29.2806 17.9301C29.599 17.7348 32.479 15.9283 31.7719 16.4788C29.7824 18.0276 27.5089 19.3855 25.442 20.8766C23.4517 22.3124 26.6712 20.0569 27.0752 19.7405C28.2511 18.8196 30.7582 17.499 31.4398 16.2809C32.0647 15.164 28.9822 17.768 27.9149 18.6484C27.071 19.3445 24.101 21.8926 26.7153 19.8358C28.5918 18.3596 30.5244 16.8796 32.1687 15.2327C32.5134 14.8875 29.616 17.1177 29.0406 17.5196C25.4511 20.0268 31.5345 14.6629 31.5136 14.727C31.0042 16.2877 29.3999 17.8235 28.2286 19.1028C27.0974 20.3384 30.1483 17.8171 30.4063 17.5929C30.5951 17.4288 32.614 15.6218 31.8458 16.2809C30.1747 17.7144 28.2269 19.1386 26.9091 20.796C26.0306 21.9009 29.1238 18.8621 30.2771 17.9301C31.0923 17.2713 33.7834 15.1098 31.6058 17.2411C30.6446 18.1818 29.6104 19.0669 28.5239 19.9164C27.989 20.3347 26.2231 21.2138 26.9737 21.2138C27.2142 21.2138 28.4021 20.0153 28.5608 19.8944C29.7995 18.9515 30.9392 17.9604 32.1041 16.9625C33.0401 16.1607 33.9424 15.5835 32.667 17.0138C31.8049 17.9806 30.7975 18.8584 29.8157 19.7478C29.3494 20.1703 27.7428 21.0379 28.4501 21.0379C29.6175 21.0379 31.9158 18.531 32.7316 17.9301C33.0942 17.663 34.9672 15.9401 33.8573 17.2264C32.6295 18.6494 31.2602 19.9918 30.0372 21.4117C29.3741 22.1815 32.1941 19.6627 32.547 19.3594C32.8485 19.1002 35.8304 16.4432 34.5125 17.6882C33.6967 18.4588 31.1814 20.2412 31.1814 21.3017C31.1814 21.7332 36.6822 16.82 33.8204 19.5426C33.578 19.7732 31.3622 21.993 32.8423 20.9572C33.8271 20.2681 36.7253 18.4496 35.426 18.5971C34.2538 18.7301 32.5087 20.9152 31.9565 21.6389C31.6687 22.016 34.5173 19.9616 35.0569 19.5719C36.7635 18.3395 35.2767 19.1628 34.4294 19.8358C34.1062 20.0926 31.5943 22.7365 33.0453 21.7708C34.0904 21.0753 35.0434 20.0995 36.1642 19.506C37.4039 18.8495 33.9177 21.122 33.1837 22.152C31.5909 24.3872 37.9814 18.3242 35.4629 20.9499C35.2224 21.2007 33.7028 23.0065 35.0384 22.196C35.9926 21.617 38.3721 19.4575 37.6221 20.2023C37.3257 20.4965 36.3147 21.7186 36.3672 22.0934C36.4593 22.752 37.4793 21.0634 37.7513 20.4368C37.9123 20.0659 36.2866 20.4001 36.1642 20.4295C34.1344 20.9162 32.2168 21.8709 30.111 22.1593C29.1482 22.2912 30.788 20.5216 30.9415 20.3049C31.7256 19.1976 27.132 21.6626 26.8261 21.8881C25.3176 23.0003 21.1006 26.5658 22.3508 25.2671C23.7429 23.8211 25.6411 22.4842 26.54 20.7813C26.9144 20.0722 25.7937 20.8991 25.6819 20.9792C24.085 22.1232 22.6045 23.394 21.1605 24.6588C20.7434 25.0241 16.7545 29.1166 18.4938 27.4587C20.9407 25.1262 22.7397 22.3982 25.1467 20.0264C25.9879 19.1974 24.7906 20.2319 24.6023 20.4002C23.1225 21.7225 21.6894 23.0657 20.33 24.4682C18.7587 26.0893 14.3005 31.0972 15.6702 29.3645C17.4608 27.0992 19.3944 24.9187 21.2343 22.6797C21.9929 21.7566 22.7584 20.6509 21.4373 22.1813C20.9764 22.7153 18.5782 25.9436 17.8386 25.9781C17.8204 25.979 18.7238 24.375 18.7706 24.2996C19.0132 23.909 19.8686 23.0625 19.8686 22.6064C19.8686 22.4738 18.7231 23.5483 18.6875 23.5886C18.4683 23.8374 17.3996 24.8555 17.6356 25.2305C17.9856 25.7866 23.5247 22.2422 24.0486 21.9541C24.7874 21.5478 25.8769 20.7089 26.7707 20.5248C28.1416 20.2425 24.9556 22.2524 24.021 23.0975C22.984 24.0351 21.9799 24.9904 20.9851 25.9561C20.9315 26.0083 19.3177 27.4757 20.4592 26.9603C23.8829 25.4144 26.7944 22.2798 29.5758 20.0703C31.9215 18.2071 28.0578 21.0742 27.6565 21.4263C23.6761 24.9197 19.3238 28.3739 15.9009 32.2377C13.5871 34.8496 21.3166 27.5159 24.0671 25.1865C25.4246 24.0368 26.8785 22.9535 28.2102 21.7855C29.0309 21.0656 28.5574 21.1834 27.8226 21.6682C23.1684 24.7397 19.0845 28.3779 14.8305 31.7833C13.9738 32.4691 11.5198 34.614 12.3207 33.8869C13.396 32.9107 14.4099 31.8739 15.4026 30.8451C16.9498 29.2415 18.4158 27.5901 19.9978 26.0074C20.5965 25.4085 22.3143 24.2983 22.5353 23.508C22.8417 22.4129 20.6519 25.1805 19.7395 26.0368C17.9863 27.6819 16.2938 29.3653 14.5906 31.043C13.7749 31.8465 12.9481 32.6499 12.2192 33.5058C12.1106 33.6332 13.7924 31.8754 14.1477 31.4901C15.8649 29.6278 17.7139 27.8452 19.5641 26.0661C20.3729 25.2884 21.2742 24.0738 22.3969 23.53C23.1785 23.1514 21.4295 24.7679 20.8652 25.3404C19.1745 27.0556 17.417 28.7347 15.6794 30.42C14.3974 31.6634 12.9811 32.8441 11.7762 34.1361C11.455 34.4807 12.8507 33.1649 12.9666 33.0587C15.5286 30.7105 17.925 28.1459 20.8191 26.0441C23.0355 24.4344 16.796 29.5918 14.9412 31.4681C13.1655 33.2645 11.5266 35.1458 9.80158 36.9728C9.11174 37.7034 6.71552 39.5801 7.74388 39.1717C8.60218 38.8308 9.54215 37.3546 10.1061 36.7822C11.9414 34.9193 13.8623 33.1127 15.9009 31.3875C16.2515 31.0907 20.7917 27.5803 18.6229 29.5184C15.6445 32.1801 12.8261 34.9534 9.99536 37.7131C9.27379 38.4165 9.90081 37.9282 10.2353 37.6178C11.196 36.7261 12.1365 35.8217 13.105 34.9351C13.7625 34.3331 16.2327 31.5433 14.1108 33.5864C12.2627 35.3658 8.93199 38.02 8.14988 40.2858C7.33612 42.6433 12.0798 36.5228 14 34.6126C15.0521 33.566 16.1778 32.577 17.3588 31.622C18.5488 30.6597 16.6343 32.3798 16.5191 32.4943C15.2889 33.7158 14.1026 34.9618 12.9666 36.2398C12.4852 36.7813 11.2486 37.7842 11.1119 38.49C11.0593 38.7612 11.6908 38.1785 11.9146 37.9696C13.0728 36.8886 14.1705 35.7726 15.3657 34.7152C15.861 34.277 19.674 30.5267 17.6356 32.4723C15.0665 34.9245 12.8939 37.6031 10.4936 40.1539C9.98967 40.6894 10.053 40.6199 10.4936 40.1612C11.3498 39.27 12.1955 38.3849 13.1327 37.5445C14.2818 36.5139 17.6357 33.3699 16.3807 34.3194C14.7479 35.5546 13.2529 36.9137 11.5825 38.1162C10.1088 39.177 13.6544 33.7381 11.2134 36.6649C10.6634 37.3243 9.24015 38.5835 9.11876 39.3549C9.10605 39.4357 11.5679 37.6894 11.8039 37.4932C12.7635 36.6955 13.72 35.9057 12.4498 37.3759C11.8266 38.0973 10.4014 40.3105 10.4014 39.4355C10.4014 38.0394 14.4009 34.3951 10.3275 38.1309C10.1349 38.3075 8.07138 40.2721 9.58935 39.9706C11.5942 39.5725 13.5138 37.4609 14.8674 36.2984C15.7571 35.5344 12.7052 37.6599 12.3391 38.0136C11.802 38.5325 10.0149 40.8978 12.0807 39.4209C14.5111 37.6834 16.2783 35.4016 18.5768 33.5571C20.4491 32.0546 17.1939 35.1747 16.879 35.5508C15.6596 37.0072 13.658 38.8786 13.0773 40.6083C12.5582 42.1546 15.4082 37.9952 16.6667 36.7455C20.7547 32.6865 14.2956 40.0464 14.812 40.1832C15.4622 40.3553 19.0364 35.8651 19.4442 35.4482C20.3383 34.5339 23.5096 31.5031 20.7176 34.0482C19.4206 35.2304 18.2289 36.4782 17.1004 37.7644C16.2759 38.7041 13.6234 41.3465 14.7844 40.6669C16.231 39.8202 17.2158 38.0169 18.3 36.8995C19.6912 35.4655 21.2363 34.1155 22.7937 32.7948C25.7831 30.2598 22.8954 33.0856 21.8064 34.0995C20.1779 35.6157 18.6128 37.1475 17.0912 38.7319C16.876 38.956 15.2901 40.6702 15.9747 39.3329C17.8332 35.7027 20.6084 32.3605 23.375 29.1372C23.4166 29.0888 24.6699 27.772 24.5746 27.7079C24.1903 27.4497 21.1684 30.7395 21.1236 30.7864C18.1809 33.8706 10.0494 43.5237 12.8005 40.3298C16.2249 36.3541 19.1116 32.2508 23.0244 28.5289C24.4018 27.2186 26.2742 25.9717 27.3982 24.5048C27.8386 23.9301 26.0856 25.363 25.5158 25.8608C21.0906 29.7275 16.6052 33.7724 12.7636 38.0136C12.3996 38.4154 11.8816 39.1337 12.8189 38.2481C14.8074 36.3695 16.4685 34.292 18.2446 32.289C21.2369 28.9145 24.4486 25.6702 27.9334 22.6064C28.8467 21.8035 31.5719 19.4413 30.923 20.3929C30.3245 21.2706 29.1783 22.0531 28.3394 22.775C25.3673 25.3326 22.4807 27.943 19.6656 30.6105C17.8383 32.342 15.9662 34.0518 14.1754 35.8073C12.9696 36.9893 14.7344 35.7501 15.1073 35.4335C18.653 32.4235 21.2503 28.7174 24.6484 25.5896C25.8402 24.4927 30.311 20.4476 27.1213 24.2776C24.161 27.8322 20.7171 31.1528 17.8663 34.7592C15.3828 37.9009 23.563 28.8779 26.5216 26.0074C28.0596 24.5152 29.7186 23.1143 31.4028 21.7269C31.4993 21.6474 32.9938 20.4332 32.1964 21.3164C28.2108 25.731 23.4514 29.768 19.2596 34.0702C18.8992 34.4401 14.1971 39.5859 16.8421 36.555C20.0963 32.8258 23.4929 29.2823 27.1213 25.7876C27.8053 25.1288 28.5154 24.4932 29.2252 23.8525C29.3124 23.7738 28.2109 25.2559 27.9887 25.553C26.6882 27.2916 22.4324 32.3317 23.8549 30.6545C26.097 28.0108 28.6398 25.0541 30.2033 22.108C31.104 20.4109 26.2871 25.2776 25.9587 25.641C24.5203 27.2324 23.1157 28.8431 21.6772 30.4346C20.8283 31.3738 17.9934 33.8364 19.315 33.3519C21.1837 32.6667 22.7565 30.2837 23.8918 29.0273C25.5355 27.2083 27.156 25.426 29.0868 23.7865C29.7972 23.1833 33.4682 20.0952 31.3844 22.6504C27.942 26.8715 24.1021 30.8975 20.533 35.0524C17.2604 38.8621 26.5279 27.1266 30.0926 23.486C32.1069 21.4287 26.1346 27.6471 24.307 29.8116C22.9843 31.378 21.5008 32.9394 20.4592 34.6419C19.8159 35.6934 21.3313 33.9261 21.3635 33.8869C23.8775 30.827 25.9739 27.5898 28.69 24.6295C29.5911 23.6473 27.8806 24.9574 27.7673 25.0619C25.8729 26.8082 24.1559 28.7061 22.4708 30.5812C19.9269 33.4119 13.3036 42.3781 15.0427 39.1863C17.4162 34.8305 20.2545 30.9314 23.5688 26.9823C25.2112 25.0254 22.5189 27.7782 22.157 28.2064C20.8126 29.7968 19.5177 31.4134 18.18 33.0074C18.1415 33.0533 16.3901 34.9137 16.3069 34.7005C16.0197 33.9654 17.789 31.7945 18.1339 31.2262C19.0195 29.7671 20.135 28.4243 21.0682 26.9896C21.8032 25.8596 20.7509 27.1917 20.533 27.4587C19.0261 29.3056 17.637 31.2007 16.3438 33.1466C16.1552 33.4303 14.7844 34.9645 15.015 35.3309C15.1346 35.5208 16.8779 33.2986 16.8974 33.2712C18.3764 31.1981 22.8626 25.0418 21.7695 27.2608C20.4805 29.8775 18.8765 32.4271 17.3588 34.9644C16.5578 36.3034 16.655 35.9119 17.2204 34.6492C18.1807 32.5046 19.275 30.3775 20.6622 28.3823C21.1823 27.6342 24.6219 23.2138 22.7845 26.308C21.7488 28.052 20.7879 29.8205 19.8317 31.5927C19.2583 32.6555 18.0143 34.1713 18.0508 35.3602C18.0729 36.0776 19.4462 34.4033 19.8871 33.777C21.3819 31.6533 22.861 29.5638 24.5377 27.5247C25.2306 26.6821 27.7507 24.5848 26.5862 24.9813C25.6463 25.3012 24.3573 27.6547 23.8641 28.265C20.9363 31.8873 17.1215 35.6927 15.0889 39.6994C14.6338 40.5964 16.4894 38.1166 17.1466 37.3026C19.1325 34.8427 21.2955 32.4877 23.5596 30.1854C24.8571 28.866 26.3117 27.6104 27.4904 26.22C28.1781 25.4089 27.4311 26.1826 27.1952 26.4912C24.387 30.1652 21.2768 33.6664 18.2446 37.222C14.7199 41.3551 31.6215 20.3481 28.773 24.798C26.6463 28.1205 24.4889 31.2954 21.871 34.4147C21.555 34.7911 20.1257 36.3296 20.127 36.3277C21.1016 34.9924 22.0533 33.662 23.1351 32.377C25.868 29.1308 29.4231 26.2873 32.0303 23.0022C33.9357 20.6015 28.1705 27.7798 26.1617 30.1268C23.9597 32.6995 17.194 40.3305 19.435 37.779C22.0711 34.7775 24.4109 31.6722 27.3244 28.8147C27.647 28.4982 31.446 24.8112 30.5724 26.286C28.0013 30.6259 24.4886 34.7524 21.1236 38.7319C20.6641 39.2753 20.2179 39.8261 19.7395 40.3591C19.2059 40.9534 20.5016 39.0293 20.939 38.3874C22.6111 35.9337 24.3308 33.4795 26.2171 31.1236C27.4257 29.614 28.8311 28.1012 30.4986 26.887C31.2532 26.3376 29.6036 28.5979 29.4651 28.7781C26.6185 32.4812 23.7157 36.5078 20.0624 39.7581C18.9115 40.782 18.9814 39.9038 19.3335 39.0984C20.051 37.4564 20.8994 35.7918 21.8987 34.2461C22.7282 32.9629 23.7008 31.7198 24.8053 30.5739C25.676 29.6705 24.8929 30.7733 24.7038 31.0357C22.4939 34.1011 20.3362 37.1978 17.9863 40.1978C16.6339 41.9243 18.4894 38.1408 18.706 37.7717C19.8029 35.902 21.2839 34.1143 22.8952 32.5016C23.8419 31.5541 21.8572 34.5658 21.5942 34.9571C20.5499 36.5104 19.2281 37.9424 17.9493 39.3769C17.8009 39.5434 16.3195 41.3989 16.9343 40.0732C18.3597 37.0001 20.3998 33.8802 22.969 31.3069C24.9895 29.2832 19.7622 35.8011 18.1154 38.0282C17.1453 39.3403 16.1663 40.6477 15.1904 41.957C14.0482 43.4893 15.7566 41.2972 15.9747 40.9895C18.2077 37.8377 20.3802 34.704 23.3289 31.9226C23.5027 31.7586 26.0727 29.6672 26.0879 29.8776C26.1757 31.0983 24.9751 32.639 24.3808 33.711C23.5566 35.1979 22.3439 37.1913 24.3162 34.51C25.0078 33.5698 33.5442 23.2942 33.6912 23.3981C34.2736 23.8092 27.9424 31.127 27.2874 31.9152C25.229 34.3922 19.1204 41.8264 20.7914 39.1717C22.542 36.3905 24.614 33.6663 26.9368 31.1603C27.9155 30.1043 28.992 29.0564 30.1479 28.1184C30.4554 27.8689 31.2788 27.12 31.1722 27.4587C30.5335 29.4879 28.065 31.7397 26.6784 33.4252C25.4813 34.8803 24.2705 36.3321 23.1444 37.823C22.6217 38.5149 22.3281 38.8354 22.8399 37.8816C24.7651 34.2936 27.2199 30.8119 29.9634 27.5833C31.0949 26.2518 32.3593 25.002 33.5251 23.6912C33.9749 23.1856 33.7317 23.3304 33.3683 23.6912C30.6268 26.4133 28.2179 29.3573 25.2851 31.9592C25.1369 32.0907 23.464 33.2469 23.4858 33.1906C23.7193 32.5877 24.3165 31.9849 24.6946 31.4388C26.2553 29.1847 27.8957 25.1177 30.9415 23.7352C31.5605 23.4542 31.2082 26.819 31.5597 26.3226C32.0362 25.6497 32.638 24.864 32.9346 24.131C33.0773 23.7783 32.4754 25.0075 32.0119 24.9666C31.612 24.9313 32.7254 21.889 31.4398 25.7289C30.8015 27.6353 32.7827 23.0902 32.1318 24.8567C32.0247 25.1474 31.6866 27.1747 31.8458 27.0483C32.1195 26.8308 33.168 24.8575 32.4917 26.0514C30.707 29.2018 27.8533 32.1903 25.3958 35.0157C24.0362 36.5789 20.4823 41.393 21.0405 39.5455C21.6441 37.5478 23.1972 35.6898 24.4915 33.9456C24.7562 33.5889 27.5827 30.0346 26.0141 31.5414C23.6372 33.8246 21.5508 36.2649 19.2596 38.6C19.0478 38.8159 17.2254 40.199 17.3311 40.535C17.5153 41.1202 18.164 39.5259 18.5584 39.0104C20.0072 37.1163 21.3177 35.0938 23.0798 33.3665C25.2891 31.2008 23.9343 33.6033 23.2274 34.7518C22.1185 36.5536 20.996 38.3466 19.9794 40.1832C19.686 40.7131 18.6288 42.1858 19.1674 41.7957C20.8414 40.5833 21.8315 38.4524 23.089 36.9654C24.1406 35.7219 25.2746 34.5194 26.3832 33.3079C26.6832 32.98 29.8576 29.2448 28.9115 31.1236C27.3714 34.182 25.2657 37.1573 23.1351 39.978C21.2388 42.4885 26.6031 34.8003 28.6439 32.3623C29.7512 31.0395 32.7283 27.0191 32.2702 28.5655C31.6392 30.696 29.6239 32.7617 28.2471 34.5979C27.1456 36.067 26.1422 37.5975 24.8053 38.9445C24.6021 39.1492 24.0868 39.7238 24.4639 39.1424C26.625 35.8099 33.8233 26.1244 31.6335 29.4451C29.7104 32.3615 27.815 35.4118 25.2943 38.0356C24.2784 39.0931 26.8319 34.5315 26.9737 34.2901C28.6524 31.4326 31.0364 28.9908 33.0638 26.3739C33.9416 25.2408 33.2503 26.6883 32.87 27.3708C31.5996 29.6507 30.1388 31.7247 28.5239 33.8649C26.9735 35.9196 24.7881 38.4152 24.0025 40.7696C23.526 42.1977 24.7807 39.9856 24.9252 39.7727C26.702 37.1553 28.8096 34.8046 30.7938 32.2964C32.0089 30.7605 32.9793 28.9608 34.3925 27.532C34.8485 27.071 34.9289 27.1454 34.5217 27.6493C33.4862 28.9309 32.5105 30.192 31.6243 31.5487C29.7016 34.4923 27.7594 37.4194 26.0879 40.4544C24.7667 42.8533 30.2742 36.3343 31.6243 33.9456C32.5523 32.3038 32.9738 30.285 34.1341 28.7488C34.7698 27.9072 34.8377 27.101 33.8666 28.5582C32.3622 30.8154 31.4282 33.3393 30.1479 35.6827C29.3399 37.1617 28.5926 39.3835 27.2321 40.6083C26.331 41.4195 28.4818 38.6859 29.096 37.7204C30.2681 35.8779 31.4394 34.039 32.5286 32.1644C33.0479 31.2707 33.8758 30.1379 34.1434 29.1812C34.1951 28.9964 35.0773 28.2369 35.0569 28.8367C34.9628 31.6011 31.425 34.9893 29.8434 37.3173C29.4438 37.9055 29.2334 38.4723 28.9115 39.0691C28.6029 39.641 29.9051 38.096 30.2679 37.5445C31.8653 35.1154 32.7137 32.2224 34.6324 29.9362C36.1343 28.1467 34.1227 32.4731 33.9588 32.8461C32.9164 35.2199 29.7071 42.3057 30.517 39.8753C31.4534 37.0654 32.894 33.6794 34.9646 31.2555C37.7423 28.0039 29.1836 37.6835 27.0568 41.2313C25.9839 43.021 28.7244 37.4871 29.7973 35.6974C30.3906 34.7077 31.1097 33.7711 31.6981 32.7801C31.9776 32.3094 32.2945 31.9059 31.7535 32.6482C30.5455 34.3056 29.0888 35.8939 27.6012 37.3979C26.2884 38.7251 28.8779 34.169 29.7604 32.6335C31.4232 29.7402 28.4671 34.2094 28.0256 34.7958C27.2554 35.819 26.5027 36.8705 25.5712 37.8083C25.4357 37.9447 24.4651 38.9456 24.8606 38.1602C25.2227 37.4411 26.3517 33.9246 27.3428 33.777C28.008 33.6779 26.7651 34.7511 26.4201 35.2136C25.441 36.526 24.4558 37.8417 23.3935 39.113C23.0369 39.5398 22.9631 39.5505 23.1905 39.0251C23.7139 37.8155 24.4481 36.7056 25.2021 35.5801C25.4549 35.2027 28.6825 30.2842 28.2102 32.2964C28.1044 32.7472 27.0135 36.239 28.5424 34.7298C30.6458 32.6534 32.2247 30.1109 33.8389 27.7812C33.872 27.7334 35.0722 26.7363 35.0569 26.931C35.0256 27.3284 33.5572 28.2308 33.1745 28.5582C32.7027 28.9618 33.848 26.6668 33.6266 26.0514C33.2075 24.8862 33.3616 28.7424 34.3925 29.6357C35.008 30.169 36.458 27.9394 35.629 29.4084C34.0145 32.2694 29.5312 40.9759 31.1076 38.1015C32.012 36.4523 33.05 34.8947 34.1803 33.3299C34.6257 32.7132 35.105 31.7602 35.8781 31.3508C36.0733 31.2475 36.3015 30.8694 36.4225 30.6985C37.1893 29.6157 35.2206 32.9924 34.6324 34.1435C33.8366 35.701 32.8908 37.1502 32.3164 38.7759C31.6782 40.5817 32.4392 38.866 32.8239 38.1309C33.7101 36.4369 34.5766 34.6964 35.6382 33.066C35.7083 32.9584 36.9486 31.0201 36.0073 31.8786C34.6456 33.1205 33.7909 34.8161 32.7685 36.2398C32.068 37.2152 30.211 40.2025 30.5539 39.113C31.1088 37.3501 32.8272 35.2995 33.9219 33.7183C34.4469 32.9601 35.2611 31.9143 36.0442 31.2922C36.5006 30.9297 36.4824 27.9628 36.9208 29.9362C37.0863 30.6809 37.209 31.4565 37.2991 32.2084C37.3864 32.9361 36.9695 31.1013 36.8747 30.8231C36.7551 30.4724 36.6794 29.2219 36.0165 29.7016C35.5428 30.0445 33.8423 31.8994 34.1711 32.4869C34.2844 32.6895 37.0668 28.2421 36.5333 30.3613C36.5028 30.4822 36.0625 31.6572 36.4594 30.9477C37.3192 29.4111 36.2695 31.4586 35.8873 32.0105C33.0564 36.0991 36.6356 30.6421 37.7144 30.5519C38.1018 30.5195 37.558 31.1631 37.4006 31.4461C36.7782 32.5659 36.1076 33.6761 35.3891 34.7592C34.2844 36.4242 34.3205 36.6989 35.6105 34.8691C35.9623 34.3701 36.2944 33.8633 36.6163 33.3519C36.6272 33.3346 37.0107 32.6974 37.0869 32.7655C37.5502 33.1795 35.1469 36.0314 34.7985 36.5769C34.3451 37.2871 36.4024 34.4169 36.6809 34.0555C36.8943 33.7786 38.4783 31.8923 38.2496 32.2671C37.6576 33.2369 37.0104 34.1849 36.3487 35.1257C35.7758 35.9403 35.1791 36.7433 34.5771 37.5445C34.5726 37.5504 33.8263 38.5853 33.9035 38.5853C34.5645 38.5853 36.6175 35.2591 36.9485 34.7958C37.4226 34.1323 38.7533 32.315 37.4191 33.9529C36.3957 35.2092 35.282 36.4137 34.1895 37.6324C33.5838 38.3081 31.3736 39.6848 32.4179 39.6848C32.9933 39.6848 35.0854 36.3005 35.3152 36.0199C35.5651 35.7148 38.1274 32.4415 37.5852 33.1833C36.1321 35.1711 34.7853 37.2055 33.3498 39.201C32.4493 40.4528 34.7155 36.525 35.5459 35.2429C35.8866 34.717 36.46 34.0567 36.5979 33.4545C36.7758 32.677 35.5281 34.7871 34.9831 35.4482C34.0783 36.5454 33.0553 37.5823 32.2241 38.7172C31.7949 39.3032 31.9266 39.2288 32.2887 38.6879C33.3156 37.1539 34.526 34.5475 36.4225 33.5791C37.0567 33.2552 35.7816 34.6633 35.4444 35.199C34.8566 36.1328 34.2678 37.1013 33.7835 38.0722C33.3564 38.9284 35.9048 35.9645 36.2749 35.5654C36.94 34.8481 39.8319 31.9392 38.3418 34.5393C37.3292 36.3062 34.2162 41.5402 34.8723 39.6701C35.4697 37.9674 36.5823 36.169 37.7513 34.6712C38.4555 33.7689 38.4397 34.1458 38.0373 34.8691C37.0265 36.6862 33.4484 41.8737 35.0107 40.3224C36.4243 38.9189 37.1992 37.0277 38.471 35.5215C38.7959 35.1367 37.3545 37.7815 37.0131 38.2774C35.3049 40.7591 36.8642 37.906 37.3637 36.9361C37.8118 36.066 38.2353 35.0647 38.8678 34.2607C39.1392 33.9158 39.3252 32.3659 38.6002 33.9016C37.7454 35.7122 36.7014 37.474 35.4444 39.1277C34.5863 40.2567 36.5102 36.6259 37.1792 35.4188C37.3224 35.1604 38.8713 32.2456 38.7755 33.6157C38.7275 34.3021 37.057 37.9218 37.8066 36.4084C38.1071 35.8018 38.6096 33.7439 39.4122 33.4252C39.4551 33.4081 39.3183 34.6213 39.3015 34.6712C38.8741 35.9397 38.1148 37.1574 37.4375 38.3507C36.5644 39.8893 38.3936 36.6094 38.5448 36.3424C38.7516 35.9774 41.0233 32.7082 40.298 34.4367C39.64 36.0047 38.6266 37.5574 37.659 39.0178C36.878 40.1966 38.5972 36.4239 39.486 35.2942C40.1413 34.4614 38.7647 37.1735 38.3603 38.1015C37.7657 39.466 39.5886 35.9162 39.7628 35.6094C40.9083 33.5929 39.3331 37.0551 39.1538 37.5738C38.8117 38.5637 40.3197 36.0894 40.5103 35.7633C40.9622 34.9901 40.159 37.3105 40.0304 37.5591C39.0301 39.4939 39.5629 37.9627 39.9566 36.8995C41.6554 32.3115 38.2074 41.0346 39.8182 37.9696C39.9968 37.6298 41.1108 35.8562 41.0178 36.1518C40.6283 37.3894 39.0091 40.9897 39.6613 39.824C40.2083 38.8464 41.6586 35.878 41.4053 36.9288C41.1878 37.831 40.0732 40.4243 40.6118 39.6115C41.2066 38.7137 42.4526 35.829 42.0697 36.7968C41.7385 37.6338 40.7823 40.1502 41.1839 39.3329C41.5263 38.6359 41.9136 36.5639 42.2635 37.2586C42.6213 37.9693 41.4607 39.1749 41.4607 39.934C41.4607 40.6 41.9783 37.4193 42.2727 38.0429C42.3817 38.2739 42.0477 40.1824 42.5495 39.4649C42.9032 38.9592 43.2018 37.5666 43.26 38.9078C43.2689 39.1123 43.2067 41.44 43.4353 40.3957C43.6152 39.5744 43.9774 39.5528 44.3488 39.5528C44.9478 39.5528 43.1422 39.4518 42.5864 39.2743C40.3081 38.5468 37.297 38.0659 35.2414 37.0021C34.1349 36.4294 33.7965 36.8871 32.6762 37.6031C31.2309 38.5269 29.9239 39.5675 28.5608 40.5643C27.2504 41.5226 28.6262 39.8953 28.8469 39.5675C29.0618 39.2481 31.762 35.3645 29.7419 37.046C27.9062 38.5741 26.428 40.3487 24.9806 42.1109C23.8124 43.5332 23.0372 44.6535 24.4639 42.4994C25.7305 40.5869 26.8557 38.6186 28.0164 36.6649C28.7568 35.4186 26.2723 38.52 26.1432 38.6733C24.5158 40.6058 22.8332 42.5131 21.3266 44.5077C20.064 46.1793 21.3092 44.2252 21.6034 43.7161C22.5192 42.1313 23.4397 40.5462 24.4454 38.9958C24.9855 38.1632 27.0404 35.949 26.0971 36.511C24.2704 37.5993 23.0645 40.6608 21.9909 42.1769C21.1153 43.4134 20.7005 43.9744 19.8133 45.1381C19.5515 45.4815 19.2832 45.8217 19.0197 46.1643C18.7372 46.5314 18.4497 47.586 18.1247 47.2417C17.6434 46.732 19.6881 43.2918 19.9517 42.7559C20.8951 40.8375 22.0999 39.0144 23.3012 37.1926C23.552 36.8124 24.5405 35.2599 23.7257 36.7016C22.0068 39.7426 20.1966 42.744 18.2077 45.6805C17.5793 46.6083 15.9856 49.4125 16.1039 48.3632C16.3514 46.1679 18.0839 43.6128 19.2135 41.6345C19.6833 40.8116 20.017 40.333 20.5422 39.5602C20.837 39.1265 21.989 38.0923 21.4004 38.2481C20.9892 38.357 20.8808 38.8011 20.6622 39.0984C19.3205 40.9226 18.1426 42.825 16.9343 44.7056C16.7871 44.9348 13.5405 50.5606 12.8558 50.3276C12.052 50.0539 15.8273 44.0602 15.9562 43.8554C17.1776 41.9151 21.0115 36.2263 20.2377 38.3068C19.5848 40.0623 17.9325 41.9284 16.9159 43.5329C15.6288 45.564 14.3311 47.5908 13.0127 49.6092C12.4539 50.4647 11.9462 51.1479 12.579 49.7998C14.0221 46.7256 19.6576 37.9416 17.8755 40.9015C16.1092 43.8352 14.3223 46.8176 12.1546 49.5799C9.97089 52.3625 15.1087 43.412 17.2942 40.6303C17.6678 40.1548 18.7594 38.7444 18.5584 39.2816C17.7855 41.3466 16.2112 43.3774 14.9966 45.2847C13.4798 47.6667 11.8741 50.1804 9.79235 52.2919C8.61069 53.4905 10.3946 50.1186 10.5121 49.9171C11.7799 47.7423 13.3819 45.6982 15.0427 43.7015C16.4204 42.0451 15.2059 43.882 14.8674 44.4198C12.6859 47.8856 5.64109 58.0665 7.68851 54.5495C8.69686 52.8174 12.1586 47.8203 10.752 49.3674C9.00141 51.2928 8.14802 53.704 6.58123 55.7223C5.75858 56.7819 7.74187 52.564 6.76578 53.6553C6.56865 53.8757 5.45144 55.4684 6.00913 54.6668C6.28315 54.2729 8.63701 51.6256 7.63315 52.5411C6.95536 53.1593 5.33179 55.8125 6.52587 53.6479C6.81593 53.1221 9.71139 48.9387 7.94688 50.9872C6.67914 52.4591 3.49521 57.1794 4.5143 55.5903C5.85431 53.5009 10.0205 47.2947 8.55589 49.3307C7.67026 50.5618 5.24165 54.3261 5.80613 52.9809C6.071 52.3497 7.36711 49.6246 7.15333 49.8878C6.12841 51.1497 4.289 55.244 4.21902 53.7432C4.19863 53.3059 5.56955 50.9035 4.87417 51.9254C4.28721 52.788 3.77023 54.8705 2.66883 55.3704C2.61873 55.3932 2.17917 56.0973 2.51196 55.4217C2.76941 54.8991 3.32727 54.4878 3.5362 53.9485C3.61278 53.7507 2.46332 55.1047 2.24437 55.3704C1.99898 55.6682 1.70048 56.568 2.11518 56.4332C2.92353 56.1706 3.8222 55.064 4.29284 54.5861C6.73139 52.1101 8.72795 49.3879 10.955 46.7946C11.4238 46.2488 17.5541 40.1794 16.7498 39.6115C16.6472 39.539 12.1439 45.5078 11.7855 46.047C10.6348 47.7775 14.8279 42.9346 15.9193 41.18C16.5149 40.2226 13.6722 43.8955 13.3541 44.3538C12.7079 45.2851 10.6592 48.0282 11.3795 47.1318C12.168 46.1504 12.8048 45.0493 13.4187 43.9947C13.6574 43.5846 15.0895 40.9259 14.6829 41.2973C13.0133 42.8225 9.23736 48.1274 10.5859 46.4135C12.2072 44.3529 13.6972 42.2241 15.3011 40.1539C15.5462 39.8374 15.9849 39.3612 15.5133 40.0659C14.5919 41.4429 13.5749 42.7646 12.4683 44.0533C11.8018 44.8295 9.90463 47.2006 10.4198 46.3548C11.1134 45.2162 11.9004 44.1094 12.7543 43.0418C13.2829 42.381 16.4032 38.5839 14.5814 41.2973C13.5733 42.7988 12.5251 44.282 11.4994 45.7758C10.3033 47.5176 11.7123 45.905 12.2284 45.2407C16.4004 39.8707 20.3814 34.0524 22.9875 28.0744C23.5341 26.8206 22.9457 27.2779 22.3047 27.8545C19.9269 29.9933 17.9608 32.4308 15.7901 34.7005C15.5019 35.0019 14.3108 36.5324 15.0889 35.2429C16.1354 33.5084 16.8549 31.6714 17.691 29.8702C18.2334 28.7017 18.8265 27.5622 19.4626 26.4252C20.0219 25.4257 18.1856 27.6988 18.1339 27.7666C16.3371 30.1221 14.6009 32.4988 12.7267 34.8178C12.5443 35.0434 10.758 37.3891 11.9146 35.712C13.4987 33.4154 18.0074 26.4537 16.1223 28.6022C13.5512 31.5325 11.3625 34.8911 9.10953 37.9843C8.51687 38.7979 9.10994 38.1368 9.38635 37.779C10.4649 36.3829 11.3757 34.9213 12.376 33.4911C13.333 32.1228 14.3698 30.7928 15.2919 29.4084C16.3099 27.88 14.3343 30.5713 14.3322 30.5739C12.5889 32.7054 10.6412 34.725 8.84193 36.8262C8.75705 36.9253 6.58973 39.7885 8.0207 38.1455C10.2034 35.6395 11.7327 32.7349 14.0739 30.3173C16.1039 28.221 10.7973 34.9486 8.72198 37.0167C7.44615 38.2882 8.96629 36.6638 9.22026 36.3571C10.8183 34.4269 12.404 32.4912 13.9262 30.5226C15.2624 28.7945 19.2787 23.7568 17.3403 25.0766C16.3718 25.736 15.8928 27.5401 15.4026 28.4116C14.6668 29.7196 13.7093 31.0196 13.1234 32.377C12.2389 34.4263 16.6257 29.0439 18.1339 27.2388C19.8658 25.1661 22.2036 22.912 23.2643 20.5248C23.4613 20.0814 23.0717 20.774 22.7753 20.774C22.459 20.774 22.3988 19.1744 21.4373 19.8578C20.907 20.2347 20.81 20.9505 20.2746 21.3311C19.9331 21.5738 19.2927 21.5303 18.8905 21.7269C17.8023 22.2588 15.962 21.9253 14.7198 22.2106C11.2964 22.997 18.0311 20.6422 16.4822 20.818C14.9302 20.9941 12.8683 20.9867 11.6747 21.8295C11.5724 21.9017 11.9195 20.8711 11.9331 20.7667C12.0027 20.2323 10.713 22.255 10.5029 22.5331C10.0709 23.105 11.727 20.0489 11.4256 20.6714C10.8514 21.8572 9.76911 22.8694 9.27562 24.0944C9.17572 24.3424 10.2026 23.7001 10.3829 23.6033C11.3219 23.0993 12.847 23.1256 13.9262 23.0755C15.425 23.006 17.2475 23.2948 18.6691 22.8557C19.3552 22.6437 19.2817 22.5331 18.4569 22.5331C16.2797 22.5331 14.3597 23.6242 12.2099 23.574C11.7473 23.5632 9.78778 23.8151 11.3426 24.0724C13.8492 24.4872 15.6782 23.7107 18.0324 23.3834C18.7638 23.2817 19.5611 23.4182 20.2746 23.2808C20.4276 23.2513 17.5422 23.0493 16.9712 23.0462C15.3074 23.0374 10.4907 24.087 12.1546 24.087C14.0285 24.087 16.175 23.3032 17.9955 22.9803C20.4342 22.5477 22.674 22.3519 25.1559 22.4525C27.57 22.5504 29.9839 22.4907 32.3994 22.5478C33.4628 22.5729 36.0469 23.0399 37.0869 22.4892C37.5567 22.2404 38.4285 22.3299 39.0154 22.1227C39.6893 21.8848 37.6512 20.5805 37.5852 20.4808C37.1006 19.7495 36.3619 18.0866 37.253 19.9238C37.4215 20.2711 38.6379 21.733 37.8251 21.1991C36.8723 20.5732 34.8471 18.6453 33.396 19.0295C31.7839 19.4564 30.3015 20.8719 29.1514 21.7855C26.4784 23.9088 24.0963 26.205 21.7879 28.5802C20.1824 30.2322 18.5078 31.8842 17.2665 33.733C16.5581 34.7881 16.5744 35.2348 17.9124 34.3927C18.8925 33.7759 19.7378 32.6485 20.856 32.2157C21.8579 31.828 20.9297 34.6318 20.9206 34.6565C19.8541 37.5518 15.1922 45.6922 17.4788 43.2837C19.5821 41.0681 24.8244 33.8674 23.3197 36.3717C20.4775 41.1021 10.1571 54.4966 12.8097 49.6972C13.8132 47.8815 15.186 46.1812 16.4545 44.4784C16.7789 44.043 17.9345 42.4521 16.8144 43.9507C15.5863 45.5936 14.4355 47.2715 13.188 48.9056C12.1211 50.3032 9.35596 54.5843 9.75544 52.9809C10.2696 50.9172 11.4427 48.8563 12.3576 46.8899C12.474 46.6396 13.489 44.5641 12.4683 46.0177C10.5994 48.6792 5.89975 57.0157 7.21792 54.1537C7.87373 52.7298 8.98254 51.3638 9.93999 50.0637C10.2189 49.6849 12.4146 47.2083 12.3668 47.447C11.9356 49.6 10.4161 52.1809 9.12798 54.0657C8.7905 54.5596 8.09733 55.039 7.92843 55.5757C7.65121 56.4565 9.42753 54.2047 10.1614 53.5087C11.0006 52.7129 12.5105 50.4882 11.0288 52.6144C10.4103 53.502 8.87946 56.2957 9.42326 55.3778C10.5621 53.4555 11.9795 51.246 13.7878 49.6899C14.7473 48.8642 12.854 52.7478 12.5052 53.2888C12.1168 53.8911 11.6642 54.3976 11.2134 54.9453C9.62724 56.8723 13.1381 51.754 11.0196 53.6773C10.2056 54.4162 9.03546 56.0301 7.64238 56.0301C6.1378 56.0301 8.07993 55.8134 7.72542 55.583C6.45167 54.7552 5.66239 55.6871 5.04949 55.7369C1.44777 56.0295 5.56264 55.5698 4.57889 55.5097C2.27408 55.3689 9.81331 53.9034 6.96878 54.7987C4.65518 55.5269 6.33922 55.4617 7.87306 55.6343C11.3563 56.0263 7.44169 55.3651 6.19368 55.2092C5.5845 55.1331 3.53885 54.5244 5.12331 54.7181C6.20718 54.8505 2.9454 55.4557 2.43814 56.228C1.58401 57.5284 7.5092 56.3167 5.2894 55.561C4.91782 55.4345 2.49242 55.4226 3.38856 55.7662C4.61978 56.2384 6.65539 56.3306 7.94688 56.0374C8.24593 55.9696 7.32938 55.9749 7.02414 55.9275C6.75942 55.8863 8.49818 55.5111 8.5928 55.4877C9.70175 55.2136 10.7821 54.8679 11.8962 54.6081C12.3207 54.5092 13.5746 54.6345 13.2065 54.4396C12.3715 53.9974 11.8484 54.2531 12.6159 53.2155C14.1829 51.0971 16.0443 49.0899 17.8571 47.1025C17.8577 47.1017 20.7021 44.09 20.0532 44.0826C18.906 44.0696 17.3273 46.0138 16.7867 46.5747C14.2852 49.1702 12.1165 52.0436 10.143 54.9087C7.96221 58.0746 15.3366 48.9859 17.9863 46.0543C18.5952 45.3806 22.7007 40.598 19.9978 43.7308C17.2774 46.8839 14.9034 50.2904 12.7267 53.6992C12.2681 54.4174 11.7809 55.1475 11.4533 55.9128C11.0726 56.8023 13.4388 54.2342 13.5571 54.1097C17.7373 49.7095 28.1596 35.357 24.4915 40.0366C20.8203 44.7203 16.9352 49.2877 13.2249 53.9485C12.0506 55.4237 13.8708 53.1864 14.0462 52.9589C16.4243 49.8735 18.6003 46.6457 20.8098 43.4816C21.363 42.6894 22.8896 40.2659 22.4892 41.1141C21.9017 42.3586 20.6693 43.6434 19.8317 44.7716C17.7788 47.537 15.7445 50.334 13.5387 53.0249C12.5687 54.2082 14.8343 49.9595 14.9228 49.7852C16.2243 47.2204 17.6332 44.7615 19.4626 42.4041C19.4744 42.3889 21.6724 39.7377 20.8652 40.5057C19.5917 41.7173 18.441 43.015 17.3219 44.3172C16.044 45.8042 11.7867 49.8502 13.7048 48.8909C15.8631 47.8114 17.3644 44.8199 18.7614 43.2324C19.8934 41.9459 22.9313 38.1118 22.6276 39.6628C22.2991 41.3402 20.6348 43.173 19.6287 44.6104C18.3235 46.475 16.9593 48.3132 15.661 50.181C14.9153 51.2536 14.2764 52.1675 14.203 53.3914C14.1509 54.2613 13.3726 54.9544 13.3726 55.8322C13.3726 56.3749 15.2735 54.8102 15.2919 54.7914C18.1572 51.8482 19.8768 48.4243 22.0278 45.1528C23.7622 42.5149 25.896 40.0746 27.9703 37.6031C29.9419 35.2539 24.893 42.6957 23.2089 45.1821C21.4839 47.7289 19.8455 51.676 16.7498 53.4794C15.4976 54.2088 13.7445 55.7009 15.4764 53.3328C16.8346 51.4756 18.4471 49.7239 19.7764 47.8501C20.0966 47.3987 20.9625 46.0522 20.4776 46.3988C19.0775 47.3998 18.061 49.422 17.1373 50.6794C16.138 52.0397 15.2114 53.4325 14.2584 54.8134C13.9265 55.2944 12.6806 56.4601 13.3357 56.2866C14.0877 56.0875 14.1568 54.5386 15.0335 54.1903C16.2396 53.7113 13.8211 58.6453 16.1592 54.6521C18.4544 50.7323 21.3354 47.2597 24.0948 43.5402C25.0597 42.2395 25.9044 40.892 26.9737 39.6408C28.1179 38.3019 27.1423 39.9031 26.8538 40.4177C24.8235 44.0393 21.8878 47.2351 19.5549 50.7234C18.9991 51.5545 18.2381 52.5443 17.9401 53.4647C17.7366 54.0935 17.4495 54.7245 17.1004 55.3118C16.5999 56.1537 18.6761 53.9228 19.315 53.1422C21.9916 49.872 23.9056 46.2657 26.4293 42.9245C26.8881 42.3171 29.2981 38.7444 27.5181 41.0921C24.1955 45.4743 20.634 50.0077 18.1893 54.7547C18.1509 54.8292 17.7064 55.5636 17.9309 55.3704C20.5616 53.1066 22.1818 50.0712 24.0025 47.3957C25.8521 44.6776 27.9915 42.1259 29.8803 39.4355C31.1742 37.5926 28.5667 42.2839 28.4593 42.4627C26.0918 46.4075 22.0932 50.0417 20.4776 54.2416C20.3518 54.5689 19.1858 56.0596 19.1858 55.6196C19.1858 54.5373 20.2677 53.223 20.8283 52.2919C22.2039 50.0072 23.8619 47.8395 25.4604 45.6512C26.7599 43.8722 28.0151 42.0743 29.4466 40.3591C29.8836 39.8355 30.7754 38.1697 30.7754 38.7979C30.7754 39.2485 29.8523 40.2237 29.6404 40.535C27.8528 43.161 25.9557 45.7246 23.8549 48.2019C22.2752 50.0647 20.5279 51.8419 18.8167 53.6259C17.7547 54.7332 19.2169 50.3175 19.3611 50.005C20.2614 48.0546 21.4024 45.8836 23.0429 44.2439C23.8755 43.4115 24.4207 43.2367 23.901 44.5077C22.6573 47.5494 20.6053 50.4535 18.3923 53.1129C16.9036 54.9018 20.61 48.9987 22.7476 47.6888C24.3187 46.7261 23.3622 48.5615 23.0982 49.0595C22.2307 50.6961 21.2761 52.3102 20.33 53.9191C19.3753 55.5428 20.7864 52.9155 20.8652 52.7684C22.2731 50.1379 23.892 47.6046 25.7742 45.1674C27.2575 43.2466 28.8303 41.3676 30.4063 39.4942C30.9019 38.9051 31.4444 38.0066 32.1687 37.5591C33.2038 36.9196 31.1127 39.4681 30.4986 40.3884C28.5828 43.2593 26.4782 46.0547 24.4823 48.8909C23.1819 50.7388 22.0539 52.5463 21.0128 54.4909C20.7049 55.066 20.2486 56.3076 21.0313 54.9453C24.3465 49.1751 28.7827 43.5215 33.7466 38.5926C34.4624 37.8819 32.4406 40.0919 31.8827 40.8868C30.403 42.9953 29.1128 45.1861 27.8319 47.3737C26.6823 49.337 25.4055 51.2133 24.2055 53.1495C23.9629 53.541 21.3375 57.1496 22.0832 55.561C24.0053 51.4664 26.5403 47.7466 29.4836 44.0533C31.1117 42.0102 32.6713 39.8593 34.5032 37.9256C35.0425 37.3565 33.8893 39.2675 33.4882 39.9047C30.6511 44.412 27.7964 49.5499 23.8364 53.5233C23.493 53.8679 23.3825 55.0284 23.0429 54.6814C22.8728 54.5078 23.4383 53.7652 23.495 53.6699C24.7242 51.6055 25.9466 49.5335 27.2505 47.4983C28.6766 45.2724 30.7831 43.4924 32.7131 41.5465C35.2206 39.0185 28.726 47.1578 26.4662 49.8291C25.484 50.9903 24.4342 52.1184 23.4581 53.2814C23.0786 53.7337 24.3162 52.6242 24.3347 52.5998C27.3368 48.6323 29.6467 44.2702 32.99 40.4764C35.5177 37.6079 32.7179 41.9303 32.1503 42.7852C30.3709 45.4649 28.5061 48.1118 26.6046 50.738C26.0012 51.5714 25.8654 51.6443 26.4847 50.6794C28.8535 46.9884 31.9769 43.6375 34.9923 40.2711C37.4932 37.4792 31.2006 46.4294 29.1421 49.4407C27.7078 51.539 26.4217 53.9801 24.5746 55.8835C22.2664 58.2621 27.4108 50.2781 29.4466 47.7475C30.7192 46.1657 32.1149 44.6315 33.5067 43.1151C34.1899 42.3707 35.8632 40.1138 35.7951 41.0334C35.7143 42.1237 34.0443 43.6145 33.3037 44.4051C31.578 46.2473 29.7817 48.0068 27.7027 49.6019C27.4947 49.7615 26.1986 50.5504 26.1986 50.9066C26.1986 51.9402 27.7046 49.2204 28.4316 48.3632C30.5216 45.899 32.4459 43.2833 34.8447 40.9968C36.8118 39.1217 34.5739 42.6554 34.4479 42.8512C32.9253 45.2165 31.3106 47.5833 29.3636 49.7485C29.173 49.9604 27.8251 51.691 27.3059 51.6616C27.094 51.6496 27.4502 51.3432 27.5458 51.1925C28.0609 50.3801 28.628 49.5919 29.2436 48.825C30.6604 47.0601 32.1254 45.1758 33.9127 43.6282C34.6928 42.9526 34.4005 43.8225 34.2264 44.1559C32.9525 46.5964 30.8438 48.8642 29.0406 51.0679C28.677 51.5122 25.8051 55.7318 25.1098 55.649C24.8515 55.6182 25.2283 55.2442 25.3128 55.0479C25.7125 54.1194 26.1417 53.1989 26.54 52.2699C26.615 52.095 27.5198 50.5055 27.2782 50.2176C27.1787 50.099 24.4362 52.7631 24.2793 52.9223C24.256 52.946 22.2 55.1078 22.48 55.1872C23.0514 55.3493 24.5451 53.9078 24.8514 53.6113C26.8365 51.6895 23.6894 54.4995 23.1813 55.0259C22.2457 55.9953 25.7927 53.6105 26.6138 52.5778C26.8084 52.3331 24.3216 54.6028 25.5342 53.9338C27.5727 52.8093 26.4379 52.7399 25.3681 54.227C24.5365 55.3831 26.2125 54.4654 26.2909 53.7432C26.38 52.9225 23.4284 54.1777 24.021 54.4762C25.0201 54.9795 25.3114 54.7532 23.5688 55.1579C23.0043 55.2889 21.2386 55.4077 21.8248 55.3704C22.9474 55.2991 24.0965 55.1768 25.119 54.7767C27.0374 54.0262 24.4283 54.2506 23.7441 54.6081C23.3442 54.8171 25.9736 54.4425 25.0729 54.2563C22.7645 53.7791 23.8831 51.8221 25.0729 50.7527C26.3381 49.6154 20.4282 55.5734 21.6218 54.3882C22.0558 53.9574 24.4306 50.8719 22.6645 52.3066C22.1706 52.7079 20.872 53.9338 21.5296 53.7286C22.3475 53.4733 23.2305 52.221 23.818 51.7129C24.7493 50.9073 22.4359 55.186 23.3381 54.7694C24.8816 54.0565 26.0423 52.6206 27.1213 51.5296C28.2641 50.3743 26.9473 51.8253 26.7153 52.1893C26.3374 52.7823 25.9188 53.6002 25.9772 54.2856C25.9904 54.4413 28.0034 51.9975 28.2102 51.7202C28.2274 51.6971 30.1783 48.8596 29.3544 50.2543C28.4974 51.7048 27.3512 53.2564 26.8722 54.8207C26.6391 55.5821 27.8768 53.4719 28.3947 52.805C28.7316 52.3713 29.7213 51.0746 28.9299 52.4312C28.2672 53.5672 27.531 54.7436 27.1767 55.9715C26.8918 56.9592 28.2297 54.1252 28.7915 53.2155C28.8025 53.1977 29.8983 51.491 29.7327 52.05C29.3345 53.3945 28.6806 54.6956 28.1733 56.0154C27.937 56.6302 30.0456 51.4562 30.517 51.5443C30.5331 51.5473 29.1999 56.3503 30.0372 54.7914C30.1914 54.5044 31.3886 51.7498 31.6243 51.7642C31.6314 51.7646 31.2677 53.6929 31.2368 53.8825C31.043 55.0698 31.6747 51.7074 32.0303 51.1778C32.424 50.5915 31.8905 52.5022 31.8181 53.1642C31.7837 53.4781 31.5022 55.2337 31.7904 53.7725C32.0513 52.4496 32.483 51.1534 32.7593 49.8365C32.9592 48.8833 32.0803 51.6924 31.7166 52.6144C31.1149 54.1397 30.8683 54.198 30.84 52.4092C30.81 50.5185 31.0912 48.6942 31.3659 46.8239C31.5732 45.4124 30.8536 47.3769 30.8123 47.4836C30.2042 49.0552 29.6534 50.6499 28.8469 52.1673C26.9058 55.8191 32.9388 44.931 35.2599 41.4219C37.2246 38.4516 32.6637 47.8121 31.6058 51.0605C30.946 53.0869 31.8467 51.4531 32.261 50.694C33.6238 48.1972 34.8826 45.6623 36.1826 43.1444C36.3658 42.7896 37.0211 41.3639 36.4594 42.8952C35.6322 45.1506 34.6979 47.3746 33.6543 49.5726C33.3266 50.2629 31.765 53.4873 32.787 50.6647C33.7609 47.9746 34.9127 45.3315 35.9612 42.6606C36.0481 42.4393 36.3678 41.9283 36.0811 41.9716C35.4344 42.0695 34.2898 44.1698 34.1526 44.3758C32.4985 46.8591 30.96 49.3591 29.0776 51.7422C26.9706 54.4095 28.4805 51.7624 29.0776 50.5768C30.3728 48.0046 31.8565 45.5002 33.682 43.1371C33.7074 43.1042 34.516 41.8779 34.4756 42.6167C34.3607 44.715 33.4798 46.8507 32.8423 48.8763C32.8163 48.9591 31.7956 51.7329 32.5378 50.9872C33.6668 49.8531 34.4252 48.4756 35.1492 47.1611C35.9372 45.7304 36.7091 44.2885 37.456 42.8439C37.8045 42.1698 37.4296 42.7709 37.3268 43.0125C36.6817 44.5284 37.5233 41.1075 37.6221 40.7109C37.9225 39.505 37.6811 42.8219 37.2253 43.379C37.2023 43.4071 36.6849 38.7058 37.0684 39.0104C37.5985 39.4315 39.3003 42.9794 38.7571 43.357C38.3978 43.6066 37.8248 40.6104 38.2496 41.4806C39.066 43.1531 40.6202 48.3768 39.7075 46.736C39.2152 45.8511 38.8668 44.8421 38.4895 43.9214C38.4774 43.892 37.89 41.9161 38.4895 42.1769C39.7355 42.7189 39.9474 46.4864 39.9474 45.358C39.9474 44.8846 39.6454 43.668 39.9843 43.2763C40.6303 42.5299 40.5208 45.0473 40.5841 45.9517C40.7528 48.3646 40.2299 47.5864 40.1873 45.7245C40.1806 45.4322 40.4635 44.1794 39.9474 44.9842C39.1183 46.277 37.9092 47.5156 36.4779 48.4218C32.8151 50.7408 35.3558 46.7276 35.5921 45.4606C35.7815 44.4448 35.2966 44.6944 36.5886 43.9214C38.7549 42.6252 35.1833 45.6745 34.8262 46.1203C33.8963 47.281 36.5859 45.3478 36.93 44.9035C37.0973 44.6876 36.42 45.1916 36.4133 45.1967C35.7799 45.6798 37.0406 44.7666 37.1423 44.669C38.3789 43.4815 36.5808 44.4541 36.441 44.8889C36.2493 45.4853 38.7965 44.296 38.1296 44.7276C36.6343 45.6955 34.2901 48.202 37.8436 46.5381C41.6932 44.7355 36.4349 46.4135 36.7732 46.6554C37.6834 47.3061 40.6435 44.3394 37.0315 46.2522C35.7679 46.9214 39.4235 45.5164 38.5448 45.1674C38.0548 44.9728 36.5966 45.6361 37.1054 45.7978C37.3323 45.8699 39.1934 45.1249 39.1538 44.9915C38.9858 44.4243 33.5389 48.2522 36.6071 46.9925C37.6076 46.5817 38.807 46.0187 39.5598 45.3287C40.4917 44.4746 37.2018 46.6219 36.2195 47.4396C36.0918 47.546 33.2422 50.3017 33.5344 50.3349C35.0897 50.5114 38.1036 47.8954 39.1538 47.1318C40.8553 45.8948 39.3685 46.9635 38.6463 47.4909C37.112 48.6117 35.6565 49.756 34.2818 51.0019C32.6246 52.5038 34.1838 50.8953 34.7432 50.3349C36.2874 48.7877 37.9618 47.3179 39.6521 45.8711C41.3344 44.4311 38.9034 45.8654 37.9727 46.3255C35.8922 47.3542 30.594 51.0782 32.9715 50.6061C34.509 50.3008 36.1361 48.7432 37.2161 47.9087C37.713 47.5248 40.4188 45.5938 40.0581 45.9004C37.2298 48.3048 28.5383 55.3199 31.7535 53.2448C34.5736 51.4246 36.316 48.7072 39.0247 46.7946C41.8161 44.8236 30.0338 56.2414 32.6024 54.0877C35.5062 51.6529 37.885 48.8287 40.8978 46.4355C43.5453 44.3324 36.0309 50.9754 33.9681 53.4574C33.6514 53.8384 32.5905 55.492 33.9681 54.3589C35.6865 52.9455 37.127 51.3543 38.388 49.6679C38.8988 48.9846 40.3378 47.0972 39.4307 47.4323C37.6702 48.0827 36.2311 50.0011 35.1307 51.1925C33.8355 52.5948 36.2165 49.9996 36.3579 49.7998C36.4626 49.652 38.0942 46.9437 37.8805 46.9119C37.4421 46.8466 34.7751 51.6719 34.9185 50.9506C35.1829 49.6203 35.6029 48.2406 36.4041 47.0438C37.0015 46.1514 36.6196 48.5817 36.5886 48.7223C36.5409 48.9395 35.9254 50.67 35.9335 50.3422C35.9632 49.1374 36.2756 47.8978 36.4964 46.7067C36.8152 44.9864 36.2424 46.5349 35.9243 47.293C35.0894 49.2826 34.2197 51.2441 33.1745 53.1715C33.0852 53.3361 32.8288 53.8299 32.8792 53.6553C33.1292 52.79 33.4927 51.9212 33.8204 51.0752C34.1237 50.2923 35.1325 47.9703 34.8539 48.759C34.3194 50.2723 33.8355 51.7945 33.2483 53.2961C32.8204 54.3906 32.522 54.9919 32.8423 53.582C33.4084 51.0899 31.8544 53.8396 31.1076 54.6081C29.6501 56.108 28.3044 54.2799 30.4801 53.6699C33.3023 52.8787 29.4311 55.1882 28.8745 55.605C27.5411 56.6037 32.0685 53.6515 30.923 53.9191C30.3918 54.0433 31.3846 53.9198 31.532 53.8605C33.5367 53.0547 35.4374 51.8722 36.8378 50.4742C37.0028 50.3094 38.1267 48.4246 37.1607 49.3454C36.1635 50.296 35.8234 51.8299 35.5828 53.0102C34.8139 56.783 36.9208 51.8157 36.9208 50.5768C36.9208 49.1756 35.3389 56.0386 35.7397 54.6741C36.2618 52.8967 35.9842 51.7196 34.5586 53.9045C33.0224 56.259 33.4855 54.9218 35.0753 53.6259C37.2119 51.8845 34.4183 53.688 34.2818 54.7181C33.9938 56.8917 37.7206 51.1505 38.388 49.0302C38.9477 47.2518 36.4853 56.1103 37.5667 54.4909C38.5874 52.9624 38.8794 51.0425 39.5598 49.404C40.2225 47.8083 39.4406 49.8342 39.3199 50.181C38.8547 51.5177 38.4813 52.8768 38.0835 54.227C38.0495 54.3421 38.7691 51.9546 38.9508 51.427C39.1838 50.7507 39.9393 48.627 39.6706 50.6647C39.6121 51.1084 39.0524 54.3009 39.3015 53.2741C39.7412 51.4612 40.2061 49.6506 40.6302 47.8354C41.1568 45.5817 39.9143 48.7335 39.7352 49.1401C39.36 49.9915 38.2967 54.2544 37.253 54.5788C36.8828 54.6939 37.3363 53.9495 37.4191 53.6406C37.7022 52.5841 38.0947 51.5566 38.5541 50.5401C39.0565 49.4284 41.0169 47.0377 40.8517 45.8564C40.7947 45.4492 40.3762 46.584 40.1596 46.9559C39.283 48.4612 38.4615 49.9871 37.5667 51.4857C36.4855 53.2966 36.3492 52.8104 36.847 51.2658C37.176 50.2448 38.4741 47.2669 37.8989 48.2166C37.1834 49.398 36.5706 50.6312 35.9243 51.8375C34.9142 53.7225 36.9388 50.4381 36.9946 50.3422C37.7161 49.1028 38.9695 45.1853 40.907 44.4857C41.6567 44.2151 40.8904 49.4716 40.7133 50.0197C40.2542 51.4401 40.7994 49.7282 40.9439 49.3454C41.2667 48.4907 41.5436 47.5378 41.9959 46.7213C42.9022 45.0851 41.5015 50.3012 40.7963 51.9987C40.7146 52.1954 39.561 55.2316 39.6337 54.3076C39.7586 52.7197 40.2189 51.1986 40.9255 49.7119C42.2933 46.8339 40.3571 51.9904 40.1319 52.6218C39.8601 53.3839 38.9673 55.5903 38.9324 54.7987C38.885 53.7269 39.5812 52.413 40.0489 51.4344C41.7395 47.8969 41.0954 52.0516 40.5564 53.4354C39.9765 54.9242 40.4057 53.3818 40.6025 52.8637C41.1766 51.3524 41.854 49.8119 42.771 48.4072C43.6284 47.0936 42.6918 49.7458 42.6695 49.8291C42.6052 50.069 41.5887 53.453 41.8298 52.4239C42.1619 51.0057 42.68 49.6503 43.2692 48.2899C43.4907 47.7785 44.2333 45.819 43.8598 47.5716C43.4187 49.6408 41.3499 55.6712 41.4699 53.5746C41.551 52.1579 42.4493 50.6972 43.1401 49.4187C43.1893 49.3275 44.2954 47.6793 43.8967 48.8909C43.3536 50.5414 42.6 52.1634 41.8667 53.7652C41.0203 55.6142 41.6307 53.9272 41.9774 53.1862C42.3032 52.4899 43.3777 49.2782 44.5888 49.0742C45.0436 48.9975 43.2107 53.4157 42.9371 53.8752C42.3873 54.7983 45.2765 49.2536 45.1055 50.1443C44.8328 51.5645 43.9631 53.0278 43.2323 54.3296C42.7641 55.1636 43.8058 52.804 43.9152 52.6218C44.1957 52.1542 45.9515 50.1365 45.9452 50.181C45.7915 51.2675 45.0853 52.434 44.478 53.3987C43.549 54.8746 46.202 49.553 46.5911 50.115C46.9499 50.6332 46.0992 52.1738 45.9083 52.6584C45.8673 52.7625 44.6078 55.5009 45.207 54.1537C45.8025 52.8147 46.3074 51.2077 47.3293 50.027C48.0037 49.2478 46.9621 51.897 46.7018 52.8197C46.199 54.6023 47.6854 49.9395 47.4954 50.4961C46.9931 51.9674 46.2504 53.3813 45.7053 54.8427C45.5181 55.3444 46.064 53.8352 46.2774 53.3401C47.4276 50.6712 46.8724 52.1745 47.6615 53.2888C47.92 53.6538 49.5355 49.8298 47.7168 52.5265C46.4545 54.3982 47.22 50.4528 47.4216 49.7412C47.723 48.6768 47.3486 54.079 47.6246 53.0102C47.9311 51.8232 48.1816 49.5893 48.7318 52.2553C48.9065 53.1017 49.1594 55.5952 48.6765 54.828C48.0046 53.7606 48.3939 51.8572 48.6672 50.738C48.8972 49.7967 49.8789 54.4377 49.4147 53.5527C48.6737 52.14 49.8119 50.7521 50.3374 53.0249C50.5977 54.1508 49.7878 51.803 50.4943 52.5118C51.175 53.1948 51.3495 56.0027 50.7803 53.9118C50.729 53.7233 51.4204 54.3871 50.2174 54.5128C47.8613 54.7591 49.9441 54.0754 49.7469 53.9411C48.8303 53.317 49.0104 54.4494 48.9164 53.1422C48.8005 51.5319 47.2018 50.7393 45.8714 49.7705C44.7923 48.9848 43.8338 47.964 42.9371 47.0438C42.6983 46.7989 40.9087 44.2163 42.0143 45.38C43.708 47.1626 48.588 52.6279 46.9786 50.7967C45.822 49.4806 44.428 48.3082 43.3154 46.9632C42.8417 46.3907 41.3776 44.8386 42.162 45.1234C43.2109 45.5043 44.055 46.7628 44.6257 47.4836C44.7063 47.5854 46.0465 49.486 45.0409 48.4511C44.6436 48.0423 40.0977 42.6968 40.5564 42.5434C40.9344 42.4169 41.6631 43.8093 40.6118 41.7811C40.2735 41.1284 39.9359 40.4608 39.7259 39.7727C39.4399 38.8356 40.5053 41.5994 40.8609 42.5214C41.228 43.4732 41.9124 44.6607 41.9682 45.6805C42.0135 46.5082 40.8414 44.2854 40.3165 43.5695C39.6418 42.6494 38.6844 41.5612 38.5171 40.4764C38.3922 39.666 40.7078 42.4284 40.8517 42.602C41.9857 43.9703 43.0737 45.3649 44.1735 46.7506C44.2984 46.908 44.6689 47.3807 44.5242 47.2344C43.8632 46.5662 43.2998 45.794 42.7341 45.0795C42.203 44.4088 38.4583 38.8854 40.2427 42.4481C41.042 44.044 42.0432 45.5556 43.0847 47.0585C43.5705 47.7595 43.8752 48.4304 43.057 47.3077C41.7815 45.5577 40.5647 43.7443 39.5229 41.8983C38.7409 40.5126 39.9341 41.884 40.3442 42.3455C42.2504 44.4906 45.0278 47.4914 45.7053 50.1223C45.9605 51.1135 42.4344 49.8338 42.328 49.7998C41.0467 49.3909 39.7344 48.8522 38.3972 48.5684C37.3267 48.3412 40.9812 51.0334 41.3869 51.3024C43.1156 52.4487 43.7822 52.6168 45.8621 52.7464C46.4434 52.7826 46.9726 52.9797 47.5415 53.0249C48.3731 53.091 46.6309 51.372 46.5357 51.2658C45.9088 50.5662 43.611 46.6862 45.6868 49.0082C46.4163 49.8242 44.8295 47.2441 45.207 47.8208C45.9537 48.9614 45.754 49.682 45.6314 48.1726C45.5713 47.4317 47.2506 49.2966 46.5542 48.5171C45.9481 47.8387 45.1977 47.4903 44.6718 46.8386C42.8476 44.578 40.8787 42.0049 39.606 39.5162C39.4256 39.1635 38.9063 38.0986 39.08 38.4534C39.8921 40.1121 40.4295 41.8931 40.9809 43.6135C41.5867 45.504 41.8856 46.0449 39.6244 44.8522C37.782 43.8805 35.2832 42.8399 32.9715 43.4962C30.1158 44.307 29.5924 48.9762 29.2806 50.9579C29.0566 52.3809 29.6819 52.6511 29.9818 51.0166C30.0683 50.5452 30.9212 44.7291 29.8157 45.6072" stroke="black" stroke-linecap="round" stroke-linejoin="round"/>
<path id="Vector 246" d="M26.3278 51.0165C25.7706 52.8043 25.1481 54.5291 24.3532 56.2573C24.1712 56.6529 23.9656 57.5254 23.5412 57.8625C22.5799 58.6261 24.9036 55.9891 25.4605 55.0039C25.915 54.1997 26.4036 52.977 25.5896 54.5934C24.6559 56.4477 23.3718 58.1749 22.5815 60.0761C21.8848 61.7523 24.2209 59.1073 24.427 58.8593C25.5759 57.4771 26.671 55.8331 27.2875 54.2416C27.5855 53.4723 26.8609 55.8222 26.4939 56.5725C25.931 57.7233 23.9487 59.9966 24.1686 61.2195C24.2399 61.6159 24.5066 60.4651 24.6854 60.0907C25.1392 59.1402 25.681 58.2199 26.1987 57.2908C26.5518 56.6568 27.8712 53.8886 26.7523 56.0447C25.716 58.0417 24.2528 59.8891 22.8768 61.7473C22.8427 61.7933 24.0262 59.7722 24.2609 59.1819C24.555 58.442 24.9592 56.5162 25.6635 55.9568C26.5193 55.2769 25.1825 57.8426 24.8699 58.7714C23.7119 62.2123 25.5598 56.7484 25.3313 56.7484C24.4482 56.7484 22.5115 63.9883 23.7995 59.8562C24.0735 58.9773 24.3347 56.2681 24.3347 57.1735C24.3347 58.253 23.7015 59.3852 24.1686 60.4572C24.9061 62.1495 26.9066 53.7273 26.8261 55.517C26.6989 58.3461 22.1222 66.204 23.412 63.565C24.489 61.3614 25.6537 59.1973 26.9922 57.0855C27.4985 56.2868 28.9679 53.9541 27.878 56.2353C26.5937 58.9235 24.7663 61.3414 22.9875 63.8289C21.5726 65.8077 23.6333 62.7274 23.9287 62.2897C25.6254 59.7756 27.0636 57.17 28.893 54.7107C30.2741 52.8542 28.5547 55.8516 28.321 56.2939C26.6533 59.4494 23.9319 62.5358 22.7476 65.8079C22.4828 66.5397 24.4202 63.9089 24.5746 63.653C26.0261 61.2478 27.3899 58.7316 29.1514 56.4552C30.7785 54.3525 29.0989 57.4184 28.7823 57.9651C26.8673 61.2721 23.8962 64.7675 22.8768 68.344C22.4886 69.706 24.7286 65.9643 25.4974 64.7085C27.1976 61.9308 32.4529 53.6681 30.9415 56.5138C28.6731 60.7851 21.1004 73.2877 24.1317 69.3262C27.0671 65.4901 28.4958 60.8646 31.6428 57.1149C35.4705 52.554 26.4033 67.2901 22.9875 72.0529C21.3303 74.3636 22.9946 71.7632 23.5412 70.8948C25.5698 67.6719 27.5906 64.4798 29.8711 61.3661C30.3374 60.7296 31.9956 59.1755 31.1076 59.3871C30.2757 59.5853 28.5425 63.5243 28.1918 64.1074C27.1904 65.7724 26.2877 67.4834 25.3959 69.187C25.1685 69.6213 24.4857 70.5949 24.7038 71.1147C24.7844 71.3068 25.7557 70.1665 25.765 70.1545C26.6919 68.9512 27.2798 67.5963 28.0257 66.321C28.9432 64.7521 29.9583 63.2208 30.9138 61.6666C31.1484 61.2852 31.7351 60.592 31.7351 60.1347C31.7351 59.6108 31.2069 61.095 30.9323 61.5714C29.8717 63.4116 28.7185 65.2206 27.6012 67.0393C26.4152 68.97 25.2206 70.8976 24.0579 72.8372C23.6775 73.4718 22.2623 74.9916 23.1167 74.8089C23.8 74.6627 24.432 73.603 24.713 73.1963C25.9812 71.3616 26.8934 69.3829 28.0626 67.5084C29.2673 65.577 30.5373 63.6624 31.8181 61.7619C31.8202 61.7589 32.9552 60.1752 32.7685 60.1347C32.0261 59.9739 27.1811 68.3038 26.8815 68.7985C25.7854 70.6083 22.1594 75.7746 23.9472 74.3544C24.8399 73.6453 25.4139 72.6089 25.9864 71.7377C27.3435 69.6728 28.7268 67.6302 30.2033 65.6174C31.0101 64.5176 31.835 63.4313 32.6763 62.3483C32.9945 61.9386 33.1608 61.6419 32.6947 62.2457C30.0927 65.6163 27.8261 69.2048 25.6081 72.7419C24.9487 73.7934 23.0487 77.2109 25.1836 74.3398C27.4671 71.269 29.991 68.2367 32.0304 65.0603C32.2082 64.7833 34.2525 61.1304 33.1007 62.4802C30.5164 65.5091 28.7085 69.2437 26.7062 72.5293C26.0055 73.679 24.3703 77.1755 26.3463 74.1932C28.3587 71.1559 30.6155 68.2212 32.8885 65.3022C32.952 65.2206 33.9199 63.6677 34.0973 63.6677C34.8869 63.6677 33.385 64.7875 33.0085 65.3388C30.2653 69.355 27.4572 73.323 24.9714 77.4476C23.0804 80.5854 26.6829 75.7714 27.1398 75.1021C28.8711 72.566 31.548 70.2043 32.8424 67.4938C33.576 65.9574 30.6456 70.2788 29.5482 71.6717C28.4203 73.1034 27.2066 74.4923 26.1064 75.9377C25.3617 76.916 25.9819 76.1072 26.2817 75.6445C27.9393 73.0863 30.2691 70.8457 32.2703 68.4613C34.004 66.3955 32.2169 69.092 31.7628 69.876C29.7542 73.3432 27.2789 76.6445 25.3959 80.1596C25.0089 80.8819 25.6116 80.1374 25.7373 79.9544C26.4321 78.9426 27.0265 77.8916 27.675 76.8612C28.9255 74.8747 30.2891 72.9088 31.6982 70.9901C32.7034 69.6212 29.9667 73.8495 29.2529 75.3293C29.0651 75.7186 28.0705 77.056 28.2656 77.5209C28.3885 77.8138 29.3894 76.6508 29.4006 76.634C30.3509 75.1972 31.5797 73.5524 32.0119 71.9503C32.4435 70.3505 30.544 75.0095 29.9173 76.568C28.9285 79.0269 31.1679 76.0833 31.5505 75.3586C32.0736 74.3677 33.6768 71.4072 33.11 72.3827C32.1516 74.0321 31.2921 75.9639 31.0246 77.7701C30.8406 79.0121 31.9004 76.5069 31.9658 76.2895C32.0289 76.0795 32.8101 73.7957 32.2887 74.8016C32.1151 75.1364 31.0677 77.5 31.8919 77.6455C32.2225 77.7038 32.5258 77.1544 32.1134 77.1544C30.2742 77.1544 28.296 78.1952 26.3371 78.1952C25.7349 78.1952 25.0226 78.1267 24.4547 78.3272C23.5017 78.6636 26.4546 78.8322 27.4905 78.9282C28.2212 78.9959 30.3577 79.3826 29.622 79.3826C28.668 79.3826 27.558 79.1856 26.6693 78.9209C26.2564 78.7979 24.9738 78.7873 25.3866 78.6643C26.2927 78.3944 28.2356 78.723 29.216 78.723C30.3654 78.723 31.4765 78.7925 32.5379 78.3931C33.3282 78.0957 30.0468 77.8614 29.7327 77.88C28.3055 77.9647 26.8613 78.4591 25.4512 78.4591C24.3825 78.4591 27.5844 78.591 28.6531 78.591C29.5578 78.591 32.1022 78.9428 31.366 78.5251C30.482 78.0235 27.8322 78.5263 26.8446 78.657C22.7375 79.2007 26.547 79.0382 28.3948 78.7889C29.7584 78.605 30.8663 78.2971 31.9658 78.1879C33.1879 78.0666 32.8055 77.3549 32.8055 76.4874C32.8055 69.8629 33.292 63.1828 31.7351 56.6458C31.5926 56.0474 31.4767 55.4229 31.4767 54.8133C31.4767 53.2667 31.4903 57.9066 31.4675 59.4531C31.389 64.7838 31.4838 70.2451 30.9784 75.5638C30.8737 76.6663 30.7118 77.7994 29.0407 77.7994C27.1438 77.7994 24.9055 78.0871 24.3532 76.2382C23.9241 74.8019 24.1686 69.9508 24.1686 74.4204C24.1686 75.5136 23.8364 78.7827 23.8364 77.6895C23.8364 77.0207 23.9246 76.0849 24.2517 75.4612C24.5409 74.9098 24.3641 76.6615 24.5746 77.235C24.705 77.5899 24.9991 77.7474 24.9991 77.2643C24.9991 77.1442 24.9619 75.9583 25.239 76.3042C25.7191 76.9035 24.9581 77.832 26.1617 76.8759" stroke="black" stroke-linecap="round" stroke-linejoin="round"/>
</g>
</svg>
