<svg width="538" height="252" viewBox="0 0 538 252" fill="none" xmlns="http://www.w3.org/2000/svg">
<g id="CO2inTons">
<path id="Rectangle 3463121" d="M345.494 5.99998L345.51 6.00008L345.526 5.99966L531.035 1.18124C534.099 1.10168 536.512 3.7711 536.125 6.81082L533.57 26.8902C533.522 27.2657 533.505 27.6444 533.518 28.0226L537 126V126.018V241.867C537 245.667 532.928 248.078 529.596 246.251L524.359 243.379C523.305 242.801 522.12 242.504 520.917 242.517L17.4816 247.995C17.0992 247.999 16.7178 248.034 16.3412 248.101L8.05262 249.563C4.68494 250.158 1.72783 247.272 2.24012 243.891L3.41621 236.128C3.47251 235.757 3.4988 235.381 3.49481 235.005L1.07529 7.08661C1.04244 3.9929 3.79879 1.6122 6.85482 2.09473L18.3973 3.91722C18.7443 3.97201 19.0949 4.0006 19.4461 4.00275L345.494 5.99998Z" fill="white" stroke="black" stroke-width="2"/>
<rect id="fogPlaceHolder" x="42" y="56" width="324" height="173" rx="6" fill="white"/>
<path id="Which produced around tons of CO2." d="M46.262 37.084C45.9353 37.084 45.7207 36.9253 45.618 36.608L43.182 28.614C43.1353 28.446 43.112 28.2967 43.112 28.166C43.112 27.9887 43.1773 27.844 43.308 27.732C43.4387 27.6107 43.5973 27.55 43.784 27.55C44.1293 27.55 44.3533 27.7133 44.456 28.04L46.29 34.074L48.25 28.026C48.3527 27.7087 48.5767 27.55 48.922 27.55C49.258 27.55 49.4727 27.7133 49.566 28.04L51.232 34.088L53.472 27.886C53.5933 27.5593 53.8173 27.396 54.144 27.396C54.3307 27.396 54.4893 27.4567 54.62 27.578C54.7507 27.69 54.816 27.8347 54.816 28.012C54.816 28.1707 54.7927 28.32 54.746 28.46L51.792 36.636C51.7453 36.776 51.666 36.888 51.554 36.972C51.442 37.0467 51.3113 37.084 51.162 37.084C50.798 37.084 50.574 36.916 50.49 36.58L48.852 30.672L46.934 36.608C46.878 36.7853 46.794 36.9113 46.682 36.986C46.5793 37.0513 46.4393 37.084 46.262 37.084ZM56.5055 37.098C56.3282 37.098 56.1695 37.0327 56.0295 36.902C55.8988 36.762 55.8335 36.6033 55.8335 36.426V28.362C55.8335 28.1753 55.8988 28.0167 56.0295 27.886C56.1695 27.746 56.3375 27.676 56.5335 27.676C56.7202 27.676 56.8742 27.746 56.9955 27.886C57.1168 28.0167 57.1775 28.1753 57.1775 28.362V31.372C57.4855 30.98 57.8355 30.6673 58.2275 30.434C58.6195 30.1913 59.0115 30.07 59.4035 30.07C60.1408 30.07 60.6588 30.4433 60.9575 31.19C61.2562 31.9273 61.4055 33.0987 61.4055 34.704C61.4055 35.6093 61.3915 36.1927 61.3635 36.454C61.3542 36.6313 61.2842 36.7807 61.1535 36.902C61.0322 37.0233 60.8828 37.084 60.7055 37.084C60.5095 37.084 60.3508 37.0233 60.2295 36.902C60.1082 36.7713 60.0475 36.6127 60.0475 36.426C60.0475 36.2393 60.0522 36.0853 60.0615 35.964L60.0755 34.802C60.0755 33.4487 60.0008 32.5433 59.8515 32.086C59.7115 31.6287 59.5342 31.4 59.3195 31.4C59.0488 31.4 58.7735 31.526 58.4935 31.778C58.2135 32.0207 57.9708 32.296 57.7655 32.604C57.5695 32.9027 57.4295 33.1407 57.3455 33.318C57.2335 33.57 57.1775 33.9013 57.1775 34.312V36.398C57.1775 36.6127 57.1122 36.7853 56.9815 36.916C56.8508 37.0373 56.6922 37.098 56.5055 37.098ZM63.986 29.51C63.8087 29.51 63.65 29.44 63.51 29.3C63.3793 29.16 63.3187 29.0013 63.328 28.824L63.342 28.306C63.3513 28.1287 63.4213 27.9747 63.552 27.844C63.6827 27.7133 63.8367 27.648 64.014 27.648C64.1913 27.648 64.3453 27.718 64.476 27.858C64.616 27.998 64.6813 28.152 64.672 28.32L64.658 28.852C64.6487 29.0387 64.5787 29.1973 64.448 29.328C64.3267 29.4493 64.1727 29.51 63.986 29.51ZM63.916 37.084C63.7293 37.084 63.566 37.0187 63.426 36.888C63.2953 36.748 63.23 36.5847 63.23 36.398L63.3 30.826C63.3 30.6393 63.3653 30.4807 63.496 30.35C63.636 30.21 63.7993 30.14 63.986 30.14C64.182 30.14 64.3453 30.21 64.476 30.35C64.6067 30.4807 64.672 30.6393 64.672 30.826L64.602 36.398C64.602 36.5847 64.532 36.748 64.392 36.888C64.2613 37.0187 64.1027 37.084 63.916 37.084ZM69.2383 37.084C68.6783 37.084 68.165 36.9487 67.6983 36.678C67.2316 36.4073 66.863 36.0387 66.5923 35.572C66.3216 35.096 66.1863 34.578 66.1863 34.018C66.1863 33.3833 66.3356 32.7627 66.6343 32.156C66.933 31.5493 67.325 31.0547 67.8103 30.672C68.2956 30.2893 68.809 30.098 69.3503 30.098C69.845 30.098 70.2416 30.1773 70.5403 30.336C70.8483 30.4853 71.147 30.728 71.4363 31.064C71.5763 31.2133 71.6463 31.3767 71.6463 31.554C71.6463 31.7313 71.581 31.8853 71.4503 32.016C71.3196 32.1373 71.161 32.198 70.9743 32.198C70.853 32.198 70.755 32.1793 70.6803 32.142C70.615 32.1047 70.5356 32.03 70.4423 31.918C70.2836 31.7407 70.125 31.6053 69.9663 31.512C69.817 31.4187 69.6163 31.372 69.3643 31.372C69.075 31.372 68.781 31.498 68.4823 31.75C68.193 32.002 67.955 32.3333 67.7683 32.744C67.591 33.1453 67.5023 33.5607 67.5023 33.99C67.5023 34.3633 67.5816 34.69 67.7403 34.97C67.9083 35.2407 68.123 35.4507 68.3843 35.6C68.6456 35.74 68.921 35.81 69.2103 35.81C69.5836 35.81 69.887 35.74 70.1203 35.6C70.363 35.46 70.5776 35.2687 70.7643 35.026C70.9416 34.7927 71.1423 34.676 71.3663 34.676C71.5436 34.676 71.6976 34.7413 71.8283 34.872C71.959 34.9933 72.0243 35.1333 72.0243 35.292C72.0243 35.4787 71.973 35.6373 71.8703 35.768C71.5996 36.132 71.231 36.4447 70.7643 36.706C70.2976 36.958 69.789 37.084 69.2383 37.084ZM73.8825 37.098C73.7051 37.098 73.5465 37.0327 73.4065 36.902C73.2758 36.762 73.2105 36.6033 73.2105 36.426V28.362C73.2105 28.1753 73.2758 28.0167 73.4065 27.886C73.5465 27.746 73.7145 27.676 73.9105 27.676C74.0971 27.676 74.2511 27.746 74.3725 27.886C74.4938 28.0167 74.5545 28.1753 74.5545 28.362V31.372C74.8625 30.98 75.2125 30.6673 75.6045 30.434C75.9965 30.1913 76.3885 30.07 76.7805 30.07C77.5178 30.07 78.0358 30.4433 78.3345 31.19C78.6331 31.9273 78.7825 33.0987 78.7825 34.704C78.7825 35.6093 78.7685 36.1927 78.7405 36.454C78.7311 36.6313 78.6611 36.7807 78.5305 36.902C78.4091 37.0233 78.2598 37.084 78.0825 37.084C77.8865 37.084 77.7278 37.0233 77.6065 36.902C77.4851 36.7713 77.4245 36.6127 77.4245 36.426C77.4245 36.2393 77.4291 36.0853 77.4385 35.964L77.4525 34.802C77.4525 33.4487 77.3778 32.5433 77.2285 32.086C77.0885 31.6287 76.9111 31.4 76.6965 31.4C76.4258 31.4 76.1505 31.526 75.8705 31.778C75.5905 32.0207 75.3478 32.296 75.1425 32.604C74.9465 32.9027 74.8065 33.1407 74.7225 33.318C74.6105 33.57 74.5545 33.9013 74.5545 34.312V36.398C74.5545 36.6127 74.4891 36.7853 74.3585 36.916C74.2278 37.0373 74.0691 37.098 73.8825 37.098ZM86.2692 39.562C86.0919 39.562 85.9332 39.492 85.7932 39.352C85.6625 39.2213 85.5972 39.0673 85.5972 38.89V30.77C85.5972 30.574 85.6625 30.4107 85.7932 30.28C85.9239 30.1493 86.0872 30.084 86.2832 30.084C86.4419 30.084 86.5865 30.1447 86.7172 30.266C86.8572 30.3873 86.9272 30.546 86.9272 30.742V30.896C87.4032 30.3547 88.1032 30.084 89.0272 30.084C89.4099 30.084 89.7785 30.2053 90.1332 30.448C90.4972 30.6907 90.7959 31.0547 91.0292 31.54C91.2625 32.016 91.3792 32.59 91.3792 33.262C91.3792 33.8687 91.2859 34.452 91.0992 35.012C90.9125 35.572 90.5859 36.0433 90.1192 36.426C89.6619 36.7993 89.0459 36.986 88.2712 36.986C87.8232 36.986 87.3799 36.86 86.9412 36.608V38.89C86.9412 39.0673 86.8712 39.2213 86.7312 39.352C86.6005 39.492 86.4465 39.562 86.2692 39.562ZM88.3552 35.698C88.8965 35.698 89.3212 35.4973 89.6292 35.096C89.9465 34.6853 90.1052 34.074 90.1052 33.262C90.1052 32.6647 89.9885 32.198 89.7552 31.862C89.5312 31.5167 89.2512 31.344 88.9152 31.344C88.4392 31.344 88.0332 31.4373 87.6972 31.624C87.3705 31.8107 87.1185 32.0207 86.9412 32.254V35.362C87.5105 35.586 87.9819 35.698 88.3552 35.698ZM93.584 37.084C93.4066 37.084 93.248 37.0187 93.108 36.888C92.968 36.7573 92.898 36.608 92.898 36.44V30.77C92.898 30.5833 92.9633 30.4247 93.094 30.294C93.234 30.1633 93.3973 30.098 93.584 30.098C93.7706 30.098 93.9293 30.1633 94.06 30.294C94.2 30.4247 94.27 30.5833 94.27 30.77V31.19C94.7273 30.4433 95.3526 30.07 96.146 30.07C96.622 30.07 96.9626 30.2007 97.168 30.462C97.3826 30.7233 97.49 31.036 97.49 31.4V31.82C97.49 32.0067 97.4246 32.1653 97.294 32.296C97.1726 32.4173 97.0186 32.478 96.832 32.478C96.608 32.478 96.44 32.4127 96.328 32.282C96.2253 32.1513 96.174 31.9927 96.174 31.806V31.624C96.174 31.4747 96.0713 31.4 95.866 31.4C95.698 31.4 95.502 31.484 95.278 31.652C95.0633 31.82 94.886 31.9973 94.746 32.184C94.55 32.4267 94.4193 32.6693 94.354 32.912C94.298 33.1547 94.27 33.444 94.27 33.78L94.256 36.44C94.256 36.608 94.186 36.7573 94.046 36.888C93.906 37.0187 93.752 37.084 93.584 37.084ZM100.789 37.084C100.257 37.084 99.767 36.9393 99.319 36.65C98.8804 36.3607 98.535 35.9687 98.283 35.474C98.031 34.97 97.905 34.424 97.905 33.836C97.905 33.1733 98.0544 32.5573 98.353 31.988C98.6517 31.4093 99.053 30.952 99.557 30.616C100.061 30.2707 100.602 30.098 101.181 30.098C101.713 30.098 102.198 30.2473 102.637 30.546C103.085 30.8447 103.435 31.2413 103.687 31.736C103.948 32.2307 104.079 32.7627 104.079 33.332C104.079 34.004 103.93 34.6293 103.631 35.208C103.332 35.7773 102.926 36.2347 102.413 36.58C101.909 36.916 101.368 37.084 100.789 37.084ZM100.789 35.824C101.116 35.824 101.428 35.712 101.727 35.488C102.026 35.264 102.264 34.9653 102.441 34.592C102.618 34.2187 102.707 33.822 102.707 33.402C102.707 33.0473 102.637 32.716 102.497 32.408C102.357 32.0907 102.166 31.8387 101.923 31.652C101.68 31.456 101.414 31.358 101.125 31.358C100.798 31.358 100.49 31.4747 100.201 31.708C99.921 31.932 99.697 32.2353 99.529 32.618C99.361 32.9913 99.277 33.3927 99.277 33.822C99.277 34.242 99.347 34.6013 99.487 34.9C99.6364 35.1987 99.823 35.4273 100.047 35.586C100.28 35.7447 100.528 35.824 100.789 35.824ZM107.643 37.07C107.167 37.07 106.738 36.9487 106.355 36.706C105.982 36.454 105.683 36.09 105.459 35.614C105.245 35.138 105.137 34.5687 105.137 33.906C105.137 33.1033 105.263 32.4173 105.515 31.848C105.767 31.2787 106.117 30.8493 106.565 30.56C107.013 30.2613 107.531 30.112 108.119 30.112C108.586 30.112 109.085 30.2193 109.617 30.434L109.687 28.264C109.697 28.0773 109.767 27.9187 109.897 27.788C110.037 27.648 110.201 27.578 110.387 27.578C110.565 27.578 110.719 27.648 110.849 27.788C110.989 27.9187 111.055 28.0867 111.045 28.292L110.849 36.44C110.84 36.6267 110.77 36.7807 110.639 36.902C110.509 37.0233 110.35 37.084 110.163 37.084C109.986 37.084 109.832 37.0327 109.701 36.93C109.58 36.8273 109.519 36.692 109.519 36.524V36.272C109.277 36.496 108.992 36.6873 108.665 36.846C108.339 36.9953 107.998 37.07 107.643 37.07ZM107.755 35.81C108.073 35.81 108.367 35.7447 108.637 35.614C108.917 35.474 109.137 35.306 109.295 35.11C109.454 34.914 109.538 34.732 109.547 34.564L109.603 31.806C109.435 31.694 109.221 31.596 108.959 31.512C108.698 31.4187 108.446 31.372 108.203 31.372C107.634 31.372 107.205 31.5867 106.915 32.016C106.626 32.436 106.481 33.052 106.481 33.864C106.481 34.536 106.593 35.0307 106.817 35.348C107.051 35.656 107.363 35.81 107.755 35.81ZM114.818 37.126C114.314 37.126 113.913 37.0187 113.614 36.804C113.315 36.58 113.091 36.1787 112.942 35.6C112.793 35.0213 112.718 34.1907 112.718 33.108C112.718 32.744 112.732 32.3427 112.76 31.904C112.788 31.4653 112.825 31.0967 112.872 30.798C112.909 30.5647 112.979 30.3873 113.082 30.266C113.185 30.1447 113.334 30.084 113.53 30.084C113.717 30.084 113.875 30.14 114.006 30.252C114.137 30.364 114.202 30.5273 114.202 30.742L114.174 31.134C114.081 31.9273 114.034 32.688 114.034 33.416C114.034 34.368 114.113 35.0167 114.272 35.362C114.44 35.698 114.669 35.866 114.958 35.866C115.294 35.866 115.639 35.7773 115.994 35.6C116.349 35.4133 116.601 35.236 116.75 35.068C116.806 35.012 116.834 34.8953 116.834 34.718L116.862 30.728C116.862 30.5413 116.927 30.3873 117.058 30.266C117.198 30.1447 117.352 30.084 117.52 30.084C117.697 30.084 117.851 30.1447 117.982 30.266C118.122 30.3873 118.192 30.5413 118.192 30.728V36.412C118.192 36.5893 118.122 36.748 117.982 36.888C117.851 37.0187 117.697 37.084 117.52 37.084C117.333 37.084 117.165 37.028 117.016 36.916C116.876 36.7947 116.806 36.6453 116.806 36.468V36.314C116.451 36.566 116.12 36.7667 115.812 36.916C115.513 37.056 115.182 37.126 114.818 37.126ZM122.75 37.084C122.19 37.084 121.677 36.9487 121.21 36.678C120.743 36.4073 120.375 36.0387 120.104 35.572C119.833 35.096 119.698 34.578 119.698 34.018C119.698 33.3833 119.847 32.7627 120.146 32.156C120.445 31.5493 120.837 31.0547 121.322 30.672C121.807 30.2893 122.321 30.098 122.862 30.098C123.357 30.098 123.753 30.1773 124.052 30.336C124.36 30.4853 124.659 30.728 124.948 31.064C125.088 31.2133 125.158 31.3767 125.158 31.554C125.158 31.7313 125.093 31.8853 124.962 32.016C124.831 32.1373 124.673 32.198 124.486 32.198C124.365 32.198 124.267 32.1793 124.192 32.142C124.127 32.1047 124.047 32.03 123.954 31.918C123.795 31.7407 123.637 31.6053 123.478 31.512C123.329 31.4187 123.128 31.372 122.876 31.372C122.587 31.372 122.293 31.498 121.994 31.75C121.705 32.002 121.467 32.3333 121.28 32.744C121.103 33.1453 121.014 33.5607 121.014 33.99C121.014 34.3633 121.093 34.69 121.252 34.97C121.42 35.2407 121.635 35.4507 121.896 35.6C122.157 35.74 122.433 35.81 122.722 35.81C123.095 35.81 123.399 35.74 123.632 35.6C123.875 35.46 124.089 35.2687 124.276 35.026C124.453 34.7927 124.654 34.676 124.878 34.676C125.055 34.676 125.209 34.7413 125.34 34.872C125.471 34.9933 125.536 35.1333 125.536 35.292C125.536 35.4787 125.485 35.6373 125.382 35.768C125.111 36.132 124.743 36.4447 124.276 36.706C123.809 36.958 123.301 37.084 122.75 37.084ZM129.746 37.084C129.084 37.084 128.486 36.944 127.954 36.664C127.432 36.3747 127.021 35.9687 126.722 35.446C126.424 34.914 126.274 34.2887 126.274 33.57C126.274 32.982 126.405 32.422 126.666 31.89C126.937 31.3487 127.31 30.9147 127.786 30.588C128.272 30.2613 128.822 30.098 129.438 30.098C130.008 30.098 130.493 30.2147 130.894 30.448C131.305 30.672 131.613 30.9427 131.818 31.26C132.024 31.5773 132.126 31.862 132.126 32.114C132.126 32.2353 132.089 32.352 132.014 32.464C131.94 32.576 131.832 32.674 131.692 32.758L127.94 34.914C128.071 35.2033 128.3 35.4273 128.626 35.586C128.962 35.7447 129.336 35.824 129.746 35.824C130.288 35.824 130.75 35.6233 131.132 35.222C131.282 35.0727 131.436 34.998 131.594 34.998C131.781 34.998 131.935 35.0587 132.056 35.18C132.187 35.3013 132.252 35.4507 132.252 35.628C132.252 35.7773 132.196 35.9173 132.084 36.048C131.823 36.3373 131.473 36.5847 131.034 36.79C130.605 36.986 130.176 37.084 129.746 37.084ZM130.74 31.946C130.628 31.75 130.47 31.6053 130.264 31.512C130.059 31.4093 129.816 31.358 129.536 31.358C129.004 31.358 128.556 31.54 128.192 31.904C127.838 32.268 127.632 32.716 127.576 33.248C127.558 33.388 127.548 33.556 127.548 33.752L130.74 31.946ZM135.657 37.07C135.181 37.07 134.752 36.9487 134.369 36.706C133.996 36.454 133.697 36.09 133.473 35.614C133.258 35.138 133.151 34.5687 133.151 33.906C133.151 33.1033 133.277 32.4173 133.529 31.848C133.781 31.2787 134.131 30.8493 134.579 30.56C135.027 30.2613 135.545 30.112 136.133 30.112C136.6 30.112 137.099 30.2193 137.631 30.434L137.701 28.264C137.71 28.0773 137.78 27.9187 137.911 27.788C138.051 27.648 138.214 27.578 138.401 27.578C138.578 27.578 138.732 27.648 138.863 27.788C139.003 27.9187 139.068 28.0867 139.059 28.292L138.863 36.44C138.854 36.6267 138.784 36.7807 138.653 36.902C138.522 37.0233 138.364 37.084 138.177 37.084C138 37.084 137.846 37.0327 137.715 36.93C137.594 36.8273 137.533 36.692 137.533 36.524V36.272C137.29 36.496 137.006 36.6873 136.679 36.846C136.352 36.9953 136.012 37.07 135.657 37.07ZM135.769 35.81C136.086 35.81 136.38 35.7447 136.651 35.614C136.931 35.474 137.15 35.306 137.309 35.11C137.468 34.914 137.552 34.732 137.561 34.564L137.617 31.806C137.449 31.694 137.234 31.596 136.973 31.512C136.712 31.4187 136.46 31.372 136.217 31.372C135.648 31.372 135.218 31.5867 134.929 32.016C134.64 32.436 134.495 33.052 134.495 33.864C134.495 34.536 134.607 35.0307 134.831 35.348C135.064 35.656 135.377 35.81 135.769 35.81ZM150.384 37.224C150.197 37.224 150.043 37.1727 149.922 37.07C149.81 36.9673 149.754 36.832 149.754 36.664V36.468C149.371 36.8787 148.839 37.084 148.158 37.084C147.644 37.084 147.182 36.958 146.772 36.706C146.361 36.454 146.039 36.0993 145.806 35.642C145.572 35.1753 145.456 34.648 145.456 34.06C145.456 33.4067 145.596 32.7767 145.876 32.17C146.156 31.554 146.548 31.0547 147.052 30.672C147.565 30.2893 148.153 30.098 148.816 30.098C149.245 30.098 149.632 30.1587 149.978 30.28C150.323 30.392 150.682 30.532 151.056 30.7V36.524C151.056 36.7107 150.99 36.874 150.86 37.014C150.729 37.154 150.57 37.224 150.384 37.224ZM148.256 35.782C148.526 35.782 148.788 35.726 149.04 35.614C149.301 35.502 149.516 35.3667 149.684 35.208L149.726 31.554C149.455 31.442 149.161 31.386 148.844 31.386C148.442 31.386 148.088 31.512 147.78 31.764C147.472 32.0067 147.234 32.3333 147.066 32.744C146.898 33.1453 146.814 33.5747 146.814 34.032C146.814 34.6013 146.94 35.0353 147.192 35.334C147.444 35.6327 147.798 35.782 148.256 35.782ZM153.699 37.084C153.522 37.084 153.363 37.0187 153.223 36.888C153.083 36.7573 153.013 36.608 153.013 36.44V30.77C153.013 30.5833 153.079 30.4247 153.209 30.294C153.349 30.1633 153.513 30.098 153.699 30.098C153.886 30.098 154.045 30.1633 154.175 30.294C154.315 30.4247 154.385 30.5833 154.385 30.77V31.19C154.843 30.4433 155.468 30.07 156.261 30.07C156.737 30.07 157.078 30.2007 157.283 30.462C157.498 30.7233 157.605 31.036 157.605 31.4V31.82C157.605 32.0067 157.54 32.1653 157.409 32.296C157.288 32.4173 157.134 32.478 156.947 32.478C156.723 32.478 156.555 32.4127 156.443 32.282C156.341 32.1513 156.289 31.9927 156.289 31.806V31.624C156.289 31.4747 156.187 31.4 155.981 31.4C155.813 31.4 155.617 31.484 155.393 31.652C155.179 31.82 155.001 31.9973 154.861 32.184C154.665 32.4267 154.535 32.6693 154.469 32.912C154.413 33.1547 154.385 33.444 154.385 33.78L154.371 36.44C154.371 36.608 154.301 36.7573 154.161 36.888C154.021 37.0187 153.867 37.084 153.699 37.084ZM160.904 37.084C160.372 37.084 159.882 36.9393 159.434 36.65C158.996 36.3607 158.65 35.9687 158.398 35.474C158.146 34.97 158.02 34.424 158.02 33.836C158.02 33.1733 158.17 32.5573 158.468 31.988C158.767 31.4093 159.168 30.952 159.672 30.616C160.176 30.2707 160.718 30.098 161.296 30.098C161.828 30.098 162.314 30.2473 162.752 30.546C163.2 30.8447 163.55 31.2413 163.802 31.736C164.064 32.2307 164.194 32.7627 164.194 33.332C164.194 34.004 164.045 34.6293 163.746 35.208C163.448 35.7773 163.042 36.2347 162.528 36.58C162.024 36.916 161.483 37.084 160.904 37.084ZM160.904 35.824C161.231 35.824 161.544 35.712 161.842 35.488C162.141 35.264 162.379 34.9653 162.556 34.592C162.734 34.2187 162.822 33.822 162.822 33.402C162.822 33.0473 162.752 32.716 162.612 32.408C162.472 32.0907 162.281 31.8387 162.038 31.652C161.796 31.456 161.53 31.358 161.24 31.358C160.914 31.358 160.606 31.4747 160.316 31.708C160.036 31.932 159.812 32.2353 159.644 32.618C159.476 32.9913 159.392 33.3927 159.392 33.822C159.392 34.242 159.462 34.6013 159.602 34.9C159.752 35.1987 159.938 35.4273 160.162 35.586C160.396 35.7447 160.643 35.824 160.904 35.824ZM167.619 37.126C167.115 37.126 166.713 37.0187 166.415 36.804C166.116 36.58 165.892 36.1787 165.743 35.6C165.593 35.0213 165.519 34.1907 165.519 33.108C165.519 32.744 165.533 32.3427 165.561 31.904C165.589 31.4653 165.626 31.0967 165.673 30.798C165.71 30.5647 165.78 30.3873 165.883 30.266C165.985 30.1447 166.135 30.084 166.331 30.084C166.517 30.084 166.676 30.14 166.807 30.252C166.937 30.364 167.003 30.5273 167.003 30.742L166.975 31.134C166.881 31.9273 166.835 32.688 166.835 33.416C166.835 34.368 166.914 35.0167 167.073 35.362C167.241 35.698 167.469 35.866 167.759 35.866C168.095 35.866 168.44 35.7773 168.795 35.6C169.149 35.4133 169.401 35.236 169.551 35.068C169.607 35.012 169.635 34.8953 169.635 34.718L169.663 30.728C169.663 30.5413 169.728 30.3873 169.859 30.266C169.999 30.1447 170.153 30.084 170.321 30.084C170.498 30.084 170.652 30.1447 170.783 30.266C170.923 30.3873 170.993 30.5413 170.993 30.728V36.412C170.993 36.5893 170.923 36.748 170.783 36.888C170.652 37.0187 170.498 37.084 170.321 37.084C170.134 37.084 169.966 37.028 169.817 36.916C169.677 36.7947 169.607 36.6453 169.607 36.468V36.314C169.252 36.566 168.921 36.7667 168.613 36.916C168.314 37.056 167.983 37.126 167.619 37.126ZM173.619 37.084C173.441 37.084 173.283 37.0187 173.143 36.888C173.012 36.7573 172.947 36.608 172.947 36.44V30.756C172.947 30.5693 173.017 30.4107 173.157 30.28C173.297 30.1493 173.46 30.084 173.647 30.084C173.824 30.084 173.973 30.1493 174.095 30.28C174.225 30.4107 174.291 30.5693 174.291 30.756V31.82C174.552 31.26 174.883 30.8353 175.285 30.546C175.686 30.2473 176.125 30.098 176.601 30.098C177.123 30.098 177.539 30.2193 177.847 30.462C178.155 30.7047 178.379 31.106 178.519 31.666C178.659 32.2167 178.729 32.982 178.729 33.962L178.715 36.412C178.715 36.5893 178.654 36.748 178.533 36.888C178.411 37.0187 178.257 37.084 178.071 37.084C177.893 37.084 177.735 37.0187 177.595 36.888C177.464 36.748 177.399 36.594 177.399 36.426V34.102C177.399 33.374 177.366 32.814 177.301 32.422C177.235 32.03 177.137 31.764 177.007 31.624C176.876 31.4747 176.699 31.4 176.475 31.4C176.195 31.4 175.915 31.5213 175.635 31.764C175.355 31.9973 175.093 32.3333 174.851 32.772C174.636 33.1547 174.487 33.528 174.403 33.892C174.319 34.256 174.277 34.6947 174.277 35.208V36.384C174.277 36.5893 174.216 36.7573 174.095 36.888C173.983 37.0187 173.824 37.084 173.619 37.084ZM182.606 37.07C182.13 37.07 181.701 36.9487 181.318 36.706C180.945 36.454 180.646 36.09 180.422 35.614C180.208 35.138 180.1 34.5687 180.1 33.906C180.1 33.1033 180.226 32.4173 180.478 31.848C180.73 31.2787 181.08 30.8493 181.528 30.56C181.976 30.2613 182.494 30.112 183.082 30.112C183.549 30.112 184.048 30.2193 184.58 30.434L184.65 28.264C184.66 28.0773 184.73 27.9187 184.86 27.788C185 27.648 185.164 27.578 185.35 27.578C185.528 27.578 185.682 27.648 185.812 27.788C185.952 27.9187 186.018 28.0867 186.008 28.292L185.812 36.44C185.803 36.6267 185.733 36.7807 185.602 36.902C185.472 37.0233 185.313 37.084 185.126 37.084C184.949 37.084 184.795 37.0327 184.664 36.93C184.543 36.8273 184.482 36.692 184.482 36.524V36.272C184.24 36.496 183.955 36.6873 183.628 36.846C183.302 36.9953 182.961 37.07 182.606 37.07ZM182.718 35.81C183.036 35.81 183.33 35.7447 183.6 35.614C183.88 35.474 184.1 35.306 184.258 35.11C184.417 34.914 184.501 34.732 184.51 34.564L184.566 31.806C184.398 31.694 184.184 31.596 183.922 31.512C183.661 31.4187 183.409 31.372 183.166 31.372C182.597 31.372 182.168 31.5867 181.878 32.016C181.589 32.436 181.444 33.052 181.444 33.864C181.444 34.536 181.556 35.0307 181.78 35.348C182.014 35.656 182.326 35.81 182.718 35.81ZM214.032 37.098C213.855 37.098 213.696 37.0327 213.556 36.902C213.425 36.7713 213.36 36.6173 213.36 36.44V31.442H212.254C212.067 31.442 211.909 31.3767 211.778 31.246C211.647 31.106 211.582 30.9473 211.582 30.77C211.582 30.5647 211.652 30.4013 211.792 30.28C211.932 30.1493 212.095 30.084 212.282 30.084H213.36V28.586C213.36 28.4087 213.425 28.25 213.556 28.11C213.687 27.97 213.845 27.9 214.032 27.9C214.228 27.9 214.387 27.97 214.508 28.11C214.639 28.2407 214.704 28.3993 214.704 28.586V30.084H215.894C216.081 30.084 216.239 30.1493 216.37 30.28C216.501 30.4107 216.566 30.574 216.566 30.77C216.566 30.9473 216.501 31.106 216.37 31.246C216.239 31.3767 216.081 31.442 215.894 31.442H214.704V36.44C214.704 36.6173 214.639 36.7713 214.508 36.902C214.377 37.0327 214.219 37.098 214.032 37.098ZM219.502 37.084C218.97 37.084 218.48 36.9393 218.032 36.65C217.593 36.3607 217.248 35.9687 216.996 35.474C216.744 34.97 216.618 34.424 216.618 33.836C216.618 33.1733 216.767 32.5573 217.066 31.988C217.365 31.4093 217.766 30.952 218.27 30.616C218.774 30.2707 219.315 30.098 219.894 30.098C220.426 30.098 220.911 30.2473 221.35 30.546C221.798 30.8447 222.148 31.2413 222.4 31.736C222.661 32.2307 222.792 32.7627 222.792 33.332C222.792 34.004 222.643 34.6293 222.344 35.208C222.045 35.7773 221.639 36.2347 221.126 36.58C220.622 36.916 220.081 37.084 219.502 37.084ZM219.502 35.824C219.829 35.824 220.141 35.712 220.44 35.488C220.739 35.264 220.977 34.9653 221.154 34.592C221.331 34.2187 221.42 33.822 221.42 33.402C221.42 33.0473 221.35 32.716 221.21 32.408C221.07 32.0907 220.879 31.8387 220.636 31.652C220.393 31.456 220.127 31.358 219.838 31.358C219.511 31.358 219.203 31.4747 218.914 31.708C218.634 31.932 218.41 32.2353 218.242 32.618C218.074 32.9913 217.99 33.3927 217.99 33.822C217.99 34.242 218.06 34.6013 218.2 34.9C218.349 35.1987 218.536 35.4273 218.76 35.586C218.993 35.7447 219.241 35.824 219.502 35.824ZM224.97 37.084C224.793 37.084 224.634 37.0187 224.494 36.888C224.364 36.7573 224.298 36.608 224.298 36.44V30.756C224.298 30.5693 224.368 30.4107 224.508 30.28C224.648 30.1493 224.812 30.084 224.998 30.084C225.176 30.084 225.325 30.1493 225.446 30.28C225.577 30.4107 225.642 30.5693 225.642 30.756V31.82C225.904 31.26 226.235 30.8353 226.636 30.546C227.038 30.2473 227.476 30.098 227.952 30.098C228.475 30.098 228.89 30.2193 229.198 30.462C229.506 30.7047 229.73 31.106 229.87 31.666C230.01 32.2167 230.08 32.982 230.08 33.962L230.066 36.412C230.066 36.5893 230.006 36.748 229.884 36.888C229.763 37.0187 229.609 37.084 229.422 37.084C229.245 37.084 229.086 37.0187 228.946 36.888C228.816 36.748 228.75 36.594 228.75 36.426V34.102C228.75 33.374 228.718 32.814 228.652 32.422C228.587 32.03 228.489 31.764 228.358 31.624C228.228 31.4747 228.05 31.4 227.826 31.4C227.546 31.4 227.266 31.5213 226.986 31.764C226.706 31.9973 226.445 32.3333 226.202 32.772C225.988 33.1547 225.838 33.528 225.754 33.892C225.67 34.256 225.628 34.6947 225.628 35.208V36.384C225.628 36.5893 225.568 36.7573 225.446 36.888C225.334 37.0187 225.176 37.084 224.97 37.084ZM233.916 37.084C233.375 37.084 232.903 36.9673 232.502 36.734C232.11 36.4913 231.807 36.216 231.592 35.908C231.387 35.5907 231.284 35.334 231.284 35.138C231.284 34.9513 231.349 34.7973 231.48 34.676C231.611 34.5453 231.765 34.48 231.942 34.48C232.101 34.48 232.231 34.522 232.334 34.606C232.446 34.69 232.525 34.802 232.572 34.942C232.675 35.2313 232.843 35.46 233.076 35.628C233.309 35.796 233.599 35.88 233.944 35.88C234.308 35.88 234.593 35.7913 234.798 35.614C235.003 35.4367 235.106 35.236 235.106 35.012C235.106 34.7973 235.017 34.6293 234.84 34.508C234.672 34.3773 234.327 34.2327 233.804 34.074C233.039 33.8407 232.488 33.5653 232.152 33.248C231.816 32.9213 231.648 32.4967 231.648 31.974C231.648 31.4233 231.867 30.9753 232.306 30.63C232.745 30.2753 233.356 30.098 234.14 30.098C234.868 30.098 235.433 30.2567 235.834 30.574C236.245 30.8913 236.45 31.316 236.45 31.848C236.45 32.1373 236.389 32.3613 236.268 32.52C236.147 32.6693 235.974 32.744 235.75 32.744C235.554 32.744 235.395 32.6833 235.274 32.562C235.153 32.4407 235.092 32.31 235.092 32.17C235.092 32.1233 235.101 32.0673 235.12 32.002C235.148 31.9273 235.162 31.8713 235.162 31.834C235.162 31.666 235.078 31.5307 234.91 31.428C234.751 31.3253 234.504 31.274 234.168 31.274C233.748 31.274 233.435 31.3347 233.23 31.456C233.034 31.5773 232.936 31.7407 232.936 31.946C232.936 32.1607 233.039 32.338 233.244 32.478C233.449 32.6087 233.818 32.758 234.35 32.926C235.125 33.1687 235.661 33.4347 235.96 33.724C236.268 34.0133 236.422 34.4193 236.422 34.942C236.422 35.2967 236.315 35.642 236.1 35.978C235.895 36.3047 235.601 36.5707 235.218 36.776C234.845 36.9813 234.411 37.084 233.916 37.084ZM245.273 37.084C244.741 37.084 244.251 36.9393 243.803 36.65C243.365 36.3607 243.019 35.9687 242.767 35.474C242.515 34.97 242.389 34.424 242.389 33.836C242.389 33.1733 242.539 32.5573 242.837 31.988C243.136 31.4093 243.537 30.952 244.041 30.616C244.545 30.2707 245.087 30.098 245.665 30.098C246.197 30.098 246.683 30.2473 247.121 30.546C247.569 30.8447 247.919 31.2413 248.171 31.736C248.433 32.2307 248.563 32.7627 248.563 33.332C248.563 34.004 248.414 34.6293 248.115 35.208C247.817 35.7773 247.411 36.2347 246.897 36.58C246.393 36.916 245.852 37.084 245.273 37.084ZM245.273 35.824C245.6 35.824 245.913 35.712 246.211 35.488C246.51 35.264 246.748 34.9653 246.925 34.592C247.103 34.2187 247.191 33.822 247.191 33.402C247.191 33.0473 247.121 32.716 246.981 32.408C246.841 32.0907 246.65 31.8387 246.407 31.652C246.165 31.456 245.899 31.358 245.609 31.358C245.283 31.358 244.975 31.4747 244.685 31.708C244.405 31.932 244.181 32.2353 244.013 32.618C243.845 32.9913 243.761 33.3927 243.761 33.822C243.761 34.242 243.831 34.6013 243.971 34.9C244.121 35.1987 244.307 35.4273 244.531 35.586C244.765 35.7447 245.012 35.824 245.273 35.824ZM250.925 37.084C250.748 37.084 250.589 37.0187 250.449 36.888C250.319 36.7573 250.253 36.608 250.253 36.44V31.372H249.609C249.441 31.372 249.292 31.3067 249.161 31.176C249.031 31.0453 248.965 30.896 248.965 30.728C248.965 30.5507 249.031 30.3967 249.161 30.266C249.292 30.1353 249.437 30.07 249.595 30.07H250.267C250.305 29.1833 250.543 28.5627 250.981 28.208C251.429 27.844 252.143 27.662 253.123 27.662C253.385 27.662 253.585 27.7087 253.725 27.802C253.865 27.8953 253.935 28.0633 253.935 28.306C253.935 28.4927 253.875 28.6513 253.753 28.782C253.641 28.9033 253.483 28.964 253.277 28.964C252.857 28.964 252.535 28.992 252.311 29.048C252.097 29.0947 251.933 29.1973 251.821 29.356C251.709 29.5147 251.639 29.7527 251.611 30.07L253.039 30.084C253.189 30.084 253.329 30.1493 253.459 30.28C253.599 30.4107 253.669 30.56 253.669 30.728C253.669 30.896 253.604 31.0453 253.473 31.176C253.352 31.3067 253.207 31.372 253.039 31.372H251.597V36.44C251.597 36.608 251.527 36.7573 251.387 36.888C251.257 37.0187 251.103 37.084 250.925 37.084ZM263.158 37.084C262.411 37.084 261.725 36.916 261.1 36.58C260.474 36.244 259.98 35.7587 259.616 35.124C259.252 34.48 259.07 33.7287 259.07 32.87C259.07 31.9647 259.28 31.1013 259.7 30.28C260.129 29.4493 260.68 28.7867 261.352 28.292C262.033 27.788 262.728 27.536 263.438 27.536C263.736 27.536 264.03 27.5827 264.32 27.676C264.618 27.7693 264.884 27.886 265.118 28.026C265.23 27.914 265.37 27.858 265.538 27.858C265.724 27.858 265.878 27.9233 266 28.054C266.121 28.1753 266.182 28.3247 266.182 28.502V29.398C266.182 29.5847 266.112 29.748 265.972 29.888C265.841 30.028 265.678 30.098 265.482 30.098C265.295 30.098 265.136 30.042 265.006 29.93C264.884 29.818 264.824 29.6873 264.824 29.538V29.44C264.478 29.076 263.984 28.894 263.34 28.894C262.873 28.894 262.416 29.0853 261.968 29.468C261.52 29.8413 261.156 30.336 260.876 30.952C260.605 31.568 260.47 32.2073 260.47 32.87C260.47 33.458 260.591 33.9713 260.834 34.41C261.076 34.8393 261.398 35.1707 261.8 35.404C262.21 35.628 262.663 35.74 263.158 35.74C264.063 35.74 264.81 35.3527 265.398 34.578C265.482 34.4753 265.566 34.4053 265.65 34.368C265.734 34.3213 265.832 34.298 265.944 34.298C266.14 34.298 266.303 34.3633 266.434 34.494C266.574 34.6153 266.644 34.7833 266.644 34.998C266.644 35.1567 266.602 35.2967 266.518 35.418C266.135 35.9593 265.65 36.3747 265.062 36.664C264.483 36.944 263.848 37.084 263.158 37.084ZM271.104 37.084C270.413 37.084 269.793 36.8927 269.242 36.51C268.691 36.118 268.257 35.586 267.94 34.914C267.632 34.242 267.478 33.4907 267.478 32.66C267.478 31.7173 267.669 30.854 268.052 30.07C268.435 29.286 268.943 28.67 269.578 28.222C270.222 27.7647 270.913 27.536 271.65 27.536C272.341 27.536 272.961 27.7273 273.512 28.11C274.072 28.4927 274.506 29.02 274.814 29.692C275.131 30.364 275.29 31.12 275.29 31.96C275.29 32.912 275.099 33.78 274.716 34.564C274.333 35.3387 273.82 35.9547 273.176 36.412C272.541 36.86 271.851 37.084 271.104 37.084ZM271.104 35.754C271.608 35.754 272.07 35.5953 272.49 35.278C272.919 34.9607 273.26 34.5173 273.512 33.948C273.764 33.3787 273.89 32.7347 273.89 32.016C273.89 31.3627 273.778 30.798 273.554 30.322C273.339 29.846 273.05 29.4867 272.686 29.244C272.331 28.992 271.958 28.866 271.566 28.866C271.081 28.866 270.633 29.0293 270.222 29.356C269.811 29.6827 269.485 30.1353 269.242 30.714C268.999 31.2833 268.878 31.932 268.878 32.66C268.878 33.3133 268.981 33.8733 269.186 34.34C269.391 34.8067 269.662 35.1613 269.998 35.404C270.343 35.6373 270.712 35.754 271.104 35.754ZM276.546 36.342C276.546 35.586 276.662 34.9513 276.896 34.438C277.129 33.9153 277.418 33.4953 277.764 33.178C278.109 32.8513 278.534 32.5293 279.038 32.212C279.486 31.9133 279.817 31.68 280.032 31.512C280.256 31.344 280.438 31.1573 280.578 30.952C280.727 30.7373 280.802 30.4947 280.802 30.224C280.802 29.8973 280.671 29.6313 280.41 29.426C280.148 29.2113 279.822 29.104 279.43 29.104C279.047 29.104 278.706 29.202 278.408 29.398C278.118 29.594 277.899 29.7807 277.75 29.958C277.656 30.0607 277.568 30.14 277.484 30.196C277.409 30.2427 277.302 30.266 277.162 30.266C276.966 30.266 276.802 30.196 276.672 30.056C276.55 29.916 276.49 29.7573 276.49 29.58C276.49 29.468 276.518 29.3607 276.574 29.258C276.639 29.1553 276.76 29.02 276.938 28.852C277.246 28.5533 277.61 28.2967 278.03 28.082C278.45 27.8673 278.916 27.76 279.43 27.76C279.952 27.76 280.419 27.872 280.83 28.096C281.24 28.3107 281.562 28.6093 281.796 28.992C282.029 29.3653 282.146 29.776 282.146 30.224C282.146 30.7093 282.038 31.1387 281.824 31.512C281.609 31.876 281.348 32.1887 281.04 32.45C280.741 32.702 280.354 32.9773 279.878 33.276C279.318 33.64 278.874 33.9947 278.548 34.34C278.221 34.6853 278.016 35.1287 277.932 35.67H281.586C281.763 35.67 281.917 35.7353 282.048 35.866C282.188 35.9967 282.258 36.1553 282.258 36.342C282.258 36.5193 282.188 36.6733 282.048 36.804C281.917 36.9347 281.763 37 281.586 37H276.546V36.342ZM283.966 37.084C283.752 37.084 283.574 37.0093 283.434 36.86C283.304 36.7013 283.238 36.51 283.238 36.286C283.238 36.0527 283.322 35.8473 283.49 35.67C283.658 35.4833 283.85 35.39 284.064 35.39C284.27 35.39 284.442 35.4693 284.582 35.628C284.722 35.7773 284.792 35.9593 284.792 36.174C284.792 36.426 284.708 36.6407 284.54 36.818C284.372 36.9953 284.181 37.084 283.966 37.084Z" fill="black"/>
<rect id="totalTons" x="191" y="23" width="18" height="11" rx="5.5" fill="white"/>
<g id="plane">
<rect id="Rectangle 54" x="421.829" y="63" width="89.1596" height="65.1551" rx="6" transform="rotate(33.3606 421.829 63)" fill="white"/>
<path id="Vector 203 (Stroke)" fill-rule="evenodd" clip-rule="evenodd" d="M468.85 104.374C467.823 104.366 466.755 104.359 465.695 104.314C457.489 103.971 449.213 104.301 440.917 104.632C440.19 104.661 439.464 104.69 438.737 104.719C437.79 104.756 436.993 104.019 436.956 103.073C436.919 102.127 437.656 101.329 438.602 101.292C439.334 101.263 440.067 101.234 440.801 101.205C449.072 100.874 457.485 100.538 465.838 100.888C466.833 100.93 467.823 100.937 468.841 100.945C469.135 100.947 469.433 100.949 469.733 100.952C471.05 100.966 472.408 100.996 473.757 101.124C476.47 101.382 479.24 102.044 481.818 103.843C482.917 104.61 483.948 105.452 484.923 106.247C485.01 106.318 485.096 106.389 485.183 106.459C486.253 107.332 487.27 108.147 488.355 108.862C488.626 109.04 488.937 109.215 489.324 109.433C489.396 109.473 489.471 109.516 489.549 109.56C490.01 109.82 490.553 110.134 491.061 110.502C492.05 111.218 493.253 112.394 493.296 114.245C493.329 115.655 492.911 116.85 492.048 117.757C491.234 118.612 490.176 119.05 489.222 119.303C488.262 119.559 487.231 119.672 486.339 119.755C486.153 119.772 485.975 119.788 485.803 119.804C485.095 119.867 484.501 119.92 483.977 120.014C481.565 120.447 479.048 120.652 476.462 120.224C476.403 120.214 476.28 120.212 475.931 120.264C475.894 120.269 475.851 120.276 475.803 120.283C475.553 120.323 475.172 120.382 474.784 120.395C474.77 120.395 474.756 120.398 474.742 120.403V120.403C474.638 120.442 474.526 120.49 474.376 120.556C474.351 120.567 474.324 120.579 474.296 120.591C474.29 120.594 474.282 120.597 474.272 120.602C474.158 120.652 473.833 120.796 473.536 120.851C473.444 120.868 473.2 120.91 472.9 120.862C472.577 120.81 471.915 120.594 471.582 119.859C471.304 119.244 471.474 118.704 471.529 118.548C471.601 118.34 471.698 118.185 471.749 118.107C472.001 117.724 472.38 117.475 472.794 117.38C473.047 117.321 473.305 117.279 473.548 117.188V117.188C473.728 117.122 474.162 116.963 474.634 116.968C474.776 116.97 474.914 116.949 475.204 116.905C475.271 116.895 475.345 116.884 475.43 116.871C475.796 116.817 476.388 116.736 477.022 116.841C479.079 117.181 481.171 117.034 483.371 116.639C484.06 116.516 484.847 116.445 485.564 116.382C485.72 116.368 485.873 116.354 486.021 116.34C486.906 116.258 487.684 116.164 488.34 115.989C489.003 115.813 489.369 115.598 489.564 115.393C489.709 115.24 489.883 114.969 489.868 114.325C489.863 114.099 489.749 113.786 489.049 113.279C488.713 113.035 488.318 112.803 487.862 112.545C487.799 112.51 487.733 112.473 487.666 112.435C487.284 112.221 486.85 111.977 486.47 111.726C485.222 110.904 484.083 109.987 483.016 109.117C482.933 109.05 482.852 108.984 482.77 108.917C481.776 108.106 480.843 107.345 479.855 106.655C477.936 105.316 475.811 104.764 473.432 104.538C472.236 104.424 470.999 104.395 469.698 104.381C469.419 104.378 469.136 104.376 468.85 104.374ZM472.747 117.522C472.747 117.522 472.752 117.52 472.759 117.517C472.751 117.521 472.747 117.522 472.747 117.522ZM474.834 120.373C474.834 120.373 474.829 120.374 474.82 120.377C474.829 120.374 474.834 120.373 474.834 120.373Z" fill="black"/>
<path id="Vector 204 (Stroke)" fill-rule="evenodd" clip-rule="evenodd" d="M463.804 111.403C464.747 111.494 465.437 112.331 465.346 113.274C465.262 114.152 465.182 114.818 465.07 115.322C464.951 115.858 464.763 116.378 464.359 116.84C464.18 117.044 463.998 117.192 463.874 117.288C463.781 117.359 463.741 117.389 463.707 117.414C463.67 117.441 463.641 117.463 463.563 117.525C463.403 117.651 463.176 117.847 462.849 118.244C462.21 119.02 461.392 119.313 461.004 119.452C460.968 119.465 460.936 119.476 460.908 119.487C460.588 119.606 460.569 119.638 460.54 119.684C460.537 119.688 460.535 119.692 460.532 119.697C459.697 120.964 458.23 122.141 456.799 122.642C456.08 122.894 455.353 123.413 454.47 124.16C454.286 124.316 454.089 124.487 453.882 124.667C453.199 125.262 452.411 125.949 451.62 126.47C450.511 127.202 449.413 128.026 448.261 128.891C447.991 129.094 447.717 129.299 447.44 129.506C446.01 130.573 444.496 131.668 442.914 132.558C442.188 132.967 441.509 133.617 440.622 134.466C440.557 134.528 440.491 134.592 440.423 134.656C439.533 135.507 438.394 136.576 437.004 137.163C436.433 137.404 435.936 137.689 435.433 137.999C435.322 138.068 435.204 138.142 435.081 138.219C434.69 138.464 434.251 138.741 433.825 138.966C432.666 139.58 431.371 139.959 429.658 139.665C429.366 139.615 429.069 139.587 428.774 139.622V139.622C428.733 139.627 428.689 139.632 428.643 139.638C428.286 139.681 427.792 139.741 427.343 139.751C427.086 139.757 426.767 139.749 426.445 139.689C426.154 139.635 425.649 139.501 425.216 139.096C424.688 138.601 424.503 137.929 424.58 137.302C424.645 136.778 424.882 136.336 425.093 136.015C425.222 135.819 425.37 135.59 425.53 135.341C425.874 134.808 426.276 134.185 426.679 133.601C427.27 132.745 427.974 131.804 428.71 131.121C431.151 128.857 433.506 126.347 435.876 123.823C437.074 122.546 438.276 121.265 439.495 120.011C440.011 119.48 440.511 118.885 441.064 118.227C441.469 117.745 441.902 117.229 442.391 116.68C442.922 116.083 443.493 115.482 444.077 114.977C444.644 114.488 445.328 113.996 446.094 113.733C448.845 112.788 451.645 112.347 454.346 112.021C455.142 111.924 455.921 111.839 456.689 111.754C458.582 111.546 460.404 111.346 462.229 111.015C462.698 110.93 463.156 111.044 463.518 111.297C463.603 111.356 463.702 111.393 463.804 111.403V111.403ZM461.722 114.581C461.722 114.579 461.721 114.578 461.719 114.578C460.127 114.827 458.513 115.004 456.945 115.177C456.203 115.258 455.472 115.339 454.758 115.425C452.121 115.744 449.609 116.152 447.208 116.976C447.048 117.031 446.754 117.197 446.319 117.572C445.901 117.933 445.445 118.406 444.953 118.96C444.613 119.342 444.229 119.795 443.834 120.263C443.193 121.022 442.521 121.817 441.955 122.4C440.825 123.564 439.667 124.796 438.49 126.05C436.07 128.627 433.567 131.293 431.042 133.635C430.598 134.047 430.07 134.725 429.501 135.549V135.549C429.33 135.796 429.522 136.135 429.817 136.195C429.845 136.201 429.873 136.207 429.901 136.214C430.941 136.472 431.533 136.3 432.22 135.936C432.525 135.774 432.808 135.596 433.164 135.373C433.307 135.283 433.461 135.186 433.633 135.08C434.196 134.733 434.863 134.345 435.669 134.004C436.396 133.697 437.112 133.077 438.054 132.177C438.135 132.099 438.218 132.019 438.303 131.938C439.11 131.162 440.105 130.205 441.232 129.57C442.606 128.796 443.969 127.818 445.39 126.758C445.646 126.566 445.906 126.371 446.168 126.175C447.325 125.305 448.527 124.403 449.732 123.608C450.315 123.223 450.851 122.756 451.487 122.204C451.726 121.995 451.98 121.775 452.255 121.542C453.174 120.764 454.309 119.88 455.666 119.405C456.354 119.165 457.226 118.481 457.668 117.811C458.325 116.812 459.192 116.467 459.708 116.274C460.191 116.094 460.198 116.075 460.201 116.066C460.202 116.065 460.202 116.064 460.203 116.063C460.694 115.466 461.098 115.102 461.435 114.835C461.514 114.773 461.585 114.719 461.643 114.676C461.657 114.665 461.67 114.656 461.681 114.647V114.647C461.701 114.632 461.715 114.611 461.721 114.587C461.721 114.585 461.721 114.583 461.722 114.581V114.581ZM427.919 137.966C427.918 137.966 427.92 137.963 427.924 137.956C427.921 137.963 427.919 137.966 427.919 137.966ZM429.296 139.575C429.296 139.575 429.29 139.575 429.281 139.574C429.291 139.574 429.296 139.574 429.296 139.575Z" fill="black"/>
<path id="Vector 205 (Stroke)" fill-rule="evenodd" clip-rule="evenodd" d="M475.329 117.601C475.67 118.484 475.23 119.477 474.346 119.818C472.626 120.482 471.144 120.618 469.647 120.756C469.585 120.762 469.523 120.768 469.46 120.773C468.864 120.829 468.254 120.734 467.845 120.665C467.713 120.643 467.596 120.623 467.49 120.604C467.194 120.553 466.985 120.516 466.783 120.501C465.778 120.425 464.526 120.533 463.152 120.709C462.698 120.767 462.218 120.835 461.735 120.904C460.849 121.029 459.954 121.155 459.199 121.225C458.256 121.313 457.421 120.619 457.333 119.676C457.246 118.734 457.939 117.898 458.882 117.811C459.567 117.747 460.305 117.642 461.121 117.527C461.621 117.455 462.151 117.38 462.716 117.308C464.114 117.128 465.662 116.978 467.041 117.082C467.428 117.111 467.866 117.188 468.195 117.246C468.274 117.26 468.347 117.273 468.411 117.283C468.834 117.354 469.042 117.368 469.143 117.359L469.191 117.354C470.78 117.207 471.841 117.109 473.112 116.619C473.995 116.278 474.988 116.717 475.329 117.601Z" fill="black"/>
<path id="Vector 206 (Stroke)" fill-rule="evenodd" clip-rule="evenodd" d="M438.561 103.187C438.589 104.134 437.844 104.923 436.897 104.951C436.699 104.957 436.502 104.962 436.304 104.968C433.094 105.059 429.848 105.151 427.008 105.736C426.749 105.789 426.489 105.853 426.199 105.924L426.159 105.934C425.889 106 425.588 106.074 425.283 106.139C424.637 106.274 423.884 106.386 423.053 106.324C422.506 106.283 422.072 106.053 421.786 105.86C421.489 105.659 421.235 105.418 421.027 105.196C420.615 104.754 420.224 104.209 419.896 103.73C419.734 103.493 419.594 103.283 419.464 103.088C419.296 102.837 419.144 102.609 418.978 102.373C418.744 102.04 418.615 101.894 418.576 101.85C418.563 101.835 418.56 101.831 418.566 101.836C418.318 101.65 418.145 101.433 418.055 101.314C417.949 101.174 417.852 101.027 417.774 100.903C417.705 100.794 417.634 100.677 417.57 100.572C417.56 100.556 417.551 100.541 417.542 100.526V100.526C417.422 100.329 417.212 100.212 416.986 100.167C416.42 100.056 415.965 99.7907 415.683 99.6017C415.414 99.4211 415.176 99.2233 415.004 99.0783C414.957 99.0387 414.917 99.004 414.881 98.9735C414.761 98.8718 414.695 98.8156 414.633 98.7696C414.467 98.6467 414.327 98.5171 414.211 98.3943C414.072 98.2473 413.867 98.1752 413.672 98.2277V98.2277C413.642 98.2358 413.611 98.2441 413.58 98.2525C413.293 98.33 412.963 98.4188 412.631 98.4957C411.924 98.6596 410.981 98.828 410.04 98.6723C409.478 98.5793 408.876 98.6666 407.981 98.851C407.907 98.8661 407.831 98.8821 407.752 98.8987C407.04 99.0482 406.116 99.2424 405.143 99.2257C405.129 99.2255 405.115 99.2295 405.103 99.2374V99.2374C405.094 99.2434 405.077 99.2549 405.057 99.2686C405.021 99.2929 404.974 99.3239 404.946 99.3426V99.3426C404.858 99.4016 404.832 99.522 404.893 99.6094C404.981 99.7354 405.064 99.851 405.151 99.963V99.963C405.354 100.224 405.681 100.323 406.011 100.302C407.507 100.209 408.802 100.253 410.007 100.78C411.357 101.371 412.365 102.471 413.496 103.841C414.404 104.941 415.78 106.155 416.991 106.952C417.841 107.512 418.469 108.314 418.91 108.876C418.932 108.905 418.955 108.934 418.976 108.961C419.492 109.618 419.818 110.006 420.187 110.249C421.09 110.843 421.572 111.768 421.833 112.269C421.843 112.289 421.852 112.307 421.862 112.325L421.875 112.35C422.025 112.638 422.115 112.81 422.21 112.953V112.953C422.253 113.018 422.319 113.064 422.394 113.083C422.465 113.101 422.567 113.123 422.708 113.145C423.067 113.201 423.515 113.232 424.038 113.253C424.226 113.261 424.445 113.268 424.67 113.275C424.997 113.286 425.339 113.297 425.624 113.311C426.12 113.336 426.702 113.38 427.2 113.501C430.038 114.193 433.486 114.299 436.602 114.255C436.988 114.25 437.727 114.322 438.445 114.393C438.603 114.409 438.766 114.425 438.933 114.442C439.6 114.509 440.334 114.583 441.058 114.645C441.97 114.723 442.81 114.777 443.431 114.779V114.779C443.754 114.78 444.063 114.666 444.38 114.603C444.806 114.519 445.264 114.596 445.655 114.854C446.446 115.374 446.665 116.438 446.145 117.228C445.82 117.722 445.356 117.918 445.173 117.987C444.941 118.075 444.715 118.119 444.544 118.144C444.195 118.196 443.798 118.209 443.421 118.208C442.651 118.206 441.693 118.141 440.765 118.061C440.014 117.997 439.248 117.92 438.579 117.853C438.415 117.837 438.257 117.821 438.107 117.806C437.719 117.767 437.385 117.735 437.118 117.713C436.985 117.702 436.876 117.695 436.789 117.69C436.747 117.687 436.713 117.686 436.688 117.685C436.661 117.684 436.65 117.684 436.65 117.684C433.493 117.728 429.675 117.635 426.387 116.833C426.233 116.795 425.938 116.761 425.451 116.736C425.172 116.722 424.91 116.714 424.628 116.705C424.404 116.698 424.166 116.691 423.897 116.68C423.348 116.657 422.741 116.62 422.181 116.534C421.667 116.454 420.971 116.302 420.389 115.918C419.901 115.597 419.573 115.183 419.349 114.845C419.152 114.546 418.982 114.22 418.858 113.982C418.846 113.958 418.834 113.935 418.822 113.913C418.507 113.308 418.384 113.167 418.301 113.113C417.418 112.531 416.776 111.713 416.325 111.137C416.309 111.117 416.294 111.098 416.279 111.079C415.753 110.409 415.445 110.04 415.106 109.816C413.63 108.845 411.992 107.406 410.851 106.023C409.697 104.625 409.147 104.147 408.632 103.922C408.132 103.703 407.438 103.625 405.684 103.763C404.016 103.895 402.969 102.741 402.447 102.072C402.216 101.776 401.993 101.447 401.814 101.182C401.773 101.122 401.735 101.065 401.699 101.013C401.476 100.687 401.328 100.49 401.207 100.365C401.023 100.175 400.828 99.9493 400.673 99.6938C400.534 99.464 400.306 99.0134 400.35 98.4313C400.404 97.7312 400.81 97.2501 401.197 96.9895C401.521 96.7716 401.848 96.6889 402.013 96.653C402.264 96.5983 402.609 96.5664 402.776 96.5509C402.811 96.5478 402.838 96.5453 402.855 96.5434C402.878 96.5409 402.899 96.5384 402.918 96.536C402.964 96.5301 403.008 96.5133 403.047 96.4875V96.4875C403.059 96.4793 403.076 96.4679 403.096 96.4542C403.173 96.4028 403.296 96.3195 403.404 96.2531C403.682 96.0817 404.278 95.7419 405.063 95.7915C405.658 95.8291 406.254 95.7061 407.14 95.5231C407.188 95.513 407.238 95.5027 407.289 95.4923C408.166 95.3116 409.34 95.0805 410.6 95.2892C410.844 95.3295 411.236 95.2988 411.857 95.155C412.126 95.0926 412.397 95.0198 412.693 94.9399C412.722 94.9321 412.752 94.9242 412.781 94.9162C413.097 94.8313 413.453 94.7366 413.798 94.6655C414.265 94.5693 414.789 94.568 415.31 94.7772C415.816 94.9804 416.138 95.3114 416.324 95.5346C416.416 95.6444 416.493 95.7508 416.542 95.8205C416.56 95.8454 416.575 95.8661 416.587 95.884C416.618 95.9268 416.637 95.9538 416.661 95.9853V95.9853C416.684 96.0162 416.712 96.0426 416.743 96.0662C416.888 96.1777 417.037 96.3052 417.148 96.4002C417.174 96.4222 417.198 96.4423 417.219 96.4602V96.4602C417.45 96.6556 417.757 96.7067 418.059 96.729C418.774 96.7817 419.285 97.2182 419.472 97.3947C419.795 97.7002 420.051 98.0777 420.218 98.3353C420.298 98.4596 420.45 98.7078 420.557 98.8838C420.612 98.973 420.655 99.0437 420.672 99.0701V99.0701C420.726 99.1557 420.796 99.2303 420.87 99.2993C421.24 99.6429 421.558 100.08 421.781 100.398C421.956 100.646 422.165 100.958 422.363 101.254C422.493 101.448 422.617 101.634 422.726 101.792C423.043 102.256 423.311 102.616 423.534 102.855V102.855C423.568 102.892 423.617 102.912 423.667 102.91C423.939 102.899 424.234 102.855 424.578 102.783C424.824 102.731 425.074 102.669 425.361 102.599L425.38 102.594C425.664 102.524 425.984 102.446 426.316 102.377C429.465 101.729 432.998 101.63 436.128 101.542C436.354 101.536 436.577 101.53 436.798 101.523C437.744 101.496 438.534 102.241 438.561 103.187ZM420.796 99.2523C420.796 99.2525 420.793 99.249 420.787 99.2411C420.793 99.2481 420.796 99.2521 420.796 99.2523ZM444.062 114.748C444.062 114.748 444.06 114.749 444.056 114.749C444.06 114.749 444.062 114.748 444.062 114.748ZM405.54 100.364V100.364C405.541 100.366 405.54 100.363 405.54 100.364V100.364Z" fill="black"/>
<path id="Vector 207 (Stroke)" fill-rule="evenodd" clip-rule="evenodd" d="M463.495 102.601C463.033 103.428 461.989 103.723 461.162 103.261C460.67 102.986 460.095 102.651 459.487 102.296C459.37 102.228 459.252 102.159 459.133 102.09C458.386 101.655 457.588 101.193 456.784 100.75C455.137 99.8425 453.602 99.091 452.504 98.7791C451.783 98.5745 450.735 98.1717 449.745 97.7179C448.785 97.2783 447.687 96.7042 446.974 96.116C445.375 94.7973 444.455 94.3613 443.088 94.2474C441.609 94.124 440.102 93.9289 438.609 93.6985C438.465 93.6763 438.37 93.844 438.465 93.9543V93.9543C439.507 95.1536 440.785 96.0089 442.4 97.0723C443.191 97.5931 443.41 98.6564 442.889 99.4473C442.368 100.238 441.305 100.457 440.514 99.9365L440.449 99.8936C438.911 98.881 437.257 97.7923 435.877 96.2032C435.64 95.9312 435.405 95.6428 435.184 95.3722C435.17 95.3556 435.157 95.3391 435.143 95.3227C434.904 95.0301 434.678 94.754 434.446 94.4895C433.977 93.9531 433.553 93.5416 433.132 93.2648C432.998 93.1762 432.821 93.0485 432.657 92.8778C432.528 92.7444 432.191 92.3672 432.124 91.7723C432.035 90.9904 432.453 90.4157 432.842 90.1259C433.155 89.8925 433.473 89.8098 433.616 89.7775C433.933 89.7055 434.262 89.6999 434.485 89.7026C434.74 89.7056 435.013 89.7234 435.276 89.7467C436.27 89.8348 437.442 90.0338 437.668 90.0721C437.677 90.0737 437.685 90.075 437.691 90.076C439.616 90.4012 441.534 90.6766 443.373 90.83C445.699 91.0239 447.265 91.9112 449.156 93.4705C449.501 93.7549 450.248 94.1763 451.173 94.6004C452.068 95.0103 452.944 95.3394 453.441 95.4804C454.954 95.9104 456.795 96.8406 458.44 97.7469C459.282 98.2109 460.109 98.6896 460.859 99.1267C460.983 99.1986 461.104 99.2692 461.222 99.3383C461.832 99.6938 462.374 100.01 462.835 100.268C463.662 100.73 463.957 101.775 463.495 102.601ZM435.015 90.3991C435.014 90.3978 435.014 90.3977 435.015 90.3991V90.3991" fill="black"/>
<path id="Vector 208 (Stroke)" fill-rule="evenodd" clip-rule="evenodd" d="M413.865 104.872C413.549 104.834 413.332 104.512 413.319 104.193C413.311 104.028 413.28 103.861 413.222 103.696C412.908 102.803 411.929 102.334 411.035 102.649C410.697 102.768 410.322 102.882 409.885 103.016C409.79 103.045 409.691 103.075 409.589 103.106C409.044 103.273 408.433 103.466 407.827 103.699C406.796 104.096 405.589 104.678 404.676 105.645C404.548 105.78 404.411 105.904 404.267 106.021V106.021L404.264 106.023C404.18 106.092 403.91 106.31 403.713 106.639C403.61 106.809 403.405 107.208 403.453 107.747C403.51 108.39 403.885 108.842 404.258 109.087C404.776 109.428 405.315 109.475 405.673 109.46C406.027 109.446 406.345 109.365 406.553 109.305C406.688 109.266 406.87 109.207 406.983 109.17C407.023 109.157 407.054 109.147 407.073 109.141V109.141C407.128 109.124 407.185 109.114 407.242 109.109C408.182 109.027 409.165 108.828 410.029 108.653C410.256 108.607 410.475 108.563 410.683 108.523C411.817 108.304 412.71 108.188 413.46 108.277C414.4 108.389 415.253 107.718 415.365 106.778C415.477 105.837 414.806 104.984 413.865 104.872V104.872ZM406.426 108.685C406.428 108.683 406.431 108.681 406.433 108.679C406.411 108.7 406.405 108.702 406.426 108.685Z" fill="black"/>
<path id="Vector 209 (Stroke)" fill-rule="evenodd" clip-rule="evenodd" d="M441.414 119.542C441.647 120.46 441.091 121.393 440.174 121.626C439.84 121.71 439.517 121.787 439.203 121.861C438.271 122.081 437.423 122.282 436.651 122.612V122.612C436.305 122.759 436.358 123.256 436.61 123.534C436.724 123.66 436.821 123.804 436.896 123.965C437.294 124.824 436.921 125.844 436.062 126.242C435.445 126.529 434.814 126.446 434.521 126.392C434.14 126.323 433.751 126.189 433.4 126.013C433.064 125.844 432.651 125.58 432.321 125.187C431.984 124.785 431.597 124.065 431.819 123.169C432.322 121.132 433.89 120.062 435.305 119.458C436.378 119 437.633 118.705 438.614 118.474C438.875 118.413 439.117 118.356 439.331 118.301C440.249 118.069 441.182 118.624 441.414 119.542Z" fill="black"/>
<path id="Vector 210 (Stroke)" fill-rule="evenodd" clip-rule="evenodd" d="M430.474 123.372C430.583 123.833 430.298 124.295 429.838 124.404C428.49 124.723 425.828 125.168 423.821 125.413C422.837 125.533 421.933 125.614 421.421 125.592C421.3 125.586 421.124 125.573 420.958 125.521C420.885 125.498 420.706 125.435 420.548 125.275C420.459 125.184 420.367 125.052 420.32 124.875C420.272 124.695 420.286 124.523 420.329 124.382C420.405 124.135 420.566 123.987 420.629 123.933C420.71 123.864 420.793 123.812 420.858 123.775C420.99 123.701 421.151 123.631 421.322 123.565C421.575 123.468 422.909 122.943 424.126 122.403V122.403C424.189 122.375 424.169 122.284 424.101 122.286C423.955 122.288 423.806 122.293 423.654 122.3C423.042 122.329 422.418 122.386 421.859 122.444C421.723 122.457 421.588 122.472 421.458 122.485C421.071 122.526 420.72 122.563 420.47 122.579C420.192 122.596 419.914 122.616 419.636 122.638C419.539 122.645 419.481 122.751 419.505 122.845V122.845C419.513 122.878 419.524 122.926 419.529 122.985C419.535 123.049 419.545 123.114 419.559 123.176V123.176C419.581 123.268 419.583 123.344 419.583 123.38C419.583 123.422 419.58 123.459 419.578 123.485C419.55 123.784 419.407 124.017 419.316 124.143C419.229 124.263 419.127 124.373 419.022 124.463C418.993 124.493 418.961 124.525 418.926 124.555C418.868 124.604 418.762 124.684 418.61 124.735V124.735C418.605 124.737 418.601 124.741 418.599 124.746C418.584 124.782 418.57 124.813 418.558 124.838C418.506 124.944 418.444 125.042 418.382 125.129C418.144 125.461 417.752 125.845 417.325 126.11C417.11 126.244 416.842 126.376 416.545 126.434C416.24 126.493 415.844 126.484 415.478 126.243C415.262 126.101 415.099 125.89 415.023 125.631C414.974 125.467 414.969 125.311 414.983 125.176C414.985 125.15 414.956 125.133 414.935 125.148V125.148L414.912 125.164C414.816 125.232 414.706 125.31 414.592 125.384V125.384C414.508 125.438 414.449 125.523 414.408 125.613C414.341 125.758 414.239 125.877 414.127 125.96C413.962 126.083 413.794 126.12 413.724 126.133C413.568 126.163 413.414 126.156 413.324 126.15C413.216 126.142 413.103 126.128 412.997 126.112C412.961 126.107 412.924 126.101 412.886 126.094C412.803 126.081 412.721 126.125 412.684 126.201C412.612 126.35 412.525 126.49 412.429 126.62C412.412 126.643 412.434 126.674 412.46 126.666V126.666C412.675 126.598 412.914 126.523 413.126 126.462C413.273 126.419 413.424 126.379 413.559 126.349C413.667 126.325 413.858 126.286 414.042 126.296C414.043 126.296 414.045 126.296 414.046 126.296C414.106 126.3 414.412 126.316 414.66 126.565C414.821 126.727 414.912 126.942 414.917 127.166C414.923 127.363 414.862 127.514 414.82 127.597C414.742 127.755 414.633 127.863 414.58 127.913C414.514 127.977 414.439 128.036 414.366 128.092C413.789 128.523 413.016 129.049 412.174 129.422C411.347 129.789 410.341 130.061 409.351 129.831C409.126 129.778 408.913 129.716 408.712 129.644C408.088 129.421 407.397 129.482 406.745 129.603V129.603C406.451 129.657 406.09 129.64 405.764 129.421C405.447 129.208 405.3 128.895 405.234 128.642C405.111 128.174 405.184 127.615 405.289 127.134V127.134C405.291 127.125 405.288 127.115 405.281 127.109C405.222 127.058 405.164 127.006 405.107 126.951C405.03 126.877 404.931 126.832 404.825 126.821C404.771 126.816 404.718 126.808 404.666 126.8C404.196 126.722 403.723 126.509 403.378 126.08C403.035 125.655 402.899 125.117 402.908 124.541V124.541C402.91 124.357 402.86 124.176 402.771 124.016C402.637 123.774 402.556 123.511 402.52 123.269C402.32 121.921 403.188 120.154 405.325 119.714V119.714C405.359 119.707 405.389 119.688 405.411 119.661C405.879 119.09 406.428 118.695 407.041 118.486C408.209 118.087 409.378 118.439 410.253 119.096V119.096C410.733 119.457 411.385 119.554 411.947 119.342C412.021 119.314 412.095 119.288 412.169 119.266C412.645 119.119 413.257 119.044 413.832 119.322C414.298 119.546 414.613 119.939 414.803 120.425C414.9 120.671 415.085 120.874 415.306 121.022C415.387 121.076 415.465 121.138 415.537 121.21C415.586 121.258 415.653 121.285 415.722 121.278V121.278C415.954 121.256 416.186 121.233 416.419 121.21C417.721 121.082 419.04 120.952 420.361 120.868C420.573 120.854 420.869 120.823 421.241 120.784C421.379 120.769 421.527 120.754 421.685 120.738C422.252 120.68 422.914 120.618 423.575 120.588C424.23 120.557 424.913 120.556 425.515 120.629C426.073 120.697 426.741 120.845 427.203 121.254C427.341 121.376 427.463 121.558 427.502 121.792C427.539 122.012 427.488 122.197 427.438 122.316C427.347 122.528 427.197 122.67 427.125 122.734C426.956 122.885 426.728 123.026 426.514 123.147V123.147C426.445 123.186 426.482 123.297 426.561 123.284C427.703 123.096 428.764 122.896 429.442 122.736C429.903 122.627 430.365 122.912 430.474 123.372ZM412.109 121.573C412.184 121.569 412.251 121.525 412.294 121.463C412.371 121.351 412.459 121.259 412.541 121.188C412.699 121.052 412.886 120.946 413.087 120.866C413.087 120.866 413.087 120.866 413.087 120.866V120.866L413.087 120.866C413.065 120.855 412.95 120.819 412.673 120.904C412.446 120.974 412.2 121.098 411.962 121.248C411.896 121.29 411.869 121.372 411.891 121.446V121.446C411.915 121.525 411.988 121.58 412.071 121.575C412.083 121.574 412.096 121.574 412.109 121.573ZM408.156 120.255C408.236 120.176 408.2 120.036 408.088 120.033C408.069 120.033 408.051 120.033 408.032 120.033C407.904 120.035 407.879 120.194 407.985 120.265C407.988 120.267 407.99 120.269 407.993 120.271C408.028 120.295 408.072 120.3 408.111 120.285V120.285C408.128 120.278 408.144 120.268 408.156 120.255V120.255ZM405.856 124.061C405.725 124.186 405.646 124.362 405.68 124.54C405.703 124.662 405.733 124.776 405.769 124.881C405.795 124.958 405.876 124.998 405.953 124.974V124.974C405.996 124.96 406.032 124.927 406.05 124.885C406.136 124.685 406.226 124.484 406.319 124.285C406.341 124.24 406.345 124.188 406.331 124.139C406.295 124.004 406.265 123.866 406.243 123.724C406.239 123.698 406.204 123.689 406.187 123.709V123.709C406.08 123.833 405.97 123.951 405.856 124.061ZM409.741 128.118C409.717 128.122 409.716 128.155 409.739 128.16V128.16C409.964 128.213 410.22 128.214 410.502 128.166C410.557 128.157 410.575 128.087 410.536 128.048V128.048C410.525 128.038 410.515 128.027 410.505 128.017C410.463 127.973 410.399 127.955 410.341 127.973C410.145 128.031 409.945 128.08 409.741 128.118ZM419.079 124.135C419.079 124.134 419.08 124.133 419.081 124.131ZM416.694 122.939C416.708 122.928 416.699 122.905 416.682 122.907C416.652 122.91 416.622 122.913 416.593 122.916C416.383 122.936 416.173 122.957 415.963 122.978C415.946 122.979 415.933 122.991 415.929 123.006V123.006C415.922 123.029 415.938 123.053 415.962 123.056C416.046 123.069 416.132 123.087 416.219 123.111V123.111C416.331 123.142 416.454 123.13 416.544 123.057C416.594 123.016 416.645 122.977 416.694 122.939V122.939ZM408.05 126.245C407.968 126.212 407.875 126.271 407.88 126.359V126.359C407.883 126.414 407.925 126.457 407.979 126.464C407.995 126.467 408.01 126.469 408.026 126.471C408.063 126.476 408.1 126.461 408.123 126.432C408.133 126.42 408.143 126.408 408.152 126.396C408.187 126.353 408.167 126.288 408.115 126.269V126.269C408.093 126.262 408.072 126.253 408.05 126.245ZM425.983 121.454C425.982 121.455 425.981 121.456 425.98 121.458C425.988 121.449 425.991 121.448 425.983 121.454Z" fill="black"/>
<path id="Vector 212 (Stroke)" fill-rule="evenodd" clip-rule="evenodd" d="M398.744 110.747C399.203 110.631 399.669 110.909 399.785 111.368C399.786 111.373 399.788 111.379 399.79 111.387C399.84 111.583 400.147 112.79 400.376 114.168C400.399 114.307 400.534 114.397 400.675 114.39V114.39C400.707 114.388 400.74 114.381 400.77 114.369C400.791 114.36 400.815 114.35 400.84 114.341C401.107 114.238 401.457 114.16 401.962 114.172C402.245 114.179 402.56 114.232 402.835 114.409C402.979 114.501 403.105 114.623 403.202 114.775C403.297 114.927 403.349 115.086 403.37 115.237C403.411 115.525 403.343 115.78 403.276 115.951C403.206 116.131 403.109 116.29 403.015 116.415C402.927 116.532 402.806 116.669 402.659 116.772C402.619 116.801 402.565 116.835 402.498 116.867C402.437 116.896 402.332 116.938 402.197 116.953C402.057 116.968 401.836 116.958 401.619 116.818C401.395 116.673 401.289 116.466 401.245 116.308C401.238 116.281 401.232 116.255 401.227 116.23C401.211 116.141 401.139 116.072 401.05 116.089V116.089C400.979 116.103 400.906 116.167 400.906 116.24C400.909 116.453 400.876 116.673 400.792 116.885C400.78 116.916 400.788 116.951 400.813 116.973V116.973C400.883 117.034 401.01 117.147 401.109 117.297C401.219 117.465 401.361 117.784 401.236 118.167C401.129 118.495 400.885 118.674 400.758 118.754C400.616 118.845 400.437 118.924 400.234 118.997C399.973 119.091 399.728 119.231 399.466 119.324V119.324V119.324C399.024 119.48 398.534 119.446 398.072 119.522C397.649 119.591 397.199 119.646 396.783 119.661C396.492 119.671 396.188 119.663 395.906 119.616C395.642 119.572 395.295 119.478 395.012 119.238C394.671 118.95 394.513 118.53 394.576 118.078V118.078C394.647 117.568 394.566 116.998 394.265 116.58C393.984 116.189 393.791 115.701 393.713 115.121C393.612 114.363 393.628 113.642 393.967 113.114C394.157 112.818 394.43 112.613 394.752 112.514C395.054 112.422 395.349 112.437 395.59 112.482V112.482C395.873 112.535 396.165 112.534 396.445 112.467C396.578 112.435 396.715 112.412 396.854 112.398C397.069 112.377 397.286 112.38 397.504 112.407C397.854 112.452 398.214 112.147 398.127 111.805V111.805C398.125 111.798 398.124 111.792 398.123 111.788C398.007 111.329 398.285 110.863 398.744 110.747ZM401.994 115.892C401.994 115.892 401.994 115.892 401.994 115.892V115.892M400.622 114.435C400.614 114.438 400.617 114.436 400.63 114.431C400.627 114.432 400.625 114.433 400.622 114.435Z" fill="black"/>
</g>
<g id="Group 70">
<path id="Vector 247" d="M384.141 134.357C376.938 127.897 367.977 135.904 367.977 144.049C367.977 151.368 378.768 148.075 381.493 144.668" stroke="black" stroke-linecap="round" stroke-linejoin="round"/>
<path id="Vector 248" d="M383.862 134.775C381.149 136.103 381.311 135.882 379.194 134.706C378.501 134.321 376.903 134.625 376.229 134.884C373.394 135.974 371.739 139.137 371.739 142.021C371.739 145.124 374.463 146.431 377.104 145.009C377.742 144.666 378.54 144.277 379.055 143.763C379.387 143.43 379.556 142.748 380.1 142.718C380.625 142.689 380.904 142.693 381.284 142.996C381.452 143.131 381.674 143.461 381.741 143.662C382.082 144.686 380.75 142.986 380.657 142.857" stroke="black" stroke-linecap="round" stroke-linejoin="round"/>
<path id="Vector 249" d="M394.87 135.333C391.78 134.447 388.644 133.519 386.122 136.138C384.52 137.802 383.723 141.002 383.723 143.221C383.723 144.335 383.853 145.649 384.203 146.697C384.514 147.631 384.954 147.981 385.457 148.771C386.266 150.044 389.636 149.796 390.829 149.406C393.097 148.665 394.44 147.296 395.814 145.427C396.452 144.56 396.258 143.645 395.876 142.718C395.691 142.268 397.458 140.366 397.51 139.567C397.622 137.822 397 136.737 395.714 135.611C395.11 135.083 395.259 134.453 394.243 134.365C392.157 134.184 388.901 133.583 387.485 135.472" stroke="black" stroke-linecap="round" stroke-linejoin="round"/>
<path id="Vector 251" d="M402.673 138.259C403.612 136.697 404.041 135.472 405.847 135.472C406.279 135.472 406.957 135.601 407.341 135.395C408.247 134.907 409.431 134.739 410.267 134.21C412.136 133.03 413.735 134.825 414.347 136.478C414.894 137.956 414.477 141.198 413.201 142.292C412.527 142.869 411.943 143.045 411.111 143.283C410.382 143.491 409.651 144.566 408.804 144.808C407.966 145.047 407.572 145.611 406.683 145.644C405.983 145.67 404.165 146.48 404.066 147.316C404.028 147.642 403.366 147.267 403.517 147.796C403.605 148.104 404.382 147.945 404.562 147.904C405.376 147.718 406.741 147.127 407.55 147.486C409.131 148.189 410.798 147.595 412.497 147.595C412.817 147.595 414.085 147.667 414.238 147.935C414.622 148.606 413.834 149.267 413.186 149.267C411.866 149.267 411.034 149.635 409.81 150.072C408.679 150.476 407.425 149.907 406.265 149.824C405.09 149.74 400.817 150.052 400.165 148.911C399.182 147.191 402.208 147.14 401.667 145.923C401.231 144.942 403.043 144.43 403.726 144.39C404.61 144.338 404.998 142.892 405.599 142.857C406.381 142.811 406.623 142.131 407.202 141.68C407.869 141.161 408.804 141.074 409.493 140.558C410.279 139.968 410.606 139.543 409.578 138.955C409.115 138.691 410.476 138.165 410.476 137.632C410.476 136.54 408.687 136.817 408.247 137.454C407.614 138.368 406.585 137.944 405.739 138.367C405.079 138.697 405.564 139.879 404.624 139.931C404.1 139.96 402.446 139.861 403.23 139.234" stroke="black" stroke-linecap="round" stroke-linejoin="round"/>
<path id="Vector 252" d="M383.723 133.521C383.529 133.635 380.702 135.46 381.23 135.255C381.68 135.08 382.085 134.848 382.5 134.605C383.055 134.279 383.948 133.809 382.964 134.435C382.202 134.92 382.988 134.343 383.22 134.009C384.085 132.759 381.237 134.192 381.075 134.295C379.976 135.002 380.542 134.769 381.153 134.14C381.967 133.302 381.129 132.878 380.293 133.475C379.866 133.78 377.263 135.867 378.652 134.272C379.041 133.825 379.598 133.263 379.79 132.685C379.797 132.665 378.324 133.658 378.149 133.8C377.518 134.309 375.04 136.524 376.725 134.558C377.229 133.97 377.693 133.287 378.041 132.592C378.183 132.307 376.487 133.613 376.322 133.738C375.813 134.124 371.99 137.762 373.775 135.735C374.07 135.401 376.338 132.55 374.743 133.97C373.457 135.116 369.904 138.874 371.136 137.67C371.977 136.848 372.595 136.004 373.249 135.023C373.348 134.874 374.31 133.524 373.597 134.179C372.389 135.291 368.516 138.254 369.99 137.531C370.864 137.103 371.687 136.571 372.576 136.176C373.364 135.826 374.536 135.312 373.001 136.068C371.407 136.853 369.923 137.833 368.426 138.785C367.685 139.257 365.335 140.397 366.181 140.163C368.386 139.555 370.594 138.204 372.653 137.206C374.028 136.539 369.9 138.655 368.844 139.761C368.206 140.429 369.47 139.792 369.634 139.699C370.755 139.061 371.928 138.449 373.164 138.065C374.035 137.795 372.495 138.602 372.374 138.677C371.13 139.449 369.887 140.21 368.658 141.007C367.288 141.896 371.164 140.729 371.631 140.597C372.45 140.364 372.676 140.174 371.778 140.713C370.534 141.459 369.21 142.147 368.07 143.051C367.653 143.381 367.517 143.622 368.179 143.383C369.507 142.904 370.788 142.276 372.096 141.742C374.221 140.874 370.468 142.654 369.959 142.934C367.542 144.266 370.156 143.232 371.298 143.004C372.452 142.773 369.54 143.971 369.882 144.312C370.256 144.687 372.863 143.253 372.266 143.585C371.981 143.743 369.78 144.955 371.105 144.529C371.43 144.425 372.58 143.942 372.436 144.01C371.634 144.396 370.873 144.825 370.106 145.272C369.793 145.455 370.766 144.968 371.105 144.839C371.716 144.605 372.05 144.25 371.182 144.56C370.807 144.694 367.737 145.906 369.03 145.079C370.648 144.043 368.38 145.307 367.931 145.837C367.202 146.699 370.103 145.188 371.12 144.699C371.697 144.423 369.429 145.89 369.665 145.83C370.333 145.659 374.954 143.473 372.39 145.04C371.903 145.337 367.973 148.007 370.377 146.805C371.431 146.278 372.392 145.556 373.489 145.117C374.336 144.779 372.222 145.944 372.018 146.062C371.208 146.529 369.925 147.064 369.363 147.842C369.259 147.986 371.173 147.252 371.43 147.115C372.47 146.559 373.383 145.765 374.441 145.249C375.782 144.595 374.182 145.468 373.775 145.775C373.449 146.022 370.733 148.171 372.545 147.208C373.34 146.784 377.367 144.341 374.666 146.232C374.117 146.616 371.165 149.152 373.288 147.718C374.454 146.931 375.64 146.172 376.802 145.381C377.219 145.097 378.384 144.313 377.421 145.195C377.006 145.576 374.33 148.729 375.262 148.044C376.303 147.278 377.213 146.328 378.165 145.458C378.971 144.721 379.191 144.583 378.288 145.396C377.854 145.788 374.596 149.361 376.493 147.78C376.875 147.461 379.914 144.689 378.536 146.263C377.947 146.936 377.354 147.569 376.725 148.198C376.241 148.682 377.847 147.408 378.335 146.929C378.481 146.785 380.13 145.485 380.115 145.543C379.976 146.099 379.04 146.941 378.652 147.362C377.81 148.278 380.083 146.41 380.355 146.155C380.958 145.59 379.317 147.204 379.744 146.418C379.952 146.034 381.51 144.662 379.961 145.148C378.862 145.493 380.259 144.665 380.371 144.049C380.49 143.396 379.033 144.313 380.208 143.832C380.373 143.765 381.213 143.161 380.766 143.515C380.395 143.809 379.162 144.374 379.635 144.374C379.999 144.374 382.193 142.934 380.719 143.902C380.189 144.25 378.761 144.997 380.069 144.947C380.095 144.946 379.041 145.433 378.598 145.783C378.058 146.21 377.786 146.711 377.011 146.55C376.13 146.366 375.34 146.514 374.48 146.201C373.949 146.008 375.77 145.018 375.161 145.644C374.916 145.896 373.177 147.088 374.186 147.184C375.272 147.288 374.786 147.915 374.666 147.734" stroke="black" stroke-linecap="round" stroke-linejoin="round"/>
<path id="Vector 253" d="M389.714 135.054C389.438 135.122 385.383 136.466 387.346 135.72C388.067 135.445 388.745 135.069 389.459 134.783C390.874 134.217 384.095 137.268 385.619 137.268C386.463 137.268 389.73 135.812 387.284 137.036C386.928 137.214 385.263 138.297 385.565 138.174C386.728 137.698 387.782 136.934 388.956 136.509C389.817 136.197 386.114 138.125 386.277 138.081C387.358 137.786 388.426 136.757 389.405 136.2C389.665 136.051 390.799 135.262 389.807 135.565C389.082 135.786 386.933 136.469 387.686 136.385C388.569 136.287 389.45 135.641 390.318 135.418C391.612 135.085 386.43 137.127 389.32 136.37C390.057 136.177 391.903 135.058 391.51 135.712C391.449 135.814 390.205 136.308 390.473 136.308C391.354 136.308 392.201 135.885 393.066 135.766C393.864 135.656 391.607 136.452 390.907 136.85C390.125 137.294 394.491 135.925 393.035 136.61C390.294 137.9 393.251 137.265 394.436 136.803C394.95 136.604 394.158 137.144 394.049 137.214C393.559 137.529 394.907 137.088 394.978 137.067C397.155 136.414 393.715 137.818 393.926 138.088C394.075 138.28 397.352 136.672 395.04 137.949C394.624 138.179 393.372 138.626 394.661 138.452C395.193 138.38 396.581 137.6 396.201 137.98C395.681 138.5 393.461 139.44 395.698 138.545C397.089 137.989 393.567 140.029 394.901 139.567C395.542 139.345 396.277 139.216 396.875 138.894C396.914 138.872 395.412 139.7 395.009 139.9C392.305 141.24 394.969 140.195 396.263 139.962C396.914 139.845 393.359 141.448 394.127 141.448C394.28 141.448 395.922 141.175 395.892 141.247C395.51 142.154 393.74 142.475 392.973 142.842C391.092 143.741 397.055 141.671 394.08 143.074C390.938 144.556 396.926 142.4 394.173 144.103C391.691 145.64 394.383 144.027 395.056 144.699C395.196 144.84 394.715 144.907 394.529 144.978C393.869 145.231 393.195 145.465 392.555 145.768C391.854 146.1 391.74 146.266 392.641 146.17C393.325 146.098 395.155 145.296 394.669 145.783C394.144 146.308 392.477 146.675 391.75 147.029C389.189 148.279 394.195 146.675 394.824 146.495C396.554 146.001 388.123 149.047 389.885 148.678C390.702 148.507 391.962 148.197 392.656 147.734C393.005 147.501 390.867 147.977 390.597 148.044C390.334 148.109 388.499 148.745 388.894 148.702C389.012 148.688 389.846 148.513 389.714 148.462C389.212 148.266 388.46 148.833 387.934 148.833C387.904 148.833 389.2 148.051 389.513 147.935C390.397 147.608 385.882 148.945 386.788 148.686C387.738 148.415 388.855 147.99 389.683 147.455C389.838 147.355 388.254 147.68 387.957 147.819C384.474 149.454 387.957 147.63 389.343 147.006C390.48 146.495 384.429 147.817 385.673 147.734C386.094 147.706 386.872 146.968 386.092 147.246C385.707 147.383 389.048 145.832 386.928 146.627C385.42 147.192 385.13 147.24 386.726 146.41C388.687 145.39 386.045 146.273 385.348 146.472C384.953 146.585 386.088 146.113 386.448 145.915C386.91 145.66 387.689 145.195 386.649 145.396C385.951 145.531 383.978 146.37 384.636 146.101C385.379 145.797 386.696 145.546 387.222 144.87C387.252 144.831 383.568 145.828 384.443 145.427C385.526 144.931 386.802 144.637 384.923 144.8C384.227 144.861 387.039 143.646 385.704 144.111C384.479 144.538 388.135 142.935 386.51 143.476C385.801 143.712 384.716 144.071 384.094 144.467C383.766 144.676 385.169 144.331 385.333 144.25C387.924 142.973 385.561 144.117 384.419 144.359C383.527 144.548 386.229 143.309 386.138 143.283C385.334 143.053 382.605 144.321 385.403 143.143C385.615 143.054 386.97 142.449 386.959 142.447C386.13 142.296 385.186 142.806 384.45 143.105C382.837 143.76 386.358 142.35 386.618 141.882C386.825 141.509 382.817 142.883 385 141.735C385.096 141.684 386.835 140.798 386.695 140.659C386.502 140.465 385.678 140.767 385.418 140.767C384.757 140.767 386.562 140.103 387.144 139.792C387.54 139.58 388.409 139.194 387.524 139.242C386.746 139.284 385.423 139.565 384.791 140.039C384.225 140.464 386.155 139.593 386.734 139.188C387.434 138.697 382.979 140.25 385.596 139.234C385.745 139.176 387.537 138.537 386.796 138.537C386.574 138.537 386.258 138.372 386.649 138.398C386.658 138.399 385.887 139.08 385.766 139.203C385.499 139.477 385.212 139.927 385.681 140.132C387.012 140.714 385.271 139.959 385.271 140.976C385.271 141.072 385.783 141.06 385.882 141.115C386.22 141.303 385.681 141.126 385.596 141.046C385.28 140.747 385.536 139.016 385.534 139.017C384.85 139.747 387.741 138.52 387.144 138.537C385.687 138.58 385.342 139.441 386.788 138.537" stroke="black" stroke-linecap="round" stroke-linejoin="round"/>
<path id="Vector 254" d="M403.23 139.513C403.46 139.454 407.174 138.677 405.29 138.677C404.85 138.677 404.028 138.522 403.633 138.785C402.955 139.237 405.277 138.747 406.064 138.537C406.812 138.339 406.302 138.398 405.847 138.398C402.644 138.398 405.537 138.652 405.537 138.398C405.537 137.906 402.07 138.599 405.112 138.181C406.703 137.963 407.363 137.283 405.367 137.283C402.341 137.283 405.593 137.352 406.652 136.865C407.284 136.575 403.938 136.424 404.515 136.649C405.169 136.903 408.667 136.694 406.466 136.339C404.292 135.988 407.417 136.4 408.216 136.277C410.178 135.975 407.658 135.688 407.922 135.952C408.609 136.639 411.78 135.998 410.832 135.782C410.033 135.599 407.354 136.571 409.16 136.571C409.522 136.571 410.848 136.475 411.057 136.099C411.213 135.818 409.401 136.334 409.307 136.378C407.426 137.25 410.005 137.588 410.894 137.144C411.785 136.699 409.481 136.363 410.646 135.96C411.428 135.689 412.99 135.601 411.901 134.915C411.247 134.503 413.136 134.513 413.511 134.388C414.448 134.076 411.187 134.301 410.639 135.124C410.217 135.757 413.518 135.637 412.814 135.193C411.693 134.487 409.178 135.608 412.001 135.743C414.241 135.85 412.527 136.153 411.351 136.447C410.029 136.778 414.067 136.726 415.431 136.726C416.75 136.726 410.47 137.444 411.676 137.98C412.065 138.153 414.995 137.958 413.65 137.98C413.102 137.989 409.387 138.626 411.281 138.847C412.003 138.931 412.736 138.925 413.449 139.064C413.636 139.1 412.381 139.236 412.086 139.304C411.692 139.395 410.924 139.768 411.738 139.931C412.16 140.015 413.43 140.186 413 140.21C411.096 140.315 411.398 140.569 413.108 140.837C414.905 141.117 411.167 140.87 410.538 140.906C409.663 140.956 413.998 141.418 413.155 141.177C412.519 140.996 408.169 141.157 408.169 142.021C408.169 142.544 412.194 141.882 410.941 141.882C410.077 141.882 406.062 142.58 408.866 142.71C409.371 142.733 410.881 142.578 410.376 142.578C409.352 142.578 408.366 142.605 407.364 142.857C404.086 143.683 407.075 143.832 408.711 143.616C410.759 143.345 405.179 143.158 405.243 144.25C405.29 145.044 409.929 143.683 407.411 143.925C406.275 144.034 405.093 144.486 403.989 144.777C403.238 144.974 405.546 144.817 406.319 144.738C406.516 144.718 407.852 144.529 406.962 144.529C405.456 144.529 403.978 145.069 402.58 145.582C399.717 146.632 403.511 146.28 404.531 145.93C405.688 145.534 401.585 146.336 401.806 146.557C402.397 147.148 404.14 146.533 404.802 146.418C405.029 146.378 406.697 146.054 406.342 146.062C405.222 146.087 404.12 146.496 403.076 146.867C402.542 147.057 401.233 147.577 402.627 147.378C403.431 147.263 404.473 147.287 405.204 146.906C405.292 146.86 403.006 147.275 402.487 147.455C402.264 147.533 399.889 148.454 400.598 148.539C401.861 148.691 403.241 148.213 404.438 147.873C405.678 147.522 405.146 147.49 404.206 147.657C402.889 147.89 401.769 148.7 400.475 148.988C398.919 149.334 403.592 148.274 405.181 148.152C405.938 148.094 402.828 148.874 403.323 149.189C404.505 149.941 408.632 148.016 407.511 148.856C406.584 149.552 403.741 150.341 407.178 149.654C408.652 149.359 411.617 147.804 408.518 148.996C405.257 150.25 409.171 149.248 410.244 148.462C411.201 147.76 409.698 147.729 409.222 147.796C408.163 147.945 407.089 148.364 406.11 148.787C404.59 149.443 409.373 148.213 410.979 147.811C412.164 147.515 406.53 149.566 407.751 149.545C408.996 149.524 410.247 149.087 411.421 148.709C411.868 148.565 413.022 147.871 411.924 148.237C409.62 149.005 413.67 148.168 414.285 148.02C415.123 147.819 413.598 148.208 413.395 148.299C412.706 148.608 411.196 148.994 410.677 149.545C409.6 150.69 413.749 148.87 415.26 148.438C416.018 148.222 412.379 149.376 413.155 149.514C413.818 149.632 416.141 148.827 414.517 149.344C413.317 149.726 413.641 149.824 414.656 149.824C414.93 149.824 415.227 150.49 415.074 149.267" stroke="black" stroke-linecap="round" stroke-linejoin="round"/>
</g>
</g>
</svg>
