<svg width="76" height="68" viewBox="0 0 76 68" fill="none" xmlns="http://www.w3.org/2000/svg">
<g id="fog">
<rect id="Rectangle 56" width="76" height="68" fill="white"/>
<g id="Group 49">
<path id="Vector 233" d="M46.9807 8.95016C38.0525 7.69709 31.5771 5.53783 27.3141 14.4189C26.7794 15.533 27.3429 22.4339 25.7787 21.7387C22.1243 20.1145 20.2146 18.9035 16.0611 20.5397C10.0678 22.9007 6.0911 26.3777 6.0911 32.9707C6.0911 39.1289 10.2988 39.6912 14.8832 40.8373C16.4886 41.2386 21.224 39.8563 19.8472 40.7742C18.57 41.6257 17.2524 43.439 16.9024 44.9389C14.3375 55.9314 28.5088 61.7713 36.59 56.2761C39.2018 54.5001 39.0457 51.9256 41.1123 55.1402C43.1266 58.2737 49.5948 59.6101 52.8281 58.085C58.7148 55.3082 60.8342 51.9949 62.3143 46.0747C62.6535 44.7178 61.9211 43.253 61.2415 42.1204C60.6277 41.0972 63.7082 42.1893 64.7962 41.6997C74.9748 37.1193 69.419 16.5562 57.9603 22.2855C57.011 22.7602 57.6689 23.433 58.1496 21.9911C58.7431 20.2106 58.0766 18.5339 57.3713 16.9219C56.5031 14.9373 53.1425 12.0152 50.9771 11.6214C47.6203 11.0111 44.9838 10.6234 41.8695 13.1148C40.6341 14.1032 42.4374 12.9639 42.4374 10.8432C42.4374 8.43008 39.9166 7.43573 37.81 7.43573C31.1885 7.43573 25.4001 12.4894 25.4001 19.3619C25.4001 21.1461 25.8839 17.0691 26.0731 16.354C27.0586 12.6314 29.2971 9.2905 33.3508 8.27708C37.5996 7.21489 40.3117 9.07971 44.1201 10.4646C45.2327 10.8692 48.2884 14.7529 47.822 13.8721C45.7087 9.88025 35.623 10.5714 31.6891 11.7687C29.8182 12.3381 32.7937 11.4351 33.3508 10.8432C34.0806 10.0678 27.8658 13.1513 30.0696 12.568C32.7601 11.8558 41.4553 7.38826 34.0239 10.8432C30.0343 12.698 24.0953 15.8038 31.2895 11.6004C32.1672 11.0876 39.0938 7.77733 35.2439 8.73982C33.1265 9.26917 32.5006 8.85654 34.8232 8.19295C36.6037 7.68421 31.9362 10.5619 30.2799 11.3901C26.5758 13.2421 25.155 14.5481 29.4806 12.0632C29.7485 11.9093 32.1875 10.5496 31.2054 11.2428C30.6595 11.6281 28.7704 12.1894 29.4385 12.1894C31.8549 12.1894 38.266 8.63402 36.4007 10.1701C35.278 11.0947 25.4479 15.5855 29.7961 14.4189C33.1075 13.5305 42.4127 9.10679 39.4085 10.7591C37.9469 11.563 28.9314 15.8619 34.8652 14.1665C37.0524 13.5416 39.2965 12.4149 41.5329 12.0421C43.5293 11.7094 37.8171 13.6517 36.0011 14.5451C34.1092 15.4758 30.6093 16.3796 29.3123 18.1629C29.294 18.1882 33.5473 16.7773 34.1922 16.4382C35.4983 15.7513 45.7637 10.9078 39.5978 13.22C35.7203 14.6741 31.9299 16.4959 28.2186 18.3312C25.9683 19.444 25.4661 19.8467 28.1765 18.1629C30.5617 16.6812 40.2931 11.9872 32.0467 14.6293C29.6234 15.4057 26.1661 16.2795 30.2378 14.7134C30.6504 14.5547 26.2671 15.9227 25.0635 16.8588C24.7105 17.1334 32.8382 13.7849 34.9073 12.7783C39.5246 10.532 28.8299 15.9608 27.8189 16.5644C25.1526 18.1562 22.6355 20.0608 19.8051 21.3601C18.5389 21.9413 18.3602 22.1092 19.8051 21.6125C22.8561 20.5637 31.3237 15.8685 28.6393 17.6581C26.478 19.099 19.3614 20.4186 21.7823 21.3601C22.9061 21.7971 30.0147 19.0609 29.8171 19.2146C26.5892 21.7252 15.0256 25.6188 19.0899 25.1672C22.3248 24.8077 30.1618 21.7474 32.3412 19.2567C36.8164 14.1421 20.3893 26.7184 13.6212 27.3336C10.6459 27.6041 23.5066 21.6954 20.5202 21.6125C18.5573 21.5579 16.1169 22.5753 14.4625 23.5265C14.0031 23.7907 10.245 25.4232 12.1909 24.5151C14.0878 23.6299 20.5351 20.1116 20.394 20.1822C18.8192 20.9696 8.01259 26.4641 13.1374 24.0524C15.4655 22.9568 22.899 19.8483 16.2925 22.6011C15.5443 22.9128 10.7685 24.4413 10.5923 25.1461C10.1322 26.9867 14.2039 23.949 15.9139 23.1269C20.4033 20.9685 22.7758 19.2753 16.7342 22.6221C14.4443 23.8906 1.59722 30.3172 10.8027 26.282C14.9999 24.442 18.998 22.1649 23.2126 20.3715C24.882 19.6611 26.0509 18.8591 23.5491 20.098C19.643 22.0325 15.8549 24.2117 12.0436 26.324C11.941 26.3809 6.95719 29.3515 7.10072 29.4791C8.85989 31.0428 23.6422 22.0924 25.4632 21.1497C27.702 19.9908 34.0397 16.0437 32.2571 17.8264C29.9685 20.1149 25.4953 21.7157 22.7077 23.2741C17.4057 26.2383 12.1513 29.261 7.01658 32.5079C1.93054 35.7241 11.2983 30.9948 12.3171 30.4466C22.0899 25.1877 31.504 18.6336 41.8064 14.4189C50.1142 11.0203 26.0321 22.9947 18.2696 27.5019C13.5248 30.257 9.20722 33.5663 4.61874 36.5464C1.35241 38.6678 7.93759 35.4339 8.48894 35.1582C20.0255 29.3899 31.2552 22.9712 42.6688 16.964C51.6988 12.2114 24.5428 26.4242 16.0401 32.0662C14.2395 33.261 8.84393 36.7815 10.8237 35.9154C14.8604 34.1493 18.7076 31.8448 22.5395 29.6894C29.655 25.6869 36.7386 21.5342 44.057 17.9105C46.2431 16.8281 53.0342 14.494 50.5985 14.6293C46.8948 14.835 42.7823 17.9312 39.682 19.6143C32.8464 23.325 26.3239 27.4276 19.6789 31.4563C15.48 34.0019 11.114 36.2883 6.99555 38.9653C4.59225 40.5274 12.5331 37.3264 15.0515 35.9575C25.7862 30.1224 36.996 24.6467 47.4224 18.2891C49.8737 16.7945 47.6387 17.6028 46.3497 18.205C40.5366 20.921 34.8975 24.1109 29.3544 27.3336C24.1821 30.3408 19.0784 33.4537 13.9577 36.5464C13.4145 36.8745 12.4528 37.4691 14.0418 36.7568C17.386 35.2577 20.4964 33.292 23.6963 31.5194C33.2502 26.2269 62.7676 12.1007 52.5967 16.0806C40.3517 20.8721 29.1721 28.9245 18.0803 35.7892C14.3962 38.0693 10.0634 40.5828 16.9655 37.5771C25.0081 34.0747 32.3997 29.4799 40.1657 25.4406C44.2456 23.3186 48.6313 20.5327 53.0384 19.1305C59.3106 17.1348 41.452 25.3798 35.6856 28.5536C30.0523 31.6541 24.6196 35.0796 18.9637 38.145C15.1397 40.2175 20.4127 38.3918 21.4457 37.9557C32.5511 33.2667 44.3513 26.9006 54.5949 20.4766C64.5061 14.2611 33.8522 31.3059 23.5912 36.925C21.7766 37.9187 16.7218 40.6086 21.9295 38.6708C28.8098 36.1107 34.8259 31.6305 41.2595 28.175C44.8128 26.2665 50.959 24.5753 53.8377 21.6966C56.6136 18.9207 46.7552 25.0954 43.3208 26.9971C36.3043 30.8823 15.2993 42.4279 22.7708 39.5122C34.666 34.8702 46.0677 27.7527 57.4344 21.9069C58.3412 21.4406 62.8998 19.5757 59.4326 21.2339C52.4213 24.5871 45.708 28.4741 39.0299 32.4448C31.5929 36.8669 24.0346 41.1556 16.7342 45.8013C15.0558 46.8693 11.8205 48.6492 15.7456 46.8109C28.4185 40.8754 40.3929 33.5813 52.7439 27.0392C53.3565 26.7147 61.7473 22.3438 58.2758 23.6527C52.2179 25.9369 46.6909 29.5427 41.1333 32.8024C33.5298 37.2622 26.0228 41.8202 18.5641 46.5164C17.6612 47.0849 12.4328 50.3894 16.5238 48.4515C30.0272 42.0552 42.5051 33.664 55.9831 27.2074C56.3303 27.0411 60.4359 25.119 59.6009 25.3144C55.0575 26.3778 50.6856 29.4319 46.7283 31.7297C39.9828 35.6464 33.2369 39.6645 26.8304 44.1186C26.3604 44.4453 20.8808 48.3734 22.0978 47.9677C27.6435 46.1192 32.9483 42.6523 37.9993 39.8066C45.5007 35.5805 53.1156 31.4604 60.5264 27.0812C70.5182 21.177 40.4274 38.7007 30.5744 44.8337C28.5219 46.1113 22.3127 49.2517 24.727 49.1246C29.8109 48.857 36.9394 43.1021 41.1123 40.7111C47.7244 36.9225 54.3185 33.0012 60.7367 28.8901C62.3282 27.8708 65.9633 25.3867 61.9146 27.6491C50.0421 34.2838 38.5766 41.542 27.0828 48.7881C19.5441 53.5407 42.8833 40.5336 50.6405 36.1468C55.2448 33.543 59.6315 30.5363 64.3335 28.1119C68.3517 26.04 65.8242 27.1406 63.387 28.6377C50.1346 36.7785 36.6673 44.5249 23.0022 51.9431C20.2701 53.4263 22.9224 52.4348 24.138 51.859C30.0602 49.0537 35.5108 45.1765 41.0702 41.7418C45.9671 38.7163 51.0753 35.9683 55.8569 32.7603C57.674 31.5413 51.1037 35.0722 50.5985 35.3685C42.1967 40.2965 16.8173 54.6374 25.7366 50.7232C38.6826 45.0418 51.6552 37.2519 63.3029 29.2687C72.3807 23.0469 44.4643 40.6571 35.2018 46.6005C30.1966 49.8122 23.9134 52.9109 19.8261 57.3698C18.4387 58.8833 25.7408 55.094 26.0311 54.9299C38.136 48.088 49.8785 40.4891 61.6833 33.139C65.1307 30.9924 59.8253 33.8778 59.2223 34.2327C52.2062 38.3618 45.5529 43.0547 38.7986 47.5891C34.4705 50.4947 29.9169 53.2062 25.9049 56.5495C23.5199 58.537 28.6355 55.5387 29.0599 55.3085C36.0531 51.5156 56.9569 40.0139 49.8413 43.5717C41.2874 47.8486 32.7009 53.5468 24.9373 59.1366C19.6073 62.9743 36.5276 52.9548 42.3322 49.8818C44.3347 48.8217 42.6431 49.2474 41.554 49.8818C38.6915 51.5493 35.9882 53.514 33.2036 55.3085C26.168 59.8425 37.7748 54.17 39.5558 53.2682C43.1589 51.4439 46.9951 49.5619 41.3016 52.49C40.8457 52.7244 37.933 54.3843 38.6303 53.8992C41.7485 51.73 44.7848 49.4719 47.822 47.1895C52.2347 43.8735 56.4145 40.2615 60.7998 36.904C61.2794 36.5368 65.1999 33.2265 62.2512 34.4851C54.5104 37.7891 32.5982 50.3366 40.334 47.0212C47.2794 44.0446 53.6453 39.7503 60.4633 36.4833C63.9445 34.8153 58.8807 38.1853 58.3389 38.5236C53.6429 41.4554 48.8644 44.2606 44.2463 47.3157C43.7254 47.6603 38.917 50.2313 41.6381 49.377C45.7218 48.0949 49.5177 45.907 53.2487 43.8451C54.8942 42.9358 57.8938 41.7872 59.2223 40.4587C61.3826 38.2984 53.8363 43.3539 51.2505 44.9809C48.2538 46.8665 36.6965 54.0828 46.7283 49.1246C51.2155 46.9068 55.6023 44.502 59.8323 41.8259C62.8921 39.8901 58.4232 42.7046 57.792 43.1089C54.4154 45.2721 50.9764 47.3321 47.5276 49.377C47.1236 49.6165 42.8387 52.3989 45.1928 51.2911C49.3941 49.314 61.416 42.2555 57.4344 44.6444C53.2841 47.1346 40.7124 54.1654 45.298 52.6162C50.8946 50.7254 65.6535 40.8416 61.1153 44.6234C56.1575 48.7549 49.7013 51.3564 44.2042 54.6775C39.6199 57.4472 53.7426 49.8006 58.4651 47.2736C66.0742 43.2021 52.7073 50.4338 51.1033 51.3962C49.2307 52.5198 47.3854 53.6876 45.5083 54.8037C44.472 55.4199 41.421 56.2035 42.4795 56.7809C43.7631 57.481 50.2743 52.6449 51.5029 51.9641C52.3511 51.4942 59.3849 47.7728 60.1057 48.4936C60.6892 49.077 58.5979 49.1648 57.8551 49.5242C55.8896 50.4753 53.9904 51.509 52.1339 52.6583C50.3465 53.7647 44.7685 55.847 46.8545 56.1078C48.2848 56.2866 51.712 53.8313 52.9122 53.2051C55.1469 52.0392 57.3514 50.9196 59.7271 50.0711C61.308 49.5065 56.7631 51.6494 55.31 52.49C53.2066 53.7068 45.0181 58.4706 51.9446 55.3506C57.2257 52.9717 59.841 51.8114 52.9543 55.7713C52.6498 55.9463 48.3918 58.4718 48.411 58.4846C48.8176 58.7557 52.4491 56.4431 52.8281 56.2761C60.4259 52.9279 54.0106 55.5124 50.6195 57.5802C44.6662 61.2102 52.2544 56.1079 53.7115 54.6144C58.5347 49.6706 53.5427 49.6639 48.8737 50.5128C48.3218 50.6132 41.7165 51.4326 41.7853 51.1228C42.1535 49.4662 48.1116 46.5643 49.2944 45.7171C53.2702 42.8693 57.4126 40.1627 61.1574 37.0092C61.905 36.3796 64.3006 34.5823 62.0198 34.7165C59.4977 34.8648 50.3657 38.1995 55.7097 33.0128C57.7322 31.0497 60.5888 28.9976 61.3888 26.1978C61.5078 25.7813 63.8984 24.6282 63.4291 24.4941C62.349 24.1855 60.5677 25.2517 62.8822 24.0944C63.4821 23.7945 65.9012 22.6989 63.9549 23.7369C62.9226 24.2874 59.6089 25.2303 60.7788 25.2303C62.7291 25.2303 68.0117 22.3069 66.2055 23.0428C65.3345 23.3976 59.6592 26.1127 62.9663 25.5247C65.4136 25.0897 67.1857 24.2581 64.0601 26.1558C60.5697 28.2749 65.608 26.0405 67.3413 26.3871C67.551 26.4291 60.6045 29.8989 65.3011 28.4695C68.4694 27.5052 62.251 30.8927 61.6202 31.2459C59.4138 32.4815 65.0786 29.8035 65.8269 29.7736C66.0008 29.7666 58.7743 33.5312 63.2608 31.288C66.241 29.7979 71.3811 27.2253 65.4062 30.699C59.5306 34.1151 64.7456 31.4154 67.9303 30.068C71.0687 28.7402 61.3795 32.5803 58.9699 34.9899C57.3631 36.5967 67.3084 31.3764 65.1959 32.2135C64.1939 32.6105 56.0286 37.3803 59.4747 36.2099C60.6345 35.816 66.0778 32.1071 62.9663 34.5272C61.0615 36.0087 59.2087 38.0267 62.6718 35.8102C67.6706 32.6111 62.6223 36.2958 60.2109 37.535C58.2617 38.5367 56.0099 39.4643 54.4266 41.0476C52.9585 42.5157 58.064 39.0398 59.9375 38.145C63.0924 36.6381 69.343 32.8753 62.3563 36.7568C59.9744 38.0801 55.5147 40.6499 60.8629 38.2291C62.5036 37.4865 68.7707 34.0614 64.1863 37.3457C59.8284 40.4677 68.5371 35.4527 69.8233 35.4527C72.4839 35.4527 60.6054 39.83 63.2608 39.996C66.2617 40.1835 64.0813 40.896 61.8095 42.3728C60.4902 43.2303 65.3996 40.1017 66.3948 39.6594C67.1585 39.32 64.945 40.4914 64.2283 40.9214C63.1515 41.5675 60.8084 44.0205 60.9471 42.7724C61.0815 41.5623 66.328 39.2806 66.2055 39.3229C65.1315 39.6932 59.4973 43.0494 62.5456 41.0897C64.4444 39.8691 69.3926 37.3531 64.3966 39.0705C58.9338 40.9483 67.4523 37.3296 69.024 36.4412C70.6996 35.4942 68.7783 36.0709 68.0144 36.3781C65.2149 37.5044 62.407 39.014 59.8744 40.648C57.0207 42.4891 66.4374 38.0804 68.6875 35.5368C68.9909 35.1938 65.0728 36.3384 64.5018 36.6306C63.3559 37.2168 62.1967 37.7673 61.0312 38.3133C60.0998 38.7496 58.2548 40.6879 58.2548 39.6594C58.2548 38.8198 65.5361 35.4527 64.9856 35.4527C61.4889 35.4527 66.3602 34.3707 67.6779 32.9707C68.2099 32.4054 66.1763 33.3741 65.4483 33.6438C64.3429 34.0532 66.1245 33.4033 66.4579 33.181C69.2566 31.3153 67.3047 32.3922 65.3852 33.16C63.9464 33.7355 71.1645 31.3147 69.9495 32.2766C69.3339 32.764 62.8112 36.004 65.4273 35.8102C67.1275 35.6843 72.008 33.1281 71.3377 33.2652C69.6095 33.6187 62.4633 38.166 66.6682 35.0741C67.9552 34.1277 70.9973 31.3272 67.5517 32.6341C63.0225 34.3521 68.7153 31.4692 69.7602 30.2153C70.5904 29.2191 67.2771 31.0178 66.1424 31.6456C65.8222 31.8227 62.7998 33.8979 62.3774 33.4755C62.2637 33.3618 65.7405 30.9862 66.0372 30.7411C66.2702 30.5487 68.2092 28.8625 67.2572 29.1005C63.5611 30.0245 54.0043 36.1694 56.6983 33.4755C59.4965 30.6772 69.5677 24.4744 65.911 25.9875C58.7652 28.9444 52.7761 35.4715 45.908 39.2177C41.2336 41.7674 55.3433 34.2792 60.1057 31.898C70.3882 26.7567 40.1755 43.364 30.3009 49.2508C29.9371 49.4677 23.7438 52.9925 27.251 51.6066C31.2612 50.0219 35.182 48.2911 38.9879 46.264C40.9746 45.2058 43.2528 44.3392 45.1297 43.0879C47.2247 41.6912 40.6004 45.2944 38.3989 46.5164C34.3136 48.784 30.2761 50.9921 26.3887 53.5837C25.1273 54.4246 23.0572 55.8204 25.9049 54.4251C27.3067 53.7382 38.1078 47.9388 34.2342 48.8722C29.7555 49.9514 17.2583 56.0411 21.4878 54.2148C23.8397 53.1992 30.4942 48.9176 30.3851 48.9563C28.7847 49.5242 19.246 54.0632 25.1687 51.1649C26.4383 50.5436 32.2258 46.6937 27.882 48.7881C26.9864 49.2199 20.0743 52.02 23.7594 50.4287C27.8527 48.6611 25.2469 49.536 22.7288 50.4076C18.5188 51.8649 24.8643 49.5397 26.1573 48.8932C27.726 48.1088 20.5149 51.4453 19.0689 52.2586C17.4576 53.165 22.4845 50.8348 24.138 50.008C24.4211 49.8665 28.3869 48.1698 28.3869 47.7784C28.3869 46.7562 26.5513 48.6798 25.6525 49.1667C23.8769 50.1284 19.8298 53.8391 20.2258 51.859C20.4346 50.815 28.1416 46.7972 22.245 49.377C21.1146 49.8715 19.3152 51.6486 18.1224 51.6486C16.1743 51.6486 21.4899 49.6891 23.1705 48.7039C29.1784 45.182 19.8907 49.2373 18.0383 50.3025C8.93468 55.537 30.377 43.3695 22.1188 47.2105C20.9474 47.7553 14.6609 50.1369 19.132 48.725C23.0515 47.4872 21.0325 48.6061 18.2696 49.2508C14.8746 50.043 18.3168 49.3197 19.763 48.7881C20.22 48.6201 22.7171 47.6549 20.983 48.5567C19.9823 49.077 17.0383 50.4912 18.1645 50.4287C18.8752 50.3892 25.6265 47.4657 23.4229 48.725C20.8753 50.1807 16.7648 52.5395 22.0347 50.1973C28.0872 47.5073 21.8282 50.5902 19.4265 51.6486C17.2771 52.5958 27.9433 47.7796 25.989 49.0825C24.8484 49.8429 19.5028 52.3219 19.5106 52.3217C21.2603 52.2703 24.9456 49.9464 21.4457 52.2797C16.166 55.7995 21.7719 52.6687 24.2011 51.3962C30.8649 47.9057 22.3128 52.451 20.1206 53.6048C14.9528 56.3247 20.2925 54.0401 22.4553 52.8686C28.5723 49.5552 23.5678 52.8976 20.5623 53.5417C17.1372 54.2756 32.4366 47.1895 28.9337 47.1895C27.5337 47.1895 19.5731 52.0219 23.6543 49.9028C32.2593 45.4349 40.1103 39.0022 48.1796 33.6227C51.355 31.5058 41.3448 37.0279 38.0203 38.9022C34.8719 40.6772 30.8199 41.9654 28.0082 44.2658C21.707 49.4214 42.5144 36.8356 49.4627 32.5921C50.4852 31.9675 55.0849 29.3182 51.3136 31.2038C45.5138 34.1038 39.866 37.2889 34.2342 40.5008C33.5453 40.8937 28.8307 44.1194 28.9758 44.0765C34.308 42.5011 39.5685 39.095 44.5408 36.6726C47.9972 34.9887 51.4926 33.386 54.9314 31.6666C58.2011 30.0318 48.4971 35.1396 45.319 36.9461C41.0685 39.3622 36.7583 41.7129 32.7198 44.4761C29.5635 46.6357 28.6793 47.6064 32.9301 45.7171C41.0771 42.0963 65.285 30.8274 57.5396 35.2423C52.0601 38.3656 46.8042 41.857 41.3226 44.9809C39.4363 46.0559 36.9424 47.078 35.4121 48.7039C33.6298 50.5976 40.3887 47.119 42.7108 45.9485C46.805 43.8848 52.222 41.9087 55.8569 39.1125C62.1828 34.2465 41.9059 46.9139 34.6128 50.1552C27.9915 53.0981 47.2881 43.1204 53.4591 39.3229C53.9977 38.9914 58.499 36.037 55.31 36.8409C50.0135 38.1761 44.9218 41.0019 39.9975 43.3193C39.6821 43.4677 35.1248 45.6285 37.0948 43.9082C42.2796 39.3807 48.4077 35.6925 53.9428 31.6035C56.1423 29.9787 58.5198 28.4148 60.4633 26.4713C60.6321 26.3024 53.033 28.5061 51.6502 29.1005C47.2364 30.9976 42.5126 32.6863 38.3989 35.2003C36.2974 36.4845 42.6878 32.7762 44.7932 31.4983C49.1252 28.8689 53.5422 26.5789 57.9813 24.1576C62.2667 21.8201 54.6314 24.9803 53.8797 25.3144C47.0166 28.3647 26.8669 38.1819 34.066 36.0416C38.8147 34.6298 51.89 27.391 47.3593 29.3949C42.9409 31.3492 38.9216 34.0426 34.5708 36.1257C32.1559 37.282 25.3368 41.2792 27.23 39.386C28.9332 37.6828 36.2853 36.0958 34.0239 36.925C30.1952 38.3289 26.6168 40.363 23.2126 42.5831C19.6014 44.9382 23.851 42.1869 25.1897 41.4683C28.4122 39.7386 31.8051 38.2872 34.9914 36.5044C37.7071 34.9849 29.9931 37.9663 29.3334 38.2502C28.1202 38.7721 18.4091 44.0268 24.2011 41.4262C25.4413 40.8694 36.6884 34.7137 30.8899 37.2616C26.3783 39.2439 22.1674 41.8372 17.7017 43.9082C16.271 44.5717 20.9699 42.3859 21.593 42.0993C22.5913 41.6401 35.7254 33.6114 35.6645 33.5596C33.7235 31.9098 25.5911 36.8706 23.7384 37.7033C21.0041 38.9322 13.3348 43.4004 15.5142 41.3421C19.0928 37.9624 33.306 33.9308 28.3869 34.1065C25.8187 34.1982 22.6674 36.1487 20.2889 36.9671C18.9073 37.4425 14.3805 40.1777 12.864 39.8277C10.7132 39.3314 16.3474 37.1053 18.2065 35.9154C20.1189 34.6915 26.129 33.0823 23.9908 32.3186C21.287 31.353 15.7768 34.2622 13.2846 35.1161C8.38318 36.7956 16.8105 31.845 17.7228 31.267C21.2888 29.0073 25.0089 27.0765 28.6813 25.0199C31.926 23.2029 21.8729 28.0765 18.7324 30.068C16.3257 31.5942 14.5603 33.0843 18.501 31.3301C23.0766 29.2932 27.602 26.9315 32.0467 24.6203C34.9777 23.0962 37.91 21.5056 40.7547 19.8246C43.3831 18.2715 35.44 22.8346 32.7198 24.2207C23.1934 29.0749 38.0874 21.7138 40.5444 20.4766C42.1129 19.6868 46.5398 16.9632 45.298 18.205C43.0338 20.4691 39.9343 22.3277 37.2841 24.0944C36.6224 24.5356 29.2619 29.0334 32.5515 27.6281C37.4497 25.5357 42.1482 22.6266 46.8334 20.098C46.993 20.0119 50.4752 18.0793 49.042 19.1095C44.5149 22.3633 39.2967 24.7017 34.4866 27.5019C31.1749 29.4299 27.9417 31.4694 24.8742 33.77C22.1082 35.8445 30.9485 30.4653 33.9818 28.806C38.5764 26.2928 43.3258 24.1842 47.8431 21.5073C48.5946 21.062 55.336 17.0714 51.3557 19.0464C44.3892 22.503 23.7651 33.3314 30.953 30.3625C37.8233 27.5247 44.1927 23.4249 51.0823 20.6449C54.4148 19.3002 50.1018 21.0395 49.2523 21.5283C47.0552 22.7927 45.0738 24.3738 42.7319 25.3775C38.7987 27.0632 51.1119 22.8514 54.4897 20.2242C57.8242 17.6308 40.5779 28.9134 42.9212 25.3985C43.1235 25.0951 52.5433 19.2817 50.8509 19.7194C48.0325 20.4483 45.3836 22.2967 49.4627 19.5512C54.2105 16.3555 47.3438 20.6812 45.7607 21.5283C45.1657 21.8467 40.2098 24.2471 41.4278 23.3583C44.151 21.371 47.1959 19.7022 50.0095 17.8264C57.8565 12.5951 48.2983 17.4859 45.0035 19.1095C36.3236 23.3865 44.4147 19.5098 48.0534 17.3006C49.4115 16.476 53.5483 14.3154 51.9867 14.6082C48.8776 15.1912 45.5191 18.2091 42.6477 19.5512C41.6333 20.0253 36.3936 22.7703 36.9476 22.4749C40.6732 20.4878 44.2482 18.2096 47.9062 16.1016C48.7478 15.6166 53.0958 12.9688 49.5889 14.8817C46.1922 16.7344 42.8694 18.8136 39.5558 20.8132C34.7798 23.6953 44.7632 17.114 46.3917 16.354C50.3117 14.5247 44.6006 17.0799 43.6573 17.574C41.0019 18.9649 38.4476 20.4767 35.8538 21.97C33.0847 23.5644 38.1488 20.2508 38.483 20.056C42.1046 17.9452 45.738 15.6515 49.5889 13.9772C54.1297 12.0029 40.4764 17.9193 36.2114 20.4346C34.2611 21.5847 40.0667 18.0571 42.0377 16.943C43.9814 15.8444 50.2191 14.0032 47.9903 13.8721C45.1146 13.7029 37.2598 18.0349 39.8502 16.7747C42.767 15.3558 45.842 14.3145 48.7475 12.9045C50.038 12.2782 44.1271 14.5862 43.2787 14.9868C41.362 15.892 37.8441 16.9903 36.4638 18.6467C34.3695 21.1598 42.2157 15.5271 45.1297 14.0403C50.8998 11.0964 47.0005 12.5217 43.6573 14.1455C40.5233 15.6677 37.1233 17.1746 34.1501 19.0043C32.3977 20.0827 37.7124 16.9441 39.4927 15.9123C41.6772 14.6463 48.6937 12.1064 46.1814 12.3576C44.7741 12.4984 34.6196 18.0377 39.4085 15.5127C42.4933 13.8862 45.8229 12.7187 48.9578 11.1797C51.0698 10.143 53.6576 8.87935 49.9254 10.9694C48.8304 11.5826 41.0803 14.8019 43.3629 14.5451C45.4468 14.3107 47.0262 13.2539 48.9578 12.61C49.7259 12.354 46.4117 14.0407 45.908 14.2086C41.4037 15.71 46.7577 14.132 48.2848 13.5776C50.0718 12.9288 55.3468 10.7678 53.5432 11.369C51.4103 12.08 49.3823 13.5461 47.3593 14.5451C45.3222 15.5511 46.3458 15.0074 47.6958 14.461C49.2491 13.8323 53.8338 11.8077 52.3863 12.6521C51.0117 13.454 40.1975 18.0806 46.6231 15.7441C48.7787 14.9602 50.8225 13.9283 52.8701 12.9045C55.0898 11.7947 48.4833 15.228 46.3286 16.4592C44.274 17.6333 38.3146 21.4758 40.2078 20.056C42.7981 18.1132 46.3008 17.0857 49.1682 15.6179C55.0955 12.5836 54.024 13.6979 48.9158 15.5127C45.6658 16.6673 55.4814 13.2269 55.4362 12.8204C55.4325 12.7867 50.1915 15.2945 49.7361 15.5127C48.5464 16.0828 45.1622 18.1444 46.3076 17.4899C48.7673 16.0843 51.4099 14.9027 54.0059 13.7669C55.5359 13.0975 57.3826 12.3608 54.5528 13.5776C33.8776 22.4679 65.2009 5.35355 45.4873 19.0674C43.4616 20.4766 49.9019 16.8608 52.1129 15.7651C53.5573 15.0493 58.1731 13.7047 56.5721 13.8931C54.9246 14.0869 41.9924 21.4103 48.9158 18.205C51.6881 16.9215 54.4673 15.6184 57.3293 14.5451C59.126 13.8714 53.3822 16.3763 52.8701 16.6485C51.1981 17.5371 48.7004 18.6728 47.3383 20.0349C45.4508 21.9224 52.1783 17.7822 54.5949 16.6485C64.8059 11.8581 54.3173 16.8476 50.5985 18.9622C42.9466 23.3133 53.6839 18.0967 56.0462 16.985C58.8199 15.6798 45.3389 22.9539 48.0744 21.5704C50.8843 20.1493 53.5502 18.5495 56.4669 17.3426C59.0005 16.2942 51.6648 19.9961 49.3365 21.4442C39.6471 27.4705 51.5984 20.2166 54.9314 18.7939C58.1706 17.4114 52.4327 20.2144 51.8815 20.4977C49.8246 21.5547 43.7185 24.8441 45.8028 23.842C48.2131 22.6832 60.104 16.6302 51.6502 20.9184C48.9173 22.3046 40.7738 26.5672 43.5311 25.2303C46.6735 23.7067 49.7857 22.145 52.9122 20.5818C59.3451 17.3653 46.7197 23.3493 45.0035 24.2417C41.5749 26.0246 58.7183 17.1186 55.2259 18.7729C53.6955 19.4978 51.5471 21.3601 49.7992 21.3601C47.5464 21.3601 53.7841 19.2548 55.7307 18.1209C58.0747 16.7555 58.4631 16.1881 61.494 14.8817C65.7894 13.0302 53.5145 19.7707 49.4206 22.0331C47.9737 22.8328 52.4495 20.7026 53.9218 19.9508C54.6421 19.583 59.7897 16.6141 56.7403 18.1629C55.1541 18.9687 53.6096 19.8436 52.0919 20.7711C51.516 21.123 49.7479 21.6515 50.3881 21.8649C51.5832 22.2632 55.4251 19.3853 56.3407 18.857C60.1343 16.6684 56.7774 18.7244 55.0156 19.7615C54.0627 20.3224 50.2556 22.5686 50.3461 22.5169C52.3485 21.3727 62.6468 16.753 55.6886 20.7291C52.0106 22.8308 48.2531 25.1041 44.3094 26.6816C40.6732 28.1361 51.5921 23.7752 55.0997 22.0331C63.958 17.6337 53.0225 22.2657 50.1778 24.0313C46.3966 26.3783 54.5492 21.9604 55.3942 21.4863C55.8123 21.2516 60.0239 19.4329 58.4861 19.7405C54.8394 20.4698 58.5709 19.6972 59.2013 18.4364C59.7911 17.2567 56.7661 19.4544 55.5204 19.8877C53.9909 20.4197 58.3207 18.2561 59.7692 17.5319C61.2814 16.7758 56.3447 19.0979 59.7692 17.1954C60.5039 16.7872 62.35 16.0495 60.5264 17.1323C59.1275 17.9629 54.8573 20.2968 56.3617 19.6774C58.4334 18.8243 60.2544 17.4858 62.3143 16.6275C64.5096 15.7128 58.3464 19.2504 56.3617 20.5608C54.2187 21.9757 51.7887 23.0808 49.7361 24.6203C48.2233 25.7549 53.1587 23.0105 54.8473 22.1593C64.5636 17.2617 54.4759 22.956 50.7457 24.7465C46.8018 26.6396 66.186 16.5263 62.2301 18.3943C58.8979 19.9679 55.8673 22.1121 52.5757 23.7579C50.7578 24.6668 56.0995 21.7149 57.9603 20.8973C68.0544 16.462 51.9316 23.8758 56.7193 21.0235C58.3155 20.0726 60.149 19.1847 61.5571 17.9526C63.0417 16.6535 57.916 19.4932 56.0252 20.056C52.1139 21.2201 63.8421 14.8924 58.7596 15.9334C58.3904 16.009 55.6542 16.7048 55.8569 16.5223C56.8661 15.6141 60.6254 13.9393 59.4957 14.6924C57.8434 15.794 55.638 16.5476 53.8377 17.4478C51.8982 18.4175 58.26 15.0244 59.3695 14.6713C61.7182 13.924 54.9918 16.948 52.7229 17.9105C52.0561 18.1934 55.8971 16.1334 56.7403 15.681C57.1694 15.4507 61.1365 13.8072 59.0961 14.5241C57.8295 14.9691 53.4206 16.8326 53.5853 16.7326C56.0485 15.2371 59.2053 14.7523 61.4729 12.9886C64.1758 10.8864 55.2516 15.862 52.2391 17.4899C49.1444 19.1621 47.4634 19.9182 51.6291 17.6161C54.1678 16.2131 56.7371 15.0044 59.4326 13.9562C63.7771 12.2667 42.5861 21.9079 46.6441 19.6143C49.9528 17.7441 53.299 15.8651 56.7403 14.2507C59.3472 13.0277 54.8131 14.6965 54.2163 15.0079C52.8452 15.7232 51.227 16.3159 53.6694 15.1761C55.3518 14.391 60.5587 12.4037 58.8437 13.1148C56.7422 13.9862 54.3142 15.5983 52.1129 16.0385C49.9757 16.466 56.1642 14.4288 58.1706 13.5776C61.2111 12.2877 57.8148 13.484 56.7824 13.9562C54.3434 15.0717 47.2093 18.7641 49.4837 17.3426C52.1349 15.6856 55.1788 14.8 57.9603 13.4093C60.0883 12.3453 52.9775 15.1806 52.1129 15.5968C49.0958 17.0495 46.9238 18.0302 51.1874 15.7651C53.3117 14.6366 60.0415 12.0897 57.7079 12.6731C54.9463 13.3635 42.1074 19.4008 50.9771 14.7975C59.6098 10.3173 50.4254 15.0412 47.2751 16.6485C44.7334 17.9453 57.5523 11.683 54.9735 12.9045C52.2692 14.1855 49.4922 15.3154 46.8545 16.7326C44.8419 17.814 50.3834 14.7272 50.9561 14.461C51.5902 14.1662 58.0348 11.3424 55.1418 12.5259C53.5238 13.1878 47.8 15.6556 48.2217 15.4286C50.3579 14.2783 52.4764 13.3186 54.7211 12.4207C57.6309 11.2568 48.9898 14.963 46.1814 16.354C42.6278 18.1142 49.011 14.5436 49.7782 14.1034C50.5709 13.6486 55.4031 11.2804 54.4266 11.7687C51.1952 13.3844 37.5873 20.9976 47.5696 14.5031C48.4795 13.9111 53.2649 10.9898 52.8701 11.1166C49.3107 12.2607 45.9447 14.2756 42.5636 15.8492C39.2789 17.378 39.3754 16.8378 42.2271 15.3865C44.5022 14.2286 51.506 11.1291 49.1472 12.1052C47.1896 12.9152 33.5429 19.4817 41.5119 15.0079C44.0328 13.5926 51.9035 9.94289 49.2523 11.0956C46.4504 12.3138 43.7428 13.6513 40.8599 14.6924C38.4607 15.5587 45.5614 12.6979 47.822 11.5163C51.5894 9.54695 47.0356 11.9595 45.7818 12.568C43.3956 13.7259 40.8938 14.6649 38.5251 15.8492C36.145 17.0393 43.4227 13.758 45.8028 12.568C47.2638 11.8374 51.2901 9.93802 47.3383 11.1166C44.9437 11.8308 38.6624 15.6452 40.334 13.7879C41.819 12.138 45.6673 11.8754 47.6538 10.696C49.4298 9.64146 43.0695 12.6181 42.185 12.9886C41.8309 13.137 36.5069 15.8287 39.051 14.5241C42.3567 12.8288 45.6176 11.0758 48.8737 9.2867C50.6377 8.31748 40.2761 13.4485 40.8809 13.1779C44.2046 11.691 47.4312 10.0602 50.7247 8.52949C51.6983 8.07695 46.6557 10.606 45.8449 11.0115C44.1577 11.8551 39.1505 13.0663 40.9019 13.7669C42.1933 14.2834 47.4272 11.4247 48.7896 10.8432C51.7601 9.57529 46.0792 12.6406 45.4452 12.9886C42.4239 14.6474 48.7755 11.4717 49.5047 11.1377C57.9689 7.26094 46.5123 13.4556 44.057 14.7344C41.9974 15.8071 50.743 11.8866 52.1129 11.2639C55.827 9.57563 50.2971 12.3281 49.7571 12.589C47.3871 13.7341 40.2799 17.0585 42.816 16.354C45.8651 15.5071 48.7501 14.0245 51.7343 12.9676C57.4995 10.9258 42.2549 16.7327 49.5678 13.5986C50.8725 13.0395 55.067 10.7944 54.9945 10.8222C52.2354 11.8771 49.7694 13.5934 46.8965 14.3769C44.9557 14.9062 50.5869 12.7695 52.4705 12.0632C54.5818 11.2714 49.2853 13.4933 48.9999 13.6196C41.9208 16.7539 55.2853 12.031 54.9735 11.0956C54.8079 10.5988 54.03 11.5505 53.5642 11.7897C52.4453 12.3643 51.2502 12.7469 50.1147 13.2831C47.8325 14.3608 53.6262 12.0972 54.2163 11.8528C56.2534 11.0092 49.1999 14.1196 56.3617 10.8642C61.9368 8.33008 50.2907 13.8984 54.3004 12.2945C55.039 11.9991 60.0247 9.93985 58.7596 10.717C55.6074 12.6533 52.0745 13.8858 48.9368 15.8282C46.1469 17.5553 61.2265 11.3303 58.0234 12.0421C55.7555 12.5461 45.2495 17.4751 53.4591 14.4189C54.2447 14.1265 60.2294 11.8904 56.3617 13.241C52.5551 14.5703 48.9916 16.4009 45.2559 17.8685C41.4793 19.3521 51.4218 13.8271 46.4548 17.1743C44.535 18.4681 41.0341 19.5458 39.5347 21.2759C38.1771 22.8424 43.4479 19.8929 45.34 19.0464C47.2013 18.2137 40.8688 21.9184 40.2499 22.2435C37.3458 23.7688 30.1924 26.1625 28.5972 29.3529C27.0196 32.508 35.378 27.3534 38.6303 25.9875C41.3277 24.8546 45.8058 22.8154 40.6285 25.6089C38.5818 26.7132 36.5565 27.8569 34.5287 28.9953C32.8542 29.9354 27.6444 31.919 29.5647 31.919C30.849 31.919 31.7537 30.5751 32.846 29.8998C36.3982 27.7036 39.9587 25.514 43.5732 23.4214C49.5441 19.9645 40.3556 24.1619 38.7775 24.8727C35.2138 26.478 25.1603 32.0746 27.9241 29.3108C28.9863 28.2486 41.2783 19.7477 40.5444 19.5932C39.2603 19.3229 36.5388 20.5041 35.4963 19.8456C35.2498 19.69 40.6992 16.1086 41.2805 15.8072C42.6326 15.1061 45.2538 14.4772 46.1393 13.1148C46.3628 12.771 46.0108 12.1764 46.4548 11.979C46.6676 11.8845 49.3691 10.6873 48.6634 10.4856C44.1473 9.19533 39.4041 5.4201 34.4866 6.97299C29.2152 8.63767 22.4905 13.8796 21.4457 19.5512C20.0654 27.0442 25.9088 16.123 25.7787 19.6353C25.7273 21.023 23.4467 21.7751 23.1495 20.1401C22.8068 18.2557 23.9023 16.5366 24.6218 14.8817C26.5432 10.4625 32.9067 7.26699 37.5365 8.19295C39.027 8.49103 44.8653 13.458 45.7607 12.6521C47.6384 10.9622 50.5121 8.78139 53.2908 9.4129C58.3406 10.5606 60.6105 13.8806 60.6105 18.7308C60.6105 19.7016 59.2737 22.1557 60.0637 21.5914C61.0079 20.917 62.3272 19.0817 62.4825 17.9947C63.2448 12.6589 62.418 9.92971 57.0348 7.98261C52.582 6.37203 49.0313 8.48753 45.2769 10.8432C40.1655 14.0504 43.5556 11.7261 46.2866 10.2753C52.5746 6.93475 59.9184 7.62878 61.9567 15.3023C62.129 15.951 62.6972 21.0656 61.3678 21.0656C60.0205 21.0656 59.3041 17.8501 58.8016 16.9009C56.1332 11.8605 52.8331 13.5345 48.3268 12.7152C45.567 12.2134 47.4153 9.37566 44.8983 8.21398C39.0308 5.50587 34.2807 6.79003 29.102 10.5487C25.9956 12.8034 24.1506 15.4322 24.727 19.467C24.864 20.4259 25.4001 22.9886 25.4001 20.687C25.4001 18.603 24.6779 14.4524 25.968 12.589C29.339 7.71977 36.5257 4.96579 41.596 8.86603C43.7763 10.5431 46.9386 17.9058 46.9386 15.1551C46.9386 13.3065 44.758 11.2204 43.9098 9.66531C39.8558 2.23301 29.1115 6.21633 25.6314 12.3576C23.7385 15.698 25.8253 19.1965 25.0215 22.4117C24.9461 22.7133 21.7065 18.7432 21.5299 18.0367C19.8177 11.1881 29.2333 5.85207 34.9914 7.3516C37.1459 7.91266 40.2591 10.8011 42.206 10.8011C42.7064 10.8011 38.4762 5.65239 37.0738 5.20616C27.2891 2.09285 21.0665 12.8737 24.4535 21.0025C25.1699 22.7217 23.4477 17.4023 23.2126 15.5548C22.7582 11.9847 26.0851 8.50656 29.1861 7.51987C31.9562 6.63847 37.489 7.64183 39.3034 10.2122C39.5223 10.5224 36.1919 8.64698 35.4121 8.40328C32.174 7.39138 30.8503 8.03671 28.3027 10.0439C25.873 11.9582 24.6428 14.5853 24.6428 17.6581C24.6428 20.3074 24.8022 18.737 26.9566 17.574C42.7392 9.05418 23.6015 22.1676 24.727 22.6221C28.5699 24.174 38.2747 17.5566 41.8484 16.1647C43.6638 15.4577 44.3496 15.3777 42.3533 16.8588C38.7251 19.5507 34.832 21.8487 30.8268 23.9262C24.7349 27.086 29.1662 24.8889 32.5936 23.2531C36.3767 21.4475 47.2829 15.2105 43.447 16.9009C36.1629 20.1108 29.2947 24.1961 21.9085 27.2074C17.4713 29.0164 30.493 22.9355 34.6549 20.5608C37.2109 19.1024 46.2924 13.8352 37.81 18.5415C35.0921 20.0495 18.5969 27.8503 30.5113 24.1576C32.524 23.5337 49.159 17.2564 42.4795 23.5476C41.9769 24.0209 32.4639 31.092 37.2 30.1101C39.994 29.5309 42.7349 28.4795 45.4662 27.6702C46.8967 27.2463 50.5079 25.4838 49.8623 26.8288C47.8022 31.1208 40.229 31.8472 37.3052 35.4106C34.7072 38.5768 51.9682 28.4902 48.8106 31.0987C45.2651 34.0276 39.241 36.0794 36.59 39.9539C35.7639 41.1613 39.4339 39.2505 40.8178 38.776C43.9115 37.7153 47.0466 36.5053 50.2409 35.7682C53.9232 34.9184 44.3534 40.5419 41.1333 42.52C38.261 44.2844 46.9961 39.1899 49.9675 37.5981C52.1194 36.4453 47.3262 37.6519 46.6021 37.7243" stroke="black" stroke-width="2" stroke-linecap="round" stroke-linejoin="round"/>
<path id="Vector 234" d="M13.6632 12.7362C11.6059 13.8077 6.93377 17.1157 7.01656 14.7975C7.05318 13.772 8.41055 13.095 9.20407 12.8204C10.1681 12.4866 14.3995 11.7534 13.7474 14.0824C12.065 20.0908 6.33092 12.8193 12.885 12C15.2305 11.7069 8.74904 14.1318 11.0971 13.4093C14.4744 12.3701 11.3767 20.493 9.66681 16.8168C7.27907 11.6831 14.0405 12.9816 13.2425 15.1761C12.126 18.2466 5.6859 10.1701 12.1067 10.1701C15.5377 10.1701 12.932 18.692 9.75094 15.723C7.30297 13.4382 13.8876 9.91054 13.0532 14.0824C11.9208 19.7447 6.82868 16.083 9.87715 12.4417C13.1019 8.58997 15.4335 18.585 10.8026 16.7326C4.96097 14.396 15.1594 10.2209 13.0743 14.9868C11.3469 18.935 6.64072 12.8526 11.3916 12.4207C16.266 11.9776 11.4921 18.5809 10.2558 17.2795C6.56397 13.3934 13.7428 11.0508 13.6632 14.7134C13.5178 21.4024 8.26855 13.9941 11.686 13.872C12.8206 13.8315 13.9319 14.2343 12.5484 14.8396C11.303 15.3845 13.0873 13.5148 13.6632 11.979" stroke="black" stroke-width="2" stroke-linecap="round" stroke-linejoin="round"/>
</g>
<path id="1t" d="M29.416 41H34.168C34.816 41 35.584 40.376 35.584 39.584C35.584 39.104 35.272 38.696 34.6 38.696H33.568L36.376 26.144C36.496 25.616 36.088 25.232 35.464 25.232C35.128 25.232 34.768 25.424 34.48 25.664L31.12 28.64C30.904 28.832 30.616 29.24 30.616 29.624C30.616 30.152 31 30.56 31.552 30.56C31.84 30.56 32.176 30.464 32.464 30.224L33.448 29.384L31.336 38.696H29.896C29.176 38.696 28.48 39.368 28.48 40.112C28.48 40.616 28.84 41 29.416 41ZM40.3694 41.168C40.9694 41.168 41.6174 40.688 41.7614 40.04L43.5854 31.376H45.6254C46.2974 31.376 47.0414 30.8 47.0414 30.056C47.0414 29.528 46.6814 29.192 46.1294 29.192H44.0894L44.6414 26.576C44.7614 26 44.4494 25.4 43.7294 25.4C43.1054 25.4 42.4574 25.976 42.3374 26.576L41.7854 29.192H39.8174C39.0734 29.192 38.3294 29.768 38.3294 30.464C38.3294 30.968 38.6894 31.376 39.2654 31.376H41.2814L39.4574 40.04C39.3374 40.64 39.7694 41.168 40.3694 41.168Z" fill="white"/>
</g>
</svg>
