<svg width="52" height="38" viewBox="0 0 52 38" fill="none" xmlns="http://www.w3.org/2000/svg">
<g id="plane">
<rect id="Rectangle 54" width="52" height="38" fill="white"/>
<path id="Vector 203 (Stroke)" fill-rule="evenodd" clip-rule="evenodd" d="M36.1745 5.07388C35.6715 5.39966 35.1488 5.73824 34.6181 6.05667C30.5111 8.5209 26.5856 11.3361 22.6503 14.1583C22.3057 14.4054 21.961 14.6526 21.616 14.8997C21.167 15.2212 20.5424 15.118 20.2208 14.669C19.8992 14.22 20.0025 13.5953 20.4515 13.2737C20.7988 13.025 21.1465 12.7756 21.4947 12.5258C25.4175 9.71241 29.4083 6.85021 33.5891 4.34168C34.0874 4.04271 34.5717 3.72905 35.07 3.40633C35.2143 3.31283 35.3599 3.21857 35.5073 3.12369C36.153 2.70795 36.8242 2.28716 37.5225 1.917C38.9266 1.17272 40.4885 0.606625 42.3211 0.656155C43.1024 0.677272 43.8744 0.756585 44.6045 0.831592C44.6698 0.838294 44.7347 0.844962 44.7992 0.851551C45.6008 0.933372 46.3573 1.00432 47.1154 1.00432C47.3044 1.00432 47.5118 0.989836 47.7701 0.971803C47.8183 0.968437 47.8683 0.964946 47.9203 0.961404C48.2288 0.940371 48.594 0.918903 48.9593 0.935262C49.671 0.967131 50.6341 1.15422 51.2486 2.04181C51.7169 2.71821 51.8963 3.43462 51.7668 4.15296C51.6447 4.83038 51.2696 5.38303 50.8862 5.81266C50.5004 6.24495 50.0343 6.6306 49.6268 6.95701C49.5418 7.02511 49.4599 7.09021 49.381 7.15288C49.0567 7.41071 48.7843 7.62729 48.5593 7.84109C47.5231 8.82543 46.3626 9.73256 44.9657 10.3534C44.934 10.3675 44.8733 10.4059 44.7199 10.5429C44.7034 10.5576 44.6846 10.5747 44.6636 10.5938C44.5526 10.6948 44.382 10.8499 44.1929 10.9821C44.1906 10.9853 44.188 10.9887 44.1853 10.9923C44.1469 11.0447 44.1083 11.104 44.0562 11.1841C44.0474 11.1977 44.0381 11.2119 44.0284 11.2268C44.0261 11.2303 44.0234 11.2346 44.0201 11.2397C43.9808 11.3008 43.8685 11.4752 43.7417 11.5973C43.7025 11.6351 43.597 11.7335 43.4353 11.8065C43.2616 11.8849 42.8694 11.9921 42.4716 11.7405C42.139 11.5301 42.0485 11.2126 42.025 11.119C41.9939 10.9947 41.9911 10.8881 41.9911 10.8337C41.9911 10.4841 42.1706 10.1763 42.4424 9.99758C42.482 9.93785 42.5272 9.87142 42.5728 9.80917C42.6391 9.71894 42.7996 9.50247 43.0313 9.35359C43.1006 9.30899 43.1613 9.25443 43.2885 9.14013C43.3177 9.11384 43.3505 9.0844 43.3877 9.05119C43.5489 8.90723 43.8108 8.67807 44.1534 8.5258C45.2648 8.03182 46.2365 7.28909 47.1818 6.39109C47.4775 6.11016 47.8386 5.82346 48.1675 5.56242C48.239 5.50562 48.309 5.45003 48.3765 5.39599C48.7814 5.07171 49.1301 4.77666 49.394 4.48102C49.6602 4.18272 49.7693 3.96022 49.7986 3.79811C49.8204 3.6769 49.8183 3.48937 49.6042 3.18023C49.5294 3.07207 49.3733 2.9558 48.8699 2.93326C48.6276 2.92241 48.3614 2.93598 48.0563 2.95677C48.0141 2.95965 47.9705 2.96273 47.9258 2.96588C47.6707 2.98387 47.3809 3.00432 47.1154 3.00432C46.2438 3.00432 45.3951 2.92277 44.5961 2.84121C44.5345 2.83492 44.4733 2.82864 44.4123 2.82239C43.6681 2.74607 42.9693 2.6744 42.2671 2.65543C40.9027 2.61855 39.6904 3.03144 38.4592 3.6841C37.8398 4.0124 37.2279 4.39457 36.5898 4.80536C36.4531 4.8934 36.3145 4.98314 36.1745 5.07388ZM42.2895 10.2285C42.2895 10.2284 42.2911 10.2262 42.2941 10.2224C42.2909 10.2268 42.2894 10.2287 42.2895 10.2285ZM44.2203 10.9481C44.2203 10.9482 44.2184 10.9505 44.2147 10.9545C44.2185 10.9499 44.2203 10.948 44.2203 10.9481Z" fill="black"/>
<path id="Vector 204 (Stroke)" fill-rule="evenodd" clip-rule="evenodd" d="M35.9708 10.1158C36.4591 9.85783 37.0641 10.0446 37.3221 10.5329C37.5624 10.9877 37.7371 11.338 37.8444 11.6193C37.9585 11.9184 38.0337 12.2321 37.9849 12.5866C37.9633 12.7435 37.9217 12.8739 37.8922 12.9601C37.8701 13.0248 37.8599 13.0524 37.8513 13.0757C37.8421 13.1005 37.8348 13.1205 37.8166 13.1755C37.7793 13.2882 37.7316 13.4566 37.6996 13.7547C37.6371 14.3378 37.3325 14.7429 37.1881 14.9349C37.1748 14.9527 37.1628 14.9686 37.1525 14.9827C37.0352 15.1433 37.0357 15.1649 37.0366 15.1969C37.0367 15.1997 37.0367 15.2026 37.0367 15.2057C37.0367 16.0907 36.6994 17.1345 36.1631 17.8373C35.8932 18.1909 35.7056 18.677 35.5153 19.3237C35.4755 19.4589 35.4346 19.6056 35.3917 19.7594C35.2497 20.2685 35.0861 20.8555 34.8681 21.3634C34.5623 22.0757 34.292 22.829 34.0081 23.62C33.9415 23.8055 33.8742 23.9932 33.8055 24.1828C33.4511 25.1611 33.0643 26.1801 32.5797 27.121C32.3571 27.553 32.2348 28.0876 32.0749 28.7856C32.0632 28.8368 32.0513 28.8888 32.0391 28.9418C31.8782 29.6418 31.6661 30.5281 31.1776 31.2596C30.9768 31.5605 30.826 31.8582 30.6804 32.1708C30.6482 32.2399 30.6145 32.3138 30.5795 32.3907C30.4678 32.6358 30.3423 32.9112 30.2072 33.1577C29.8088 33.8842 29.244 34.5285 28.1596 34.9323C28.112 34.968 28.0481 35.0205 27.9573 35.097C27.9388 35.1127 27.9191 35.1294 27.8983 35.147C27.7384 35.2824 27.5168 35.4701 27.3015 35.6188C27.1779 35.7042 27.0203 35.8027 26.8444 35.8767C26.6852 35.9437 26.396 36.0407 26.0552 35.9818C25.6395 35.9101 25.3334 35.6423 25.1701 35.3123C25.0334 35.036 25.0074 34.7443 25.0074 34.5206C25.0074 34.3836 25.0059 34.2247 25.0042 34.0521C25.0007 33.6822 24.9965 33.2496 25.0055 32.8362C25.0186 32.2296 25.0602 31.5452 25.1996 30.9767C25.6622 29.0907 26.0049 27.1127 26.3495 25.1231C26.5238 24.1168 26.6987 23.1075 26.8898 22.1056C26.9707 21.6815 27.0235 21.2313 27.0819 20.7333C27.1246 20.3687 27.1704 19.9785 27.2323 19.5542C27.2997 19.093 27.385 18.6172 27.5078 18.1839C27.6269 17.7636 27.8023 17.3045 28.0911 16.9307C29.1282 15.5886 30.3507 14.4757 31.5618 13.4502C31.9185 13.1482 32.2706 12.8566 32.6176 12.5692C33.4728 11.8608 34.2964 11.1787 35.0791 10.4321C35.3044 10.2173 35.6038 10.1283 35.8904 10.1631C35.9162 10.1463 35.943 10.1305 35.9708 10.1158ZM35.9749 12.33C35.2787 12.9625 34.549 13.5669 33.8397 14.1544C33.5047 14.4319 33.1743 14.7056 32.8541 14.9766C31.6716 15.9778 30.5791 16.9818 29.6738 18.1536C29.6135 18.2316 29.5235 18.4064 29.432 18.7292C29.3442 19.0391 29.2738 19.4156 29.2113 19.8433C29.1682 20.1383 29.127 20.4822 29.0845 20.8366C29.0155 21.4118 28.9432 22.0146 28.8544 22.4804C28.6771 23.4099 28.5086 24.3814 28.3372 25.3696C27.9849 27.401 27.6205 29.5026 27.142 31.4531C27.0579 31.7962 27.0177 32.2958 27.005 32.8796C27.0019 33.0226 27.0005 33.1636 27.0001 33.3023C27.0866 33.2393 27.2367 33.1379 27.4129 33.0757C28.0026 32.8675 28.2354 32.5939 28.4534 32.1962C28.5501 32.0199 28.6311 31.8422 28.7327 31.6194C28.7735 31.5299 28.8176 31.4331 28.8674 31.3262C29.0303 30.9767 29.2309 30.5736 29.5144 30.149C29.7698 29.7665 29.9196 29.2347 30.09 28.4938C30.1046 28.4302 30.1194 28.3647 30.1346 28.2975C30.2786 27.6611 30.4564 26.8756 30.8017 26.2052C31.2228 25.3876 31.5729 24.4737 31.9251 23.5016C31.9887 23.3259 32.0526 23.1478 32.1171 22.968C32.4021 22.1735 32.698 21.3485 33.0302 20.5745C33.1908 20.2005 33.3025 19.8008 33.4347 19.3278C33.4845 19.1495 33.5373 18.9607 33.5967 18.7589C33.7949 18.0856 34.0643 17.2908 34.5731 16.624C34.8307 16.2865 35.0367 15.6737 35.0367 15.2057C35.0367 14.5082 35.3483 14.0619 35.5377 13.8027C35.7153 13.5597 35.7126 13.5487 35.7113 13.5431C35.7111 13.5425 35.711 13.542 35.7111 13.5413C35.7592 13.0928 35.839 12.7856 35.9177 12.5477C35.9361 12.492 35.9535 12.4429 35.9676 12.4035C35.9711 12.3938 35.9742 12.3851 35.9771 12.3771C35.9798 12.3695 35.9823 12.3625 35.9846 12.3561C35.982 12.3488 35.979 12.3408 35.9757 12.3321C35.9755 12.3314 35.9752 12.3307 35.9749 12.33ZM27.0094 34.5649C27.0093 34.5649 27.009 34.5628 27.0086 34.5582C27.0092 34.5625 27.0094 34.5648 27.0094 34.5649ZM28.1962 34.9065C28.1961 34.9067 28.1935 34.9084 28.1886 34.9114C28.1938 34.9079 28.1962 34.9064 28.1962 34.9065Z" fill="black"/>
<path id="Vector 205 (Stroke)" fill-rule="evenodd" clip-rule="evenodd" d="M43.5724 9.43914C44.0218 9.76015 44.1259 10.3847 43.8048 10.8341C43.1798 11.7092 42.5017 12.251 41.8169 12.7982C41.7883 12.821 41.7598 12.8439 41.7312 12.8667C41.4585 13.0849 41.1308 13.2344 40.9096 13.3322C40.8383 13.3637 40.7748 13.3913 40.7173 13.4162C40.5564 13.4861 40.443 13.5353 40.34 13.5926C39.8258 13.8782 39.2505 14.332 38.6378 14.8584C38.4354 15.0324 38.2231 15.2195 38.0097 15.4077C37.6184 15.7529 37.2231 16.1014 36.8776 16.3779C36.4463 16.7229 35.817 16.6529 35.472 16.2217C35.127 15.7904 35.1969 15.1611 35.6282 14.8161C35.9413 14.5656 36.2673 14.2778 36.6277 13.9596C36.8486 13.7644 37.0826 13.5578 37.3344 13.3415C37.9579 12.8057 38.6638 12.2358 39.3687 11.8442C39.5665 11.7344 39.8047 11.6314 39.9835 11.5541C40.0265 11.5355 40.0661 11.5184 40.1009 11.503C40.3297 11.4019 40.4354 11.3421 40.4818 11.305L40.5036 11.2875C41.2305 10.706 41.7158 10.3178 42.1774 9.67163C42.4984 9.22222 43.1229 9.11813 43.5724 9.43914Z" fill="black"/>
<path id="Vector 206 (Stroke)" fill-rule="evenodd" clip-rule="evenodd" d="M21.0395 14.2099C21.3564 14.6622 21.2467 15.2858 20.7944 15.6027C20.6999 15.6689 20.6054 15.7351 20.5107 15.8013C18.9765 16.875 17.425 17.9608 16.2289 19.1569C16.1199 19.2659 16.0136 19.3801 15.895 19.5081L15.879 19.5254C15.7685 19.6446 15.6458 19.777 15.5178 19.9061C15.2467 20.1793 14.9157 20.4755 14.4907 20.7116C14.2112 20.8669 13.9265 20.8944 13.7248 20.8919C13.5162 20.8894 13.3148 20.8534 13.1423 20.8117C12.7996 20.7288 12.4345 20.5885 12.1211 20.4603C11.966 20.3969 11.831 20.3398 11.7049 20.2864C11.5427 20.2178 11.3953 20.1554 11.2391 20.094C11.018 20.0071 10.9085 19.9769 10.8752 19.9678C10.8643 19.9648 10.8616 19.964 10.8659 19.9643C10.6857 19.9534 10.5314 19.903 10.4492 19.874C10.3529 19.84 10.2588 19.7993 10.1809 19.7641C10.1123 19.7331 10.0398 19.6988 9.97523 19.6682C9.96566 19.6637 9.95626 19.6592 9.94707 19.6549C9.87668 19.6216 9.81328 19.5918 9.753 19.565C9.38039 19.7779 8.98347 19.8029 8.74481 19.8008C8.55578 19.7992 8.37642 19.7791 8.24643 19.7635C8.21085 19.7592 8.17989 19.7554 8.1526 19.752C8.06171 19.7409 8.01147 19.7347 7.9665 19.7322C7.75881 19.7207 7.58329 19.6743 7.45404 19.6316C7.41347 19.6765 7.37057 19.7246 7.32464 19.7764C7.31258 19.79 7.30031 19.8038 7.28784 19.8179C7.1726 19.9479 7.04056 20.0969 6.90344 20.2409C6.6115 20.5475 6.20612 20.932 5.69796 21.1579C5.39413 21.2929 5.12929 21.5282 4.7522 21.9053C4.72128 21.9362 4.68927 21.9685 4.65616 22.0018C4.35514 22.3052 3.96345 22.7 3.47923 23.0048C3.47765 23.0085 3.476 23.0124 3.47428 23.0165C3.47181 23.0223 3.46717 23.0334 3.46169 23.0465C3.45191 23.07 3.43942 23.0998 3.43171 23.118C3.41931 23.1472 3.40404 23.1827 3.38582 23.2222C3.51074 23.2735 3.61979 23.317 3.73053 23.3545C3.89214 23.4091 3.97995 23.4229 4.02039 23.4256C4.81381 22.8108 5.51654 22.3393 6.35822 22.1952C7.20505 22.0502 8.04899 22.2624 9.03894 22.567C9.83402 22.8117 10.8938 22.9617 11.7396 22.9617C12.333 22.9617 12.8961 23.151 13.2912 23.2838C13.3116 23.2906 13.3315 23.2973 13.351 23.3039C13.8127 23.4584 14.0959 23.5426 14.3536 23.5426C14.9844 23.5426 15.5154 23.8386 15.8034 23.9991C15.8144 24.0053 15.8251 24.0112 15.8354 24.017L15.8496 24.0248C16.0156 24.1171 16.1145 24.172 16.2064 24.2114C16.2368 24.2244 16.258 24.2318 16.2713 24.2359C16.2989 24.2285 16.3745 24.2071 16.5104 24.1451C16.7033 24.057 16.9313 23.9285 17.193 23.7712C17.2873 23.7145 17.396 23.6479 17.5081 23.5792C17.6709 23.4793 17.8409 23.3751 17.9843 23.2907C18.2339 23.1439 18.5313 22.9785 18.8128 22.878C20.4172 22.3049 22.1311 21.2502 23.6348 20.2298C23.8212 20.1034 24.2042 19.9015 24.5768 19.7059C24.6586 19.663 24.7432 19.6187 24.8299 19.5732C25.1765 19.3918 25.5578 19.1922 25.9301 18.9903C26.3994 18.7359 26.8265 18.4929 27.1291 18.2949C27.2357 18.2251 27.312 18.1705 27.3629 18.131C27.5338 17.8247 27.861 17.6176 28.2367 17.6176C28.789 17.6176 29.2367 18.0653 29.2367 18.6176C29.2367 18.9621 29.0737 19.2062 29.0066 19.2988C28.922 19.4156 28.8259 19.5095 28.7507 19.5768C28.5973 19.7141 28.4083 19.8479 28.2243 19.9683C27.8486 20.2142 27.3607 20.4898 26.8833 20.7486C26.4969 20.9581 26.099 21.1664 25.7517 21.3482C25.6666 21.3928 25.5845 21.4357 25.5063 21.4767C25.3053 21.5823 25.1322 21.6738 24.9951 21.7488C24.9267 21.7861 24.871 21.8174 24.8275 21.8426C24.806 21.8552 24.7891 21.8652 24.7764 21.873C24.7632 21.8812 24.7577 21.8849 24.7578 21.8848C23.2342 22.9187 21.344 24.0977 19.4854 24.7615C19.3985 24.7925 19.2433 24.8704 18.9986 25.0145C18.8579 25.0972 18.7279 25.1772 18.5875 25.2634C18.476 25.332 18.358 25.4045 18.2231 25.4855C17.9488 25.6504 17.6411 25.8274 17.3408 25.9645C17.0648 26.0905 16.677 26.2396 16.2705 26.2396C15.9298 26.2396 15.6371 26.1432 15.4196 26.0501C15.2279 25.9681 15.0406 25.8637 14.9037 25.7873C14.89 25.7797 14.8768 25.7723 14.8641 25.7653C14.5163 25.572 14.4111 25.5426 14.3536 25.5426C13.7365 25.5426 13.1615 25.3498 12.7571 25.2142C12.7433 25.2095 12.7296 25.2049 12.7162 25.2004C12.2453 25.0428 11.9769 24.9617 11.7396 24.9617C10.7093 24.9617 9.45008 24.7861 8.45076 24.4786C7.43983 24.1675 7.01877 24.1112 6.69581 24.1665C6.38166 24.2203 6.01911 24.4047 5.20871 25.035C4.43849 25.6341 3.55846 25.4076 3.08967 25.249C2.88231 25.1789 2.66819 25.0901 2.49557 25.0185C2.45664 25.0024 2.41983 24.9871 2.38568 24.9731C2.17251 24.8859 2.03714 24.8373 1.93813 24.8153C1.78717 24.7817 1.61996 24.7345 1.46269 24.6596C1.32125 24.5923 1.06563 24.4459 0.900595 24.1481C0.70211 23.7899 0.745603 23.4253 0.850608 23.1743C0.93844 22.9642 1.07159 22.8189 1.14012 22.7487C1.2447 22.6416 1.40268 22.5153 1.47926 22.4541C1.49501 22.4415 1.50731 22.4317 1.515 22.4253C1.54261 22.4025 1.56178 22.3856 1.57437 22.3742C1.57895 22.3639 1.58431 22.3516 1.59078 22.3364C1.59416 22.3284 1.59873 22.3174 1.60422 22.3043C1.62481 22.2548 1.65823 22.1747 1.68942 22.1077C1.7699 21.9351 1.95146 21.5783 2.34953 21.3508C2.65136 21.1783 2.90216 20.9273 3.2751 20.554C3.2957 20.5334 3.31667 20.5124 3.33805 20.491C3.70744 20.1217 4.20482 19.6329 4.88569 19.3302C5.01746 19.2717 5.19884 19.1308 5.45497 18.8618C5.56615 18.745 5.67449 18.6228 5.7934 18.4887C5.80506 18.4756 5.81682 18.4623 5.8287 18.4489C5.95518 18.3064 6.09813 18.1462 6.24346 18.0008C6.44014 17.8042 6.69495 17.6355 7.01583 17.5703C7.32755 17.5069 7.59076 17.5648 7.75296 17.6139C7.83273 17.638 7.90422 17.6652 7.95079 17.6832C7.96744 17.6897 7.98121 17.695 7.99313 17.6997C8.02166 17.7108 8.03964 17.7178 8.06127 17.7256C8.07722 17.7313 8.08762 17.7345 8.09348 17.7362C8.2088 17.7434 8.33816 17.7595 8.432 17.7712C8.45156 17.7737 8.46957 17.7759 8.48559 17.7778C8.60456 17.7922 8.68954 17.8001 8.75928 17.8008C9.175 17.4144 9.70473 17.4789 9.88286 17.5104C10.1382 17.5556 10.3841 17.6574 10.5476 17.7296C10.6265 17.7644 10.7802 17.8365 10.8891 17.8877C10.9444 17.9136 10.9881 17.9342 11.0047 17.9417C11.0407 17.9579 11.0673 17.9693 11.0864 17.9771C11.4043 18.0157 11.7387 18.1415 11.9707 18.2326C12.1358 18.2975 12.3374 18.3825 12.529 18.4633C12.654 18.516 12.7746 18.5668 12.8781 18.6091C13.1815 18.7332 13.4274 18.8229 13.6125 18.8677C13.6288 18.8717 13.6437 18.875 13.6573 18.8779C13.7991 18.781 13.9398 18.657 14.0979 18.4976C14.2014 18.3932 14.3034 18.2831 14.4206 18.1568L14.4281 18.1486C14.5443 18.0232 14.675 17.8823 14.8147 17.7427C16.1405 16.4169 17.8298 15.2355 19.3266 14.1888C19.4343 14.1134 19.5411 14.0388 19.6466 13.9648C20.0989 13.6479 20.7225 13.7576 21.0395 14.2099ZM11.1234 17.9908C11.1234 17.9909 11.1209 17.9902 11.1154 17.9882C11.1206 17.9897 11.1233 17.9907 11.1234 17.9908ZM27.4266 18.0775C27.4267 18.0774 27.4259 18.0782 27.4242 18.0798C27.4257 18.0783 27.4266 18.0775 27.4266 18.0775ZM4.0488 23.4251C4.04902 23.4254 4.04635 23.426 4.04015 23.4261C4.04548 23.425 4.04858 23.4249 4.0488 23.4251Z" fill="black"/>
<path id="Vector 207 (Stroke)" fill-rule="evenodd" clip-rule="evenodd" d="M32.9974 5.92755C33.0374 6.47838 32.6233 6.95736 32.0725 6.99737C31.7449 7.02116 31.3573 7.04223 30.9469 7.06454C30.8682 7.06881 30.7886 7.07314 30.7085 7.07754C30.2049 7.10517 29.6685 7.13621 29.1348 7.17822C28.0413 7.2643 27.0523 7.3907 26.4173 7.59095C26.0008 7.7223 25.361 7.86225 24.7331 7.95884C24.1247 8.05241 23.4056 8.12502 22.8695 8.06722C21.6677 7.93765 21.0797 8.02037 20.3775 8.40309C19.5469 8.85585 18.6725 9.27756 17.7962 9.67396C17.8771 9.69853 17.9551 9.72158 18.0315 9.743C18.9237 9.99307 19.8203 10 20.9482 10C21.5005 10 21.9482 10.4477 21.9482 11C21.9482 11.5523 21.5005 12 20.9482 12L20.9027 12C19.8286 12.0001 18.6738 12.0001 17.4917 11.6688C17.2894 11.6121 17.0821 11.5471 16.8877 11.4862C16.8758 11.4825 16.8639 11.4788 16.8521 11.4751C16.6418 11.4092 16.443 11.3474 16.2454 11.2927C15.8447 11.182 15.506 11.1176 15.2124 11.1176C15.1185 11.1176 14.9916 11.112 14.8568 11.0815C14.7514 11.0577 14.4661 10.9822 14.2425 10.714C13.9486 10.3616 13.9678 9.94763 14.0642 9.68181C14.1419 9.46763 14.2706 9.32518 14.3295 9.26381C14.461 9.12696 14.6197 9.01862 14.7292 8.94836C14.8541 8.86821 14.9931 8.78914 15.1285 8.71623C15.6409 8.44037 16.2758 8.1614 16.3979 8.10773C16.4029 8.10553 16.4071 8.10371 16.4103 8.10228C17.4525 7.64318 18.4752 7.16216 19.4204 6.64701C20.6152 5.99576 21.6628 5.92553 23.0839 6.07874C23.3431 6.10669 23.8422 6.07235 24.4291 5.98208C24.9964 5.89482 25.5289 5.77404 25.8158 5.68355C26.6911 5.40752 27.886 5.27034 28.9778 5.18439C29.5367 5.14039 30.0933 5.10829 30.5989 5.08054C30.6821 5.07597 30.7637 5.07154 30.8436 5.06719C31.2546 5.04484 31.6199 5.02497 31.9276 5.00263C32.4784 4.96261 32.9574 5.37671 32.9974 5.92755ZM15.2067 9.11753C15.2067 9.1175 15.2081 9.11751 15.2108 9.11764L15.2067 9.11753Z" fill="black"/>
<path id="Vector 208 (Stroke)" fill-rule="evenodd" clip-rule="evenodd" d="M9.22305 23.1324C9.16911 22.9215 9.04623 22.7266 8.85943 22.5846C8.41973 22.2505 7.79237 22.336 7.45819 22.7757C7.33175 22.9421 7.18569 23.1182 7.0156 23.3233C6.97838 23.3681 6.94002 23.4144 6.90045 23.4623C6.68859 23.7185 6.45251 24.0085 6.23221 24.3163C5.83119 24.8765 5.39987 25.6047 5.29693 26.4358C5.28092 26.4774 5.2606 26.5323 5.24257 26.5891L5.24195 26.591C5.22272 26.6515 5.16143 26.8444 5.1708 27.068C5.17564 27.1837 5.20353 27.444 5.39952 27.691C5.63343 27.9857 5.96139 28.0855 6.22126 28.0855C6.58365 28.0855 6.86084 27.9355 7.03048 27.8135C7.19838 27.6927 7.32718 27.5517 7.40935 27.456C7.46286 27.3936 7.53225 27.3065 7.57578 27.2518C7.59088 27.2329 7.60286 27.2178 7.60999 27.2091C7.62505 27.1906 7.63575 27.1781 7.64256 27.1703C8.08851 26.823 8.51779 26.3967 8.89363 26.0235C8.98958 25.9282 9.08206 25.8364 9.17043 25.7502C9.65258 25.2801 10.0503 24.9369 10.4442 24.7399C10.9382 24.493 11.1384 23.8923 10.8914 23.3983C10.6444 22.9043 10.0438 22.7041 9.54978 22.9511C9.43812 23.0069 9.32922 23.0677 9.22305 23.1324ZM7.14874 27.1945C7.14925 27.1929 7.14983 27.1911 7.1505 27.1891C7.14609 27.2065 7.14393 27.2096 7.14874 27.1945Z" fill="black"/>
<path id="Vector 209 (Stroke)" fill-rule="evenodd" clip-rule="evenodd" d="M27.6745 21.2618C28.0823 21.6343 28.1108 22.2668 27.7383 22.6745C27.603 22.8226 27.4701 22.9635 27.3411 23.1003C26.9576 23.5069 26.6092 23.8763 26.3386 24.2848C26.2223 24.4603 26.1395 24.6158 26.085 24.7562C26.3478 24.6794 26.6408 24.7102 26.892 24.8655C27.3616 25.1561 27.5068 25.7724 27.2163 26.2421C27.0074 26.5796 26.6734 26.7414 26.5138 26.8093C26.306 26.8978 26.0734 26.9575 25.8462 26.9841C25.6279 27.0096 25.3423 27.0132 25.0554 26.9277C24.7621 26.8404 24.3428 26.6134 24.1635 26.1062C23.7556 24.9522 24.1757 23.9282 24.6713 23.1801C25.0471 22.613 25.564 22.0664 25.9677 21.6396C26.0754 21.5257 26.175 21.4204 26.2618 21.3255C26.6343 20.9178 27.2668 20.8892 27.6745 21.2618Z" fill="black"/>
<path id="Vector 210 (Stroke)" fill-rule="evenodd" clip-rule="evenodd" d="M23.5738 26.6362C23.7747 26.8256 23.7841 27.142 23.5947 27.343C23.0407 27.9306 21.8866 29.0012 20.9874 29.7638C20.5466 30.1377 20.1322 30.4677 19.8755 30.6209C19.8149 30.657 19.7248 30.7071 19.6272 30.7347C19.5843 30.7469 19.4773 30.7738 19.3487 30.7462C19.2764 30.7307 19.1888 30.6959 19.1092 30.6249C19.028 30.5524 18.9801 30.4644 18.9559 30.3819C18.9134 30.2368 18.9445 30.1135 18.9578 30.0671C18.9748 30.0073 18.9989 29.9552 19.0188 29.9165C19.0593 29.8378 19.1151 29.7525 19.1773 29.6654C19.2692 29.5368 19.7512 28.8534 20.1708 28.1998C20.202 28.1511 20.2327 28.103 20.2627 28.0555C20.1474 28.131 20.0284 28.2137 19.9076 28.3015C19.6188 28.5114 19.3331 28.7398 19.0793 28.9467C19.0174 28.9972 18.9564 29.0472 18.8973 29.0957C18.7216 29.2398 18.5626 29.3702 18.4459 29.4582C18.2842 29.58 18.1238 29.7033 17.964 29.8279C17.9919 29.8433 18.0266 29.8659 18.0613 29.8975C18.0833 29.9174 18.1184 29.9526 18.1507 30.0044C18.1687 30.0181 18.1831 30.0309 18.1941 30.0413C18.2338 30.0791 18.2592 30.1155 18.2708 30.133C18.2845 30.1535 18.295 30.1721 18.3021 30.1855C18.3845 30.34 18.3893 30.4996 18.3855 30.5903C18.3818 30.6764 18.3671 30.7627 18.3449 30.8403C18.3408 30.8644 18.3353 30.8899 18.3276 30.9159C18.3153 30.9582 18.2892 31.0314 18.2317 31.1051C18.2307 31.1065 18.2296 31.1078 18.2286 31.1091C18.2336 31.1332 18.2368 31.1545 18.2391 31.1718C18.2479 31.2398 18.249 31.3081 18.2466 31.3702C18.2374 31.6078 18.1694 31.9209 18.0465 32.1872C17.9847 32.3212 17.8962 32.4714 17.7702 32.5949C17.641 32.7215 17.4451 32.8441 17.1896 32.8441C17.0387 32.8441 16.8914 32.7937 16.7715 32.6922C16.682 32.6164 16.625 32.5271 16.5884 32.447C16.5836 32.4592 16.5788 32.4717 16.5737 32.4846L16.5677 32.4999C16.5427 32.5641 16.5141 32.6371 16.4822 32.71C16.4706 32.7366 16.4581 32.7642 16.4446 32.7925C16.486 32.914 16.477 33.039 16.4406 33.1395C16.3995 33.2525 16.3298 33.3243 16.2999 33.3532C16.2334 33.4175 16.1563 33.4635 16.1103 33.4895C16.0555 33.5205 15.9956 33.5499 15.9389 33.5761C15.8947 33.5965 15.8483 33.6168 15.802 33.6363C15.8285 33.7783 15.8335 33.9202 15.8212 34.0594C15.8323 34.0458 15.8436 34.0319 15.8551 34.0178C15.9379 33.9162 16.0302 33.803 16.114 33.7049C16.1721 33.637 16.2323 33.569 16.2887 33.5111C16.3334 33.4651 16.4139 33.3848 16.5072 33.3305C16.5078 33.3301 16.5085 33.3298 16.5092 33.3293C16.5394 33.3116 16.6935 33.2213 16.8942 33.2632C17.0245 33.2904 17.1377 33.3662 17.2125 33.4736C17.2781 33.5678 17.2971 33.6611 17.3036 33.7147C17.3158 33.8164 17.2973 33.9045 17.2878 33.9455C17.2757 33.9978 17.2587 34.0508 17.2406 34.1012C17.0983 34.4965 16.89 35.0004 16.5997 35.4525C16.3145 35.8964 15.9117 36.3511 15.3557 36.5566C15 36.688 14.6649 36.7499 14.3551 36.7501C14.2601 36.9677 14.149 37.1508 14.0131 37.2813C13.8872 37.4021 13.7059 37.5096 13.4772 37.5077C13.254 37.5058 13.082 37.4003 12.9686 37.2984C12.7586 37.1096 12.615 36.814 12.5122 36.546C12.5111 36.5431 12.51 36.5403 12.5089 36.5374C12.4292 36.5277 12.3495 36.5139 12.27 36.4955C12.2149 36.5281 12.1586 36.5574 12.1011 36.583C11.8476 36.6956 11.5486 36.7437 11.2429 36.6456C10.9398 36.5482 10.7009 36.3298 10.5204 36.0466C10.4919 36.002 10.4646 35.9529 10.4387 35.9006C10.2305 35.8295 10.0515 35.6939 9.9236 35.551C9.39379 34.9589 9.24977 33.8197 10.1495 32.92C10.1569 32.9126 10.1644 32.9052 10.1719 32.8979C10.2127 32.4561 10.3545 32.0774 10.5916 31.7714C11.0326 31.2022 11.7151 30.9987 12.3519 31.0384C12.5532 31.051 12.7561 31.0878 12.9542 31.1477C13.0563 30.9188 13.1847 30.6942 13.3396 30.5066C13.5245 30.2826 13.7986 30.0498 14.1677 30.0005C14.5462 29.9498 14.8929 30.1077 15.1857 30.383C15.3353 30.3495 15.5002 30.3426 15.6662 30.3877C15.6828 30.3743 15.6994 30.3609 15.716 30.3475C15.8216 30.2622 15.9275 30.1766 16.0335 30.0907C16.6267 29.6106 17.2276 29.1243 17.8439 28.6596C17.9429 28.585 18.0774 28.4747 18.246 28.3365C18.3085 28.2853 18.3757 28.2302 18.4474 28.1717C18.7049 27.9617 19.0079 27.7191 19.3198 27.4925C19.6294 27.2675 19.9617 27.048 20.2781 26.8905C20.5719 26.7442 20.9447 26.6026 21.3007 26.6535C21.4075 26.6687 21.5252 26.7182 21.6192 26.8196C21.7078 26.9151 21.7423 27.0212 21.7557 27.0955C21.7796 27.228 21.7519 27.3451 21.7374 27.3994C21.7034 27.5271 21.6378 27.6691 21.5725 27.7965C21.5365 27.8667 21.4956 27.942 21.4509 28.0211C22.0193 27.5023 22.5534 26.9897 22.867 26.657C23.0564 26.4561 23.3728 26.4468 23.5738 26.6362ZM14.1074 31.6075C14.0993 31.5014 14.1149 31.4023 14.1374 31.3237C14.1709 31.2066 14.2282 31.0947 14.3005 30.9916C14.3004 30.9916 14.3004 30.9916 14.3003 30.9916L14.3002 30.9916C14.2862 30.9935 14.2185 31.0126 14.1108 31.1432C14.0091 31.2664 13.9179 31.4335 13.844 31.6093C13.8857 31.6422 13.9265 31.6765 13.9662 31.712C14.0134 31.6774 14.0604 31.6425 14.1074 31.6075ZM11.7455 32.1146C11.6146 32.1673 11.5031 32.2445 11.4158 32.3431C11.5013 32.3357 11.5855 32.3336 11.6674 32.3364C11.6778 32.3213 11.6885 32.3062 11.6994 32.2913C11.7111 32.2316 11.7262 32.1724 11.7455 32.1146ZM11.7598 35.0301C11.8662 35.1652 11.978 35.2673 12.0901 35.3435C12.1162 35.3132 12.1425 35.2811 12.1687 35.2473C12.1407 35.0939 12.1156 34.9381 12.0938 34.7826C12.0099 34.7116 11.9296 34.633 11.8549 34.5475C11.854 34.5617 11.8527 34.5759 11.8509 34.5896C11.8311 34.7427 11.8014 34.891 11.7598 35.0301ZM14.952 35.639C14.9708 35.6325 14.9898 35.6257 15.0091 35.6186C15.1546 35.5648 15.2987 35.4644 15.4391 35.3212C15.413 35.3179 15.3869 35.3137 15.361 35.3084C15.3332 35.3029 15.3059 35.2963 15.2791 35.2888C15.1799 35.4117 15.0701 35.529 14.952 35.639ZM18.2675 30.6624C18.2674 30.6616 18.2673 30.6608 18.2672 30.66L18.2675 30.6624ZM16.7345 30.8099C16.7114 30.8285 16.6884 30.8472 16.6654 30.8658C16.5659 30.9464 16.4661 31.0271 16.366 31.1079C16.3705 31.1213 16.3748 31.1348 16.379 31.1484C16.4308 31.1227 16.4864 31.0999 16.5461 31.0807C16.5829 31.0689 16.6191 31.061 16.6545 31.0565C16.6758 30.9837 16.6986 30.9127 16.7223 30.8446C16.7263 30.833 16.7303 30.8214 16.7345 30.8099ZM13.4627 35.2456C13.4924 35.293 13.5244 35.3378 13.5585 35.3794C13.5936 35.3638 13.6287 35.3472 13.6638 35.3296C13.6682 35.2871 13.6725 35.2442 13.6767 35.2009C13.6552 35.2072 13.6334 35.213 13.6113 35.2184C13.5618 35.2303 13.5122 35.2393 13.4627 35.2456ZM20.7711 27.1421C20.7709 27.1429 20.7706 27.1439 20.7703 27.1449C20.7718 27.1378 20.7726 27.1365 20.7711 27.1421Z" fill="black"/>
<path id="Vector 212 (Stroke)" fill-rule="evenodd" clip-rule="evenodd" d="M4.06805 30.6624C4.25453 30.4587 4.5708 30.4448 4.77447 30.6312C4.7765 30.6331 4.77934 30.6357 4.78297 30.639C4.87511 30.723 5.47483 31.2701 6.06317 31.9176C6.10381 31.8756 6.1495 31.836 6.20075 31.8008C6.212 31.7835 6.22559 31.7632 6.24149 31.741C6.339 31.6053 6.48415 31.4551 6.73417 31.2989C6.874 31.2115 7.04467 31.1365 7.23535 31.1342C7.33472 31.133 7.43563 31.1518 7.53134 31.1951C7.62659 31.2383 7.7029 31.2994 7.76171 31.366C7.87413 31.4932 7.92248 31.639 7.94481 31.7441C7.96823 31.8543 7.97209 31.9625 7.96651 32.0539C7.9613 32.139 7.94578 32.2444 7.90752 32.342C7.89703 32.3688 7.88173 32.403 7.8596 32.4394C7.83911 32.4732 7.80164 32.5275 7.74041 32.5782C7.67722 32.6305 7.56638 32.6962 7.41539 32.6977C7.25993 32.6992 7.1418 32.6321 7.07008 32.5693C7.02392 32.529 6.99149 32.4864 6.96932 32.4515C6.94203 32.4877 6.89904 32.5372 6.83779 32.5822C6.93482 32.7075 7.01107 32.8569 7.04044 33.0278C7.05164 33.0291 7.06253 33.0305 7.07286 33.0318C7.12634 33.0389 7.22429 33.0534 7.32095 33.0949C7.42831 33.1409 7.59967 33.2509 7.66169 33.4778C7.71464 33.6716 7.653 33.8373 7.61705 33.9173C7.55195 34.0622 7.43021 34.2236 7.28733 34.3947C7.26043 34.4682 7.22233 34.5404 7.17059 34.6087C7.08292 34.7243 6.97175 34.8077 6.85215 34.8659C6.60707 35.1121 6.2844 35.4112 5.97129 35.6337C5.8331 35.7319 5.68239 35.8257 5.5299 35.8932C5.38725 35.9564 5.18811 36.0218 4.97319 35.9959C4.71501 35.9649 4.50309 35.8106 4.3888 35.5706C4.31099 35.4072 4.28671 35.2229 4.28794 35.0413C3.83586 35.0363 3.39185 34.8339 3.02039 34.4068C2.7276 34.0701 2.5042 33.7138 2.50006 33.3478C2.49773 33.1425 2.56511 32.955 2.69037 32.8036C2.80759 32.662 2.95615 32.5748 3.08833 32.5192C3.16698 32.4862 3.25038 32.46 3.3356 32.4392C3.43033 32.3048 3.54415 32.1806 3.67698 32.0732C3.8999 31.893 4.16863 31.767 4.47202 31.7185C4.2845 31.5381 4.14794 31.4133 4.10685 31.3758C4.10374 31.3729 4.10118 31.3706 4.09918 31.3688C3.89551 31.1823 3.88158 30.866 4.06805 30.6624ZM7.30216 32.1263C7.30216 32.1263 7.3018 32.1264 7.3011 32.1267L7.30216 32.1263ZM6.16541 31.8566C6.16262 31.8608 6.16355 31.8587 6.16825 31.8523C6.16736 31.8537 6.16648 31.855 6.16541 31.8566Z" fill="black"/>
</g>
</svg>
