<svg width="749" height="54" viewBox="0 0 749 54" fill="none" xmlns="http://www.w3.org/2000/svg">
<g id="speechBubble">
<g id="Vector 98">
<path d="M13.7327 5.23704C11.0433 8.31852 4.85755 15.7911 1.63022 21.0296C-1.12492 25.5017 5.72412 33.6606 11.1338 38.7481L33.9035 45.2963H65.3699L116.2 53L100.87 45.2963L116.2 41.0593H158.156C169.182 41.0593 197.852 42.9081 211.406 41.0593C228.35 38.7481 265.464 41.0593 288.862 41.0593C312.26 41.0593 350.181 45.2963 364.704 45.2963H454.263C465.558 45.2963 511.548 46.837 540.594 45.2963C563.83 44.0637 603.526 46.0667 622.89 45.2963H682.596C695.505 45.2963 697.926 45.2963 718.096 43.7556C738.267 42.2148 730.199 41.0593 738.267 38.7481C744.722 36.8993 748.487 29.2469 747.949 24.1111L738.267 9.85926C738.267 9.85926 738.267 5.23704 714.869 5.23704H694.698H577.708L74.2451 1H33.9035L13.7327 5.23704Z" fill="white"/>
<path d="M13.7327 41.0593C12.9457 40.4018 12.0609 39.6201 11.1338 38.7481M11.1338 38.7481C5.72412 33.6606 -1.12492 25.5017 1.63022 21.0296C4.85755 15.7911 11.0433 8.31852 13.7327 5.23704L33.9035 1H74.2451L577.708 5.23704H694.698C694.698 5.23704 691.471 5.23704 714.869 5.23704C738.267 5.23704 738.267 9.85926 738.267 9.85926L747.949 24.1111C748.487 29.2469 744.722 36.8993 738.267 38.7481C730.199 41.0593 738.267 42.2148 718.096 43.7556C697.926 45.2963 695.505 45.2963 682.596 45.2963C672.268 45.2963 638.489 45.2963 622.89 45.2963C603.526 46.0667 563.83 44.0637 540.594 45.2963C511.548 46.837 465.558 45.2963 454.263 45.2963C433.285 45.2963 379.227 45.2963 364.704 45.2963C350.181 45.2963 312.26 41.0593 288.862 41.0593C265.464 41.0593 228.35 38.7481 211.406 41.0593C197.852 42.9081 169.182 41.0593 158.156 41.0593H116.2L100.87 45.2963L116.2 53L65.3699 45.2963H33.9035L11.1338 38.7481Z" stroke="black" stroke-width="2" stroke-linecap="round" stroke-linejoin="round"/>
</g>
<path id="How much is tons of CO2 indicate? Click one panel from following options to compare the amount:" d="M18.3903 27.096C18.8383 27.096 19.2063 26.728 19.2063 26.312V22.712L25.0303 21.896V26.312C25.0303 26.728 25.3823 27.096 25.8303 27.096C26.2463 27.096 26.6303 26.728 26.6303 26.312V16.984C26.6303 16.536 26.2463 16.2 25.8303 16.2C25.3823 16.2 25.0303 16.536 25.0303 16.984V20.328L19.2063 21.144V16.984C19.2063 16.536 18.8383 16.2 18.3903 16.2C17.9423 16.2 17.6063 16.536 17.6063 16.984V26.312C17.6063 26.728 17.9423 27.096 18.3903 27.096ZM31.7321 27.096C33.7641 27.096 35.4921 25.144 35.4921 22.808C35.4921 20.84 34.0521 19.112 32.1801 19.112C30.1481 19.112 28.4361 21.08 28.4361 23.384C28.4361 25.432 29.8601 27.096 31.7321 27.096ZM31.7321 25.656C30.8681 25.656 30.0041 24.856 30.0041 23.368C30.0041 21.88 30.9801 20.552 32.1161 20.552C33.1241 20.552 33.9241 21.656 33.9241 22.888C33.9241 24.36 32.8841 25.656 31.7321 25.656ZM38.4457 27.096C38.7658 27.096 39.0538 26.904 39.1818 26.536L40.7178 22.312L41.7898 26.504C41.9018 26.92 42.1738 27.096 42.5418 27.096C42.9258 27.096 43.1658 26.856 43.2778 26.52L45.3258 20.136C45.3418 20.088 45.3738 19.992 45.3738 19.832C45.3738 19.416 45.0058 19.112 44.6058 19.112C44.2698 19.112 43.9498 19.384 43.8538 19.704L42.5898 23.864L41.5978 19.656C41.5018 19.272 41.2138 19.096 40.8298 19.096C40.4938 19.096 40.1738 19.32 40.0618 19.656L38.6218 23.784L37.8058 19.736C37.7258 19.368 37.4698 19.096 37.0538 19.096C36.6378 19.096 36.3018 19.432 36.3018 19.768C36.3018 19.912 36.3178 19.992 36.3498 20.152L37.6778 26.472C37.7578 26.856 38.0138 27.096 38.4457 27.096ZM53.6068 27.096C54.0228 27.096 54.3748 26.76 54.3748 26.344L54.3588 23.992C54.3588 23.208 54.5508 22.6 54.9188 21.976C55.3348 21.32 56.0388 20.584 56.7908 20.584C57.3508 20.584 57.5748 21.048 57.5748 22.056V26.344C57.5748 26.76 57.9428 27.096 58.3428 27.096C58.7748 27.096 59.1108 26.76 59.1108 26.344V23.368C59.1108 21.752 60.1667 20.584 61.0948 20.584C61.7028 20.584 61.9588 21.08 61.9588 22.056V26.344C61.9588 26.76 62.3108 27.096 62.7268 27.096C63.1268 27.096 63.4948 26.76 63.4948 26.344V22.152C63.4948 20.056 62.6308 19.112 61.3508 19.112C60.2788 19.112 59.4628 19.736 58.8548 20.648C58.5668 19.592 57.8468 19.112 57.0148 19.112C55.9268 19.112 55.0308 19.752 54.3748 21V19.88C54.3748 19.48 54.0388 19.112 53.6068 19.112C53.2068 19.112 52.8388 19.48 52.8388 19.88V26.344C52.8388 26.76 53.2068 27.096 53.6068 27.096ZM67.7651 27.144C68.7251 27.144 69.4931 26.6 70.0371 26.216V26.392C70.0371 26.824 70.4371 27.096 70.8531 27.096C71.2691 27.096 71.6211 26.728 71.6211 26.328V19.832C71.6211 19.4 71.2531 19.096 70.8531 19.096C70.4851 19.096 70.1011 19.4 70.1011 19.832L70.0691 24.392C70.0691 24.584 70.0371 24.728 69.9731 24.792C69.7011 25.096 68.7891 25.704 67.9251 25.704C67.3491 25.704 66.8691 25.272 66.8691 22.904C66.8691 21.288 67.0611 20.12 67.0611 19.848C67.0611 19.336 66.6931 19.096 66.2931 19.096C65.8291 19.096 65.6211 19.4 65.5411 19.912C65.4291 20.632 65.3651 21.752 65.3651 22.552C65.3651 26.344 66.1491 27.144 67.7651 27.144ZM76.8304 27.096C78.1744 27.096 79.2784 26.344 79.8384 25.592C79.9664 25.432 80.0144 25.256 80.0144 25.048C80.0144 24.68 79.6784 24.344 79.2624 24.344C78.9584 24.344 78.7184 24.552 78.5744 24.744C78.2064 25.24 77.7104 25.64 76.7984 25.64C75.8224 25.64 74.8464 24.888 74.8464 23.56C74.8464 22.04 75.9504 20.568 76.9744 20.568C77.6144 20.568 77.9184 20.872 78.2064 21.192C78.4144 21.448 78.5424 21.512 78.8144 21.512C79.2304 21.512 79.5824 21.192 79.5824 20.776C79.5824 20.584 79.5184 20.408 79.3424 20.216C78.7344 19.496 78.1424 19.112 76.9584 19.112C75.0544 19.112 73.3424 21.4 73.3424 23.592C73.3424 25.544 74.8624 27.096 76.8304 27.096ZM82.138 27.112C82.554 27.112 82.906 26.824 82.906 26.312V23.928C82.906 23.496 82.954 23.112 83.098 22.792C83.274 22.408 84.314 20.6 85.354 20.6C85.722 20.6 86.218 21.016 86.218 24.488C86.218 25.496 86.186 25.928 86.186 26.344C86.186 26.76 86.474 27.096 86.938 27.096C87.354 27.096 87.674 26.776 87.69 26.376C87.738 25.928 87.738 25.352 87.738 24.376C87.738 20.84 87.178 19.08 85.45 19.08C84.506 19.08 83.578 19.72 82.906 20.568V17.128C82.906 16.712 82.618 16.344 82.17 16.344C81.722 16.344 81.37 16.712 81.37 17.128V26.344C81.37 26.744 81.738 27.112 82.138 27.112ZM96.3903 18.44C96.8223 18.44 97.1423 18.12 97.1583 17.688L97.1743 17.08C97.1903 16.696 96.8223 16.312 96.4223 16.312C96.0223 16.312 95.6703 16.648 95.6543 17.064L95.6383 17.656C95.6223 18.072 95.9903 18.44 96.3903 18.44ZM96.3103 27.096C96.7263 27.096 97.0943 26.744 97.0943 26.312L97.1743 19.944C97.1743 19.512 96.8383 19.16 96.3903 19.16C95.9743 19.16 95.6063 19.512 95.6063 19.944L95.5263 26.312C95.5263 26.744 95.8783 27.096 96.3103 27.096ZM101.721 27.096C103.481 27.096 104.585 25.848 104.585 24.648C104.585 23.432 103.945 22.888 102.217 22.344C101.065 21.976 100.601 21.736 100.601 21.224C100.601 20.792 100.985 20.456 102.009 20.456C102.825 20.456 103.145 20.728 103.145 21.096C103.145 21.224 103.065 21.336 103.065 21.48C103.065 21.784 103.353 22.136 103.817 22.136C104.329 22.136 104.617 21.768 104.617 21.112C104.617 19.912 103.673 19.112 101.977 19.112C100.121 19.112 99.1289 20.056 99.1289 21.256C99.1289 22.456 99.8649 23.128 101.593 23.656C102.793 24.024 103.081 24.248 103.081 24.728C103.081 25.192 102.633 25.72 101.753 25.72C100.953 25.72 100.409 25.304 100.185 24.648C100.089 24.344 99.8329 24.12 99.4649 24.12C99.0489 24.12 98.7129 24.456 98.7129 24.872C98.7129 25.448 99.6889 27.096 101.721 27.096ZM136.121 27.112C136.537 27.112 136.889 26.776 136.889 26.36V20.648H138.249C138.681 20.648 139.017 20.28 139.017 19.88C139.017 19.432 138.681 19.096 138.249 19.096H136.889V17.384C136.889 16.984 136.585 16.6 136.121 16.6C135.689 16.6 135.353 16.984 135.353 17.384V19.096H134.121C133.705 19.096 133.321 19.4 133.321 19.88C133.321 20.28 133.657 20.648 134.089 20.648H135.353V26.36C135.353 26.776 135.721 27.112 136.121 27.112ZM142.373 27.096C144.405 27.096 146.133 25.144 146.133 22.808C146.133 20.84 144.693 19.112 142.821 19.112C140.789 19.112 139.077 21.08 139.077 23.384C139.077 25.432 140.501 27.096 142.373 27.096ZM142.373 25.656C141.509 25.656 140.645 24.856 140.645 23.368C140.645 21.88 141.621 20.552 142.757 20.552C143.765 20.552 144.565 21.656 144.565 22.888C144.565 24.36 143.525 25.656 142.373 25.656ZM148.622 27.096C149.102 27.096 149.374 26.744 149.374 26.296V24.952C149.374 23.768 149.55 23.032 150.03 22.168C150.574 21.176 151.246 20.6 151.886 20.6C152.622 20.6 152.942 21.144 152.942 23.688V26.344C152.942 26.728 153.294 27.096 153.71 27.096C154.142 27.096 154.446 26.728 154.446 26.328C154.446 25.416 154.462 24.872 154.462 23.528C154.462 20.184 153.774 19.112 152.03 19.112C150.942 19.112 149.998 19.8 149.39 21.08V19.864C149.39 19.432 149.054 19.096 148.654 19.096C148.238 19.096 147.854 19.432 147.854 19.864V26.36C147.854 26.744 148.206 27.096 148.622 27.096ZM158.846 27.096C160.606 27.096 161.71 25.848 161.71 24.648C161.71 23.432 161.07 22.888 159.342 22.344C158.19 21.976 157.726 21.736 157.726 21.224C157.726 20.792 158.11 20.456 159.134 20.456C159.95 20.456 160.27 20.728 160.27 21.096C160.27 21.224 160.19 21.336 160.19 21.48C160.19 21.784 160.478 22.136 160.942 22.136C161.454 22.136 161.742 21.768 161.742 21.112C161.742 19.912 160.798 19.112 159.102 19.112C157.246 19.112 156.254 20.056 156.254 21.256C156.254 22.456 156.99 23.128 158.718 23.656C159.918 24.024 160.206 24.248 160.206 24.728C160.206 25.192 159.758 25.72 158.878 25.72C158.078 25.72 157.534 25.304 157.31 24.648C157.214 24.344 156.958 24.12 156.59 24.12C156.174 24.12 155.838 24.456 155.838 24.872C155.838 25.448 156.814 27.096 158.846 27.096ZM171.826 27.096C173.858 27.096 175.586 25.144 175.586 22.808C175.586 20.84 174.146 19.112 172.274 19.112C170.242 19.112 168.53 21.08 168.53 23.384C168.53 25.432 169.954 27.096 171.826 27.096ZM171.826 25.656C170.962 25.656 170.098 24.856 170.098 23.368C170.098 21.88 171.074 20.552 172.21 20.552C173.218 20.552 174.018 21.656 174.018 22.888C174.018 24.36 172.978 25.656 171.826 25.656ZM178.285 27.096C178.685 27.096 179.053 26.744 179.053 26.36V20.568H180.701C181.101 20.568 181.421 20.216 181.421 19.832C181.421 19.432 181.021 19.096 180.701 19.096L179.069 19.08C179.165 17.976 179.645 17.816 180.973 17.816C181.453 17.816 181.725 17.464 181.725 17.064C181.725 16.472 181.325 16.328 180.797 16.328C178.605 16.328 177.629 17.016 177.533 19.08H176.765C176.397 19.08 176.045 19.432 176.045 19.832C176.045 20.216 176.397 20.568 176.781 20.568H177.517V26.36C177.517 26.744 177.885 27.096 178.285 27.096ZM192.265 27.096C193.817 27.096 195.225 26.44 196.105 25.192C196.217 25.032 196.249 24.872 196.249 24.712C196.249 24.2 195.865 23.912 195.449 23.912C195.209 23.912 195.017 23.976 194.825 24.232C194.313 24.904 193.529 25.56 192.265 25.56C190.601 25.56 189.193 24.36 189.193 22.28C189.193 19.96 190.825 17.736 192.473 17.736C193.337 17.736 193.833 18.008 194.169 18.36V18.472C194.169 18.808 194.489 19.112 194.921 19.112C195.369 19.112 195.721 18.744 195.721 18.312V17.288C195.721 16.888 195.417 16.552 194.985 16.552C194.761 16.552 194.601 16.648 194.505 16.744C194.025 16.456 193.305 16.184 192.585 16.184C190.137 16.184 187.593 19.08 187.593 22.28C187.593 25.32 189.721 27.096 192.265 27.096ZM201.347 27.096C203.923 27.096 206.131 24.568 206.131 21.24C206.131 18.328 204.371 16.184 201.971 16.184C199.427 16.184 197.203 18.712 197.203 22.04C197.203 24.92 198.931 27.096 201.347 27.096ZM201.347 25.576C200.035 25.576 198.803 24.376 198.803 22.04C198.803 19.496 200.195 17.704 201.875 17.704C203.187 17.704 204.531 18.968 204.531 21.304C204.531 23.848 203.075 25.576 201.347 25.576ZM207.566 27H213.326C213.726 27 214.094 26.664 214.094 26.248C214.094 25.816 213.726 25.48 213.326 25.48H209.15C209.374 24.088 210.382 23.384 211.374 22.744C212.606 21.96 213.966 21.048 213.966 19.256C213.966 17.704 212.686 16.44 210.862 16.44C209.55 16.44 208.574 17.144 208.014 17.688C207.614 18.072 207.502 18.264 207.502 18.52C207.502 18.904 207.806 19.304 208.27 19.304C208.638 19.304 208.782 19.128 208.942 18.952C209.054 18.824 209.822 17.976 210.862 17.976C211.742 17.976 212.43 18.504 212.43 19.256C212.43 20.232 211.582 20.76 210.414 21.528C209.054 22.392 207.566 23.48 207.566 26.248V27ZM222.422 18.44C222.854 18.44 223.174 18.12 223.19 17.688L223.206 17.08C223.222 16.696 222.854 16.312 222.454 16.312C222.054 16.312 221.702 16.648 221.686 17.064L221.67 17.656C221.654 18.072 222.022 18.44 222.422 18.44ZM222.342 27.096C222.758 27.096 223.126 26.744 223.126 26.312L223.206 19.944C223.206 19.512 222.87 19.16 222.422 19.16C222.006 19.16 221.638 19.512 221.638 19.944L221.558 26.312C221.558 26.744 221.91 27.096 222.342 27.096ZM226.216 27.096C226.696 27.096 226.968 26.744 226.968 26.296V24.952C226.968 23.768 227.144 23.032 227.624 22.168C228.168 21.176 228.84 20.6 229.48 20.6C230.216 20.6 230.536 21.144 230.536 23.688V26.344C230.536 26.728 230.888 27.096 231.304 27.096C231.736 27.096 232.04 26.728 232.04 26.328C232.04 25.416 232.056 24.872 232.056 23.528C232.056 20.184 231.368 19.112 229.624 19.112C228.536 19.112 227.592 19.8 226.984 21.08V19.864C226.984 19.432 226.648 19.096 226.248 19.096C225.832 19.096 225.448 19.432 225.448 19.864V26.36C225.448 26.744 225.8 27.096 226.216 27.096ZM236.488 27.08C237.368 27.08 238.152 26.616 238.632 26.168V26.456C238.632 26.856 238.984 27.096 239.368 27.096C239.8 27.096 240.136 26.776 240.152 26.36L240.376 17.048C240.392 16.552 240.008 16.232 239.624 16.232C239.192 16.232 238.84 16.584 238.824 17.016L238.744 19.496C238.344 19.336 237.72 19.128 237.032 19.128C235.032 19.128 233.624 20.664 233.624 23.464C233.624 25.816 234.888 27.08 236.488 27.08ZM236.616 25.64C235.768 25.64 235.16 25.016 235.16 23.416C235.16 21.56 235.832 20.568 237.128 20.568C237.72 20.568 238.376 20.824 238.728 21.064L238.664 24.216C238.648 24.76 237.784 25.64 236.616 25.64ZM243.359 18.44C243.791 18.44 244.111 18.12 244.127 17.688L244.143 17.08C244.159 16.696 243.791 16.312 243.391 16.312C242.991 16.312 242.639 16.648 242.623 17.064L242.607 17.656C242.591 18.072 242.959 18.44 243.359 18.44ZM243.279 27.096C243.695 27.096 244.063 26.744 244.063 26.312L244.143 19.944C244.143 19.512 243.807 19.16 243.359 19.16C242.943 19.16 242.575 19.512 242.575 19.944L242.495 26.312C242.495 26.744 242.847 27.096 243.279 27.096ZM249.362 27.096C250.706 27.096 251.81 26.344 252.37 25.592C252.498 25.432 252.546 25.256 252.546 25.048C252.546 24.68 252.21 24.344 251.794 24.344C251.49 24.344 251.25 24.552 251.106 24.744C250.738 25.24 250.242 25.64 249.33 25.64C248.354 25.64 247.378 24.888 247.378 23.56C247.378 22.04 248.482 20.568 249.506 20.568C250.146 20.568 250.45 20.872 250.738 21.192C250.946 21.448 251.074 21.512 251.346 21.512C251.762 21.512 252.114 21.192 252.114 20.776C252.114 20.584 252.05 20.408 251.874 20.216C251.266 19.496 250.674 19.112 249.49 19.112C247.586 19.112 245.874 21.4 245.874 23.592C245.874 25.544 247.394 27.096 249.362 27.096ZM259.021 27.256C259.469 27.256 259.789 26.872 259.789 26.456V19.8C259.373 19.608 258.381 19.112 257.229 19.112C254.861 19.112 253.389 21.432 253.389 23.64C253.389 25.704 254.717 27.096 256.477 27.096C257.117 27.096 257.805 26.92 258.301 26.392V26.616C258.301 27 258.589 27.256 259.021 27.256ZM256.589 25.608C255.565 25.608 254.941 24.936 254.941 23.608C254.941 22.04 255.853 20.584 257.261 20.584C257.597 20.584 257.997 20.664 258.269 20.776L258.221 24.952C257.885 25.256 257.261 25.608 256.589 25.608ZM263.418 27.112C263.834 27.112 264.186 26.776 264.186 26.36V20.648H265.546C265.978 20.648 266.314 20.28 266.314 19.88C266.314 19.432 265.978 19.096 265.546 19.096H264.186V17.384C264.186 16.984 263.882 16.6 263.418 16.6C262.986 16.6 262.65 16.984 262.65 17.384V19.096H261.418C261.002 19.096 260.618 19.4 260.618 19.88C260.618 20.28 260.954 20.648 261.386 20.648H262.65V26.36C262.65 26.776 263.018 27.112 263.418 27.112ZM270.342 27.096C271.334 27.096 272.438 26.568 273.014 25.912C273.142 25.768 273.206 25.624 273.206 25.432C273.206 25.016 272.886 24.712 272.454 24.712C272.246 24.712 272.07 24.824 271.926 24.968C271.574 25.336 271.046 25.656 270.342 25.656C269.43 25.656 268.582 25.288 268.278 24.616L272.566 22.152C272.902 21.96 273.062 21.672 273.062 21.416C273.062 20.664 272.102 19.112 269.99 19.112C267.798 19.112 266.374 21.08 266.374 23.08C266.374 25.592 268.086 27.096 270.342 27.096ZM267.83 23.288C267.83 23.064 267.83 22.952 267.862 22.712C267.99 21.528 268.854 20.552 270.102 20.552C270.726 20.552 271.222 20.776 271.478 21.224L267.83 23.288ZM276.281 24.552C276.553 24.552 276.953 24.248 277.369 23.88C277.385 23.864 278.169 23.16 278.825 22.552C279.385 22.04 280.569 21.16 280.569 19.4C280.569 17.384 279.129 16.04 277.001 16.04C275.769 16.04 274.793 16.744 274.345 17.24C274.185 17.416 273.945 17.72 273.945 17.976C273.945 18.44 274.313 18.744 274.713 18.744C274.905 18.744 275.097 18.68 275.225 18.536C275.625 18.088 276.169 17.544 277.001 17.544C278.537 17.544 279.081 18.504 279.081 19.4C279.081 20.056 278.441 20.856 277.689 21.592C276.857 22.408 276.185 22.888 275.801 23.224C275.625 23.368 275.529 23.592 275.529 23.8C275.529 24.216 275.865 24.552 276.281 24.552ZM275.785 27.096C276.281 27.096 276.729 26.632 276.729 26.056C276.729 25.56 276.377 25.16 275.897 25.16C275.417 25.16 274.953 25.656 274.953 26.184C274.953 26.696 275.289 27.096 275.785 27.096ZM292.625 27.096C294.177 27.096 295.585 26.44 296.465 25.192C296.577 25.032 296.609 24.872 296.609 24.712C296.609 24.2 296.225 23.912 295.809 23.912C295.569 23.912 295.377 23.976 295.185 24.232C294.673 24.904 293.889 25.56 292.625 25.56C290.961 25.56 289.553 24.36 289.553 22.28C289.553 19.96 291.185 17.736 292.833 17.736C293.697 17.736 294.193 18.008 294.529 18.36V18.472C294.529 18.808 294.849 19.112 295.281 19.112C295.729 19.112 296.081 18.744 296.081 18.312V17.288C296.081 16.888 295.777 16.552 295.345 16.552C295.121 16.552 294.961 16.648 294.865 16.744C294.385 16.456 293.665 16.184 292.945 16.184C290.497 16.184 287.953 19.08 287.953 22.28C287.953 25.32 290.081 27.096 292.625 27.096ZM298.81 27.096C299.178 27.096 299.578 26.776 299.578 26.376V17.096C299.578 16.68 299.21 16.344 298.81 16.344C298.362 16.344 298.042 16.68 298.042 17.096V26.376C298.042 26.776 298.41 27.096 298.81 27.096ZM302.687 18.44C303.119 18.44 303.439 18.12 303.455 17.688L303.471 17.08C303.487 16.696 303.119 16.312 302.719 16.312C302.319 16.312 301.967 16.648 301.951 17.064L301.935 17.656C301.919 18.072 302.287 18.44 302.687 18.44ZM302.607 27.096C303.023 27.096 303.391 26.744 303.391 26.312L303.471 19.944C303.471 19.512 303.135 19.16 302.687 19.16C302.271 19.16 301.903 19.512 301.903 19.944L301.823 26.312C301.823 26.744 302.175 27.096 302.607 27.096ZM308.69 27.096C310.034 27.096 311.138 26.344 311.698 25.592C311.826 25.432 311.874 25.256 311.874 25.048C311.874 24.68 311.538 24.344 311.122 24.344C310.818 24.344 310.578 24.552 310.434 24.744C310.066 25.24 309.57 25.64 308.658 25.64C307.682 25.64 306.706 24.888 306.706 23.56C306.706 22.04 307.81 20.568 308.834 20.568C309.474 20.568 309.778 20.872 310.066 21.192C310.274 21.448 310.402 21.512 310.674 21.512C311.09 21.512 311.442 21.192 311.442 20.776C311.442 20.584 311.378 20.408 311.202 20.216C310.594 19.496 310.002 19.112 308.818 19.112C306.914 19.112 305.202 21.4 305.202 23.592C305.202 25.544 306.722 27.096 308.69 27.096ZM314.029 27.096C314.477 27.096 314.813 26.728 314.813 26.328V24.008C315.037 23.864 315.389 23.64 315.741 23.368C316.253 24.024 317.389 25.464 318.365 26.776C318.509 26.952 318.733 27.048 318.973 27.048C319.437 27.048 319.741 26.68 319.741 26.248C319.741 26.024 319.629 25.864 319.533 25.752L316.893 22.44C317.549 21.832 318.509 20.824 319.101 20.04C319.181 19.944 319.261 19.784 319.261 19.576C319.261 19.16 318.941 18.84 318.509 18.84C318.221 18.84 318.029 18.984 317.885 19.16C317.037 20.184 315.677 21.56 314.797 22.312L314.781 17.128C314.781 16.712 314.461 16.344 314.013 16.344C313.597 16.344 313.229 16.68 313.229 17.096L313.261 26.328C313.261 26.728 313.645 27.096 314.029 27.096ZM329.513 27.096C331.545 27.096 333.273 25.144 333.273 22.808C333.273 20.84 331.833 19.112 329.961 19.112C327.929 19.112 326.217 21.08 326.217 23.384C326.217 25.432 327.641 27.096 329.513 27.096ZM329.513 25.656C328.649 25.656 327.785 24.856 327.785 23.368C327.785 21.88 328.761 20.552 329.897 20.552C330.905 20.552 331.705 21.656 331.705 22.888C331.705 24.36 330.665 25.656 329.513 25.656ZM335.763 27.096C336.243 27.096 336.515 26.744 336.515 26.296V24.952C336.515 23.768 336.691 23.032 337.171 22.168C337.715 21.176 338.387 20.6 339.027 20.6C339.763 20.6 340.083 21.144 340.083 23.688V26.344C340.083 26.728 340.435 27.096 340.851 27.096C341.283 27.096 341.587 26.728 341.587 26.328C341.587 25.416 341.603 24.872 341.603 23.528C341.603 20.184 340.915 19.112 339.171 19.112C338.083 19.112 337.139 19.8 336.531 21.08V19.864C336.531 19.432 336.195 19.096 335.795 19.096C335.379 19.096 334.995 19.432 334.995 19.864V26.36C334.995 26.744 335.347 27.096 335.763 27.096ZM347.139 27.096C348.131 27.096 349.235 26.568 349.811 25.912C349.939 25.768 350.003 25.624 350.003 25.432C350.003 25.016 349.683 24.712 349.251 24.712C349.043 24.712 348.867 24.824 348.723 24.968C348.371 25.336 347.843 25.656 347.139 25.656C346.227 25.656 345.379 25.288 345.075 24.616L349.363 22.152C349.699 21.96 349.859 21.672 349.859 21.416C349.859 20.664 348.899 19.112 346.786 19.112C344.595 19.112 343.171 21.08 343.171 23.08C343.171 25.592 344.883 27.096 347.139 27.096ZM344.627 23.288C344.627 23.064 344.627 22.952 344.659 22.712C344.787 21.528 345.651 20.552 346.899 20.552C347.523 20.552 348.019 20.776 348.275 21.224L344.627 23.288ZM358.013 29.928C358.413 29.928 358.781 29.56 358.781 29.16V26.552C359.277 26.84 359.741 26.984 360.301 26.984C363.149 26.984 363.853 24.536 363.853 22.728C363.853 20.296 362.413 19.096 361.165 19.096C360.125 19.096 359.325 19.384 358.765 20.024V19.848C358.765 19.368 358.349 19.096 358.029 19.096C357.581 19.096 357.245 19.432 357.245 19.88V29.16C357.245 29.56 357.597 29.928 358.013 29.928ZM360.397 25.512C359.789 25.512 359.149 25.272 358.781 25.128V21.576C359.069 21.208 359.789 20.536 361.037 20.536C361.773 20.536 362.397 21.304 362.397 22.728C362.397 24.632 361.597 25.512 360.397 25.512ZM370.709 27.256C371.157 27.256 371.477 26.872 371.477 26.456V19.8C371.061 19.608 370.069 19.112 368.917 19.112C366.549 19.112 365.077 21.432 365.077 23.64C365.077 25.704 366.405 27.096 368.165 27.096C368.805 27.096 369.493 26.92 369.989 26.392V26.616C369.989 27 370.277 27.256 370.709 27.256ZM368.277 25.608C367.253 25.608 366.629 24.936 366.629 23.608C366.629 22.04 367.541 20.584 368.949 20.584C369.285 20.584 369.685 20.664 369.957 20.776L369.909 24.952C369.573 25.256 368.949 25.608 368.277 25.608ZM374.482 27.096C374.962 27.096 375.234 26.744 375.234 26.296V24.952C375.234 23.768 375.41 23.032 375.89 22.168C376.434 21.176 377.106 20.6 377.746 20.6C378.482 20.6 378.802 21.144 378.802 23.688V26.344C378.802 26.728 379.154 27.096 379.57 27.096C380.002 27.096 380.306 26.728 380.306 26.328C380.306 25.416 380.322 24.872 380.322 23.528C380.322 20.184 379.634 19.112 377.89 19.112C376.802 19.112 375.858 19.8 375.25 21.08V19.864C375.25 19.432 374.914 19.096 374.514 19.096C374.098 19.096 373.714 19.432 373.714 19.864V26.36C373.714 26.744 374.066 27.096 374.482 27.096ZM385.857 27.096C386.849 27.096 387.953 26.568 388.529 25.912C388.657 25.768 388.721 25.624 388.721 25.432C388.721 25.016 388.401 24.712 387.969 24.712C387.761 24.712 387.585 24.824 387.441 24.968C387.089 25.336 386.561 25.656 385.857 25.656C384.945 25.656 384.097 25.288 383.793 24.616L388.081 22.152C388.417 21.96 388.577 21.672 388.577 21.416C388.577 20.664 387.617 19.112 385.505 19.112C383.313 19.112 381.889 21.08 381.889 23.08C381.889 25.592 383.601 27.096 385.857 27.096ZM383.345 23.288C383.345 23.064 383.345 22.952 383.377 22.712C383.505 21.528 384.369 20.552 385.617 20.552C386.241 20.552 386.737 20.776 386.993 21.224L383.345 23.288ZM391.029 27.096C391.397 27.096 391.797 26.776 391.797 26.376V17.096C391.797 16.68 391.429 16.344 391.029 16.344C390.581 16.344 390.261 16.68 390.261 17.096V26.376C390.261 26.776 390.629 27.096 391.029 27.096ZM400.801 27.096C401.201 27.096 401.569 26.744 401.569 26.36V20.568H403.217C403.617 20.568 403.937 20.216 403.937 19.832C403.937 19.432 403.537 19.096 403.217 19.096L401.585 19.08C401.681 17.976 402.161 17.816 403.489 17.816C403.969 17.816 404.241 17.464 404.241 17.064C404.241 16.472 403.841 16.328 403.313 16.328C401.121 16.328 400.145 17.016 400.049 19.08H399.281C398.913 19.08 398.561 19.432 398.561 19.832C398.561 20.216 398.913 20.568 399.297 20.568H400.033V26.36C400.033 26.744 400.401 27.096 400.801 27.096ZM405.67 27.096C406.054 27.096 406.438 26.744 406.438 26.36L406.454 23.32C406.454 22.664 406.518 22.104 406.998 21.496C407.27 21.128 407.846 20.6 408.278 20.6C408.55 20.6 408.63 20.696 408.63 20.856V21.064C408.63 21.432 408.822 21.832 409.382 21.832C409.814 21.832 410.134 21.496 410.134 21.08V20.6C410.134 19.912 409.798 19.08 408.598 19.08C407.654 19.08 406.95 19.544 406.454 20.36V19.88C406.454 19.448 406.102 19.112 405.67 19.112C405.254 19.112 404.886 19.448 404.886 19.88V26.36C404.886 26.744 405.27 27.096 405.67 27.096ZM413.904 27.096C415.936 27.096 417.664 25.144 417.664 22.808C417.664 20.84 416.224 19.112 414.352 19.112C412.32 19.112 410.608 21.08 410.608 23.384C410.608 25.432 412.032 27.096 413.904 27.096ZM413.904 25.656C413.04 25.656 412.176 24.856 412.176 23.368C412.176 21.88 413.152 20.552 414.288 20.552C415.296 20.552 416.096 21.656 416.096 22.888C416.096 24.36 415.056 25.656 413.904 25.656ZM420.154 27.096C420.57 27.096 420.922 26.76 420.922 26.344L420.906 23.992C420.906 23.208 421.098 22.6 421.466 21.976C421.882 21.32 422.586 20.584 423.338 20.584C423.898 20.584 424.122 21.048 424.122 22.056V26.344C424.122 26.76 424.49 27.096 424.89 27.096C425.322 27.096 425.658 26.76 425.658 26.344V23.368C425.658 21.752 426.714 20.584 427.642 20.584C428.25 20.584 428.506 21.08 428.506 22.056V26.344C428.506 26.76 428.858 27.096 429.274 27.096C429.674 27.096 430.042 26.76 430.042 26.344V22.152C430.042 20.056 429.178 19.112 427.898 19.112C426.826 19.112 426.01 19.736 425.402 20.648C425.114 19.592 424.394 19.112 423.562 19.112C422.474 19.112 421.578 19.752 420.922 21V19.88C420.922 19.48 420.586 19.112 420.154 19.112C419.754 19.112 419.386 19.48 419.386 19.88V26.344C419.386 26.76 419.754 27.096 420.154 27.096ZM438.879 27.096C439.279 27.096 439.647 26.744 439.647 26.36V20.568H441.295C441.695 20.568 442.015 20.216 442.015 19.832C442.015 19.432 441.615 19.096 441.295 19.096L439.663 19.08C439.759 17.976 440.239 17.816 441.567 17.816C442.047 17.816 442.319 17.464 442.319 17.064C442.319 16.472 441.919 16.328 441.391 16.328C439.199 16.328 438.223 17.016 438.127 19.08H437.359C436.991 19.08 436.639 19.432 436.639 19.832C436.639 20.216 436.991 20.568 437.375 20.568H438.111V26.36C438.111 26.744 438.479 27.096 438.879 27.096ZM445.435 27.096C447.467 27.096 449.195 25.144 449.195 22.808C449.195 20.84 447.755 19.112 445.883 19.112C443.851 19.112 442.139 21.08 442.139 23.384C442.139 25.432 443.563 27.096 445.435 27.096ZM445.435 25.656C444.571 25.656 443.707 24.856 443.707 23.368C443.707 21.88 444.683 20.552 445.819 20.552C446.827 20.552 447.627 21.656 447.627 22.888C447.627 24.36 446.587 25.656 445.435 25.656ZM451.685 27.096C452.053 27.096 452.453 26.776 452.453 26.376V17.096C452.453 16.68 452.085 16.344 451.685 16.344C451.237 16.344 450.917 16.68 450.917 17.096V26.376C450.917 26.776 451.285 27.096 451.685 27.096ZM455.466 27.096C455.834 27.096 456.234 26.776 456.234 26.376V17.096C456.234 16.68 455.866 16.344 455.466 16.344C455.018 16.344 454.698 16.68 454.698 17.096V26.376C454.698 26.776 455.066 27.096 455.466 27.096ZM461.263 27.096C463.295 27.096 465.023 25.144 465.023 22.808C465.023 20.84 463.583 19.112 461.711 19.112C459.679 19.112 457.967 21.08 457.967 23.384C457.967 25.432 459.391 27.096 461.263 27.096ZM461.263 25.656C460.399 25.656 459.535 24.856 459.535 23.368C459.535 21.88 460.511 20.552 461.647 20.552C462.655 20.552 463.455 21.656 463.455 22.888C463.455 24.36 462.415 25.656 461.263 25.656ZM467.977 27.096C468.297 27.096 468.585 26.904 468.713 26.536L470.249 22.312L471.321 26.504C471.433 26.92 471.705 27.096 472.073 27.096C472.457 27.096 472.697 26.856 472.809 26.52L474.857 20.136C474.873 20.088 474.905 19.992 474.905 19.832C474.905 19.416 474.537 19.112 474.137 19.112C473.801 19.112 473.481 19.384 473.385 19.704L472.121 23.864L471.129 19.656C471.033 19.272 470.745 19.096 470.361 19.096C470.025 19.096 469.705 19.32 469.593 19.656L468.153 23.784L467.337 19.736C467.257 19.368 467.001 19.096 466.585 19.096C466.169 19.096 465.833 19.432 465.833 19.768C465.833 19.912 465.849 19.992 465.881 20.152L467.209 26.472C467.289 26.856 467.545 27.096 467.977 27.096ZM477.531 18.44C477.963 18.44 478.283 18.12 478.299 17.688L478.315 17.08C478.331 16.696 477.963 16.312 477.563 16.312C477.163 16.312 476.811 16.648 476.795 17.064L476.779 17.656C476.763 18.072 477.131 18.44 477.531 18.44ZM477.451 27.096C477.867 27.096 478.235 26.744 478.235 26.312L478.315 19.944C478.315 19.512 477.979 19.16 477.531 19.16C477.115 19.16 476.747 19.512 476.747 19.944L476.667 26.312C476.667 26.744 477.019 27.096 477.451 27.096ZM481.326 27.096C481.806 27.096 482.078 26.744 482.078 26.296V24.952C482.078 23.768 482.254 23.032 482.734 22.168C483.278 21.176 483.95 20.6 484.59 20.6C485.326 20.6 485.646 21.144 485.646 23.688V26.344C485.646 26.728 485.998 27.096 486.414 27.096C486.846 27.096 487.15 26.728 487.15 26.328C487.15 25.416 487.166 24.872 487.166 23.528C487.166 20.184 486.478 19.112 484.734 19.112C483.646 19.112 482.702 19.8 482.094 21.08V19.864C482.094 19.432 481.758 19.096 481.358 19.096C480.942 19.096 480.558 19.432 480.558 19.864V26.36C480.558 26.744 480.91 27.096 481.326 27.096ZM491.981 29.784C493.869 29.784 495.277 28.76 495.325 26.472L495.485 19.72C495.501 19.128 495.133 18.936 494.733 18.936C494.317 18.936 494.077 19.096 493.997 19.384C493.629 19.24 493.165 19.096 492.669 19.096C490.509 19.096 488.861 21.112 488.861 23.4C488.861 25.672 490.429 26.952 492.093 26.952C492.749 26.952 493.389 26.712 493.773 26.216L493.741 26.6C493.661 27.592 493.149 28.248 491.965 28.248C491.085 28.248 490.653 28.04 490.269 28.04C489.869 28.04 489.501 28.376 489.501 28.808C489.501 29.176 489.757 29.48 490.093 29.56C490.573 29.672 491.261 29.784 491.981 29.784ZM491.997 25.448C491.085 25.448 490.317 24.632 490.317 23.288C490.317 21.768 491.405 20.632 492.733 20.632C493.117 20.632 493.581 20.76 493.869 20.92V22.856C493.869 24.68 493.133 25.448 491.997 25.448ZM506.498 27.096C508.53 27.096 510.258 25.144 510.258 22.808C510.258 20.84 508.818 19.112 506.946 19.112C504.914 19.112 503.202 21.08 503.202 23.384C503.202 25.432 504.626 27.096 506.498 27.096ZM506.498 25.656C505.634 25.656 504.77 24.856 504.77 23.368C504.77 21.88 505.746 20.552 506.882 20.552C507.89 20.552 508.69 21.656 508.69 22.888C508.69 24.36 507.65 25.656 506.498 25.656ZM512.747 29.928C513.147 29.928 513.515 29.56 513.515 29.16V26.552C514.011 26.84 514.475 26.984 515.035 26.984C517.883 26.984 518.587 24.536 518.587 22.728C518.587 20.296 517.147 19.096 515.899 19.096C514.859 19.096 514.059 19.384 513.499 20.024V19.848C513.499 19.368 513.083 19.096 512.763 19.096C512.315 19.096 511.979 19.432 511.979 19.88V29.16C511.979 29.56 512.331 29.928 512.747 29.928ZM515.131 25.512C514.523 25.512 513.883 25.272 513.515 25.128V21.576C513.803 21.208 514.523 20.536 515.771 20.536C516.507 20.536 517.131 21.304 517.131 22.728C517.131 24.632 516.331 25.512 515.131 25.512ZM521.653 27.112C522.069 27.112 522.421 26.776 522.421 26.36V20.648H523.781C524.213 20.648 524.549 20.28 524.549 19.88C524.549 19.432 524.213 19.096 523.781 19.096H522.421V17.384C522.421 16.984 522.117 16.6 521.653 16.6C521.221 16.6 520.885 16.984 520.885 17.384V19.096H519.653C519.237 19.096 518.853 19.4 518.853 19.88C518.853 20.28 519.189 20.648 519.621 20.648H520.885V26.36C520.885 26.776 521.253 27.112 521.653 27.112ZM526.375 18.44C526.807 18.44 527.127 18.12 527.143 17.688L527.159 17.08C527.175 16.696 526.807 16.312 526.407 16.312C526.007 16.312 525.655 16.648 525.639 17.064L525.623 17.656C525.607 18.072 525.975 18.44 526.375 18.44ZM526.295 27.096C526.711 27.096 527.079 26.744 527.079 26.312L527.159 19.944C527.159 19.512 526.823 19.16 526.375 19.16C525.959 19.16 525.591 19.512 525.591 19.944L525.511 26.312C525.511 26.744 525.863 27.096 526.295 27.096ZM532.185 27.096C534.217 27.096 535.945 25.144 535.945 22.808C535.945 20.84 534.505 19.112 532.633 19.112C530.601 19.112 528.889 21.08 528.889 23.384C528.889 25.432 530.313 27.096 532.185 27.096ZM532.185 25.656C531.321 25.656 530.457 24.856 530.457 23.368C530.457 21.88 531.433 20.552 532.569 20.552C533.577 20.552 534.377 21.656 534.377 22.888C534.377 24.36 533.337 25.656 532.185 25.656ZM538.435 27.096C538.915 27.096 539.187 26.744 539.187 26.296V24.952C539.187 23.768 539.363 23.032 539.843 22.168C540.387 21.176 541.059 20.6 541.699 20.6C542.435 20.6 542.755 21.144 542.755 23.688V26.344C542.755 26.728 543.107 27.096 543.523 27.096C543.955 27.096 544.259 26.728 544.259 26.328C544.259 25.416 544.275 24.872 544.275 23.528C544.275 20.184 543.587 19.112 541.843 19.112C540.755 19.112 539.811 19.8 539.203 21.08V19.864C539.203 19.432 538.867 19.096 538.467 19.096C538.051 19.096 537.667 19.432 537.667 19.864V26.36C537.667 26.744 538.019 27.096 538.435 27.096ZM548.658 27.096C550.418 27.096 551.522 25.848 551.522 24.648C551.522 23.432 550.882 22.888 549.154 22.344C548.002 21.976 547.538 21.736 547.538 21.224C547.538 20.792 547.922 20.456 548.946 20.456C549.762 20.456 550.082 20.728 550.082 21.096C550.082 21.224 550.002 21.336 550.002 21.48C550.002 21.784 550.29 22.136 550.754 22.136C551.266 22.136 551.554 21.768 551.554 21.112C551.554 19.912 550.61 19.112 548.914 19.112C547.058 19.112 546.066 20.056 546.066 21.256C546.066 22.456 546.802 23.128 548.53 23.656C549.73 24.024 550.018 24.248 550.018 24.728C550.018 25.192 549.57 25.72 548.69 25.72C547.89 25.72 547.346 25.304 547.122 24.648C547.026 24.344 546.77 24.12 546.402 24.12C545.986 24.12 545.65 24.456 545.65 24.872C545.65 25.448 546.626 27.096 548.658 27.096ZM560.246 27.112C560.662 27.112 561.014 26.776 561.014 26.36V20.648H562.374C562.806 20.648 563.142 20.28 563.142 19.88C563.142 19.432 562.806 19.096 562.374 19.096H561.014V17.384C561.014 16.984 560.71 16.6 560.246 16.6C559.814 16.6 559.478 16.984 559.478 17.384V19.096H558.246C557.83 19.096 557.446 19.4 557.446 19.88C557.446 20.28 557.782 20.648 558.214 20.648H559.478V26.36C559.478 26.776 559.846 27.112 560.246 27.112ZM566.498 27.096C568.53 27.096 570.258 25.144 570.258 22.808C570.258 20.84 568.818 19.112 566.946 19.112C564.914 19.112 563.202 21.08 563.202 23.384C563.202 25.432 564.626 27.096 566.498 27.096ZM566.498 25.656C565.634 25.656 564.77 24.856 564.77 23.368C564.77 21.88 565.746 20.552 566.882 20.552C567.89 20.552 568.69 21.656 568.69 22.888C568.69 24.36 567.65 25.656 566.498 25.656ZM580.659 27.096C582.003 27.096 583.107 26.344 583.667 25.592C583.795 25.432 583.843 25.256 583.843 25.048C583.843 24.68 583.507 24.344 583.091 24.344C582.787 24.344 582.547 24.552 582.403 24.744C582.035 25.24 581.539 25.64 580.627 25.64C579.651 25.64 578.674 24.888 578.674 23.56C578.674 22.04 579.779 20.568 580.803 20.568C581.443 20.568 581.747 20.872 582.035 21.192C582.243 21.448 582.371 21.512 582.643 21.512C583.059 21.512 583.411 21.192 583.411 20.776C583.411 20.584 583.347 20.408 583.171 20.216C582.563 19.496 581.971 19.112 580.786 19.112C578.883 19.112 577.171 21.4 577.171 23.592C577.171 25.544 578.691 27.096 580.659 27.096ZM587.982 27.096C590.014 27.096 591.742 25.144 591.742 22.808C591.742 20.84 590.302 19.112 588.43 19.112C586.398 19.112 584.686 21.08 584.686 23.384C584.686 25.432 586.11 27.096 587.982 27.096ZM587.982 25.656C587.118 25.656 586.254 24.856 586.254 23.368C586.254 21.88 587.23 20.552 588.366 20.552C589.374 20.552 590.174 21.656 590.174 22.888C590.174 24.36 589.134 25.656 587.982 25.656ZM594.232 27.096C594.648 27.096 595 26.76 595 26.344L594.984 23.992C594.984 23.208 595.176 22.6 595.544 21.976C595.96 21.32 596.664 20.584 597.416 20.584C597.976 20.584 598.2 21.048 598.2 22.056V26.344C598.2 26.76 598.568 27.096 598.968 27.096C599.4 27.096 599.736 26.76 599.736 26.344V23.368C599.736 21.752 600.792 20.584 601.72 20.584C602.328 20.584 602.584 21.08 602.584 22.056V26.344C602.584 26.76 602.936 27.096 603.352 27.096C603.752 27.096 604.12 26.76 604.12 26.344V22.152C604.12 20.056 603.256 19.112 601.976 19.112C600.904 19.112 600.088 19.736 599.48 20.648C599.192 19.592 598.472 19.112 597.64 19.112C596.552 19.112 595.656 19.752 595 21V19.88C595 19.48 594.664 19.112 594.232 19.112C593.832 19.112 593.464 19.48 593.464 19.88V26.344C593.464 26.76 593.832 27.096 594.232 27.096ZM606.966 29.928C607.366 29.928 607.734 29.56 607.734 29.16V26.552C608.23 26.84 608.694 26.984 609.254 26.984C612.102 26.984 612.806 24.536 612.806 22.728C612.806 20.296 611.366 19.096 610.118 19.096C609.078 19.096 608.278 19.384 607.718 20.024V19.848C607.718 19.368 607.302 19.096 606.982 19.096C606.534 19.096 606.198 19.432 606.198 19.88V29.16C606.198 29.56 606.55 29.928 606.966 29.928ZM609.35 25.512C608.742 25.512 608.102 25.272 607.734 25.128V21.576C608.022 21.208 608.742 20.536 609.99 20.536C610.726 20.536 611.35 21.304 611.35 22.728C611.35 24.632 610.55 25.512 609.35 25.512ZM619.662 27.256C620.11 27.256 620.43 26.872 620.43 26.456V19.8C620.014 19.608 619.022 19.112 617.87 19.112C615.502 19.112 614.03 21.432 614.03 23.64C614.03 25.704 615.358 27.096 617.118 27.096C617.758 27.096 618.446 26.92 618.942 26.392V26.616C618.942 27 619.23 27.256 619.662 27.256ZM617.23 25.608C616.206 25.608 615.582 24.936 615.582 23.608C615.582 22.04 616.494 20.584 617.902 20.584C618.238 20.584 618.638 20.664 618.91 20.776L618.862 24.952C618.526 25.256 617.902 25.608 617.23 25.608ZM623.451 27.096C623.835 27.096 624.219 26.744 624.219 26.36L624.235 23.32C624.235 22.664 624.299 22.104 624.779 21.496C625.051 21.128 625.627 20.6 626.059 20.6C626.331 20.6 626.411 20.696 626.411 20.856V21.064C626.411 21.432 626.603 21.832 627.163 21.832C627.595 21.832 627.915 21.496 627.915 21.08V20.6C627.915 19.912 627.579 19.08 626.379 19.08C625.435 19.08 624.731 19.544 624.235 20.36V19.88C624.235 19.448 623.883 19.112 623.451 19.112C623.035 19.112 622.667 19.448 622.667 19.88V26.36C622.667 26.744 623.051 27.096 623.451 27.096ZM632.092 27.096C633.084 27.096 634.188 26.568 634.764 25.912C634.892 25.768 634.956 25.624 634.956 25.432C634.956 25.016 634.636 24.712 634.204 24.712C633.996 24.712 633.82 24.824 633.676 24.968C633.324 25.336 632.796 25.656 632.092 25.656C631.18 25.656 630.332 25.288 630.028 24.616L634.316 22.152C634.652 21.96 634.812 21.672 634.812 21.416C634.812 20.664 633.852 19.112 631.74 19.112C629.548 19.112 628.124 21.08 628.124 23.08C628.124 25.592 629.836 27.096 632.092 27.096ZM629.58 23.288C629.58 23.064 629.58 22.952 629.612 22.712C629.74 21.528 630.604 20.552 631.852 20.552C632.476 20.552 632.972 20.776 633.228 21.224L629.58 23.288ZM643.59 27.112C644.006 27.112 644.358 26.776 644.358 26.36V20.648H645.718C646.15 20.648 646.486 20.28 646.486 19.88C646.486 19.432 646.15 19.096 645.718 19.096H644.358V17.384C644.358 16.984 644.054 16.6 643.59 16.6C643.158 16.6 642.822 16.984 642.822 17.384V19.096H641.59C641.174 19.096 640.79 19.4 640.79 19.88C640.79 20.28 641.126 20.648 641.558 20.648H642.822V26.36C642.822 26.776 643.19 27.112 643.59 27.112ZM648.216 27.112C648.632 27.112 648.984 26.824 648.984 26.312V23.928C648.984 23.496 649.032 23.112 649.176 22.792C649.352 22.408 650.392 20.6 651.432 20.6C651.8 20.6 652.296 21.016 652.296 24.488C652.296 25.496 652.264 25.928 652.264 26.344C652.264 26.76 652.552 27.096 653.016 27.096C653.432 27.096 653.752 26.776 653.768 26.376C653.816 25.928 653.816 25.352 653.816 24.376C653.816 20.84 653.256 19.08 651.528 19.08C650.584 19.08 649.656 19.72 648.984 20.568V17.128C648.984 16.712 648.696 16.344 648.248 16.344C647.8 16.344 647.448 16.712 647.448 17.128V26.344C647.448 26.744 647.816 27.112 648.216 27.112ZM659.357 27.096C660.349 27.096 661.453 26.568 662.029 25.912C662.157 25.768 662.221 25.624 662.221 25.432C662.221 25.016 661.901 24.712 661.469 24.712C661.261 24.712 661.085 24.824 660.941 24.968C660.589 25.336 660.061 25.656 659.357 25.656C658.445 25.656 657.597 25.288 657.293 24.616L661.581 22.152C661.917 21.96 662.077 21.672 662.077 21.416C662.077 20.664 661.117 19.112 659.005 19.112C656.813 19.112 655.389 21.08 655.389 23.08C655.389 25.592 657.101 27.096 659.357 27.096ZM656.845 23.288C656.845 23.064 656.845 22.952 656.877 22.712C657.005 21.528 657.869 20.552 659.117 20.552C659.741 20.552 660.237 20.776 660.493 21.224L656.845 23.288ZM674.584 27.256C675.032 27.256 675.352 26.872 675.352 26.456V19.8C674.936 19.608 673.944 19.112 672.792 19.112C670.424 19.112 668.952 21.432 668.952 23.64C668.952 25.704 670.28 27.096 672.04 27.096C672.68 27.096 673.368 26.92 673.864 26.392V26.616C673.864 27 674.152 27.256 674.584 27.256ZM672.152 25.608C671.128 25.608 670.504 24.936 670.504 23.608C670.504 22.04 671.416 20.584 672.824 20.584C673.16 20.584 673.56 20.664 673.832 20.776L673.784 24.952C673.448 25.256 672.824 25.608 672.152 25.608ZM678.357 27.096C678.773 27.096 679.125 26.76 679.125 26.344L679.109 23.992C679.109 23.208 679.301 22.6 679.669 21.976C680.085 21.32 680.789 20.584 681.541 20.584C682.101 20.584 682.325 21.048 682.325 22.056V26.344C682.325 26.76 682.693 27.096 683.093 27.096C683.525 27.096 683.861 26.76 683.861 26.344V23.368C683.861 21.752 684.917 20.584 685.845 20.584C686.453 20.584 686.709 21.08 686.709 22.056V26.344C686.709 26.76 687.061 27.096 687.477 27.096C687.877 27.096 688.245 26.76 688.245 26.344V22.152C688.245 20.056 687.381 19.112 686.101 19.112C685.029 19.112 684.213 19.736 683.605 20.648C683.317 19.592 682.597 19.112 681.765 19.112C680.677 19.112 679.781 19.752 679.125 21V19.88C679.125 19.48 678.789 19.112 678.357 19.112C677.957 19.112 677.589 19.48 677.589 19.88V26.344C677.589 26.76 677.957 27.096 678.357 27.096ZM693.107 27.096C695.139 27.096 696.867 25.144 696.867 22.808C696.867 20.84 695.427 19.112 693.555 19.112C691.523 19.112 689.811 21.08 689.811 23.384C689.811 25.432 691.235 27.096 693.107 27.096ZM693.107 25.656C692.243 25.656 691.379 24.856 691.379 23.368C691.379 21.88 692.355 20.552 693.491 20.552C694.499 20.552 695.299 21.656 695.299 22.888C695.299 24.36 694.259 25.656 693.107 25.656ZM700.781 27.144C701.741 27.144 702.509 26.6 703.053 26.216V26.392C703.053 26.824 703.453 27.096 703.869 27.096C704.285 27.096 704.637 26.728 704.637 26.328V19.832C704.637 19.4 704.269 19.096 703.869 19.096C703.501 19.096 703.117 19.4 703.117 19.832L703.085 24.392C703.085 24.584 703.053 24.728 702.989 24.792C702.717 25.096 701.805 25.704 700.941 25.704C700.365 25.704 699.885 25.272 699.885 22.904C699.885 21.288 700.077 20.12 700.077 19.848C700.077 19.336 699.709 19.096 699.309 19.096C698.845 19.096 698.637 19.4 698.557 19.912C698.445 20.632 698.381 21.752 698.381 22.552C698.381 26.344 699.165 27.144 700.781 27.144ZM707.638 27.096C708.118 27.096 708.39 26.744 708.39 26.296V24.952C708.39 23.768 708.566 23.032 709.046 22.168C709.59 21.176 710.262 20.6 710.902 20.6C711.638 20.6 711.958 21.144 711.958 23.688V26.344C711.958 26.728 712.31 27.096 712.726 27.096C713.158 27.096 713.462 26.728 713.462 26.328C713.462 25.416 713.478 24.872 713.478 23.528C713.478 20.184 712.79 19.112 711.046 19.112C709.958 19.112 709.014 19.8 708.406 21.08V19.864C708.406 19.432 708.07 19.096 707.67 19.096C707.254 19.096 706.87 19.432 706.87 19.864V26.36C706.87 26.744 707.222 27.096 707.638 27.096ZM716.95 27.112C717.366 27.112 717.718 26.776 717.718 26.36V20.648H719.078C719.51 20.648 719.846 20.28 719.846 19.88C719.846 19.432 719.51 19.096 719.078 19.096H717.718V17.384C717.718 16.984 717.414 16.6 716.95 16.6C716.518 16.6 716.182 16.984 716.182 17.384V19.096H714.95C714.534 19.096 714.149 19.4 714.149 19.88C714.149 20.28 714.486 20.648 714.918 20.648H716.182V26.36C716.182 26.776 716.549 27.112 716.95 27.112ZM721.416 21.896C721.912 21.896 722.36 21.432 722.36 20.84C722.36 20.344 721.992 19.96 721.528 19.96C721.032 19.96 720.584 20.456 720.584 20.984C720.584 21.48 720.92 21.896 721.416 21.896ZM720.984 27.096C721.48 27.096 721.928 26.632 721.928 26.056C721.928 25.56 721.576 25.16 721.112 25.16C720.616 25.16 720.168 25.656 720.168 26.184C720.168 26.696 720.488 27.096 720.984 27.096Z" fill="black"/>
<rect id="totalTons" x="111" y="13" width="18" height="14" fill="white"/>
</g>
</svg>
