<svg width="463" height="119" viewBox="0 0 463 119" fill="none" xmlns="http://www.w3.org/2000/svg">
<g id="totalKm">
<path id="Rectangle 5" d="M5.31752 0.508149L76.3075 1.36561C76.3075 1.36561 93.4946 1.65148 118.528 0.508149C143.561 -0.635186 175.133 0.508149 175.133 0.508149H231.738H288.343C288.343 0.508149 322.157 -0.492251 344.948 0.508149C367.74 1.50855 405.103 0.508149 405.103 0.508149C405.103 0.508149 420.796 -0.206401 431.631 0.508149C442.466 1.2227 448.918 -0.349315 458.159 0.508149C467.4 1.36561 458.159 6.36951 458.159 11.0895C458.159 15.8094 458.159 25.7664 458.159 30.3984C458.159 35.0303 458.159 46.0978 458.159 46.0978V58.174V70.2503C458.159 70.2503 459.189 88.7916 458.159 94.4028C457.128 100.014 469.549 117.548 458.159 118.555C446.768 119.562 381.938 117.555 344.948 118.555C307.959 119.556 231.738 118.555 231.738 118.555H118.528H22.803C22.803 118.555 8.73653 119.429 5.31752 117.57C1.8985 115.71 9.80109 107.551 5.31752 105.836C0.833946 104.121 5.31752 95.1174 5.31752 95.1174V83.2555V71.9653V59.5317C5.31752 59.5317 12.7902 34.3788 5.31752 30.0199C-2.15512 25.6611 15.0319 17.372 5.31752 15.264C-4.3969 13.1561 5.31752 0.508149 5.31752 0.508149Z" fill="white"/>
<path id="Rectangle 4" d="M2.22407 0.508149L71.6775 1.36561C71.6775 1.36561 88.4925 1.65148 112.984 0.508149C137.475 -0.635186 168.364 0.508149 168.364 0.508149H223.744H279.124C279.124 0.508149 312.206 -0.492251 334.504 0.508149C356.802 1.50855 393.356 0.508149 393.356 0.508149C393.356 0.508149 408.709 -0.206401 419.31 0.508149C429.911 1.2227 441.527 0.508149 445.264 0.508149C449 0.508149 445.264 6.36952 445.264 11.0895C445.264 15.8094 445.264 25.7664 445.264 30.3984C445.264 35.0303 445.264 46.0978 445.264 46.0978V58.174V70.2503C445.264 70.2503 446.272 88.7916 445.264 94.4028C444.256 100.014 448.5 118.555 445.264 118.555C442.027 118.555 370.693 117.555 334.504 118.555C298.315 119.556 223.744 118.555 223.744 118.555H112.984H19.331C19.331 118.555 5.56908 119.429 2.22407 117.57C-1.12094 115.71 2.22407 109 2.22407 105.836C2.22406 102.672 2.22407 95.1174 2.22407 95.1174V83.2555V71.9653V59.5317C2.22407 59.5317 2.22406 36.5 2.22407 30.0199C2.22407 23.5399 4.99999 24.5 2.22407 15.264C-0.551857 6.0281 2.22407 0.508149 2.22407 0.508149Z" fill="white"/>
<path id="Rectangle 4 (Stroke)" fill-rule="evenodd" clip-rule="evenodd" d="M223.757 116.555L223.771 116.556L223.744 118.555H19.331C19.331 118.555 5.56908 119.429 2.22407 117.57C-0.0821259 116.288 0.791658 112.7 1.5568 109.558C1.90146 108.143 2.22407 106.819 2.22407 105.836V59.5317H4.22407V105.836C4.22407 106.896 3.95458 108.128 3.69981 109.204C3.62986 109.499 3.55917 109.789 3.48942 110.076C3.28283 110.924 3.08441 111.739 2.93759 112.549C2.7399 113.639 2.68686 114.476 2.78563 115.068C2.87211 115.586 3.03262 115.731 3.19577 115.822C3.6321 116.064 4.73624 116.337 6.51114 116.518C8.17908 116.689 10.1399 116.753 12.0392 116.76C13.9312 116.767 15.7258 116.717 17.0498 116.664C17.7108 116.638 18.2524 116.612 18.6275 116.592C18.815 116.582 18.9607 116.574 19.0588 116.568L19.1695 116.562L19.203 116.559L19.2043 116.559L19.2676 116.555H223.757ZM2.22407 0.508149C2.22407 0.508149 -0.551857 6.0281 2.22407 15.264C3.98531 21.124 3.51164 22.8795 2.93003 25.035C2.59496 26.2768 2.22407 27.6513 2.22407 30.0199V59.5317C4.22407 59.5317 4.22407 59.5319 4.22407 59.5317V30.0199C4.22407 27.93 4.50785 26.8824 4.82369 25.7164C4.95839 25.2191 5.09891 24.7003 5.22574 24.07C5.66295 21.8971 5.5763 19.4691 4.13943 14.6884C2.83889 10.3613 2.85406 6.96223 3.16461 4.6939C3.28793 3.79315 3.45853 3.06592 3.61488 2.52547L71.6438 3.36533L71.6473 3.36539L71.6528 3.36546L71.6572 3.36555L71.6954 3.36616L71.8442 3.36835C71.9753 3.37019 72.1699 3.37273 72.4258 3.37554C72.9376 3.38117 73.6944 3.38791 74.6784 3.3924C76.6463 3.40137 79.5232 3.40136 83.1661 3.36554C90.4515 3.29389 100.803 3.07897 113.077 2.50597C125.264 1.93705 139.063 1.9365 149.832 2.07922C155.212 2.15053 159.829 2.2575 163.1 2.34663C164.736 2.39118 166.035 2.43127 166.924 2.4602C167.368 2.47466 167.711 2.48633 167.941 2.49437L168.289 2.50674C168.289 2.50674 168.29 2.50678 168.364 0.508149L168.29 2.50678L168.327 2.50815H279.154L279.184 2.50724L279.124 0.508149C279.184 2.50724 279.184 2.50724 279.184 2.50724L279.558 2.49634C279.805 2.48929 280.17 2.47907 280.642 2.4664C281.588 2.44107 282.965 2.40596 284.687 2.36695C288.131 2.28893 292.955 2.19529 298.475 2.13287C309.524 2.00792 323.323 2.00854 334.414 2.50614C345.622 3.00897 360.382 3.00829 372.313 2.88319C378.284 2.82058 383.557 2.72666 387.338 2.6484C389.228 2.60927 390.746 2.57404 391.791 2.54859C392.313 2.53586 392.718 2.52558 392.992 2.51847L393.411 2.50741C393.411 2.50741 393.411 2.5074 393.356 0.508149L393.411 2.50741L393.43 2.50688L393.449 2.50599L393.619 2.49837C393.733 2.49339 393.901 2.48614 394.119 2.47715C394.556 2.45916 395.193 2.43421 395.99 2.40646C397.586 2.35094 399.825 2.28431 402.392 2.23989C407.541 2.15082 413.962 2.15219 419.175 2.50362C427.238 3.04706 435.987 2.7723 441.309 2.60519C442.813 2.55797 444.043 2.51934 444.906 2.5102C444.877 2.79363 444.814 3.14737 444.714 3.58565C444.607 4.05723 444.471 4.57253 444.316 5.15129L444.287 5.26092C444.144 5.79807 443.988 6.38206 443.845 6.97706C443.542 8.23618 443.264 9.67039 443.264 11.0895V46.0973C443.264 46.0974 443.264 46.0978 445.264 46.0978L443.264 46.0973V70.3046L443.267 70.3617L443.267 70.3712L443.277 70.5638C443.284 70.6994 443.295 70.8995 443.307 71.1567C443.333 71.671 443.368 72.413 443.407 73.3212C443.486 75.1385 443.58 77.6179 443.642 80.2696C443.77 85.6735 443.756 91.4853 443.295 94.0492C442.99 95.7457 443.097 98.2081 443.3 100.706C443.436 102.377 443.63 104.207 443.821 106.005C443.921 106.948 444.02 107.883 444.109 108.781C444.376 111.462 444.555 113.823 444.489 115.491C444.471 115.943 444.436 116.291 444.395 116.549C443.564 116.541 442.222 116.527 440.444 116.507C423.32 116.32 365.745 115.691 334.448 116.556C316.391 117.055 288.732 117.056 265.564 116.931C253.985 116.868 243.536 116.774 235.982 116.696C232.205 116.657 229.152 116.622 227.043 116.597C226.728 116.593 226.433 116.589 226.161 116.586C225.523 116.578 225.004 116.571 224.616 116.567L223.774 116.556L223.771 116.556C223.77 116.556 223.771 116.556 223.744 118.555C223.744 118.555 298.315 119.556 334.504 118.555C365.725 117.692 423.107 118.318 440.349 118.507C443.092 118.537 444.819 118.555 445.264 118.555C447.163 118.555 446.486 112.169 445.806 105.757C445.327 101.245 444.847 96.7208 445.264 94.4028C446.272 88.7916 445.264 70.2503 445.264 70.2503V46.0978V11.0895C445.264 9.35509 445.768 7.46659 446.221 5.77141C447.001 2.85334 447.627 0.508149 445.264 0.508149C444.327 0.508149 442.895 0.55305 441.108 0.609086C435.767 0.776588 427.253 1.04358 419.31 0.508149C408.709 -0.206401 393.356 0.508149 393.356 0.508149C393.356 0.508149 356.802 1.50855 334.504 0.508149C312.206 -0.492251 279.124 0.508149 279.124 0.508149H168.364C168.364 0.508149 137.475 -0.635186 112.984 0.508149C88.4925 1.65148 71.6775 1.36561 71.6775 1.36561L2.22407 0.508149Z" fill="black"/>
<path id="In 2019, you travel times, a total of km by plane." d="M43.79 33H47.136C47.528 33 47.822 32.692 47.822 32.3C47.822 31.908 47.556 31.6 47.136 31.6H46.17V25.02H47.136C47.528 25.02 47.822 24.698 47.822 24.306C47.822 23.914 47.528 23.62 47.136 23.62H43.79C43.398 23.62 43.09 23.914 43.09 24.306C43.09 24.698 43.398 25.02 43.79 25.02H44.77V31.6H43.79C43.398 31.6 43.09 31.908 43.09 32.3C43.09 32.692 43.398 33 43.79 33ZM49.9678 33.084C50.3878 33.084 50.6258 32.776 50.6258 32.384V31.208C50.6258 30.172 50.7798 29.528 51.1998 28.772C51.6758 27.904 52.2638 27.4 52.8238 27.4C53.4678 27.4 53.7478 27.876 53.7478 30.102V32.426C53.7478 32.762 54.0558 33.084 54.4198 33.084C54.7978 33.084 55.0638 32.762 55.0638 32.412C55.0638 31.614 55.0778 31.138 55.0778 29.962C55.0778 27.036 54.4758 26.098 52.9498 26.098C51.9978 26.098 51.1718 26.7 50.6398 27.82V26.756C50.6398 26.378 50.3458 26.084 49.9958 26.084C49.6318 26.084 49.2958 26.378 49.2958 26.756V32.44C49.2958 32.776 49.6038 33.084 49.9678 33.084ZM61.6076 33H66.6476C66.9976 33 67.3196 32.706 67.3196 32.342C67.3196 31.964 66.9976 31.67 66.6476 31.67H62.9936C63.1896 30.452 64.0716 29.836 64.9396 29.276C66.0176 28.59 67.2076 27.792 67.2076 26.224C67.2076 24.866 66.0876 23.76 64.4916 23.76C63.3436 23.76 62.4896 24.376 61.9996 24.852C61.6496 25.188 61.5516 25.356 61.5516 25.58C61.5516 25.916 61.8176 26.266 62.2236 26.266C62.5456 26.266 62.6716 26.112 62.8116 25.958C62.9096 25.846 63.5816 25.104 64.4916 25.104C65.2616 25.104 65.8636 25.566 65.8636 26.224C65.8636 27.078 65.1216 27.54 64.0996 28.212C62.9096 28.968 61.6076 29.92 61.6076 32.342V33ZM71.7442 33.084C73.6622 33.084 75.2302 30.816 75.2302 28.212C75.2302 25.832 73.9002 23.76 72.0382 23.76C70.0782 23.76 68.5382 26.084 68.5382 28.646C68.5382 30.998 69.8682 33.084 71.7442 33.084ZM71.7442 31.74C70.6382 31.74 69.8682 30.242 69.8682 28.618C69.8682 26.7 70.8622 25.104 72.0382 25.104C73.1162 25.104 73.9142 26.588 73.9142 28.24C73.9142 30.144 72.9062 31.74 71.7442 31.74ZM77.39 33H80.162C80.512 33 80.834 32.706 80.834 32.328C80.834 31.964 80.582 31.656 80.134 31.656H79.56L79.658 24.432C79.658 24.096 79.406 23.76 78.972 23.76C78.832 23.76 78.608 23.844 78.496 23.97L76.858 25.748C76.746 25.874 76.676 26.028 76.676 26.196C76.676 26.56 76.97 26.868 77.348 26.868C77.53 26.868 77.698 26.812 77.838 26.672L78.3 26.182L78.202 31.656H77.39C76.998 31.656 76.718 31.964 76.718 32.328C76.718 32.706 76.998 33 77.39 33ZM84.0761 33.084C84.2021 33.084 84.3141 33.042 84.4401 32.986C86.3861 31.992 88.0101 30.13 88.0101 27.246C88.0101 25.034 86.8761 23.746 85.0141 23.746C83.3061 23.746 82.0461 25.062 82.0461 27.176C82.0461 29.08 83.2781 30.074 84.7901 30.074C85.2661 30.074 85.6861 29.99 86.0361 29.864C85.5321 30.704 84.7201 31.39 83.7961 31.838C83.5721 31.936 83.4181 32.16 83.4181 32.44C83.4181 32.804 83.6981 33.084 84.0761 33.084ZM84.7901 28.758C83.9361 28.758 83.3481 28.226 83.3481 27.176C83.3481 25.776 84.1181 25.062 84.9581 25.062C86.0921 25.062 86.7081 25.79 86.7081 27.246C86.7081 27.512 86.7081 27.75 86.6661 28.016C86.4001 28.282 85.7421 28.758 84.7901 28.758ZM89.7102 34.26C90.0742 34.26 90.2282 34.008 90.3542 33.714C90.5782 33.182 90.8302 32.482 90.8302 32.188C90.8302 31.796 90.5082 31.474 90.1022 31.474C89.6682 31.474 89.2762 31.894 89.2762 32.356C89.2762 32.524 89.3182 32.664 89.3882 32.79L89.1362 33.448C89.1082 33.518 89.0942 33.588 89.0942 33.672C89.0942 33.994 89.3602 34.26 89.7102 34.26ZM98.3321 35.59C98.6261 35.59 98.8501 35.394 98.9621 35.156L102.7 27.036C102.742 26.952 102.756 26.84 102.756 26.756C102.756 26.364 102.476 26.07 102.14 26.07C101.846 26.07 101.608 26.266 101.496 26.504L99.7321 30.41L97.7581 26.504C97.6601 26.308 97.4501 26.084 97.1141 26.084C96.7221 26.084 96.4141 26.392 96.4141 26.77C96.4141 26.896 96.4561 27.022 96.4981 27.106L99.0041 31.992L97.7861 34.61C97.7441 34.708 97.7161 34.82 97.7161 34.904C97.7161 35.282 97.9961 35.59 98.3321 35.59ZM105.982 33.084C107.76 33.084 109.272 31.376 109.272 29.332C109.272 27.61 108.012 26.098 106.374 26.098C104.596 26.098 103.098 27.82 103.098 29.836C103.098 31.628 104.344 33.084 105.982 33.084ZM105.982 31.824C105.226 31.824 104.47 31.124 104.47 29.822C104.47 28.52 105.324 27.358 106.318 27.358C107.2 27.358 107.9 28.324 107.9 29.402C107.9 30.69 106.99 31.824 105.982 31.824ZM112.696 33.126C113.536 33.126 114.208 32.65 114.684 32.314V32.468C114.684 32.846 115.034 33.084 115.398 33.084C115.762 33.084 116.07 32.762 116.07 32.412V26.728C116.07 26.35 115.748 26.084 115.398 26.084C115.076 26.084 114.74 26.35 114.74 26.728L114.712 30.718C114.712 30.886 114.684 31.012 114.628 31.068C114.39 31.334 113.592 31.866 112.836 31.866C112.332 31.866 111.912 31.488 111.912 29.416C111.912 28.002 112.08 26.98 112.08 26.742C112.08 26.294 111.758 26.084 111.408 26.084C111.002 26.084 110.82 26.35 110.75 26.798C110.652 27.428 110.596 28.408 110.596 29.108C110.596 32.426 111.282 33.126 112.696 33.126ZM124.233 33.098C124.597 33.098 124.905 32.804 124.905 32.44V27.442H126.095C126.473 27.442 126.767 27.12 126.767 26.77C126.767 26.378 126.473 26.084 126.095 26.084H124.905V24.586C124.905 24.236 124.639 23.9 124.233 23.9C123.855 23.9 123.561 24.236 123.561 24.586V26.084H122.483C122.119 26.084 121.783 26.35 121.783 26.77C121.783 27.12 122.077 27.442 122.455 27.442H123.561V32.44C123.561 32.804 123.883 33.098 124.233 33.098ZM128.294 33.084C128.63 33.084 128.966 32.776 128.966 32.44L128.98 29.78C128.98 29.206 129.036 28.716 129.456 28.184C129.694 27.862 130.198 27.4 130.576 27.4C130.814 27.4 130.884 27.484 130.884 27.624V27.806C130.884 28.128 131.052 28.478 131.542 28.478C131.92 28.478 132.2 28.184 132.2 27.82V27.4C132.2 26.798 131.906 26.07 130.856 26.07C130.03 26.07 129.414 26.476 128.98 27.19V26.77C128.98 26.392 128.672 26.098 128.294 26.098C127.93 26.098 127.608 26.392 127.608 26.77V32.44C127.608 32.776 127.944 33.084 128.294 33.084ZM137.311 33.224C137.703 33.224 137.983 32.888 137.983 32.524V26.7C137.619 26.532 136.751 26.098 135.743 26.098C133.671 26.098 132.383 28.128 132.383 30.06C132.383 31.866 133.545 33.084 135.085 33.084C135.645 33.084 136.247 32.93 136.681 32.468V32.664C136.681 33 136.933 33.224 137.311 33.224ZM135.183 31.782C134.287 31.782 133.741 31.194 133.741 30.032C133.741 28.66 134.539 27.386 135.771 27.386C136.065 27.386 136.415 27.456 136.653 27.554L136.611 31.208C136.317 31.474 135.771 31.782 135.183 31.782ZM141.872 33.098C142.222 33.098 142.39 32.944 142.502 32.678L144.77 27.036C144.812 26.924 144.84 26.854 144.84 26.742C144.84 26.406 144.574 26.084 144.168 26.084C143.888 26.084 143.636 26.252 143.538 26.504L141.872 30.718L140.22 26.546C140.108 26.266 139.926 26.098 139.59 26.098C139.212 26.098 138.904 26.392 138.904 26.728C138.904 26.84 138.918 26.924 138.946 27.008L141.256 32.636C141.382 32.93 141.536 33.098 141.872 33.098ZM148.679 33.084C149.547 33.084 150.513 32.622 151.017 32.048C151.129 31.922 151.185 31.796 151.185 31.628C151.185 31.264 150.905 30.998 150.527 30.998C150.345 30.998 150.191 31.096 150.065 31.222C149.757 31.544 149.295 31.824 148.679 31.824C147.881 31.824 147.139 31.502 146.873 30.914L150.625 28.758C150.919 28.59 151.059 28.338 151.059 28.114C151.059 27.456 150.219 26.098 148.371 26.098C146.453 26.098 145.207 27.82 145.207 29.57C145.207 31.768 146.705 33.084 148.679 33.084ZM146.481 29.752C146.481 29.556 146.481 29.458 146.509 29.248C146.621 28.212 147.377 27.358 148.469 27.358C149.015 27.358 149.449 27.554 149.673 27.946L146.481 29.752ZM153.204 33.084C153.526 33.084 153.876 32.804 153.876 32.454V24.334C153.876 23.97 153.554 23.676 153.204 23.676C152.812 23.676 152.532 23.97 152.532 24.334V32.454C152.532 32.804 152.854 33.084 153.204 33.084ZM182.01 33.098C182.374 33.098 182.682 32.804 182.682 32.44V27.442H183.872C184.25 27.442 184.544 27.12 184.544 26.77C184.544 26.378 184.25 26.084 183.872 26.084H182.682V24.586C182.682 24.236 182.416 23.9 182.01 23.9C181.632 23.9 181.338 24.236 181.338 24.586V26.084H180.26C179.896 26.084 179.56 26.35 179.56 26.77C179.56 27.12 179.854 27.442 180.232 27.442H181.338V32.44C181.338 32.804 181.66 33.098 182.01 33.098ZM186.142 25.51C186.52 25.51 186.8 25.23 186.814 24.852L186.828 24.32C186.842 23.984 186.52 23.648 186.17 23.648C185.82 23.648 185.512 23.942 185.498 24.306L185.484 24.824C185.47 25.188 185.792 25.51 186.142 25.51ZM186.072 33.084C186.436 33.084 186.758 32.776 186.758 32.398L186.828 26.826C186.828 26.448 186.534 26.14 186.142 26.14C185.778 26.14 185.456 26.448 185.456 26.826L185.386 32.398C185.386 32.776 185.694 33.084 186.072 33.084ZM189.462 33.084C189.826 33.084 190.134 32.79 190.134 32.426L190.12 30.368C190.12 29.682 190.288 29.15 190.61 28.604C190.974 28.03 191.59 27.386 192.248 27.386C192.738 27.386 192.934 27.792 192.934 28.674V32.426C192.934 32.79 193.256 33.084 193.606 33.084C193.984 33.084 194.278 32.79 194.278 32.426V29.822C194.278 28.408 195.202 27.386 196.014 27.386C196.546 27.386 196.77 27.82 196.77 28.674V32.426C196.77 32.79 197.078 33.084 197.442 33.084C197.792 33.084 198.114 32.79 198.114 32.426V28.758C198.114 26.924 197.358 26.098 196.238 26.098C195.3 26.098 194.586 26.644 194.054 27.442C193.802 26.518 193.172 26.098 192.444 26.098C191.492 26.098 190.708 26.658 190.134 27.75V26.77C190.134 26.42 189.84 26.098 189.462 26.098C189.112 26.098 188.79 26.42 188.79 26.77V32.426C188.79 32.79 189.112 33.084 189.462 33.084ZM202.957 33.084C203.825 33.084 204.791 32.622 205.295 32.048C205.407 31.922 205.463 31.796 205.463 31.628C205.463 31.264 205.183 30.998 204.805 30.998C204.623 30.998 204.469 31.096 204.343 31.222C204.035 31.544 203.573 31.824 202.957 31.824C202.159 31.824 201.417 31.502 201.151 30.914L204.903 28.758C205.197 28.59 205.337 28.338 205.337 28.114C205.337 27.456 204.497 26.098 202.649 26.098C200.731 26.098 199.485 27.82 199.485 29.57C199.485 31.768 200.983 33.084 202.957 33.084ZM200.759 29.752C200.759 29.556 200.759 29.458 200.787 29.248C200.899 28.212 201.655 27.358 202.747 27.358C203.293 27.358 203.727 27.554 203.951 27.946L200.759 29.752ZM208.825 33.084C210.365 33.084 211.331 31.992 211.331 30.942C211.331 29.878 210.771 29.402 209.259 28.926C208.251 28.604 207.845 28.394 207.845 27.946C207.845 27.568 208.181 27.274 209.077 27.274C209.791 27.274 210.071 27.512 210.071 27.834C210.071 27.946 210.001 28.044 210.001 28.17C210.001 28.436 210.253 28.744 210.659 28.744C211.107 28.744 211.359 28.422 211.359 27.848C211.359 26.798 210.533 26.098 209.049 26.098C207.425 26.098 206.557 26.924 206.557 27.974C206.557 29.024 207.201 29.612 208.713 30.074C209.763 30.396 210.015 30.592 210.015 31.012C210.015 31.418 209.623 31.88 208.853 31.88C208.153 31.88 207.677 31.516 207.481 30.942C207.397 30.676 207.173 30.48 206.851 30.48C206.487 30.48 206.193 30.774 206.193 31.138C206.193 31.642 207.047 33.084 208.825 33.084ZM212.771 34.26C213.135 34.26 213.289 34.008 213.415 33.714C213.639 33.182 213.891 32.482 213.891 32.188C213.891 31.796 213.569 31.474 213.163 31.474C212.729 31.474 212.337 31.894 212.337 32.356C212.337 32.524 212.379 32.664 212.449 32.79L212.197 33.448C212.169 33.518 212.155 33.588 212.155 33.672C212.155 33.994 212.421 34.26 212.771 34.26ZM224.907 33.224C225.299 33.224 225.579 32.888 225.579 32.524V26.7C225.215 26.532 224.347 26.098 223.339 26.098C221.267 26.098 219.979 28.128 219.979 30.06C219.979 31.866 221.141 33.084 222.681 33.084C223.241 33.084 223.843 32.93 224.277 32.468V32.664C224.277 33 224.529 33.224 224.907 33.224ZM222.779 31.782C221.883 31.782 221.337 31.194 221.337 30.032C221.337 28.66 222.135 27.386 223.367 27.386C223.661 27.386 224.011 27.456 224.249 27.554L224.207 31.208C223.913 31.474 223.367 31.782 222.779 31.782ZM233.744 33.098C234.108 33.098 234.416 32.804 234.416 32.44V27.442H235.606C235.984 27.442 236.278 27.12 236.278 26.77C236.278 26.378 235.984 26.084 235.606 26.084H234.416V24.586C234.416 24.236 234.15 23.9 233.744 23.9C233.366 23.9 233.072 24.236 233.072 24.586V26.084H231.994C231.63 26.084 231.294 26.35 231.294 26.77C231.294 27.12 231.588 27.442 231.966 27.442H233.072V32.44C233.072 32.804 233.394 33.098 233.744 33.098ZM239.214 33.084C240.992 33.084 242.504 31.376 242.504 29.332C242.504 27.61 241.244 26.098 239.606 26.098C237.828 26.098 236.33 27.82 236.33 29.836C236.33 31.628 237.576 33.084 239.214 33.084ZM239.214 31.824C238.458 31.824 237.702 31.124 237.702 29.822C237.702 28.52 238.556 27.358 239.55 27.358C240.432 27.358 241.132 28.324 241.132 29.402C241.132 30.69 240.222 31.824 239.214 31.824ZM245.174 33.098C245.538 33.098 245.846 32.804 245.846 32.44V27.442H247.036C247.414 27.442 247.708 27.12 247.708 26.77C247.708 26.378 247.414 26.084 247.036 26.084H245.846V24.586C245.846 24.236 245.58 23.9 245.174 23.9C244.796 23.9 244.502 24.236 244.502 24.586V26.084H243.424C243.06 26.084 242.724 26.35 242.724 26.77C242.724 27.12 243.018 27.442 243.396 27.442H244.502V32.44C244.502 32.804 244.824 33.098 245.174 33.098ZM252.688 33.224C253.08 33.224 253.36 32.888 253.36 32.524V26.7C252.996 26.532 252.128 26.098 251.12 26.098C249.048 26.098 247.76 28.128 247.76 30.06C247.76 31.866 248.922 33.084 250.462 33.084C251.022 33.084 251.624 32.93 252.058 32.468V32.664C252.058 33 252.31 33.224 252.688 33.224ZM250.56 31.782C249.664 31.782 249.118 31.194 249.118 30.032C249.118 28.66 249.916 27.386 251.148 27.386C251.442 27.386 251.792 27.456 252.03 27.554L251.988 31.208C251.694 31.474 251.148 31.782 250.56 31.782ZM255.989 33.084C256.311 33.084 256.661 32.804 256.661 32.454V24.334C256.661 23.97 256.339 23.676 255.989 23.676C255.597 23.676 255.317 23.97 255.317 24.334V32.454C255.317 32.804 255.639 33.084 255.989 33.084ZM266.052 33.084C267.83 33.084 269.342 31.376 269.342 29.332C269.342 27.61 268.082 26.098 266.444 26.098C264.666 26.098 263.168 27.82 263.168 29.836C263.168 31.628 264.414 33.084 266.052 33.084ZM266.052 31.824C265.296 31.824 264.54 31.124 264.54 29.822C264.54 28.52 265.394 27.358 266.388 27.358C267.27 27.358 267.97 28.324 267.97 29.402C267.97 30.69 267.06 31.824 266.052 31.824ZM271.704 33.084C272.054 33.084 272.376 32.776 272.376 32.44V27.372H273.818C274.168 27.372 274.448 27.064 274.448 26.728C274.448 26.378 274.098 26.084 273.818 26.084L272.39 26.07C272.474 25.104 272.894 24.964 274.056 24.964C274.476 24.964 274.714 24.656 274.714 24.306C274.714 23.788 274.364 23.662 273.902 23.662C271.984 23.662 271.13 24.264 271.046 26.07H270.374C270.052 26.07 269.744 26.378 269.744 26.728C269.744 27.064 270.052 27.372 270.388 27.372H271.032V32.44C271.032 32.776 271.354 33.084 271.704 33.084ZM330.871 33.084C331.263 33.084 331.557 32.762 331.557 32.412V30.382C331.753 30.256 332.061 30.06 332.369 29.822C332.817 30.396 333.811 31.656 334.665 32.804C334.791 32.958 334.987 33.042 335.197 33.042C335.603 33.042 335.869 32.72 335.869 32.342C335.869 32.146 335.771 32.006 335.687 31.908L333.377 29.01C333.951 28.478 334.791 27.596 335.309 26.91C335.379 26.826 335.449 26.686 335.449 26.504C335.449 26.14 335.169 25.86 334.791 25.86C334.539 25.86 334.371 25.986 334.245 26.14C333.503 27.036 332.313 28.24 331.543 28.898L331.529 24.362C331.529 23.998 331.249 23.676 330.857 23.676C330.493 23.676 330.171 23.97 330.171 24.334L330.199 32.412C330.199 32.762 330.535 33.084 330.871 33.084ZM337.665 33.084C338.029 33.084 338.337 32.79 338.337 32.426L338.323 30.368C338.323 29.682 338.491 29.15 338.813 28.604C339.177 28.03 339.793 27.386 340.451 27.386C340.941 27.386 341.137 27.792 341.137 28.674V32.426C341.137 32.79 341.459 33.084 341.809 33.084C342.187 33.084 342.481 32.79 342.481 32.426V29.822C342.481 28.408 343.405 27.386 344.217 27.386C344.749 27.386 344.973 27.82 344.973 28.674V32.426C344.973 32.79 345.281 33.084 345.645 33.084C345.995 33.084 346.317 32.79 346.317 32.426V28.758C346.317 26.924 345.561 26.098 344.441 26.098C343.503 26.098 342.789 26.644 342.257 27.442C342.005 26.518 341.375 26.098 340.647 26.098C339.695 26.098 338.911 26.658 338.337 27.75V26.77C338.337 26.42 338.043 26.098 337.665 26.098C337.315 26.098 336.993 26.42 336.993 26.77V32.426C336.993 32.79 337.315 33.084 337.665 33.084ZM353.77 33.07C354.134 33.07 354.372 32.818 354.372 32.65V32.566C354.68 32.79 355.352 33 355.884 33C357.732 33 358.964 31.768 358.964 29.318C358.964 27.26 357.788 26.21 356.43 26.21C355.688 26.21 355.03 26.42 354.456 27.05V24.306C354.456 23.928 354.134 23.676 353.798 23.676C353.434 23.676 353.126 23.928 353.126 24.306V32.44C353.126 32.804 353.406 33.07 353.77 33.07ZM355.786 31.684C355.268 31.684 354.75 31.544 354.456 31.446V29.024C354.456 28.212 355.324 27.554 356.402 27.554C357.13 27.554 357.648 28.114 357.648 29.318C357.648 30.746 357.158 31.684 355.786 31.684ZM361.324 35.59C361.618 35.59 361.842 35.394 361.954 35.156L365.692 27.036C365.734 26.952 365.748 26.84 365.748 26.756C365.748 26.364 365.468 26.07 365.132 26.07C364.838 26.07 364.6 26.266 364.488 26.504L362.724 30.41L360.75 26.504C360.652 26.308 360.442 26.084 360.106 26.084C359.714 26.084 359.406 26.392 359.406 26.77C359.406 26.896 359.448 27.022 359.49 27.106L361.996 31.992L360.778 34.61C360.736 34.708 360.708 34.82 360.708 34.904C360.708 35.282 360.988 35.59 361.324 35.59ZM372.433 35.562C372.783 35.562 373.105 35.24 373.105 34.89V32.608C373.539 32.86 373.945 32.986 374.435 32.986C376.927 32.986 377.543 30.844 377.543 29.262C377.543 27.134 376.283 26.084 375.191 26.084C374.281 26.084 373.581 26.336 373.091 26.896V26.742C373.091 26.322 372.727 26.084 372.447 26.084C372.055 26.084 371.761 26.378 371.761 26.77V34.89C371.761 35.24 372.069 35.562 372.433 35.562ZM374.519 31.698C373.987 31.698 373.427 31.488 373.105 31.362V28.254C373.357 27.932 373.987 27.344 375.079 27.344C375.723 27.344 376.269 28.016 376.269 29.262C376.269 30.928 375.569 31.698 374.519 31.698ZM379.733 33.084C380.055 33.084 380.405 32.804 380.405 32.454V24.334C380.405 23.97 380.083 23.676 379.733 23.676C379.341 23.676 379.061 23.97 379.061 24.334V32.454C379.061 32.804 379.383 33.084 379.733 33.084ZM386.85 33.224C387.242 33.224 387.522 32.888 387.522 32.524V26.7C387.158 26.532 386.29 26.098 385.282 26.098C383.21 26.098 381.922 28.128 381.922 30.06C381.922 31.866 383.084 33.084 384.624 33.084C385.184 33.084 385.786 32.93 386.22 32.468V32.664C386.22 33 386.472 33.224 386.85 33.224ZM384.722 31.782C383.826 31.782 383.28 31.194 383.28 30.032C383.28 28.66 384.078 27.386 385.31 27.386C385.604 27.386 385.954 27.456 386.192 27.554L386.15 31.208C385.856 31.474 385.31 31.782 384.722 31.782ZM390.151 33.084C390.571 33.084 390.809 32.776 390.809 32.384V31.208C390.809 30.172 390.963 29.528 391.383 28.772C391.859 27.904 392.447 27.4 393.007 27.4C393.651 27.4 393.931 27.876 393.931 30.102V32.426C393.931 32.762 394.239 33.084 394.603 33.084C394.981 33.084 395.247 32.762 395.247 32.412C395.247 31.614 395.261 31.138 395.261 29.962C395.261 27.036 394.659 26.098 393.133 26.098C392.181 26.098 391.355 26.7 390.823 27.82V26.756C390.823 26.378 390.529 26.084 390.179 26.084C389.815 26.084 389.479 26.378 389.479 26.756V32.44C389.479 32.776 389.787 33.084 390.151 33.084ZM400.105 33.084C400.973 33.084 401.939 32.622 402.443 32.048C402.555 31.922 402.611 31.796 402.611 31.628C402.611 31.264 402.331 30.998 401.953 30.998C401.771 30.998 401.617 31.096 401.491 31.222C401.183 31.544 400.721 31.824 400.105 31.824C399.307 31.824 398.565 31.502 398.299 30.914L402.051 28.758C402.345 28.59 402.485 28.338 402.485 28.114C402.485 27.456 401.645 26.098 399.797 26.098C397.879 26.098 396.633 27.82 396.633 29.57C396.633 31.768 398.131 33.084 400.105 33.084ZM397.907 29.752C397.907 29.556 397.907 29.458 397.935 29.248C398.047 28.212 398.803 27.358 399.895 27.358C400.441 27.358 400.875 27.554 401.099 27.946L397.907 29.752ZM404.126 33.084C404.546 33.084 404.952 32.678 404.952 32.174C404.952 31.74 404.63 31.39 404.224 31.39C403.79 31.39 403.398 31.824 403.398 32.286C403.398 32.734 403.692 33.084 404.126 33.084Z" fill="black"/>
<rect id="totalMovement" x="160" y="19" width="11" height="10" fill="white"/>
<rect id="totalkm" x="278" y="19" width="50" height="10" fill="white"/>
<rect id="planePlaceHolder" x="43" y="42" width="385" height="64" fill="white"/>
</g>
</svg>
