<?xml version="1.0" encoding="utf-8"?>
<!-- Generator: Adobe Illustrator 21.0.0, SVG Export Plug-In . SVG Version: 6.00 Build 0)  -->
<svg version="1.1" id="Layer_1" xmlns="http://www.w3.org/2000/svg" xmlns:xlink="http://www.w3.org/1999/xlink" x="0px" y="0px"
	 width="400px" height="400px" viewBox="0 0 400 400" style="enable-background:new 0 0 400 400;" xml:space="preserve">
<g id="down">
	<g>
		<path d="M190.6,142.1c-4.9,36.2-0.7,72.6,1.3,108.9c2,36.7,0.4,73.4-5.3,109.8c1.6-0.5,3.1-1,4.7-1.6c-6.8-9-12.8-18.6-18.1-28.6
			c-1.5,0.6-3.1,1.2-4.6,1.8c7.3,9.9,13.8,20.4,19.6,31.3c0.8,1.4,3.9-0.4,4.5-1.2c5.9-7.9,11.6-16,17.1-24.2c1-1.5-3.6-0.6-4.4,0.6
			c-5.5,8.2-11.2,16.3-17.1,24.2c1.5-0.4,3-0.8,4.5-1.2c-5.8-10.9-12.3-21.3-19.6-31.3c-0.9-1.2-5.3,0.6-4.6,1.8
			c5.2,10,11.3,19.6,18.1,28.6c0.9,1.2,4.5-0.2,4.7-1.6c5.7-36.4,7.3-73.1,5.3-109.8c-2-36.3-6.2-72.6-1.3-108.9
			C195.5,139.3,190.8,140.6,190.6,142.1L190.6,142.1z"/>
	</g>
</g>
<g>
	<g>
		<path d="M50.3,109.2c9.5-8,19.8-21.5,18.4-34.7c-0.4-4-2.6-9.9-7.2-10.8c-5.6-1.1-7.2,6.1-7.9,10c-1.5,7.8-1.9,15.8-1.2,23.7
			c0.5,5.6,0.9,13.1,4.7,17.6c3.2,3.7,7.9,3.9,11.5,0.6c4.6-4.2,5.9-10.6,5.1-16.5C73.3,97,69.1,96.2,69,99
			c-0.2,4.9,0.8,10.6,4.4,14.2c2.7,2.7,6.7,3.6,9.5,0.8c5.8-5.8,5.6-19.6-2.7-23c-7.4-3-14.4,6.6-7.4,11.6
			c8.4,6.1,17.8-3.6,22.6-9.7c-1.5-0.6-2.9-1.3-4.4-1.9c-0.7,6.8-0.6,15.7,3.4,21.6c2.8,4.2,7.6,5.7,11.5,2
			c7-6.7,15.4-28.9-0.5-30.7c-11.9-1.4-9.1,15.4,1.3,16.1c7,0.4,12.7-5.7,16-11.2c3.6-6.1,5.2-13.1,3-20c-0.6-2.1-4.4-3.2-4.7-0.3
			c-1.6,16.8-3.2,33.7-4.8,50.5c1.6,0.1,3.1,0.2,4.7,0.3c-1.8-9.1,0-18.7,5.5-26.4c1-1.5,3.4-5,5.5-4.8c3.5,0.2,1.4,6.3,0.9,7.6
			c-0.7,2.1-1.9,4.2-3.3,5.9c-0.7,1-1.6,1.8-2.6,2.5c1-0.2,1.7,0.1,2.2,1c3.1,2.3,3.9,7.6,5.9,10.8c1.5,2.4,3.5,4.7,6.2,5.7
			c4.7,1.8,10.5-0.8,10.7-6.1c0.1-2.7-4.6-3.9-4.7-0.9c-0.2,5-5.8,2.7-7.6,0.5c-1-1.2-1.6-2.8-2.3-4.2c-1.4-3-2.6-6.1-4.9-8.5
			c-2.7-2.8-7.8-5-11.1-1.8c-3,2.8-1.6,7.7,2.3,8.8c4.9,1.4,9.3-3.4,11.6-7.1c2.4-4,4.7-10.3,2.8-14.9c-2-4.8-7.5-4.6-11.2-2.1
			c-10.2,7-12.7,23.1-10.5,34.3c0.5,2.3,4.4,3.1,4.7,0.3c1.6-16.8,3.2-33.7,4.8-50.5c-1.6-0.1-3.1-0.2-4.7-0.3
			c2.2,7.1-0.2,14.3-4.7,20c-2.1,2.7-5.4,6.1-9.2,6.3c-6.4,0.4-6.2-9.2-0.4-6.7c6.8,2.8,1.1,17.2-2.8,20.5c-0.7,1.6-1.9,2-3.6,1.1
			c-2,0.6-3.1-0.1-3.3-2.1c-0.7-1.3-0.9-3.5-1.2-5c-0.7-3.8-0.6-7.6-0.2-11.4c0.2-2.1-3-3.7-4.4-1.9c-2.3,2.8-4.6,5.7-7.6,7.8
			c-1.7,1.1-3.8,2.2-5.9,2.1c-2.7-0.1-5.1-3.5-1-4.8c4.5-1.4,5.4,4.8,5.2,7.1c-0.1,1.9-0.7,4-1.4,5.8c-0.3,1.1-0.9,2.1-1.8,3
			c-1.2-0.7-2.4-1.5-3.5-2.2c-1.9-2-1.8-6.5-1.7-9c-1.6-0.1-3.1-0.2-4.7-0.3c0.6,4.2-0.4,9.1-3.5,12.3c-5.4,5.4-7-3.8-7.6-7.5
			c-1.6-9.5-1.5-19.3,0.3-28.7c0.3-1.4,0.5-5.1,1.8-6.1c3-2.3,3.8,2.7,4,4.6c0.5,3.9-0.6,7.8-2,11.4c-3.2,7.8-8.3,14.6-14.8,20.1
			C44.9,107.3,48.3,111,50.3,109.2L50.3,109.2z"/>
	</g>
</g>
<g>
	<g>
		<path d="M185.7,102.7c-2.5,4.6-1.7,10.5,2.3,14.1c4.3,3.9,9.5,2.4,12.1-2.5c2.4-4.4,4.2-11.1,0.2-15c-3.8-3.7-10-3.2-12.6,1.6
			c-1.1,2.1,3.3,4.5,4.4,2.4c0.8-1.6,3-3.9,5.2-1.7c1.2,1.2,0.6,3.5,0.3,4.9c-0.4,2-1,4.1-2.1,5.9c-1.7,2.8-4.5,3.4-5.9,0.1
			c-1.1-2.4-0.7-5.1,0.5-7.4C191.2,103,186.8,100.6,185.7,102.7L185.7,102.7z"/>
	</g>
</g>
<g>
	<g>
		<path d="M202.9,69.1c-2.4,8.4-3.8,16.9-4.1,25.6c-0.2,7.3-0.4,16.4,2.2,23.4c1.4,3.8,5.5,6.8,9.1,3.7c1.8-1.6,2-4,2.3-6.2
			c0.5-4.4,0.7-8.9,0.7-13.3c-1.7,0.2-3.3,0.4-5,0.6c0.5,4,1,7.9,1.8,11.8c0.5,2.3,0.8,5.3,2.4,7.2c2.6,3.1,7.3,2.9,10.3,0.6
			c7.4-5.7,7.7-22-2.8-24.3c-8.7-1.9-13.8,9.1-6.5,14.4c3.5,2.6,8.6,2.3,12.4,0.3c5.2-2.8,7.5-8.2,8.5-13.7c-1.6,0-3.3,0.1-4.9,0.1
			c1.3,5.9,2,12.4,4.1,18c1.1,3.1,3.8,5.6,7.3,5.2c3.7-0.4,4.9-3.7,5.9-6.8c1.9-6,2.7-12.1,2.9-18.4c-1.7,0.2-3.3,0.4-5,0.6
			c0,6.1,0.8,27,12.3,20.8c8-4.3,8.6-15.5,3.5-22.1c-1,1-2,2.1-3.1,3.1c5.1,2.1,10.4,1,14.5-2.6c-1.5-0.3-2.9-0.6-4.4-0.8
			c0.3,9-0.7,17.8-3.1,26.4c1.6,0,3.3-0.1,4.9-0.1c0-6.5,2-16.4,7.5-20.7c7.1-5.6,7.6,11.1,9.9,14.6c5.4,8.1,17.7,4.8,19.4-4.3
			c0.5-2.7-4.5-2.9-4.9-0.4c-1.4,7.2-9.2,6.4-11.2,0c-0.8-2.7-0.9-5.6-1.8-8.3c-1.4-3.9-5-7.7-9.5-7.2c-4.6,0.5-7.8,5.4-9.8,9.1
			c-3.1,5.5-4.5,11.6-4.6,17.9c0,2.5,4.4,1.9,4.9-0.1c2.4-9,3.4-18.2,3.1-27.5c-0.1-2.2-3.3-1.8-4.4-0.8c-2.6,2.3-5.4,2.5-8.5,1.3
			c-1.9-0.8-4.5,1.2-3.1,3.1c2.6,3.4,4.2,12.3-0.5,15c-4.3,2.5-5-3.6-5.5-6.5c-0.6-3.5-0.8-6.9-0.8-10.4c0-2.6-4.9-1.9-5,0.6
			c-0.1,3.5-0.4,6.9-1.1,10.3c-0.3,1.8-0.8,3.6-1.3,5.3c-0.5,1.7-0.3,4.4-2.5,3.8c-2.5-0.7-2.7-6-3.2-8.2c-0.8-3.5-1.5-7-2.3-10.4
			c-0.5-2.3-4.5-2.2-4.9,0.1c-0.9,4.8-3.7,12.5-10,11.8c-2.9-0.3-5-3.2-4.4-6c1-5.1,6.5-1.1,7.5,1.8c0.9,2.7,0.5,5.5-0.3,8.1
			c-0.3,0.9-0.5,2.6-1.3,3.3c-0.3,1-1.2,1.3-2.6,0.8c-1.6,0.9-2.5,0.6-2.6-0.8c-1.2-1.5-1.2-5.4-1.6-7.3c-0.5-2.7-0.8-5.5-1.2-8.2
			c-0.3-2.6-5-1.9-5,0.6c0,3.2-0.1,6.3-0.4,9.5c-0.1,1.2-0.1,5.7-1.2,5.4c-2.5-0.7-2.6-13.3-2.8-15.5c-0.6-11.1,0.9-22.1,3.9-32.7
			C208.6,66.9,203.6,66.7,202.9,69.1L202.9,69.1z"/>
	</g>
</g>
</svg>
