<?xml version="1.0" encoding="utf-8"?>
<!-- Generator: Adobe Illustrator 21.0.0, SVG Export Plug-In . SVG Version: 6.00 Build 0)  -->
<svg version="1.1" id="Layer_1" xmlns="http://www.w3.org/2000/svg" xmlns:xlink="http://www.w3.org/1999/xlink" x="0px" y="0px"
	 width="400px" height="400px" viewBox="0 0 400 400" style="enable-background:new 0 0 400 400;" xml:space="preserve">
<g>
	<g>
		<path d="M64.9,137.1c10.6-9.4,16.9-23.4,16-37.7c-0.3-4.8-1.8-10.4-6.4-12.9c-4.9-2.7-9.4,1.1-10.3,6.1c-1.2,7,1,15.3,2.4,22.2
			c1.8,8.3,4.3,16.4,7.6,24.2c1.5,3.5,4.3,9.2,9.1,7.7c6-1.8,9.3-12.2,10.1-17.4c-1.3-0.9-2.6-1.8-3.9-2.6
			c1.1,6.2,2.2,23.8,13.2,18.2c8.7-4.5,8.9-17.5,2.3-23.8c-2.7-2.6-7.4-5-11-2.9c-3.1,1.8-3.2,6-1.8,8.9c1.8,3.6,5.6,5.8,9.6,5.8
			c5.5,0,9.5-4.2,13-8c-1.2-0.8-2.4-1.6-3.6-2.5c2.3,5.7,0.6,12,5.5,16.7c3.2,3.1,7.5,3.7,10.3-0.2c3-4.2,4.2-11.1,2.1-15.9
			c-1.6-3.7-5.8-7.6-10.1-7.1c-10,1.2-4.5,15.3,4.7,13.1c14.2-3.4,15.2-22.8,15.2-34.2c-1.3-0.7-2.6-1.5-3.9-2.2
			c1.6,15.9,1.7,31.8,0.3,47.7c1.3,0.7,2.6,1.5,3.9,2.2c-0.9-7-0.6-14.5,2-21.2c0.7-1.8,1.1-3.9,3.1-3.3c1.8,0.5,1.4,2.8,1.1,4.3
			c-0.7,3.5-2.8,4.9-5.2,7c-0.3,0.1-0.7,0.2-1,0.3c2.1,0.7,3.7,2,4.8,3.7c0.6,0.7,1.2,1.5,1.8,2.3c1.3,1.5,2.8,3,4.6,4
			c3.2,1.7,7.4,2,9.8-1.1c1.1-1.5-2.5-4.9-3.5-3.6c-5.2,6.9-10.5-4-14.3-6.9c-1.6-1.3-5.5-3.1-7.1-0.8c-1.5,2.2,1,5,2.8,5.9
			c3.3,1.7,6.8-0.2,8.8-2.9c3.4-4.5,3.6-15.4-3.5-17c-9.7-2.1-8.9,22.3-8.2,27.2c0.2,1.3,3.7,4.7,3.9,2.2
			c1.4-15.9,1.3-31.8-0.3-47.7c-0.1-1.4-3.9-4.6-3.9-2.2c0.1,10.6-0.7,28.4-13.5,32.2c-1.6,0.5-4.4,1.3-3.8-2
			c0.4-0.6,0.8-1.1,1.1-1.7c1.6-1.8,3.1-1.4,4.5,1.2c3.2,2.7,3.2,3.4,2.4,7.3c-0.3,1.4-0.8,2.8-1.4,4.1c-0.6,1.2-1.9,3.9-3.5,3.9
			c-2.1,0-4.2-5.1-4.4-6.8c-0.3-2.5-0.5-4.7-1.5-7.1c-0.3-0.8-2.5-3.7-3.6-2.5c-2.8,3.1-6.1,6.8-10.5,7.4c-3.5,0.6-7.8-2.8-4.5-6.1
			c4.3-4.4,9.2,1.9,9.5,6c0.3,4.4-2.3,11.6-7.1,12.8c-3.7,0.9-3.5-2.7-4-5.3c-0.4-2.4-0.9-4.8-1.3-7.2c-0.2-0.9-3.6-4.6-3.9-2.6
			c-0.8,5.1-2.7,9.9-6.1,13.8c-0.5,0.6-1.4,1.8-2.1,2.1c-1.7,0.7-2.2-0.1-3-1c-1.6-1.7-2.6-6.4-3.4-8.7c-3.7-10.5-6.2-21.6-6.9-32.7
			c-0.2-2.5-0.2-5.1,1.1-7.4c2.2-3.7,6-2.9,7.4,1.1c1.5,4.4,0.4,11.1-0.6,15.5c-2.2,9.5-7.3,18-14.6,24.4
			C60.2,134.6,63.6,138.2,64.9,137.1L64.9,137.1z"/>
	</g>
</g>
<g>
	<g>
		<path d="M204.1,146.6c3-4.6,4.6-9.4,5.1-14.8c-1.3-1.1-2.5-2.1-3.8-3.2c1,6.2,0.5,15.1,6.6,18.8c8.3,5.1,10.1-11.7,9.1-16.6
			c-0.2-1.1-3.8-2.9-3.8-3.2c-0.3,6.1,1,14.1,7,17.3c7.5,4,11.5-13.4,11.8-18.1c-1.3-1.1-2.5-2.1-3.8-3.2c0.7,6.7,0.6,13.4-0.5,20.1
			c1.3,1.1,2.5,2.1,3.8,3.2c-0.6-4.8-4.5-14.9,2.3-17.3c4.4-1.6,5.3,3.1,3.8,6.3c-1.3,2.7-3.9,4.1-6.6,4.9c-2.3,0.7-2.5,1-2.6,3.2
			c-0.2,3.4,1.5,7.6,1.9,11c1,7.4,1.3,14.9,1.1,22.4c0,1.1,3.8,3.1,3.8,3c0.2-10.3-0.5-20.5-2.5-30.7c-0.5-2.4-1.3-4.1,1-5.5
			c1.5-0.9,3.4-0.8,4.9-1.9c2.8-2.1,4.4-5.7,3.1-9c-1.3-3.3-5.8-7.1-9.3-7.4c-9.5-0.7-5.2,13.2-4.7,17.9c0.1,1,3.8,3.1,3.8,3.2
			c1-6.8,1.2-13.6,0.5-20.4c-0.1-1.1-3.8-2.9-3.8-3.2c-0.4,5.3-1.9,10.4-5,14.9c-1.2,1.7-3.1,4.8-4.9,2.9c-1.8-1.9-1.6-8.3-1.5-10.4
			c-1.3-1.1-2.5-2.1-3.8-3.2c1,5.3,0.5,13.3-4.6,16.7c-1.4,0.9-0.5,1.6-1.5,0.2c-0.6-0.9-0.5-2.6-0.6-3.7c-0.5-3.1-1-6.3-1.5-9.4
			c-0.2-1-3.8-3-3.8-3.2c-0.4,5.4-2.1,10.3-5.1,14.8C199.9,144,203.9,146.9,204.1,146.6L204.1,146.6z"/>
	</g>
</g>
<g id="up">
	<g>
		<path d="M178.9,340.6c1.9-49.6-2.1-99.1-5.4-148.6c-0.1-1.8-3.2-4-4.1-1.5c-2.6,7.1-5.2,14.2-7.8,21.2c1.4,0.7,2.7,1.4,4.1,2.1
			c1.5-6.5,4.1-12.5,7.8-18c-0.9,0.1-1.7,0.1-2.6,0.2c6.9,5.2,13,11.2,18.1,18.2c1.8,2.5,5.4,0.5,3.5-2.1
			c-5.7-7.7-12.2-14.3-19.8-20.1c-0.7-0.5-2-0.6-2.6,0.2c-4.2,6.2-7.1,12.8-8.7,20c-0.5,2.1,3.2,4.7,4.1,2.1
			c2.6-7.1,5.2-14.2,7.8-21.2c-1.4-0.5-2.8-1-4.1-1.5c3.3,49,7.3,98.2,5.4,147.4C174.5,341.6,178.8,343.7,178.9,340.6L178.9,340.6z"
			/>
	</g>
</g>
</svg>
