<?xml version="1.0" encoding="utf-8"?>
<!-- Generator: Adobe Illustrator 21.0.0, SVG Export Plug-In . SVG Version: 6.00 Build 0)  -->
<svg version="1.1" id="Layer_1" xmlns="http://www.w3.org/2000/svg" xmlns:xlink="http://www.w3.org/1999/xlink" x="0px" y="0px"
	 width="692px" height="842px" viewBox="0 0 692 842" style="enable-background:new 0 0 692 842;" xml:space="preserve">
<g>
	<g>
		<path d="M101.3,563.1c22.1-49.6,33.8-103.5,34.3-157.8c0-1.3-4.1-3.6-4.1-2.6c-0.4,54.2-12.1,107.9-34.1,157.4
			C96.8,561.3,101,563.9,101.3,563.1L101.3,563.1z"/>
	</g>
</g>
<g>
	<g>
		<path d="M142.1,414.9c-2.4,27-1.4,54.9,4.8,81.4c5.1,21.8,16.1,43.2,36.6,53.9c2.8,1.4,3.1-3.2,0.9-4.4
			c-20.2-10.6-29.9-32.2-34.4-53.5c-5.2-24.7-6.2-50.4-3.9-75.5C146.3,414.5,142.3,411.8,142.1,414.9L142.1,414.9z"/>
	</g>
</g>
<g>
	<g>
		<path d="M88,437.1C76.4,430,65.4,418,63.6,404c-0.9-7.1,1.5-15.6,8.5-18.7c8.1-3.6,16.4,3.2,22.4,7.9c1.3,1.1,5.1-0.1,4.2-2.2
			c-8.6-20.3-7.9-44,2.3-63.5c5.1-9.8,15.1-24.5,28-17.8c12.1,6.2,13.3,21.5,14.1,33.5c0.2,2.6,4,2.2,4.8,0.2
			c8.1-20.4,28.2-35.1,50.3-36c4.6-0.2,12.2-0.2,14.9,4.5c2.8,5-3.5,15.3-5.7,20c-5.6,11.8-12.7,22.9-20.9,33.1
			c-1.2,1.4,0.4,3,2,2.9c12.7-1.3,29.3,0,36.9,11.9c5.6,8.7,4.8,23.4-5.9,27.7c-1.4,0.6-1.9,2.9-0.2,3.5c8.6,2.7,10.1,14.2,5.8,21.2
			c-6.5,10.5-21.9,7.6-30.9,2.7c-2.2-1.2-5.4,2.1-2.6,3.6c11.3,6.2,29.6,7.9,37.7-4.6c5.7-8.8,3.6-23.1-7.3-26.5
			c-0.1,1.2-0.1,2.3-0.2,3.5c12.1-4.9,14.6-20.6,9.1-31.3c-7.6-14.8-27.4-17.1-42.2-15.6c0.7,1,1.3,1.9,2,2.9
			c10.1-12.5,18.5-26.4,24.7-41.3c2.3-5.5,5.8-12.5,0.7-17.5c-3.4-3.4-8.6-4.3-13.2-4.4c-25.6-1-50.2,15.6-59.5,39.2
			c1.6,0.1,3.2,0.1,4.8,0.2c-0.8-13.1-2.2-28.2-14.6-35.8c-11.4-7-22.9-0.7-30.3,8.9c-16.5,21.5-19.8,51.7-9.2,76.5
			c1.4-0.7,2.8-1.5,4.2-2.2c-6.8-5.4-14.9-11.2-24.1-9.5c-7.3,1.4-12.9,7.5-14.8,14.5c-4.9,17.9,11,36.5,25.2,45.1
			C86.5,441.4,90.5,438.6,88,437.1L88,437.1z"/>
	</g>
</g>
<g>
	<g>
		<path d="M210.9,519c27.5-4.9,55.1-5.3,82.9-2.4c13.7,1.4,27.4,3.2,41.2,4.1c13.7,0.9,27.4,0.6,41.1,0.1
			c55.1-1.9,109.9,5.8,165,6.6c30.8,0.4,61.7-0.4,92.4-2.4c1.2-0.1,5.3-2.7,2.8-2.5c-55.7,3.6-111.5,3.2-167.1-1.1
			c-27.5-2.2-54.9-4.3-82.5-3.4c-13.7,0.4-27.4,1.1-41,0.6c-14.3-0.6-28.5-2.4-42.7-3.9c-30.3-3.3-60.2-3.5-90.3,1.8
			C211.2,516.8,207.8,519.5,210.9,519L210.9,519z"/>
	</g>
</g>
<g>
	<g>
		<path d="M10.8,32.2c-0.5-3.3-1.1-6.9-0.1-10.1c0.8-2.7,3.8-6.5,7.1-4.9c2.6,1.3,5.3-1.9,2.4-3.4c-4.1-2-8.7-1-11.8,2.4
			c-3.9,4.3-3.2,10.5-2.5,15.7C6.2,34.4,11.2,35,10.8,32.2L10.8,32.2z"/>
	</g>
</g>
<g>
	<g>
		<path d="M489.2-22.4c2,0,4.8-3.2,1.5-3.2C488.7-25.6,486-22.4,489.2-22.4L489.2-22.4z"/>
	</g>
</g>
<g>
	<g>
		<path d="M493.3-26.1c2.3-3.3,4.7-6.7,7-10c1.2-1.7-1.6-5.8-2.9-4c-2.3,3.3-4.7,6.7-7,10C489.3-28.4,492-24.2,493.3-26.1
			L493.3-26.1z"/>
	</g>
</g>
<g>
	<g>
		<path d="M17.9,812.8c-2.1,7.5-3.2,15.1-3.3,23c0.1,0.1,0.2,0.1,0.4,0.1c3.3,0.1,6.7,0.1,10,0.2c1,0,2.5-0.5,3.3-1
			c0.2-0.2,1.6-0.9,0.6-0.9c-2.3,0-5.3,0.5-7.5-0.1c-2.9-0.8-2-4-1.8-6.5c0.4-5.5,1.5-10.8,2.9-16.1
			C22.6,811.1,18.2,811.7,17.9,812.8L17.9,812.8z"/>
	</g>
</g>
<g>
	<g>
		<path d="M663.6,836.5c2.5-0.2,4.9-0.4,7.4-0.6c1.7-0.1,4.6,0.1,6-1.1c1.3-1.1,1.1-3,0.9-4.5c-0.2-2.5-0.6-5-0.8-7.5
			c-0.1-0.8-1.4-1.9-1.9-2.4c-0.2-0.2-1.4-1.3-1.4-1.1c0.3,2.4,0.6,4.9,0.8,7.3c0.2,1.8,0.3,4-1.6,4.9c-1.6,0.8-3.7,0.6-5.4,0.7
			c-2.5,0.2-4.9,0.4-7.4,0.6C661,832.7,662.4,836.6,663.6,836.5L663.6,836.5z"/>
	</g>
</g>
<g>
	<g>
		<path d="M662,14c8.7,0,17.5,0,26.2,0.1c-0.8-0.7-1.7-1.4-2.5-2.1c-1.3,9.3-1.6,18.6-1.1,28c0.2,2.7,5.2,2.7,5,0
			c-0.5-9.4-0.2-18.7,1.1-28c0.2-1.3-1.5-2.1-2.5-2.1c-8.7,0-17.5,0-26.2-0.1C658.8,9.9,658.9,14,662,14L662,14z"/>
	</g>
</g>
</svg>
