<?xml version="1.0" encoding="utf-8"?>
<!-- Generator: Adobe Illustrator 21.0.0, SVG Export Plug-In . SVG Version: 6.00 Build 0)  -->
<svg version="1.1" id="Layer_1" xmlns="http://www.w3.org/2000/svg" xmlns:xlink="http://www.w3.org/1999/xlink" x="0px" y="0px"
	 width="790px" height="424.9px" viewBox="0 0 790 424.9" style="enable-background:new 0 0 790 424.9;" xml:space="preserve">
<path style="fill:none;" d="z"/>
<g>
	<g>
		<g>
			<line style="fill:none;stroke:#CCCCCC;" x1="44.2" y1="390.5" x2="44.2" y2="394.5"/>
			<line style="fill:none;stroke:#CCCCCC;" x1="186.5" y1="390.5" x2="186.5" y2="394.5"/>
			<line style="fill:none;stroke:#CCCCCC;" x1="328.9" y1="390.5" x2="328.9" y2="394.5"/>
			<line style="fill:none;stroke:#CCCCCC;" x1="471.2" y1="390.5" x2="471.2" y2="394.5"/>
			<line style="fill:none;stroke:#CCCCCC;" x1="613.6" y1="390.5" x2="613.6" y2="394.5"/>
			<line style="fill:none;stroke:#CCCCCC;" x1="667.6" y1="390.5" x2="667.6" y2="394.5"/>
			<text transform="matrix(1 0 0 1 28.1957 409.8667)" style="fill:#666666; font-family:'ArialMT'; font-size:14.4px;">1800</text>
			<text transform="matrix(1 0 0 1 170.4957 409.8667)" style="fill:#666666; font-family:'ArialMT'; font-size:14.4px;">1850</text>
			<text transform="matrix(1 0 0 1 312.8957 409.8667)" style="fill:#666666; font-family:'ArialMT'; font-size:14.4px;">1900</text>
			<text transform="matrix(1 0 0 1 455.1957 409.8667)" style="fill:#666666; font-family:'ArialMT'; font-size:14.4px;">1950</text>
			<text transform="matrix(1 0 0 1 597.5957 409.8667)" style="fill:#666666; font-family:'ArialMT'; font-size:14.4px;">2000</text>
			<text transform="matrix(1 0 0 1 651.5957 409.8667)" style="fill:#666666; font-family:'ArialMT'; font-size:14.4px;">2019</text>
		</g>
		<g>
			<text transform="matrix(1 0 0 1 23.1892 390.4666)" style="fill:#666666; font-family:'ArialMT'; font-size:14.4px;">0 t</text>
			<text transform="matrix(1 0 0 1 23.1892 326.7666)" style="fill:#666666; font-family:'ArialMT'; font-size:14.4px;">5 t</text>
			<text transform="matrix(1 0 0 1 15.1892 263.1667)" style="fill:#666666; font-family:'ArialMT'; font-size:14.4px;">10 t</text>
			<text transform="matrix(1 0 0 1 15.1892 199.4667)" style="fill:#666666; font-family:'ArialMT'; font-size:14.4px;">15 t</text>
			<text transform="matrix(1 0 0 1 15.1892 135.8667)" style="fill:#666666; font-family:'ArialMT'; font-size:14.4px;">20 t</text>
		</g>
		<g>
			<line style="fill:none;stroke:#CCCCCC;" x1="44.2" y1="390.5" x2="667.6" y2="390.5"/>
			<line style="fill:none;stroke:#D3D3D3;stroke-dasharray:3,2;" x1="44.2" y1="326.8" x2="667.6" y2="326.8"/>
			<line style="fill:none;stroke:#D3D3D3;stroke-dasharray:3,2;" x1="44.2" y1="263.2" x2="667.6" y2="263.2"/>
			<line style="fill:none;stroke:#D3D3D3;stroke-dasharray:3,2;" x1="44.2" y1="199.5" x2="667.6" y2="199.5"/>
			<line style="fill:none;stroke:#D3D3D3;stroke-dasharray:3,2;" x1="44.2" y1="135.9" x2="667.6" y2="135.9"/>
		</g>
	</g>
	<g>
		<defs>
			<rect id="SVGID_1_" x="34.2" y="90.7" width="760" height="602.4"/>
		</defs>
		<clipPath id="SVGID_2_">
			<use xlink:href="#SVGID_1_"  style="overflow:visible;"/>
		</clipPath>
		<g style="clip-path:url(#SVGID_2_);">
			<g>
				<g id="US-t">
					<rect x="667.6" y="180" style="fill:#FFFFFF;fill-opacity:0;" width="107.4" height="12"/>
					<text transform="matrix(1 0 0 1 671.64 189.5667)" style="fill:#00823F; font-family:'ArialMT'; font-size:12px;">United States</text>
				</g>
				<g id="Germany-t">
					<rect x="667.6" y="277.5" style="fill:#FFFFFF;fill-opacity:0;" width="84.4" height="12"/>
					<text transform="matrix(1 0 0 1 671.64 287.0667)" style="fill:#0F739C; font-family:'ArialMT'; font-size:12px;">Germany</text>
				</g>
				<g id="Spain-t">
					<rect x="667.6" y="311.4" style="fill:#FFFFFF;fill-opacity:0;" width="65.8" height="12"/>
					<text transform="matrix(1 0 0 1 671.64 321.0166)" style="fill:#C05917; font-family:'ArialMT'; font-size:12px;">Spain</text>
				</g>
				<g id="France-t">
					<rect x="667.6" y="325.4" style="fill:#FFFFFF;fill-opacity:0;" width="72.4" height="12"/>
					<text transform="matrix(1 0 0 1 671.64 335.0166)" style="fill:#3C4E66; font-family:'ArialMT'; font-size:12px;">France</text>
				</g>
			</g>
			<g>
				<g id="Germany-c">
					<path style="fill:none;stroke:#0F739C;stroke-width:1.5;stroke-linecap:round;" d="M44,389.7l3,1h3h3l3-1h2h3l3-1l3,1h3h3h3h2
						h3h3h3h3l3-1h2h3h3h3h3h3h3h2h3h3h3h3h3h2h3h3h3h3h3l3-1h2h3l3-1h3l3-1l3,1h3l2-1h3l3-1l3,1h3l3-1h2l3-1l3-1l3-1l3-2h3l3-1l2-1
						l3,1l3-1l3-1l3-2l3-1l2-2l3-2h3l3-2l3-1l3-1h3l2-2l3-2l3-2l3,9l3-9l3-1l2,1h3l3-2l3-3l3-3l3-2l3-2l2-1l3-1h3l3-2l3-3l3-3l2-2
						l3-3l3,3l3-1l3-2l3-1l3-4l2-3l3-2l3-3l3-4l3,1l3,3l2-5l3-1l3-5l3,6l3-16l3,1l3,1l2,2l3-2l3-7l3-5l3,8l3,7l2-8l3-4l3,1l3,20
						l3-10l3-8l3,4l2,26l3-24h3l3,9l3-13l3-4l2-6l3,16l3,15l3,7l3-3l3-8l3-7l2-8l3-11l3-6l3-8h3h3l2-1l3-2l3,12l3,86l3-29l3-9l3-10
						l2-9l3-14l3-12l3-5l3-2l3-6l2-11l3-7l3-1l3,4l3,1l3-9l3-3l2-7l3-9l3-3l3,3l3,2l3,4l3-7l2-10l3,5l3-2h3l3-7l3,3l2,10l3-14l3,6
						l3-5l3-7l3,3l3,8l2,5h3l3-4l3-1l3-1l3,3l2,2l3,4l3-7l3,7l3,9l3,2l3,4h2l3-2l3,4l3,1l3,5l3-1l2-2l3,2h3l3,3l3,3l3-2l3,3h2l3,9
						l3-6l3,3h3l3-3l2,7h3h3l3,3l3,5l3,9"/>
				</g>
				<g id="US-c">
					<path style="fill:none;stroke:#00823F;stroke-width:1.5;stroke-linecap:round;" d="M44,389.7h3h3h3h3h2h3h3h3h3h3h3h2h3h3h3h3
						h3h2h3h3h3h3h3h3h2l3-1h3h3h3h3h2l3-1h3h3l3-1h3h3h2h3h3h3l3-1h3l3-1l2-1l3-1l3-1l3-1h3l3-1l2-2h3l3-2l3-1l3-2h3h3h2l3-1h3l3,1
						h3l3-2l2-1h3l3,1l3-4l3-3l3-3l3-1h2l3-7l3-3l3,3h3l3,2l2-3l3,2l3-8l3-4l3-2l3-5l3-3l2-2l3,1l3-2l3-3l3-13l3,10l2-12l3-3l3-3
						l3,1l3,7l3-9l3,2l2-2l3-6l3-12l3-4l3-7l3-5l2-18l3,5l3-13l3-5l3-21l3,25l3-13l2-12l3,5l3-8l3-10l3,19l3-3l2-16l3-16l3-7l3,33
						l3-28l3,39l3,2l2-49l3,25l3-2l3-13l3,7l3,6l2-11l3,24l3,27l3,24l3-9l3-7l3-5l2-20l3-7l3,28l3-14l3-17l3-14l2-12l3-5l3-13l3,10
						l3,12l3-17l3-4l2,41l3-25l3-4l3,8l3-1l3,12l2-14l3-6l3,5l3,10l3-3l3-1l3,4l2-5l3-6l3-6l3-6l3-9l3-6l3-6l2-10l3-16l3,1l3-10
						l3-10l3,13l2,13l3-9l3-5l3-6l3,2l3,12l3,13l2,15h3l3-5l3,1l3,2l3-7l2-9h3l3-7l3,5l3-3l3-2l3-2h2l3-6h3l3,1l3-1l3-4l2,7h3l3,1
						l3-3l3,1l3,6l3-1l2,11l3,21l3-7l3,7l3,10l3-4h2l3,7l3,6l3,3l3-5l3,6"/>
				</g>
				<g id="France-c">
					<path style="fill:none;stroke:#3C4E66;stroke-width:1.5;stroke-linecap:round;" d="M50,389.7h6h17h3h2h3h3h3h3h3h2h3h3h3h3h3
						l3-1h2h3h3l3-1l3,1l3-1l2,1l3-1h3l3-1h3h3h3l2-1l3,1h3l3-1h3h3l3-1l2-1h3l3-1l3,2h3l3-1h2l3-1l3-1l3-1l3-2h3h3h2h3l3-1l3-1l3-1
						h3l2-1l3-1l3-1h3l3-1h3l3,2h2l3-3l3-2l3,1l3-1h3l2,1l3-1h3l3-3h3l3-2l3-1l2,1l3,1l3,1l3-2l3-1h3l2-3h3h3h3l3-1l3-1l3-1l2-1l3-1
						l3-2l3-3l3,2l3,2l2-3l3,1l3-1l3-3l3-2l3-1l3-1h2l3-1l3-1l3-4l3,16l3,5l2-3l3-5l3,4l3-2l3-12l3,5l3-8l2-6l3-6l3-2h3l3,1h3l2-6
						l3-1l3,7l3,8l3-3h3l3,2l2-1l3-6l3,5l3,1l3,17l3,5l2-2l3-1l3,15l3-9l3-17l3-5l3-4l2-9l3,8l3-7h3l3,5l3-3l2-3l3-8l3-2l3,4l3,2
						l3-2l3-2l2-3l3-9l3-1l3-1l3,2l3-6l3-2l2-7l3-5l3-5l3-4l3-8l3,5l2,14l3-14l3,7l3-6l3-5l3,6l3,13l2,4l3,4l3,4l3,2l3,4l3,2l2,2
						l3-4l3-1l3-6l3,3l3,5l3,1l2-1l3-3l3,2l3-4l3,1l3,2h2l3,1h3h3h3l3,3l3,2l2,2l3,4l3-1l3,6h3h3l2,7l3-1h3l3-1l3,3l3,2"/>
				</g>
				<g id="Spain-c">
					<path style="fill:none;stroke:#C05917;stroke-width:1.5;stroke-linecap:round;" d="M130,390.7h2h3h3h3h3h3h3h2h3h3h3h3h3h3h2h3
						h3h3h3l3-1h2h3h3h3h3h3h3h2h3l3-1h3h3h3h2h3h3h3h3h3l3-1l2,1l3-1h3h3h3h3h2h3h3h3l3-1h3l3-1l2,1h3l3-1h3h3h3h2l3-1h3h3h3h3l3-1
						h2h3h3l3-1h3h3h2l3-1h3h3h3l3-1h3h2h3h3l3-1h3l3,1l2-1l3,1h3h3l3,1h3h3l2-1l3-1h3h3l3-1h3l2-1h3l3,1l3,1l3,1l3-1l3-1l2,8l3,1
						l3-4l3-1l3-3h3h2l3-1h3l3-2l3,1l3-2h3l2-2l3,2h3l3-2h3l3-1h2l3-1l3-3l3-2l3,2l3,1l3-1l2-3l3,1l3-2l3-2l3-3l3-3l3-3h2l3-7l3-4
						l3-5l3-3l3-6l2-2l3-6l3,2l3-1h3l3-3l3,3l2-1l3,2l3,3l3-1l3,4h3l2-3l3-8l3-2l3-3l3-3l3,3l3-4l2-4l3,5l3-4l3-3l3-6l3-3h2l3-4h3
						l3-3l3-3l3,4h3l2,10l3,12l3,4h3l3,1l3,7l2-1l3-4l3,3l3-4l3,1l3,5"/>
				</g>
			</g>
		</g>
	</g>
</g>
<path style="fill:none;" d="z"/>
<rect id="Spain-b" x="74" y="42" style="fill:#C05917;" width="17" height="17"/>
<rect id="France-b" x="74" y="63.3" style="fill:#3C4E66;" width="17" height="17"/>
<rect id="Germany-b" x="74" y="84.7" style="fill:#0F739C;" width="17" height="17"/>
<rect id="US-b" x="74.9" y="21.6" style="fill:#00823F;" width="16.1" height="16.1"/>
<text transform="matrix(1 0 0 1 99.3335 33.9998)" style="font-family:'MyriadPro-Regular'; font-size:12px;">United States</text>
<text transform="matrix(1 0 0 1 99.333 55.9998)" style="font-family:'MyriadPro-Regular'; font-size:12px;">Spain</text>
<text transform="matrix(1 0 0 1 99.333 76.6665)" style="font-family:'MyriadPro-Regular'; font-size:12px;">France</text>
<text transform="matrix(1 0 0 1 99.333 97.6665)" style="font-family:'MyriadPro-Regular'; font-size:12px;">Germany</text>
</svg>
