<svg width="533" height="253" viewBox="0 0 533 253" fill="none" xmlns="http://www.w3.org/2000/svg">
<g id="CO2inTons">
<path id="Rectangle 6 (Stroke)" fill-rule="evenodd" clip-rule="evenodd" d="M266.222 250.055L266.246 250.055L266.198 252.055H64L63.9326 250.056L63.9663 250.055H266.222ZM6.35878 248.507C6.38165 248.517 6.53193 248.607 6.91766 248.734C7.40948 248.895 8.09864 249.058 8.99215 249.214C10.7736 249.524 13.1678 249.77 16 249.959C21.6529 250.336 28.8561 250.475 35.9739 250.489C43.0836 250.504 50.0743 250.396 55.29 250.284C57.8971 250.228 60.0592 250.171 61.5689 250.128C62.3238 250.106 62.9154 250.088 63.318 250.076C63.5193 250.069 63.6734 250.064 63.7769 250.061L63.9304 250.056L63.9326 250.056C63.9329 250.056 63.9326 250.056 64 252.055C64 252.055 8.92548 253.912 4.98103 249.959C2.2146 247.187 3.32863 238.977 4.24079 232.256C4.62922 229.393 4.98103 226.801 4.98103 225.013V126.567C4.98103 126.567 13.6021 73.0912 4.98103 63.8239C0.725589 59.2495 3.40192 52.6392 5.85576 46.5785C8.3731 40.3609 10.6563 34.7216 4.98103 32.4521C-6.22629 27.9705 4.98103 1.08036 4.98103 1.08036H135.589C165.5 2.90336 200.894 1.08036 200.894 1.08036H331.502L331.611 3.07739L331.557 3.08036H200.944L200.891 3.08304L200.586 3.09805C200.317 3.11106 199.92 3.12985 199.405 3.1531C198.374 3.19959 196.869 3.26389 194.971 3.33531C191.175 3.47812 185.803 3.64944 179.494 3.76366C166.902 3.99163 150.543 3.99278 135.529 3.08036H6.34311C6.07057 3.79696 5.7045 4.79451 5.29974 5.99226C4.44093 8.53364 3.41966 11.942 2.74228 15.4634C2.05852 19.018 1.7581 22.5258 2.22572 25.3307C2.68835 28.1057 3.8192 29.8336 5.72363 30.5951C7.43846 31.2809 8.74856 32.3001 9.56836 33.6916C10.3783 35.0663 10.583 36.5901 10.4931 38.0634C10.3214 40.8755 9.01309 44.1082 7.81832 47.0604L7.7587 47.2077C6.50973 50.2936 5.31953 53.2343 4.89622 55.9507C4.47987 58.6223 4.85509 60.7522 6.44538 62.4617C7.86616 63.989 8.7779 66.2298 9.3961 68.694C10.026 71.2049 10.4077 74.186 10.6139 77.4095C11.0267 83.8605 10.7499 91.519 10.2084 98.8189C9.66599 106.132 8.85301 113.145 8.17653 118.326C7.83811 120.918 7.53343 123.054 7.31312 124.544C7.20295 125.289 7.11386 125.873 7.05216 126.271C7.02137 126.47 6.9974 126.622 6.98103 126.726V225.013C6.98103 226.666 6.71333 228.862 6.40879 231.145C6.34752 231.604 6.28432 232.07 6.22047 232.541C5.95902 234.468 5.68679 236.474 5.49219 238.445C5.24941 240.904 5.14105 243.189 5.30893 245.056C5.47994 246.958 5.9063 248.02 6.35878 248.507ZM466.206 1.08036C466.206 1.08036 423.1 3.20726 396.806 1.08036C370.512 -1.04654 331.502 1.08036 331.502 1.08036C331.611 3.07739 331.611 3.07741 331.611 3.07739L331.721 3.07151L332.05 3.05434C332.34 3.03939 332.769 3.01769 333.326 2.99079C334.44 2.93701 336.061 2.86246 338.09 2.7796C342.148 2.61386 347.832 2.41495 354.335 2.28236C367.358 2.01682 383.602 2.01882 396.645 3.07385C409.898 4.14583 427.331 4.14363 441.404 3.87759C448.451 3.74438 454.673 3.54457 459.134 3.37806C461.365 3.2948 463.156 3.21985 464.39 3.16567C465.007 3.13858 465.485 3.11669 465.808 3.10155L466.177 3.08409L466.304 3.07796C466.304 3.07794 466.304 3.07793 466.206 1.08036ZM466.206 1.08036C466.206 1.08036 484.31 -0.438809 496.81 1.08036C502.978 1.8299 507.914 1.39603 512.614 0.983004C517.439 0.558913 522.014 0.156804 527.415 1.08036C534.158 2.23349 532.371 6.91381 530.146 12.7374C528.854 16.1205 527.415 19.8894 527.415 23.5768V149.356L525.416 149.416L525.415 149.386V23.5768C525.415 20.7374 526.165 17.9432 527.021 15.4378C527.425 14.2574 527.865 13.105 528.276 12.0296L528.357 11.8163C528.797 10.6642 529.195 9.61328 529.509 8.63657C530.175 6.56422 530.281 5.33889 530.027 4.62125C529.874 4.18965 529.404 3.44963 527.078 3.05175C522.031 2.1887 517.74 2.54038 512.977 2.95875L512.749 2.97886C508.058 3.39123 502.946 3.84071 496.569 3.06575C490.474 2.32499 482.945 2.32062 476.883 2.5097C473.864 2.60386 471.231 2.74513 469.355 2.86281C468.417 2.92162 467.669 2.9745 467.156 3.01256C466.9 3.03159 466.703 3.04691 466.57 3.05741L466.421 3.06941L466.339 3.07623L466.304 3.07796L466.206 1.08036ZM527.415 149.356C525.416 149.416 525.416 149.416 525.416 149.416L525.416 149.418L525.416 149.423L525.417 149.444L525.441 150.305C525.448 150.537 525.456 150.812 525.464 151.128C525.494 152.227 525.536 153.811 525.583 155.749C525.675 159.626 525.787 164.919 525.861 170.583C526.01 181.967 526.005 194.678 525.425 200.507C525.094 203.824 525.835 208.679 526.795 213.827C527.148 215.718 527.533 217.663 527.924 219.634C528.628 223.186 529.349 226.822 529.923 230.37C530.816 235.894 531.291 240.876 530.809 244.545C530.569 246.372 530.112 247.698 529.497 248.58C528.929 249.397 528.186 249.903 527.093 250.081C524.012 250.583 517.066 250.725 507.478 250.659C499.029 250.601 488.696 250.384 477.487 250.149C476.08 250.12 474.659 250.09 473.227 250.06C447.572 249.527 418.129 248.989 396.707 250.057C375.437 251.117 342.839 251.118 315.519 250.852C301.867 250.72 289.548 250.52 280.642 250.354C276.189 250.271 272.589 250.196 270.103 250.142C268.86 250.115 267.896 250.094 267.242 250.079L266.25 250.055L266.246 250.055C266.246 250.055 266.246 250.055 266.198 252.055C266.198 252.055 354.132 254.182 396.806 252.055C419.333 250.932 450.809 251.591 477.443 252.149C501.264 252.648 521.211 253.066 527.415 252.055C536.107 250.638 532.78 233.848 529.875 219.189C528.388 211.687 527.012 204.744 527.415 200.705C528.604 188.775 527.415 149.356 527.415 149.356Z" fill="black"/>
<rect id="fogPlaceHolder" x="50" y="55" width="324" height="173" fill="white"/>
<path id="Which produced around tons of CO2." d="M54.262 36.084C53.9353 36.084 53.7207 35.9253 53.618 35.608L51.182 27.614C51.1353 27.446 51.112 27.2967 51.112 27.166C51.112 26.9887 51.1773 26.844 51.308 26.732C51.4387 26.6107 51.5973 26.55 51.784 26.55C52.1293 26.55 52.3533 26.7133 52.456 27.04L54.29 33.074L56.25 27.026C56.3527 26.7087 56.5767 26.55 56.922 26.55C57.258 26.55 57.4727 26.7133 57.566 27.04L59.232 33.088L61.472 26.886C61.5933 26.5593 61.8173 26.396 62.144 26.396C62.3307 26.396 62.4893 26.4567 62.62 26.578C62.7507 26.69 62.816 26.8347 62.816 27.012C62.816 27.1707 62.7927 27.32 62.746 27.46L59.792 35.636C59.7453 35.776 59.666 35.888 59.554 35.972C59.442 36.0467 59.3113 36.084 59.162 36.084C58.798 36.084 58.574 35.916 58.49 35.58L56.852 29.672L54.934 35.608C54.878 35.7853 54.794 35.9113 54.682 35.986C54.5793 36.0513 54.4393 36.084 54.262 36.084ZM64.5055 36.098C64.3282 36.098 64.1695 36.0327 64.0295 35.902C63.8988 35.762 63.8335 35.6033 63.8335 35.426V27.362C63.8335 27.1753 63.8988 27.0167 64.0295 26.886C64.1695 26.746 64.3375 26.676 64.5335 26.676C64.7202 26.676 64.8742 26.746 64.9955 26.886C65.1168 27.0167 65.1775 27.1753 65.1775 27.362V30.372C65.4855 29.98 65.8355 29.6673 66.2275 29.434C66.6195 29.1913 67.0115 29.07 67.4035 29.07C68.1408 29.07 68.6588 29.4433 68.9575 30.19C69.2562 30.9273 69.4055 32.0987 69.4055 33.704C69.4055 34.6093 69.3915 35.1927 69.3635 35.454C69.3542 35.6313 69.2842 35.7807 69.1535 35.902C69.0322 36.0233 68.8828 36.084 68.7055 36.084C68.5095 36.084 68.3508 36.0233 68.2295 35.902C68.1082 35.7713 68.0475 35.6127 68.0475 35.426C68.0475 35.2393 68.0522 35.0853 68.0615 34.964L68.0755 33.802C68.0755 32.4487 68.0008 31.5433 67.8515 31.086C67.7115 30.6287 67.5342 30.4 67.3195 30.4C67.0488 30.4 66.7735 30.526 66.4935 30.778C66.2135 31.0207 65.9708 31.296 65.7655 31.604C65.5695 31.9027 65.4295 32.1407 65.3455 32.318C65.2335 32.57 65.1775 32.9013 65.1775 33.312V35.398C65.1775 35.6127 65.1122 35.7853 64.9815 35.916C64.8508 36.0373 64.6922 36.098 64.5055 36.098ZM71.986 28.51C71.8087 28.51 71.65 28.44 71.51 28.3C71.3793 28.16 71.3187 28.0013 71.328 27.824L71.342 27.306C71.3513 27.1287 71.4213 26.9747 71.552 26.844C71.6827 26.7133 71.8367 26.648 72.014 26.648C72.1913 26.648 72.3453 26.718 72.476 26.858C72.616 26.998 72.6813 27.152 72.672 27.32L72.658 27.852C72.6487 28.0387 72.5787 28.1973 72.448 28.328C72.3267 28.4493 72.1727 28.51 71.986 28.51ZM71.916 36.084C71.7293 36.084 71.566 36.0187 71.426 35.888C71.2953 35.748 71.23 35.5847 71.23 35.398L71.3 29.826C71.3 29.6393 71.3653 29.4807 71.496 29.35C71.636 29.21 71.7993 29.14 71.986 29.14C72.182 29.14 72.3453 29.21 72.476 29.35C72.6067 29.4807 72.672 29.6393 72.672 29.826L72.602 35.398C72.602 35.5847 72.532 35.748 72.392 35.888C72.2613 36.0187 72.1027 36.084 71.916 36.084ZM77.2383 36.084C76.6783 36.084 76.165 35.9487 75.6983 35.678C75.2316 35.4073 74.863 35.0387 74.5923 34.572C74.3216 34.096 74.1863 33.578 74.1863 33.018C74.1863 32.3833 74.3356 31.7627 74.6343 31.156C74.933 30.5493 75.325 30.0547 75.8103 29.672C76.2956 29.2893 76.809 29.098 77.3503 29.098C77.845 29.098 78.2416 29.1773 78.5403 29.336C78.8483 29.4853 79.147 29.728 79.4363 30.064C79.5763 30.2133 79.6463 30.3767 79.6463 30.554C79.6463 30.7313 79.581 30.8853 79.4503 31.016C79.3196 31.1373 79.161 31.198 78.9743 31.198C78.853 31.198 78.755 31.1793 78.6803 31.142C78.615 31.1047 78.5356 31.03 78.4423 30.918C78.2836 30.7407 78.125 30.6053 77.9663 30.512C77.817 30.4187 77.6163 30.372 77.3643 30.372C77.075 30.372 76.781 30.498 76.4823 30.75C76.193 31.002 75.955 31.3333 75.7683 31.744C75.591 32.1453 75.5023 32.5607 75.5023 32.99C75.5023 33.3633 75.5816 33.69 75.7403 33.97C75.9083 34.2407 76.123 34.4507 76.3843 34.6C76.6456 34.74 76.921 34.81 77.2103 34.81C77.5836 34.81 77.887 34.74 78.1203 34.6C78.363 34.46 78.5776 34.2687 78.7643 34.026C78.9416 33.7927 79.1423 33.676 79.3663 33.676C79.5436 33.676 79.6976 33.7413 79.8283 33.872C79.959 33.9933 80.0243 34.1333 80.0243 34.292C80.0243 34.4787 79.973 34.6373 79.8703 34.768C79.5996 35.132 79.231 35.4447 78.7643 35.706C78.2976 35.958 77.789 36.084 77.2383 36.084ZM81.8825 36.098C81.7051 36.098 81.5465 36.0327 81.4065 35.902C81.2758 35.762 81.2105 35.6033 81.2105 35.426V27.362C81.2105 27.1753 81.2758 27.0167 81.4065 26.886C81.5465 26.746 81.7145 26.676 81.9105 26.676C82.0971 26.676 82.2511 26.746 82.3725 26.886C82.4938 27.0167 82.5545 27.1753 82.5545 27.362V30.372C82.8625 29.98 83.2125 29.6673 83.6045 29.434C83.9965 29.1913 84.3885 29.07 84.7805 29.07C85.5178 29.07 86.0358 29.4433 86.3345 30.19C86.6331 30.9273 86.7825 32.0987 86.7825 33.704C86.7825 34.6093 86.7685 35.1927 86.7405 35.454C86.7311 35.6313 86.6611 35.7807 86.5305 35.902C86.4091 36.0233 86.2598 36.084 86.0825 36.084C85.8865 36.084 85.7278 36.0233 85.6065 35.902C85.4851 35.7713 85.4245 35.6127 85.4245 35.426C85.4245 35.2393 85.4291 35.0853 85.4385 34.964L85.4525 33.802C85.4525 32.4487 85.3778 31.5433 85.2285 31.086C85.0885 30.6287 84.9111 30.4 84.6965 30.4C84.4258 30.4 84.1505 30.526 83.8705 30.778C83.5905 31.0207 83.3478 31.296 83.1425 31.604C82.9465 31.9027 82.8065 32.1407 82.7225 32.318C82.6105 32.57 82.5545 32.9013 82.5545 33.312V35.398C82.5545 35.6127 82.4891 35.7853 82.3585 35.916C82.2278 36.0373 82.0691 36.098 81.8825 36.098ZM94.2692 38.562C94.0919 38.562 93.9332 38.492 93.7932 38.352C93.6625 38.2213 93.5972 38.0673 93.5972 37.89V29.77C93.5972 29.574 93.6625 29.4107 93.7932 29.28C93.9239 29.1493 94.0872 29.084 94.2832 29.084C94.4419 29.084 94.5865 29.1447 94.7172 29.266C94.8572 29.3873 94.9272 29.546 94.9272 29.742V29.896C95.4032 29.3547 96.1032 29.084 97.0272 29.084C97.4099 29.084 97.7785 29.2053 98.1332 29.448C98.4972 29.6907 98.7959 30.0547 99.0292 30.54C99.2625 31.016 99.3792 31.59 99.3792 32.262C99.3792 32.8687 99.2859 33.452 99.0992 34.012C98.9125 34.572 98.5859 35.0433 98.1192 35.426C97.6619 35.7993 97.0459 35.986 96.2712 35.986C95.8232 35.986 95.3799 35.86 94.9412 35.608V37.89C94.9412 38.0673 94.8712 38.2213 94.7312 38.352C94.6005 38.492 94.4465 38.562 94.2692 38.562ZM96.3552 34.698C96.8965 34.698 97.3212 34.4973 97.6292 34.096C97.9465 33.6853 98.1052 33.074 98.1052 32.262C98.1052 31.6647 97.9885 31.198 97.7552 30.862C97.5312 30.5167 97.2512 30.344 96.9152 30.344C96.4392 30.344 96.0332 30.4373 95.6972 30.624C95.3705 30.8107 95.1185 31.0207 94.9412 31.254V34.362C95.5105 34.586 95.9819 34.698 96.3552 34.698ZM101.584 36.084C101.407 36.084 101.248 36.0187 101.108 35.888C100.968 35.7573 100.898 35.608 100.898 35.44V29.77C100.898 29.5833 100.963 29.4247 101.094 29.294C101.234 29.1633 101.397 29.098 101.584 29.098C101.771 29.098 101.929 29.1633 102.06 29.294C102.2 29.4247 102.27 29.5833 102.27 29.77V30.19C102.727 29.4433 103.353 29.07 104.146 29.07C104.622 29.07 104.963 29.2007 105.168 29.462C105.383 29.7233 105.49 30.036 105.49 30.4V30.82C105.49 31.0067 105.425 31.1653 105.294 31.296C105.173 31.4173 105.019 31.478 104.832 31.478C104.608 31.478 104.44 31.4127 104.328 31.282C104.225 31.1513 104.174 30.9927 104.174 30.806V30.624C104.174 30.4747 104.071 30.4 103.866 30.4C103.698 30.4 103.502 30.484 103.278 30.652C103.063 30.82 102.886 30.9973 102.746 31.184C102.55 31.4267 102.419 31.6693 102.354 31.912C102.298 32.1547 102.27 32.444 102.27 32.78L102.256 35.44C102.256 35.608 102.186 35.7573 102.046 35.888C101.906 36.0187 101.752 36.084 101.584 36.084ZM108.789 36.084C108.257 36.084 107.767 35.9393 107.319 35.65C106.88 35.3607 106.535 34.9687 106.283 34.474C106.031 33.97 105.905 33.424 105.905 32.836C105.905 32.1733 106.054 31.5573 106.353 30.988C106.652 30.4093 107.053 29.952 107.557 29.616C108.061 29.2707 108.602 29.098 109.181 29.098C109.713 29.098 110.198 29.2473 110.637 29.546C111.085 29.8447 111.435 30.2413 111.687 30.736C111.948 31.2307 112.079 31.7627 112.079 32.332C112.079 33.004 111.93 33.6293 111.631 34.208C111.332 34.7773 110.926 35.2347 110.413 35.58C109.909 35.916 109.368 36.084 108.789 36.084ZM108.789 34.824C109.116 34.824 109.428 34.712 109.727 34.488C110.026 34.264 110.264 33.9653 110.441 33.592C110.618 33.2187 110.707 32.822 110.707 32.402C110.707 32.0473 110.637 31.716 110.497 31.408C110.357 31.0907 110.166 30.8387 109.923 30.652C109.68 30.456 109.414 30.358 109.125 30.358C108.798 30.358 108.49 30.4747 108.201 30.708C107.921 30.932 107.697 31.2353 107.529 31.618C107.361 31.9913 107.277 32.3927 107.277 32.822C107.277 33.242 107.347 33.6013 107.487 33.9C107.636 34.1987 107.823 34.4273 108.047 34.586C108.28 34.7447 108.528 34.824 108.789 34.824ZM115.643 36.07C115.167 36.07 114.738 35.9487 114.355 35.706C113.982 35.454 113.683 35.09 113.459 34.614C113.245 34.138 113.137 33.5687 113.137 32.906C113.137 32.1033 113.263 31.4173 113.515 30.848C113.767 30.2787 114.117 29.8493 114.565 29.56C115.013 29.2613 115.531 29.112 116.119 29.112C116.586 29.112 117.085 29.2193 117.617 29.434L117.687 27.264C117.697 27.0773 117.767 26.9187 117.897 26.788C118.037 26.648 118.201 26.578 118.387 26.578C118.565 26.578 118.719 26.648 118.849 26.788C118.989 26.9187 119.055 27.0867 119.045 27.292L118.849 35.44C118.84 35.6267 118.77 35.7807 118.639 35.902C118.509 36.0233 118.35 36.084 118.163 36.084C117.986 36.084 117.832 36.0327 117.701 35.93C117.58 35.8273 117.519 35.692 117.519 35.524V35.272C117.277 35.496 116.992 35.6873 116.665 35.846C116.339 35.9953 115.998 36.07 115.643 36.07ZM115.755 34.81C116.073 34.81 116.367 34.7447 116.637 34.614C116.917 34.474 117.137 34.306 117.295 34.11C117.454 33.914 117.538 33.732 117.547 33.564L117.603 30.806C117.435 30.694 117.221 30.596 116.959 30.512C116.698 30.4187 116.446 30.372 116.203 30.372C115.634 30.372 115.205 30.5867 114.915 31.016C114.626 31.436 114.481 32.052 114.481 32.864C114.481 33.536 114.593 34.0307 114.817 34.348C115.051 34.656 115.363 34.81 115.755 34.81ZM122.818 36.126C122.314 36.126 121.913 36.0187 121.614 35.804C121.315 35.58 121.091 35.1787 120.942 34.6C120.793 34.0213 120.718 33.1907 120.718 32.108C120.718 31.744 120.732 31.3427 120.76 30.904C120.788 30.4653 120.825 30.0967 120.872 29.798C120.909 29.5647 120.979 29.3873 121.082 29.266C121.185 29.1447 121.334 29.084 121.53 29.084C121.717 29.084 121.875 29.14 122.006 29.252C122.137 29.364 122.202 29.5273 122.202 29.742L122.174 30.134C122.081 30.9273 122.034 31.688 122.034 32.416C122.034 33.368 122.113 34.0167 122.272 34.362C122.44 34.698 122.669 34.866 122.958 34.866C123.294 34.866 123.639 34.7773 123.994 34.6C124.349 34.4133 124.601 34.236 124.75 34.068C124.806 34.012 124.834 33.8953 124.834 33.718L124.862 29.728C124.862 29.5413 124.927 29.3873 125.058 29.266C125.198 29.1447 125.352 29.084 125.52 29.084C125.697 29.084 125.851 29.1447 125.982 29.266C126.122 29.3873 126.192 29.5413 126.192 29.728V35.412C126.192 35.5893 126.122 35.748 125.982 35.888C125.851 36.0187 125.697 36.084 125.52 36.084C125.333 36.084 125.165 36.028 125.016 35.916C124.876 35.7947 124.806 35.6453 124.806 35.468V35.314C124.451 35.566 124.12 35.7667 123.812 35.916C123.513 36.056 123.182 36.126 122.818 36.126ZM130.75 36.084C130.19 36.084 129.677 35.9487 129.21 35.678C128.743 35.4073 128.375 35.0387 128.104 34.572C127.833 34.096 127.698 33.578 127.698 33.018C127.698 32.3833 127.847 31.7627 128.146 31.156C128.445 30.5493 128.837 30.0547 129.322 29.672C129.807 29.2893 130.321 29.098 130.862 29.098C131.357 29.098 131.753 29.1773 132.052 29.336C132.36 29.4853 132.659 29.728 132.948 30.064C133.088 30.2133 133.158 30.3767 133.158 30.554C133.158 30.7313 133.093 30.8853 132.962 31.016C132.831 31.1373 132.673 31.198 132.486 31.198C132.365 31.198 132.267 31.1793 132.192 31.142C132.127 31.1047 132.047 31.03 131.954 30.918C131.795 30.7407 131.637 30.6053 131.478 30.512C131.329 30.4187 131.128 30.372 130.876 30.372C130.587 30.372 130.293 30.498 129.994 30.75C129.705 31.002 129.467 31.3333 129.28 31.744C129.103 32.1453 129.014 32.5607 129.014 32.99C129.014 33.3633 129.093 33.69 129.252 33.97C129.42 34.2407 129.635 34.4507 129.896 34.6C130.157 34.74 130.433 34.81 130.722 34.81C131.095 34.81 131.399 34.74 131.632 34.6C131.875 34.46 132.089 34.2687 132.276 34.026C132.453 33.7927 132.654 33.676 132.878 33.676C133.055 33.676 133.209 33.7413 133.34 33.872C133.471 33.9933 133.536 34.1333 133.536 34.292C133.536 34.4787 133.485 34.6373 133.382 34.768C133.111 35.132 132.743 35.4447 132.276 35.706C131.809 35.958 131.301 36.084 130.75 36.084ZM137.746 36.084C137.084 36.084 136.486 35.944 135.954 35.664C135.432 35.3747 135.021 34.9687 134.722 34.446C134.424 33.914 134.274 33.2887 134.274 32.57C134.274 31.982 134.405 31.422 134.666 30.89C134.937 30.3487 135.31 29.9147 135.786 29.588C136.272 29.2613 136.822 29.098 137.438 29.098C138.008 29.098 138.493 29.2147 138.894 29.448C139.305 29.672 139.613 29.9427 139.818 30.26C140.024 30.5773 140.126 30.862 140.126 31.114C140.126 31.2353 140.089 31.352 140.014 31.464C139.94 31.576 139.832 31.674 139.692 31.758L135.94 33.914C136.071 34.2033 136.3 34.4273 136.626 34.586C136.962 34.7447 137.336 34.824 137.746 34.824C138.288 34.824 138.75 34.6233 139.132 34.222C139.282 34.0727 139.436 33.998 139.594 33.998C139.781 33.998 139.935 34.0587 140.056 34.18C140.187 34.3013 140.252 34.4507 140.252 34.628C140.252 34.7773 140.196 34.9173 140.084 35.048C139.823 35.3373 139.473 35.5847 139.034 35.79C138.605 35.986 138.176 36.084 137.746 36.084ZM138.74 30.946C138.628 30.75 138.47 30.6053 138.264 30.512C138.059 30.4093 137.816 30.358 137.536 30.358C137.004 30.358 136.556 30.54 136.192 30.904C135.838 31.268 135.632 31.716 135.576 32.248C135.558 32.388 135.548 32.556 135.548 32.752L138.74 30.946ZM143.657 36.07C143.181 36.07 142.752 35.9487 142.369 35.706C141.996 35.454 141.697 35.09 141.473 34.614C141.258 34.138 141.151 33.5687 141.151 32.906C141.151 32.1033 141.277 31.4173 141.529 30.848C141.781 30.2787 142.131 29.8493 142.579 29.56C143.027 29.2613 143.545 29.112 144.133 29.112C144.6 29.112 145.099 29.2193 145.631 29.434L145.701 27.264C145.71 27.0773 145.78 26.9187 145.911 26.788C146.051 26.648 146.214 26.578 146.401 26.578C146.578 26.578 146.732 26.648 146.863 26.788C147.003 26.9187 147.068 27.0867 147.059 27.292L146.863 35.44C146.854 35.6267 146.784 35.7807 146.653 35.902C146.522 36.0233 146.364 36.084 146.177 36.084C146 36.084 145.846 36.0327 145.715 35.93C145.594 35.8273 145.533 35.692 145.533 35.524V35.272C145.29 35.496 145.006 35.6873 144.679 35.846C144.352 35.9953 144.012 36.07 143.657 36.07ZM143.769 34.81C144.086 34.81 144.38 34.7447 144.651 34.614C144.931 34.474 145.15 34.306 145.309 34.11C145.468 33.914 145.552 33.732 145.561 33.564L145.617 30.806C145.449 30.694 145.234 30.596 144.973 30.512C144.712 30.4187 144.46 30.372 144.217 30.372C143.648 30.372 143.218 30.5867 142.929 31.016C142.64 31.436 142.495 32.052 142.495 32.864C142.495 33.536 142.607 34.0307 142.831 34.348C143.064 34.656 143.377 34.81 143.769 34.81ZM158.384 36.224C158.197 36.224 158.043 36.1727 157.922 36.07C157.81 35.9673 157.754 35.832 157.754 35.664V35.468C157.371 35.8787 156.839 36.084 156.158 36.084C155.644 36.084 155.182 35.958 154.772 35.706C154.361 35.454 154.039 35.0993 153.806 34.642C153.572 34.1753 153.456 33.648 153.456 33.06C153.456 32.4067 153.596 31.7767 153.876 31.17C154.156 30.554 154.548 30.0547 155.052 29.672C155.565 29.2893 156.153 29.098 156.816 29.098C157.245 29.098 157.632 29.1587 157.978 29.28C158.323 29.392 158.682 29.532 159.056 29.7V35.524C159.056 35.7107 158.99 35.874 158.86 36.014C158.729 36.154 158.57 36.224 158.384 36.224ZM156.256 34.782C156.526 34.782 156.788 34.726 157.04 34.614C157.301 34.502 157.516 34.3667 157.684 34.208L157.726 30.554C157.455 30.442 157.161 30.386 156.844 30.386C156.442 30.386 156.088 30.512 155.78 30.764C155.472 31.0067 155.234 31.3333 155.066 31.744C154.898 32.1453 154.814 32.5747 154.814 33.032C154.814 33.6013 154.94 34.0353 155.192 34.334C155.444 34.6327 155.798 34.782 156.256 34.782ZM161.699 36.084C161.522 36.084 161.363 36.0187 161.223 35.888C161.083 35.7573 161.013 35.608 161.013 35.44V29.77C161.013 29.5833 161.079 29.4247 161.209 29.294C161.349 29.1633 161.513 29.098 161.699 29.098C161.886 29.098 162.045 29.1633 162.175 29.294C162.315 29.4247 162.385 29.5833 162.385 29.77V30.19C162.843 29.4433 163.468 29.07 164.261 29.07C164.737 29.07 165.078 29.2007 165.283 29.462C165.498 29.7233 165.605 30.036 165.605 30.4V30.82C165.605 31.0067 165.54 31.1653 165.409 31.296C165.288 31.4173 165.134 31.478 164.947 31.478C164.723 31.478 164.555 31.4127 164.443 31.282C164.341 31.1513 164.289 30.9927 164.289 30.806V30.624C164.289 30.4747 164.187 30.4 163.981 30.4C163.813 30.4 163.617 30.484 163.393 30.652C163.179 30.82 163.001 30.9973 162.861 31.184C162.665 31.4267 162.535 31.6693 162.469 31.912C162.413 32.1547 162.385 32.444 162.385 32.78L162.371 35.44C162.371 35.608 162.301 35.7573 162.161 35.888C162.021 36.0187 161.867 36.084 161.699 36.084ZM168.904 36.084C168.372 36.084 167.882 35.9393 167.434 35.65C166.996 35.3607 166.65 34.9687 166.398 34.474C166.146 33.97 166.02 33.424 166.02 32.836C166.02 32.1733 166.17 31.5573 166.468 30.988C166.767 30.4093 167.168 29.952 167.672 29.616C168.176 29.2707 168.718 29.098 169.296 29.098C169.828 29.098 170.314 29.2473 170.752 29.546C171.2 29.8447 171.55 30.2413 171.802 30.736C172.064 31.2307 172.194 31.7627 172.194 32.332C172.194 33.004 172.045 33.6293 171.746 34.208C171.448 34.7773 171.042 35.2347 170.528 35.58C170.024 35.916 169.483 36.084 168.904 36.084ZM168.904 34.824C169.231 34.824 169.544 34.712 169.842 34.488C170.141 34.264 170.379 33.9653 170.556 33.592C170.734 33.2187 170.822 32.822 170.822 32.402C170.822 32.0473 170.752 31.716 170.612 31.408C170.472 31.0907 170.281 30.8387 170.038 30.652C169.796 30.456 169.53 30.358 169.24 30.358C168.914 30.358 168.606 30.4747 168.316 30.708C168.036 30.932 167.812 31.2353 167.644 31.618C167.476 31.9913 167.392 32.3927 167.392 32.822C167.392 33.242 167.462 33.6013 167.602 33.9C167.752 34.1987 167.938 34.4273 168.162 34.586C168.396 34.7447 168.643 34.824 168.904 34.824ZM175.619 36.126C175.115 36.126 174.713 36.0187 174.415 35.804C174.116 35.58 173.892 35.1787 173.743 34.6C173.593 34.0213 173.519 33.1907 173.519 32.108C173.519 31.744 173.533 31.3427 173.561 30.904C173.589 30.4653 173.626 30.0967 173.673 29.798C173.71 29.5647 173.78 29.3873 173.883 29.266C173.985 29.1447 174.135 29.084 174.331 29.084C174.517 29.084 174.676 29.14 174.807 29.252C174.937 29.364 175.003 29.5273 175.003 29.742L174.975 30.134C174.881 30.9273 174.835 31.688 174.835 32.416C174.835 33.368 174.914 34.0167 175.073 34.362C175.241 34.698 175.469 34.866 175.759 34.866C176.095 34.866 176.44 34.7773 176.795 34.6C177.149 34.4133 177.401 34.236 177.551 34.068C177.607 34.012 177.635 33.8953 177.635 33.718L177.663 29.728C177.663 29.5413 177.728 29.3873 177.859 29.266C177.999 29.1447 178.153 29.084 178.321 29.084C178.498 29.084 178.652 29.1447 178.783 29.266C178.923 29.3873 178.993 29.5413 178.993 29.728V35.412C178.993 35.5893 178.923 35.748 178.783 35.888C178.652 36.0187 178.498 36.084 178.321 36.084C178.134 36.084 177.966 36.028 177.817 35.916C177.677 35.7947 177.607 35.6453 177.607 35.468V35.314C177.252 35.566 176.921 35.7667 176.613 35.916C176.314 36.056 175.983 36.126 175.619 36.126ZM181.619 36.084C181.441 36.084 181.283 36.0187 181.143 35.888C181.012 35.7573 180.947 35.608 180.947 35.44V29.756C180.947 29.5693 181.017 29.4107 181.157 29.28C181.297 29.1493 181.46 29.084 181.647 29.084C181.824 29.084 181.973 29.1493 182.095 29.28C182.225 29.4107 182.291 29.5693 182.291 29.756V30.82C182.552 30.26 182.883 29.8353 183.285 29.546C183.686 29.2473 184.125 29.098 184.601 29.098C185.123 29.098 185.539 29.2193 185.847 29.462C186.155 29.7047 186.379 30.106 186.519 30.666C186.659 31.2167 186.729 31.982 186.729 32.962L186.715 35.412C186.715 35.5893 186.654 35.748 186.533 35.888C186.411 36.0187 186.257 36.084 186.071 36.084C185.893 36.084 185.735 36.0187 185.595 35.888C185.464 35.748 185.399 35.594 185.399 35.426V33.102C185.399 32.374 185.366 31.814 185.301 31.422C185.235 31.03 185.137 30.764 185.007 30.624C184.876 30.4747 184.699 30.4 184.475 30.4C184.195 30.4 183.915 30.5213 183.635 30.764C183.355 30.9973 183.093 31.3333 182.851 31.772C182.636 32.1547 182.487 32.528 182.403 32.892C182.319 33.256 182.277 33.6947 182.277 34.208V35.384C182.277 35.5893 182.216 35.7573 182.095 35.888C181.983 36.0187 181.824 36.084 181.619 36.084ZM190.606 36.07C190.13 36.07 189.701 35.9487 189.318 35.706C188.945 35.454 188.646 35.09 188.422 34.614C188.208 34.138 188.1 33.5687 188.1 32.906C188.1 32.1033 188.226 31.4173 188.478 30.848C188.73 30.2787 189.08 29.8493 189.528 29.56C189.976 29.2613 190.494 29.112 191.082 29.112C191.549 29.112 192.048 29.2193 192.58 29.434L192.65 27.264C192.66 27.0773 192.73 26.9187 192.86 26.788C193 26.648 193.164 26.578 193.35 26.578C193.528 26.578 193.682 26.648 193.812 26.788C193.952 26.9187 194.018 27.0867 194.008 27.292L193.812 35.44C193.803 35.6267 193.733 35.7807 193.602 35.902C193.472 36.0233 193.313 36.084 193.126 36.084C192.949 36.084 192.795 36.0327 192.664 35.93C192.543 35.8273 192.482 35.692 192.482 35.524V35.272C192.24 35.496 191.955 35.6873 191.628 35.846C191.302 35.9953 190.961 36.07 190.606 36.07ZM190.718 34.81C191.036 34.81 191.33 34.7447 191.6 34.614C191.88 34.474 192.1 34.306 192.258 34.11C192.417 33.914 192.501 33.732 192.51 33.564L192.566 30.806C192.398 30.694 192.184 30.596 191.922 30.512C191.661 30.4187 191.409 30.372 191.166 30.372C190.597 30.372 190.168 30.5867 189.878 31.016C189.589 31.436 189.444 32.052 189.444 32.864C189.444 33.536 189.556 34.0307 189.78 34.348C190.014 34.656 190.326 34.81 190.718 34.81ZM222.032 36.098C221.855 36.098 221.696 36.0327 221.556 35.902C221.425 35.7713 221.36 35.6173 221.36 35.44V30.442H220.254C220.067 30.442 219.909 30.3767 219.778 30.246C219.647 30.106 219.582 29.9473 219.582 29.77C219.582 29.5647 219.652 29.4013 219.792 29.28C219.932 29.1493 220.095 29.084 220.282 29.084H221.36V27.586C221.36 27.4087 221.425 27.25 221.556 27.11C221.687 26.97 221.845 26.9 222.032 26.9C222.228 26.9 222.387 26.97 222.508 27.11C222.639 27.2407 222.704 27.3993 222.704 27.586V29.084H223.894C224.081 29.084 224.239 29.1493 224.37 29.28C224.501 29.4107 224.566 29.574 224.566 29.77C224.566 29.9473 224.501 30.106 224.37 30.246C224.239 30.3767 224.081 30.442 223.894 30.442H222.704V35.44C222.704 35.6173 222.639 35.7713 222.508 35.902C222.377 36.0327 222.219 36.098 222.032 36.098ZM227.502 36.084C226.97 36.084 226.48 35.9393 226.032 35.65C225.593 35.3607 225.248 34.9687 224.996 34.474C224.744 33.97 224.618 33.424 224.618 32.836C224.618 32.1733 224.767 31.5573 225.066 30.988C225.365 30.4093 225.766 29.952 226.27 29.616C226.774 29.2707 227.315 29.098 227.894 29.098C228.426 29.098 228.911 29.2473 229.35 29.546C229.798 29.8447 230.148 30.2413 230.4 30.736C230.661 31.2307 230.792 31.7627 230.792 32.332C230.792 33.004 230.643 33.6293 230.344 34.208C230.045 34.7773 229.639 35.2347 229.126 35.58C228.622 35.916 228.081 36.084 227.502 36.084ZM227.502 34.824C227.829 34.824 228.141 34.712 228.44 34.488C228.739 34.264 228.977 33.9653 229.154 33.592C229.331 33.2187 229.42 32.822 229.42 32.402C229.42 32.0473 229.35 31.716 229.21 31.408C229.07 31.0907 228.879 30.8387 228.636 30.652C228.393 30.456 228.127 30.358 227.838 30.358C227.511 30.358 227.203 30.4747 226.914 30.708C226.634 30.932 226.41 31.2353 226.242 31.618C226.074 31.9913 225.99 32.3927 225.99 32.822C225.99 33.242 226.06 33.6013 226.2 33.9C226.349 34.1987 226.536 34.4273 226.76 34.586C226.993 34.7447 227.241 34.824 227.502 34.824ZM232.97 36.084C232.793 36.084 232.634 36.0187 232.494 35.888C232.364 35.7573 232.298 35.608 232.298 35.44V29.756C232.298 29.5693 232.368 29.4107 232.508 29.28C232.648 29.1493 232.812 29.084 232.998 29.084C233.176 29.084 233.325 29.1493 233.446 29.28C233.577 29.4107 233.642 29.5693 233.642 29.756V30.82C233.904 30.26 234.235 29.8353 234.636 29.546C235.038 29.2473 235.476 29.098 235.952 29.098C236.475 29.098 236.89 29.2193 237.198 29.462C237.506 29.7047 237.73 30.106 237.87 30.666C238.01 31.2167 238.08 31.982 238.08 32.962L238.066 35.412C238.066 35.5893 238.006 35.748 237.884 35.888C237.763 36.0187 237.609 36.084 237.422 36.084C237.245 36.084 237.086 36.0187 236.946 35.888C236.816 35.748 236.75 35.594 236.75 35.426V33.102C236.75 32.374 236.718 31.814 236.652 31.422C236.587 31.03 236.489 30.764 236.358 30.624C236.228 30.4747 236.05 30.4 235.826 30.4C235.546 30.4 235.266 30.5213 234.986 30.764C234.706 30.9973 234.445 31.3333 234.202 31.772C233.988 32.1547 233.838 32.528 233.754 32.892C233.67 33.256 233.628 33.6947 233.628 34.208V35.384C233.628 35.5893 233.568 35.7573 233.446 35.888C233.334 36.0187 233.176 36.084 232.97 36.084ZM241.916 36.084C241.375 36.084 240.903 35.9673 240.502 35.734C240.11 35.4913 239.807 35.216 239.592 34.908C239.387 34.5907 239.284 34.334 239.284 34.138C239.284 33.9513 239.349 33.7973 239.48 33.676C239.611 33.5453 239.765 33.48 239.942 33.48C240.101 33.48 240.231 33.522 240.334 33.606C240.446 33.69 240.525 33.802 240.572 33.942C240.675 34.2313 240.843 34.46 241.076 34.628C241.309 34.796 241.599 34.88 241.944 34.88C242.308 34.88 242.593 34.7913 242.798 34.614C243.003 34.4367 243.106 34.236 243.106 34.012C243.106 33.7973 243.017 33.6293 242.84 33.508C242.672 33.3773 242.327 33.2327 241.804 33.074C241.039 32.8407 240.488 32.5653 240.152 32.248C239.816 31.9213 239.648 31.4967 239.648 30.974C239.648 30.4233 239.867 29.9753 240.306 29.63C240.745 29.2753 241.356 29.098 242.14 29.098C242.868 29.098 243.433 29.2567 243.834 29.574C244.245 29.8913 244.45 30.316 244.45 30.848C244.45 31.1373 244.389 31.3613 244.268 31.52C244.147 31.6693 243.974 31.744 243.75 31.744C243.554 31.744 243.395 31.6833 243.274 31.562C243.153 31.4407 243.092 31.31 243.092 31.17C243.092 31.1233 243.101 31.0673 243.12 31.002C243.148 30.9273 243.162 30.8713 243.162 30.834C243.162 30.666 243.078 30.5307 242.91 30.428C242.751 30.3253 242.504 30.274 242.168 30.274C241.748 30.274 241.435 30.3347 241.23 30.456C241.034 30.5773 240.936 30.7407 240.936 30.946C240.936 31.1607 241.039 31.338 241.244 31.478C241.449 31.6087 241.818 31.758 242.35 31.926C243.125 32.1687 243.661 32.4347 243.96 32.724C244.268 33.0133 244.422 33.4193 244.422 33.942C244.422 34.2967 244.315 34.642 244.1 34.978C243.895 35.3047 243.601 35.5707 243.218 35.776C242.845 35.9813 242.411 36.084 241.916 36.084ZM253.273 36.084C252.741 36.084 252.251 35.9393 251.803 35.65C251.365 35.3607 251.019 34.9687 250.767 34.474C250.515 33.97 250.389 33.424 250.389 32.836C250.389 32.1733 250.539 31.5573 250.837 30.988C251.136 30.4093 251.537 29.952 252.041 29.616C252.545 29.2707 253.087 29.098 253.665 29.098C254.197 29.098 254.683 29.2473 255.121 29.546C255.569 29.8447 255.919 30.2413 256.171 30.736C256.433 31.2307 256.563 31.7627 256.563 32.332C256.563 33.004 256.414 33.6293 256.115 34.208C255.817 34.7773 255.411 35.2347 254.897 35.58C254.393 35.916 253.852 36.084 253.273 36.084ZM253.273 34.824C253.6 34.824 253.913 34.712 254.211 34.488C254.51 34.264 254.748 33.9653 254.925 33.592C255.103 33.2187 255.191 32.822 255.191 32.402C255.191 32.0473 255.121 31.716 254.981 31.408C254.841 31.0907 254.65 30.8387 254.407 30.652C254.165 30.456 253.899 30.358 253.609 30.358C253.283 30.358 252.975 30.4747 252.685 30.708C252.405 30.932 252.181 31.2353 252.013 31.618C251.845 31.9913 251.761 32.3927 251.761 32.822C251.761 33.242 251.831 33.6013 251.971 33.9C252.121 34.1987 252.307 34.4273 252.531 34.586C252.765 34.7447 253.012 34.824 253.273 34.824ZM258.925 36.084C258.748 36.084 258.589 36.0187 258.449 35.888C258.319 35.7573 258.253 35.608 258.253 35.44V30.372H257.609C257.441 30.372 257.292 30.3067 257.161 30.176C257.031 30.0453 256.965 29.896 256.965 29.728C256.965 29.5507 257.031 29.3967 257.161 29.266C257.292 29.1353 257.437 29.07 257.595 29.07H258.267C258.305 28.1833 258.543 27.5627 258.981 27.208C259.429 26.844 260.143 26.662 261.123 26.662C261.385 26.662 261.585 26.7087 261.725 26.802C261.865 26.8953 261.935 27.0633 261.935 27.306C261.935 27.4927 261.875 27.6513 261.753 27.782C261.641 27.9033 261.483 27.964 261.277 27.964C260.857 27.964 260.535 27.992 260.311 28.048C260.097 28.0947 259.933 28.1973 259.821 28.356C259.709 28.5147 259.639 28.7527 259.611 29.07L261.039 29.084C261.189 29.084 261.329 29.1493 261.459 29.28C261.599 29.4107 261.669 29.56 261.669 29.728C261.669 29.896 261.604 30.0453 261.473 30.176C261.352 30.3067 261.207 30.372 261.039 30.372H259.597V35.44C259.597 35.608 259.527 35.7573 259.387 35.888C259.257 36.0187 259.103 36.084 258.925 36.084ZM271.158 36.084C270.411 36.084 269.725 35.916 269.1 35.58C268.474 35.244 267.98 34.7587 267.616 34.124C267.252 33.48 267.07 32.7287 267.07 31.87C267.07 30.9647 267.28 30.1013 267.7 29.28C268.129 28.4493 268.68 27.7867 269.352 27.292C270.033 26.788 270.728 26.536 271.438 26.536C271.736 26.536 272.03 26.5827 272.32 26.676C272.618 26.7693 272.884 26.886 273.118 27.026C273.23 26.914 273.37 26.858 273.538 26.858C273.724 26.858 273.878 26.9233 274 27.054C274.121 27.1753 274.182 27.3247 274.182 27.502V28.398C274.182 28.5847 274.112 28.748 273.972 28.888C273.841 29.028 273.678 29.098 273.482 29.098C273.295 29.098 273.136 29.042 273.006 28.93C272.884 28.818 272.824 28.6873 272.824 28.538V28.44C272.478 28.076 271.984 27.894 271.34 27.894C270.873 27.894 270.416 28.0853 269.968 28.468C269.52 28.8413 269.156 29.336 268.876 29.952C268.605 30.568 268.47 31.2073 268.47 31.87C268.47 32.458 268.591 32.9713 268.834 33.41C269.076 33.8393 269.398 34.1707 269.8 34.404C270.21 34.628 270.663 34.74 271.158 34.74C272.063 34.74 272.81 34.3527 273.398 33.578C273.482 33.4753 273.566 33.4053 273.65 33.368C273.734 33.3213 273.832 33.298 273.944 33.298C274.14 33.298 274.303 33.3633 274.434 33.494C274.574 33.6153 274.644 33.7833 274.644 33.998C274.644 34.1567 274.602 34.2967 274.518 34.418C274.135 34.9593 273.65 35.3747 273.062 35.664C272.483 35.944 271.848 36.084 271.158 36.084ZM279.104 36.084C278.413 36.084 277.793 35.8927 277.242 35.51C276.691 35.118 276.257 34.586 275.94 33.914C275.632 33.242 275.478 32.4907 275.478 31.66C275.478 30.7173 275.669 29.854 276.052 29.07C276.435 28.286 276.943 27.67 277.578 27.222C278.222 26.7647 278.913 26.536 279.65 26.536C280.341 26.536 280.961 26.7273 281.512 27.11C282.072 27.4927 282.506 28.02 282.814 28.692C283.131 29.364 283.29 30.12 283.29 30.96C283.29 31.912 283.099 32.78 282.716 33.564C282.333 34.3387 281.82 34.9547 281.176 35.412C280.541 35.86 279.851 36.084 279.104 36.084ZM279.104 34.754C279.608 34.754 280.07 34.5953 280.49 34.278C280.919 33.9607 281.26 33.5173 281.512 32.948C281.764 32.3787 281.89 31.7347 281.89 31.016C281.89 30.3627 281.778 29.798 281.554 29.322C281.339 28.846 281.05 28.4867 280.686 28.244C280.331 27.992 279.958 27.866 279.566 27.866C279.081 27.866 278.633 28.0293 278.222 28.356C277.811 28.6827 277.485 29.1353 277.242 29.714C276.999 30.2833 276.878 30.932 276.878 31.66C276.878 32.3133 276.981 32.8733 277.186 33.34C277.391 33.8067 277.662 34.1613 277.998 34.404C278.343 34.6373 278.712 34.754 279.104 34.754ZM284.546 35.342C284.546 34.586 284.662 33.9513 284.896 33.438C285.129 32.9153 285.418 32.4953 285.764 32.178C286.109 31.8513 286.534 31.5293 287.038 31.212C287.486 30.9133 287.817 30.68 288.032 30.512C288.256 30.344 288.438 30.1573 288.578 29.952C288.727 29.7373 288.802 29.4947 288.802 29.224C288.802 28.8973 288.671 28.6313 288.41 28.426C288.148 28.2113 287.822 28.104 287.43 28.104C287.047 28.104 286.706 28.202 286.408 28.398C286.118 28.594 285.899 28.7807 285.75 28.958C285.656 29.0607 285.568 29.14 285.484 29.196C285.409 29.2427 285.302 29.266 285.162 29.266C284.966 29.266 284.802 29.196 284.672 29.056C284.55 28.916 284.49 28.7573 284.49 28.58C284.49 28.468 284.518 28.3607 284.574 28.258C284.639 28.1553 284.76 28.02 284.938 27.852C285.246 27.5533 285.61 27.2967 286.03 27.082C286.45 26.8673 286.916 26.76 287.43 26.76C287.952 26.76 288.419 26.872 288.83 27.096C289.24 27.3107 289.562 27.6093 289.796 27.992C290.029 28.3653 290.146 28.776 290.146 29.224C290.146 29.7093 290.038 30.1387 289.824 30.512C289.609 30.876 289.348 31.1887 289.04 31.45C288.741 31.702 288.354 31.9773 287.878 32.276C287.318 32.64 286.874 32.9947 286.548 33.34C286.221 33.6853 286.016 34.1287 285.932 34.67H289.586C289.763 34.67 289.917 34.7353 290.048 34.866C290.188 34.9967 290.258 35.1553 290.258 35.342C290.258 35.5193 290.188 35.6733 290.048 35.804C289.917 35.9347 289.763 36 289.586 36H284.546V35.342ZM291.966 36.084C291.752 36.084 291.574 36.0093 291.434 35.86C291.304 35.7013 291.238 35.51 291.238 35.286C291.238 35.0527 291.322 34.8473 291.49 34.67C291.658 34.4833 291.85 34.39 292.064 34.39C292.27 34.39 292.442 34.4693 292.582 34.628C292.722 34.7773 292.792 34.9593 292.792 35.174C292.792 35.426 292.708 35.6407 292.54 35.818C292.372 35.9953 292.181 36.084 291.966 36.084Z" fill="black"/>
<rect id="totalTons" x="199" y="22" width="18" height="11" fill="white"/>
<g id="plane">
<rect id="Rectangle 54" x="429.829" y="62" width="89.1596" height="65.1551" transform="rotate(33.3606 429.829 62)" fill="white"/>
<path id="Vector 203 (Stroke)" fill-rule="evenodd" clip-rule="evenodd" d="M476.85 103.374C475.823 103.366 474.755 103.359 473.695 103.314C465.489 102.971 457.213 103.301 448.917 103.632C448.19 103.661 447.464 103.69 446.737 103.719C445.79 103.756 444.993 103.019 444.956 102.073C444.919 101.127 445.656 100.329 446.602 100.292C447.334 100.263 448.067 100.234 448.801 100.205C457.072 99.8744 465.485 99.5383 473.838 99.8879C474.833 99.9296 475.823 99.937 476.841 99.9447C477.135 99.9469 477.433 99.9491 477.733 99.9522C479.05 99.9658 480.408 99.9959 481.757 100.124C484.47 100.382 487.24 101.044 489.818 102.843C490.917 103.61 491.948 104.452 492.923 105.247C493.01 105.318 493.096 105.389 493.183 105.459C494.253 106.332 495.27 107.147 496.355 107.862C496.626 108.04 496.937 108.215 497.324 108.433C497.396 108.473 497.471 108.516 497.549 108.56C498.01 108.82 498.553 109.134 499.061 109.502C500.05 110.218 501.253 111.394 501.296 113.245C501.329 114.655 500.911 115.85 500.048 116.757C499.234 117.612 498.176 118.05 497.222 118.303C496.262 118.559 495.231 118.672 494.339 118.755C494.153 118.772 493.975 118.788 493.803 118.804C493.095 118.867 492.501 118.92 491.977 119.014C489.565 119.447 487.048 119.652 484.462 119.224C484.403 119.214 484.28 119.212 483.931 119.264C483.894 119.269 483.851 119.276 483.803 119.283C483.548 119.323 483.158 119.385 482.762 119.396C482.756 119.398 482.749 119.4 482.742 119.403C482.638 119.442 482.526 119.49 482.376 119.556C482.351 119.567 482.324 119.579 482.296 119.591C482.29 119.594 482.282 119.597 482.272 119.602C482.158 119.652 481.833 119.796 481.536 119.851C481.444 119.868 481.2 119.91 480.9 119.862C480.577 119.81 479.915 119.594 479.582 118.859C479.304 118.244 479.474 117.704 479.529 117.548C479.601 117.34 479.698 117.185 479.749 117.107C480.079 116.606 480.626 116.335 481.184 116.335C481.297 116.287 481.424 116.234 481.548 116.188C481.728 116.122 482.162 115.963 482.634 115.968C482.776 115.97 482.914 115.949 483.204 115.905C483.271 115.895 483.345 115.884 483.43 115.871C483.796 115.817 484.388 115.736 485.022 115.841C487.079 116.181 489.171 116.034 491.371 115.639C492.06 115.516 492.847 115.445 493.564 115.382C493.72 115.368 493.873 115.354 494.021 115.34C494.906 115.258 495.684 115.164 496.34 114.989C497.003 114.813 497.369 114.598 497.564 114.393C497.709 114.24 497.883 113.969 497.868 113.325C497.863 113.099 497.749 112.786 497.049 112.279C496.713 112.035 496.318 111.803 495.862 111.545C495.799 111.51 495.733 111.473 495.666 111.435C495.284 111.221 494.85 110.977 494.47 110.726C493.222 109.904 492.083 108.987 491.016 108.117C490.933 108.05 490.852 107.984 490.77 107.917C489.776 107.106 488.843 106.345 487.855 105.655C485.936 104.316 483.811 103.764 481.432 103.538C480.236 103.424 478.999 103.395 477.698 103.381C477.419 103.378 477.136 103.376 476.85 103.374ZM480.747 116.522C480.747 116.522 480.752 116.52 480.759 116.517C480.751 116.521 480.747 116.522 480.747 116.522ZM482.834 119.373C482.834 119.373 482.829 119.374 482.82 119.377C482.829 119.374 482.834 119.373 482.834 119.373Z" fill="black"/>
<path id="Vector 204 (Stroke)" fill-rule="evenodd" clip-rule="evenodd" d="M471.804 110.403C472.747 110.494 473.437 111.331 473.346 112.274C473.262 113.152 473.182 113.818 473.07 114.322C472.951 114.858 472.763 115.378 472.359 115.84C472.18 116.044 471.998 116.192 471.874 116.288C471.781 116.359 471.741 116.389 471.707 116.414C471.67 116.441 471.641 116.463 471.563 116.525C471.403 116.651 471.176 116.847 470.849 117.244C470.21 118.02 469.392 118.313 469.004 118.452C468.968 118.465 468.936 118.476 468.908 118.487C468.588 118.606 468.569 118.637 468.54 118.684C468.537 118.688 468.535 118.692 468.532 118.697C467.697 119.964 466.23 121.141 464.799 121.642C464.08 121.894 463.353 122.413 462.47 123.16C462.286 123.316 462.089 123.487 461.882 123.667C461.199 124.262 460.411 124.949 459.62 125.47C458.511 126.202 457.413 127.026 456.261 127.891C455.991 128.094 455.717 128.299 455.44 128.506C454.01 129.573 452.496 130.668 450.914 131.558C450.188 131.967 449.509 132.617 448.622 133.466C448.557 133.528 448.491 133.592 448.423 133.656C447.533 134.507 446.394 135.576 445.004 136.163C444.433 136.404 443.936 136.689 443.433 136.999C443.322 137.068 443.204 137.142 443.081 137.219C442.69 137.464 442.251 137.741 441.825 137.966C440.569 138.631 439.153 139.021 437.219 138.577C437.117 138.583 436.976 138.598 436.774 138.622C436.733 138.627 436.689 138.632 436.643 138.638C436.286 138.681 435.792 138.741 435.343 138.751C435.086 138.757 434.767 138.749 434.445 138.689C434.154 138.635 433.649 138.501 433.216 138.096C432.688 137.601 432.503 136.929 432.58 136.302C432.645 135.778 432.882 135.336 433.093 135.015C433.222 134.819 433.37 134.59 433.53 134.341C433.874 133.808 434.276 133.185 434.679 132.601C435.27 131.745 435.974 130.804 436.71 130.121C439.151 127.857 441.506 125.347 443.876 122.823C445.074 121.546 446.276 120.265 447.495 119.011C448.011 118.48 448.511 117.885 449.064 117.227C449.469 116.745 449.902 116.229 450.391 115.68C450.922 115.083 451.493 114.482 452.077 113.977C452.644 113.488 453.328 112.996 454.094 112.733C456.845 111.788 459.645 111.347 462.346 111.021C463.142 110.924 463.921 110.839 464.689 110.754C466.582 110.546 468.404 110.346 470.229 110.015C470.754 109.92 471.267 110.074 471.645 110.395C471.698 110.395 471.751 110.397 471.804 110.403ZM469.723 113.577C468.129 113.827 466.514 114.004 464.945 114.177C464.203 114.258 463.472 114.339 462.758 114.425C460.121 114.744 457.609 115.152 455.208 115.976C455.048 116.031 454.754 116.197 454.319 116.572C453.901 116.933 453.445 117.406 452.953 117.96C452.613 118.342 452.229 118.795 451.834 119.263C451.193 120.022 450.521 120.817 449.955 121.4C448.825 122.564 447.667 123.796 446.49 125.05C444.07 127.627 441.567 130.293 439.042 132.635C438.598 133.047 438.07 133.725 437.501 134.549C437.362 134.751 437.227 134.951 437.096 135.149C437.279 135.141 437.59 135.137 437.901 135.214C438.941 135.472 439.533 135.3 440.22 134.936C440.525 134.774 440.808 134.596 441.164 134.373C441.307 134.283 441.461 134.186 441.633 134.08C442.196 133.733 442.863 133.345 443.669 133.004C444.396 132.697 445.112 132.077 446.054 131.177C446.135 131.099 446.218 131.019 446.303 130.938C447.11 130.162 448.105 129.205 449.232 128.57C450.606 127.796 451.969 126.818 453.39 125.758C453.646 125.566 453.906 125.371 454.168 125.175C455.325 124.305 456.527 123.403 457.732 122.608C458.315 122.223 458.851 121.756 459.487 121.204C459.726 120.995 459.98 120.775 460.255 120.542C461.174 119.764 462.309 118.88 463.666 118.405C464.354 118.165 465.226 117.481 465.668 116.811C466.325 115.812 467.192 115.467 467.708 115.274C468.191 115.094 468.198 115.075 468.201 115.066C468.202 115.065 468.202 115.064 468.203 115.063C468.694 114.466 469.098 114.102 469.435 113.835C469.514 113.773 469.585 113.719 469.643 113.676C469.657 113.665 469.67 113.656 469.681 113.647C469.692 113.639 469.703 113.631 469.712 113.624C469.715 113.611 469.718 113.597 469.722 113.581C469.722 113.58 469.722 113.579 469.723 113.577ZM435.919 136.966C435.918 136.966 435.92 136.963 435.924 136.956C435.921 136.963 435.919 136.966 435.919 136.966ZM437.296 138.575C437.296 138.575 437.29 138.575 437.281 138.574C437.291 138.574 437.296 138.574 437.296 138.575Z" fill="black"/>
<path id="Vector 205 (Stroke)" fill-rule="evenodd" clip-rule="evenodd" d="M483.329 116.601C483.67 117.484 483.23 118.477 482.346 118.818C480.626 119.482 479.144 119.618 477.647 119.756C477.585 119.762 477.523 119.768 477.46 119.773C476.864 119.829 476.254 119.734 475.845 119.665C475.713 119.643 475.596 119.623 475.49 119.604C475.194 119.553 474.985 119.516 474.783 119.501C473.778 119.425 472.526 119.533 471.152 119.709C470.698 119.767 470.218 119.835 469.735 119.904C468.849 120.029 467.954 120.155 467.199 120.225C466.256 120.313 465.421 119.619 465.333 118.676C465.246 117.734 465.939 116.898 466.882 116.811C467.567 116.747 468.305 116.642 469.121 116.527C469.621 116.455 470.151 116.38 470.716 116.308C472.114 116.128 473.662 115.978 475.041 116.082C475.428 116.111 475.866 116.188 476.195 116.246C476.274 116.26 476.347 116.273 476.411 116.283C476.834 116.354 477.042 116.368 477.143 116.359L477.191 116.354C478.78 116.207 479.841 116.109 481.112 115.619C481.995 115.278 482.988 115.717 483.329 116.601Z" fill="black"/>
<path id="Vector 206 (Stroke)" fill-rule="evenodd" clip-rule="evenodd" d="M446.561 102.187C446.589 103.134 445.844 103.923 444.897 103.951C444.699 103.957 444.502 103.962 444.304 103.968C441.094 104.059 437.848 104.151 435.008 104.736C434.749 104.789 434.489 104.853 434.199 104.924L434.159 104.934C433.889 105 433.588 105.074 433.283 105.139C432.637 105.274 431.884 105.386 431.053 105.324C430.506 105.283 430.072 105.053 429.786 104.86C429.489 104.659 429.235 104.418 429.027 104.196C428.615 103.754 428.224 103.209 427.896 102.73C427.734 102.493 427.594 102.283 427.464 102.088C427.296 101.837 427.144 101.609 426.978 101.373C426.744 101.04 426.615 100.894 426.576 100.85C426.563 100.835 426.56 100.831 426.566 100.836C426.318 100.65 426.145 100.433 426.055 100.314C425.949 100.174 425.852 100.027 425.774 99.9032C425.705 99.7941 425.634 99.6766 425.57 99.5719C425.56 99.5564 425.551 99.5412 425.542 99.5263C425.473 99.4122 425.41 99.3099 425.349 99.2146C424.615 99.1682 424.023 98.8297 423.683 98.6017C423.414 98.4211 423.176 98.2233 423.004 98.0783C422.957 98.0387 422.917 98.004 422.881 97.9735C422.761 97.8718 422.695 97.8156 422.633 97.7696C422.346 97.5573 422.139 97.3254 421.994 97.1423C421.893 97.1684 421.787 97.1969 421.672 97.2277C421.642 97.2358 421.611 97.2441 421.58 97.2525C421.293 97.33 420.963 97.4188 420.631 97.4957C419.924 97.6596 418.981 97.828 418.04 97.6723C417.478 97.5792 416.876 97.6666 415.981 97.851C415.907 97.8661 415.831 97.8821 415.752 97.8987C415.035 98.0493 414.102 98.2453 413.121 98.2253C413.115 98.2291 413.109 98.2331 413.103 98.2374C413.094 98.2434 413.077 98.2549 413.057 98.2686C413.021 98.2929 412.974 98.3239 412.946 98.3426C412.901 98.3727 412.846 98.4092 412.782 98.4486C412.913 98.6399 413.028 98.8049 413.151 98.963C413.331 99.1937 413.444 99.2962 413.499 99.3382C415.215 99.2059 416.666 99.1932 418.007 99.7804C419.357 100.371 420.365 101.471 421.496 102.841C422.404 103.941 423.78 105.155 424.991 105.952C425.841 106.512 426.469 107.314 426.91 107.876C426.932 107.905 426.955 107.934 426.976 107.961C427.492 108.618 427.818 109.006 428.187 109.249C429.09 109.843 429.572 110.768 429.833 111.269C429.843 111.289 429.852 111.307 429.862 111.325L429.875 111.35C430.025 111.638 430.115 111.81 430.21 111.953C430.241 112.001 430.265 112.031 430.28 112.05C430.326 112.065 430.455 112.106 430.708 112.145C431.067 112.201 431.515 112.232 432.038 112.253C432.226 112.261 432.445 112.268 432.67 112.275C432.997 112.286 433.339 112.297 433.624 112.311C434.12 112.336 434.702 112.38 435.2 112.501C438.038 113.193 441.486 113.299 444.602 113.255C444.988 113.25 445.727 113.322 446.445 113.393C446.603 113.409 446.766 113.425 446.933 113.442C447.6 113.509 448.334 113.583 449.058 113.645C449.97 113.723 450.81 113.777 451.431 113.779C451.649 113.78 451.81 113.773 451.92 113.765C452.453 113.487 453.117 113.499 453.655 113.854C454.446 114.374 454.665 115.438 454.145 116.228C453.82 116.722 453.356 116.918 453.173 116.987C452.941 117.075 452.715 117.119 452.544 117.144C452.195 117.196 451.798 117.209 451.421 117.208C450.651 117.206 449.693 117.141 448.765 117.061C448.014 116.997 447.248 116.92 446.579 116.853C446.415 116.837 446.257 116.821 446.107 116.806C445.719 116.767 445.385 116.735 445.118 116.713C444.985 116.702 444.876 116.695 444.789 116.69C444.747 116.687 444.713 116.686 444.688 116.685C444.661 116.684 444.65 116.684 444.65 116.684C441.493 116.728 437.675 116.635 434.387 115.833C434.233 115.795 433.938 115.761 433.451 115.736C433.172 115.722 432.91 115.714 432.628 115.705C432.404 115.698 432.166 115.691 431.897 115.68C431.348 115.657 430.741 115.62 430.181 115.534C429.667 115.454 428.971 115.302 428.389 114.918C427.901 114.597 427.573 114.183 427.349 113.845C427.152 113.546 426.982 113.22 426.858 112.982C426.846 112.958 426.834 112.935 426.822 112.913C426.507 112.308 426.384 112.167 426.301 112.113C425.418 111.531 424.776 110.713 424.325 110.137C424.309 110.117 424.294 110.098 424.279 110.079C423.753 109.409 423.445 109.04 423.106 108.816C421.63 107.845 419.992 106.406 418.851 105.023C417.697 103.625 417.147 103.147 416.632 102.922C416.132 102.703 415.438 102.625 413.684 102.763C412.016 102.895 410.969 101.741 410.447 101.072C410.216 100.776 409.993 100.447 409.814 100.182C409.773 100.122 409.735 100.065 409.699 100.013C409.476 99.6871 409.328 99.4899 409.207 99.365C409.023 99.1746 408.828 98.9493 408.673 98.6938C408.534 98.464 408.306 98.0134 408.35 97.4313C408.404 96.7312 408.81 96.2501 409.197 95.9895C409.521 95.7716 409.848 95.6889 410.013 95.653C410.264 95.5983 410.609 95.5664 410.776 95.5509C410.811 95.5478 410.838 95.5453 410.855 95.5434C410.916 95.5368 410.959 95.5307 410.988 95.5261C411.004 95.5158 411.023 95.5032 411.047 95.4875C411.059 95.4793 411.076 95.4679 411.096 95.4542C411.173 95.4028 411.296 95.3195 411.404 95.2531C411.682 95.0817 412.278 94.7419 413.063 94.7915C413.658 94.8291 414.254 94.7061 415.14 94.5231C415.188 94.513 415.238 94.5027 415.289 94.4923C416.166 94.3116 417.34 94.0805 418.6 94.2892C418.844 94.3295 419.236 94.2988 419.857 94.155C420.126 94.0926 420.397 94.0198 420.693 93.9399C420.722 93.9321 420.752 93.9242 420.781 93.9162C421.097 93.8313 421.453 93.7366 421.798 93.6655C422.265 93.5693 422.789 93.568 423.31 93.7772C423.816 93.9804 424.138 94.3114 424.324 94.5346C424.416 94.6444 424.493 94.7508 424.542 94.8205C424.56 94.8454 424.575 94.8661 424.587 94.884C424.618 94.9268 424.637 94.9538 424.661 94.9853C424.678 95.0085 424.69 95.023 424.697 95.031C424.855 95.15 425.025 95.295 425.148 95.4002C425.174 95.4222 425.198 95.4423 425.219 95.4602C425.376 95.5929 425.49 95.6843 425.589 95.7512C426.549 95.5898 427.247 96.1816 427.472 96.3947C427.795 96.7002 428.051 97.0777 428.218 97.3353C428.298 97.4596 428.45 97.7078 428.557 97.8838C428.612 97.973 428.655 98.0437 428.672 98.0701C428.708 98.1273 428.736 98.1687 428.756 98.1979C429.174 98.5529 429.535 99.0483 429.781 99.3975C429.956 99.6461 430.165 99.958 430.363 100.254C430.493 100.448 430.617 100.634 430.726 100.792C431.043 101.256 431.311 101.616 431.534 101.855C431.553 101.876 431.571 101.895 431.588 101.912C431.882 101.907 432.201 101.862 432.578 101.783C432.824 101.731 433.074 101.669 433.361 101.599L433.38 101.594C433.664 101.524 433.984 101.446 434.316 101.377C437.465 100.729 440.998 100.63 444.128 100.542C444.354 100.536 444.577 100.53 444.798 100.523C445.744 100.496 446.534 101.241 446.561 102.187ZM428.796 98.2523C428.796 98.2525 428.793 98.249 428.787 98.2411C428.793 98.2481 428.796 98.2521 428.796 98.2523ZM452.062 113.748C452.062 113.748 452.06 113.749 452.056 113.749C452.06 113.749 452.062 113.748 452.062 113.748ZM413.54 99.3643C413.541 99.3648 413.536 99.3632 413.527 99.3576C413.536 99.3609 413.54 99.3637 413.54 99.3643Z" fill="black"/>
<path id="Vector 207 (Stroke)" fill-rule="evenodd" clip-rule="evenodd" d="M471.495 101.601C471.033 102.428 469.989 102.723 469.162 102.261C468.67 101.986 468.095 101.651 467.487 101.296C467.37 101.228 467.252 101.159 467.133 101.09C466.386 100.655 465.588 100.193 464.784 99.7503C463.137 98.8425 461.602 98.091 460.504 97.7791C459.783 97.5745 458.735 97.1717 457.745 96.7179C456.785 96.2783 455.687 95.7042 454.974 95.116C453.375 93.7973 452.455 93.3613 451.088 93.2474C449.472 93.1126 447.822 92.8921 446.193 92.6335C446.286 92.745 446.376 92.8516 446.465 92.9543C447.507 94.1536 448.785 95.0089 450.4 96.0723C451.191 96.5931 451.41 97.6564 450.889 98.4473C450.368 99.2382 449.305 99.4572 448.514 98.9365L448.449 98.8936C446.911 97.881 445.257 96.7923 443.877 95.2031C443.64 94.9312 443.405 94.6428 443.184 94.3722C443.17 94.3556 443.157 94.3391 443.143 94.3227C442.904 94.0301 442.678 93.754 442.446 93.4895C441.977 92.9531 441.553 92.5416 441.132 92.2648C440.998 92.1762 440.821 92.0485 440.657 91.8778C440.528 91.7444 440.191 91.3672 440.124 90.7723C440.035 89.9904 440.453 89.4157 440.842 89.1259C441.155 88.8925 441.473 88.8098 441.616 88.7775C441.933 88.7055 442.262 88.6999 442.485 88.7026C442.74 88.7056 443.013 88.7234 443.276 88.7467C444.27 88.8348 445.442 89.0338 445.668 89.0721C445.677 89.0737 445.685 89.075 445.691 89.076C447.616 89.4012 449.534 89.6766 451.373 89.83C453.699 90.0239 455.265 90.9112 457.156 92.4705C457.501 92.7549 458.248 93.1763 459.173 93.6004C460.068 94.0103 460.944 94.3394 461.441 94.4804C462.954 94.9104 464.795 95.8406 466.44 96.7469C467.282 97.2109 468.109 97.6896 468.859 98.1267C468.983 98.1986 469.104 98.2692 469.222 98.3383C469.832 98.6938 470.374 99.0098 470.835 99.2678C471.662 99.7299 471.957 100.775 471.495 101.601ZM443.01 89.3951C443.01 89.3951 443.012 89.3964 443.015 89.3991L443.01 89.3951Z" fill="black"/>
<path id="Vector 208 (Stroke)" fill-rule="evenodd" clip-rule="evenodd" d="M421.227 103.824C421.348 103.471 421.356 103.076 421.222 102.696C420.908 101.803 419.929 101.334 419.035 101.649C418.697 101.768 418.322 101.882 417.885 102.016C417.79 102.045 417.691 102.075 417.589 102.106C417.044 102.273 416.433 102.466 415.827 102.699C414.725 103.123 413.42 103.759 412.489 104.853C412.427 104.897 412.346 104.957 412.267 105.021L412.264 105.023C412.18 105.092 411.91 105.31 411.713 105.639C411.61 105.809 411.405 106.208 411.453 106.747C411.51 107.39 411.885 107.842 412.258 108.087C412.776 108.428 413.315 108.475 413.673 108.46C414.027 108.446 414.345 108.365 414.553 108.305C414.688 108.266 414.87 108.207 414.983 108.17C415.023 108.157 415.054 108.147 415.073 108.141C415.112 108.129 415.139 108.121 415.156 108.116C416.122 108.039 417.139 107.834 418.029 107.653C418.256 107.607 418.475 107.563 418.683 107.523C419.817 107.304 420.71 107.188 421.46 107.277C422.4 107.389 423.253 106.718 423.365 105.778C423.477 104.837 422.806 103.984 421.865 103.872C421.653 103.847 421.44 103.831 421.227 103.824ZM414.426 107.685C414.428 107.683 414.431 107.681 414.433 107.679C414.411 107.7 414.405 107.702 414.426 107.685Z" fill="black"/>
<path id="Vector 209 (Stroke)" fill-rule="evenodd" clip-rule="evenodd" d="M449.414 118.542C449.647 119.46 449.091 120.393 448.174 120.626C447.84 120.71 447.517 120.787 447.203 120.861C446.271 121.081 445.423 121.282 444.651 121.612C444.319 121.753 444.054 121.898 443.843 122.048C444.292 122.186 444.683 122.506 444.896 122.965C445.294 123.824 444.921 124.844 444.062 125.242C443.445 125.529 442.814 125.446 442.521 125.392C442.14 125.323 441.751 125.189 441.4 125.013C441.064 124.844 440.651 124.58 440.321 124.187C439.984 123.785 439.597 123.065 439.819 122.169C440.322 120.132 441.89 119.062 443.305 118.458C444.378 118 445.633 117.705 446.614 117.474C446.875 117.413 447.117 117.356 447.331 117.301C448.249 117.069 449.182 117.624 449.414 118.542Z" fill="black"/>
<path id="Vector 210 (Stroke)" fill-rule="evenodd" clip-rule="evenodd" d="M438.474 122.372C438.583 122.833 438.298 123.295 437.838 123.404C436.49 123.723 433.828 124.168 431.821 124.413C430.837 124.533 429.933 124.614 429.421 124.592C429.3 124.586 429.124 124.573 428.958 124.521C428.885 124.498 428.706 124.435 428.548 124.275C428.459 124.184 428.367 124.052 428.32 123.875C428.272 123.695 428.286 123.523 428.329 123.382C428.405 123.135 428.566 122.987 428.629 122.933C428.71 122.864 428.793 122.812 428.858 122.775C428.99 122.701 429.151 122.631 429.322 122.565C429.575 122.468 430.909 121.943 432.126 121.403C432.217 121.363 432.306 121.323 432.394 121.283C432.158 121.282 431.909 121.289 431.654 121.3C431.042 121.329 430.418 121.386 429.859 121.444C429.723 121.457 429.588 121.472 429.458 121.485C429.071 121.526 428.72 121.563 428.47 121.579C428.123 121.601 427.777 121.626 427.431 121.654C427.456 121.702 427.485 121.767 427.505 121.845C427.518 121.895 427.535 121.978 427.532 122.083C427.545 122.119 427.553 122.151 427.559 122.176C427.581 122.268 427.583 122.344 427.583 122.38C427.583 122.422 427.58 122.459 427.578 122.485C427.55 122.784 427.407 123.017 427.316 123.143C427.229 123.263 427.127 123.373 427.022 123.463C426.993 123.493 426.961 123.525 426.926 123.555C426.868 123.604 426.762 123.684 426.61 123.735C426.607 123.736 426.605 123.737 426.602 123.738C426.586 123.777 426.571 123.811 426.558 123.838C426.506 123.944 426.444 124.042 426.382 124.129C426.144 124.461 425.752 124.845 425.325 125.11C425.11 125.244 424.842 125.376 424.545 125.434C424.24 125.493 423.844 125.484 423.478 125.243C423.262 125.101 423.099 124.89 423.023 124.631C422.966 124.438 422.969 124.257 422.992 124.108C422.973 124.121 422.955 124.134 422.935 124.148L422.912 124.164C422.816 124.232 422.706 124.31 422.592 124.384C422.55 124.411 422.506 124.439 422.46 124.467C422.405 124.68 422.274 124.85 422.127 124.96C421.962 125.083 421.794 125.12 421.724 125.133C421.568 125.163 421.414 125.156 421.324 125.15C421.216 125.142 421.103 125.128 420.997 125.112C420.914 125.1 420.829 125.085 420.744 125.069C420.648 125.298 420.521 125.506 420.373 125.693C420.401 125.684 420.431 125.675 420.46 125.666C420.675 125.598 420.914 125.523 421.126 125.462C421.273 125.419 421.424 125.379 421.559 125.349C421.667 125.325 421.858 125.286 422.042 125.296C422.043 125.296 422.045 125.296 422.046 125.296C422.106 125.3 422.412 125.316 422.66 125.565C422.821 125.727 422.912 125.942 422.917 126.166C422.923 126.363 422.862 126.514 422.82 126.597C422.742 126.755 422.633 126.863 422.58 126.913C422.514 126.977 422.439 127.036 422.366 127.092C421.789 127.523 421.016 128.049 420.174 128.422C419.347 128.789 418.341 129.061 417.351 128.831C416.718 128.683 416.18 128.456 415.736 128.164C415.395 128.386 415.063 128.544 414.745 128.603C414.451 128.657 414.09 128.64 413.764 128.421C413.447 128.208 413.3 127.895 413.234 127.642C413.111 127.174 413.184 126.615 413.289 126.134C413.29 126.129 413.292 126.124 413.293 126.119C413.188 126.03 413.087 125.935 412.99 125.834C412.88 125.828 412.772 125.817 412.666 125.8C412.196 125.722 411.723 125.509 411.378 125.08C411.035 124.655 410.899 124.117 410.908 123.541C410.909 123.45 410.916 123.354 410.928 123.255C410.697 122.957 410.569 122.594 410.52 122.269C410.32 120.921 411.188 119.154 413.325 118.714C413.342 118.71 413.36 118.707 413.377 118.703C413.852 118.109 414.413 117.7 415.041 117.486C416.209 117.087 417.378 117.439 418.253 118.096C418.529 118.304 418.785 118.548 419.012 118.82C419.374 118.589 419.77 118.388 420.169 118.266C420.645 118.119 421.257 118.044 421.832 118.322C422.422 118.606 422.769 119.159 422.929 119.829C423.175 119.922 423.417 120.068 423.613 120.289C423.649 120.285 423.685 120.282 423.722 120.278C423.954 120.256 424.186 120.233 424.419 120.21C425.721 120.082 427.04 119.952 428.361 119.868C428.573 119.854 428.869 119.823 429.241 119.784C429.379 119.769 429.527 119.754 429.685 119.738C430.252 119.68 430.914 119.618 431.575 119.588C432.23 119.557 432.913 119.556 433.515 119.629C434.073 119.697 434.741 119.845 435.203 120.254C435.341 120.376 435.463 120.558 435.502 120.792C435.539 121.012 435.488 121.197 435.438 121.316C435.347 121.528 435.197 121.67 435.125 121.734C434.956 121.885 434.728 122.026 434.514 122.147C434.396 122.214 434.267 122.283 434.128 122.354C435.431 122.147 436.679 121.917 437.442 121.736C437.903 121.627 438.365 121.912 438.474 122.372ZM420.23 120.566C420.319 120.407 420.434 120.279 420.541 120.188C420.699 120.052 420.887 119.946 421.087 119.866C421.087 119.866 421.087 119.866 421.087 119.866L421.087 119.866C421.065 119.855 420.95 119.819 420.673 119.904C420.411 119.985 420.123 120.138 419.851 120.32C419.88 120.407 419.906 120.494 419.929 120.583C420.03 120.577 420.13 120.572 420.23 120.566ZM416.37 119.065C416.133 119.017 415.9 119.023 415.682 119.082C415.811 119.152 415.934 119.228 416.049 119.309C416.078 119.297 416.107 119.286 416.137 119.275C416.21 119.2 416.287 119.13 416.37 119.065ZM413.641 123.254C413.666 123.548 413.73 123.8 413.819 124.014C413.885 123.996 413.952 123.974 414.022 123.951C414.126 123.705 414.237 123.458 414.353 123.215C414.3 123.034 414.259 122.845 414.232 122.653C414.218 122.672 414.202 122.691 414.187 122.709C414.014 122.91 413.832 123.094 413.641 123.254ZM417.638 127.136C417.672 127.144 417.705 127.153 417.739 127.16C417.999 127.221 418.3 127.213 418.636 127.14C418.601 127.111 418.568 127.08 418.536 127.048C418.501 127.014 418.468 126.979 418.437 126.943C418.179 127.025 417.911 127.09 417.638 127.136ZM427.079 123.135C427.079 123.134 427.08 123.133 427.081 123.131L427.079 123.135ZM424.744 121.901C424.694 121.906 424.643 121.911 424.593 121.916C424.374 121.937 424.155 121.959 423.936 121.98C423.93 122.004 423.923 122.027 423.916 122.05C424.015 122.062 424.116 122.082 424.219 122.111C424.283 122.129 424.342 122.152 424.397 122.179C424.496 122.095 424.596 122.014 424.694 121.939C424.711 121.926 424.728 121.914 424.744 121.901ZM415.877 125.168C415.874 125.264 415.878 125.358 415.888 125.45C415.953 125.461 416.019 125.47 416.085 125.478C416.132 125.421 416.178 125.364 416.225 125.306C416.189 125.295 416.152 125.283 416.115 125.269C416.033 125.24 415.953 125.206 415.877 125.168ZM433.983 120.454C433.982 120.455 433.981 120.456 433.98 120.458C433.988 120.449 433.991 120.448 433.983 120.454Z" fill="black"/>
<path id="Vector 212 (Stroke)" fill-rule="evenodd" clip-rule="evenodd" d="M406.744 109.747C407.203 109.631 407.669 109.909 407.785 110.368C407.786 110.373 407.788 110.379 407.79 110.387C407.843 110.595 408.186 111.944 408.418 113.426C408.516 113.404 408.618 113.39 408.725 113.388C408.757 113.374 408.796 113.358 408.84 113.341C409.107 113.238 409.457 113.16 409.962 113.172C410.245 113.179 410.56 113.232 410.835 113.409C410.979 113.501 411.105 113.623 411.202 113.775C411.297 113.927 411.349 114.086 411.37 114.237C411.411 114.525 411.343 114.78 411.276 114.951C411.206 115.131 411.109 115.29 411.015 115.415C410.927 115.532 410.806 115.669 410.659 115.772C410.619 115.801 410.565 115.835 410.498 115.867C410.437 115.896 410.332 115.938 410.197 115.953C410.057 115.968 409.836 115.958 409.619 115.818C409.395 115.673 409.289 115.466 409.245 115.308C409.217 115.207 409.211 115.115 409.212 115.044C409.139 115.071 409.031 115.101 408.901 115.108C408.921 115.379 408.89 115.664 408.771 115.937C408.785 115.949 408.8 115.962 408.813 115.973C408.883 116.034 409.01 116.147 409.109 116.297C409.219 116.465 409.361 116.784 409.236 117.167C409.129 117.495 408.885 117.674 408.758 117.754C408.528 117.901 408.201 118.017 407.835 118.127C407.728 118.207 407.605 118.275 407.466 118.324C407.232 118.406 406.994 118.421 406.768 118.392C406.185 118.513 405.441 118.637 404.783 118.661C404.492 118.671 404.188 118.663 403.906 118.616C403.642 118.572 403.295 118.478 403.012 118.238C402.671 117.95 402.513 117.53 402.576 117.078C402.618 116.771 402.757 116.484 402.93 116.225C402.288 115.792 401.843 115.083 401.713 114.121C401.612 113.363 401.628 112.642 401.967 112.114C402.157 111.818 402.43 111.613 402.752 111.514C403.054 111.422 403.349 111.437 403.59 111.482C403.734 111.509 403.878 111.55 404.02 111.601C404.282 111.498 404.562 111.427 404.854 111.398C405.343 111.351 405.847 111.424 406.327 111.64C406.229 111.205 406.151 110.898 406.127 110.805C406.125 110.798 406.124 110.792 406.123 110.788C406.007 110.329 406.285 109.863 406.744 109.747ZM409.995 114.893C409.995 114.893 409.995 114.892 409.994 114.892L409.995 114.893ZM408.622 113.435C408.614 113.438 408.617 113.436 408.63 113.431C408.627 113.432 408.625 113.433 408.622 113.435Z" fill="black"/>
</g>
<g id="Group 70">
<path id="Vector 247" d="M392.141 133.357C384.938 126.898 375.977 134.904 375.977 143.049C375.977 150.368 386.768 147.075 389.493 143.668" stroke="black" stroke-linecap="round" stroke-linejoin="round"/>
<path id="Vector 248" d="M391.862 133.775C389.149 135.103 389.311 134.882 387.194 133.706C386.501 133.321 384.903 133.625 384.229 133.884C381.394 134.974 379.739 138.137 379.739 141.021C379.739 144.124 382.463 145.431 385.104 144.009C385.742 143.666 386.54 143.277 387.055 142.763C387.387 142.43 387.556 141.748 388.1 141.718C388.625 141.689 388.904 141.693 389.284 141.996C389.452 142.131 389.674 142.461 389.741 142.662C390.082 143.686 388.75 141.986 388.657 141.857" stroke="black" stroke-linecap="round" stroke-linejoin="round"/>
<path id="Vector 249" d="M402.87 134.333C399.78 133.447 396.644 132.519 394.122 135.138C392.52 136.802 391.723 140.002 391.723 142.221C391.723 143.335 391.853 144.649 392.203 145.697C392.514 146.631 392.954 146.981 393.457 147.771C394.266 149.044 397.636 148.796 398.829 148.406C401.097 147.665 402.44 146.296 403.814 144.427C404.452 143.56 404.258 142.645 403.876 141.718C403.691 141.268 405.458 139.366 405.51 138.567C405.622 136.822 405 135.737 403.714 134.611C403.11 134.083 403.259 133.453 402.243 133.365C400.157 133.184 396.901 132.583 395.485 134.472" stroke="black" stroke-linecap="round" stroke-linejoin="round"/>
<path id="Vector 251" d="M410.673 137.259C411.612 135.697 412.041 134.472 413.847 134.472C414.279 134.472 414.957 134.601 415.341 134.395C416.247 133.907 417.431 133.739 418.267 133.21C420.136 132.03 421.735 133.825 422.347 135.478C422.894 136.956 422.477 140.198 421.201 141.292C420.527 141.869 419.943 142.045 419.111 142.283C418.382 142.491 417.651 143.566 416.804 143.808C415.966 144.047 415.572 144.611 414.683 144.644C413.983 144.67 412.165 145.48 412.066 146.316C412.028 146.642 411.366 146.267 411.517 146.796C411.605 147.104 412.382 146.945 412.562 146.904C413.376 146.718 414.741 146.127 415.55 146.486C417.131 147.189 418.798 146.595 420.497 146.595C420.817 146.595 422.085 146.667 422.238 146.935C422.622 147.606 421.834 148.267 421.186 148.267C419.866 148.267 419.034 148.635 417.81 149.072C416.679 149.476 415.425 148.907 414.265 148.824C413.09 148.74 408.817 149.052 408.165 147.911C407.182 146.191 410.208 146.14 409.667 144.923C409.231 143.942 411.043 143.43 411.726 143.39C412.61 143.338 412.998 141.892 413.599 141.857C414.381 141.811 414.623 141.131 415.202 140.68C415.869 140.161 416.804 140.074 417.493 139.558C418.279 138.968 418.606 138.543 417.578 137.955C417.115 137.691 418.476 137.165 418.476 136.632C418.476 135.54 416.687 135.817 416.247 136.454C415.614 137.368 414.585 136.944 413.739 137.367C413.079 137.697 413.564 138.879 412.624 138.931C412.1 138.96 410.446 138.862 411.23 138.234" stroke="black" stroke-linecap="round" stroke-linejoin="round"/>
<path id="Vector 252" d="M391.723 132.521C391.529 132.635 388.702 134.46 389.23 134.255C389.68 134.08 390.085 133.848 390.5 133.605C391.055 133.279 391.948 132.809 390.964 133.435C390.202 133.92 390.988 133.343 391.22 133.009C392.085 131.759 389.237 133.192 389.075 133.295C387.976 134.002 388.542 133.769 389.153 133.14C389.967 132.302 389.129 131.878 388.293 132.475C387.866 132.78 385.263 134.867 386.652 133.272C387.041 132.825 387.598 132.263 387.79 131.685C387.797 131.665 386.324 132.658 386.149 132.8C385.518 133.309 383.04 135.524 384.725 133.559C385.229 132.97 385.693 132.287 386.041 131.592C386.183 131.307 384.487 132.613 384.322 132.738C383.813 133.124 379.99 136.762 381.775 134.735C382.07 134.401 384.338 131.55 382.743 132.97C381.457 134.116 377.904 137.874 379.136 136.67C379.977 135.848 380.595 135.004 381.249 134.023C381.348 133.874 382.31 132.524 381.597 133.179C380.389 134.291 376.516 137.254 377.99 136.531C378.864 136.103 379.687 135.571 380.576 135.176C381.364 134.826 382.536 134.312 381.001 135.068C379.407 135.853 377.923 136.833 376.426 137.785C375.685 138.257 373.335 139.397 374.181 139.163C376.386 138.555 378.594 137.204 380.653 136.206C382.028 135.539 377.9 137.655 376.844 138.761C376.206 139.429 377.47 138.792 377.634 138.699C378.755 138.061 379.928 137.449 381.164 137.065C382.035 136.795 380.495 137.602 380.374 137.677C379.13 138.449 377.887 139.21 376.658 140.007C375.288 140.896 379.164 139.729 379.631 139.597C380.45 139.364 380.676 139.174 379.778 139.713C378.534 140.46 377.21 141.147 376.07 142.051C375.653 142.381 375.517 142.622 376.179 142.383C377.507 141.904 378.788 141.277 380.096 140.742C382.221 139.874 378.468 141.654 377.959 141.934C375.542 143.266 378.156 142.232 379.298 142.004C380.452 141.773 377.54 142.971 377.882 143.312C378.256 143.687 380.863 142.253 380.266 142.585C379.981 142.743 377.78 143.955 379.105 143.529C379.43 143.425 380.58 142.942 380.436 143.01C379.634 143.396 378.873 143.825 378.106 144.272C377.793 144.455 378.766 143.968 379.105 143.839C379.716 143.605 380.05 143.25 379.182 143.56C378.807 143.694 375.737 144.907 377.03 144.079C378.648 143.043 376.38 144.307 375.931 144.837C375.202 145.699 378.103 144.188 379.12 143.699C379.697 143.423 377.429 144.89 377.665 144.83C378.333 144.659 382.954 142.473 380.39 144.04C379.903 144.337 375.973 147.007 378.377 145.805C379.431 145.278 380.392 144.556 381.489 144.117C382.336 143.779 380.222 144.944 380.018 145.062C379.208 145.529 377.925 146.064 377.363 146.842C377.259 146.986 379.173 146.252 379.43 146.115C380.47 145.559 381.383 144.765 382.441 144.249C383.782 143.595 382.182 144.468 381.775 144.775C381.449 145.022 378.733 147.171 380.545 146.208C381.34 145.784 385.367 143.341 382.666 145.232C382.117 145.616 379.165 148.152 381.288 146.718C382.454 145.931 383.64 145.172 384.802 144.381C385.219 144.097 386.384 143.313 385.421 144.195C385.006 144.576 382.33 147.729 383.262 147.044C384.303 146.278 385.213 145.328 386.165 144.458C386.971 143.721 387.191 143.583 386.288 144.396C385.854 144.788 382.596 148.361 384.493 146.78C384.875 146.461 387.914 143.689 386.536 145.263C385.947 145.936 385.354 146.569 384.725 147.198C384.241 147.682 385.847 146.408 386.335 145.929C386.481 145.785 388.13 144.485 388.115 144.543C387.976 145.099 387.04 145.941 386.652 146.362C385.81 147.278 388.083 145.41 388.355 145.155C388.958 144.59 387.317 146.204 387.744 145.418C387.952 145.034 389.51 143.662 387.961 144.148C386.862 144.493 388.259 143.665 388.371 143.049C388.49 142.396 387.033 143.313 388.208 142.832C388.373 142.765 389.213 142.161 388.766 142.515C388.395 142.809 387.162 143.374 387.635 143.374C387.999 143.374 390.193 141.934 388.719 142.902C388.189 143.25 386.761 143.997 388.069 143.947C388.095 143.946 387.041 144.433 386.598 144.783C386.058 145.21 385.786 145.711 385.011 145.55C384.13 145.366 383.34 145.514 382.48 145.201C381.949 145.008 383.77 144.018 383.161 144.644C382.916 144.896 381.177 146.088 382.186 146.184C383.272 146.288 382.786 146.915 382.666 146.734" stroke="black" stroke-linecap="round" stroke-linejoin="round"/>
<path id="Vector 253" d="M397.714 134.054C397.438 134.122 393.383 135.466 395.346 134.72C396.067 134.445 396.745 134.069 397.459 133.783C398.874 133.217 392.095 136.268 393.619 136.268C394.463 136.268 397.73 134.812 395.284 136.036C394.928 136.214 393.263 137.297 393.565 137.174C394.728 136.698 395.782 135.934 396.956 135.509C397.817 135.197 394.114 137.125 394.277 137.081C395.358 136.786 396.426 135.757 397.405 135.2C397.665 135.051 398.799 134.262 397.807 134.565C397.082 134.786 394.933 135.469 395.686 135.385C396.569 135.287 397.45 134.641 398.318 134.418C399.612 134.085 394.43 136.127 397.32 135.37C398.057 135.177 399.903 134.058 399.51 134.712C399.449 134.814 398.205 135.308 398.473 135.308C399.354 135.308 400.201 134.885 401.066 134.766C401.864 134.656 399.607 135.452 398.907 135.85C398.125 136.294 402.491 134.925 401.035 135.61C398.294 136.9 401.251 136.265 402.436 135.803C402.95 135.604 402.158 136.144 402.049 136.214C401.559 136.529 402.907 136.088 402.978 136.067C405.155 135.414 401.715 136.818 401.926 137.088C402.075 137.28 405.352 135.672 403.04 136.949C402.624 137.179 401.372 137.626 402.661 137.452C403.193 137.38 404.581 136.6 404.201 136.98C403.681 137.5 401.461 138.44 403.698 137.545C405.089 136.989 401.567 139.029 402.901 138.567C403.542 138.345 404.277 138.216 404.875 137.894C404.914 137.872 403.412 138.7 403.009 138.9C400.305 140.24 402.969 139.195 404.263 138.962C404.914 138.845 401.359 140.448 402.127 140.448C402.28 140.448 403.922 140.175 403.892 140.247C403.51 141.154 401.74 141.475 400.973 141.842C399.092 142.741 405.055 140.671 402.08 142.074C398.938 143.556 404.926 141.4 402.173 143.103C399.691 144.64 402.383 143.027 403.056 143.699C403.196 143.84 402.715 143.907 402.529 143.978C401.869 144.231 401.195 144.465 400.555 144.768C399.854 145.1 399.74 145.266 400.641 145.17C401.325 145.098 403.155 144.297 402.669 144.783C402.144 145.308 400.477 145.675 399.75 146.03C397.189 147.279 402.195 145.675 402.824 145.495C404.554 145.001 396.123 148.047 397.885 147.678C398.702 147.507 399.962 147.197 400.656 146.734C401.005 146.501 398.867 146.977 398.597 147.044C398.334 147.109 396.499 147.745 396.894 147.702C397.012 147.688 397.846 147.513 397.714 147.462C397.212 147.266 396.46 147.833 395.934 147.833C395.904 147.833 397.2 147.051 397.513 146.935C398.397 146.608 393.882 147.945 394.788 147.686C395.738 147.415 396.855 146.99 397.683 146.455C397.838 146.355 396.254 146.68 395.957 146.819C392.474 148.454 395.957 146.63 397.343 146.006C398.48 145.495 392.429 146.817 393.673 146.734C394.094 146.706 394.872 145.968 394.092 146.246C393.707 146.383 397.048 144.832 394.928 145.627C393.42 146.192 393.13 146.24 394.726 145.41C396.687 144.391 394.045 145.273 393.348 145.472C392.953 145.585 394.088 145.113 394.448 144.915C394.91 144.66 395.689 144.195 394.649 144.396C393.951 144.531 391.978 145.37 392.636 145.101C393.379 144.797 394.696 144.546 395.222 143.87C395.252 143.831 391.568 144.828 392.443 144.427C393.526 143.931 394.802 143.637 392.923 143.8C392.227 143.861 395.039 142.646 393.704 143.111C392.479 143.538 396.135 141.935 394.51 142.476C393.801 142.712 392.716 143.071 392.094 143.467C391.766 143.676 393.169 143.331 393.333 143.25C395.924 141.973 393.561 143.117 392.419 143.359C391.527 143.548 394.229 142.309 394.138 142.283C393.334 142.053 390.605 143.321 393.403 142.143C393.615 142.054 394.97 141.449 394.959 141.447C394.13 141.296 393.186 141.806 392.45 142.105C390.837 142.76 394.358 141.35 394.618 140.882C394.825 140.509 390.817 141.884 393 140.735C393.096 140.684 394.835 139.798 394.695 139.659C394.502 139.465 393.678 139.767 393.418 139.767C392.757 139.767 394.562 139.103 395.144 138.792C395.54 138.58 396.409 138.194 395.524 138.242C394.746 138.284 393.423 138.565 392.791 139.039C392.225 139.464 394.155 138.593 394.734 138.188C395.434 137.697 390.979 139.25 393.596 138.234C393.745 138.176 395.537 137.537 394.796 137.537C394.574 137.537 394.258 137.372 394.649 137.398C394.658 137.399 393.887 138.08 393.766 138.203C393.499 138.477 393.212 138.927 393.681 139.132C395.012 139.714 393.271 138.959 393.271 139.976C393.271 140.072 393.783 140.06 393.882 140.115C394.22 140.303 393.681 140.126 393.596 140.046C393.28 139.747 393.536 138.016 393.534 138.017C392.85 138.747 395.741 137.52 395.144 137.537C393.687 137.58 393.342 138.441 394.788 137.537" stroke="black" stroke-linecap="round" stroke-linejoin="round"/>
<path id="Vector 254" d="M411.23 138.513C411.46 138.454 415.174 137.677 413.29 137.677C412.85 137.677 412.028 137.522 411.633 137.785C410.955 138.237 413.277 137.747 414.064 137.537C414.812 137.339 414.302 137.398 413.847 137.398C410.644 137.398 413.537 137.652 413.537 137.398C413.537 136.906 410.07 137.599 413.112 137.181C414.703 136.963 415.363 136.283 413.367 136.283C410.341 136.283 413.593 136.352 414.652 135.865C415.284 135.575 411.938 135.424 412.515 135.649C413.169 135.903 416.667 135.694 414.466 135.339C412.292 134.988 415.417 135.4 416.216 135.277C418.178 134.975 415.658 134.688 415.922 134.952C416.609 135.639 419.78 134.998 418.832 134.782C418.033 134.599 415.354 135.571 417.16 135.571C417.522 135.571 418.848 135.475 419.057 135.099C419.213 134.818 417.401 135.334 417.307 135.378C415.426 136.25 418.005 136.589 418.894 136.144C419.785 135.699 417.481 135.363 418.646 134.96C419.428 134.689 420.99 134.601 419.901 133.915C419.247 133.503 421.136 133.513 421.511 133.388C422.448 133.076 419.187 133.301 418.639 134.124C418.217 134.757 421.518 134.637 420.814 134.193C419.693 133.487 417.178 134.608 420.001 134.743C422.241 134.85 420.527 135.153 419.351 135.447C418.029 135.778 422.067 135.726 423.431 135.726C424.75 135.726 418.47 136.444 419.676 136.98C420.065 137.153 422.995 136.958 421.65 136.98C421.102 136.989 417.387 137.626 419.281 137.847C420.003 137.931 420.736 137.925 421.449 138.064C421.636 138.1 420.381 138.236 420.086 138.304C419.692 138.395 418.924 138.768 419.738 138.931C420.16 139.015 421.43 139.186 421 139.21C419.096 139.315 419.398 139.569 421.108 139.837C422.905 140.117 419.167 139.87 418.538 139.906C417.663 139.956 421.998 140.418 421.155 140.177C420.519 139.996 416.169 140.157 416.169 141.021C416.169 141.544 420.194 140.882 418.941 140.882C418.077 140.882 414.062 141.58 416.866 141.71C417.371 141.733 418.881 141.578 418.376 141.578C417.352 141.578 416.366 141.605 415.364 141.857C412.086 142.683 415.075 142.832 416.711 142.616C418.759 142.345 413.179 142.158 413.243 143.25C413.29 144.044 417.929 142.683 415.411 142.925C414.275 143.034 413.093 143.486 411.989 143.777C411.238 143.975 413.546 143.817 414.319 143.738C414.516 143.718 415.852 143.529 414.962 143.529C413.456 143.529 411.978 144.069 410.58 144.582C407.717 145.632 411.511 145.28 412.531 144.93C413.688 144.534 409.585 145.336 409.806 145.557C410.397 146.148 412.14 145.533 412.802 145.418C413.029 145.378 414.697 145.054 414.342 145.062C413.222 145.087 412.12 145.496 411.076 145.867C410.542 146.057 409.233 146.577 410.627 146.378C411.431 146.263 412.473 146.287 413.204 145.906C413.292 145.86 411.006 146.275 410.487 146.455C410.264 146.533 407.889 147.454 408.598 147.539C409.861 147.691 411.241 147.213 412.438 146.873C413.678 146.522 413.146 146.49 412.206 146.657C410.889 146.89 409.769 147.7 408.475 147.988C406.919 148.334 411.592 147.274 413.181 147.152C413.938 147.094 410.828 147.874 411.323 148.189C412.505 148.941 416.632 147.016 415.511 147.856C414.584 148.552 411.741 149.341 415.178 148.654C416.652 148.359 419.617 146.804 416.518 147.996C413.257 149.25 417.171 148.248 418.244 147.462C419.201 146.76 417.698 146.729 417.222 146.796C416.163 146.945 415.089 147.364 414.11 147.787C412.59 148.443 417.373 147.213 418.979 146.811C420.164 146.515 414.53 148.566 415.751 148.545C416.996 148.524 418.247 148.087 419.421 147.709C419.868 147.565 421.022 146.871 419.924 147.237C417.62 148.005 421.67 147.168 422.285 147.02C423.123 146.819 421.598 147.208 421.395 147.299C420.706 147.608 419.196 147.994 418.677 148.545C417.6 149.69 421.749 147.87 423.26 147.438C424.018 147.222 420.379 148.376 421.155 148.514C421.818 148.632 424.141 147.827 422.517 148.344C421.317 148.726 421.641 148.824 422.656 148.824C422.93 148.824 423.227 149.49 423.074 148.267" stroke="black" stroke-linecap="round" stroke-linejoin="round"/>
</g>
</g>
</svg>
