<svg width="96" height="62" viewBox="0 0 96 62" fill="none" xmlns="http://www.w3.org/2000/svg">
<g id="earth">
<rect id="Rectangle 55" x="1" width="95" height="62" fill="white"/>
<path id="Vector 225 (Stroke)" fill-rule="evenodd" clip-rule="evenodd" d="M42.8084 0.52154C43.0727 1.0065 42.8938 1.61386 42.4088 1.87811C42.2297 1.97568 42.0507 2.07404 41.8718 2.17321C50.0733 1.65531 57.9076 4.2845 65.1477 9.40545C75.2057 16.5196 83.0939 27.9825 78.8129 41.1594C73.5664 57.3078 58.1934 62.631 42.3458 61.9412C33.5366 61.5578 23.802 57.273 18.5147 49.9766C16.0132 46.5245 14.1032 41.0277 14.0075 36.8115C13.7231 24.2779 21.5482 14.1651 31.1881 6.7565C30.706 6.89327 30.1875 6.64968 29.9918 6.17526C29.7813 5.66469 30.0245 5.0801 30.5351 4.86956C32.6085 4.01459 34.6661 3.36512 36.7046 2.91161C38.2792 1.91429 39.8696 0.984035 41.4519 0.121901C41.9368 -0.142349 42.5442 0.0365754 42.8084 0.52154ZM37.4737 4.7917C25.853 12.2223 15.6965 23.0844 16.007 36.7662C16.093 40.559 17.8605 45.6653 20.1342 48.8031C24.9924 55.5074 34.1017 59.5805 42.4327 59.9431C57.8905 60.6159 72.0726 55.433 76.9107 40.5415C80.7908 28.5987 73.7534 17.9421 63.9927 11.0383C55.7526 5.20993 46.8282 2.81371 37.4737 4.7917Z" fill="black"/>
<path id="Vector 226 (Stroke)" fill-rule="evenodd" clip-rule="evenodd" d="M36.2612 6.31775C36.638 5.91397 37.2708 5.89209 37.6746 6.26889C37.9059 6.4848 38.4164 6.87307 39.117 7.4045C39.7889 7.91414 40.5889 8.52154 41.3192 9.12882C42.0356 9.72449 42.7468 10.37 43.205 10.9596C43.4255 11.2434 43.6633 11.6082 43.7581 12.0149C43.8087 12.2321 43.8278 12.5013 43.7447 12.7859C43.6581 13.0823 43.4814 13.3228 43.2576 13.4983C41.5522 14.8356 39.1217 15.837 36.595 14.9552C36.4646 14.9097 36.2141 14.8512 35.836 14.7779C35.6278 14.7375 35.4432 14.7037 35.249 14.6683C35.061 14.6339 34.8642 14.598 34.6284 14.5527C34.5577 14.5392 34.4863 14.5253 34.4148 14.5111C34.8724 15.1059 35.1984 15.6946 35.3896 16.2834C35.6921 17.2149 35.6391 18.0935 35.3169 18.8943C34.7134 20.3946 33.1995 21.5096 31.8511 22.3888C31.466 22.6398 31.0379 22.9058 30.6265 23.1615C30.323 23.3501 30.0285 23.5331 29.7671 23.7002C29.1042 24.1242 28.5365 24.5178 28.102 24.9072C27.6602 25.3034 27.4368 25.6251 27.3523 25.8815C27.2852 26.0851 27.2773 26.3243 27.4817 26.6849C27.8642 27.3596 27.9614 28.0638 27.7721 28.7107C27.5886 29.3376 27.1665 29.8066 26.698 30.0964C26.2376 30.3813 25.6589 30.5385 25.0868 30.4533C24.5092 30.3673 23.9544 30.0273 23.6621 29.4046C23.6547 29.4339 23.648 29.464 23.6419 29.4948C23.5885 29.7662 23.614 29.9563 23.6436 30.033C23.6737 30.1109 23.7487 30.2251 23.935 30.3852C24.1261 30.5494 24.3618 30.7029 24.6662 30.8999L24.6833 30.911C24.9563 31.0877 25.3027 31.3119 25.5928 31.5744C25.8944 31.8473 26.2286 32.2424 26.3501 32.7939C26.4018 33.0281 26.4423 33.4563 26.4799 33.8554C26.4859 33.9183 26.4919 33.9826 26.498 34.048C26.5348 34.4411 26.5754 34.875 26.6244 35.2981C26.6824 35.7981 26.7477 36.2424 26.8218 36.5578C26.8232 36.5637 26.8246 36.5695 26.826 36.5752C27.6503 36.697 28.6884 36.5312 29.8853 36.2243C30.3207 36.1126 30.7386 35.9936 31.1597 35.8736C31.4026 35.8044 31.6464 35.7349 31.8953 35.6664C32.5452 35.4875 33.2124 35.3203 33.8214 35.248C34.7839 35.1339 35.5807 35.1934 36.2849 35.408C36.9891 35.6226 37.535 35.9728 38.0099 36.3413C38.2792 36.5502 38.5187 36.7548 38.752 36.9541C39.3707 37.4825 39.9452 37.9732 40.9123 38.4065C41.0175 38.4537 41.2802 38.5346 41.7188 38.6531C41.8623 38.6918 42.0222 38.7341 42.1905 38.7785C42.4841 38.856 42.8033 38.9402 43.1059 39.0248C43.5871 39.1592 44.0919 39.312 44.5098 39.4791C44.7179 39.5623 44.9325 39.66 45.1223 39.775C45.2867 39.8746 45.5528 40.0569 45.7262 40.3541C46.143 41.0685 46.009 41.8742 45.8156 42.4607C45.6105 43.0826 45.2541 43.7173 44.8803 44.2832C44.1285 45.4217 43.1767 46.4742 42.7399 46.9146C41.5539 48.1103 41.14 48.9071 41.0372 49.7097C40.9248 50.5866 41.1532 51.6317 41.6833 53.4353C41.7735 53.7423 41.8908 54.086 42.0235 54.4746C42.1164 54.7469 42.2169 55.0413 42.3209 55.3605C42.5549 56.0791 42.796 56.8966 42.8768 57.6012C42.9169 57.9505 42.9279 58.3508 42.8328 58.7288C42.7323 59.1282 42.4877 59.5812 41.9757 59.8311C41.5023 60.0622 40.9922 60.0222 40.5643 59.9117C40.1249 59.7981 39.6386 59.5765 39.1052 59.2692C36.3278 57.6692 34.6546 54.8864 33.3973 52.0345C32.4734 49.9386 30.3356 48.0141 27.9857 48.0141C27.0442 48.0141 26.2376 47.7723 25.5772 47.3129C24.9239 46.8586 24.4786 46.2369 24.1757 45.5774C23.5849 44.2911 23.4746 42.7223 23.4746 41.4737C23.4746 40.8846 23.5322 40.4127 23.5747 40.0643C23.5867 39.9665 23.5974 39.8783 23.6054 39.8001C23.64 39.459 23.6416 39.2008 23.5295 38.8051C23.4641 38.5745 23.285 38.2975 22.9502 37.9181C22.8237 37.7746 22.6931 37.636 22.5511 37.4853C22.51 37.4416 22.4679 37.397 22.4247 37.3509C22.241 37.1549 22.0405 36.937 21.8594 36.7088C21.589 36.3679 20.9954 35.9204 20.1538 35.4098C19.3981 34.9512 18.5483 34.5028 17.7631 34.0885C17.7053 34.0581 17.648 34.0278 17.591 33.9977C16.8132 33.587 16.011 33.1629 15.587 32.826C15.4798 32.7408 15.3191 32.6024 15.1964 32.4158C15.082 32.2419 14.8315 31.739 15.1642 31.2055C15.4175 30.7993 15.8373 30.7021 15.9616 30.6752C16.1493 30.6344 16.3508 30.6241 16.5366 30.6241C17.0888 30.6241 17.5366 31.0718 17.5366 31.6241C17.5366 31.6481 17.5357 31.672 17.534 31.6956C17.8041 31.8464 18.1364 32.024 18.5249 32.2291C18.5845 32.2606 18.645 32.2925 18.7063 32.3249C19.4807 32.7334 20.3817 33.2087 21.1913 33.6999C22.0347 34.2117 22.9113 34.8168 23.4261 35.4656C23.5521 35.6243 23.7038 35.791 23.8837 35.983C23.9192 36.0208 23.9562 36.06 23.9941 36.1003C24.1394 36.2544 24.2995 36.4244 24.45 36.5949C24.6009 36.7659 24.7629 36.9598 24.9151 37.1757C24.9005 37.1214 24.8872 37.0678 24.8749 37.0154C24.773 36.5819 24.6973 36.0424 24.6377 35.5283C24.5859 35.0813 24.5431 34.6228 24.5064 34.2309C24.5003 34.1664 24.4945 34.1037 24.4888 34.0431C24.4683 33.8255 24.45 33.6384 24.433 33.4878C24.4245 33.4128 24.4168 33.3515 24.4099 33.3032C24.4065 33.2792 24.4035 33.2604 24.401 33.2461L24.3981 33.2298C24.3979 33.2287 24.3977 33.2277 24.3975 33.2269C24.3933 33.2168 24.3665 33.162 24.2509 33.0574C24.0961 32.9173 23.8842 32.7762 23.5793 32.5788C23.5672 32.571 23.5549 32.563 23.5424 32.555C23.272 32.38 22.9315 32.1598 22.6316 31.9021C22.3131 31.6284 21.9722 31.2572 21.7776 30.7527C21.5664 30.2052 21.5824 29.6017 21.6796 29.1082C21.778 28.6088 21.9864 28.0845 22.3053 27.6786C22.5986 27.3052 23.2203 26.773 24.0605 27.0092C24.7647 27.2071 25.1795 27.8486 25.4395 28.4734C25.4898 28.4667 25.5638 28.4463 25.6458 28.3956C25.7638 28.3226 25.8291 28.2294 25.8526 28.1489C25.8703 28.0885 25.8943 27.9401 25.7418 27.6711C25.2866 26.868 25.1924 26.0456 25.4528 25.2555C25.6959 24.5181 26.2137 23.9141 26.767 23.418C27.3278 22.9153 28.0092 22.4505 28.6896 22.0153C29.0116 21.8094 29.3162 21.6205 29.6165 21.4343C29.995 21.1995 30.3669 20.9689 30.7588 20.7134C32.1545 19.8034 33.1228 18.9898 33.4614 18.1479C33.6104 17.7776 33.6435 17.3818 33.4874 16.9011C33.3227 16.3941 32.9318 15.7492 32.1437 14.9546C31.866 14.6747 31.6062 14.3446 31.3996 14.0296C31.2057 13.7339 31.0049 13.3706 30.9147 13.0282C30.8795 12.8946 30.7958 12.5395 30.9527 12.167C31.0481 11.9407 31.2255 11.7286 31.4872 11.601C31.7283 11.4835 31.9599 11.477 32.1173 11.4927C32.4077 11.5218 32.6628 11.6484 32.8368 11.7479C33.0347 11.861 33.2518 12.0132 33.4877 12.1981C33.4833 12.1947 33.4858 12.1958 33.4967 12.2008C33.5316 12.2167 33.653 12.272 33.9168 12.3457C34.2188 12.4302 34.5944 12.5097 35.0052 12.5885C35.1733 12.6208 35.3808 12.659 35.588 12.697C35.8158 12.7389 36.0431 12.7807 36.217 12.8145C36.5806 12.8851 36.9678 12.967 37.2539 13.0669C38.7379 13.5847 40.2971 13.1371 41.641 12.2067C41.6361 12.2002 41.631 12.1935 41.6257 12.1868C41.3105 11.7811 40.7449 11.2523 40.0405 10.6666C39.3501 10.0926 38.5855 9.5116 37.9084 8.99796L37.8268 8.93615C37.2082 8.46696 36.6233 8.0234 36.31 7.73112C35.9063 7.35432 35.8844 6.72153 36.2612 6.31775ZM25.4175 38.142C25.4304 38.1808 25.4424 38.2201 25.4537 38.2598C25.6539 38.9665 25.647 39.4919 25.5951 40.0024C25.5818 40.133 25.5672 40.254 25.5528 40.3728C25.5126 40.704 25.4746 41.0178 25.4746 41.4737C25.4746 42.6683 25.5922 43.8697 25.9932 44.7427C26.1861 45.1629 26.4276 45.4682 26.7191 45.671C27.0034 45.8687 27.3995 46.0141 27.9857 46.0141C31.3976 46.0141 34.1087 48.6902 35.2274 51.2277C36.4385 53.975 37.895 56.2639 40.1036 57.5362C40.4472 57.7342 40.7081 57.8545 40.8991 57.9234C40.8968 57.8941 40.8937 57.8627 40.8898 57.829C40.8342 57.344 40.6524 56.696 40.4192 55.9798C40.337 55.7275 40.2454 55.4583 40.1546 55.1915C40.0079 54.7605 39.8634 54.3358 39.7644 53.9993C39.2524 52.257 38.8794 50.8133 39.0534 49.4555C39.2369 48.0235 39.9971 46.8398 41.3199 45.5062C41.6961 45.1269 42.5537 44.1769 43.2114 43.181C43.5425 42.6797 43.7909 42.2143 43.9162 41.8343C43.9811 41.6374 43.9977 41.5119 43.9997 41.4387C43.9417 41.4097 43.865 41.3752 43.7673 41.3361C43.4543 41.211 43.0356 41.0817 42.5676 40.951C42.2746 40.8691 41.9875 40.7934 41.7069 40.7194C41.5345 40.6739 41.3646 40.6291 41.1973 40.5839C40.8024 40.4772 40.3729 40.3564 40.0945 40.2316C38.839 39.6691 37.9664 38.9216 37.3095 38.3589C37.1172 38.1941 36.9434 38.0452 36.7838 37.9214C36.4149 37.6352 36.0877 37.4387 35.7018 37.3211C35.316 37.2035 34.806 37.1453 34.057 37.2341C33.6097 37.2871 33.068 37.418 32.4262 37.5947C32.2129 37.6534 31.985 37.7183 31.7488 37.7855C31.3081 37.9109 30.8387 38.0445 30.3821 38.1616C28.9947 38.5173 27.3412 38.8329 25.894 38.4161C25.6834 38.3554 25.5269 38.2449 25.4175 38.142ZM44.12 41.5085C44.1197 41.5085 44.1161 41.506 44.11 41.5009C44.1172 41.5059 44.1203 41.5084 44.12 41.5085ZM41.2091 58C41.2091 58 41.2083 58.0001 41.2065 58.0001C41.2082 58 41.209 58 41.2091 58ZM16.8024 31.2356C16.8025 31.2356 16.8039 31.2369 16.8065 31.2395C16.8036 31.2369 16.8023 31.2356 16.8024 31.2356ZM26.9019 36.8277C26.9019 36.8276 26.9018 36.8275 26.9018 36.8273ZM23.9064 28.8821C23.9064 28.8821 23.9062 28.8824 23.9057 28.8828ZM31.784 13.4531C31.784 13.4531 31.7858 13.4538 31.7897 13.4555C31.786 13.4541 31.7841 13.4532 31.784 13.4531Z" fill="black"/>
<path id="Vector 227 (Stroke)" fill-rule="evenodd" clip-rule="evenodd" d="M57.9991 6.52179C58.2632 7.00684 58.0841 7.61414 57.599 7.87825C57.4579 7.95512 57.2262 8.06892 56.9332 8.21281C55.998 8.67216 54.4383 9.43823 53.2054 10.2887C52.8134 10.5591 52.4878 10.817 52.249 11.0515C52.1087 11.1892 52.02 11.2981 51.9656 11.3768C52.066 11.4314 52.2185 11.4961 52.4403 11.5619C53.005 11.7292 53.5429 11.7117 54.2046 11.6329C54.3232 11.6188 54.4497 11.6019 54.5828 11.5841C55.1485 11.5085 55.8344 11.4168 56.5449 11.4548C57.3152 11.496 58.0014 11.9117 58.5073 12.3667C59.029 12.836 59.4756 13.4494 59.7516 14.0902C60.0166 14.7054 60.1901 15.5064 59.9077 16.2575C59.5975 17.0825 58.8611 17.5475 57.9473 17.6775C57.9374 17.6992 57.9251 17.7281 57.9104 17.7659C57.9045 17.7813 57.894 17.8107 57.8803 17.8489C57.8362 17.9719 57.7591 18.1867 57.695 18.3261C57.5904 18.5536 57.3949 18.9005 57.0071 19.1338C56.7073 19.3142 56.4518 19.4912 56.1665 19.6887C55.9473 19.8406 55.7105 20.0045 55.4226 20.1916C54.8271 20.5784 54.1342 20.9738 53.32 21.2202C52.7994 21.3778 51.8028 21.8554 50.8413 22.471C50.3692 22.7732 49.9333 23.0912 49.5884 23.3959C49.4855 23.4867 49.3963 23.5715 49.3197 23.6497C49.6485 23.7133 50.0844 23.7572 50.5943 23.7763C51.3102 23.8029 52.0748 23.778 52.6951 23.7341C53.0045 23.7122 53.2701 23.6861 53.469 23.6608C53.657 23.637 53.7298 23.6203 53.7302 23.6219C53.7303 23.6223 53.725 23.6241 53.7153 23.6275C54.2964 23.4251 55.0157 23.3069 55.7018 23.2083C55.9014 23.1796 56.1002 23.1523 56.2983 23.1251C56.8184 23.0537 57.3342 22.9828 57.8474 22.8889C58.5517 22.76 59.1699 22.6004 59.6614 22.379C60.1517 22.1582 60.4386 21.9106 60.5899 21.6484C60.7495 21.3717 61.0061 20.9405 61.2793 20.5228C61.5343 20.1327 61.8625 19.6617 62.1609 19.3744C62.792 18.7667 63.5889 18.7833 64.1767 18.9333C64.7558 19.0811 65.3307 19.3986 65.8131 19.7062C66.2606 19.9916 66.6984 20.315 67.0585 20.5809C67.0954 20.6082 67.1315 20.6348 67.1667 20.6608C67.3624 20.8051 67.5265 20.9247 67.665 21.0183C67.7333 21.0646 67.7885 21.0998 67.8323 21.1256C67.8761 21.1516 67.8964 21.1609 67.8977 21.1615L67.8978 21.1615C68.2182 21.2986 68.5593 21.4045 68.9356 21.5214C69.0236 21.5487 69.1136 21.5766 69.2056 21.6056C69.6223 21.7372 70.1894 21.9208 70.6034 22.2293C70.8306 22.3986 71.0815 22.6545 71.213 23.0279C71.3498 23.4161 71.313 23.8036 71.1897 24.1433C70.9706 24.7469 70.4298 25.3328 69.7303 25.9355C69.0978 26.4804 68.2671 26.647 67.5683 26.7179C67.0767 26.7678 66.5141 26.7784 65.9903 26.7883C65.7707 26.7925 65.5579 26.7965 65.36 26.8032C63.8239 26.8555 62.9023 27.0783 62.4492 27.8199C62.1059 28.382 61.7038 28.8678 61.3547 29.2898C61.315 29.3378 61.276 29.3849 61.2379 29.4312C60.8485 29.904 60.5269 30.3151 60.2808 30.7891C60.0504 31.2326 59.9989 31.7425 59.9628 32.4816C59.9604 32.5291 59.9582 32.5778 59.9559 32.6276C59.9255 33.2847 59.8861 34.1386 59.5476 34.9534C59.2682 35.6261 59.2201 36.0501 59.2477 36.3108C59.2717 36.5382 59.3587 36.7038 59.5311 36.8712C59.7289 37.0632 60.0357 37.2517 60.4932 37.4646C60.7829 37.5995 61.0727 37.7184 61.3938 37.8502C61.6 37.9348 61.819 38.0247 62.0592 38.1275C62.4704 38.3035 62.9837 38.2754 63.7046 38.0118C64.2381 37.8166 64.7549 37.5466 65.3231 37.2497C65.5507 37.1308 65.7865 37.0076 66.0349 36.8831C66.8076 36.496 67.7802 36.0557 68.745 36.105C69.2673 36.1317 69.7814 36.2992 70.2431 36.6578C70.6919 37.0064 71.0401 37.4955 71.3141 38.0891C71.8665 39.2858 71.8078 40.5186 71.5004 41.6663C71.1975 42.7971 70.6306 43.9278 70.0677 44.9768C69.9301 45.2333 69.7931 45.4844 69.6583 45.7312C69.2224 46.5299 68.8106 47.2843 68.4813 48.0342C68.1661 48.752 67.9622 49.3918 67.8935 49.9667C68.1263 49.9269 68.4139 49.8506 68.7256 49.7334C69.1974 49.556 69.638 49.3174 69.944 49.0694C70.2432 48.8269 70.2784 48.6903 70.2812 48.691C70.2816 48.6911 70.2813 48.6941 70.2811 48.7002C70.3105 47.9917 70.7652 47.396 71.1479 46.9959C71.571 46.5536 72.1155 46.1372 72.6681 45.7832C73.2247 45.4266 73.824 45.1112 74.3776 44.8815C74.8973 44.6659 75.4919 44.4764 76 44.4764C76.5523 44.4764 77 44.9241 77 45.4764C77 46.0287 76.5523 46.4764 76 46.4764C75.9046 46.4764 75.6141 46.5338 75.1441 46.7288C74.7079 46.9098 74.2127 47.1688 73.747 47.4672C73.2772 47.7682 72.8714 48.0875 72.5931 48.3784C72.3243 48.6595 72.2838 48.7995 72.2794 48.7984C72.2785 48.7981 72.2789 48.7931 72.2793 48.7832C72.2448 49.6141 71.6821 50.2352 71.2031 50.6233C70.6872 51.0414 70.0427 51.3749 69.4294 51.6054C68.8236 51.8332 68.1605 51.9934 67.5928 51.9998C67.3193 52.0029 66.965 51.9725 66.6383 51.8115C66.256 51.6231 65.9109 51.2435 65.8769 50.6878C65.804 49.4939 66.1751 48.3118 66.6501 47.2301C67.0174 46.3934 67.4865 45.5345 67.9308 44.7211C68.0587 44.4868 68.1846 44.2563 68.3054 44.0312C68.8658 42.987 69.3311 42.035 69.5685 41.1489C69.8013 40.2796 69.7908 39.5612 69.4982 38.9273C69.3153 38.5311 69.142 38.335 69.0163 38.2373C68.9034 38.1497 68.7899 38.1099 68.643 38.1024C68.2693 38.0833 67.7371 38.2674 66.9306 38.6713C66.7529 38.7604 66.5608 38.8607 66.3589 38.9663C65.7533 39.2829 65.0584 39.6462 64.3916 39.8901C63.4762 40.2249 62.3707 40.4362 61.2724 39.9662C61.094 39.8898 60.9006 39.8102 60.7029 39.7289C60.3446 39.5814 59.9722 39.4282 59.6493 39.2779C59.1301 39.0362 58.5794 38.7346 58.1381 38.3063C57.6716 37.8534 57.3379 37.2687 57.2588 36.5213C57.1832 35.8071 57.3494 35.0317 57.7007 34.1861C57.9006 33.7048 57.9263 33.1778 57.9631 32.4248L57.9651 32.3838C57.9999 31.6746 58.0491 30.7469 58.5058 29.8674C58.8578 29.1897 59.3003 28.6378 59.6941 28.1597C59.7324 28.1132 59.7702 28.0674 59.8074 28.0223C60.1679 27.5858 60.4779 27.2104 60.7425 26.7772C61.8154 25.0212 63.8573 24.8532 65.292 24.8044C65.5641 24.7951 65.8174 24.7905 66.0569 24.7861C66.5351 24.7773 66.9583 24.7695 67.3664 24.7281C67.9777 24.6661 68.2801 24.5449 68.4249 24.4202C68.7997 24.0973 69.0219 23.8621 69.1504 23.7031C69.0211 23.6509 68.8437 23.5887 68.6036 23.5129C68.5333 23.4907 68.4585 23.4675 68.38 23.4433C68.0002 23.3258 67.5367 23.1824 67.1109 23.0002C66.7733 22.8558 66.3482 22.5422 66.0086 22.2918L65.9799 22.2706C65.9451 22.245 65.9101 22.2191 65.875 22.1932C65.507 21.9216 65.1242 21.6389 64.7378 21.3926C64.3035 21.1156 63.9457 20.9384 63.6823 20.8713C63.5994 20.8501 63.5483 20.8445 63.5196 20.844C63.4 20.9706 63.1966 21.2449 62.9532 21.6172C62.7073 21.9933 62.4709 22.3903 62.3222 22.648C61.887 23.4022 61.1933 23.8825 60.4828 24.2026C59.7734 24.5221 58.9705 24.7166 58.2075 24.8562C57.6468 24.9588 57.0636 25.0389 56.53 25.1122C56.3416 25.138 56.1594 25.163 55.9865 25.1879C55.2869 25.2885 54.7482 25.3856 54.3731 25.5163C54.1875 25.5809 53.9242 25.6191 53.7209 25.6449C53.4772 25.6758 53.1737 25.7052 52.8364 25.7291C52.1632 25.7767 51.3244 25.8048 50.5198 25.7749C49.7441 25.746 48.8933 25.6605 48.2578 25.4311C47.9543 25.3215 47.5386 25.1239 47.2638 24.7365C46.92 24.2519 46.9389 23.6883 47.1685 23.2216C47.4124 22.7258 47.8374 22.2739 48.2645 21.8967C48.7085 21.5046 49.2333 21.1256 49.7629 20.7866C50.8046 20.1197 51.9754 19.5375 52.7407 19.306C53.2929 19.1388 53.8033 18.8585 54.3331 18.5144C54.5106 18.3991 54.7164 18.2577 54.9322 18.1095C55.2471 17.8932 55.5835 17.6622 55.8846 17.4759C55.9114 17.4162 55.9258 17.3743 55.9474 17.3118C55.9679 17.2525 55.9949 17.1745 56.0449 17.0451C56.1222 16.845 56.2551 16.5345 56.5076 16.2626C56.7882 15.9605 57.1659 15.7579 57.6306 15.702C57.8584 15.6746 57.9627 15.6197 57.9996 15.5946C58.0272 15.5758 58.031 15.566 58.0356 15.5537C58.0582 15.4935 58.0834 15.273 57.9148 14.8814C57.7571 14.5154 57.4846 14.1368 57.1698 13.8536C56.8391 13.5562 56.5713 13.4591 56.4381 13.4519C55.9317 13.4248 55.4777 13.4846 54.9332 13.5563C54.7776 13.5767 54.6147 13.5982 54.441 13.6189C53.6988 13.7072 52.8334 13.7643 51.8722 13.4795C51.2539 13.2963 50.6775 13.0233 50.301 12.5701C49.8602 12.0394 49.8102 11.4096 50.0015 10.8555C50.1689 10.3701 50.5111 9.95498 50.8477 9.62446C51.1989 9.27966 51.6259 8.94862 52.0698 8.64241C53.4632 7.68121 55.3597 6.75326 56.2229 6.33087C56.428 6.23052 56.5747 6.15871 56.6426 6.12176C57.1276 5.85765 57.7349 6.03675 57.9991 6.52179ZM55.8603 17.5247C55.8603 17.5246 55.861 17.5234 55.8624 17.5213C55.8611 17.5237 55.8603 17.5247 55.8603 17.5247ZM63.4891 20.8475C63.4885 20.8468 63.493 20.845 63.5046 20.8443C63.4955 20.8478 63.4897 20.8482 63.4891 20.8475ZM69.4149 23.8382C69.4149 23.8382 69.4146 23.838 69.4141 23.8375Z" fill="black"/>
<path id="Vector 228 (Stroke)" fill-rule="evenodd" clip-rule="evenodd" d="M71.6528 21.9079C71.7037 21.358 72.1907 20.9534 72.7406 21.0043C73.0003 21.0283 73.3186 21.0531 73.684 21.0817C75.6581 21.236 79.0063 21.4976 81.8966 22.3109C83.6052 22.7917 85.2907 23.4992 86.4581 24.596C87.6894 25.7529 88.3118 27.3225 87.845 29.28C87.5749 30.4124 86.844 31.267 86.0603 31.8967C85.2755 32.5273 84.3652 32.9914 83.5993 33.3301C75.6181 36.86 66.7239 38.7855 58.178 40.6356C56.1032 41.0848 54.0489 41.5296 52.0332 41.9917C42.337 44.2149 32.7608 45.3896 22.8679 45.9357C20.5422 46.0641 18.2796 45.9807 16.0582 45.8564C15.4661 45.8232 14.8788 45.7873 14.2942 45.7516C12.6701 45.6523 11.0663 45.5542 9.43464 45.5199C8.74729 45.5055 7.60935 45.2329 6.62384 44.8222C6.12052 44.6125 5.60115 44.3442 5.17097 44.0136C4.76156 43.6989 4.30373 43.2287 4.15801 42.5817C3.51666 39.7343 4.9105 37.1412 6.65869 35.1008C8.4244 33.04 10.7288 31.3318 12.3451 30.1911C12.7963 29.8726 13.4203 29.9802 13.7387 30.4315C14.0572 30.8827 13.9496 31.5066 13.4983 31.8251C11.895 32.9567 9.76905 34.5445 8.17747 36.4021C6.56837 38.2801 5.67796 40.2279 6.10913 42.1423C6.1086 42.1399 6.10831 42.1387 6.10845 42.1386C6.10975 42.1381 6.1504 42.2439 6.3898 42.4279C6.6333 42.615 6.98137 42.8045 7.39319 42.9761C8.23795 43.3282 9.121 43.5129 9.47662 43.5204C11.1518 43.5556 12.8142 43.6572 14.4505 43.7573C15.0271 43.7925 15.6005 43.8276 16.17 43.8595C18.3716 43.9827 20.5453 44.0608 22.7577 43.9387C32.5622 43.3976 42.0227 42.2351 51.5862 40.0423C53.6569 39.5675 55.7488 39.1143 57.8472 38.6596C66.3763 36.8117 75.0148 34.94 82.7903 31.501C83.492 31.1907 84.2205 30.8094 84.8075 30.3377C85.3957 29.8651 85.7697 29.3604 85.8995 28.816C86.1865 27.6126 85.8412 26.7608 85.0886 26.0536C84.272 25.2864 82.9574 24.6871 81.3549 24.2362C78.6784 23.483 75.5808 23.2385 73.5845 23.0809C73.1965 23.0503 72.8501 23.0229 72.5564 22.9958C72.0065 22.9449 71.6019 22.4578 71.6528 21.9079Z" fill="black"/>
<path id="Vector 232 (Stroke)" fill-rule="evenodd" clip-rule="evenodd" d="M14.6519 30.3845C14.9918 30.8197 14.9146 31.4481 14.4793 31.7881C14.3443 31.8936 14.2093 31.9989 14.0745 32.104C10.7004 34.7359 7.45031 37.2711 5.62696 40.8603C5.37187 41.3625 4.90228 42.0306 4.45911 42.661C4.30859 42.8751 4.16112 43.0849 4.02613 43.2824C3.7384 43.7034 3.4844 44.0972 3.29727 44.4456C3.09844 44.8159 3.02867 45.0392 3.01807 45.1382C2.94672 45.8054 3.09201 46.313 3.3542 46.7225C3.62663 47.148 4.06209 47.5228 4.6443 47.8369C5.82541 48.4743 7.42476 48.7613 8.75629 48.7887C9.82487 48.8106 10.8911 48.8356 11.9553 48.8605C19.618 49.0403 27.174 49.2176 34.7276 48.2158C45.3146 46.8116 56.2216 44.608 66.5203 41.8205C70.3936 40.7721 75.3968 38.6064 80.4831 36.303C81.4221 35.8778 82.3639 35.4479 83.3007 35.0203C87.3965 33.1506 91.397 31.3245 94.6537 30.1224C95.1719 29.9312 95.7469 30.1962 95.9381 30.7143C96.1294 31.2324 95.8644 31.8075 95.3463 31.9987C92.1669 33.1722 88.2565 34.957 84.1643 36.8247C83.2197 37.2559 82.2654 37.6914 81.3082 38.1249C76.246 40.4173 71.0974 42.6535 67.0428 43.751C56.6605 46.5611 45.6668 48.7824 34.9905 50.1984C27.2712 51.2222 19.5488 51.0403 11.901 50.8601C10.8376 50.835 9.77561 50.81 8.71528 50.7882C7.19811 50.7571 5.25197 50.4375 3.69449 49.597C2.90742 49.1723 2.17531 48.5903 1.66987 47.8009C1.15418 46.9955 0.911297 46.03 1.02941 44.9255C1.08274 44.4269 1.30824 43.9222 1.53527 43.4994C1.77399 43.0549 2.07643 42.5906 2.37498 42.1539C2.56454 41.8765 2.74753 41.6161 2.91807 41.3733C3.32342 40.7964 3.65838 40.3196 3.84385 39.9545C5.8752 35.9558 9.45407 33.1679 12.7338 30.613C12.9062 30.4787 13.0778 30.3451 13.2482 30.2119C13.6835 29.8719 14.3119 29.9492 14.6519 30.3845Z" fill="black"/>
<path id="Vector 230 (Stroke)" fill-rule="evenodd" clip-rule="evenodd" d="M16.8708 26.9344C16.6962 26.991 16.5339 27.0448 16.4236 27.0831C15.8978 27.2658 15.2123 27.4251 14.6253 27.5615C14.3669 27.6216 14.1277 27.6772 13.9295 27.7284C11.0139 28.4818 8.20398 29.4556 5.37241 30.437C4.47501 30.748 3.57544 31.0598 2.66964 31.3655C2.14636 31.5421 1.57898 31.2611 1.40235 30.7378C1.22572 30.2146 1.50674 29.6472 2.03002 29.4705C2.90179 29.1763 3.77955 28.872 4.66384 28.5655C7.5119 27.5783 10.4277 26.5676 13.4292 25.792C13.7377 25.7122 14.0389 25.6427 14.329 25.5758C14.852 25.4551 15.3388 25.3428 15.7672 25.1939C16.0697 25.0888 16.6819 24.8925 17.0179 24.7923C17.0982 24.7683 17.1824 24.7439 17.2452 24.7283C17.2617 24.7242 17.2872 24.7181 17.3161 24.7124C17.3303 24.7096 17.354 24.7052 17.3828 24.7013L17.3833 24.7013C17.4018 24.6988 17.47 24.6896 17.5564 24.6926C17.5941 24.6939 17.7001 24.6989 17.8282 24.74C17.9208 24.7697 18.2999 24.9058 18.4621 25.3484C18.6306 25.808 18.4113 26.1665 18.347 26.26C18.2658 26.378 18.1783 26.4498 18.1482 26.474C18.0783 26.5301 18.0156 26.5644 17.9989 26.5735L17.9984 26.5739C17.9722 26.5882 17.9499 26.599 17.9364 26.6053C17.8267 26.6569 17.5683 26.7491 17.1951 26.8787C17.0878 26.916 16.9784 26.934 16.8708 26.9344Z" fill="black"/>
<path id="Vector 231 (Stroke)" fill-rule="evenodd" clip-rule="evenodd" d="M20.9487 19.6838C21.1233 20.2077 20.8402 20.774 20.3162 20.9487L5.31622 25.9487C4.79228 26.1233 4.22596 25.8402 4.05131 25.3162C3.87667 24.7923 4.15983 24.226 4.68377 24.0513L19.6838 19.0513C20.2077 18.8767 20.774 19.1598 20.9487 19.6838Z" fill="black"/>
</g>
</svg>
