<?xml version="1.0" encoding="utf-8"?>
<!-- Generator: Adobe Illustrator 21.0.0, SVG Export Plug-In . SVG Version: 6.00 Build 0)  -->
<svg width='200' height='400' version="1.1" id="Layer_1" xmlns:svg="http://www.w3.org/2000/svg"
	 xmlns="http://www.w3.org/2000/svg" xmlns:xlink="http://www.w3.org/1999/xlink" x="0px" y="0px" viewBox="0 0 699.5 699"
	 style="enable-background:new 0 0 699.5 699;" xml:space="preserve">
<style type="text/css">
	.blue{fill:blue;stroke:#000000;stroke-width:3;stroke-linecap:square;stroke-miterlimit:10;}
	.movementSpeed{font-size: 30px;}
	.movementVelocity{font-size: 30px;}
	.totalMovement{font-size: 30px;}
</style>
<g id="slider_movementSpeed" class="goo">
</g>
<g id="slider_movementVelocity">
</g>

<text id='movementSpeed' x='50' y='-100'></text>

<text id='movementVelocity' x='50' y='-50'></text>
<text id='totalMovement' x='50' y='0'></text>


<rect xmlns="http://www.w3.org/2000/svg" id="isotypePlaceHolder" x="0.5" y="100" width="200" height="300" fill="white" stroke="black"/>

<g id="handRight" transform="matrix(0.8746401,0,0,-0.8518511,33.878521,592.87107)">
	<polygon id="polygon2401" points="318.9,470.2 318.8,469.9 318.7,469.4 318.6,469 318.6,468.9 318.6,468.8 318.6,468.8 
		318.5,468.7 318.6,468.8 318.6,468.9 318.6,468.9 318.6,469 318.6,469.2 318.7,469.4 318.8,469.6 	"/>
	<polyline id="polyline2403" class="blue" points="200.1,543.6 200,545.3 199.8,546.8 199.8,548.4 199.7,549.8 199.8,551.3 
		199.8,552.7 200.1,555.4 200.6,558.1 200.9,559.4 201.2,560.6 201.7,561.9 202.1,563 202.6,564.2 203.1,565.2 204.4,567.4 
		205.1,568.4 205.8,569.4 206.7,570.4 207.5,571.3 208.4,572.2 209.3,572.9 210.3,573.8 211.3,574.6 213.5,576 215.9,577.4 
		217.2,578 218.5,578.6 229.4,579.3 231.3,578.9 233.4,578.3 235.3,577.7 236.2,577.4 236.9,577.1 238.1,576.4 238.6,576.2 
		238.9,575.8 240.1,575 242.9,571.2 243.9,568.7 244.9,565.9 245.4,564.4 245.8,563.1 246.2,561.9 246.5,560.7 246.8,559.6 
		247.1,558.5 247.4,557.6 247.6,556.7 247.9,555.9 248.1,555.1 248.3,554.4 248.5,553.9 248.7,553.4 248.8,552.9 248.9,552.6 
		249,552.3 249.9,549.7 250.6,547 251.2,544.3 251.5,541.6 252,541.4 252.2,540.9 252.3,540.1 252.5,539.3 252.7,538.4 252.9,537.5 
		253.2,536.5 253.5,535.4 253.7,534.3 254.1,533.1 254.5,531.8 254.9,530.5 255.3,529.1 255.8,527.6 256.2,526.1 256.8,524.4 
		257.3,522.8 258.4,519.4 259.5,516.2 260.6,513.2 261.7,510.2 265,498.2 264.9,496.7 265.2,495.4 265.5,493.9 265.7,493 
		265.9,492.1 266.3,489.9 266.8,487.7 267.1,486.5 267.3,485.2 267.9,482.4 268.5,479.3 268.9,477.7 269.3,476 270.1,472.4 
		270.5,470.7 270.9,468.7 271.4,466.8 271.8,464.7 272.3,462.6 272.7,460.4 273.7,455.9 274.3,453.6 274.8,451.1 275.9,446.1 
		278.2,435.9 280.5,426.1 281.6,421.2 282.7,416.4 284.8,406.9 286.7,400.4 288.7,393.9 289.8,390.7 290.9,387.4 292.1,384.3 
		292.7,382.7 293,381.9 293.1,381.4 293.2,381 295.8,375.7 296.4,374.7 296.9,373.9 297.2,373.6 297.4,373.3 297.6,373.1 
		297.7,372.9 298.2,372.8 298.3,372.8 298.4,372.7 298.6,372.6 298.9,372.6 299.1,372.6 299.2,372.6 299.5,372.6 299.6,372.6 
		299.7,372.5 300.4,372.6 301,372.7 301.7,372.9 302.4,373.2 302.9,373.4 303.3,373.6 303.8,373.9 304,374 304.1,374.1 304.3,374.2 
		305,374.7 308.7,382.8 310.8,392.3 312.7,401.7 314.3,411.1 315.7,420.3 316.9,429.6 317.9,438.7 318.6,447.8 319.1,456.8 
		318.8,457.4 319.8,481.6 320.3,488.7 321,495.2 321.7,501.7 322.4,508.2 323.3,514.7 324.2,521.2 325.3,527.6 326.4,534.1 
		327.5,540.4 327.6,540.6 327.6,540.8 327.7,540.9 327.7,540.9 327.7,541 327.7,541.3 327.8,541.7 327.8,541.8 327.8,541.9 
		327.8,541.9 327.8,542.2 327.9,542.7 327.9,543.3 328.2,545.6 328.4,547.6 328.5,548.4 328.6,549.4 328.8,551.4 328.9,552 
		328.9,552.3 328.9,552.6 329,553.7 329.2,556.1 329.5,558.8 329.7,560.2 329.8,561.7 330,563.2 330.1,564 330.1,564.4 330.1,564.8 
		330.4,568.1 330.8,571.1 331,574 331.3,576.8 331.5,579.4 331.7,581.9 331.8,584.3 332,586.5 332,588.6 332.4,594.3 332.8,599.9 
		333.2,605.4 333.8,611 334.3,613.8 334.9,616.6 335.3,617.9 335.7,619.3 336.7,621.9 337.5,623.4 338.3,624.9 339.1,626.3 
		340,627.5 341,628.8 342,629.9 343,631.1 344.1,632.1 345.3,633.1 346.5,634 347.7,634.9 349,635.6 350.4,636.4 351.9,636.9 
		353.4,637.6 354.9,638 356.5,638.4 358,638.7 359.6,638.8 361.1,638.7 362.6,638.6 364,638.2 365.5,637.7 366.9,636.9 369.1,635.8 
		371.1,634.4 373,632.9 374.6,631.4 376.2,629.8 377.5,628 378.7,626.2 379.7,624.1 380.6,622.1 381,621 381.3,619.9 381.9,617.6 
		382.2,615.2 382.4,612.7 382.4,610.1 382.4,608.8 382.3,607.4 382,604.5 382.6,596.8 383,589.1 383.4,581.5 383.7,573.9 
		383.8,570.3 383.8,566.5 383.6,562.8 383.4,558.9 383.2,555 383,550.9 382.8,546.6 382.5,542 382.4,539.8 382.3,537.7 382.2,535.6 
		382.1,533.5 382.1,531.6 382,529.7 381.9,527.9 381.8,526.2 381.8,524.6 381.8,522.9 381.8,521.4 381.7,520 381.7,518.7 
		381.7,517.4 381.7,516.2 381.7,515.6 381.6,515 381.6,514.7 381.6,514.1 381.6,513.4 381.5,512.4 381.4,511.4 381.3,510.2 
		381.1,508.9 380.9,507.3 380.8,505.7 380.8,505 380.7,504.3 380.6,503.1 380.6,502.8 380.5,502.5 380.4,501.9 380.4,501.4 
		380.4,500.9 380.3,500.2 380.3,499.5 380.3,499.3 380.2,498.9 380.2,498.8 380.5,494.6 380.6,490.4 380.5,486.1 380.2,481.8 
		380.1,480.1 379.9,478.1 379.8,476.1 379.6,473.9 379.5,471.8 379.3,469.4 379.1,466.9 378.9,464.4 378.8,461.7 378.6,458.9 
		378.5,456.1 378.3,453.1 378.2,450 378,446.8 377.8,443.4 377.6,440 377.5,436.6 377.3,433.3 377.2,430 377,426.8 376.9,423.7 
		376.8,422.2 376.7,420.6 376.6,417.7 376.6,416.9 376.6,416.6 376.6,416.2 376.5,414.7 376.4,412.5 376.4,411.4 376.4,410.9 
		376.4,410.3 376.3,405.9 376.4,403.7 376.5,401.5 376.6,397.2 377,393 377.5,388.7 378.1,384.4 378.8,380 379.2,378.7 382.8,364.2 
		387.2,359.8 387.7,359.7 388.1,359.8 388.3,359.9 388.5,360.1 388.9,361.3 389.2,362.4 389.6,363.8 390,365.2 390.5,366.7 
		390.9,368.2 391.4,369.9 391.9,371.6 392.2,372.5 392.4,373.4 392.9,375.4 393.5,377.4 394,379.4 394.6,381.7 395.2,383.9 
		395.8,386.3 396.4,388.7 401,406.9 401.5,407.2 403,412.7 404.3,417.9 405.6,422.8 406.8,427.4 407.9,431.9 409,436 410,439.9 
		410.9,443.5 411.8,446.8 412.6,449.8 413.4,452.6 414.1,455.3 414.8,457.8 415.4,460.1 416,462.3 416.6,464.2 417.1,466.1 
		417.6,467.7 418.1,469.2 418.5,470.4 418.9,471.7 419.2,472.6 419.5,473.4 419.8,473.9 420.3,474.3 421.1,480.6 421.9,486.7 
		423,492.8 424.1,498.7 425.5,504.7 426.9,510.5 428.6,516.4 430.3,522.1 432.3,527.8 434.4,533.4 436.7,539 439,544.4 441.6,549.9 
		444.3,555.3 447.1,560.6 450.1,565.8 451,567.1 452,568.1 453.1,569.1 454.3,569.9 455.5,570.7 456.9,571.3 458.3,571.9 
		459.7,572.3 461.7,572.8 463.5,573.1 465.4,573.3 467.1,573.3 468.8,573.2 470.4,572.9 472,572.4 473.5,571.9 475.1,571.2 
		476.5,570.4 477.9,569.4 479.2,568.3 480.5,567 481.7,565.6 482.9,564.1 483.9,562.3 484.9,560.3 485.2,558.9 485.5,557.2 
		485.7,555.4 485.8,553.4 486,551.4 486,549 486.1,546.5 486,543.8 486,541.2 485.9,538.6 485.8,536.2 485.7,533.8 481.5,505.4 
		481.1,505.1 480.4,501.2 479.7,497.4 479.4,495.6 479.2,494.7 479,493.7 478.7,491.9 478.7,491.6 478.6,491.1 478.4,490.2 
		478.3,489.4 478.2,489 478.1,488.6 477.8,486.9 477.3,483.8 477.1,482.3 476.9,480.8 476.7,479.3 476.6,478.6 476.6,478.4 
		476.5,478.3 476.4,477.9 476,474.3 475.6,470.7 475.4,469 475.2,467.3 474.9,463.8 474.7,460.5 474.7,458.9 474.6,457.3 
		474.5,454.1 474.5,452.6 474.4,450.9 472.2,435.3 471.9,433.2 471.6,431.2 471.3,429.2 471.3,429 471.2,428.8 471.1,428.3 
		470.9,427.3 470.6,425.4 470.3,423.6 470,421.9 469.9,421.1 469.7,420.3 469.6,419.5 469.4,418.7 469.1,417.2 468.5,414.4 
		468.3,413.1 468,411.9 467.9,411.3 467.8,410.7 467.5,409.6 467.2,408.2 466.9,406.6 466.5,404.7 466.1,402.6 465.7,400.4 
		465.3,397.9 464.8,395.1 464.3,392.1 463.9,389.4 463.7,388.2 463.4,386.9 463,384.5 462.8,383.4 462.7,382.9 462.6,382.3 
		462.2,380.2 461.8,378.3 461.4,376.4 461.2,375.7 461.1,375.3 461,375.1 460.9,374.8 460.8,373.8 460.7,372.9 460.6,372.1 
		460.5,371.4 460.5,370.9 460.4,370.4 460.4,370.1 460.3,369.9 460.2,369.4 460.1,368.9 460,368.2 459.9,367.4 459.8,366.7 
		459.7,365.8 459.4,363.7 459.2,361.6 459,359.7 457.6,354.9 456.3,350.1 455.2,345.1 454.2,339.9 453.4,334.8 452.7,329.5 
		452.2,324.2 451.9,318.6 452.6,317.8 454.8,317.6 456.7,318.2 458.7,319.5 460.5,320.8 464.2,323.4 466,324.9 467.7,326.4 
		469.4,327.9 471,329.4 474.2,332.7 477.3,336.1 478.8,337.9 480.2,339.7 482.9,343.4 485.3,345.3 487.6,347.3 489.7,349.3 
		491.8,351.3 493.8,353.5 495.7,355.8 497.5,358.1 499.2,360.4 511.4,375.9 511.4,376.6 518.1,384.7 518.7,384.8 524.3,391.9 
		529.8,399.1 535.3,406.3 540.7,413.6 541.6,415 542.5,416.4 543.3,417.8 544,419.2 544.5,419.9 544.9,420.6 545.3,421.3 545.6,422 
		546.5,423.9 547.3,425.7 548.3,427.4 549.2,429.1 550.3,430.6 551.4,432.1 552.6,433.4 553.8,434.7 555.1,435.9 556.5,437.1 
		557.9,438.1 559.4,439.1 561,440 562.6,440.8 564.3,441.5 566,442.1 567.9,442.6 569.7,442.8 571.5,442.7 573.3,442.4 574.9,441.9 
		576.3,441.4 577.8,440.8 579.1,439.9 580.4,439 581.5,437.9 582.7,436.8 583.7,435.5 585.4,433.1 586.7,430.4 587.7,428.1 
		588.3,425.7 588.9,422.9 589.1,421.4 589.2,420 589.2,417.2 589.1,415.8 588.9,414.4 588.5,411.6 587.7,408.8 587.2,407.4 
		586.7,406 585.3,403.2 580.2,393.4 577.7,388.6 575.1,383.9 570,374.6 569.4,373.4 569.1,372.9 568.8,372.3 567.5,370 564.9,365.5 
		562.4,361.1 559.8,356.8 554.7,348.3 552.2,344.1 549.6,340 547.1,335.9 544.5,331.9 543.7,330.4 542.1,328 540.4,325.7 
		538.6,323.4 536.7,321.3 534.7,319.2 532.6,317.3 530.5,315.4 528.2,313.6 527.6,312.4 527,311.2 526.2,310.1 525.3,309 
		523.8,307.4 522.4,305.7 519.6,302.2 517.1,298.5 514.7,294.7 512.6,290.7 510.7,286.6 509,282.3 508.2,280.1 507.5,277.8 
		506.6,275.2 506.4,274.5 506.3,274.2 506.3,274.2 506.3,274.1 506.2,273.9 506,273.3 505.7,272.7 505.7,272.5 505.6,272.2 
		505.4,271.8 505,271 504.6,270.3 504.5,270 504.3,269.6 504,269 503.9,268.8 503.7,268.5 503.4,267.4 503.2,266.3 503.1,266 
		503,265.8 502.9,265.3 502.9,265.2 502.9,265.2 502.8,265.1 502.7,264.8 502.5,264.4 501.8,263.1 501,261.9 500.2,260.8 
		499.3,259.9 499.1,258.9 498.9,257.6 498.7,256.3 498.4,254.7 498.2,253.1 497.8,251.3 497.5,249.3 497.1,247.2 496.7,244.8 
		496.5,243.8 496.3,242.9 496.2,242 496,241.1 495.9,240.4 495.7,239.7 495.6,239 495.4,238.4 495.4,238.2 495.4,238.1 495.4,238.1 
		495.4,238 495.3,237.5 495.3,237.4 495.2,237.2 495.1,236.8 495,236.4 495,236.3 495,236.3 493.7,228.2 489.6,207.5 489.1,204.6 
		489,204 488.8,203.3 488.5,201.9 488.3,200.6 488.2,199.9 488.1,199.2 487.6,196.6 487.2,194.1 486.7,191.6 486.3,189.3 
		486.1,188.1 485.8,186.9 485.8,186.4 485.7,185.9 485.5,184.8 485.1,182.7 484.8,180.6 484.8,180.4 484.7,180.2 484.6,179.7 
		484.4,178.7 484.1,176.8 483.8,175 483.6,173.3 483.3,171.7 482.9,171.3 481.2,159.5 480.9,159.1 480.9,158.9 480.8,158.6 
		480.7,158.1 480.5,157.1 480.1,155.1 479.3,151.2 477.7,143.5 477,139.7 476.2,136 475.5,132.4 474.7,128.8 474.5,127.7 
		474.2,126.6 473.8,125.5 473.4,124.4 472.9,123.4 472.4,122.4 471.8,121.4 471.2,120.3 469.6,117.6 468.1,114.9 466.9,112.2 
		466.3,110.9 465.8,109.5 465,106.8 464.4,104 464,101.3 463.8,98.5 463.9,95.8 464,94.4 464.2,93 464.7,90.3 465,88.9 465.3,87.5 
		466.2,84.8 467.3,82 468,80.6 468.7,79.2 470.2,76.4 472.9,70 473.6,68.4 474.3,66.8 475,65.3 475.5,63.9 476.1,62.7 476.6,61.6 
		477,60.6 477.4,59.7 477.8,58.8 477.9,57.8 477.7,56.8 477.3,55.7 476.7,54.7 475.8,53.5 474.6,52.4 473.2,51.2 471.6,50 
		469.7,48.7 467.6,47.5 465.2,46.1 462.6,44.8 459.7,43.4 456.6,42 453.2,40.6 450.3,39.4 447.2,38.2 444,37 440.6,35.7 437.1,34.5 
		433.5,33.3 429.7,32 425.8,30.7 421.8,29.5 417.6,28.2 413.3,26.9 408.8,25.6 404.3,24.3 399.6,23 394.7,21.7 389.7,20.3 
		385.4,19.2 381.1,18.1 379,17.6 378.5,17.5 378,17.3 376.9,17 372.6,15.9 368.4,14.9 364.2,13.9 363.2,13.7 362.7,13.6 362.1,13.4 
		360,12.9 355.9,11.9 353.9,11.5 352.9,11.3 352.4,11.2 351.8,11.1 347.8,10.2 343.8,9.3 339.7,8.4 339.3,8.4 338.8,8.3 337.8,8.1 
		335.8,7.7 331.8,6.9 327.9,6.1 324,5.3 320.7,4.7 319.1,4.5 317.5,4.2 314.5,3.7 311.6,3.2 310.3,3 308.9,2.8 308.3,2.8 307.7,2.7 
		306.4,2.5 304.1,2.2 302,1.9 301,1.8 300,1.7 299.1,1.7 298.3,1.6 297.5,1.6 296.8,1.5 296.2,1.5 295.6,1.5 295.1,1.6 294.6,1.6 
		293.9,1.7 293.7,1.8 293.5,1.9 293.4,2 293.3,2.1 293.2,2.2 292.9,3.3 292.5,4.3 292.1,5.2 291.6,6.2 291.1,7.2 290.5,8.3 
		289.2,10.7 288.6,12 287.8,13.3 287.1,14.7 286.3,16.2 285.5,17.8 284.6,19.4 283.8,21.1 282.8,22.8 281.9,24.6 280.8,26.5 
		273.4,40.5 271.6,41.6 270.7,42.1 269.7,42.6 266.1,44.8 262.6,47 260.9,48.1 259.1,49.2 257.8,49.8 257.1,50.1 256.4,50.4 
		255.8,50.7 255.2,51 253.9,51.6 253.4,52 252.8,52.4 251.6,53.1 250.5,53.8 249.4,54.6 249.2,54.8 249,55 248.5,55.4 248.3,55.7 
		248,55.9 247.5,56.3 246.7,57.2 245.8,58.1 245,59.1 244.3,60.1 243.6,61.1 242.9,62.2 239.6,65.4 230.7,74.2 222.5,83.2 
		215.6,90.1 196.1,112.3 194.1,114.3 189.7,118.3 188,119.9 184.1,123.7 180.2,127.4 176.2,131.1 172.2,134.5 171.7,134.6 
		156.8,150 149.3,163.5 144.9,178 143.4,181.7 141.2,187.9 140.1,190.9 138.7,193.8 137.4,196.7 135.9,199.5 134.3,202.3 132.7,205 
		129.2,210.3 127.4,212.9 125.4,215.4 123.4,217.9 121.3,220.3 119.1,222.7 116.8,225 116.7,225.2 116.5,225.5 116.3,225.8 
		116.1,226.1 115.9,226.4 115.5,226.8 114.9,227.8 114.5,228.3 114,228.9 113.5,229.6 113,230.3 112.4,231 111.8,231.8 110.5,233.6 
		109.9,234.5 109.3,235.3 108.7,236.2 108.2,236.9 107.1,238.4 106.3,239.7 105.5,241 104.8,242.1 104.2,243.1 	"/>
	<polyline id="polyline2405" class="st0" points="104.2,243.1 103.5,244.7 102.7,246.3 101.9,247.8 100.9,249.3 100,250.7 99,252.1 
		96.8,254.6 91.8,260 89.3,262.6 86.7,265.2 81.6,270.2 76.2,275.2 70.9,280 65.3,284.7 59.7,289.3 53.9,293.7 53.4,294.6 
		52.9,295.4 52.6,296 52.5,296.3 52.4,296.4 52.2,297.3 52,298.1 51.8,298.9 51.7,299.7 51.7,301.6 51.9,303.4 52.1,304.4 
		52.4,305.3 52.7,306.2 53,307 53.7,308.3 54.5,309.4 55.3,310.6 56.1,311.5 57.1,312.4 58.1,313.2 59.1,313.9 60.2,314.4 
		64.3,316.3 68.3,317.9 72.4,319.2 76.4,320.2 80.5,320.9 82.6,321.3 84.6,321.4 88.7,321.7 92.7,321.6 96.8,321.4 100.9,320.8 
		105,320.1 107,319.6 109,318.9 113.1,317.7 117.2,316.1 121.3,314.3 125.4,312.1 127,311.3 128.7,310.4 130.4,309.5 132.2,308.4 
		134.1,307.5 135,307.1 135.8,306.6 137.3,305.7 138.7,304.8 140.1,304 140.7,303.7 141.3,303.3 142.3,302.6 142.8,302.3 
		143.2,301.9 147.6,297 151.3,290 155.4,277 156.7,274.8 157,274.3 157.3,273.9 157.5,273.5 157.7,273.1 157.8,272.9 157.9,272.7 
		158,272.5 158,272.4 160.8,268.1 163.5,264.8 167.6,260.8 168.9,259.4 170.4,258 172.1,256.4 174,254.7 175.1,253.8 176.2,252.9 
		178.5,251 181,249 183.7,246.9 187.3,244.2 191,241.5 194.1,239.4 202.2,239.1 204.9,241.6 207.5,244.1 210,246.7 212.4,249.3 
		214.7,252.1 216.9,254.9 219,257.9 221,260.9 221,261 221.1,261.1 221.2,261.3 221.4,261.5 221.5,261.7 221.6,261.8 221.8,262 
		221.9,262.2 222.1,262.4 222.2,262.6 222.4,262.9 222.6,263.1 223.4,264.2 224.1,265.1 224.4,265.5 224.6,265.8 224.8,266.1 
		224.9,266.3 226.5,269 227.9,271.7 229.2,274.5 229.7,276 230.2,277.4 231.1,280.3 231.8,283.3 232.4,286.4 232.7,289.5 
		233.3,295.9 233.6,302.3 233.9,308.7 233.9,314.9 233.9,321.4 233.6,327.7 233.3,333.9 232.7,340.3 232.1,346.6 231.3,352.9 
		230.4,359.2 229.2,365.5 228,371.8 226.6,378.1 225,384.4 223.3,390.7 206.3,501.2 204.6,511.8 202.9,522.4 201.4,533 200.1,543.6 
			"/>
</g>
</svg>
