<?xml version="1.0" encoding="utf-8"?>
<!-- Generator: Adobe Illustrator 21.0.0, SVG Export Plug-In . SVG Version: 6.00 Build 0)  -->
<svg version="1.1" id="Layer_1" xmlns="http://www.w3.org/2000/svg" xmlns:xlink="http://www.w3.org/1999/xlink" x="0px" y="0px"
	 width="400px" height="500px" viewBox="0 0 400 500" style="enable-background:new 0 0 400 500;" xml:space="preserve">
<style type="text/css">
	.st0{fill:none;stroke:#000000;stroke-width:10;stroke-miterlimit:10;}
	.st1{fill:#FFFFFF;}
</style>
<g id="map1">
	
		<image style="overflow:visible;enable-background:new    ;" width="1031" height="1240" xlink:href="52074ABC.jpeg"  transform="matrix(0.679 0 0 -0.6786 -200.1287 777.9)">
	</image>
</g>
<rect x="-1.1" y="0.2" class="st0" width="401" height="500.8"/>
<rect x="3.1" y="4.4" class="st1" width="86.1" height="33.4"/>
<g>
	<path d="M12.3,11.3L12.3,11.3l-4.5,2.4l-0.7-2.6l5.6-3h2.9v25.5h-3.3V11.3z"/>
	<path d="M24.7,27.1c0-3.2,1.9-5.5,5.1-6.8v-0.1c-2.8-1.3-4-3.5-4-5.7c0-4,3.4-6.8,7.9-6.8c5,0,7.4,3.1,7.4,6.3c0,2.2-1.1,4.5-4.2,6
		l0,0c3.2,1.3,5.1,3.5,5.1,6.6c0,4.4-3.8,7.4-8.7,7.4C27.9,34,24.7,30.9,24.7,27.1z M38.4,27c0-3.1-2.2-4.6-5.6-5.6
		c-3,0.9-4.6,2.8-4.6,5.3c-0.1,2.6,1.8,4.9,5.1,4.9C36.4,31.5,38.4,29.6,38.4,27z M28.9,14.2c0,2.6,1.9,3.9,4.9,4.7
		c2.2-0.7,3.9-2.3,3.9-4.6c0-2-1.2-4.2-4.3-4.2C30.5,10.1,28.9,12,28.9,14.2z"/>
	<path d="M60.4,11h-9.7l-1,6.6c0.6-0.1,1.1-0.2,2.1-0.2c2,0,3.9,0.4,5.5,1.4c2,1.1,3.7,3.3,3.7,6.6c0,5-4,8.7-9.5,8.7
		c-2.8,0-5.1-0.8-6.4-1.6l0.9-2.6c1.1,0.6,3.1,1.4,5.5,1.4c3.3,0,6.1-2.1,6.1-5.5c0-3.3-2.2-5.7-7.3-5.7c-1.5,0-2.6,0.2-3.5,0.3
		l1.6-12.3h12.2V11H60.4z"/>
	<path d="M65,27.1c0-3.2,1.9-5.5,5.1-6.8v-0.1c-2.8-1.3-4-3.5-4-5.7c0-4,3.4-6.8,7.9-6.8c5,0,7.4,3.1,7.4,6.3c0,2.2-1.1,4.5-4.2,6
		l0,0c3.2,1.3,5.1,3.5,5.1,6.6c0,4.4-3.8,7.4-8.7,7.4C68.2,34,65,30.9,65,27.1z M78.7,27c0-3.1-2.2-4.6-5.6-5.6
		c-3,0.9-4.6,2.8-4.6,5.3c-0.1,2.6,1.8,4.9,5.1,4.9C76.7,31.5,78.7,29.6,78.7,27z M69.2,14.2c0,2.6,1.9,3.9,4.9,4.7
		c2.2-0.7,3.9-2.3,3.9-4.6c0-2-1.2-4.2-4.3-4.2C70.8,10.1,69.2,12,69.2,14.2z"/>
</g>
</svg>
