<?xml version="1.0" encoding="utf-8"?>
<!-- Generator: Adobe Illustrator 21.0.0, SVG Export Plug-In . SVG Version: 6.00 Build 0)  -->
<svg version="1.1" id="Layer_1" width='200' height='400' xmlns:svg="http://www.w3.org/2000/svg"
	 xmlns="http://www.w3.org/2000/svg" xmlns:xlink="http://www.w3.org/1999/xlink" x="0px" y="0px" viewBox="0 0 540.5 640.3"
	 style="enable-background:new 0 0 540.5 640.3;" xml:space="preserve">
<style type="text/css">
	.st0{fill:none;stroke:#000000;stroke-width:3;stroke-linecap:square;stroke-miterlimit:10;}
</style>

<g id="isotypePlaceHolder2">
	
</g>
<rect xmlns="http://www.w3.org/2000/svg" id="slider_movementSpeed" x="0.5" y="0.5" width="500" height="39" fill="white" stroke="black"/>
<rect xmlns="http://www.w3.org/2000/svg" id="slider_movementVelocity" x="0.5" y="50" width="300" height="39" fill="white" stroke="black"/>

<text id='movementSpeed' x='50' y='-100'></text>

<g id="g2399" transform="matrix(0.8746401,0,0,-0.8518511,33.878521,592.87107)">
	<polygon id="polygon2401" points="271.9,503.9 272,503.7 272.1,503.1 272.2,502.7 272.2,502.6 272.2,502.5 272.2,502.5 
		272.3,502.4 272.2,502.5 272.2,502.6 272.2,502.7 272.2,502.7 272.2,502.9 272.1,503.1 272,503.3 	"/>
	<polyline id="polyline2403" class="st0" points="396.6,577.3 396.7,579 396.8,580.5 396.9,582.1 396.9,583.5 396.9,585 
		396.8,586.4 396.6,589.2 396,591.8 395.7,593.1 395.4,594.3 394.9,595.6 394.4,596.7 393.9,597.9 393.4,598.9 392,601.1 
		391.3,602.1 390.5,603.1 389.6,604.1 388.8,605 387.9,605.9 386.9,606.7 385.8,607.5 384.8,608.3 382.4,609.7 379.9,611.1 
		378.6,611.7 377.3,612.3 365.8,613 363.8,612.6 361.6,612 359.6,611.4 358.7,611.1 358,610.8 356.6,610.2 356.2,609.9 355.8,609.5 
		354.6,608.7 351.7,604.9 350.6,602.4 349.5,599.6 349,598.2 348.6,596.8 348.2,595.6 347.9,594.4 347.5,593.3 347.2,592.2 
		346.9,591.3 346.7,590.4 346.4,589.6 346.2,588.8 345.9,588.2 345.8,587.6 345.6,587.1 345.4,586.6 345.3,586.3 345.3,586 
		344.3,583.4 343.6,580.7 343,578 342.6,575.3 342.1,575.2 341.9,574.6 341.7,573.8 341.5,573 341.4,572.1 341.1,571.2 340.9,570.2 
		340.5,569.2 340.3,568 339.9,566.8 339.5,565.5 339.1,564.2 338.7,562.8 338.1,561.3 337.7,559.8 337.1,558.2 336.6,556.5 
		335.3,553.2 334.2,549.9 333,546.9 331.9,543.9 328.5,531.9 328.5,530.4 328.2,529.1 327.9,527.6 327.7,526.7 327.5,525.8 
		327.1,523.7 326.6,521.4 326.3,520.2 326,518.9 325.4,516.1 324.8,513 324.3,511.4 324,509.7 323.1,506.2 322.7,504.4 322.2,502.4 
		321.8,500.5 321.3,498.4 320.8,496.3 320.3,494.1 319.3,489.6 318.7,487.3 318.2,484.8 317,479.8 314.6,469.7 312.2,459.8 
		311.1,454.9 309.9,450.1 307.7,440.6 305.7,434.1 303.6,427.6 302.5,424.4 301.3,421.2 300,418 299.4,416.4 299.1,415.6 
		298.9,415.2 298.8,414.7 296.2,409.4 295.5,408.4 295,407.6 294.7,407.3 294.5,407 294.3,406.8 294.2,406.7 293.6,406.5 
		293.5,406.5 293.4,406.4 293.2,406.3 292.9,406.3 292.7,406.3 292.6,406.3 292.3,406.3 292.1,406.3 292,406.2 291.3,406.3 
		290.7,406.4 290,406.6 289.2,406.9 288.7,407.1 288.2,407.3 287.7,407.6 287.6,407.7 287.5,407.8 287.2,407.9 286.5,408.4 
		282.6,416.5 280.4,426 278.4,435.4 276.7,444.8 275.2,454 274,463.3 273,472.4 272.2,481.5 271.7,490.5 272,491.1 271,515.3 
		270.4,522.4 269.7,528.9 269,535.4 268.2,541.9 267.3,548.4 266.3,554.9 265.2,561.3 264.1,567.8 262.9,574.2 262.7,574.3 
		262.7,574.5 262.7,574.6 262.7,574.6 262.7,574.7 262.7,575 262.6,575.4 262.5,575.5 262.5,575.6 262.5,575.7 262.5,575.9 
		262.4,576.4 262.4,577 262.2,579.3 262,581.3 261.9,582.2 261.8,583.1 261.5,585.1 261.4,585.7 261.4,586 261.4,586.3 261.3,587.4 
		261.1,589.8 260.8,592.5 260.6,593.9 260.5,595.4 260.3,596.9 260.2,597.7 260.1,598.1 260.1,598.5 259.8,601.8 259.4,604.8 
		259.2,607.7 258.9,610.5 258.7,613.1 258.5,615.6 258.3,618 258.2,620.2 258.1,622.3 257.8,628 257.3,633.6 256.9,639.2 
		256.3,644.7 255.8,647.5 255.1,650.3 254.7,651.7 254.3,653 253.2,655.6 252.4,657.1 251.6,658.6 250.7,660 249.8,661.2 
		248.7,662.5 247.7,663.7 246.6,664.8 245.5,665.8 244.2,666.8 243,667.7 241.7,668.6 240.3,669.3 238.8,670.1 237.3,670.7 
		235.7,671.3 234.2,671.7 232.5,672.2 230.9,672.4 229.2,672.5 227.7,672.4 226.1,672.3 224.6,671.9 223,671.4 221.6,670.7 
		219.2,669.5 217.1,668.1 215.2,666.7 213.4,665.1 211.8,663.5 210.4,661.7 209.1,659.9 208.1,657.8 207.1,655.8 206.7,654.7 
		206.4,653.6 205.8,651.3 205.5,648.9 205.3,646.4 205.3,643.8 205.3,642.5 205.4,641.1 205.7,638.2 205.1,630.5 204.6,622.8 
		204.2,615.2 203.9,607.7 203.8,604 203.8,600.2 204,596.5 204.3,592.7 204.5,588.7 204.7,584.6 204.9,580.3 205.2,575.7 
		205.3,573.5 205.4,571.4 205.5,569.3 205.6,567.2 205.6,565.3 205.7,563.4 205.8,561.6 205.9,559.9 205.9,558.3 205.9,556.7 
		205.9,555.2 206,553.7 206,552.4 206,551.1 206,549.9 206,549.3 206.1,548.7 206.1,548.4 206.1,547.8 206.2,547.1 206.3,546.2 
		206.4,545.2 206.5,543.9 206.6,542.6 206.8,541 206.9,539.4 207,538.7 207.1,538 207.2,536.8 207.2,536.5 207.3,536.2 207.4,535.6 
		207.4,535.2 207.4,534.7 207.5,533.9 207.5,533.2 207.5,533 207.6,532.7 207.6,532.5 207.3,528.3 207.1,524.1 207.3,519.8 
		207.6,515.5 207.7,513.8 207.9,511.8 208,509.8 208.3,507.7 208.4,505.5 208.6,503.1 208.7,500.7 208.9,498.1 209,495.4 
		209.2,492.7 209.4,489.8 209.6,486.8 209.7,483.7 209.9,480.5 210.1,477.2 210.3,473.7 210.5,470.3 210.7,467 210.8,463.7 
		211,460.5 211.1,457.4 211.1,455.9 211.2,454.3 211.3,451.4 211.3,450.7 211.3,450.3 211.4,449.9 211.5,448.4 211.6,446.2 
		211.6,445.1 211.6,444.6 211.6,444 211.7,439.6 211.6,437.4 211.5,435.2 211.3,430.9 210.9,426.7 210.5,422.4 209.8,418.1 
		209.1,413.7 208.7,412.4 204.8,397.9 200.3,393.5 199.7,393.4 199.3,393.5 199.1,393.6 198.9,393.8 198.5,395 198.1,396.2 
		197.7,397.5 197.3,398.9 196.8,400.4 196.3,401.9 195.8,403.6 195.3,405.3 195,406.2 194.8,407.1 194.2,409.1 193.6,411.1 
		193.1,413.2 192.5,415.4 191.8,417.6 191.2,420 190.6,422.4 185.7,440.7 185.2,440.9 183.7,446.4 182.3,451.6 180.9,456.5 
		179.7,461.2 178.5,465.6 177.4,469.7 176.4,473.6 175.4,477.2 174.5,480.5 173.6,483.5 172.8,486.3 172.1,489 171.3,491.5 
		170.6,493.8 170,496 169.4,497.9 168.9,499.8 168.3,501.4 167.9,502.9 167.4,504.2 167,505.4 166.7,506.3 166.3,507.1 166.1,507.7 
		165.5,508 164.7,514.3 163.8,520.4 162.7,526.5 161.5,532.4 160.1,538.4 158.6,544.2 156.8,550.1 155,555.8 152.9,561.5 
		150.7,567.1 148.3,572.7 145.9,578.2 143.2,583.6 140.4,589 137.4,594.3 134.3,599.5 133.3,600.8 132.2,601.8 131.1,602.8 
		129.9,603.6 128.6,604.4 127.2,605 125.7,605.6 124.2,606 122.1,606.5 120.2,606.8 118.2,607 116.5,607 114.6,606.9 112.9,606.6 
		111.3,606.2 109.7,605.6 108.1,604.9 106.6,604.1 105.1,603.1 103.8,602 102.4,600.7 101.1,599.3 99.9,597.8 98.8,596 97.7,594 
		97.4,592.6 97.2,590.9 96.9,589.2 96.8,587.2 96.6,585.1 96.6,582.7 96.5,580.2 96.6,577.5 96.6,574.9 96.7,572.3 96.8,569.9 
		96.9,567.5 101.3,539.1 101.8,538.8 102.5,534.9 103.2,531.1 103.6,529.3 103.7,528.4 103.9,527.4 104.2,525.7 104.3,525.3 
		104.4,524.8 104.6,523.9 104.7,523.1 104.8,522.7 104.9,522.3 105.2,520.6 105.7,517.5 105.9,516 106.2,514.5 106.4,513 
		106.5,512.3 106.5,512.2 106.5,512 106.6,511.6 107.1,508 107.5,504.4 107.7,502.7 107.9,501 108.2,497.5 108.4,494.2 108.5,492.6 
		108.6,491 108.7,487.8 108.7,486.3 108.7,484.7 111.1,469 111.4,466.9 111.7,464.9 112,462.9 112,462.7 112.1,462.5 112.2,462 
		112.4,461 112.7,459.1 113,457.3 113.4,455.6 113.5,454.8 113.7,454 113.8,453.2 114,452.4 114.3,450.9 114.9,448.1 115.1,446.8 
		115.5,445.6 115.6,445 115.7,444.4 116,443.3 116.3,441.9 116.7,440.3 117,438.4 117.5,436.3 117.9,434.1 118.3,431.6 118.8,428.8 
		119.4,425.8 119.8,423.2 120,421.9 120.3,420.6 120.7,418.2 120.9,417.1 121,416.6 121.2,416 121.6,413.9 122,412 122.4,410.2 
		122.6,409.4 122.8,409 122.8,408.8 122.9,408.5 123,407.5 123.1,406.6 123.2,405.8 123.3,405.1 123.3,404.6 123.4,404.1 
		123.4,403.8 123.5,403.6 123.6,403.1 123.7,402.6 123.9,401.9 124,401.2 124.1,400.4 124.2,399.5 124.5,397.4 124.7,395.3 
		125,393.4 126.4,388.6 127.8,383.8 128.9,378.8 130,373.7 130.8,368.5 131.5,363.2 132,357.9 132.4,352.3 131.7,351.5 129.4,351.3 
		127.3,351.9 125.3,353.2 123.3,354.5 119.5,357.2 117.6,358.6 115.8,360.1 114,361.6 112.4,363.1 109,366.4 105.8,369.8 
		104.2,371.6 102.7,373.4 99.8,377.2 97.3,379 95,381 92.7,383 90.5,385 88.4,387.2 86.5,389.5 84.5,391.8 82.8,394.1 70,409.6 
		70,410.3 63,418.4 62.3,418.5 56.4,425.6 50.7,432.8 44.9,440 39.2,447.3 38.2,448.7 37.4,450.1 36.5,451.5 35.7,452.9 35.2,453.6 
		34.8,454.3 34.4,455 34.1,455.7 33.2,457.7 32.3,459.4 31.3,461.2 30.3,462.8 29.2,464.3 28,465.8 26.8,467.2 25.5,468.4 
		24.1,469.7 22.7,470.8 21.1,471.8 19.6,472.8 17.9,473.7 16.3,474.5 14.5,475.2 12.7,475.8 10.7,476.3 8.8,476.5 6.9,476.4 
		5,476.1 3.4,475.7 1.8,475.1 0.3,474.5 -1,473.6 -2.4,472.7 -3.6,471.7 -4.8,470.5 -5.9,469.2 -7.6,466.8 -9.1,464.1 -10.1,461.8 
		-10.7,459.4 -11.4,456.6 -11.6,455.2 -11.6,453.7 -11.7,450.9 -11.6,449.5 -11.4,448.1 -10.9,445.3 -10.1,442.5 -9.6,441.1 
		-9,439.7 -7.6,436.9 -2.2,427.1 0.4,422.3 3.1,417.6 8.5,408.3 9.1,407.2 9.4,406.6 9.8,406 11.1,403.7 13.9,399.2 16.5,394.8 
		19.2,390.5 24.6,382 27.2,377.8 29.9,373.7 32.5,369.7 35.3,365.7 36,364.1 37.7,361.7 39.6,359.4 41.4,357.1 43.4,355 45.5,352.9 
		47.7,351 49.9,349.1 52.4,347.3 52.9,346.1 53.6,344.9 54.4,343.8 55.4,342.7 56.9,341.1 58.4,339.4 61.4,335.9 64,332.2 
		66.5,328.4 68.7,324.4 70.7,320.3 72.5,316 73.3,313.8 74.1,311.5 75,308.9 75.2,308.2 75.3,307.9 75.3,307.9 75.3,307.8 
		75.4,307.6 75.6,307 75.9,306.4 76,306.2 76.1,305.9 76.3,305.5 76.7,304.7 77.1,304 77.2,303.7 77.4,303.3 77.7,302.7 77.9,302.5 
		78,302.2 78.4,301.1 78.6,300 78.6,299.7 78.7,299.5 78.9,299 78.9,298.9 78.9,298.9 79,298.8 79.1,298.5 79.3,298.1 80,296.8 
		80.8,295.6 81.7,294.5 82.7,293.6 82.8,292.6 83,291.3 83.3,290 83.6,288.4 83.8,286.8 84.2,285 84.6,283 85,280.9 85.4,278.5 
		85.6,277.5 85.8,276.6 85.9,275.7 86.1,274.8 86.2,274.1 86.5,273.4 86.6,272.7 86.7,272.1 86.7,271.9 86.7,271.8 86.7,271.8 
		86.8,271.7 86.9,271.2 86.9,271.1 86.9,270.9 87,270.5 87.1,270.1 87.1,270 87.2,270 88.6,261.9 92.9,241.2 93.4,238.3 93.5,237.7 
		93.6,237 94,235.6 94.2,234.3 94.3,233.6 94.4,232.9 95,230.3 95.4,227.8 95.9,225.3 96.3,223 96.5,221.8 96.8,220.6 96.8,220.1 
		96.9,219.6 97.2,218.5 97.6,216.4 97.9,214.3 97.9,214.1 97.9,213.9 98,213.4 98.3,212.4 98.6,210.5 98.9,208.7 99.1,207 
		99.5,205.4 99.9,205 101.6,193.2 102,192.8 102,192.6 102,192.3 102.1,191.8 102.3,190.8 102.8,188.8 103.6,184.9 105.3,177.2 
		106,173.4 106.9,169.7 107.6,166.1 108.5,162.5 108.7,161.4 109,160.3 109.4,159.2 109.8,158.1 110.3,157.1 110.9,156.1 
		111.5,155.1 112.2,154 113.8,151.3 115.4,148.6 116.7,145.9 117.2,144.6 117.8,143.2 118.6,140.5 119.2,137.7 119.7,135 
		119.9,132.2 119.8,129.5 119.7,128.1 119.5,126.7 119,124 118.7,122.6 118.3,121.2 117.3,118.5 116.2,115.7 115.5,114.3 
		114.8,112.9 113.2,110.1 110.4,103.7 109.6,102.1 108.9,100.5 108.2,99 107.6,97.6 107,96.4 106.5,95.3 106,94.3 105.6,93.4 
		105.2,92.5 105.1,91.5 105.3,90.5 105.8,89.4 106.4,88.4 107.3,87.2 108.5,86.1 110.1,84.9 111.7,83.7 113.7,82.4 115.9,81.2 
		118.4,79.8 121.2,78.5 124.2,77.1 127.4,75.7 131,74.3 134.1,73.1 137.3,71.9 140.7,70.7 144.3,69.4 147.9,68.2 151.7,67 
		155.6,65.7 159.8,64.4 164,63.2 168.4,61.9 172.9,60.6 177.6,59.3 182.3,58 187.3,56.7 192.4,55.4 197.6,54 202.1,52.9 206.6,51.8 
		208.8,51.3 209.4,51.2 209.9,51 211.1,50.7 215.6,49.6 220,48.6 224.4,47.6 225.5,47.4 226,47.3 226.6,47.1 228.8,46.6 233.1,45.6 
		235.2,45.2 236.3,45 236.8,44.9 237.4,44.8 241.6,43.9 245.8,43 250.1,42.1 250.5,42.1 251.1,42 252.1,41.8 254.2,41.4 258.3,40.6 
		262.4,39.8 266.5,39 270,38.4 271.7,38.2 273.4,37.9 276.5,37.4 279.6,36.9 281,36.7 282.4,36.5 283,36.5 283.7,36.4 285,36.2 
		287.4,35.9 289.7,35.6 290.7,35.5 291.7,35.4 292.6,35.4 293.5,35.3 294.3,35.3 295.1,35.2 295.7,35.2 296.4,35.2 296.9,35.3 
		297.4,35.3 298.1,35.4 298.4,35.5 298.6,35.6 298.6,35.7 298.7,35.8 298.8,35.9 299.2,37 299.6,38 300,38.9 300.6,39.9 301.1,40.9 
		301.7,42 303,44.4 303.7,45.7 304.5,47 305.2,48.4 306.1,49.9 306.9,51.5 307.9,53.1 308.8,54.8 309.7,56.5 310.7,58.3 311.8,60.2 
		319.7,74.2 321.6,75.3 322.5,75.8 323.5,76.3 327.3,78.5 331,80.7 332.8,81.8 334.6,82.9 336,83.5 336.7,83.8 337.4,84.1 
		338.1,84.4 338.8,84.7 340.1,85.3 340.6,85.7 341.3,86.1 342.5,86.8 343.6,87.5 344.8,88.3 345,88.5 345.3,88.7 345.8,89.1 
		346,89.4 346.3,89.6 346.8,90 347.7,90.9 348.6,91.8 349.4,92.8 350.2,93.8 350.9,94.8 351.7,95.9 355.1,99.1 364.4,107.9 
		373,116.9 380.3,123.8 400.8,146 402.9,148 407.5,152 409.3,153.6 413.3,157.4 417.4,161.1 421.6,164.8 425.8,168.2 426.3,168.3 
		441.9,183.7 449.8,197.2 454.5,211.7 456,215.4 458.3,221.6 459.5,224.6 460.9,227.5 462.3,230.4 463.9,233.2 465.5,236 
		467.3,238.7 470.9,244 472.8,246.6 474.9,249.1 477,251.6 479.2,254 481.5,256.4 483.9,258.7 484,258.9 484.3,259.2 484.4,259.5 
		484.6,259.8 484.9,260.1 485.3,260.5 485.9,261.5 486.4,262 486.9,262.6 487.4,263.3 487.9,264 488.5,264.7 489.2,265.5 
		490.5,267.3 491.1,268.2 491.8,269 492.4,269.9 493,270.6 494.1,272.1 495,273.4 495.8,274.7 496.5,275.8 497.2,276.8 	"/>
	<polyline id="polyline2405" class="st0" points="497.2,276.8 497.9,278.4 498.7,280 499.6,281.5 500.6,283 501.5,284.4 
		502.6,285.8 504.9,288.3 510.1,293.7 512.7,296.3 515.5,298.9 520.9,303.9 526.5,308.9 532.1,313.7 537.9,318.4 543.8,323 
		549.9,327.4 550.5,328.3 550.9,329.1 551.2,329.7 551.4,330 551.5,330.1 551.7,331 551.9,331.8 552.1,332.6 552.2,333.4 
		552.2,335.3 552,337.2 551.8,338.1 551.5,339 551.2,339.9 550.8,340.7 550.1,342 549.3,343.2 548.5,344.3 547.6,345.2 546.6,346.2 
		545.5,346.9 544.4,347.6 543.3,348.2 539,350 534.8,351.6 530.5,352.9 526.3,353.9 522,354.7 519.8,355 517.7,355.1 513.4,355.4 
		509.2,355.3 504.9,355.1 500.6,354.5 496.3,353.8 494.2,353.3 492.1,352.7 487.8,351.4 483.5,349.8 479.2,348 474.9,345.8 
		473.2,345 471.5,344.1 469.6,343.2 467.7,342.2 465.8,341.2 464.9,340.8 464,340.3 462.4,339.4 460.9,338.5 459.5,337.7 
		458.8,337.4 458.2,337 457.1,336.3 456.6,336 456.2,335.6 451.6,330.7 447.7,323.7 443.4,310.7 442.1,308.5 441.7,308 441.5,307.6 
		441.2,307.2 441,306.8 440.9,306.6 440.8,306.4 440.7,306.2 440.7,306.1 437.8,301.8 434.9,298.5 430.6,294.5 429.2,293.1 
		427.7,291.7 425.9,290.1 423.9,288.4 422.8,287.5 421.6,286.6 419.2,284.7 416.6,282.7 413.8,280.6 410,277.9 406.1,275.2 
		402.9,273.1 394.4,272.8 391.5,275.3 388.8,277.8 386.1,280.4 383.7,283 381.2,285.8 378.9,288.6 376.7,291.6 374.6,294.6 
		374.6,294.7 374.5,294.8 374.4,295 374.2,295.2 374.1,295.4 374,295.5 373.8,295.7 373.7,295.9 373.5,296.1 373.3,296.3 
		373.1,296.6 373,296.8 372.1,297.9 371.4,298.8 371.1,299.2 370.9,299.5 370.6,299.8 370.5,300 368.8,302.7 367.3,305.4 366,308.2 
		365.5,309.7 365,311.1 364,314 363.3,317 362.7,320.1 362.3,323.2 361.7,329.6 361.4,336 361.1,342.4 361,348.7 361.1,355.1 
		361.4,361.4 361.7,367.7 362.3,374 362.9,380.3 363.8,386.6 364.8,392.9 366,399.2 367.3,405.5 368.8,411.8 370.4,418.1 
		372.2,424.4 390,534.9 391.8,545.5 393.6,556.1 395.1,566.7 396.6,577.3 	"/>
</g>
</svg>
