<?xml version="1.0" encoding="utf-8"?>
<!-- Generator: Adobe Illustrator 21.0.0, SVG Export Plug-In . SVG Version: 6.00 Build 0)  -->
<svg version="1.1" width='100' height='100' id="Layer_1" xmlns:svg="http://www.w3.org/2000/svg"
	 xmlns="http://www.w3.org/2000/svg" xmlns:xlink="http://www.w3.org/1999/xlink" x="0px" y="0px" viewBox="0 0 213 253.9"
	 style="enable-background:new 0 0 213 253.9;" xml:space="preserve">
<style type="text/css">
	.st0{fill:none;stroke:#000000;stroke-width:3;stroke-linecap:square;stroke-miterlimit:10;}
</style>
<g id="g2399" transform="matrix(0.8746401,0,0,-0.8518511,33.878521,592.87107)">
	<polygon id="polygon2401" points="86.8,613.9 86.9,613.9 86.9,613.6 86.9,613.5 86.9,613.5 86.9,613.4 86.9,613.4 87,613.4 
		86.9,613.4 86.9,613.5 86.9,613.5 86.9,613.5 86.9,613.6 86.9,613.6 86.9,613.7 	"/>
	<polyline id="polyline2403" class="st0" points="130.2,639.4 130.2,640 130.2,640.5 130.3,641.1 130.3,641.6 130.3,642.1 
		130.2,642.6 130.2,643.6 129.9,644.5 129.8,644.9 129.7,645.3 129.6,645.8 129.4,646.2 129.2,646.6 129,646.9 128.6,647.7 
		128.3,648 128,648.4 127.7,648.7 127.4,649 127.1,649.4 126.8,649.6 126.4,649.9 126.1,650.2 125.2,650.7 124.4,651.2 123.9,651.4 
		123.4,651.6 119.5,651.8 118.8,651.7 118,651.5 117.3,651.3 117,651.2 116.7,651.1 116.3,650.9 116.1,650.8 116,650.6 115.6,650.3 
		114.6,649 114.2,648.1 113.8,647.2 113.6,646.7 113.5,646.2 113.3,645.8 113.2,645.4 113.1,645 113,644.6 112.9,644.3 112.8,644 
		112.7,643.7 112.6,643.4 112.5,643.2 112.5,643 112.4,642.8 112.4,642.7 112.3,642.6 112.3,642.4 112,641.5 111.7,640.6 
		111.5,639.7 111.4,638.7 111.2,638.7 111.2,638.5 111.1,638.2 111,637.9 111,637.6 110.9,637.3 110.8,637 110.7,636.6 110.6,636.2 
		110.5,635.8 110.3,635.3 110.2,634.9 110,634.4 109.8,633.9 109.7,633.3 109.5,632.8 109.3,632.2 108.9,631.1 108.5,629.9 
		108.1,628.9 107.7,627.8 106.5,623.7 106.5,623.1 106.4,622.7 106.3,622.2 106.2,621.8 106.1,621.5 106,620.8 105.8,620 
		105.7,619.6 105.6,619.1 105.4,618.2 105.2,617.1 105,616.5 104.9,615.9 104.6,614.7 104.5,614.1 104.3,613.4 104.2,612.7 104,612 
		103.8,611.3 103.6,610.5 103.3,609 103.1,608.2 102.9,607.3 102.5,605.6 101.7,602 100.8,598.6 100.4,596.9 100,595.2 99.3,591.9 
		98.6,589.7 97.8,587.4 97.5,586.3 97,585.2 96.6,584.1 96.4,583.5 96.3,583.2 96.2,583.1 96.2,582.9 95.3,581.1 95,580.7 
		94.9,580.5 94.8,580.4 94.7,580.3 94.6,580.2 94.6,580.2 94.4,580.1 94.3,580.1 94.3,580 94.2,580 94.1,580 94.1,580 94,580 
		93.9,580 93.8,580 93.8,580 93.6,580 93.4,580 93.1,580.1 92.8,580.2 92.7,580.3 92.5,580.4 92.3,580.5 92.3,580.5 92.3,580.5 
		92.1,580.6 91.9,580.7 90.5,583.6 89.8,586.9 89.1,590.1 88.5,593.4 88,596.6 87.6,599.8 87.2,603 86.9,606.1 86.8,609.3 
		86.9,609.5 86.5,617.9 86.3,620.4 86.1,622.6 85.8,624.9 85.5,627.1 85.2,629.4 84.9,631.6 84.5,633.9 84.1,636.1 83.7,638.3 
		83.6,638.4 83.6,638.5 83.6,638.5 83.6,638.5 83.6,638.5 83.6,638.6 83.6,638.8 83.6,638.8 83.6,638.8 83.6,638.9 83.6,638.9 
		83.5,639.1 83.5,639.3 83.5,640.1 83.4,640.8 83.4,641.1 83.3,641.4 83.2,642.1 83.2,642.3 83.2,642.4 83.2,642.6 83.1,642.9 
		83.1,643.8 83,644.7 82.9,645.2 82.9,645.7 82.8,646.2 82.8,646.5 82.7,646.7 82.7,646.8 82.6,647.9 82.5,649 82.4,650 82.3,651 
		82.2,651.9 82.2,652.7 82.1,653.6 82.1,654.3 82,655.1 81.9,657 81.8,659 81.6,660.9 81.4,662.8 81.2,663.8 81,664.8 80.9,665.3 
		80.7,665.7 80.3,666.6 80.1,667.1 79.8,667.7 79.5,668.2 79.2,668.6 78.8,669 78.4,669.4 78,669.8 77.7,670.2 77.2,670.5 
		76.8,670.8 76.3,671.1 75.9,671.4 75.3,671.7 74.8,671.9 74.3,672.1 73.7,672.2 73.1,672.4 72.6,672.5 72,672.5 71.5,672.5 
		70.9,672.4 70.4,672.3 69.8,672.1 69.4,671.9 68.5,671.5 67.8,671 67.1,670.5 66.5,669.9 66,669.4 65.5,668.7 65,668.1 64.7,667.4 
		64.3,666.7 64.2,666.3 64.1,665.9 63.9,665.1 63.8,664.3 63.7,663.4 63.7,662.5 63.7,662.1 63.7,661.6 63.8,660.6 63.6,657.9 
		63.4,655.2 63.3,652.6 63.2,650 63.2,648.7 63.2,647.4 63.2,646.1 63.3,644.8 63.4,643.4 63.5,642 63.6,640.5 63.7,638.9 
		63.7,638.1 63.7,637.4 63.8,636.6 63.8,635.9 63.8,635.3 63.8,634.6 63.9,634 63.9,633.4 63.9,632.8 63.9,632.3 63.9,631.7 
		63.9,631.2 63.9,630.8 63.9,630.3 63.9,629.9 63.9,629.7 64,629.5 64,629.4 64,629.2 64,628.9 64,628.6 64.1,628.3 64.1,627.8 
		64.1,627.4 64.2,626.8 64.2,626.3 64.3,626 64.3,625.8 64.4,625.4 64.4,625.2 64.4,625.1 64.4,624.9 64.4,624.8 64.4,624.6 
		64.5,624.3 64.5,624.1 64.5,624 64.5,623.9 64.5,623.9 64.4,622.4 64.3,620.9 64.4,619.4 64.5,618 64.5,617.4 64.6,616.7 64.6,616 
		64.7,615.2 64.8,614.5 64.8,613.6 64.9,612.8 64.9,611.9 65,611 65,610 65.1,609 65.2,608 65.2,606.9 65.3,605.8 65.4,604.6 
		65.4,603.4 65.5,602.3 65.6,601.1 65.6,600 65.7,598.8 65.7,597.8 65.7,597.2 65.7,596.7 65.8,595.7 65.8,595.4 65.8,595.3 
		65.8,595.2 65.8,594.6 65.9,593.9 65.9,593.5 65.9,593.3 65.9,593.1 65.9,591.6 65.9,590.8 65.8,590.1 65.8,588.6 65.6,587.1 
		65.5,585.6 65.3,584.1 65,582.6 64.9,582.1 63.5,577.1 62,575.6 61.7,575.5 61.6,575.6 61.5,575.6 61.5,575.7 61.3,576.1 
		61.2,576.5 61.1,577 60.9,577.4 60.7,578 60.6,578.5 60.4,579.1 60.2,579.7 60.1,580 60,580.3 59.8,581 59.6,581.7 59.5,582.4 
		59.2,583.2 59,583.9 58.8,584.8 58.6,585.6 56.9,592 56.7,592 56.2,593.9 55.7,595.8 55.2,597.5 54.8,599.1 54.4,600.6 54,602 
		53.7,603.4 53.3,604.6 53,605.8 52.7,606.8 52.4,607.8 52.2,608.7 51.9,609.6 51.6,610.4 51.4,611.2 51.2,611.8 51,612.5 
		50.8,613.1 50.7,613.6 50.5,614 50.4,614.4 50.3,614.8 50.1,615 50.1,615.2 49.9,615.3 49.6,617.5 49.3,619.7 48.9,621.8 
		48.5,623.8 48,625.9 47.5,627.9 46.8,630 46.2,632 45.5,633.9 44.7,635.9 43.9,637.8 43.1,639.7 42.1,641.6 41.1,643.5 40.1,645.3 
		39,647.1 38.7,647.6 38.3,647.9 37.9,648.3 37.5,648.6 37,648.8 36.6,649 36,649.3 35.5,649.4 34.8,649.6 34.1,649.7 33.4,649.7 
		32.8,649.7 32.2,649.7 31.6,649.6 31,649.5 30.5,649.3 29.9,649 29.4,648.7 28.9,648.4 28.4,648 27.9,647.6 27.5,647.1 27.1,646.5 
		26.7,645.9 26.3,645.2 26.2,644.7 26.1,644.1 26,643.6 26,642.9 25.9,642.1 25.9,641.3 25.9,640.4 25.9,639.5 25.9,638.6 26,637.7 
		26,636.9 26,636 27.6,626.2 27.7,626 28,624.7 28.2,623.4 28.4,622.7 28.4,622.4 28.5,622.1 28.6,621.5 28.6,621.4 28.6,621.2 
		28.7,620.9 28.7,620.6 28.8,620.5 28.8,620.3 28.9,619.7 29.1,618.6 29.2,618.1 29.3,617.6 29.3,617.1 29.4,616.8 29.4,616.8 
		29.4,616.7 29.4,616.6 29.6,615.3 29.7,614.1 29.8,613.5 29.9,612.9 30,611.7 30,610.6 30.1,610 30.1,609.4 30.1,608.3 30.1,607.8 
		30.1,607.3 31,601.8 31.1,601.1 31.2,600.4 31.3,599.7 31.3,599.6 31.3,599.5 31.3,599.4 31.4,599 31.5,598.4 31.6,597.7 
		31.8,597.1 31.8,596.9 31.9,596.6 31.9,596.3 32,596 32.1,595.5 32.3,594.5 32.4,594.1 32.5,593.7 32.5,593.5 32.6,593.3 
		32.7,592.9 32.8,592.4 32.9,591.8 33,591.2 33.2,590.4 33.3,589.7 33.5,588.8 33.6,587.8 33.8,586.8 34,585.9 34.1,585.4 34.2,585 
		34.3,584.1 34.4,583.8 34.4,583.6 34.5,583.4 34.6,582.7 34.8,582 34.9,581.4 35,581.1 35,581 35,580.9 35.1,580.8 35.1,580.4 
		35.1,580.1 35.2,579.8 35.2,579.6 35.2,579.4 35.2,579.3 35.2,579.1 35.3,579.1 35.3,578.9 35.3,578.7 35.4,578.5 35.4,578.2 
		35.5,578 35.5,577.7 35.6,576.9 35.7,576.2 35.8,575.5 36.3,573.9 36.8,572.2 37.1,570.5 37.5,568.7 37.8,566.9 38.1,565 
		38.2,563.2 38.4,561.3 38.1,561 37.3,560.9 36.6,561.1 35.9,561.6 35.2,562 33.9,563 33.2,563.4 32.6,564 32,564.5 31.4,565 
		30.2,566.2 29.1,567.3 28.6,568 28,568.6 27,569.9 26.2,570.5 25.4,571.2 24.6,571.9 23.8,572.6 23.1,573.4 22.4,574.2 21.7,575 
		21.1,575.8 16.7,581.2 16.7,581.4 14.3,584.2 14,584.3 12,586.7 10,589.2 8,591.7 6,594.3 5.6,594.7 5.4,595.2 5,595.7 4.8,596.2 
		4.6,596.4 4.5,596.7 4.3,596.9 4.2,597.2 3.9,597.9 3.6,598.5 3.2,599.1 2.9,599.6 2.5,600.2 2.1,600.7 1.7,601.2 1.2,601.6 
		0.7,602 0.3,602.4 -0.3,602.8 -0.8,603.1 -1.4,603.4 -2,603.7 -2.6,604 -3.2,604.2 -3.9,604.3 -4.6,604.4 -5.2,604.4 -5.9,604.3 
		-6.5,604.1 -7,603.9 -7.5,603.7 -8,603.4 -8.5,603.1 -8.9,602.7 -9.3,602.3 -9.7,601.9 -10.3,601 -10.8,600.1 -11.1,599.3 
		-11.4,598.5 -11.6,597.5 -11.7,597 -11.7,596.5 -11.7,595.5 -11.7,595 -11.6,594.5 -11.4,593.6 -11.1,592.6 -11,592.1 -10.8,591.6 
		-10.3,590.6 -8.4,587.2 -7.5,585.6 -6.6,583.9 -4.7,580.7 -4.5,580.3 -4.4,580.1 -4.2,579.9 -3.8,579.1 -2.8,577.5 -1.9,576 
		-1,574.5 0.9,571.6 1.8,570.1 2.8,568.7 3.7,567.3 4.6,565.9 4.9,565.4 5.5,564.5 6.1,563.7 6.7,562.9 7.4,562.2 8.2,561.5 
		8.9,560.8 9.7,560.1 10.6,559.5 10.7,559.1 11,558.7 11.3,558.3 11.6,557.9 12.1,557.4 12.7,556.8 13.7,555.6 14.6,554.3 15.5,553 
		16.2,551.6 16.9,550.1 17.6,548.6 17.8,547.9 18.1,547.1 18.4,546.2 18.5,545.9 18.5,545.8 18.5,545.8 18.5,545.8 18.6,545.7 
		18.6,545.5 18.7,545.3 18.8,545.2 18.8,545.1 18.9,545 19,544.7 19.2,544.5 19.2,544.4 19.3,544.2 19.4,544 19.4,544 19.5,543.8 
		19.6,543.5 19.7,543.1 19.7,543 19.7,542.9 19.8,542.7 19.8,542.7 19.8,542.7 19.8,542.7 19.8,542.6 19.9,542.4 20.2,542 
		20.4,541.6 20.7,541.2 21.1,540.9 21.1,540.5 21.2,540.1 21.3,539.6 21.4,539.1 21.5,538.5 21.6,537.9 21.8,537.2 21.9,536.4 
		22,535.6 22.1,535.3 22.2,535 22.2,534.6 22.3,534.3 22.3,534.1 22.4,533.8 22.5,533.6 22.5,533.4 22.5,533.3 22.5,533.3 
		22.5,533.3 22.5,533.3 22.6,533.1 22.6,533 22.6,533 22.6,532.8 22.6,532.7 22.6,532.7 22.7,532.7 23.1,529.8 24.6,522.7 
		24.8,521.6 24.8,521.4 24.9,521.2 25,520.7 25.1,520.3 25.1,520 25.2,519.8 25.4,518.9 25.5,518 25.7,517.1 25.8,516.3 25.9,515.9 
		26,515.5 26,515.3 26,515.1 26.1,514.8 26.3,514 26.4,513.3 26.4,513.2 26.4,513.2 26.4,513 26.5,512.6 26.6,512 26.7,511.4 
		26.8,510.8 26.9,510.2 27.1,510.1 27.7,506 27.8,505.8 27.8,505.8 27.8,505.7 27.8,505.5 27.9,505.1 28.1,504.4 28.4,503.1 
		28.9,500.4 29.2,499.1 29.5,497.8 29.7,496.6 30.1,495.3 30.1,494.9 30.2,494.5 30.4,494.2 30.5,493.8 30.7,493.4 30.9,493.1 
		31.1,492.7 31.3,492.4 31.9,491.4 32.5,490.5 32.9,489.5 33.1,489.1 33.3,488.6 33.6,487.7 33.8,486.7 34,485.8 34,484.8 34,483.8 
		34,483.4 33.9,482.9 33.7,481.9 33.6,481.4 33.5,481 33.1,480 32.7,479.1 32.5,478.6 32.2,478.1 31.7,477.1 30.7,474.9 30.4,474.3 
		30.2,473.8 30,473.3 29.7,472.8 29.5,472.3 29.4,472 29.2,471.6 29.1,471.3 28.9,471 28.9,470.6 28.9,470.3 29.1,469.9 29.3,469.6 
		29.6,469.2 30.1,468.8 30.6,468.4 31.2,467.9 31.9,467.5 32.6,467.1 33.5,466.6 34.5,466.1 35.5,465.6 36.6,465.2 37.9,464.7 
		39,464.3 40.1,463.8 41.2,463.4 42.5,463 43.7,462.5 45.1,462.1 46.4,461.7 47.9,461.2 49.3,460.8 50.9,460.4 52.4,459.9 
		54.1,459.5 55.7,459 57.4,458.6 59.2,458.1 61,457.6 62.6,457.2 64.1,456.9 64.9,456.7 65.1,456.6 65.3,456.6 65.7,456.5 
		67.3,456.1 68.8,455.7 70.3,455.4 70.7,455.3 70.9,455.3 71.1,455.2 71.9,455 73.4,454.7 74.1,454.6 74.5,454.5 74.6,454.5 
		74.8,454.4 76.3,454.1 77.8,453.8 79.3,453.5 79.4,453.5 79.6,453.4 80,453.4 80.7,453.2 82.1,453 83.5,452.7 85,452.4 86.2,452.2 
		86.8,452.1 87.4,452 88.4,451.8 89.5,451.7 90,451.6 90.5,451.5 90.7,451.5 90.9,451.5 91.4,451.4 92.2,451.3 93,451.2 93.4,451.2 
		93.7,451.2 94,451.2 94.3,451.1 94.6,451.1 94.9,451.1 95.1,451.1 95.3,451.1 95.5,451.1 95.7,451.1 95.9,451.2 96,451.2 
		96.1,451.2 96.1,451.3 96.1,451.3 96.2,451.3 96.3,451.7 96.5,452.1 96.6,452.4 96.8,452.7 97,453.1 97.2,453.4 97.6,454.3 
		97.9,454.7 98.2,455.2 98.4,455.7 98.7,456.2 99,456.7 99.3,457.3 99.7,457.9 100,458.5 100.3,459.1 100.7,459.8 103.4,464.6 
		104.1,465 104.4,465.2 104.8,465.4 106.1,466.1 107.4,466.9 108,467.3 108.6,467.7 109.1,467.9 109.3,468 109.6,468.1 109.8,468.2 
		110.1,468.3 110.5,468.5 110.7,468.6 110.9,468.8 111.4,469 111.7,469.3 112.2,469.5 112.2,469.6 112.3,469.7 112.5,469.8 
		112.6,469.9 112.7,470 112.9,470.1 113.2,470.4 113.5,470.7 113.8,471.1 114,471.4 114.3,471.8 114.6,472.2 115.7,473.3 119,476.3 
		122,479.5 124.5,481.9 131.6,489.6 132.3,490.3 133.9,491.7 134.6,492.2 136,493.5 137.4,494.8 138.8,496.1 140.3,497.3 
		140.5,497.3 145.9,502.7 148.6,507.4 150.3,512.4 150.8,513.7 151.6,515.8 152,516.9 152.5,517.9 153,518.9 153.5,519.9 
		154.1,520.8 154.7,521.8 156,523.6 156.6,524.5 157.4,525.4 158.1,526.3 158.9,527.1 159.7,527.9 160.5,528.7 160.5,528.8 
		160.6,528.9 160.7,529 160.7,529.1 160.8,529.2 161,529.4 161.2,529.7 161.4,529.9 161.5,530.1 161.7,530.3 161.9,530.6 
		162.1,530.8 162.3,531.1 162.8,531.7 163,532 163.2,532.3 163.4,532.6 163.6,532.9 164,533.4 164.3,533.8 164.6,534.3 164.9,534.7 
		165.1,535 	"/>
	<polyline id="polyline2405" class="st0" points="165.1,535 165.3,535.6 165.6,536.1 165.9,536.7 166.3,537.2 166.6,537.7 
		167,538.1 167.8,539 169.6,540.9 170.5,541.8 171.5,542.7 173.3,544.4 175.3,546.2 177.2,547.8 179.2,549.5 181.3,551.1 
		183.4,552.6 183.6,552.9 183.8,553.2 183.9,553.4 183.9,553.5 184,553.5 184,553.9 184.1,554.1 184.2,554.4 184.2,554.7 
		184.2,555.3 184.1,556 184.1,556.3 184,556.6 183.9,556.9 183.7,557.2 183.5,557.7 183.2,558.1 182.9,558.5 182.6,558.8 
		182.3,559.1 181.9,559.4 181.5,559.6 181.1,559.8 179.6,560.5 178.2,561 176.7,561.5 175.2,561.8 173.7,562.1 173,562.2 
		172.2,562.2 170.7,562.3 169.3,562.3 167.8,562.2 166.3,562 164.8,561.8 164.1,561.6 163.3,561.4 161.8,560.9 160.3,560.4 
		158.9,559.8 157.4,559 156.8,558.7 156.2,558.4 155.5,558.1 154.9,557.7 154.2,557.4 153.9,557.3 153.6,557.1 153,556.8 
		152.5,556.5 152,556.2 151.8,556.1 151.6,555.9 151.2,555.7 151,555.6 150.9,555.5 149.3,553.7 147.9,551.3 146.4,546.8 146,546 
		145.8,545.9 145.8,545.7 145.7,545.6 145.6,545.4 145.5,545.4 145.5,545.3 145.5,545.2 145.5,545.2 144.5,543.7 143.5,542.6 
		142,541.2 141.5,540.7 141,540.2 140.3,539.6 139.6,539.1 139.3,538.7 138.8,538.4 138,537.8 137.1,537.1 136.1,536.3 134.8,535.4 
		133.5,534.5 132.3,533.7 129.4,533.6 128.4,534.5 127.4,535.4 126.5,536.3 125.7,537.2 124.8,538.1 124,539.1 123.2,540.2 
		122.5,541.2 122.5,541.2 122.5,541.3 122.4,541.3 122.4,541.4 122.3,541.5 122.3,541.5 122.2,541.6 122.2,541.7 122.1,541.7 
		122.1,541.8 122,541.9 122,542 121.6,542.4 121.4,542.7 121.3,542.8 121.2,542.9 121.1,543 121.1,543.1 120.5,544 120,545 
		119.5,545.9 119.3,546.5 119.2,546.9 118.8,547.9 118.6,549 118.4,550.1 118.2,551.1 118,553.4 117.9,555.6 117.8,557.8 117.8,560 
		117.8,562.2 117.9,564.4 118,566.6 118.2,568.8 118.4,571 118.8,573.2 119.1,575.4 119.5,577.5 120,579.7 120.5,581.9 121.1,584.1 
		121.7,586.3 127.9,624.7 128.5,628.4 129.1,632.1 129.6,635.7 130.2,639.4 	"/>
</g>
</svg>
