<svg width="749" height="54" viewBox="0 0 749 54" fill="none" xmlns="http://www.w3.org/2000/svg">
<g id="speechBubble">
<g id="Vector 98">
<path d="M13.7327 5.23704C11.0433 8.31852 4.85755 15.7911 1.63022 21.0296C-1.12492 25.5017 5.72412 33.6606 11.1338 38.7481L33.9035 45.2963H65.3699L116.2 53L100.87 45.2963L116.2 41.0593H158.156C169.182 41.0593 197.852 42.9081 211.406 41.0593C228.35 38.7481 265.464 41.0593 288.862 41.0593C312.26 41.0593 350.181 45.2963 364.704 45.2963H454.263C465.558 45.2963 511.548 46.837 540.594 45.2963C563.83 44.0637 603.526 46.0667 622.89 45.2963H682.596C695.505 45.2963 697.926 45.2963 718.096 43.7556C738.267 42.2148 730.199 41.0593 738.267 38.7481C744.722 36.8993 748.487 29.2469 747.949 24.1111L738.267 9.85926C738.267 9.85926 738.267 5.23704 714.869 5.23704H694.698H577.708L74.2451 1H33.9035L13.7327 5.23704Z" fill="white"/>
<path d="M13.7327 41.0593C12.9457 40.4018 12.0609 39.6201 11.1338 38.7481M11.1338 38.7481C5.72412 33.6606 -1.12492 25.5017 1.63022 21.0296C4.85755 15.7911 11.0433 8.31852 13.7327 5.23704L33.9035 1H74.2451L577.708 5.23704H694.698C694.698 5.23704 691.471 5.23704 714.869 5.23704C738.267 5.23704 738.267 9.85926 738.267 9.85926L747.949 24.1111C748.487 29.2469 744.722 36.8993 738.267 38.7481C730.199 41.0593 738.267 42.2148 718.096 43.7556C697.926 45.2963 695.505 45.2963 682.596 45.2963C672.268 45.2963 638.489 45.2963 622.89 45.2963C603.526 46.0667 563.83 44.0637 540.594 45.2963C511.548 46.837 465.558 45.2963 454.263 45.2963C433.285 45.2963 379.227 45.2963 364.704 45.2963C350.181 45.2963 312.26 41.0593 288.862 41.0593C265.464 41.0593 228.35 38.7481 211.406 41.0593C197.852 42.9081 169.182 41.0593 158.156 41.0593H116.2L100.87 45.2963L116.2 53L65.3699 45.2963H33.9035L11.1338 38.7481Z" stroke="black" stroke-width="2" stroke-linecap="round" stroke-linejoin="round"/>
</g>
<path id="How much is X tons of CO2 indicate? Click one panel from following options to compare the amount:" d="M21.2887 27.096C21.7367 27.096 22.1047 26.728 22.1047 26.312V22.712L27.9287 21.896V26.312C27.9287 26.728 28.2807 27.096 28.7287 27.096C29.1447 27.096 29.5287 26.728 29.5287 26.312V16.984C29.5287 16.536 29.1447 16.2 28.7287 16.2C28.2807 16.2 27.9287 16.536 27.9287 16.984V20.328L22.1047 21.144V16.984C22.1047 16.536 21.7367 16.2 21.2887 16.2C20.8407 16.2 20.5047 16.536 20.5047 16.984V26.312C20.5047 26.728 20.8407 27.096 21.2887 27.096ZM34.6306 27.096C36.6626 27.096 38.3906 25.144 38.3906 22.808C38.3906 20.84 36.9506 19.112 35.0786 19.112C33.0466 19.112 31.3346 21.08 31.3346 23.384C31.3346 25.432 32.7586 27.096 34.6306 27.096ZM34.6306 25.656C33.7666 25.656 32.9026 24.856 32.9026 23.368C32.9026 21.88 33.8786 20.552 35.0146 20.552C36.0226 20.552 36.8226 21.656 36.8226 22.888C36.8226 24.36 35.7826 25.656 34.6306 25.656ZM41.3442 27.096C41.6642 27.096 41.9522 26.904 42.0802 26.536L43.6162 22.312L44.6882 26.504C44.8002 26.92 45.0722 27.096 45.4402 27.096C45.8242 27.096 46.0642 26.856 46.1762 26.52L48.2242 20.136C48.2402 20.088 48.2722 19.992 48.2722 19.832C48.2722 19.416 47.9042 19.112 47.5042 19.112C47.1682 19.112 46.8482 19.384 46.7522 19.704L45.4882 23.864L44.4962 19.656C44.4002 19.272 44.1122 19.096 43.7282 19.096C43.3922 19.096 43.0722 19.32 42.9602 19.656L41.5202 23.784L40.7042 19.736C40.6242 19.368 40.3682 19.096 39.9522 19.096C39.5362 19.096 39.2002 19.432 39.2002 19.768C39.2002 19.912 39.2162 19.992 39.2482 20.152L40.5762 26.472C40.6562 26.856 40.9122 27.096 41.3442 27.096ZM56.5052 27.096C56.9212 27.096 57.2732 26.76 57.2732 26.344L57.2572 23.992C57.2572 23.208 57.4492 22.6 57.8172 21.976C58.2332 21.32 58.9372 20.584 59.6892 20.584C60.2492 20.584 60.4732 21.048 60.4732 22.056V26.344C60.4732 26.76 60.8412 27.096 61.2412 27.096C61.6732 27.096 62.0092 26.76 62.0092 26.344V23.368C62.0092 21.752 63.0652 20.584 63.9932 20.584C64.6012 20.584 64.8572 21.08 64.8572 22.056V26.344C64.8572 26.76 65.2092 27.096 65.6252 27.096C66.0252 27.096 66.3932 26.76 66.3932 26.344V22.152C66.3932 20.056 65.5292 19.112 64.2492 19.112C63.1772 19.112 62.3612 19.736 61.7532 20.648C61.4652 19.592 60.7452 19.112 59.9132 19.112C58.8252 19.112 57.9292 19.752 57.2732 21V19.88C57.2732 19.48 56.9372 19.112 56.5052 19.112C56.1052 19.112 55.7372 19.48 55.7372 19.88V26.344C55.7372 26.76 56.1052 27.096 56.5052 27.096ZM70.6636 27.144C71.6236 27.144 72.3916 26.6 72.9356 26.216V26.392C72.9356 26.824 73.3356 27.096 73.7516 27.096C74.1676 27.096 74.5196 26.728 74.5196 26.328V19.832C74.5196 19.4 74.1516 19.096 73.7516 19.096C73.3836 19.096 72.9996 19.4 72.9996 19.832L72.9676 24.392C72.9676 24.584 72.9356 24.728 72.8716 24.792C72.5996 25.096 71.6876 25.704 70.8236 25.704C70.2476 25.704 69.7676 25.272 69.7676 22.904C69.7676 21.288 69.9596 20.12 69.9596 19.848C69.9596 19.336 69.5916 19.096 69.1916 19.096C68.7276 19.096 68.5196 19.4 68.4396 19.912C68.3276 20.632 68.2636 21.752 68.2636 22.552C68.2636 26.344 69.0476 27.144 70.6636 27.144ZM79.7288 27.096C81.0728 27.096 82.1768 26.344 82.7368 25.592C82.8648 25.432 82.9128 25.256 82.9128 25.048C82.9128 24.68 82.5768 24.344 82.1608 24.344C81.8568 24.344 81.6168 24.552 81.4728 24.744C81.1048 25.24 80.6088 25.64 79.6968 25.64C78.7208 25.64 77.7448 24.888 77.7448 23.56C77.7448 22.04 78.8488 20.568 79.8728 20.568C80.5128 20.568 80.8168 20.872 81.1048 21.192C81.3128 21.448 81.4408 21.512 81.7128 21.512C82.1288 21.512 82.4808 21.192 82.4808 20.776C82.4808 20.584 82.4168 20.408 82.2408 20.216C81.6328 19.496 81.0408 19.112 79.8568 19.112C77.9528 19.112 76.2408 21.4 76.2408 23.592C76.2408 25.544 77.7608 27.096 79.7288 27.096ZM85.0364 27.112C85.4524 27.112 85.8044 26.824 85.8044 26.312V23.928C85.8044 23.496 85.8524 23.112 85.9964 22.792C86.1724 22.408 87.2124 20.6 88.2524 20.6C88.6204 20.6 89.1164 21.016 89.1164 24.488C89.1164 25.496 89.0844 25.928 89.0844 26.344C89.0844 26.76 89.3724 27.096 89.8364 27.096C90.2524 27.096 90.5724 26.776 90.5884 26.376C90.6364 25.928 90.6364 25.352 90.6364 24.376C90.6364 20.84 90.0764 19.08 88.3484 19.08C87.4044 19.08 86.4764 19.72 85.8044 20.568V17.128C85.8044 16.712 85.5164 16.344 85.0684 16.344C84.6204 16.344 84.2684 16.712 84.2684 17.128V26.344C84.2684 26.744 84.6364 27.112 85.0364 27.112ZM99.2887 18.44C99.7207 18.44 100.041 18.12 100.057 17.688L100.073 17.08C100.089 16.696 99.7207 16.312 99.3207 16.312C98.9207 16.312 98.5687 16.648 98.5527 17.064L98.5367 17.656C98.5207 18.072 98.8887 18.44 99.2887 18.44ZM99.2087 27.096C99.6247 27.096 99.9927 26.744 99.9927 26.312L100.073 19.944C100.073 19.512 99.7367 19.16 99.2887 19.16C98.8727 19.16 98.5047 19.512 98.5047 19.944L98.4247 26.312C98.4247 26.744 98.7767 27.096 99.2087 27.096ZM104.619 27.096C106.379 27.096 107.483 25.848 107.483 24.648C107.483 23.432 106.843 22.888 105.115 22.344C103.963 21.976 103.499 21.736 103.499 21.224C103.499 20.792 103.883 20.456 104.907 20.456C105.723 20.456 106.043 20.728 106.043 21.096C106.043 21.224 105.963 21.336 105.963 21.48C105.963 21.784 106.251 22.136 106.715 22.136C107.227 22.136 107.515 21.768 107.515 21.112C107.515 19.912 106.571 19.112 104.875 19.112C103.019 19.112 102.027 20.056 102.027 21.256C102.027 22.456 102.763 23.128 104.491 23.656C105.691 24.024 105.979 24.248 105.979 24.728C105.979 25.192 105.531 25.72 104.651 25.72C103.851 25.72 103.307 25.304 103.083 24.648C102.987 24.344 102.731 24.12 102.363 24.12C101.947 24.12 101.611 24.456 101.611 24.872C101.611 25.448 102.587 27.096 104.619 27.096ZM115.263 27.096C115.487 27.096 115.663 27.032 115.855 26.808L119.199 22.84L122.383 26.808C122.543 27 122.767 27.096 123.007 27.096C123.439 27.096 123.775 26.728 123.775 26.312C123.775 26.152 123.759 25.992 123.631 25.832L120.255 21.576L123.679 17.496C123.791 17.352 123.871 17.176 123.871 16.984C123.871 16.568 123.487 16.2 123.071 16.2C122.863 16.2 122.623 16.296 122.463 16.488L119.247 20.312L116.191 16.488C116.031 16.296 115.807 16.2 115.583 16.2C115.167 16.2 114.767 16.536 114.767 16.984C114.767 17.192 114.863 17.352 114.959 17.48L118.207 21.56L114.639 25.8C114.543 25.912 114.463 26.136 114.463 26.312C114.463 26.712 114.783 27.096 115.263 27.096ZM133.223 27.112C133.639 27.112 133.991 26.776 133.991 26.36V20.648H135.351C135.783 20.648 136.119 20.28 136.119 19.88C136.119 19.432 135.783 19.096 135.351 19.096H133.991V17.384C133.991 16.984 133.687 16.6 133.223 16.6C132.791 16.6 132.455 16.984 132.455 17.384V19.096H131.223C130.807 19.096 130.423 19.4 130.423 19.88C130.423 20.28 130.759 20.648 131.191 20.648H132.455V26.36C132.455 26.776 132.823 27.112 133.223 27.112ZM139.474 27.096C141.506 27.096 143.234 25.144 143.234 22.808C143.234 20.84 141.794 19.112 139.922 19.112C137.89 19.112 136.178 21.08 136.178 23.384C136.178 25.432 137.602 27.096 139.474 27.096ZM139.474 25.656C138.61 25.656 137.746 24.856 137.746 23.368C137.746 21.88 138.722 20.552 139.858 20.552C140.866 20.552 141.666 21.656 141.666 22.888C141.666 24.36 140.626 25.656 139.474 25.656ZM145.724 27.096C146.204 27.096 146.476 26.744 146.476 26.296V24.952C146.476 23.768 146.652 23.032 147.132 22.168C147.676 21.176 148.348 20.6 148.988 20.6C149.724 20.6 150.044 21.144 150.044 23.688V26.344C150.044 26.728 150.396 27.096 150.812 27.096C151.244 27.096 151.548 26.728 151.548 26.328C151.548 25.416 151.564 24.872 151.564 23.528C151.564 20.184 150.876 19.112 149.132 19.112C148.044 19.112 147.1 19.8 146.492 21.08V19.864C146.492 19.432 146.156 19.096 145.756 19.096C145.34 19.096 144.956 19.432 144.956 19.864V26.36C144.956 26.744 145.308 27.096 145.724 27.096ZM155.947 27.096C157.707 27.096 158.811 25.848 158.811 24.648C158.811 23.432 158.171 22.888 156.443 22.344C155.291 21.976 154.827 21.736 154.827 21.224C154.827 20.792 155.211 20.456 156.235 20.456C157.051 20.456 157.371 20.728 157.371 21.096C157.371 21.224 157.291 21.336 157.291 21.48C157.291 21.784 157.579 22.136 158.043 22.136C158.555 22.136 158.843 21.768 158.843 21.112C158.843 19.912 157.899 19.112 156.203 19.112C154.347 19.112 153.355 20.056 153.355 21.256C153.355 22.456 154.091 23.128 155.819 23.656C157.019 24.024 157.307 24.248 157.307 24.728C157.307 25.192 156.859 25.72 155.979 25.72C155.179 25.72 154.635 25.304 154.411 24.648C154.315 24.344 154.059 24.12 153.691 24.12C153.275 24.12 152.939 24.456 152.939 24.872C152.939 25.448 153.915 27.096 155.947 27.096ZM168.927 27.096C170.959 27.096 172.687 25.144 172.687 22.808C172.687 20.84 171.247 19.112 169.375 19.112C167.343 19.112 165.631 21.08 165.631 23.384C165.631 25.432 167.055 27.096 168.927 27.096ZM168.927 25.656C168.063 25.656 167.199 24.856 167.199 23.368C167.199 21.88 168.175 20.552 169.311 20.552C170.319 20.552 171.119 21.656 171.119 22.888C171.119 24.36 170.079 25.656 168.927 25.656ZM175.387 27.096C175.787 27.096 176.155 26.744 176.155 26.36V20.568H177.803C178.203 20.568 178.523 20.216 178.523 19.832C178.523 19.432 178.123 19.096 177.803 19.096L176.171 19.08C176.267 17.976 176.747 17.816 178.075 17.816C178.555 17.816 178.827 17.464 178.827 17.064C178.827 16.472 178.427 16.328 177.899 16.328C175.707 16.328 174.731 17.016 174.635 19.08H173.867C173.499 19.08 173.147 19.432 173.147 19.832C173.147 20.216 173.499 20.568 173.883 20.568H174.619V26.36C174.619 26.744 174.987 27.096 175.387 27.096ZM189.367 27.096C190.919 27.096 192.327 26.44 193.207 25.192C193.319 25.032 193.351 24.872 193.351 24.712C193.351 24.2 192.967 23.912 192.551 23.912C192.311 23.912 192.119 23.976 191.927 24.232C191.415 24.904 190.631 25.56 189.367 25.56C187.703 25.56 186.295 24.36 186.295 22.28C186.295 19.96 187.927 17.736 189.575 17.736C190.439 17.736 190.935 18.008 191.271 18.36V18.472C191.271 18.808 191.591 19.112 192.023 19.112C192.471 19.112 192.823 18.744 192.823 18.312V17.288C192.823 16.888 192.519 16.552 192.087 16.552C191.863 16.552 191.703 16.648 191.607 16.744C191.127 16.456 190.407 16.184 189.687 16.184C187.239 16.184 184.695 19.08 184.695 22.28C184.695 25.32 186.823 27.096 189.367 27.096ZM198.448 27.096C201.024 27.096 203.232 24.568 203.232 21.24C203.232 18.328 201.472 16.184 199.072 16.184C196.528 16.184 194.304 18.712 194.304 22.04C194.304 24.92 196.032 27.096 198.448 27.096ZM198.448 25.576C197.136 25.576 195.904 24.376 195.904 22.04C195.904 19.496 197.296 17.704 198.976 17.704C200.288 17.704 201.632 18.968 201.632 21.304C201.632 23.848 200.176 25.576 198.448 25.576ZM204.667 27H210.427C210.827 27 211.195 26.664 211.195 26.248C211.195 25.816 210.827 25.48 210.427 25.48H206.251C206.475 24.088 207.483 23.384 208.475 22.744C209.707 21.96 211.067 21.048 211.067 19.256C211.067 17.704 209.787 16.44 207.963 16.44C206.651 16.44 205.675 17.144 205.115 17.688C204.715 18.072 204.603 18.264 204.603 18.52C204.603 18.904 204.907 19.304 205.371 19.304C205.739 19.304 205.883 19.128 206.043 18.952C206.155 18.824 206.923 17.976 207.963 17.976C208.843 17.976 209.531 18.504 209.531 19.256C209.531 20.232 208.683 20.76 207.515 21.528C206.155 22.392 204.667 23.48 204.667 26.248V27ZM219.523 18.44C219.955 18.44 220.275 18.12 220.291 17.688L220.307 17.08C220.323 16.696 219.955 16.312 219.555 16.312C219.155 16.312 218.803 16.648 218.787 17.064L218.771 17.656C218.755 18.072 219.123 18.44 219.523 18.44ZM219.443 27.096C219.859 27.096 220.227 26.744 220.227 26.312L220.307 19.944C220.307 19.512 219.971 19.16 219.523 19.16C219.107 19.16 218.739 19.512 218.739 19.944L218.659 26.312C218.659 26.744 219.011 27.096 219.443 27.096ZM223.318 27.096C223.798 27.096 224.07 26.744 224.07 26.296V24.952C224.07 23.768 224.246 23.032 224.726 22.168C225.27 21.176 225.942 20.6 226.582 20.6C227.318 20.6 227.638 21.144 227.638 23.688V26.344C227.638 26.728 227.99 27.096 228.406 27.096C228.838 27.096 229.142 26.728 229.142 26.328C229.142 25.416 229.158 24.872 229.158 23.528C229.158 20.184 228.47 19.112 226.726 19.112C225.638 19.112 224.694 19.8 224.086 21.08V19.864C224.086 19.432 223.75 19.096 223.35 19.096C222.934 19.096 222.55 19.432 222.55 19.864V26.36C222.55 26.744 222.902 27.096 223.318 27.096ZM233.589 27.08C234.469 27.08 235.253 26.616 235.733 26.168V26.456C235.733 26.856 236.085 27.096 236.469 27.096C236.901 27.096 237.237 26.776 237.253 26.36L237.477 17.048C237.493 16.552 237.109 16.232 236.725 16.232C236.293 16.232 235.941 16.584 235.925 17.016L235.845 19.496C235.445 19.336 234.821 19.128 234.133 19.128C232.133 19.128 230.725 20.664 230.725 23.464C230.725 25.816 231.989 27.08 233.589 27.08ZM233.717 25.64C232.869 25.64 232.261 25.016 232.261 23.416C232.261 21.56 232.933 20.568 234.229 20.568C234.821 20.568 235.477 20.824 235.829 21.064L235.765 24.216C235.749 24.76 234.885 25.64 233.717 25.64ZM240.461 18.44C240.893 18.44 241.213 18.12 241.229 17.688L241.245 17.08C241.261 16.696 240.893 16.312 240.493 16.312C240.093 16.312 239.741 16.648 239.725 17.064L239.709 17.656C239.693 18.072 240.061 18.44 240.461 18.44ZM240.381 27.096C240.797 27.096 241.165 26.744 241.165 26.312L241.245 19.944C241.245 19.512 240.909 19.16 240.461 19.16C240.045 19.16 239.677 19.512 239.677 19.944L239.597 26.312C239.597 26.744 239.949 27.096 240.381 27.096ZM246.463 27.096C247.807 27.096 248.911 26.344 249.471 25.592C249.599 25.432 249.647 25.256 249.647 25.048C249.647 24.68 249.311 24.344 248.895 24.344C248.591 24.344 248.351 24.552 248.207 24.744C247.839 25.24 247.343 25.64 246.431 25.64C245.455 25.64 244.479 24.888 244.479 23.56C244.479 22.04 245.583 20.568 246.607 20.568C247.247 20.568 247.551 20.872 247.839 21.192C248.047 21.448 248.175 21.512 248.447 21.512C248.863 21.512 249.215 21.192 249.215 20.776C249.215 20.584 249.151 20.408 248.975 20.216C248.367 19.496 247.775 19.112 246.591 19.112C244.687 19.112 242.975 21.4 242.975 23.592C242.975 25.544 244.495 27.096 246.463 27.096ZM256.123 27.256C256.571 27.256 256.891 26.872 256.891 26.456V19.8C256.475 19.608 255.483 19.112 254.331 19.112C251.963 19.112 250.491 21.432 250.491 23.64C250.491 25.704 251.819 27.096 253.579 27.096C254.219 27.096 254.907 26.92 255.403 26.392V26.616C255.403 27 255.691 27.256 256.123 27.256ZM253.691 25.608C252.667 25.608 252.043 24.936 252.043 23.608C252.043 22.04 252.955 20.584 254.363 20.584C254.699 20.584 255.099 20.664 255.371 20.776L255.323 24.952C254.987 25.256 254.363 25.608 253.691 25.608ZM260.52 27.112C260.936 27.112 261.288 26.776 261.288 26.36V20.648H262.648C263.08 20.648 263.416 20.28 263.416 19.88C263.416 19.432 263.08 19.096 262.648 19.096H261.288V17.384C261.288 16.984 260.984 16.6 260.52 16.6C260.088 16.6 259.752 16.984 259.752 17.384V19.096H258.52C258.104 19.096 257.72 19.4 257.72 19.88C257.72 20.28 258.056 20.648 258.488 20.648H259.752V26.36C259.752 26.776 260.12 27.112 260.52 27.112ZM267.443 27.096C268.435 27.096 269.539 26.568 270.115 25.912C270.243 25.768 270.307 25.624 270.307 25.432C270.307 25.016 269.987 24.712 269.555 24.712C269.347 24.712 269.171 24.824 269.027 24.968C268.675 25.336 268.147 25.656 267.443 25.656C266.531 25.656 265.683 25.288 265.379 24.616L269.667 22.152C270.003 21.96 270.163 21.672 270.163 21.416C270.163 20.664 269.203 19.112 267.091 19.112C264.899 19.112 263.475 21.08 263.475 23.08C263.475 25.592 265.187 27.096 267.443 27.096ZM264.931 23.288C264.931 23.064 264.931 22.952 264.963 22.712C265.091 21.528 265.955 20.552 267.203 20.552C267.827 20.552 268.323 20.776 268.579 21.224L264.931 23.288ZM273.383 24.552C273.655 24.552 274.055 24.248 274.471 23.88C274.487 23.864 275.271 23.16 275.927 22.552C276.487 22.04 277.671 21.16 277.671 19.4C277.671 17.384 276.231 16.04 274.103 16.04C272.871 16.04 271.895 16.744 271.447 17.24C271.287 17.416 271.047 17.72 271.047 17.976C271.047 18.44 271.415 18.744 271.815 18.744C272.007 18.744 272.199 18.68 272.327 18.536C272.727 18.088 273.271 17.544 274.103 17.544C275.639 17.544 276.183 18.504 276.183 19.4C276.183 20.056 275.543 20.856 274.791 21.592C273.959 22.408 273.287 22.888 272.903 23.224C272.727 23.368 272.631 23.592 272.631 23.8C272.631 24.216 272.967 24.552 273.383 24.552ZM272.887 27.096C273.383 27.096 273.831 26.632 273.831 26.056C273.831 25.56 273.479 25.16 272.999 25.16C272.519 25.16 272.055 25.656 272.055 26.184C272.055 26.696 272.391 27.096 272.887 27.096ZM289.726 27.096C291.278 27.096 292.686 26.44 293.566 25.192C293.678 25.032 293.71 24.872 293.71 24.712C293.71 24.2 293.326 23.912 292.91 23.912C292.67 23.912 292.478 23.976 292.286 24.232C291.774 24.904 290.99 25.56 289.726 25.56C288.062 25.56 286.654 24.36 286.654 22.28C286.654 19.96 288.286 17.736 289.934 17.736C290.798 17.736 291.294 18.008 291.63 18.36V18.472C291.63 18.808 291.95 19.112 292.382 19.112C292.83 19.112 293.182 18.744 293.182 18.312V17.288C293.182 16.888 292.878 16.552 292.446 16.552C292.222 16.552 292.062 16.648 291.966 16.744C291.486 16.456 290.766 16.184 290.046 16.184C287.598 16.184 285.054 19.08 285.054 22.28C285.054 25.32 287.182 27.096 289.726 27.096ZM295.911 27.096C296.279 27.096 296.679 26.776 296.679 26.376V17.096C296.679 16.68 296.311 16.344 295.911 16.344C295.463 16.344 295.143 16.68 295.143 17.096V26.376C295.143 26.776 295.511 27.096 295.911 27.096ZM299.789 18.44C300.221 18.44 300.541 18.12 300.557 17.688L300.573 17.08C300.589 16.696 300.221 16.312 299.821 16.312C299.421 16.312 299.069 16.648 299.053 17.064L299.037 17.656C299.021 18.072 299.389 18.44 299.789 18.44ZM299.709 27.096C300.125 27.096 300.493 26.744 300.493 26.312L300.573 19.944C300.573 19.512 300.237 19.16 299.789 19.16C299.373 19.16 299.005 19.512 299.005 19.944L298.925 26.312C298.925 26.744 299.277 27.096 299.709 27.096ZM305.791 27.096C307.135 27.096 308.239 26.344 308.799 25.592C308.927 25.432 308.975 25.256 308.975 25.048C308.975 24.68 308.639 24.344 308.223 24.344C307.919 24.344 307.679 24.552 307.535 24.744C307.167 25.24 306.671 25.64 305.759 25.64C304.783 25.64 303.807 24.888 303.807 23.56C303.807 22.04 304.911 20.568 305.935 20.568C306.575 20.568 306.879 20.872 307.167 21.192C307.375 21.448 307.503 21.512 307.775 21.512C308.191 21.512 308.543 21.192 308.543 20.776C308.543 20.584 308.479 20.408 308.303 20.216C307.695 19.496 307.103 19.112 305.919 19.112C304.015 19.112 302.303 21.4 302.303 23.592C302.303 25.544 303.823 27.096 305.791 27.096ZM311.131 27.096C311.579 27.096 311.915 26.728 311.915 26.328V24.008C312.139 23.864 312.491 23.64 312.843 23.368C313.355 24.024 314.491 25.464 315.467 26.776C315.611 26.952 315.835 27.048 316.075 27.048C316.539 27.048 316.843 26.68 316.843 26.248C316.843 26.024 316.731 25.864 316.635 25.752L313.995 22.44C314.651 21.832 315.611 20.824 316.203 20.04C316.283 19.944 316.363 19.784 316.363 19.576C316.363 19.16 316.043 18.84 315.611 18.84C315.323 18.84 315.131 18.984 314.987 19.16C314.139 20.184 312.779 21.56 311.899 22.312L311.883 17.128C311.883 16.712 311.563 16.344 311.115 16.344C310.699 16.344 310.331 16.68 310.331 17.096L310.363 26.328C310.363 26.728 310.747 27.096 311.131 27.096ZM326.615 27.096C328.647 27.096 330.375 25.144 330.375 22.808C330.375 20.84 328.935 19.112 327.063 19.112C325.031 19.112 323.319 21.08 323.319 23.384C323.319 25.432 324.743 27.096 326.615 27.096ZM326.615 25.656C325.751 25.656 324.887 24.856 324.887 23.368C324.887 21.88 325.863 20.552 326.999 20.552C328.007 20.552 328.807 21.656 328.807 22.888C328.807 24.36 327.767 25.656 326.615 25.656ZM332.865 27.096C333.345 27.096 333.617 26.744 333.617 26.296V24.952C333.617 23.768 333.793 23.032 334.273 22.168C334.817 21.176 335.489 20.6 336.129 20.6C336.865 20.6 337.185 21.144 337.185 23.688V26.344C337.185 26.728 337.537 27.096 337.953 27.096C338.385 27.096 338.689 26.728 338.689 26.328C338.689 25.416 338.705 24.872 338.705 23.528C338.705 20.184 338.017 19.112 336.273 19.112C335.185 19.112 334.241 19.8 333.633 21.08V19.864C333.633 19.432 333.297 19.096 332.897 19.096C332.481 19.096 332.097 19.432 332.097 19.864V26.36C332.097 26.744 332.449 27.096 332.865 27.096ZM344.24 27.096C345.232 27.096 346.336 26.568 346.912 25.912C347.04 25.768 347.104 25.624 347.104 25.432C347.104 25.016 346.784 24.712 346.352 24.712C346.144 24.712 345.968 24.824 345.824 24.968C345.472 25.336 344.944 25.656 344.24 25.656C343.328 25.656 342.48 25.288 342.176 24.616L346.464 22.152C346.8 21.96 346.96 21.672 346.96 21.416C346.96 20.664 346 19.112 343.888 19.112C341.696 19.112 340.272 21.08 340.272 23.08C340.272 25.592 341.984 27.096 344.24 27.096ZM341.728 23.288C341.728 23.064 341.728 22.952 341.76 22.712C341.888 21.528 342.752 20.552 344 20.552C344.624 20.552 345.12 20.776 345.376 21.224L341.728 23.288ZM355.115 29.928C355.515 29.928 355.883 29.56 355.883 29.16V26.552C356.379 26.84 356.843 26.984 357.403 26.984C360.251 26.984 360.955 24.536 360.955 22.728C360.955 20.296 359.515 19.096 358.267 19.096C357.227 19.096 356.427 19.384 355.867 20.024V19.848C355.867 19.368 355.451 19.096 355.131 19.096C354.683 19.096 354.347 19.432 354.347 19.88V29.16C354.347 29.56 354.699 29.928 355.115 29.928ZM357.499 25.512C356.891 25.512 356.251 25.272 355.883 25.128V21.576C356.171 21.208 356.891 20.536 358.139 20.536C358.875 20.536 359.499 21.304 359.499 22.728C359.499 24.632 358.699 25.512 357.499 25.512ZM367.81 27.256C368.258 27.256 368.578 26.872 368.578 26.456V19.8C368.162 19.608 367.17 19.112 366.018 19.112C363.65 19.112 362.178 21.432 362.178 23.64C362.178 25.704 363.506 27.096 365.266 27.096C365.906 27.096 366.594 26.92 367.09 26.392V26.616C367.09 27 367.378 27.256 367.81 27.256ZM365.378 25.608C364.354 25.608 363.73 24.936 363.73 23.608C363.73 22.04 364.642 20.584 366.05 20.584C366.386 20.584 366.786 20.664 367.058 20.776L367.01 24.952C366.674 25.256 366.05 25.608 365.378 25.608ZM371.583 27.096C372.063 27.096 372.335 26.744 372.335 26.296V24.952C372.335 23.768 372.511 23.032 372.991 22.168C373.535 21.176 374.207 20.6 374.847 20.6C375.583 20.6 375.903 21.144 375.903 23.688V26.344C375.903 26.728 376.255 27.096 376.671 27.096C377.103 27.096 377.407 26.728 377.407 26.328C377.407 25.416 377.423 24.872 377.423 23.528C377.423 20.184 376.735 19.112 374.991 19.112C373.903 19.112 372.959 19.8 372.351 21.08V19.864C372.351 19.432 372.015 19.096 371.615 19.096C371.199 19.096 370.815 19.432 370.815 19.864V26.36C370.815 26.744 371.167 27.096 371.583 27.096ZM382.959 27.096C383.951 27.096 385.055 26.568 385.631 25.912C385.759 25.768 385.823 25.624 385.823 25.432C385.823 25.016 385.503 24.712 385.071 24.712C384.863 24.712 384.687 24.824 384.543 24.968C384.191 25.336 383.663 25.656 382.959 25.656C382.047 25.656 381.199 25.288 380.895 24.616L385.183 22.152C385.519 21.96 385.679 21.672 385.679 21.416C385.679 20.664 384.719 19.112 382.607 19.112C380.415 19.112 378.991 21.08 378.991 23.08C378.991 25.592 380.703 27.096 382.959 27.096ZM380.447 23.288C380.447 23.064 380.447 22.952 380.479 22.712C380.607 21.528 381.471 20.552 382.719 20.552C383.343 20.552 383.839 20.776 384.095 21.224L380.447 23.288ZM388.13 27.096C388.498 27.096 388.898 26.776 388.898 26.376V17.096C388.898 16.68 388.53 16.344 388.13 16.344C387.682 16.344 387.362 16.68 387.362 17.096V26.376C387.362 26.776 387.73 27.096 388.13 27.096ZM397.903 27.096C398.303 27.096 398.671 26.744 398.671 26.36V20.568H400.319C400.719 20.568 401.039 20.216 401.039 19.832C401.039 19.432 400.639 19.096 400.319 19.096L398.687 19.08C398.783 17.976 399.263 17.816 400.591 17.816C401.071 17.816 401.343 17.464 401.343 17.064C401.343 16.472 400.943 16.328 400.415 16.328C398.223 16.328 397.247 17.016 397.151 19.08H396.383C396.015 19.08 395.663 19.432 395.663 19.832C395.663 20.216 396.015 20.568 396.399 20.568H397.135V26.36C397.135 26.744 397.503 27.096 397.903 27.096ZM402.771 27.096C403.155 27.096 403.539 26.744 403.539 26.36L403.555 23.32C403.555 22.664 403.619 22.104 404.099 21.496C404.371 21.128 404.947 20.6 405.379 20.6C405.651 20.6 405.731 20.696 405.731 20.856V21.064C405.731 21.432 405.923 21.832 406.483 21.832C406.915 21.832 407.235 21.496 407.235 21.08V20.6C407.235 19.912 406.899 19.08 405.699 19.08C404.755 19.08 404.051 19.544 403.555 20.36V19.88C403.555 19.448 403.203 19.112 402.771 19.112C402.355 19.112 401.987 19.448 401.987 19.88V26.36C401.987 26.744 402.371 27.096 402.771 27.096ZM411.006 27.096C413.038 27.096 414.766 25.144 414.766 22.808C414.766 20.84 413.326 19.112 411.454 19.112C409.422 19.112 407.71 21.08 407.71 23.384C407.71 25.432 409.134 27.096 411.006 27.096ZM411.006 25.656C410.142 25.656 409.278 24.856 409.278 23.368C409.278 21.88 410.254 20.552 411.39 20.552C412.398 20.552 413.198 21.656 413.198 22.888C413.198 24.36 412.158 25.656 411.006 25.656ZM417.255 27.096C417.671 27.096 418.023 26.76 418.023 26.344L418.007 23.992C418.007 23.208 418.199 22.6 418.567 21.976C418.983 21.32 419.687 20.584 420.439 20.584C420.999 20.584 421.223 21.048 421.223 22.056V26.344C421.223 26.76 421.591 27.096 421.991 27.096C422.423 27.096 422.759 26.76 422.759 26.344V23.368C422.759 21.752 423.815 20.584 424.743 20.584C425.351 20.584 425.607 21.08 425.607 22.056V26.344C425.607 26.76 425.959 27.096 426.375 27.096C426.775 27.096 427.143 26.76 427.143 26.344V22.152C427.143 20.056 426.279 19.112 424.999 19.112C423.927 19.112 423.111 19.736 422.503 20.648C422.215 19.592 421.495 19.112 420.663 19.112C419.575 19.112 418.679 19.752 418.023 21V19.88C418.023 19.48 417.687 19.112 417.255 19.112C416.855 19.112 416.487 19.48 416.487 19.88V26.344C416.487 26.76 416.855 27.096 417.255 27.096ZM435.981 27.096C436.381 27.096 436.749 26.744 436.749 26.36V20.568H438.397C438.797 20.568 439.117 20.216 439.117 19.832C439.117 19.432 438.717 19.096 438.397 19.096L436.765 19.08C436.861 17.976 437.341 17.816 438.669 17.816C439.149 17.816 439.421 17.464 439.421 17.064C439.421 16.472 439.021 16.328 438.493 16.328C436.301 16.328 435.325 17.016 435.229 19.08H434.461C434.093 19.08 433.741 19.432 433.741 19.832C433.741 20.216 434.093 20.568 434.477 20.568H435.213V26.36C435.213 26.744 435.581 27.096 435.981 27.096ZM442.537 27.096C444.569 27.096 446.297 25.144 446.297 22.808C446.297 20.84 444.857 19.112 442.985 19.112C440.953 19.112 439.241 21.08 439.241 23.384C439.241 25.432 440.665 27.096 442.537 27.096ZM442.537 25.656C441.673 25.656 440.809 24.856 440.809 23.368C440.809 21.88 441.785 20.552 442.921 20.552C443.929 20.552 444.729 21.656 444.729 22.888C444.729 24.36 443.689 25.656 442.537 25.656ZM448.786 27.096C449.154 27.096 449.554 26.776 449.554 26.376V17.096C449.554 16.68 449.186 16.344 448.786 16.344C448.338 16.344 448.018 16.68 448.018 17.096V26.376C448.018 26.776 448.386 27.096 448.786 27.096ZM452.568 27.096C452.936 27.096 453.336 26.776 453.336 26.376V17.096C453.336 16.68 452.968 16.344 452.568 16.344C452.12 16.344 451.8 16.68 451.8 17.096V26.376C451.8 26.776 452.168 27.096 452.568 27.096ZM458.365 27.096C460.397 27.096 462.125 25.144 462.125 22.808C462.125 20.84 460.685 19.112 458.813 19.112C456.781 19.112 455.069 21.08 455.069 23.384C455.069 25.432 456.493 27.096 458.365 27.096ZM458.365 25.656C457.501 25.656 456.637 24.856 456.637 23.368C456.637 21.88 457.613 20.552 458.749 20.552C459.757 20.552 460.557 21.656 460.557 22.888C460.557 24.36 459.517 25.656 458.365 25.656ZM465.079 27.096C465.399 27.096 465.687 26.904 465.815 26.536L467.351 22.312L468.423 26.504C468.535 26.92 468.807 27.096 469.175 27.096C469.559 27.096 469.799 26.856 469.911 26.52L471.959 20.136C471.975 20.088 472.007 19.992 472.007 19.832C472.007 19.416 471.639 19.112 471.239 19.112C470.903 19.112 470.583 19.384 470.487 19.704L469.223 23.864L468.231 19.656C468.135 19.272 467.847 19.096 467.463 19.096C467.127 19.096 466.807 19.32 466.695 19.656L465.255 23.784L464.439 19.736C464.359 19.368 464.103 19.096 463.687 19.096C463.271 19.096 462.935 19.432 462.935 19.768C462.935 19.912 462.951 19.992 462.983 20.152L464.311 26.472C464.391 26.856 464.647 27.096 465.079 27.096ZM474.632 18.44C475.064 18.44 475.384 18.12 475.4 17.688L475.416 17.08C475.432 16.696 475.064 16.312 474.664 16.312C474.264 16.312 473.912 16.648 473.896 17.064L473.88 17.656C473.864 18.072 474.232 18.44 474.632 18.44ZM474.552 27.096C474.968 27.096 475.336 26.744 475.336 26.312L475.416 19.944C475.416 19.512 475.08 19.16 474.632 19.16C474.216 19.16 473.848 19.512 473.848 19.944L473.768 26.312C473.768 26.744 474.12 27.096 474.552 27.096ZM478.427 27.096C478.907 27.096 479.179 26.744 479.179 26.296V24.952C479.179 23.768 479.355 23.032 479.835 22.168C480.379 21.176 481.051 20.6 481.691 20.6C482.427 20.6 482.747 21.144 482.747 23.688V26.344C482.747 26.728 483.099 27.096 483.515 27.096C483.947 27.096 484.251 26.728 484.251 26.328C484.251 25.416 484.267 24.872 484.267 23.528C484.267 20.184 483.579 19.112 481.835 19.112C480.747 19.112 479.803 19.8 479.195 21.08V19.864C479.195 19.432 478.859 19.096 478.459 19.096C478.043 19.096 477.659 19.432 477.659 19.864V26.36C477.659 26.744 478.011 27.096 478.427 27.096ZM489.083 29.784C490.971 29.784 492.379 28.76 492.427 26.472L492.587 19.72C492.603 19.128 492.235 18.936 491.835 18.936C491.419 18.936 491.179 19.096 491.099 19.384C490.731 19.24 490.267 19.096 489.771 19.096C487.611 19.096 485.963 21.112 485.963 23.4C485.963 25.672 487.531 26.952 489.195 26.952C489.851 26.952 490.491 26.712 490.875 26.216L490.843 26.6C490.763 27.592 490.251 28.248 489.067 28.248C488.187 28.248 487.755 28.04 487.371 28.04C486.971 28.04 486.603 28.376 486.603 28.808C486.603 29.176 486.859 29.48 487.195 29.56C487.675 29.672 488.363 29.784 489.083 29.784ZM489.099 25.448C488.187 25.448 487.419 24.632 487.419 23.288C487.419 21.768 488.507 20.632 489.835 20.632C490.219 20.632 490.683 20.76 490.971 20.92V22.856C490.971 24.68 490.235 25.448 489.099 25.448ZM503.599 27.096C505.631 27.096 507.359 25.144 507.359 22.808C507.359 20.84 505.919 19.112 504.047 19.112C502.015 19.112 500.303 21.08 500.303 23.384C500.303 25.432 501.727 27.096 503.599 27.096ZM503.599 25.656C502.735 25.656 501.871 24.856 501.871 23.368C501.871 21.88 502.847 20.552 503.983 20.552C504.991 20.552 505.791 21.656 505.791 22.888C505.791 24.36 504.751 25.656 503.599 25.656ZM509.849 29.928C510.249 29.928 510.617 29.56 510.617 29.16V26.552C511.113 26.84 511.577 26.984 512.137 26.984C514.985 26.984 515.689 24.536 515.689 22.728C515.689 20.296 514.249 19.096 513.001 19.096C511.961 19.096 511.161 19.384 510.601 20.024V19.848C510.601 19.368 510.185 19.096 509.865 19.096C509.417 19.096 509.081 19.432 509.081 19.88V29.16C509.081 29.56 509.433 29.928 509.849 29.928ZM512.233 25.512C511.625 25.512 510.985 25.272 510.617 25.128V21.576C510.905 21.208 511.625 20.536 512.873 20.536C513.609 20.536 514.233 21.304 514.233 22.728C514.233 24.632 513.433 25.512 512.233 25.512ZM518.754 27.112C519.17 27.112 519.522 26.776 519.522 26.36V20.648H520.882C521.314 20.648 521.65 20.28 521.65 19.88C521.65 19.432 521.314 19.096 520.882 19.096H519.522V17.384C519.522 16.984 519.218 16.6 518.754 16.6C518.322 16.6 517.986 16.984 517.986 17.384V19.096H516.754C516.338 19.096 515.954 19.4 515.954 19.88C515.954 20.28 516.29 20.648 516.722 20.648H517.986V26.36C517.986 26.776 518.354 27.112 518.754 27.112ZM523.476 18.44C523.908 18.44 524.228 18.12 524.244 17.688L524.26 17.08C524.276 16.696 523.908 16.312 523.508 16.312C523.108 16.312 522.756 16.648 522.74 17.064L522.724 17.656C522.708 18.072 523.076 18.44 523.476 18.44ZM523.396 27.096C523.812 27.096 524.18 26.744 524.18 26.312L524.26 19.944C524.26 19.512 523.924 19.16 523.476 19.16C523.06 19.16 522.692 19.512 522.692 19.944L522.612 26.312C522.612 26.744 522.964 27.096 523.396 27.096ZM529.287 27.096C531.319 27.096 533.047 25.144 533.047 22.808C533.047 20.84 531.607 19.112 529.735 19.112C527.703 19.112 525.991 21.08 525.991 23.384C525.991 25.432 527.415 27.096 529.287 27.096ZM529.287 25.656C528.423 25.656 527.559 24.856 527.559 23.368C527.559 21.88 528.535 20.552 529.671 20.552C530.679 20.552 531.479 21.656 531.479 22.888C531.479 24.36 530.439 25.656 529.287 25.656ZM535.536 27.096C536.016 27.096 536.288 26.744 536.288 26.296V24.952C536.288 23.768 536.464 23.032 536.944 22.168C537.488 21.176 538.16 20.6 538.8 20.6C539.536 20.6 539.856 21.144 539.856 23.688V26.344C539.856 26.728 540.208 27.096 540.624 27.096C541.056 27.096 541.36 26.728 541.36 26.328C541.36 25.416 541.376 24.872 541.376 23.528C541.376 20.184 540.688 19.112 538.944 19.112C537.856 19.112 536.912 19.8 536.304 21.08V19.864C536.304 19.432 535.968 19.096 535.568 19.096C535.152 19.096 534.768 19.432 534.768 19.864V26.36C534.768 26.744 535.12 27.096 535.536 27.096ZM545.76 27.096C547.52 27.096 548.624 25.848 548.624 24.648C548.624 23.432 547.984 22.888 546.256 22.344C545.104 21.976 544.64 21.736 544.64 21.224C544.64 20.792 545.024 20.456 546.048 20.456C546.864 20.456 547.184 20.728 547.184 21.096C547.184 21.224 547.104 21.336 547.104 21.48C547.104 21.784 547.392 22.136 547.856 22.136C548.368 22.136 548.656 21.768 548.656 21.112C548.656 19.912 547.712 19.112 546.016 19.112C544.16 19.112 543.168 20.056 543.168 21.256C543.168 22.456 543.904 23.128 545.632 23.656C546.832 24.024 547.12 24.248 547.12 24.728C547.12 25.192 546.672 25.72 545.792 25.72C544.992 25.72 544.448 25.304 544.224 24.648C544.128 24.344 543.872 24.12 543.504 24.12C543.088 24.12 542.752 24.456 542.752 24.872C542.752 25.448 543.728 27.096 545.76 27.096ZM557.348 27.112C557.764 27.112 558.116 26.776 558.116 26.36V20.648H559.476C559.908 20.648 560.244 20.28 560.244 19.88C560.244 19.432 559.908 19.096 559.476 19.096H558.116V17.384C558.116 16.984 557.812 16.6 557.348 16.6C556.916 16.6 556.58 16.984 556.58 17.384V19.096H555.348C554.932 19.096 554.548 19.4 554.548 19.88C554.548 20.28 554.884 20.648 555.316 20.648H556.58V26.36C556.58 26.776 556.948 27.112 557.348 27.112ZM563.599 27.096C565.631 27.096 567.359 25.144 567.359 22.808C567.359 20.84 565.919 19.112 564.047 19.112C562.015 19.112 560.303 21.08 560.303 23.384C560.303 25.432 561.727 27.096 563.599 27.096ZM563.599 25.656C562.735 25.656 561.871 24.856 561.871 23.368C561.871 21.88 562.847 20.552 563.983 20.552C564.991 20.552 565.791 21.656 565.791 22.888C565.791 24.36 564.751 25.656 563.599 25.656ZM577.76 27.096C579.104 27.096 580.208 26.344 580.768 25.592C580.896 25.432 580.944 25.256 580.944 25.048C580.944 24.68 580.608 24.344 580.192 24.344C579.888 24.344 579.648 24.552 579.504 24.744C579.136 25.24 578.64 25.64 577.728 25.64C576.752 25.64 575.776 24.888 575.776 23.56C575.776 22.04 576.88 20.568 577.904 20.568C578.544 20.568 578.848 20.872 579.136 21.192C579.344 21.448 579.472 21.512 579.744 21.512C580.16 21.512 580.512 21.192 580.512 20.776C580.512 20.584 580.448 20.408 580.272 20.216C579.664 19.496 579.072 19.112 577.888 19.112C575.984 19.112 574.272 21.4 574.272 23.592C574.272 25.544 575.792 27.096 577.76 27.096ZM585.084 27.096C587.116 27.096 588.844 25.144 588.844 22.808C588.844 20.84 587.404 19.112 585.532 19.112C583.5 19.112 581.788 21.08 581.788 23.384C581.788 25.432 583.212 27.096 585.084 27.096ZM585.084 25.656C584.22 25.656 583.356 24.856 583.356 23.368C583.356 21.88 584.332 20.552 585.468 20.552C586.476 20.552 587.276 21.656 587.276 22.888C587.276 24.36 586.236 25.656 585.084 25.656ZM591.333 27.096C591.749 27.096 592.101 26.76 592.101 26.344L592.085 23.992C592.085 23.208 592.277 22.6 592.645 21.976C593.061 21.32 593.765 20.584 594.517 20.584C595.077 20.584 595.301 21.048 595.301 22.056V26.344C595.301 26.76 595.669 27.096 596.069 27.096C596.501 27.096 596.837 26.76 596.837 26.344V23.368C596.837 21.752 597.893 20.584 598.821 20.584C599.429 20.584 599.685 21.08 599.685 22.056V26.344C599.685 26.76 600.037 27.096 600.453 27.096C600.853 27.096 601.221 26.76 601.221 26.344V22.152C601.221 20.056 600.357 19.112 599.077 19.112C598.005 19.112 597.189 19.736 596.581 20.648C596.293 19.592 595.573 19.112 594.741 19.112C593.653 19.112 592.757 19.752 592.101 21V19.88C592.101 19.48 591.765 19.112 591.333 19.112C590.933 19.112 590.565 19.48 590.565 19.88V26.344C590.565 26.76 590.933 27.096 591.333 27.096ZM604.068 29.928C604.468 29.928 604.836 29.56 604.836 29.16V26.552C605.332 26.84 605.796 26.984 606.356 26.984C609.204 26.984 609.908 24.536 609.908 22.728C609.908 20.296 608.468 19.096 607.22 19.096C606.18 19.096 605.38 19.384 604.82 20.024V19.848C604.82 19.368 604.404 19.096 604.084 19.096C603.636 19.096 603.3 19.432 603.3 19.88V29.16C603.3 29.56 603.652 29.928 604.068 29.928ZM606.452 25.512C605.844 25.512 605.204 25.272 604.836 25.128V21.576C605.124 21.208 605.844 20.536 607.092 20.536C607.828 20.536 608.452 21.304 608.452 22.728C608.452 24.632 607.652 25.512 606.452 25.512ZM616.763 27.256C617.211 27.256 617.531 26.872 617.531 26.456V19.8C617.115 19.608 616.123 19.112 614.971 19.112C612.603 19.112 611.131 21.432 611.131 23.64C611.131 25.704 612.459 27.096 614.219 27.096C614.859 27.096 615.547 26.92 616.043 26.392V26.616C616.043 27 616.331 27.256 616.763 27.256ZM614.331 25.608C613.307 25.608 612.683 24.936 612.683 23.608C612.683 22.04 613.595 20.584 615.003 20.584C615.339 20.584 615.739 20.664 616.011 20.776L615.963 24.952C615.627 25.256 615.003 25.608 614.331 25.608ZM620.552 27.096C620.936 27.096 621.32 26.744 621.32 26.36L621.336 23.32C621.336 22.664 621.4 22.104 621.88 21.496C622.152 21.128 622.728 20.6 623.16 20.6C623.432 20.6 623.512 20.696 623.512 20.856V21.064C623.512 21.432 623.704 21.832 624.264 21.832C624.696 21.832 625.016 21.496 625.016 21.08V20.6C625.016 19.912 624.68 19.08 623.48 19.08C622.536 19.08 621.832 19.544 621.336 20.36V19.88C621.336 19.448 620.984 19.112 620.552 19.112C620.136 19.112 619.768 19.448 619.768 19.88V26.36C619.768 26.744 620.152 27.096 620.552 27.096ZM629.193 27.096C630.185 27.096 631.289 26.568 631.865 25.912C631.993 25.768 632.057 25.624 632.057 25.432C632.057 25.016 631.737 24.712 631.305 24.712C631.097 24.712 630.921 24.824 630.777 24.968C630.425 25.336 629.897 25.656 629.193 25.656C628.281 25.656 627.433 25.288 627.129 24.616L631.417 22.152C631.753 21.96 631.913 21.672 631.913 21.416C631.913 20.664 630.953 19.112 628.841 19.112C626.649 19.112 625.225 21.08 625.225 23.08C625.225 25.592 626.937 27.096 629.193 27.096ZM626.681 23.288C626.681 23.064 626.681 22.952 626.713 22.712C626.841 21.528 627.705 20.552 628.953 20.552C629.577 20.552 630.073 20.776 630.329 21.224L626.681 23.288ZM640.692 27.112C641.108 27.112 641.46 26.776 641.46 26.36V20.648H642.82C643.252 20.648 643.588 20.28 643.588 19.88C643.588 19.432 643.252 19.096 642.82 19.096H641.46V17.384C641.46 16.984 641.156 16.6 640.692 16.6C640.26 16.6 639.924 16.984 639.924 17.384V19.096H638.692C638.276 19.096 637.892 19.4 637.892 19.88C637.892 20.28 638.228 20.648 638.66 20.648H639.924V26.36C639.924 26.776 640.292 27.112 640.692 27.112ZM645.318 27.112C645.734 27.112 646.086 26.824 646.086 26.312V23.928C646.086 23.496 646.134 23.112 646.278 22.792C646.454 22.408 647.494 20.6 648.534 20.6C648.902 20.6 649.398 21.016 649.398 24.488C649.398 25.496 649.366 25.928 649.366 26.344C649.366 26.76 649.654 27.096 650.118 27.096C650.534 27.096 650.854 26.776 650.87 26.376C650.918 25.928 650.918 25.352 650.918 24.376C650.918 20.84 650.358 19.08 648.63 19.08C647.686 19.08 646.758 19.72 646.086 20.568V17.128C646.086 16.712 645.798 16.344 645.35 16.344C644.902 16.344 644.55 16.712 644.55 17.128V26.344C644.55 26.744 644.918 27.112 645.318 27.112ZM656.459 27.096C657.451 27.096 658.555 26.568 659.131 25.912C659.259 25.768 659.323 25.624 659.323 25.432C659.323 25.016 659.003 24.712 658.571 24.712C658.363 24.712 658.187 24.824 658.043 24.968C657.691 25.336 657.163 25.656 656.459 25.656C655.547 25.656 654.699 25.288 654.395 24.616L658.683 22.152C659.019 21.96 659.179 21.672 659.179 21.416C659.179 20.664 658.219 19.112 656.107 19.112C653.915 19.112 652.491 21.08 652.491 23.08C652.491 25.592 654.203 27.096 656.459 27.096ZM653.947 23.288C653.947 23.064 653.947 22.952 653.979 22.712C654.107 21.528 654.971 20.552 656.219 20.552C656.843 20.552 657.339 20.776 657.595 21.224L653.947 23.288ZM671.685 27.256C672.133 27.256 672.453 26.872 672.453 26.456V19.8C672.037 19.608 671.045 19.112 669.893 19.112C667.525 19.112 666.053 21.432 666.053 23.64C666.053 25.704 667.381 27.096 669.141 27.096C669.781 27.096 670.469 26.92 670.965 26.392V26.616C670.965 27 671.253 27.256 671.685 27.256ZM669.253 25.608C668.229 25.608 667.605 24.936 667.605 23.608C667.605 22.04 668.517 20.584 669.925 20.584C670.261 20.584 670.661 20.664 670.933 20.776L670.885 24.952C670.549 25.256 669.925 25.608 669.253 25.608ZM675.458 27.096C675.874 27.096 676.226 26.76 676.226 26.344L676.21 23.992C676.21 23.208 676.402 22.6 676.77 21.976C677.186 21.32 677.89 20.584 678.642 20.584C679.202 20.584 679.426 21.048 679.426 22.056V26.344C679.426 26.76 679.794 27.096 680.194 27.096C680.626 27.096 680.962 26.76 680.962 26.344V23.368C680.962 21.752 682.018 20.584 682.946 20.584C683.554 20.584 683.81 21.08 683.81 22.056V26.344C683.81 26.76 684.162 27.096 684.578 27.096C684.978 27.096 685.346 26.76 685.346 26.344V22.152C685.346 20.056 684.482 19.112 683.202 19.112C682.13 19.112 681.314 19.736 680.706 20.648C680.418 19.592 679.698 19.112 678.866 19.112C677.778 19.112 676.882 19.752 676.226 21V19.88C676.226 19.48 675.89 19.112 675.458 19.112C675.058 19.112 674.69 19.48 674.69 19.88V26.344C674.69 26.76 675.058 27.096 675.458 27.096ZM690.209 27.096C692.241 27.096 693.969 25.144 693.969 22.808C693.969 20.84 692.529 19.112 690.657 19.112C688.625 19.112 686.913 21.08 686.913 23.384C686.913 25.432 688.337 27.096 690.209 27.096ZM690.209 25.656C689.345 25.656 688.481 24.856 688.481 23.368C688.481 21.88 689.457 20.552 690.593 20.552C691.601 20.552 692.401 21.656 692.401 22.888C692.401 24.36 691.361 25.656 690.209 25.656ZM697.882 27.144C698.842 27.144 699.61 26.6 700.154 26.216V26.392C700.154 26.824 700.554 27.096 700.97 27.096C701.386 27.096 701.738 26.728 701.738 26.328V19.832C701.738 19.4 701.37 19.096 700.97 19.096C700.602 19.096 700.218 19.4 700.218 19.832L700.186 24.392C700.186 24.584 700.154 24.728 700.09 24.792C699.818 25.096 698.906 25.704 698.042 25.704C697.466 25.704 696.986 25.272 696.986 22.904C696.986 21.288 697.178 20.12 697.178 19.848C697.178 19.336 696.81 19.096 696.41 19.096C695.946 19.096 695.738 19.4 695.658 19.912C695.546 20.632 695.482 21.752 695.482 22.552C695.482 26.344 696.266 27.144 697.882 27.144ZM704.74 27.096C705.22 27.096 705.492 26.744 705.492 26.296V24.952C705.492 23.768 705.668 23.032 706.148 22.168C706.692 21.176 707.364 20.6 708.004 20.6C708.74 20.6 709.06 21.144 709.06 23.688V26.344C709.06 26.728 709.412 27.096 709.828 27.096C710.26 27.096 710.564 26.728 710.564 26.328C710.564 25.416 710.58 24.872 710.58 23.528C710.58 20.184 709.892 19.112 708.148 19.112C707.06 19.112 706.116 19.8 705.508 21.08V19.864C705.508 19.432 705.172 19.096 704.772 19.096C704.356 19.096 703.972 19.432 703.972 19.864V26.36C703.972 26.744 704.324 27.096 704.74 27.096ZM714.051 27.112C714.467 27.112 714.819 26.776 714.819 26.36V20.648H716.179C716.611 20.648 716.947 20.28 716.947 19.88C716.947 19.432 716.611 19.096 716.179 19.096H714.819V17.384C714.819 16.984 714.515 16.6 714.051 16.6C713.619 16.6 713.283 16.984 713.283 17.384V19.096H712.051C711.635 19.096 711.251 19.4 711.251 19.88C711.251 20.28 711.587 20.648 712.019 20.648H713.283V26.36C713.283 26.776 713.651 27.112 714.051 27.112ZM718.517 21.896C719.013 21.896 719.461 21.432 719.461 20.84C719.461 20.344 719.093 19.96 718.629 19.96C718.133 19.96 717.685 20.456 717.685 20.984C717.685 21.48 718.021 21.896 718.517 21.896ZM718.085 27.096C718.581 27.096 719.029 26.632 719.029 26.056C719.029 25.56 718.677 25.16 718.213 25.16C717.717 25.16 717.269 25.656 717.269 26.184C717.269 26.696 717.589 27.096 718.085 27.096Z" fill="black"/>
</g>
</svg>
