<?xml version="1.0" encoding="utf-8"?>
<!-- Generator: Adobe Illustrator 21.0.0, SVG Export Plug-In . SVG Version: 6.00 Build 0)  -->
<svg version="1.1" id="Layer_1" xmlns="http://www.w3.org/2000/svg" xmlns:xlink="http://www.w3.org/1999/xlink" x="0px" y="0px"
	 width="2000px" height="520.5px" viewBox="0 0 2000 520.5" style="enable-background:new 0 0 2000 520.5;" xml:space="preserve">
<g>
	<g>
		<path d="M343.6,349.3c3.7,5.7,11.4,5.9,17,2.8c7.3-4.2,10.9-12.2,13.9-19.7c7.4-18.1,13.2-36.8,18.8-55.6
			c10.5-35.2,20-71.1,37.1-103.9c8.9-17.1,19.9-33.3,33.6-47c-2.2-0.2-4.5-0.5-6.7-0.7c7,47,7.7,94.7,14.7,141.7
			c3.4,23.1,8.3,46.3,16.5,68.2c3.7,10,8.2,19.8,14,28.7c5.3,8.2,12.1,17.4,21.6,21c21.5,8,39.1-15.4,48.6-31.3
			c1.3-2.2,2.8-7.1-0.1-8.7c-3-1.7-6.4,2.1-7.6,4.2c-7.8,13.1-22.1,31.5-38.8,19.9c-8.1-5.6-13.9-15.2-18.5-23.7
			c-4.7-8.6-8.3-17.8-11.3-27.1c-13.5-41.4-17.1-85-20.6-128.1c-2-24.6-4.1-49.3-7.7-73.8c-0.5-3.5-5-2.4-6.7-0.7
			c-50,49.5-63.7,119.5-84.6,183.9c-3.1,9.6-6.4,19.1-10.1,28.5c-1.3,3.4-2.5,8.6-5.3,11.1c-2.5,2.2-6.4,1.5-8.1-1.1
			C349.4,332.5,340.4,344.4,343.6,349.3L343.6,349.3z"/>
	</g>
</g>
<g>
	<g>
		<path d="M379.4,253.1c25.1,1.7,50.7,3.3,75.5-1.8c10.7-2.2,21.2-5.7,30.9-10.7c5-2.6,9.7-5.6,14.2-9c4.5-3.4,8.4-7.1,14.2-7.9
			c5.5-0.8,10.2-14.6,2.5-13.5c-10.4,1.5-17.9,10.5-26.7,15.6c-9.6,5.6-20.1,9.3-30.9,11.7c-24.5,5.4-49.8,3.6-74.6,2
			C378.7,239,372.8,252.6,379.4,253.1L379.4,253.1z"/>
	</g>
</g>
<g>
	<g>
		<path d="M562.7,298.1c12.1-14.5,18.8-33,18.1-51.9c-0.1-3-2.7-5-5.5-3.2c-10.5,6.8-13.8,22.1-5,31.7c10.7,11.7,28.4,3.2,37.9-5.5
			c-2.2-1.3-4.5-2.6-6.7-3.9c-1.2,12.8-0.5,25.5,2.8,38c2.7,10.5,7,24.9,16.3,31.5c10.7,7.6,20-4.3,24.5-13
			c6.1-11.8,9.3-24.6,9.6-37.9c0.1-7.1-7.4-2.2-9.3,0.8c-6,9.1-5.8,22,1.6,30.3c8,9,20.5,8,29.4,0.8c9.1-7.4,14.7-20.7,9.5-31.9
			c-4.8-10.3-16.8-15.8-27.7-12.7c0.9,3,1.8,6,2.6,9c-0.9,1.5-0.5,0.5,1.1,0.3c1.2-0.2,2.6,0,3.8,0.3c3.2,0.8,5.9,2.7,7.7,5.4
			c4.4,6.3,5.4,14.4,8.7,21.3c3,6.1,8.2,11.3,15.5,10.8c7.6-0.5,13.8-6.3,18.4-11.9c10.8-13.1,20.4-28.5,28.4-43.4
			c8-15,14.3-31.2,16.4-48.2c1.9-15.8,0.6-32-6.1-46.6c-2.8-6.1-6.8-14.1-14.6-14.3c-6.6-0.1-11.8,5.8-14.6,11.1
			c-3.9,7.2-4.8,15.6-5.9,23.5c-1.2,8.9-2,17.9-2.3,26.8c-0.7,18.3,0.7,36.6,3.8,54.6c1.7,9.6,3.7,19.4,6.8,28.6
			c2.5,7.5,6.3,15.2,13.2,19.6c12.6,8.1,29.9-1.5,31.7-15.7c1.2-9.7-9.7-3.8-10.5,2.7c-0.3,2.5,0,0.6,0.1,0.5
			c-0.3,0.3-1.4,0.8-1.6,0.9c-2.2,0.5-3.9,1-6.2,0.8c-6.1-0.6-10.4-5.4-13.2-10.5c-2.8-5.1-4.3-10.9-5.7-16.5
			c-2-7.9-3.6-15.8-4.9-23.8c-2.3-14.9-3.2-30.1-2.7-45.2c0.2-7.6,0.8-15.1,1.7-22.6c0.5-3.7,1-7.4,1.6-11.1
			c0.4-2.4,0.6-6.5,2.2-8.6c3.1-4,7.4,2.2,9,5c3.6,6.2,5.8,13.3,7.1,20.3c2.4,13,1,26.7-2.7,39.3c-4.1,14.1-11.1,27.1-18.9,39.4
			c-3.4,5.5-7.1,10.8-10.8,16.1c-3.4,4.9-7.4,12.6-13.3,14.9c-7.7,3-12-6.1-14.1-11.9c-2.2-6.3-3.8-13.4-8.2-18.6
			c-8.3-9.9-22-8.4-28.7,2.2c-1.6,2.5-2.8,10.5,2.6,9c6.7-1.9,14.1,0.7,18.4,6.2c3.6,4.6,4.6,10.7-0.5,14.5
			c-5.1,3.8-12.2,3.2-16.8-1.3c-3.7-3.6-6.6-10.2-3.5-14.9c-3.1,0.3-6.2,0.5-9.3,0.8c-0.2,9.2-2.1,18.3-6.1,26.7
			c-1.4,2.8-2.8,7.6-6.7,6.8c-3.4-0.7-5.9-4.4-7.6-7.1c-9.5-15.4-13-35.8-11.3-53.6c0.4-4.5-2.8-7.5-6.7-3.9
			c-5.9,5.4-15.1,10.6-23.1,6.4c-2.5-1.3-4.4-3.6-5.4-6.3c-0.5-1.3-0.4-2.5-0.7-3.8c-0.4-1.6,0.8-0.7-0.5,0.2
			c-1.8-1.1-3.7-2.1-5.5-3.2c0.5,14-3.8,27.3-12.8,38.1c-1.9,2.2-4,6.8-1.9,9.6C557.4,302.6,561.1,300,562.7,298.1L562.7,298.1z"/>
	</g>
</g>
<g>
	<g>
		<path d="M862.6,302.3c1.2-5.4,2.3-12.3,6.4-16.4c3.8-3.9,9.6-4.7,14.2-1.9c9.6,5.8,11.6,21,11.6,31c0,3.6,0.6,10.8-4.4,11.3
			c-1.5,0.1-4.8-0.5-5-2.4c-0.2-1.9,3.2-2.8,4.8-3.5c10.8-4.6,22.7-6.4,33.4-11.4c10-4.7,17.8-14,18.3-25.4
			c0.4-8.3-5.8-20-15.9-15.5c-5.3,2.4-8.7,9-11,14c-2.4,5.2-4,10.8-4.6,16.6c-1.1,10.4,0.8,22,7,30.6c3.2,4.4,7.9,8.2,13.6,8
			c5.9-0.2,10.9-4.4,14.5-8.7c9.3-10.9,15.2-24.9,18.7-38.6c-3.5,0.9-7,1.8-10.5,2.7c-1,10.6-1.1,34.2,13,37.1
			c13.4,2.7,23.8-14.1,27.4-24.6c4.1-12,3.8-28-8.2-35.5c-11.4-7.1-24,0.8-29,11.6c-1.5,3.1-0.7,7.7,3.5,7.2
			c8.2-1.1,15.8-3.5,23.2-7.1c-1.8-0.6-3.5-1.1-5.3-1.7c4.8,15.7,5.7,34.1,18.8,45.8c10.7,9.6,27.7,8.5,36.1-3.5
			c1.7-2.4,4.1-6.7,1.9-9.6c-2-2.7-6-0.3-7.4,1.8c-6.8,9.7-21.1,1.7-26.3-5.4c-8.1-11-8.9-25.3-12.7-38c-0.8-2.6-3.2-2.7-5.3-1.7
			c-6.5,3.1-13.3,5-20.5,6c1.2,2.4,2.3,4.8,3.5,7.2c-0.4,0.8,1.7-0.7,2.1-0.8c1.2-0.4,2.4-0.6,3.7-0.6c3.2,0,6.3,1.5,8.6,3.7
			c5.8,5.7,6.1,14.3,3.2,21.5c-1.9,4.9-7.8,14-14.1,8.8c-6-4.9-6.3-17.9-5.7-24.8c0.3-2.8-0.4-6-4-5.4c-3.5,0.6-5.7,5-6.5,8.1
			c-1.5,6-3.8,11.9-6.7,17.3c-2.1,3.9-5.3,11.1-9.7,13.1c-4.8,2.2-9.2-2.7-11.5-6.3c-3-4.8-4.7-10.7-5-16.3
			c-0.3-5.5,0.5-11.2,2.9-16.1c1.1-2.3,1.6-4.5,4.3-2.5c1.7,1.3,2.7,3.2,2.9,5.3c1.1,9.6-15,12-21.6,14
			c-10.9,3.3-25.1,6.4-31.6,16.6c-5.1,8-5,22.2,7.4,22.2c11.7,0,18.4-12.5,19.8-22.7c1.5-11.4,0.2-24.3-4.8-34.8
			c-5-10.7-15.3-17.4-26.9-12c-13.5,6.2-18.2,21.1-21.2,34.4c-0.7,2.9,0.7,6,4,5.4C859.5,309.7,861.9,305.3,862.6,302.3L862.6,302.3
			z"/>
	</g>
</g>
<g>
	<g>
		<path d="M1279.3,224.5c-0.2,0.9-2.4,3.2-2,3.7c0.1,0.1,0.8-0.2,1-0.1c0.7,0.4,1.6,0.1,2.3,0.8c1.9,2,0.3,8-0.1,10.5
			c-1,7-2.5,13.8-4.6,20.5c-4.2,12.7-10.4,24.7-18.8,35.2c-3.5,4.3-8.8,12.1-15.3,10.8c-1.8-0.3-2.8-1.5-4.1-2.4
			c-0.2-0.1-0.7-1.3-0.8-1.3c-0.7-0.1-1.1,3.4-1.4,3.1c0.1,0.1,2.3-0.5,2.7-0.5c1.5,0,2.8,0.4,4.1,1.1c5.5,2.8,9.1,8.7,13.6,12.8
			c4.8,4.3,10.5,8.6,16.9,10.2c7.1,1.7,13.3-2.2,17.3-7.8c3.2-4.6,4.4-10.6,8.1-14.7c1.9-2.1,3.9-6.9,1.9-9.6
			c-2.2-2.8-5.8-0.1-7.4,1.8c-2.8,3.1-4.7,6.8-6.4,10.5c-0.9,2-1.7,5.2-3.7,6.3c-3.7,2-10-2.7-12.9-4.6c-4.1-2.8-7.5-6.1-10.8-9.7
			c-5.2-5.8-11.4-11.5-19.8-9.5c-8,1.9-14.7,11.1-12.6,19.4c2.3,9,12.8,10.5,20,6.9c8.3-4.1,14.8-12.7,20.1-20.1
			c11.5-16,19.4-34.3,23.3-53.7c1.1-5.3,1.9-10.8,2.2-16.2c0.2-4.4-0.2-9.8-4.5-12.2c-8.6-4.8-16.6,4.4-18.6,11.8
			c-0.8,2.9,0.8,6,4,5.4C1276.3,231.9,1278.4,227.5,1279.3,224.5L1279.3,224.5z"/>
	</g>
</g>
<g>
	<g>
		<path d="M1303.5,282.6c1.5,9.1-0.9,18.4,3.5,26.9c3.2,6.1,9.3,10,16.3,8.4c7.8-1.9,13.5-9,17.6-15.4c4.6-7.1,8.7-15,10.1-23.3
			c2.2-13.4-5.2-32-21.6-30c-14.8,1.8-22.3,18.9-24.6,31.8c-0.5,2.9,0.6,6,4,5.4c3.4-0.6,6-5,6.5-8.1c1.2-6.8,4.1-16.5,12.8-15.4
			c10.3,1.2,14.1,13.5,11.6,22.1c-1.8,6.2-8.7,22-17.4,19.4c-4.7-1.4-6.8-6.7-7.4-11.1c-0.9-6.5,0-13-1.1-19.5
			c-0.6-3.6-4.8-2.2-6.7-0.7C1304.4,275.2,1302.9,279.1,1303.5,282.6L1303.5,282.6z"/>
	</g>
</g>
<g>
	<g>
		<path d="M1362.7,260.5c-8,11.3-12.3,24.8-10.4,38.7c1.4,11,8.1,26.6,21.5,26.3c13.8-0.3,22.2-17,26.5-28
			c4.5-11.5,5.6-26.6-3.8-36.1c-9.9-10.1-25.8-5.8-32.2,5.9c-1.3,2.3-2.8,7,0.1,8.7c2.9,1.7,6.4-2,7.6-4.2c1.6-2.8,6.5-2.8,9.3-2.2
			c4.5,1,8,4.6,9.8,8.7c4.4,9.7-0.4,21.3-6.3,29.4c-7.7,10.4-18-1.6-20.5-9.8c-3-9.7-2-21.1,4-29.6c1.7-2.4,4.1-6.7,1.9-9.6
			C1368.1,256,1364.2,258.4,1362.7,260.5L1362.7,260.5z"/>
	</g>
</g>
<g>
	<g>
		<path d="M1422.9,250.5c5.5-5,11-10,16.5-14.9c-2.3-0.7-4.6-1.5-6.9-2.2c0.4,29.7-3.2,59.3-10.8,88c-0.8,2.9,0.8,6,4,5.4
			c3.6-0.6,5.7-5,6.5-8.1c7.8-29.8,11.5-60.6,11.1-91.4c-0.1-4.3-4.1-4.7-6.9-2.2c-5.5,5-11,10-16.5,14.9c-2.4,2.2-4.9,6.3-3.7,9.7
			C1417.3,253,1420.8,252.4,1422.9,250.5L1422.9,250.5z"/>
	</g>
</g>
<g>
	<g>
		<path d="M1499.7,304.4c4.5,0,9,0,13.5,0c3.5,0,6.2-3.4,7.3-6.4c0.8-2,1.4-7.3-2.2-7.3c-4.5,0-9,0-13.5,0c-3.5,0-6.2,3.4-7.3,6.4
			C1496.8,299.2,1496.2,304.4,1499.7,304.4L1499.7,304.4z"/>
	</g>
</g>
<g>
	<g>
		<path d="M1591.1,263.5c1.7-4,4.6-7.5,8.1-10.1c1.1-0.8,4.6-3.4,5.6-2.7c1.2,0.8-0.2,4.5-0.4,5.2c-2.6,10.2-7,19.9-11.7,29.3
			c-9.8,19.5-20.9,38.2-26.8,59.3c-0.7,2.4,0.2,4.9,2.7,5.5c15.9,4.1,32.5,3.2,47.9-2.4c3.4-1.2,5.9-4.5,6.5-8.1
			c0.4-2.4-0.5-6.7-4-5.4c-14.7,5.3-30.1,6-45.3,2.1c0.9,1.8,1.8,3.7,2.7,5.5c7.5-26.6,24.8-49.2,34.3-75.1
			c2.2-6.1,11.8-31-2.5-29.9c-5.5,0.4-11.4,5.2-15.3,8.9c-5,4.8-8.7,10.5-11.4,16.8c-1,2.4-1.2,6.8,2.2,7.3
			C1587.2,270.5,1590,266.1,1591.1,263.5L1591.1,263.5z"/>
	</g>
</g>
<g>
	<g>
		<path d="M1626.4,309.8c-1.1,12.3,0.4,33,17.3,33.2c14.7,0.2,24-18.7,24.8-31.1c0.8-13-8.1-26.8-22.1-27.3
			c-14.1-0.5-25.3,13-25.6,26.4c-0.1,3.3,2.8,4.5,5.5,3.2c3.2-1.6,5.2-5.8,5.3-9.2c0.1-7.2,10.4-7.5,15.2-5.4
			c7.1,3.1,11.7,10.5,10.8,18.2c-0.8,6.9-6.5,14.5-14,10c-8.3-5-7.2-15.8-6.5-24.1c0.3-3.4-2.9-4.5-5.5-3.2
			C1628.4,302.3,1626.7,306.3,1626.4,309.8L1626.4,309.8z"/>
	</g>
</g>
<g>
	<g>
		<path d="M1684.2,282c1.8,0.1,3.5,0.1,5.3,0.2c-0.9-0.8-1.8-1.6-2.6-2.4c2.2,10.9,3.7,21.9,4.4,33c0.3,5.1,0.5,10.3,0.6,15.4
			c0,5.2-0.8,10.6-0.3,15.8c0.8,8.9,11.3-0.2,10.8-6c-0.4-5.1,0.4-10.6,0.3-15.8c0-5.8-0.3-11.6-0.7-17.4c-0.8-11.4-2.4-22.8-4.7-34
			c-0.2-1.2-1.4-2.3-2.6-2.4c-1.8-0.1-3.5-0.1-5.3-0.2C1683.6,268,1677.7,281.7,1684.2,282L1684.2,282z"/>
	</g>
</g>
<g>
	<g>
		<path d="M1729.6,277.9c-2.8,26.1-2.3,52.2,1.7,78.1c0.3,1.9,2.3,2.6,3.9,2.3c13.4-3.1,26.9-6.1,40.3-9.2c5.5-1.2,10-15.2,2.5-13.5
			c-13.4,3.1-26.9,6.1-40.3,9.2c1.3,0.8,2.6,1.5,3.9,2.3c-3.6-23.7-4.1-48-1.6-71.8C1741.2,265.5,1730.3,271.4,1729.6,277.9
			L1729.6,277.9z"/>
	</g>
</g>
<g>
	<g>
		<path d="M1758.6,312.5c1.8,21,3.5,42,5.3,63.1c0.7,8.9,11.3-0.2,10.8-6c-1.8-21-3.5-42-5.3-63.1
			C1768.7,297.7,1758.1,306.8,1758.6,312.5L1758.6,312.5z"/>
	</g>
</g>
</svg>
