<?xml version="1.0" encoding="utf-8"?>
<!-- Generator: Adobe Illustrator 21.0.0, SVG Export Plug-In . SVG Version: 6.00 Build 0)  -->
<svg version="1.1" id="Layer_1" xmlns="http://www.w3.org/2000/svg" xmlns:xlink="http://www.w3.org/1999/xlink" x="0px" y="0px"
	 width="1230px" height="297px" viewBox="0 0 1230 297" style="enable-background:new 0 0 1230 297;" xml:space="preserve">
<g>
	<g>
		<path d="M338.3,25.4c-3.1-12.9-13.4-22.6-26.9-15.5c-12.2,6.4-17.3,21-19,33.9c-2,15.5-1,31.4,3,46.5c2,7.4,4.7,14.5,8,21.4
			c2.6,5.3,6,11.3,12,13.1c15.9,4.7,24.3-22.1,26.1-33.1c-2.7,1.1-5.3,2.2-8,3.3c-0.3,7.8,3.1,40.8,17.5,29.4
			c10.4-8.2,13.1-27,5.5-37.7c-3.5-5-9.6-7.5-15.3-4.7c-5.2,2.6-9.1,9.3-7.4,15.1c1.8,6,8.6,8.8,14.3,7.2
			c6.5-1.8,11.3-7.3,15.3-12.4c11-14.2,18.3-31.4,18.1-49.6c-0.1-6.3-7.7-0.4-8,3.3c-1.6,17.2-2.4,34.4-2.1,51.6
			c0.1,7.4-0.5,40.3,14,33.8c6.1-2.8,9-9.9,11.3-15.8c2.9-7.4,5.2-15,7-22.8c3.6-15.9,4.5-32.3,2.9-48.6c-0.2-2.4-1.9-3.5-4.1-2.4
			c-2.4,1.2-3.9,4.3-4,6.9c-0.7,14.3-0.5,28.7,0.6,43c0.5,6.7,1.2,13.4,2.1,20c0.7,5.2,1.1,11.4,4.5,15.7c2.9,3.6,7.5,5.4,11.9,3.6
			c5.2-2.1,7.9-7.4,10.2-12.2c5.5-11.5,8.3-23.9,8.8-36.7c0.1-2.3-1.7-3.2-3.6-2.6c-2.2,0.7-4.1,3.7-4.4,5.8c-0.9,7-0.9,14,0.2,21
			c0.8,5.1,2.2,13.4,8.5,14.4c5.8,0.9,10.7-4.8,13.1-9.4c3.1-5.8,4.5-12.7,4.3-19.2c-0.2-5.9-1.6-12.8-6-17.1
			c-4.3-4.1-9.7-3.4-13.3,1.1c-3.3,4.2-5.6,12.2-3.6,17.3c2.1,5.5,7.8,5.5,11.7,1.9c3.2-3,5.7-6.8,8.4-10.2c3.5-4.2,5.5-0.7,6.5,3.2
			c2.2,8.9,3.1,18.3,3.9,27.4c0.6,6.8,8.1-0.4,8.1-4.5c-0.1-11.3,2.4-22.5,7.9-32.4c0.9-1.6,0.8-3.1,2.3-1c0.4,0.6,0.5,1.7,0.6,2.4
			c0.7,2.9,1.1,5.9,1.6,8.8c1.1,6,2.1,12.1,3.3,18.1c1.4,7.1,6.2,16.4,15.1,13.6c4.2-1.3,7-5.2,9.1-8.8c2.9-5,5.7-10.1,8.5-15.2
			c3.3-6-2.5-9.4-5.8-3.4c-1.5,2.7-3,5.4-4.5,8.1c-1.3,2.3-2.5,5.7-4.3,7.7c-4.8,5.3-8.9-3.3-9.8-7.3c-1.4-6.1-2.3-12.4-3.4-18.6
			c-0.8-4.6-0.8-11.4-4-15.2c-7.1-8.3-15.3,8.9-17.3,13.4c-4.9,10.7-7.2,22.4-7.1,34.2c2.7-1.5,5.4-3,8.1-4.5
			c-0.5-6-1.2-12-2.1-17.9c-0.8-5.3-1.1-11.5-3.7-16.3c-6.2-11.8-16.4,1.8-21,7.4c-0.5,0.7-2,3-2.6,3c-1.8,0.1-1.6-3.3-1.4-4
			c0.5-1.9,0-1.3,1.3-0.6c1.2,0.6,2.1,1.6,2.8,2.7c3.2,4.6,3.6,11.8,2.6,17.1c-0.4,2-1.3,7.2-3.9,7.7c-3.4,0.7-4.4-5.3-4.9-7.4
			c-1.5-6.5-1.7-13.2-0.8-19.8c-2.7,1.1-5.3,2.2-8,3.3c-0.3,9.7-2.4,19.3-6.3,28.3c-0.7,1.5-1.7,5-3.2,6c-2.5,1.6-5.4-0.7-6.8-2.6
			c-2.4-3.3-2.5-8.3-3.1-12.2c-2.8-20.5-3.6-41.3-2.6-61.9c-2.7,1.5-5.4,3-8.1,4.5c1.3,12.7,1,25.5-1.1,38.1c-1,6-2.4,12-4.2,17.9
			c-0.9,2.9-1.9,5.7-2.9,8.5c-0.8,2.1-1.8,6.9-3.9,8.1c-4.4,2.6-6.1-13.6-6.3-16.1c-0.6-6.6-0.6-13.3-0.6-20
			c0-13.8,0.6-27.6,1.9-41.4c-2.7,1.1-5.3,2.2-8,3.3c0.1,10.8-3,21.2-8.3,30.6c-3.3,5.8-13.7,23.6-22.1,14.9c-0.8-0.8-1-1.8-1.4-1.5
			c-0.7,0.5,2.3,0.3,2.8,0.4c2.4,0.6,4.3,2.6,5.5,4.6c2.7,4.3,3.5,10,2.2,14.8c-0.6,2.3-2.1,6.3-4.7,4.9c-1.9-1-2.9-5.2-3.5-7.1
			c-1.9-5.8-2.6-11.8-2.3-18c0.1-2.3-1.7-3.2-3.6-2.6c-2.3,0.7-4,3.7-4.4,5.8c-1,6.2-3,14.5-7.6,19.2c-5.5,5.5-11.1-1.4-13.8-6.2
			c-6.9-12.3-10.9-27-12.2-41c-1.2-12.4-1.6-28,4.6-39.3c3-5.5,9.2-10.3,15.8-8.3c6.1,1.8,8.7,8.3,10.1,14
			C331.8,37.5,339.3,29.5,338.3,25.4L338.3,25.4z"/>
	</g>
</g>
<g>
	<g>
		<path d="M345.1,66.6c26.6,10.7,57.4,7.6,81.2-8.4c2.2-1.5,4.2-4.1,4-6.9c-0.2-2.2-2-3.8-4.1-2.4c-22.1,14.9-50.7,17.9-75.5,7.9
			C346.4,55.1,341,65,345.1,66.6L345.1,66.6z"/>
	</g>
</g>
<g>
	<g>
		<path d="M553.7,79.2c-1.2,12.1-1.6,24.2-1.2,36.4c2.7-1.5,5.4-3,8.1-4.5c-0.4-4.2-0.7-34.3,6.4-31.7c4.1,1.4,4.9,9.8,5.6,13.2
			c1.3,6.8,1.7,13.7,1.5,20.6c2.7-1.5,5.4-3,8.1-4.5c0-5.8,0.3-11.6,1-17.4c0.4-3.1,0.9-6.2,1.4-9.2c0.2-1.2,0.4-2.5,0.7-3.7
			c0.5-1.5-0.5-0.8,0.3-0.2c3.7,2.8,4.1,9.2,4.6,13.5c0.7,5.8,0.5,11.7-0.3,17.5c2.7-1.1,5.3-2.2,8-3.3c-0.7-5.9-0.8-11.7,0.3-17.6
			c0.6-2.9,1.4-5.8,2.4-8.6c0.7-1.9,1.5-5.9,3.5-3.5c1.6,1.8,1.9,6.3,2.2,8.6c0.3,2.8,0.4,5.6,0.5,8.4c0.3,5.5,0.5,11.4,2.5,16.7
			c4.5,11.6,15.1,3.4,19.1-3.9c5.4-10.1,8.1-21.4,8.3-32.9c0-2.5-2.1-3.4-4.1-2.4c-2.5,1.2-3.8,4.3-4,6.9c-0.4,7.1-0.1,14.2,1,21.3
			c0.8,5.6,1.7,12.2,6.2,16.2c9.5,8.5,19.4-9.9,21.8-16.9c3.6-10.2,4.5-25.5-6-32.1c-10.5-6.6-22.3,3.4-22.3,14.4
			c0,2.5,2.1,3.4,4.1,2.4c2.4-1.2,4-4.3,4-6.9c0-3.6,7.3-1,8.6-0.2c2.9,1.9,4.7,5,5.5,8.4c1.5,6.5-0.3,13.8-3.9,19.3
			c-2,3-3.9,4.7-6.6,1.3c-1.9-2.5-2.5-6-3-8.9c-1.4-7.5-1.7-15.1-1.3-22.7c-2.7,1.5-5.4,3-8.1,4.5c-0.1,6-1,12-3,17.7
			c-0.9,2.6-1.8,5.9-3.5,8.1c-1.1,1.5-1.6,2.6-3.5,1.6c-1.5-0.8-1.8-2.6-2.2-4.1c-3.1-10.4,0.1-22.1-4.9-32.2
			c-5.2-10.5-14.7,2.4-17.1,8c-4.6,10.5-6.2,22.3-4.7,33.7c0.8,6.4,7.5,0.3,8-3.3c1.3-9.1,1.3-18.2-0.5-27.3
			c-1-5.1-3.5-13.6-10.4-12.1C580,69.2,578.1,78,576.9,84c-1.8,9.6-2.7,19.4-2.7,29.1c0,2.5,2.1,3.4,4.1,2.4c2.4-1.2,3.9-4.3,4-6.9
			c0.2-8.4,0.3-44.8-16-39.3c-7,2.4-9.9,11-11.5,17.4c-2.5,9.4-3.2,19.2-2.2,28.9c0.7,6.8,8.3-0.3,8.1-4.5
			c-0.4-11.3-0.1-22.6,1-33.9C562.3,69.8,554.2,74.3,553.7,79.2L553.7,79.2z"/>
	</g>
</g>
<g>
	<g>
		<path d="M651.8,81.6c1.3,9.4,2.1,19.6,4.9,28.7c2.3,7.2,9.2,10.3,14.9,4.4c5.6-5.8,8-15.6,9.3-23.3c1.4-8.7,1.4-17.6,1.2-26.4
			c0-2.5-2-3.4-4.1-2.4c-2.4,1.2-3.9,4.3-4,6.9c-0.9,27-1.8,54-2.6,81c-0.2,5.1,5.6,1.9,7-0.6c3-5.5,3.4-11.1,2.9-17.2
			c-0.5-7.3-0.9-14.5-0.5-21.8c0.3-7.6,1.3-15.1,2.8-22.5c0.7-3.6,1.6-7.2,2.6-10.8c0.2-0.6,0.9-5,1.6-5.4c2.1-1.1,2.3,2.1,2.7,3.5
			c1.9,7.5,3.7,14.9,5.6,22.4c1.3,5.3,2.5,11,8.1,13.2c11.6,4.5,20.4-8,25-16.6c0.9-1.7,2.1-5.3-0.1-6.6c-2.2-1.3-4.8,1.5-5.7,3.2
			c-2.6,4.9-6,11.5-12.6,10.4c-6.7-1.1-7.1-11.6-8.4-16.9c-0.9-3.7-1.9-7.5-2.8-11.2c-0.7-2.9-1.1-6.4-2.6-9c-2.9-4.9-8.6-3.5-12,0
			c-4.5,4.5-5.7,11.7-7.2,17.6c-1.8,7.2-3.1,14.4-4,21.8c-0.8,7.1-1.2,14.3-1,21.5c0.1,3.6,0.3,7.3,0.6,10.9c0.3,3.2,1,7.2-0.6,10.1
			c2.3-0.2,4.7-0.4,7-0.6c0.9-27,1.8-54,2.6-81c-2.7,1.5-5.4,3-8.1,4.5c0.2,11.5,0.6,23.7-3.8,34.5c-1.1,2.8-2.2,5.6-4.7,1.7
			c-1.4-2.1-1.6-5.2-2.1-7.6c-1.3-6.9-2.5-13.9-3.5-20.9C659,70.5,651.2,77.3,651.8,81.6L651.8,81.6z"/>
	</g>
</g>
<g>
	<g>
		<path d="M262.7,181.4c2.7-3.1,5.1-6.4,7.3-10c-0.8,0.1-1.6,0.1-2.3,0.2c0.1,3-0.1,17.3,5.8,14.7c2-0.9,2.9-3.3,3.5-5.2
			c1.4-4.7,2.2-9.7,3.3-14.5c-0.9,0.5-1.7,1-2.6,1.5c4.8,13.5,5.8,28,2.2,41.9c-0.4,1.7-0.5,6-2.9,3.7c-1.1-1-0.6-3.9-0.5-5.2
			c0.3-3.4,1.6-6.6,2.9-9.7c3-7.3,6.1-14.5,9.2-21.7c-0.8,0.4-1.6,0.9-2.4,1.3c1.5,2.9,0.1,8.1,3.9,9.5c2.8,1,5.4-1.1,6.8-3.3
			c3.1-4.9,5.1-17.7-3.9-17.6c-5.6,0.1-8.3,8.8-4.3,12.5c6.6,6,11.6-5.9,12.5-10.4c-0.9,0.5-1.7,1-2.6,1.5
			c0.8,4.9,0.9,10.8,2.5,15.5c0.8,2.1,2.1,3.1,4.2,1.9c5.9-3.3,5.2-16.1,4.7-21.6c-0.9,0.5-1.8,1-2.7,1.5c0.5,4.3,0.8,8.8,1.6,13
			c0.5,2.3,1.3,5.1,3.8,6c3.4,1.2,6.4-1.9,6.5-5.1c0-2.2-2.7,0.1-2.7,1.5c-1.2-0.3-2.4-0.6-3.6-0.9c-0.3-0.8-0.7-1.5-1-2.3
			c-0.6-1.7-0.6-3.6-0.8-5.3c-0.4-2.8-0.7-5.6-1-8.4c-0.3-2.2-2.8,0.1-2.7,1.5c0.3,3,0.3,5.9,0,8.9c-0.2,1.8-0.3,9.3-3.8,6.4
			c-0.9-0.7-1-6.2-1.2-7.4c-0.4-2.5-0.8-5-1.2-7.4c-0.3-1.9-2.5,0.7-2.6,1.5c-0.5,2.5-0.8,3.5-2.6,5.5c-0.9,2-2.4,2.6-4.5,1.7
			c-0.6-1.2-1.2-2.4-1.9-3.7c0.9-0.9,1.8-1.9,2.6-2.8c1.1,0.1,2,0.5,2.7,1.3c2,1.8,2.2,4,1.8,6.7c-0.2,0.9-0.5,1.7-0.7,2.6
			c-1.6,1.2-3.1,2.3-4.7,3.5c-1.5-0.4-1.5-3.3-1.7-4.5c-0.2-1.6-0.5-3-1.3-4.5c-0.6-1.2-2.1,0.8-2.4,1.3
			c-3.6,8.4-7.6,16.7-10.6,25.3c-2,5.6-3,11.3,0.3,16.6c0.2,0.3,0.5,0.3,0.8,0.3c3-0.5,4-3.4,4.8-6c1.6-5.1,2.6-10.4,3-15.8
			c0.9-10.7-0.6-21.4-4.2-31.5c-0.6-1.8-2.4,0.6-2.6,1.5c-0.5,2.4-1.1,4.8-1.6,7.1c-0.3,1.4-0.4,4.3-1.2,5.4
			c-3.3,4.3-3.3,0.4-3.7-1.6c-0.5-2.7-0.7-5.3-0.7-8c0-1.7-1.8-0.6-2.3,0.2c-2,3.3-4.2,6.3-6.7,9.1C260,180.9,261,183.2,262.7,181.4
			L262.7,181.4z"/>
	</g>
</g>
<g>
	<g>
		<path d="M341.4,166.4c-9.2-4.6-8.1,15.6-6.3,19.5c1.4,3,4.3,3.1,6.5,0.7c3.5-3.8,4.3-11.4,5.7-16.2c-0.8,0.3-1.7,0.7-2.5,1
			c0.6,3.4,0.5,16.2,6.3,16c4.5-0.2,5.1-7.8,5.3-10.8c0.2-3.3,0.3-11.3-5.1-10.7c-3.5,0.4-5.6,4.4-4.6,7.5c0.1,0.4,0.5,0.7,1,0.6
			c3.1-1.2,5.7-2.8,8.2-5c-0.6-0.1-1.1-0.1-1.7-0.2c0.8,5,0.8,11.1,2.5,15.9c0.7,2.1,2,3,4.2,2c5.5-2.6,6.8-12.4,6.7-17.5
			c-0.9,0.5-1.8,1-2.7,1.5c0.3,4.4,0.1,8.7-0.6,13.1c0.9-0.2,1.8-0.4,2.6-0.7c0.3-2.5,0.7-4.9,1.2-7.3c0.4-1.7,0.8-3.3,1.3-4.9
			c1.4-0.6,2.1-0.1,2,1.4c2.1,3.2,0.4,8,2.8,11.3c3.9,5.3,8.7,0,10.7-3.9c1-2-0.9-3.2-1.9-1.1c-0.8,2.5-3,3.2-6.4,2.2
			c-0.9-1.7-1.4-3.6-1.4-5.5c-0.3-1.8-0.6-3.5-1.1-5.2c-0.6-1.7-1.1-4-3.4-3.6c-5.3,0.8-5.9,13.8-6.4,17.3c-0.3,2.4,2.4,0.9,2.6-0.7
			c0.7-4.6,1-9.2,0.7-13.9c-0.1-2.2-2.7,0.1-2.7,1.5c0.1,2.9-0.2,5.8-1.3,8.5c-0.4,0.8-0.8,1.6-1.2,2.4c-2.6,1.3-3.8,0.7-3.5-1.7
			c-1.5-3.9-1.4-9.2-2-13.4c-0.1-0.9-1.2-0.6-1.7-0.2c-1,0.8-2.4,1.5-3.2,2.4c-0.4,0.2-0.9,0.5-1.3,0.7c0.8,0.7,1.7,1.3,2.5,2
			c1.1,2,1,8.9-0.2,10.4c0,2-0.6,2.1-1.9,0.4c-1.1-0.3-1.6-0.9-1.7-1.9c-0.4-0.9-0.4-2.3-0.6-3.3c-0.5-2.7-0.9-5.3-1.4-8
			c-0.3-1.6-2.3,0.3-2.5,1c-1.1,3.6-1.7,9.5-3.8,12.6c-5.7,8.3-5.9-15.3-1.6-13.2C340.9,170.3,342.8,167,341.4,166.4L341.4,166.4z"
			/>
	</g>
</g>
<g>
	<g>
		<path d="M400.2,183.9c4.5-4.9,7.7-10.5,9.7-16.8c-0.8,0.2-1.7,0.4-2.5,0.6c-0.5,14.4-0.9,28.7-1.4,43.1c-0.1,2.2,2.6-0.1,2.7-1.5
			c0.5-9.4,1.1-18.9,2.5-28.2c0.4-2.6,2.1-13.3,5.3-8.9c1.1,1.5,1.4,4.7,1.9,6.5c0.7,2.5,1.4,4.9,2.1,7.4c0.3,1.1,1.6,0.5,2-0.1
			c3.6-5,5.4-10.4,5.4-16.6c-0.9,0.6-1.8,1.2-2.7,1.9c1,3.2,1.9,11.9,6.8,11.3c4.3-0.6,5.7-6.5,5.9-10c0.2-3.6-1.5-8.7-6-8.4
			c-3.6,0.2-5.4,4-4.9,7.2c0.1,0.7,0.9,0.6,1.3,0.4c13.2-5.8,2.6,14.1,12.1,13.2c2-0.2,3.2-2.1,3.9-3.9c1.6-4.4,1.6-9.9,2.3-14.5
			c-0.9,0.5-1.7,1-2.6,1.5c0.9,4.5,0.8,8.7-0.3,13.2c0.9-0.4,1.8-0.7,2.7-1.1c0.2-2.9,0.6-6.3,1.9-9c0.8-1.6,2.3-5.5,3.4-2.4
			c0.4,1.1,0.3,2.4,0.3,3.5c0.1,3.7-0.3,7.7,1.5,11.1c3.5,6.5,7.3-1.7,8.2-5.3c0.6-2.4-2.3-0.9-2.6,0.7c-1.2,0.4-2.4,0.8-3.6,1.1
			c-0.1-0.4-0.3-0.9-0.4-1.3c-0.6-1.1-0.4-3.4-0.4-4.7c0-2.3,0.1-4.5-0.3-6.8c-0.3-1.9-0.8-4.5-3.4-3.9c-2.2,0.5-3.4,3.7-4.2,5.5
			c-1.9,4.2-2.8,8.5-3.2,13c-0.2,2.2,2.4-0.1,2.7-1.1c1.2-5,1.3-9.7,0.3-14.7c-0.4-1.8-2.5,0.7-2.6,1.5c-0.5,3-0.3,9.3-1.8,11.9
			c-2.2,3.8-3.6-3.1-3.7-4.8c-0.1-1.2-0.2-2.3-0.4-3.5c-0.3-1.5-0.5-4.1-2-4.9c-2.1-1-6.1,1.8-7.7,2.5c0.4,0.1,0.9,0.3,1.3,0.4
			c1.1-0.3,2.3-0.6,3.4-0.9c1.6,1.2,2.3,2.7,2,4.6c0.2,1.1,0.1,2.2-0.2,3.3c-0.1,2.2-1.6,2.5-4.5,0.8c-1.4-1.5-1.9-5.9-2.6-7.9
			c-0.6-1.9-2.7,0.9-2.7,1.9c0.1,4.8-1.2,9.2-4,13.1c0.7,0,1.3-0.1,2-0.1c-1.1-3.7-2.1-7.4-3.2-11.1c-0.4-1.5-0.8-5.3-2.6-6.1
			c-2.9-1.5-5,3-5.9,5c-2.6,5.6-3.2,11.8-3.8,17.9c-0.7,7.1-1.3,14.2-1.7,21.4c0.9-0.5,1.8-1,2.7-1.5c0.5-14.4,0.9-28.7,1.4-43.1
			c0.1-2-2.2-0.3-2.5,0.6c-1.8,5.7-4.6,10.7-8.7,15.1C397.5,183.4,398.5,185.8,400.2,183.9L400.2,183.9z"/>
	</g>
</g>
<g>
	<g>
		<path d="M496.2,176.3c-2.9-2.7-5.4-5.7-7.5-9.1c-1.2-2-2.4-4.1-3-6.3c-0.4-1.1-0.6-2.2-0.7-3.4c5.1-1.7,6.6-0.9,4.7,2.7
			c-2.1,6.5-5.9,12.4-7.3,19.1c-0.6,2.9-1.7,10.5,3.5,9.2c2.3-0.6,4.1-3,5.5-4.6c2.6-2.9,5-5.9,7.2-9.1c1.1-1.5,0-4-1.4-1.9
			c-1.3,1.8-2.6,3.6-4,5.4c-0.7,0.9-1.4,1.7-2.2,2.5c-1.8,2-2.3,3.7-4.8,2.3c-2.3-1.2-1.8-2.1-1.3-4.4c0.3-1.4,0.7-2.7,1.2-4.1
			c0.7-2,1.6-4,2.5-5.9c1.6-3.5,8-14.5,2.9-17.8c-4.3-2.8-8.6,3-9.2,6.7c-1.1,8,6,16.6,11.4,21.6
			C495.1,180.3,497.2,177.3,496.2,176.3L496.2,176.3z"/>
	</g>
</g>
<g>
	<g>
		<path d="M513.5,170.4c8.3,2.7-3.4,14.1-2.1,18.4c0.4,1.4,1.3,1.5,2.5,1.8c3.6,0.7,5.7-0.3,8.4,3.2c2.8,3.6,2.2,8.4,0.7,12.4
			c-0.3,0.9-0.7,1.9-1.2,2.7c-0.7,2.4-2,1.8-3.8-1.9c-0.1-1,1.4-3.8,1.8-4.8c2.9-7.1,7-13.6,11.9-19.5c1.2-1.5,0.2-3.9-1.4-1.9
			c-6.7,8.1-13.4,18.3-15.5,28.7c-0.5,2.6-0.1,5.4,3.1,5.5c3.7,0.1,5.7-4.4,6.9-7.2c2.8-6.7,4-18.3-5.3-20.7
			c-1.1-0.3-2.7,0.2-3.7-0.1c-2-0.6-1.4-0.7-0.5-2.6c1.2-2.7,2.5-5.6,3.3-8.4c1-3.5,0.9-7.6-3.1-8.9
			C513.8,166.6,512.1,169.9,513.5,170.4L513.5,170.4z"/>
	</g>
</g>
<g>
	<g>
		<path d="M533.6,167.5c-2.3,4.7-4.8,12.1-1.8,17.1c2.4,3.9,6,2.4,8.1-0.8c2.6-3.8,5.4-9.9,2.5-14.3c-2.5-3.7-7.2-3-9.2,0.8
			c-2,3.9,0.9,7.2,5.1,6.3c1.4-0.3,2.8-1.9,4.2-1.5c1.6,0.5,0.9,2.1,1.2,3.9c0.3,2,1.1,6.7,3.8,6.9c3.8,0.3,6.7-6.8,7.3-9.7
			c0.6-3,0.5-10.9-4.1-10.8c-3.5,0.1-7.3,6.9-5.7,9.9c0.9,1.8,2.9,1.7,4.5,0.9c1-0.5,1.6-1.3,2.5-2c0.4-0.4,0.6-1.1,1-1.4
			c6.2-4.2,5.8,4.1,5.3,6.8c-0.5,2.5,2.2,0.8,2.6-0.7c1-3.7,2.4-7.1,4.2-10.5c-0.7,0.3-1.4,0.6-2.1,0.9c3.7,4,3.2,9.3,2.5,14.3
			c-0.3,2.4,2.4,0.9,2.6-0.7c0.9-5.9,3.2-11,7.2-15.5c-0.6,0.1-1.2,0.3-1.9,0.4c3.1,4.2,4.3,21.4,13.7,14.2c1.3-1,1.2-4.1-0.7-2.6
			c-6.3,4.8-8.3-11.3-10.6-14.4c-0.5-0.7-1.4,0-1.9,0.4c-4.6,5.2-7.5,11.2-8.5,18.1c0.9-0.2,1.8-0.4,2.6-0.7
			c0.8-5.7,1.4-11.9-2.8-16.5c-0.7-0.8-1.8,0.2-2.1,0.9c-2.1,3.9-3.7,8-4.9,12.3c0.9-0.2,1.8-0.4,2.6-0.7c0.7-3.8,1.1-11-4.5-11
			c-2.5,0-3,1.8-4.8,3c-0.2,0.3-0.5,0.6-0.7,0.9c0.2-2.4,0.6-2.4,1.2,0.2c0.7,2.8,0.8,8.1-3.1,7.9c-1.7,0.7-2.5,0.1-2.4-1.6
			c-0.4-1.6-0.5-3.1-0.4-4.7c-0.1-0.7,0.1-1.5-0.4-2.2c-0.9-1.4-1.6-0.9-3-0.5c-1.2,0.9-2.5,1.6-3.9,2.2c-0.2-0.8-0.4-1.6-0.5-2.4
			c2,1.3,2.8,3.3,2.3,6c-0.5,1.8-1.3,3.4-2.2,5c-3,2.8-4.3,1.2-5.1-1.7c-1-3.6,0.4-8.2,2-11.4C536.5,166.6,534.6,165.5,533.6,167.5
			L533.6,167.5z"/>
	</g>
</g>
<g>
	<g>
		<path d="M608.9,182.5c7.5-12.4,12.2-26.1,13.9-40.5c0.3-2.5-2.4-0.9-2.6,0.7c-1.3,7.7-2.1,15.5-2.2,23.4c0,5.5-0.5,12.4,2.4,17.4
			c4,6.8,15.3,3.8,13.7-4.4c-0.4-1.8-2.9,0.9-2.6,2.2c0.6,3.1-4,3-5.7,2.3c-1.8-0.8-2.8-2.3-3.6-4c-1.5-3.4-1.5-7.4-1.5-11.1
			c-0.2-8.9,0.6-17.7,2.1-26.4c-0.9,0.2-1.8,0.4-2.6,0.7c-1.6,13.8-6,26.8-13.2,38.7C605.8,183.3,607.7,184.5,608.9,182.5
			L608.9,182.5z"/>
	</g>
</g>
<g>
	<g>
		<path d="M605.9,162c6.1,0,12.1,0,18.2,0c1.5,0,2.9-3.4,1.3-3.4c-6.1,0-12.1,0-18.2,0C605.7,158.6,604.3,162,605.9,162L605.9,162z"
			/>
	</g>
</g>
<g>
	<g>
		<path d="M630.4,142.9c-0.7,13-0.8,26-0.2,39c0.1,2.1,2.5,0.1,2.7-1.1c0.6-5.6,2.1-10.8,4.8-15.9c-0.8,0.2-1.5,0.4-2.3,0.6
			c1.2,3.7,2.4,7.4,3.5,11.1c0.7,2.4,1.3,5.2,2.8,7.3c2.6,3.6,6.4,2.1,9.4-0.3c7.3-5.9,10.2-16,7.4-24.9c-0.3-1.1-1.5-0.4-2,0.1
			c-4.9,5.9-10,16.3-2.7,22.6c5.2,4.5,13.1,0.5,13.7-6c0.2-2.4-2.5-1-2.6,0.7c-0.4,4.3-5.4,4.5-8,3c-1.6-0.9-2.8-2.6-3.4-4.3
			c-1.9-5.2,1.1-10.1,4.4-14c-0.7,0-1.3,0.1-2,0.1c2,6.3,0.9,16.3-5.5,20c-3.4,1.9-5.7,1.7-7.2-1.8c-0.7-1.6-1.1-3.2-1.6-4.8
			c-1.2-3.7-2.4-7.4-3.5-11.1c-0.4-1.3-1.9-0.1-2.3,0.6c-3,5.6-4.8,11.3-5.5,17.6c0.9-0.4,1.8-0.7,2.7-1.1c-0.6-13-0.5-26,0.2-39
			C633.3,139.2,630.5,141.5,630.4,142.9L630.4,142.9z"/>
	</g>
</g>
<g>
	<g>
		<path d="M690.3,181.6c0.2-3.3,0.6-6.6,1.2-9.9c0.3-1.3,0.6-5.1,1.5-6c1.2-0.2,2.5-0.3,3.7-0.5c0.6,1,1.1,2,1.5,3.1
			c2.3,5.4,3.1,11.2,2.9,17.1c0.9-0.5,1.8-1,2.7-1.5c-0.1-2.8-0.2-5.6-0.1-8.5c0.1-1.5,0.2-3,0.3-4.5c0.1-1.5-0.4-4.5,1.9-3
			c1.8,1.2,2.8,5.2,3.4,7.1c1.1,3.2,1.8,6.5,2.1,9.9c0.2,2.2,2.8-0.1,2.7-1.5c-0.1-3.4-0.1-6.7,0.5-10.1c0.1-1,0.3-2,0.6-3
			c0.2-2.5,1.9-2.8,5.3-1.1c0.5,0.7,0.4,2.3,0.5,3.1c0.6,3.1,1,11.6,4.3,13.3c6,3.1,10.3-15.5,11-18.7c-0.9,0.4-1.8,0.7-2.7,1.1
			c0.4,2.8,1.2,23.1,8.2,14.9c4.6-5.4,6.2-17.7-2.2-20.1c-1.4-0.4-3,2.9-1.3,3.4c7.4,2.2,3.7,20.9,14.3,18.2
			c7.1-1.8,7.6-14.8,6.9-20.2c-0.3-2.4-2.6,0.2-2.7,1.5c-1.2,15.6-1.2,31.3,0.1,46.9c0.9-0.5,1.8-1,2.7-1.5
			c-1-8.9-1.4-17.9-0.9-26.9c0.1-2.4,0.3-4.8,0.6-7.3c0.2-1.8,0-6.2,1-7.6c2-2.8,3.5-1.3,4.1,1.2c0.3,1.4,0.4,2.9,0.7,4.3
			c1.1,4.2,4.5,8.5,9.3,6.9c3.3-1.2,5.3-4.6,4.5-8c-0.4-1.8-2.9,0.9-2.6,2.2c-1.4,2.7-3.1,3.4-5.2,2c-0.8-0.5-1.5-1.2-2-2
			c-1.3-1.9-1.5-3.9-1.8-6.1c-0.3-1.7-0.5-3.7-1.7-5.1c-2.6-3-5.8-0.6-7.1,2.2c-2.6,5.5-2.2,13.7-2.5,19.7c-0.4,8.7,0,17.3,1,25.9
			c0.3,2.2,2.8-0.1,2.7-1.5c-1.3-15.6-1.3-31.3-0.1-46.9c-0.9,0.5-1.8,1-2.7,1.5c0.5,3.6,0.8,9-1.3,12.2c-5.2,8-8.5-1.5-9.2-5.2
			c-0.9-4.4-2-8.5-6.7-9.9c-0.4,1.1-0.9,2.3-1.3,3.4c4,1.1,5,5,4.4,8.7c-0.3,1.5-1.4,7.7-4.5,4.4c-0.5-0.6-0.7-5-0.9-6
			c-0.3-2.3-0.6-4.6-0.9-6.9c-0.3-2.2-2.4,0-2.7,1.1c-0.8,3.6-1.8,9.6-4.4,12.5c-1.4,1.6-1.9,2.2-3.4-0.2c-0.7-1.2-0.8-3.1-1.2-4.4
			c-0.8-3.2-0.5-11.3-4.8-12.3c-8.8-2-8.7,17.4-8.5,21.7c0.9-0.5,1.8-1,2.7-1.5c-0.4-4-2.7-20.9-9.1-19.7c-2.4,0.4-3,3.3-3.3,5.3
			c-0.8,5.4-0.8,11-0.6,16.4c0.1,2.3,2.7-0.2,2.7-1.5c0.2-5.2-0.4-10.4-2.1-15.4c-0.9-2.6-2.5-8.4-6.1-8.3c-3.1,0.1-4.5,3.8-5.2,6.2
			c-1.7,5.4-2.5,11.1-2.8,16.7C687.5,185.3,690.2,183,690.3,181.6L690.3,181.6z"/>
	</g>
</g>
<g>
	<g>
		<path d="M778.3,175c0.9-5.2,1.5-10.3,1.6-15.6c-0.8,0.8-1.5,1.6-2.3,2.4c3.2,1.2,6,3.1,8.3,5.6c1,1.1,1.9,2.3,2.6,3.6
			c0.4,0.8,1,1.8,1.1,2.7c0.2,2.3-1.5,3-3,1.7c-1.1-0.9-3.1,2.2-1.9,3.2c4.2,3.5,8.1-3,7.6-6.7c-0.9-6.2-7.3-11.3-12.8-13.4
			c-1.3-0.5-2.3,1.3-2.3,2.4c-0.1,5-0.6,9.8-1.5,14.7C775.3,178,778.1,176.5,778.3,175L778.3,175z"/>
	</g>
</g>
<g>
	<g>
		<path d="M1063,36.6c1.1-1.6,1.1-2,0.1-1.3c-0.6,0.3-1.2,0.6-1.8,0.9c-0.9,0.5-1.9,1.1-2.7,1.8c-2,1.7-3.6,3.8-4.6,6.2
			c-2.2,5.5-1.1,12.2-0.9,17.9c0.2,5.1,5.5,2,7-0.6c1.5-2.7,2.8-5.5,3.7-8.5c0.7-2.3,0.2-6.9,1.3-8.9c-2.3-0.2-4.6-0.5-6.9-0.7
			c-0.3,1.5-2.7,16.9-3.7,17.1c0.3-0.8,0.6-1.6,1-2.3c-0.5,0.1-1.1,0.1-1.6,0.2c-0.8-0.3-1.7-0.1-2.6-0.3c-2.4-0.7-4.2-2.2-5.6-4.3
			c-2.9-4.2-9.1,4.9-7,8.5c4.3,7.6,10.9,13.2,14.2,21.5c2.2,5.5,9-2.8,7.8-6.7c-1.2-4-2.4-8-2.7-12.3c-2.5,2.2-5,4.3-7.5,6.5
			c1.2,2.5,2.4,5.1,3.6,7.6c2.1,4.4,8.2-4.5,7.4-7.6c-0.9-3.2-1.6-6.2-1.5-9.6c-2.5,2.2-5,4.3-7.5,6.5c1.3,1.9,2.2,3.7,2.9,5.9
			c1.7,5.7,8-2.6,8-5.6c-0.1-3.2-0.4-6.3-1-9.4c-2.6,2.2-5.2,4.5-7.8,6.7c0.8,2,1.6,4,2.4,6c2.2,5.6,8-2.5,8-5.6
			c-0.1-2-0.1-4-0.2-6.1c-2.3,2.4-4.6,4.7-6.9,7.1c0.4,0.3,0.8,0.5,1.2,0.8c2.6,1.8,5.7-2.8,6.4-4.5c0.5-1.2,0.8-2.3,1.1-3.5
			c-2.3,2-4.5,3.9-6.8,5.9c0.7,0.4,1.1,0.9,1.3,1.7c1.9,3.8,6.4-2.5,7.1-3.9c0,0.1,0,0.3,0,0.4c-2,0.1-4,0.3-6,0.4
			c1,3,1.7,9.8,5.7,10.3c3.2,0.4,8.2-2,11-3.5c8.8-4.7,11.7-15,15.5-23.5c-2.5,1-5,2-7.5,3c0.3,2,0.1,3.8-0.9,5.6
			c-2,3.6-0.6,9.1,4,5.6c0.6-0.4,1.3-0.8,2-1c-1.4-0.8-2.8-1.6-4.1-2.4c0,0.4-0.1,0.8-0.1,1.2c0.4-1.3,0.8-2.6,1.1-3.9
			c-0.7,1.3-3.8,2.5-5,3.4c-1.6,1.1-3.3,2.2-4.8,3.5c-2.8,2.4-5.8,5.3-6.9,8.9c-2.4,8,4.6,9.7,10.5,6.5c-1.3-1.2-2.7-2.4-4-3.6
			c-0.1,0.4-0.2,0.9-0.3,1.3c0.6-1.3,1.2-2.6,1.9-3.9c-2.2,2.7-5,4.7-5.6,8.3c-0.1,1-0.1,2.7,0.2,3.6c0.6,1.3,2.9,2.1,3.3,3
			c0.1-1.2,0.2-2.5,0.3-3.7c-0.1,0.2-0.2,0.5-0.3,0.7c1.2-1.4,2.3-2.9,3.5-4.3c-2.8,1.2-4.7,3.7-5.5,6.6c-0.5,1.8-0.4,3.4-0.6,5.2
			c0,1-0.1,2-0.4,2.9c0.5-0.7,0.5-1.3,0-1.9c-0.5-3.7-1.7-8.2-2.9-11.8c-1.1-3.4-2.9-6.1-5.8-8.2c-1.6-1.2-4,0.9-4.9,1.9
			c-2.6,3.1-4.2,6.4-5.2,10.3c2.3-2,4.5-3.9,6.8-5.9c1.5,1.2,0.3-1.6-0.1-2.2c-0.7-1-1.4-1.5-2.6-1.5c0.7,1,1.4,1.9,2.1,2.9
			c0.2-3.4,0.9-6.5,2.2-9.6c-2.5,1-5,2-7.5,3c0.4,2.5,0.3,5,0.1,7.5c-0.2,2.3,1.7,3.2,3.6,2.6c2.3-0.7,3.9-3.6,4.4-5.8
			c0.7-3.2,1.4-6.4,2-9.6c-2.7,1.1-5.3,2.2-8,3.3c0.4,3.3,0.7,6.6,1.1,9.9c0.7,6.3,7.6,0.4,8-3.3c0.3-2.6,0.5-5.1,0.8-7.7
			c-2.7,1.1-5.3,2.2-8,3.3c0.4,2.9,0.7,5.8,1.1,8.6c0.7,5.7,6.6,1.4,7.6-1.9c0.8-2.6,1.4-5.2,1.8-8c-2.7,1.1-5.3,2.2-8,3.3
			c0.3,3.3,0.6,6.7,0.8,10c0.5,6.5,7.4,0.2,8-3.3c0.5-3.1,0.8-6.3,1-9.5c-2.7,1.5-5.4,3-8.1,4.5c0.7,6.1,1.4,12.3,2.2,18.4
			c0.8,6.7,8.4-0.3,8.1-4.5c-0.4-6.3-0.7-12.5,0.3-18.8c-2.7,1.1-5.3,2.2-8,3.3c0.6,7.6,1.1,15.2,1.7,22.8c2.7-1.5,5.4-3,8.1-4.5
			c-0.4-4.6-0.5-9.2,0.1-13.8c-2.7,1.1-5.3,2.2-8,3.3c0.5,5.7,1.4,11.4,2.6,17c0.6,2.6,3.5,1.8,5,0.6c2.1-1.7,3.2-4.6,2.8-7.3
			c-0.7-4.5-0.8-9-0.5-13.6c-2.7,1.9-5.3,3.7-8,5.6c0.6,3.7,1.2,7.3,1.8,11c0.8,5.2,8.4-2.1,8-5.6c-0.9-7.4-1.1-22.1-11.9-21.8
			c-10,0.3-13.2,14-15.9,21.4c2.5-0.6,5.1-1.3,7.6-1.9c-0.2-2.5-0.2-4.9,0-7.4c-2.7,1.5-5.4,3-8.1,4.5c0.4,4.2-2.2,7.4-3.9,11
			c-0.9,1.8-1.5,5.9-3,7.2c1.3-0.3,2.6-0.6,3.9-1c-1-0.7-1.9-1.4-2.9-2c-1.9,3.2-3.8,6.5-5.6,9.7c3.4,1.8,6.8,3.5,9.5,6.2
			c2.5,2.4,4.3,5.3,6.7,7.8c3.8,4,8.7-5,7-8.5c-1.3,2.2-1.2,2.5,0.3,1c3.6-3.1,3.9-12.2-2.2-7.8c-10.4,7.4-3.1,19.8,0.7,28.6
			c2.3,5.4,9.5-2.8,7.8-6.7c-1.2-2.9-2.5-5.8-3.7-8.7c-0.4-1-0.9-2.1-1.3-3.1c-0.3-0.8-0.6-1.5-0.7-2.4c-0.1-1.3-0.3-1.2-0.6,0.1
			c-0.7-2.6-1.5-5.2-2.2-7.8c-4.6,3.9-8,9.5-5,15.3c2.3-2.8,4.7-5.7,7-8.5c-2.6-2.7-4.6-5.8-7.3-8.4c-3-2.9-6.6-4.9-10.3-6.8
			c-4.1-2.2-9.4,7.1-5.6,9.7c1,0.7,1.9,1.4,2.9,2c1.2,0.9,3-0.2,3.9-1c4.3-3.7,5-8.5,7.4-13.2c2.8-5.6,6.1-10.7,5.4-17.3
			c-0.2-2.4-1.9-3.5-4.1-2.4c-2.5,1.2-3.8,4.3-4,6.9c-0.2,2.5-0.2,4.9,0,7.4c0.5,5.9,6.5,1.1,7.6-1.9c1.2-3.3,3-13.6,8-11
			c4.5,2.4,4.1,11.1,4.6,15.3c2.7-1.9,5.3-3.7,8-5.6c-0.6-3.7-1.2-7.3-1.8-11c-0.4-2.4-3.1-1.8-4.5-0.9c-2.2,1.4-3.3,4-3.5,6.5
			c-0.4,5.3,0,10.5,0.8,15.8c2.6-2.2,5.2-4.5,7.8-6.7c-1.1-4.9-1.9-9.8-2.3-14.8c-0.6-6.4-7.6-0.3-8,3.3c-0.7,5.5-0.8,10.8-0.3,16.3
			c0.6,6.7,8.4-0.2,8.1-4.5c-0.6-7.6-1.1-15.2-1.7-22.8c-0.5-6.5-7.5-0.2-8,3.3c-1.1,7.1-0.9,14.1-0.5,21.3c2.7-1.5,5.4-3,8.1-4.5
			c-0.7-6.1-1.4-12.3-2.2-18.4c-0.3-2.4-1.9-3.5-4.1-2.4c-2.5,1.2-3.8,4.3-4,6.9c-0.1,2.4-0.4,4.7-0.8,7c2.7-1.1,5.3-2.2,8-3.3
			c-0.3-3.3-0.6-6.7-0.8-10c-0.5-6.4-7.6-0.3-8,3.3c-0.2,1.8-0.5,3.5-1,5.3c2.5-0.6,5.1-1.3,7.6-1.9c-0.4-2.9-0.7-5.8-1.1-8.6
			c-0.8-6.3-7.6-0.4-8,3.3c-0.3,2.6-0.5,5.1-0.8,7.7c2.7-1.1,5.3-2.2,8-3.3c-0.4-3.3-0.7-6.6-1.1-9.9c-0.7-6.6-7.3,0-8,3.3
			c-0.7,3.2-1.4,6.4-2,9.6c2.7-1.1,5.3-2.2,8-3.3c0.2-3.3,0-6.4-0.4-9.7c-0.7-5.1-6.8,1.3-7.5,3c-1.9,4.8-2.9,9.6-3.2,14.8
			c-0.1,1.2,0.7,2.9,2.1,2.9c-0.8-0.9-1.1-0.9-0.9-0.1c0,0.4,0.1,0.9,0.2,1.3c0.4,0.9,0.9,1.3,1.6,1.9c3,2.3,6.3-4,6.8-5.9
			c0.2-1,0.7-1.8,1.4-2.4c-1.6,0.6-3.3,1.3-4.9,1.9c4.5,3.4,4.3,9.4,5.6,14.4c0.9,3.5,2.3,7.5,6.5,7.2c3.8-0.2,6.7-3.8,8.4-6.9
			c1.9-3.5,1.4-8.5,2.2-11.1c-0.8,1.2-1.6,2.4-2.5,3.6c2.3-2.2,4.7-3.9,4.9-7.4c0.1-1.2-0.1-2.5-0.8-3.5c-0.7-1.1-2.6-1.3-2.7-2.5
			c-0.3,1.7-0.7,3.4-1,5c0.4-0.8,2.1-2.1,2.9-3.2c1.2-1.7,1.7-3.3,2.2-5.2c0.6-2.7-1.2-5.2-4-3.6c-0.8,0.4-4.1,3.1-1.8,2.2
			c0.9-0.4,1.8-1.5,2.6-2c2.1-1.5,4.5-2.8,6.6-4.4c3.7-2.7,5.8-6,6.1-10.6c0.2-2.6-2.2-3.2-4.1-2.4c-1.5,0.6-2.7,1.5-4.1,2.5
			c1.3,1.9,2.7,3.7,4,5.6c2.8-5,3.8-10,2.9-15.7c-0.8-5.2-6.7,1.4-7.5,3c-2,4.4-3.7,11.8-7.9,14.5c-1.7,1.1-4.4,2.2-6.4,2.4
			c-2.3,0.2-0.3,0.3-1-0.7c-0.9-1.4-1.4-4.1-1.9-5.6c-1.1-3.3-4.4-1.2-6,0.4c-1.4,1.4-2.1,3-3,4.7c2.4-1.3,4.7-2.6,7.1-3.9
			c-0.6-1.3-1.5-2.1-2.7-2.9c-3.1-2.1-6.3,3.8-6.8,5.9c-0.1,0.3-0.2,0.6-0.3,0.9c2.1-1.5,4.3-3,6.4-4.5c-0.4-0.3-0.8-0.5-1.2-0.8
			c-3.4-2.4-6.9,4.7-6.9,7.1c0.1,2,0.1,4,0.2,6.1c2.7-1.9,5.3-3.7,8-5.6c-0.8-2-1.6-4-2.4-6c-2.3-5.8-8.4,3.1-7.8,6.7
			c0.4,2.4,0.6,4.8,0.7,7.2c2.7-1.9,5.3-3.7,8-5.6c-0.8-2.8-2-5.3-3.7-7.7c-3-4.2-7.5,4.2-7.5,6.5c-0.1,4.1,0.7,7.9,1.8,11.8
			c2.5-2.5,4.9-5.1,7.4-7.6c-1.2-2.5-2.4-5.1-3.6-7.6c-2.1-4.4-7.7,4.2-7.5,6.5c0.3,5,1.5,9.7,3,14.5c2.6-2.2,5.2-4.5,7.8-6.7
			c-3.6-8.9-10.4-15.1-15.1-23.3c-2.3,2.8-4.7,5.7-7,8.5c3.8,5.6,11.8,8.4,18,4.9c3.2-1.8,4.8-5.2,5.6-8.6
			c1.4-5.7,2.5-11.4,3.7-17.1c1.3-5.9-4.9-4-6.9-0.7c-3.2,5.5-1.9,11.8-5,17.4c2.3-0.2,4.7-0.4,7-0.6c-0.1-2.9-1.2-8-0.3-10.8
			c0.8-2.4,4.3-3.1,6.1-4.8c3.7-3.4,6.2-9.5,2.9-13.9C1067,24.1,1060.4,33.1,1063,36.6L1063,36.6z"/>
	</g>
</g>
<g>
	<g>
		<path d="M1074.7,161.3c9.1,18.8,11.4,39.8,13.5,60.3c0.7,6.9,8.1-0.4,8.1-4.5c0.1-11,0-22-1.6-33c-0.7-5-1.7-10.3-3.6-15
			c-2-4.8-5.2-9-8-13.3c-2.3,2.8-4.7,5.7-7,8.5c8,8.9,7.1,22.1,12.1,32.6c1,2.2,4.1,0.1,5.1-0.8c1.7-1.7,2.8-4.4,2.3-6.8
			c-1.2-5.4-1.4-9.9,1.1-14.9c2.2-4.3,4.7-8.5,7-12.8c-2.3-0.2-4.6-0.5-6.9-0.7c-1.6,6-3.5,12-5.4,18c-1.9,5.9,3.9,7.1,6.5,2
			c3.3-6.5,6.2-13.2,8.7-20c0.7-1.8,0.9-5.1-1.6-5.5c-2.5-0.4-4.8,2.9-5.5,4.8c-2.1,5.9-4.6,11.7-7.4,17.3c2.2,0.7,4.3,1.3,6.5,2
			c2.3-6.8,4.3-13.7,6.2-20.7c1.6-5.8-5-4.1-6.9-0.7c-3.3,6.1-7.4,12.2-9.7,18.8c-2.2,6.3-1.7,12.6-0.3,19c2.5-2.5,4.9-5.1,7.4-7.6
			c-5.1-10.6-3.9-23.4-12.1-32.6c-3.5-3.9-9.2,5-7,8.5c2.6,4,5.8,7.9,7.5,12.3c1.9,4.7,2.7,10,3.4,15c1.3,9.9,1.2,20,1.2,30
			c2.7-1.5,5.4-3,8.1-4.5c-2.3-22-4.9-44.1-14.6-64.3C1079.7,148.7,1072.8,157.4,1074.7,161.3L1074.7,161.3z"/>
	</g>
</g>
<g>
	<g>
		<path d="M1065.7,212.2c6.4,5.4,12.5,11,18.4,16.8c3.7,3.6,10-5.5,7-8.5c-6.3-6.3-12.9-12.3-19.7-18.1
			C1068,199.7,1062.1,209.2,1065.7,212.2L1065.7,212.2z"/>
	</g>
</g>
<g>
	<g>
		<path d="M1083.8,151.2c2.6,2.2,5.3,4.4,7.7,6.8c2.5,2.5,4.1,5.5,5.7,8.7c1.2,2.4,4.6-0.1,5.6-1.3c1.6-2,2.6-4.8,1.4-7.2
			c-1.8-3.5-3.7-6.7-6.5-9.5c-2.6-2.6-5.5-4.9-8.3-7.3C1086.2,138.7,1080.2,148.1,1083.8,151.2L1083.8,151.2z"/>
	</g>
</g>
<g>
	<g>
		<path d="M1095.5,158.5c1.8,0.6,2.7,1.4,2.9,3.2c0.7,5,6.8-1.1,7.5-3c2.3-7,1.7-13.7-0.2-20.7c-2.6,2.2-5.2,4.5-7.8,6.7
			c2.3,5.9,3.5,11.9,3.5,18.2c0,2.5,2.1,3.4,4.1,2.4c2.4-1.2,3.9-4.3,4-6.9c0.1-2.8,0-6.4,0.9-9.1c-0.8,1.2-1.6,2.4-2.5,3.6
			c0.2-0.2,0.4-0.3,0.7-0.5c-1.3,0.3-2.6,0.6-3.9,1c0.5,0.2-0.2,3.3-0.3,3.6c-0.4,1.9,0.2,4.2,2.5,4.1c2.3-0.1,4.4-2.8,5-4.8
			c0.1-0.5,0.3-1,0.5-1.4c0.6-1,0-0.7-1.9,1c-0.3-2.3-0.7-4.6-1-6.8c-1.5,2.4-3.3,4.6-5.2,6.7c-1.3,1.4-2.5,4.3-1.8,6.3
			c0.6,1.7,2.5,2.3,4,1.3c3.8-2.6,7.4-5.3,10.8-8.4c1.5-1.3,5.4-9.1,0.8-9.1c-1.8,0-3.1-0.3-4.7-1.2c-1.6,3.3-3.2,6.7-4.7,10
			c1.5,0.3,3,0.5,4.5,0.6c4.4,0.2,8.8-10,3.9-10.3c-1.5-0.1-3-0.3-4.5-0.6c-3.8-0.8-8.5,7.9-4.7,10c2,1.1,4.1,1.7,6.5,1.7
			c0.3-3,0.6-6,0.8-9.1c-2.8,2.5-5.6,4.8-8.7,6.9c0.7,2.5,1.4,5,2.1,7.6c2.6-2.8,4.8-5.9,6.9-9.1c1.2-1.9,2.1-6.2-1-6.8
			c-4.9-1.1-8.4,6.4-9.6,10c2.5-0.2,5-0.4,7.5-0.7c0.7-3.4,1.3-14.9-5.4-10.8c-5.7,3.5-5.4,12.8-5.5,18.7c2.7-1.5,5.4-3,8.1-4.5
			c0-7-1.2-13.9-3.8-20.4c-2.2-5.6-8.9,2.9-7.8,6.7c1.2,4.3,2.4,9,0.9,13.4c2.5-1,5-2,7.5-3c-0.4-2.9-2.3-5.4-5.1-6.3
			C1096.6,147.4,1091.4,157.2,1095.5,158.5L1095.5,158.5z"/>
	</g>
</g>
<g>
	<g>
		<path d="M1046.6,187.9c0.8,4.8,4.3,7.5,8,10.3c4.7,3.5,8.1,7.8,10.1,13.3c1.5,4,5.5,0.4,6.8-1.7c7.1-10.7,12-22.5,15-35
			c-2.6,0.7-5.3,1.3-7.9,2c-1.5,6.8-3.7,14-8.3,19.4c-1.6,1.8-5.7,6.3-8.5,6.1c-2.8-0.3-7-7-8.3-9c-2.1,3-4.2,6.1-6.3,9.1
			c2.2,1.3,9.1,4.7,9.8,7.4c0.3-1.7,0.7-3.4,1-5c-0.7,1.2-6.6,4.4-8.3,2.5c-2.1,3-4.2,6.1-6.3,9.1c6.6,5.1,14.7,2.5,20-3.1
			c1.6-1.6,3.7-7.6-0.1-8.1c-3.2-0.4-6.1-1.2-9-2.5c-1.6,3.3-3.2,6.7-4.7,10c3.6,0.3,7.2,0.6,10.9,0.9c4.4,0.4,8.8-9.9,3.9-10.3
			c-3.6-0.3-7.2-0.6-10.9-0.9c-3.5-0.3-8.9,8.1-4.7,10c3.5,1.6,6.9,2.6,10.7,3.1c0-2.7-0.1-5.4-0.1-8.1c-2.7,2.8-7.7,1.1-10.2-0.8
			c-3.4-2.6-8.8,6.3-6.3,9.1c5.3,5.8,15-0.3,19.1-4.8c2.2-2.5,4.3-6.3,2.3-9.6c-2.2-3.7-7.8-6.6-11.4-8.7c-4-2.3-8.3,6.1-6.3,9.1
			c2.4,3.6,6.8,10,11.3,11c4.4,1,10.6-4.7,13.5-7.5c8.4-8.1,12.6-19.3,15.1-30.5c0.5-2.2-0.5-4.4-3-4.1c-2.6,0.4-4.4,3.8-4.9,6.1
			c-2.5,10.6-6.9,20.5-12.9,29.6c2.3-0.6,4.6-1.1,6.8-1.7c-1.7-4.8-4.2-9.1-7.9-12.7c-3.5-3.4-9.4-5.6-10.2-10.9
			c-0.4-2.7-3.6-1.7-5-0.6C1047.3,182.3,1046.2,185.2,1046.6,187.9L1046.6,187.9z"/>
	</g>
</g>
<g>
	<g>
		<path d="M1042.8,56.4c1.4,0,1.5-2.3,0-2.3C1041.3,54.1,1041.3,56.4,1042.8,56.4L1042.8,56.4z"/>
	</g>
</g>
<g>
	<g>
		<path d="M1043.8,55.7c-0.4-4,0.3-6.7,1.8-10.3c0.8-1.9,1.1-3.7,1.3-5.7c0.4-2.8,0.3-3.4,2.7-5.4c2-1.7,2.9-1.9,5.2-2.3
			c2.3-0.4,11.3-2.9,12.2-0.1c0.5,1.4,2.7,0.8,2.2-0.6c-1-2.9-3.3-3.1-6.2-2.8c-4.3,0.4-11.6,0.5-15.1,3.2c-2.6,1.9-2.9,5.1-3.3,8
			c-0.4,3.2-1.9,5.4-2.8,8.3c-0.8,2.5-0.6,5.1-0.3,7.7C1041.7,57.1,1043.9,57.1,1043.8,55.7L1043.8,55.7z"/>
	</g>
</g>
<g>
	<g>
		<path d="M1069.2,34c5.4-2,8.5,0.4,12.2,3.8c3,2.6,8.7,3.7,8.9,8.3c0.1,1.4,2.2,1.5,2.3,0c0-1.9-0.2-3.4-0.8-5.2
			c-0.4,0.5-0.7,0.9-1.1,1.4c10.1,0,13.4,14.1,12.8,22.3c-0.4,5.3-3.7,7.2-8.1,9.5c-4,2-8.2,3.5-12.5,4.8c-1.4,0.4-0.8,2.6,0.6,2.2
			c6.1-1.8,12.1-4.1,17.5-7.5c5-3.1,5.1-5.8,4.6-11.5c-0.8-9.1-3.4-21.9-14.9-22c-0.7,0-1.3,0.7-1.1,1.4c0.6,1.5,0.9,3,0.7,4.6
			c0.8,0,1.5,0,2.3,0c-0.3-6-7.1-7.8-11-11.3c-3.8-3.4-8.1-4.7-13-2.9C1067.2,32.3,1067.8,34.5,1069.2,34L1069.2,34z"/>
	</g>
</g>
<g>
	<g>
		<path d="M1064.8,110.5c1.7-0.8,3.4-1,5.3-0.6c0.7,0.1,1.4-0.3,1.4-1.1c0.1-5.6,6-9.3,11.2-9.7c2.7-0.2,5.3,0.5,6.6,2.8
			c0.8,1.5,0.8,4,1.2,5.7c1.6,6.4,4.2,12.3,8.5,17.4c0.9,1.1,2.5-0.5,1.6-1.6c-3.4-4.2-7-8.6-8.2-14c-0.7-3-1.1-8.6,1.7-10.9
			c0.9-0.7,2.6-1.2,3.7-1.5c3.1-0.9,3,0.1,6.6,1.4c1.1,0.4,1.3,0.6,2.4,0.8c1.3,0.2,1.3-0.7,3.1-0.3c0.6,0.1,1.3,0.9,1.9,1.1
			c1.9,0.8,3.9,1,5.8,1.9c1.4,0.7,9.9,5.9,5.9,8.5c-0.6,0.4-0.8,1.6,0,1.9c16.7,7.9,7.4,30-5.8,36c-1.3,0.6-0.2,2.5,1.1,1.9
			c14.8-6.7,24-31.3,5.8-39.9c0,0.6,0,1.3,0,1.9c5.5-3.6-0.4-8.7-3.8-11c-1.8-1.2-3.5-2.1-5.5-2.8c-1.6-0.6-3.5-1.7-5.1-2.1
			c-1.2-0.3-2.4-0.1-3.6-0.4c-1.7-0.4-2.9-1.4-4.6-1.7c-5.6-1.1-11.1,2.3-12,7.7c-1.5,9,3.8,16.2,9.1,22.8c0.5-0.5,1.1-1.1,1.6-1.6
			c-4.6-5.4-7-12-8.5-18.8c-0.8-3.6-0.9-7.6-5.2-8.2c-7.5-1.2-17.5,4.5-17.7,12.5c0.5-0.4,0.9-0.7,1.4-1.1c-2.4-0.4-4.2-0.3-6.5,0.6
			C1062.8,108.8,1063.4,111,1064.8,110.5L1064.8,110.5z"/>
	</g>
</g>
<g>
	<g>
		<path d="M1099.9,121.5c-1.7,3.1-2.5,6.1-2.7,9.6c0.6-0.3,1.3-0.5,1.9-0.8c-3.9-4.8-12.1-9.9-18.5-8.1c-6.7,1.9-13,6.3-14.1,13.5
			c-0.9,6.1,2.7,12.2,6.6,16.7c5.2,6.1,16.1,6.7,23.5,6.9c1.4,0,1.4-2.2,0-2.3c-5.9-0.2-13.3-0.6-18.6-3.6c-4-2.3-8.9-9.5-9.4-14.2
			c-0.6-6.6,3.7-11.4,9.6-13.7c4.9-1.8,8.2-1.2,12.5,1.1c2.6,1.4,4.9,3,6.8,5.3c0.7,0.8,1.9,0.1,1.9-0.8c0.2-3.1,0.9-5.7,2.4-8.4
			C1102.5,121.4,1100.6,120.2,1099.9,121.5L1099.9,121.5z"/>
	</g>
</g>
<g>
	<g>
		<path d="M1076.2,158.5c-2.9-7.1-12.4-9.1-19-5.8c-3.3,1.6-4.4,5.3-5.7,8.5c-2.2,5.6-4,11.3-5.4,17.1c0.5-0.3,0.9-0.5,1.4-0.8
			c-5-1.5-10.1-3.1-15.1-4.5c-3-0.8-6-1.6-9-0.3c-6.8,3.1-6.6,12.9-6.7,19.1c-0.1,6.8,1,13.6,7.2,17.5c7.1,4.5,18.1,3.8,26.2,4.7
			c1.4,0.2,1.4-2.1,0-2.3c-6.3-0.7-13-0.8-19.2-2.2c-8.3-1.8-11.9-7.8-12-16c0-6.2-0.6-18.1,7.4-19c6.5-0.7,14.3,3.2,20.5,5
			c0.6,0.2,1.2-0.2,1.4-0.8c1.4-5.5,3-11,5.1-16.2c1.6-3.9,2.7-7.4,7.4-8.6c4.9-1.3,11.2-0.1,13.4,5.1
			C1074.6,160.4,1076.8,159.8,1076.2,158.5L1076.2,158.5z"/>
	</g>
</g>
<g>
	<g>
		<path d="M1029.2,172.9c0.6-4.9,7.5-8.7,11.3-10.8c4.4-2.3,8.9-3.5,13.8-3.2c1.4,0.1,1.4-2.2,0-2.3c-6.4-0.4-12.4,1.6-17.7,5.1
			c-4.1,2.6-9,5.9-9.7,11.1C1026.8,174.4,1029.1,174.4,1029.2,172.9L1029.2,172.9z"/>
	</g>
</g>
<g>
	<g>
		<path d="M1045.4,178.2c1.7,1.8,3.1,3.9,4,6.2c0.5,1.3,2.7,0.8,2.2-0.6c-1.1-2.7-2.6-5.1-4.6-7.2
			C1046,175.6,1044.4,177.2,1045.4,178.2L1045.4,178.2z"/>
	</g>
</g>
<g>
	<g>
		<path d="M222.5,178.5C188,192,170.2,226,154.8,257.4c0.6-0.4,1.3-0.7,1.9-1.1c-1.8-1-3.7-1.9-5.5-2.9c-1.1-0.6-2.1,1.1-2.3,2
			c-0.5,3-0.4,5.6,0.3,8.5c0.1,0.5,0.5,0.6,1,0.6c4.2-0.7,7.5-2.4,10.6-5.3c1.1-1.1,1-4.3-0.7-2.6c-1.6,1.5-4.4,4.1-6.8,4
			c-3-0.1-2.1-3.5-1.7-5.9c-0.8,0.7-1.5,1.3-2.3,2c1.8,1,3.7,1.9,5.5,2.9c0.7,0.4,1.6-0.5,1.9-1.1c14.8-30.2,31.8-63.7,65.1-76.7
			C223.1,181.4,224.2,177.9,222.5,178.5L222.5,178.5z"/>
	</g>
</g>
<g>
	<g>
		<path d="M522.7,224.6c3.6,15.2,4.2,30.7,1.8,46.1c0.5-0.7,1.1-1.3,1.6-2c-2.1,0.3-3.7-0.1-5.4-1.3c-1.4-0.9-2.6,2.1-2.1,3
			c4.5,9.3,16,5,17.7-3.8c0.5-2.4-2.3-0.9-2.6,0.7c-1.6,8.1-10.4,5.2-12.7,0.3c-0.7,1-1.4,2-2.1,3c2.2,1.4,4.1,1.8,6.7,1.4
			c0.8-0.1,1.5-1.3,1.6-2c2.5-15.9,1.9-32-1.8-47.7C524.9,220.6,522.4,223.3,522.7,224.6L522.7,224.6z"/>
	</g>
</g>
<g>
	<g>
		<path d="M794.5,197.4c33.7,14.8,62.8,38.6,84.1,68.6c1.1,1.5,2.6-1.7,2.5-2.5c-0.6-4.4-5.1-6.3-8.9-4.3c-0.9,0.5-1.8,2-1.1,3
			c2.8,4.1,8.6,9,13.2,4.4c2.5-2.5,3.8-7.6,0.1-9.5c-1.4-0.7-3.2,2.5-1.9,3.2c2.4,1.1,1.7,2.6-2,4.6c-1.1-0.1-2-0.5-2.9-1.1
			c-1.8-1.1-3.1-2.8-4.3-4.5c-0.4,1-0.8,2-1.1,3c2.9-1.6,5.9,0.4,6.3,3.4c0.8-0.8,1.6-1.7,2.5-2.5c-21.4-30.2-50.7-54.1-84.5-69
			C795,193.5,793.2,196.8,794.5,197.4L794.5,197.4z"/>
	</g>
</g>
</svg>
